<svg width="120" height="28" viewBox="0 0 120 28" fill="none" xmlns="http://www.w3.org/2000/svg">
<rect width="120" height="28" rx="4" fill="#F7E2F9"/>
<path d="M22.0625 9.8125L17.6875 5.4375C17.5625 5.3125 17.4375 5.25 17.25 5.25H11C10.3125 5.25 9.75 5.8125 9.75 6.5V21.5C9.75 22.1875 10.3125 22.75 11 22.75H21C21.6875 22.75 22.25 22.1875 22.25 21.5V10.25C22.25 10.0625 22.1875 9.9375 22.0625 9.8125ZM17.25 6.75L20.75 10.25H17.25V6.75ZM21 21.5H11V6.5H16V10.25C16 10.9375 16.5625 11.5 17.25 11.5H21V21.5Z" fill="#9C27B0"/>
<path d="M19.75 17.75H12.25V19H19.75V17.75Z" fill="#9C27B0"/>
<path d="M19.75 14H12.25V15.25H19.75V14Z" fill="#9C27B0"/>
<path d="M34.69 19H33.178V10.306H30.182V9.004H37.686V10.306H34.69V19ZM40.8556 11.314C41.8076 11.314 42.5169 11.524 42.9836 11.944C43.4502 12.3547 43.6836 13.0033 43.6836 13.89V19H42.6336L42.3396 17.95H42.2836C42.0689 18.2207 41.8449 18.4447 41.6116 18.622C41.3876 18.7993 41.1262 18.93 40.8276 19.014C40.5382 19.098 40.1836 19.14 39.7636 19.14C39.3156 19.14 38.9096 19.0607 38.5456 18.902C38.1909 18.734 37.9109 18.482 37.7056 18.146C37.5002 17.8007 37.3976 17.3713 37.3976 16.858C37.3976 16.0927 37.6869 15.5093 38.2656 15.108C38.8536 14.7067 39.7449 14.4873 40.9396 14.45L42.2276 14.408V13.988C42.2276 13.428 42.1016 13.036 41.8496 12.812C41.5976 12.588 41.2429 12.476 40.7856 12.476C40.3936 12.476 40.0202 12.532 39.6656 12.644C39.3109 12.756 38.9749 12.8913 38.6576 13.05L38.1816 11.972C38.5362 11.7853 38.9422 11.6313 39.3996 11.51C39.8662 11.3793 40.3516 11.314 40.8556 11.314ZM41.2056 15.402C40.3469 15.4393 39.7496 15.584 39.4136 15.836C39.0869 16.0787 38.9236 16.424 38.9236 16.872C38.9236 17.264 39.0402 17.5487 39.2736 17.726C39.5162 17.9033 39.8196 17.992 40.1836 17.992C40.7716 17.992 41.2569 17.8287 41.6396 17.502C42.0222 17.1753 42.2136 16.6853 42.2136 16.032V15.374L41.2056 15.402ZM48.5726 11.314C49.058 11.314 49.4966 11.4073 49.8886 11.594C50.2806 11.7807 50.612 12.0653 50.8826 12.448H50.9526L51.1206 11.454H52.3246V19.098C52.3246 19.8073 52.1986 20.4047 51.9466 20.89C51.6946 21.3753 51.3073 21.7393 50.7846 21.982C50.2713 22.234 49.6226 22.36 48.8386 22.36C48.2973 22.36 47.798 22.3227 47.3406 22.248C46.8833 22.1733 46.4633 22.0567 46.0806 21.898V20.596C46.4726 20.792 46.9066 20.9367 47.3826 21.03C47.868 21.1327 48.3813 21.184 48.9226 21.184C49.5386 21.184 50.0146 21.0067 50.3506 20.652C50.6866 20.3067 50.8546 19.8167 50.8546 19.182V18.93C50.8546 18.8087 50.8593 18.65 50.8686 18.454C50.878 18.2487 50.8873 18.0993 50.8966 18.006H50.8406C50.5793 18.398 50.2573 18.6873 49.8746 18.874C49.5013 19.0513 49.0673 19.14 48.5726 19.14C47.6206 19.14 46.874 18.7993 46.3326 18.118C45.8006 17.4273 45.5346 16.4707 45.5346 15.248C45.5346 14.0347 45.8053 13.078 46.3466 12.378C46.888 11.6687 47.63 11.314 48.5726 11.314ZM48.8806 12.546C48.4886 12.546 48.1573 12.6533 47.8866 12.868C47.616 13.0733 47.4106 13.3767 47.2706 13.778C47.1306 14.1793 47.0606 14.674 47.0606 15.262C47.0606 16.1393 47.2146 16.8067 47.5226 17.264C47.84 17.7213 48.302 17.95 48.9086 17.95C49.2633 17.95 49.562 17.9033 49.8046 17.81C50.0566 17.7167 50.262 17.572 50.4206 17.376C50.5886 17.18 50.71 16.9327 50.7846 16.634C50.8686 16.326 50.9106 15.9573 50.9106 15.528V15.248C50.9106 14.604 50.836 14.086 50.6866 13.694C50.5466 13.2927 50.3273 13.0033 50.0286 12.826C49.73 12.6393 49.3473 12.546 48.8806 12.546ZM59.771 19H58.287V8.36H59.771V19ZM65.0275 11.314C65.9795 11.314 66.6888 11.524 67.1555 11.944C67.6221 12.3547 67.8555 13.0033 67.8555 13.89V19H66.8055L66.5115 17.95H66.4555C66.2408 18.2207 66.0168 18.4447 65.7835 18.622C65.5595 18.7993 65.2981 18.93 64.9995 19.014C64.7101 19.098 64.3555 19.14 63.9355 19.14C63.4875 19.14 63.0815 19.0607 62.7175 18.902C62.3628 18.734 62.0828 18.482 61.8775 18.146C61.6721 17.8007 61.5695 17.3713 61.5695 16.858C61.5695 16.0927 61.8588 15.5093 62.4375 15.108C63.0255 14.7067 63.9168 14.4873 65.1115 14.45L66.3995 14.408V13.988C66.3995 13.428 66.2735 13.036 66.0215 12.812C65.7695 12.588 65.4148 12.476 64.9575 12.476C64.5655 12.476 64.1921 12.532 63.8375 12.644C63.4828 12.756 63.1468 12.8913 62.8295 13.05L62.3535 11.972C62.7081 11.7853 63.1141 11.6313 63.5715 11.51C64.0381 11.3793 64.5235 11.314 65.0275 11.314ZM65.3775 15.402C64.5188 15.4393 63.9215 15.584 63.5855 15.836C63.2588 16.0787 63.0955 16.424 63.0955 16.872C63.0955 17.264 63.2121 17.5487 63.4455 17.726C63.6881 17.9033 63.9915 17.992 64.3555 17.992C64.9435 17.992 65.4288 17.8287 65.8115 17.502C66.1941 17.1753 66.3855 16.6853 66.3855 16.032V15.374L65.3775 15.402ZM71.6245 10.922C71.6245 11.23 71.6152 11.524 71.5965 11.804C71.5872 12.0747 71.5732 12.2893 71.5545 12.448H71.6245C71.8392 12.1307 72.1285 11.8647 72.4925 11.65C72.8565 11.4353 73.3278 11.328 73.9065 11.328C74.8118 11.328 75.5398 11.6547 76.0905 12.308C76.6505 12.9613 76.9305 13.932 76.9305 15.22C76.9305 16.088 76.8045 16.8113 76.5525 17.39C76.3005 17.9687 75.9458 18.4073 75.4885 18.706C75.0312 18.9953 74.4992 19.14 73.8925 19.14C73.3045 19.14 72.8332 19.0373 72.4785 18.832C72.1238 18.6173 71.8392 18.3653 71.6245 18.076H71.5125L71.2325 19H70.1405V8.36H71.6245V10.922ZM73.5565 12.532C73.0712 12.532 72.6885 12.6253 72.4085 12.812C72.1285 12.9987 71.9278 13.2833 71.8065 13.666C71.6852 14.0487 71.6245 14.534 71.6245 15.122V15.234C71.6245 16.102 71.7645 16.7693 72.0445 17.236C72.3245 17.6933 72.8378 17.922 73.5845 17.922C74.1818 17.922 74.6345 17.6887 74.9425 17.222C75.2505 16.7553 75.4045 16.0833 75.4045 15.206C75.4045 14.3193 75.2505 13.652 74.9425 13.204C74.6345 12.756 74.1725 12.532 73.5565 12.532ZM81.7902 11.314C82.4528 11.314 83.0222 11.454 83.4982 11.734C83.9742 12.0047 84.3382 12.3967 84.5902 12.91C84.8515 13.4233 84.9822 14.03 84.9822 14.73V15.542H79.9142C79.9328 16.3167 80.1335 16.9093 80.5162 17.32C80.9082 17.7307 81.4542 17.936 82.1542 17.936C82.6395 17.936 83.0688 17.894 83.4422 17.81C83.8248 17.7167 84.2168 17.5813 84.6182 17.404V18.636C84.2448 18.804 83.8622 18.93 83.4702 19.014C83.0875 19.098 82.6302 19.14 82.0982 19.14C81.3702 19.14 80.7262 18.9953 80.1662 18.706C79.6062 18.4167 79.1675 17.9873 78.8502 17.418C78.5422 16.8393 78.3882 16.13 78.3882 15.29C78.3882 14.4407 78.5282 13.722 78.8082 13.134C79.0975 12.546 79.4942 12.098 79.9982 11.79C80.5115 11.4727 81.1088 11.314 81.7902 11.314ZM81.7902 12.462C81.2582 12.462 80.8288 12.6347 80.5022 12.98C80.1848 13.3253 79.9982 13.8153 79.9422 14.45H83.4982C83.4982 14.058 83.4375 13.7127 83.3162 13.414C83.1948 13.1153 83.0082 12.882 82.7562 12.714C82.5042 12.546 82.1822 12.462 81.7902 12.462ZM88.3179 19H86.8339V8.36H88.3179V19Z" fill="#9C27B0"/>
<path d="M104 5.25C102.269 5.25 100.578 5.76317 99.1388 6.72464C97.6998 7.6861 96.5783 9.05266 95.9161 10.6515C95.2538 12.2504 95.0805 14.0097 95.4181 15.707C95.7557 17.4044 96.5891 18.9635 97.8128 20.1871C99.0365 21.4109 100.596 22.2443 102.293 22.5819C103.99 22.9195 105.75 22.7463 107.348 22.084C108.947 21.4216 110.314 20.3001 111.275 18.8612C112.237 17.4222 112.75 15.7306 112.75 14C112.75 11.6793 111.828 9.45376 110.187 7.81281C108.546 6.17188 106.321 5.25 104 5.25ZM104 21.5C102.517 21.5 101.067 21.0601 99.8332 20.236C98.5999 19.4119 97.6386 18.2406 97.0709 16.8701C96.5032 15.4997 96.3547 13.9917 96.6441 12.5368C96.9335 11.082 97.6478 9.74559 98.6967 8.6967C99.7456 7.6478 101.082 6.9335 102.537 6.64411C103.992 6.35472 105.5 6.50325 106.87 7.0709C108.241 7.63856 109.412 8.59985 110.236 9.83323C111.06 11.0666 111.5 12.5166 111.5 14C111.5 15.9891 110.71 17.8968 109.303 19.3033C107.897 20.7099 105.989 21.5 104 21.5Z" fill="#9C27B0"/>
<path d="M104.625 9H103.375V15.875H104.625V9Z" fill="#9C27B0"/>
<path d="M104 17.75C103.815 17.75 103.633 17.805 103.479 17.908C103.325 18.011 103.205 18.1574 103.134 18.3288C103.063 18.5 103.044 18.6885 103.081 18.8704C103.117 19.0523 103.206 19.2193 103.337 19.3504C103.468 19.4815 103.635 19.5708 103.817 19.607C103.999 19.6431 104.187 19.6246 104.359 19.5536C104.53 19.4826 104.676 19.3625 104.779 19.2084C104.883 19.0541 104.937 18.8729 104.937 18.6875C104.937 18.4389 104.839 18.2004 104.663 18.0246C104.487 17.8487 104.249 17.75 104 17.75Z" fill="#9C27B0"/>
</svg>
