<svg width="24" height="24" viewBox="0 0 24 24" fill="none" xmlns="http://www.w3.org/2000/svg">
<path d="M23.2312 0H0.768773C0.346578 0 0 0.346578 0 0.768773V23.2312C0 23.6534 0.346578 24 0.768773 24H23.2312C23.6534 24 24 23.6534 24 23.2312V0.768773C24 0.346578 23.6555 0 23.2312 0ZM13.6573 16.098C13.6573 16.1841 13.5964 16.2556 13.5165 16.2766L5.65027 18.0956C5.63557 18.0998 5.62086 18.1019 5.60616 18.1019C5.50324 18.1019 5.41922 18.0179 5.41922 17.9149V6.11027C5.41922 6.11027 5.41922 6.10607 5.41922 6.10397C5.41922 6.00105 5.50324 5.91703 5.60616 5.91703C5.63347 5.91703 5.65867 5.92333 5.68388 5.93384L9.25678 7.60161V13.2519L13.6573 12.2395V16.0959V16.098ZM18.3035 18.0998C18.2762 18.0998 18.251 18.0935 18.2258 18.083L14.6529 16.4509V10.9855L10.2524 11.9979V8.20445C10.2524 8.11833 10.3133 8.04691 10.3931 8.02591L18.2594 5.89813C18.2741 5.89393 18.2888 5.89183 18.3035 5.89183C18.4064 5.89183 18.4905 5.97584 18.4905 6.07877V17.9086C18.4905 17.9086 18.4905 17.9128 18.4905 17.9149C18.4905 18.0179 18.4064 18.1019 18.3035 18.1019V18.0998Z" fill="url(#paint0_linear_18957_49702)"/>
<defs>
<linearGradient id="paint0_linear_18957_49702" x1="20.0553" y1="25.9513" x2="3.94469" y2="-1.95134" gradientUnits="userSpaceOnUse">
<stop stop-color="#77BC4A"/>
<stop offset="0.5" stop-color="#5DA10C"/>
<stop offset="0.76" stop-color="#549809"/>
<stop offset="1" stop-color="#488C07"/>
</linearGradient>
</defs>
</svg>
