<svg width="24" height="24" viewBox="0 0 24 24" fill="none" xmlns="http://www.w3.org/2000/svg">
<path d="M23.2312 0H0.768773C0.346578 0 0 0.346578 0 0.768773V23.2312C0 23.6534 0.346578 24 0.768773 24H23.2312C23.6534 24 24 23.6534 24 23.2312V0.768773C24 0.346578 23.6555 0 23.2312 0ZM12.4915 8.40399C12.4915 8.35568 12.5104 8.30737 12.5461 8.27376L15.7262 5.09365C15.7977 5.02223 15.9153 5.02223 15.9867 5.09365L18.8853 7.9923C18.9568 8.06371 18.9568 8.18134 18.8853 8.25276L15.7052 11.4329C15.6695 11.4686 15.6233 11.4875 15.575 11.4875H12.6764C12.5734 11.4875 12.4915 11.4056 12.4915 11.3026V8.40399ZM11.4455 15.6191C11.4455 15.6674 11.4266 15.7157 11.3909 15.7493L8.21075 18.9295C8.13933 19.0009 8.0217 19.0009 7.95029 18.9295L5.05164 16.0308C4.98022 15.9594 4.98022 15.8418 5.05164 15.7703L8.23175 12.5902C8.26746 12.5566 8.31367 12.5356 8.36198 12.5356H11.2606C11.3636 12.5356 11.4455 12.6175 11.4455 12.7205V15.6191ZM11.4455 11.3026C11.4455 11.4056 11.3636 11.4875 11.2606 11.4875H8.36198C8.31367 11.4875 8.26536 11.4686 8.23175 11.4329L5.05164 8.25276C4.98022 8.18134 4.98022 8.06371 5.05164 7.9923L7.95029 5.09365C8.0217 5.02223 8.13933 5.02223 8.21075 5.09365L11.3909 8.27376C11.4245 8.30947 11.4455 8.35568 11.4455 8.40399V11.3026ZM18.8874 16.0308L15.9888 18.9295C15.9174 19.0009 15.7998 19.0009 15.7283 18.9295L12.5482 15.7493C12.5125 15.7136 12.4936 15.6674 12.4936 15.6191V12.7205C12.4936 12.6175 12.5755 12.5356 12.6785 12.5356H15.5771C15.6254 12.5356 15.6737 12.5545 15.7073 12.5902L18.8874 15.7703C18.9589 15.8418 18.9589 15.9594 18.8874 16.0308Z" fill="url(#paint0_linear_18957_49701)"/>
<defs>
<linearGradient id="paint0_linear_18957_49701" x1="20.0553" y1="25.9513" x2="3.94469" y2="-1.95134" gradientUnits="userSpaceOnUse">
<stop stop-color="#54A0E4"/>
<stop offset="0.49" stop-color="#0B77D8"/>
<stop offset="1" stop-color="#0347BF"/>
</linearGradient>
</defs>
</svg>
