<svg width="24" height="24" viewBox="0 0 24 24" fill="none" xmlns="http://www.w3.org/2000/svg">
<path d="M23.2292 0H0.768706C0.346548 0 0 0.346548 0 0.768706V23.2313C0 23.6535 0.346548 24 0.768706 24H23.2313C23.6535 24 24 23.6535 24 23.2313V0.768706C24 0.346548 23.6556 0 23.2313 0H23.2292ZM8.43896 18.8312C8.43896 18.9362 8.35285 19.0223 8.24783 19.0223H3.6251C3.52008 19.0223 3.43397 18.9362 3.43397 18.8312V14.2085C3.43397 14.1034 3.52008 14.0173 3.6251 14.0173H8.24783C8.35285 14.0173 8.43896 14.1034 8.43896 14.2085V18.8312ZM14.5004 18.8522C14.5004 18.9446 14.4248 19.0202 14.3324 19.0202H9.66553C9.57312 19.0202 9.49751 18.9446 9.49751 18.8522V15.2733C10.1318 15.9496 11.0349 16.2814 12.0347 16.2814C13.0344 16.2814 13.8703 15.9811 14.5004 15.3489V18.8543V18.8522ZM14.471 9.86296C13.8052 9.26017 12.9273 8.92833 12.0347 8.92833C11.142 8.92833 10.2662 9.26017 9.59832 9.86296C8.84222 10.5455 8.40326 11.5327 8.40326 12.5534L8.40746 12.9567H4.55553C4.3917 12.9441 4.3581 12.8202 4.3623 12.6836V11.8498C4.3938 11.5579 4.76135 11.5957 4.97558 11.5474C6.07824 11.2933 6.77343 10.1213 6.46049 9.03754C6.37018 8.7267 6.20005 8.48937 6.01943 8.22893C5.91651 8.07981 5.90601 7.95589 6.03413 7.81938L7.15148 6.68732C7.35731 6.50459 7.55264 6.69152 7.73116 6.80493C8.0063 6.97716 8.27934 7.11998 8.60488 7.17249C9.19506 7.2691 9.81675 7.08217 10.2515 6.67262C10.6296 6.31767 10.8333 5.8325 10.9152 5.32633C10.9446 5.13521 10.9992 4.99659 11.2218 4.97978H12.8475C13.0701 4.99659 13.1247 5.13731 13.1541 5.32633C13.2339 5.8325 13.4397 6.31767 13.8178 6.67262C14.2526 7.08217 14.8742 7.2691 15.4644 7.17249C15.79 7.11998 16.063 6.97716 16.3381 6.80493C16.5167 6.69362 16.7099 6.50669 16.9178 6.68732L18.0352 7.81938C18.1633 7.95589 18.1549 8.07981 18.0499 8.22893C17.8693 8.48937 17.697 8.7267 17.6088 9.03754C17.2959 10.1234 17.9911 11.2575 19.0937 11.5117C19.308 11.56 19.6734 11.5222 19.707 11.8141V12.6836C19.7091 12.8202 19.6776 12.9441 19.5138 12.9609H15.6661V12.5555C15.6661 11.5369 15.2271 10.5497 14.471 9.86506V9.86296ZM20.5618 18.8312C20.5618 18.9362 20.4757 19.0223 20.3707 19.0223H15.748C15.643 19.0223 15.5568 18.9362 15.5568 18.8312V14.2085C15.5568 14.1034 15.643 14.0173 15.748 14.0173H20.3707C20.4757 14.0173 20.5618 14.1034 20.5618 14.2085V18.8312Z" fill="url(#paint0_linear_18957_49697)"/>
<defs>
<linearGradient id="paint0_linear_18957_49697" x1="20.0536" y1="25.9512" x2="3.94434" y2="-1.95117" gradientUnits="userSpaceOnUse">
<stop stop-color="#54A0E4"/>
<stop offset="0.49" stop-color="#0B77D8"/>
<stop offset="1" stop-color="#0347BF"/>
</linearGradient>
</defs>
</svg>
