<svg width="24" height="24" viewBox="0 0 24 24" fill="none" xmlns="http://www.w3.org/2000/svg">
<path d="M23.2312 0H0.768773C0.346578 0 0 0.346578 0 0.768773V23.2312C0 23.6534 0.346578 24 0.768773 24H23.2312C23.6534 24 24 23.6534 24 23.2312V0.768773C24 0.346578 23.6555 0 23.2312 0ZM12.3655 11.2984L13.5333 5.89393C13.5586 5.7763 13.6783 5.67968 13.798 5.68178L18.9862 5.68808C19.1059 5.68808 19.1731 5.7805 19.1332 5.89393L17.7364 11.3089C17.6965 11.4224 17.5684 11.5148 17.4465 11.5148L12.5356 11.5106C12.4159 11.5106 12.3382 11.414 12.3634 11.2963L12.3655 11.2984ZM11.6681 12.6448L10.5003 18.0494C10.4751 18.167 10.3553 18.2636 10.2356 18.2615L5.04744 18.2552C4.92771 18.2552 4.86049 18.1628 4.9004 18.0494L6.29722 12.6322C6.33713 12.5188 6.46525 12.4264 6.58708 12.4264L11.498 12.4306C11.6177 12.4306 11.6954 12.5272 11.6702 12.6448H11.6681ZM11.4959 11.5127L6.58498 11.5169C6.46525 11.5169 6.33503 11.4245 6.29512 11.311L4.8983 5.89603C4.85839 5.7826 4.92561 5.69018 5.04534 5.69018L10.2335 5.68388C10.3532 5.68388 10.473 5.7805 10.4982 5.89603L11.666 11.3005C11.6912 11.4182 11.6135 11.5148 11.4938 11.5148L11.4959 11.5127ZM18.9883 18.2552L13.8001 18.2615C13.6804 18.2615 13.5607 18.1649 13.5354 18.0494L12.3676 12.6448C12.3424 12.5272 12.4201 12.4306 12.5398 12.4306L17.4507 12.4264C17.5705 12.4264 17.7007 12.5188 17.7406 12.6322L19.1374 18.0494C19.1773 18.1628 19.1101 18.2552 18.9904 18.2552H18.9883Z" fill="url(#paint0_linear_18957_49696)"/>
<defs>
<linearGradient id="paint0_linear_18957_49696" x1="20.0553" y1="25.9513" x2="3.94469" y2="-1.95134" gradientUnits="userSpaceOnUse">
<stop stop-color="#00BBB7"/>
<stop offset="0.5" stop-color="#00ABA7"/>
<stop offset="0.73" stop-color="#00A29E"/>
<stop offset="1" stop-color="#00928F"/>
</linearGradient>
</defs>
</svg>
