<svg width="150" height="138" viewBox="0 0 150 138" fill="none" xmlns="http://www.w3.org/2000/svg">
<path d="M84.5933 61.2868C83.7101 60.4038 82.5122 59.9078 81.2633 59.9078C80.0144 59.9078 78.8165 60.4038 77.9333 61.2868L74.6033 64.6121C73.7343 65.5119 72.6948 66.2295 71.5455 66.7232C70.3962 67.2169 69.1601 67.4768 67.9093 67.4876C66.6585 67.4985 65.4181 67.2602 64.2604 66.7865C63.1027 66.3129 62.0509 65.6134 61.1664 64.7289C60.2819 63.8444 59.5824 62.7926 59.1088 61.6349C58.6351 60.4772 58.3968 59.2368 58.4076 57.986C58.4185 56.7352 58.6784 55.4991 59.1721 54.3498C59.6658 53.2005 60.3834 52.161 61.2832 51.292L87.8009 24.7649C94.0791 23.3369 100.648 23.9246 106.573 26.4444C112.498 28.9641 117.477 33.2877 120.804 38.8004C124.13 44.313 125.634 50.7341 125.102 57.1506C124.569 63.567 122.027 69.6523 117.837 74.541L107.908 84.597L84.5933 61.2821V61.2868ZM32.9709 32.9698C37.8447 28.0967 44.2196 25.0097 51.0649 24.208C57.9103 23.4063 64.826 24.9367 70.6939 28.5518L54.6184 44.632C51.1367 48.1067 49.152 52.8054 49.0885 57.7239C49.0249 62.6425 50.8875 67.3908 54.2782 70.9544C57.669 74.518 62.3189 76.6141 67.2346 76.795C72.1502 76.9758 76.9416 75.227 80.5851 71.9222L81.2633 71.2769L101.248 91.257L81.2633 111.242C79.4968 113.008 77.1011 114 74.6033 114C72.1054 114 69.7097 113.008 67.9432 111.242L32.9662 76.2649C27.2252 70.5234 24 62.7366 24 54.6173C24 46.4981 27.2252 38.7113 32.9662 32.9698H32.9709Z" fill="url(#paint0_linear_2857_6925)"/>
<defs>
<linearGradient id="paint0_linear_2857_6925" x1="108.572" y1="121.318" x2="51.8817" y2="10.9076" gradientUnits="userSpaceOnUse">
<stop stop-color="#54A0E4"/>
<stop offset="0.49" stop-color="#0B77D8"/>
<stop offset="1" stop-color="#0347BF"/>
</linearGradient>
</defs>
</svg>
