<svg width="24" height="24" viewBox="0 0 24 24" fill="none" xmlns="http://www.w3.org/2000/svg">
<path d="M23.2312 0H0.768773C0.346578 0 0 0.346578 0 0.768773V23.2312C0 23.6534 0.346578 24 0.768773 24H23.2312C23.6534 24 24 23.6534 24 23.2312V0.768773C24 0.346578 23.6555 0 23.2312 0ZM8.97952 18.7824C8.97952 18.8959 8.8871 18.9883 8.77367 18.9883H5.19447C5.08104 18.9883 4.98652 18.8959 4.98652 18.7803V15.0835C4.98652 15.0289 5.00753 14.9764 5.04744 14.9365L6.83704 13.1868C6.91896 13.1048 7.04919 13.1069 7.129 13.1868L8.91861 14.9365C8.95642 14.9743 8.97952 15.0289 8.97952 15.0835V18.7803V18.7824ZM14.0123 18.795C14.0123 18.9085 13.9198 19.0009 13.8064 19.003H10.2272C10.1138 19.003 10.0214 18.9106 10.0214 18.795V11.8635C10.0214 11.8089 10.0424 11.7563 10.0823 11.7164L11.8719 9.96674C11.9538 9.88482 12.084 9.88692 12.1638 9.96674L13.9534 11.7164C13.9933 11.7542 14.0144 11.8089 14.0144 11.8635V18.795H14.0123ZM19.0114 18.795C19.0114 18.9001 18.9253 18.9862 18.8202 18.9862H15.2326C15.1276 18.9862 15.0415 18.9001 15.0415 18.795V5.25118C15.0415 5.14616 15.1276 5.06004 15.2326 5.06004H18.8202C18.9253 5.06004 19.0114 5.14616 19.0114 5.25118V18.795Z" fill="url(#paint0_linear_18957_49703)"/>
<defs>
<linearGradient id="paint0_linear_18957_49703" x1="20.0553" y1="25.9513" x2="3.94469" y2="-1.95134" gradientUnits="userSpaceOnUse">
<stop stop-color="#77BC4A"/>
<stop offset="0.5" stop-color="#5DA10C"/>
<stop offset="0.76" stop-color="#549809"/>
<stop offset="1" stop-color="#488C07"/>
</linearGradient>
</defs>
</svg>
