<svg width="190" height="48" viewBox="0 0 190 48" fill="none" xmlns="http://www.w3.org/2000/svg">
<g clip-path="url(#clip0_17650_3511)">
<path fill-rule="evenodd" clip-rule="evenodd" d="M115.967 29.051C115.967 31.2327 117.085 34.1829 122.027 34.1829C126.97 34.1829 128.09 31.2347 128.09 29.051V27.0724H123.15V29.4012C123.15 30.0393 123.15 30.9136 122.03 30.9136C120.909 30.9136 120.909 30.0393 120.909 29.4012V25.4129H128.092V20.2914C128.092 18.1077 126.972 15.1595 122.03 15.1595C117.087 15.1595 115.969 18.1077 115.969 20.2914V29.0531L115.967 29.051ZM120.907 19.9392C120.907 19.299 120.907 18.4246 122.027 18.4246C123.148 18.4246 123.148 19.299 123.148 19.9392V21.9778H120.905V19.9392" fill="#32373F"/>
<path fill-rule="evenodd" clip-rule="evenodd" d="M35.8772 16.5953C35.8772 15.808 35.8772 14.4696 37.4018 14.4696C38.9264 14.4696 38.9243 15.808 38.9243 16.5953V28.0919C38.9243 28.703 38.9243 30.2134 37.4018 30.2134C35.8793 30.2134 35.8772 28.703 35.8772 28.0919V16.5953ZM30.5918 27.6257C30.5918 31.759 33.2048 34.183 37.3997 34.183C41.5945 34.183 44.2054 31.759 44.2054 27.6257V17.0594C44.2054 12.518 41.334 10.5 37.3997 10.5C33.4653 10.5 30.5918 12.518 30.5918 17.0594V27.6257Z" fill="#32373F"/>
<path d="M77.968 29.051C77.968 31.2327 79.0861 34.1829 84.0284 34.1829C88.9707 34.1829 90.0888 31.2327 90.0888 29.051V25.3922H85.1465V29.4012C85.1465 30.0393 85.1465 30.9136 84.0263 30.9136C82.9061 30.9136 82.9061 30.0393 82.9061 29.4012V19.9412C82.9061 19.301 82.9061 18.4267 84.0263 18.4267C85.1465 18.4267 85.1465 19.301 85.1465 19.9412V22.5994H90.0888V20.2914C90.0888 18.1077 88.9665 15.1595 84.0284 15.1595C79.0903 15.1595 77.968 18.1077 77.968 20.2914V29.051Z" fill="#32373F"/>
<path d="M91.518 30.694C91.518 33.6049 93.1591 33.953 95.2851 33.953H96.4603V18.9696H97.6927V15.3584H96.4603V10.703H91.518V15.3584H90.2814V18.9696H91.518V30.694Z" fill="#32373F"/>
<path fill-rule="evenodd" clip-rule="evenodd" d="M98.3828 33.9696H103.325V15.3708H98.3828V33.9696ZM98.3828 14.1485H103.325V10.7155H98.3828V14.1505V14.1485Z" fill="#32373F"/>
<path fill-rule="evenodd" clip-rule="evenodd" d="M107.005 33.9696H112.784L116.14 15.3709H111.202L109.968 27.2735H109.908L108.759 15.3709H103.674L107.005 33.9696Z" fill="#32373F"/>
<path fill-rule="evenodd" clip-rule="evenodd" d="M64.8324 29.051C64.8324 31.2327 65.9505 34.1829 70.8907 34.1829C75.8309 34.1829 76.9553 31.2347 76.9553 29.051V27.0724H72.0108V29.4012C72.0108 30.0393 72.0108 30.9136 70.8907 30.9136C69.7705 30.9136 69.7705 30.0393 69.7705 29.4012V25.4129H76.9553V20.2914C76.9553 18.1077 75.8351 15.1595 70.8907 15.1595C65.9462 15.1595 64.8324 18.1077 64.8324 20.2914V29.0531V29.051ZM69.7705 19.9392C69.7705 19.299 69.7705 18.4267 70.8907 18.4267C72.0108 18.4267 72.0108 19.299 72.0108 19.9392V21.9778H69.7705V19.9392Z" fill="#32373F"/>
<path fill-rule="evenodd" clip-rule="evenodd" d="M50.4336 29.3763C50.4336 30.0165 50.4336 30.8908 51.5538 30.8908C52.674 30.8908 52.6761 30.0165 52.6761 29.3763V19.9164C52.6761 19.2762 52.6761 18.4019 51.5538 18.4019C50.4315 18.4019 50.4336 19.2741 50.4336 19.9164L50.4209 29.3763H50.4336ZM50.4209 33.6132V33.9571H45.4807V10.703H50.4209V15.6008C50.7809 15.346 51.5263 15.1326 51.9286 15.1326C56.5597 15.1326 57.6142 18.0828 57.6142 20.2645V29.0241C57.6142 31.2058 56.5956 34.156 52.0705 34.156C51.6681 34.156 50.7809 33.9758 50.4167 33.6112H50.4209" fill="#32373F"/>
<path d="M58.7679 37.4834L59.9368 37.5C63.4138 37.5 63.7103 35.4199 63.7103 32.625V15.3709H58.7701V37.4834" fill="#32373F"/>
<path d="M58.7679 10.7155H63.7103V14.1485H58.7679V10.7155Z" fill="#32373F"/>
<path d="M142.69 28.846C142.69 28.1395 142.58 27.5408 142.364 27.0559C142.146 26.5691 141.864 26.1754 141.519 25.875C141.174 25.5746 140.789 25.3529 140.363 25.212C139.935 25.0711 139.522 25.0007 139.124 25.0007H136.429V32.5111H139.124C139.616 32.5111 140.077 32.4406 140.513 32.2997C140.95 32.1588 141.331 31.9372 141.657 31.6367C141.983 31.3363 142.237 30.9551 142.419 30.4952C142.601 30.0352 142.692 29.4862 142.692 28.8501L142.69 28.846ZM142.146 20.1361C142.146 19.5166 142.051 18.9966 141.86 18.5718C141.67 18.1471 141.416 17.8073 141.098 17.5504C140.78 17.2935 140.422 17.1133 140.022 17.0055C139.624 16.8999 139.215 16.846 138.798 16.846H136.431V23.5048H138.853C139.251 23.5048 139.647 23.4427 140.037 23.3184C140.427 23.1941 140.776 22.9952 141.085 22.7217C141.394 22.4482 141.648 22.0981 141.847 21.6733C142.047 21.2486 142.146 20.7369 142.146 20.134V20.1361ZM144.569 28.9662C144.569 29.942 144.41 30.7604 144.092 31.4171C143.774 32.0739 143.37 32.6022 142.881 33.0021C142.39 33.4019 141.852 33.6858 141.261 33.8536C140.67 34.0235 140.105 34.1064 139.561 34.1064H134.633V15.2486H139.002C139.548 15.2486 140.111 15.3191 140.693 15.462C141.276 15.605 141.807 15.8474 142.29 16.1934C142.773 16.5394 143.169 17.0097 143.478 17.6043C143.787 18.1989 143.942 18.9489 143.942 19.8543C143.942 20.4945 143.863 21.0497 143.707 21.52C143.552 21.9903 143.345 22.3985 143.088 22.7445C142.832 23.0905 142.538 23.3743 142.207 23.596C141.877 23.8177 141.538 23.9917 141.191 24.116V24.1699C141.536 24.2403 141.907 24.3833 142.307 24.5967C142.705 24.8101 143.074 25.1084 143.41 25.4896C143.745 25.8709 144.022 26.3515 144.24 26.9275C144.458 27.5035 144.569 28.183 144.569 28.9641V28.9662Z" fill="#5DA10C"/>
<path d="M158.355 30.2569C158.165 31.1188 157.856 31.8688 157.43 32.5069C157.004 33.1471 156.437 33.6485 155.73 34.0111C155.022 34.3757 154.15 34.558 153.117 34.558C152.083 34.558 151.215 34.3757 150.516 34.0111C149.818 33.6485 149.254 33.145 148.829 32.5069C148.401 31.8667 148.098 31.1188 147.916 30.2569C147.734 29.395 147.643 28.4772 147.643 27.4993V15.2486H149.549V27.2611C149.549 27.953 149.599 28.6367 149.699 29.3122C149.798 29.9876 149.981 30.5863 150.243 31.1105C150.506 31.6347 150.87 32.0553 151.332 32.3764C151.793 32.6954 152.397 32.855 153.142 32.855C153.887 32.855 154.466 32.6954 154.938 32.3764C155.41 32.0573 155.778 31.6347 156.041 31.1105C156.304 30.5863 156.486 29.9917 156.585 29.3267C156.685 28.6595 156.736 27.9738 156.736 27.2631V15.2486H158.641V27.4993C158.641 28.4772 158.546 29.395 158.355 30.2569Z" fill="#5DA10C"/>
<path d="M162.834 34.1064V15.2486H164.74V34.1064H162.834Z" fill="#5DA10C"/>
<path d="M169.149 34.1064V15.2486H171.054V32.3743H176.554V34.1064H169.149Z" fill="#5DA10C"/>
<path d="M188.122 24.7044C188.122 23.3681 187.99 22.2058 187.728 21.2175C187.465 20.2293 187.101 19.413 186.639 18.7728C186.176 18.1305 185.631 17.6499 185.007 17.3287C184.38 17.0076 183.704 16.8481 182.98 16.8481H180.748V32.509H182.98C183.704 32.509 184.382 32.3495 185.007 32.0283C185.633 31.7072 186.178 31.2265 186.639 30.5843C187.101 29.942 187.465 29.1319 187.728 28.1519C187.99 27.172 188.122 26.0221 188.122 24.7044ZM190 24.7044C190 26.25 189.837 27.6071 189.511 28.7797C189.185 29.9524 188.712 30.9323 188.096 31.7238C187.48 32.5152 186.739 33.1098 185.877 33.5076C185.015 33.9075 184.058 34.1064 183.006 34.1064H178.868V15.2486H183.033C184.086 15.2486 185.043 15.4475 185.904 15.8474C186.766 16.2472 187.501 16.846 188.109 17.6457C188.717 18.4455 189.185 19.4358 189.511 20.6167C189.837 21.7977 190 23.1609 190 24.7044Z" fill="#5DA10C"/>
<path d="M23.2312 10.5128H0.768773C0.346578 10.5128 0 10.8594 0 11.2816V33.744C0 34.1662 0.346578 34.5128 0.768773 34.5128H23.2312C23.6534 34.5128 24 34.1662 24 33.744V11.2816C24 10.8594 23.6555 10.5128 23.2312 10.5128ZM8.97952 29.2952C8.97952 29.4087 8.8871 29.5011 8.77367 29.5032H5.19447C5.08104 29.5032 4.98652 29.4108 4.98652 29.2952V25.5984C4.98652 25.5438 5.00753 25.4913 5.04744 25.4514L6.83704 23.7017C6.91896 23.6198 7.04919 23.6219 7.129 23.7017L8.91861 25.4514C8.95642 25.4892 8.97952 25.5438 8.97952 25.5984V29.2952ZM14.0123 29.3078C14.0123 29.4213 13.9198 29.5137 13.8064 29.5158H10.2272C10.1138 29.5158 10.0214 29.4234 10.0214 29.3078V22.3763C10.0214 22.3217 10.0424 22.2692 10.0823 22.2293L11.8719 20.4796C11.9538 20.3976 12.084 20.3997 12.1638 20.4796L13.9534 22.2293C13.9933 22.2671 14.0144 22.3217 14.0144 22.3763V29.3078H14.0123ZM19.0114 29.3078C19.0114 29.4129 18.9253 29.499 18.8202 29.499H15.2326C15.1276 29.499 15.0415 29.4129 15.0415 29.3078V15.764C15.0415 15.659 15.1276 15.5729 15.2326 15.5729H18.8202C18.9253 15.5729 19.0114 15.659 19.0114 15.764V29.3078Z" fill="url(#paint0_linear_17650_3511)"/>
</g>
<defs>
<linearGradient id="paint0_linear_17650_3511" x1="20.0553" y1="36.4642" x2="3.94469" y2="8.56148" gradientUnits="userSpaceOnUse">
<stop stop-color="#77BC4A"/>
<stop offset="0.5" stop-color="#5DA10C"/>
<stop offset="0.76" stop-color="#549809"/>
<stop offset="1" stop-color="#488C07"/>
</linearGradient>
<clipPath id="clip0_17650_3511">
<rect width="190" height="27" fill="white" transform="translate(0 10.5)"/>
</clipPath>
</defs>
</svg>
