<svg width="24" height="24" viewBox="0 0 24 24" fill="none" xmlns="http://www.w3.org/2000/svg">
<path d="M23.2312 0H0.768773C0.346578 0 0 0.346578 0 0.768773V23.2312C0 23.6534 0.346578 24 0.768773 24H23.2312C23.6534 24 24 23.6534 24 23.2312V0.768773C24 0.346578 23.6555 0 23.2312 0ZM15.5792 5.69648L12.6974 8.57623C12.4663 8.52162 12.2269 8.49221 11.9811 8.49221C11.7353 8.49221 11.4938 8.52162 11.2648 8.57623L8.38299 5.69648H15.5792ZM5.11255 5.99265L5.98845 5.11675C6.11868 4.98652 6.33082 4.98652 6.46105 5.11675L10.2734 8.92911C9.69578 9.22528 9.22318 9.69998 8.92701 10.2776L5.11465 6.46525C4.98442 6.33502 4.98442 6.12288 5.11465 5.99265H5.11255ZM8.56573 12.6995L5.68598 15.5813V8.38509L8.56573 11.2669C8.51112 11.498 8.48171 11.7374 8.48171 11.9832C8.48171 12.229 8.51112 12.4705 8.56573 12.6995ZM5.97794 18.8475L5.10205 17.9716C4.97182 17.8414 4.97182 17.6293 5.10205 17.499L8.91651 13.6846C9.21267 14.2622 9.68738 14.7348 10.265 15.031L6.44845 18.8475C6.31822 18.9778 6.10607 18.9778 5.97584 18.8475H5.97794ZM8.37458 18.2951L11.2564 15.4154C11.4875 15.47 11.7269 15.4994 11.9727 15.4994C12.2184 15.4994 12.46 15.47 12.689 15.4154L15.5708 18.2951H8.37458ZM18.8433 17.9737L17.9674 18.8496C17.8372 18.9799 17.6251 18.9799 17.4948 18.8496L13.6783 15.0331C14.258 14.7369 14.7306 14.2643 15.0268 13.6867L18.8412 17.5011C18.9715 17.6314 18.9715 17.8435 18.8412 17.9737H18.8433ZM15.3986 11.2669L18.2783 8.38509V15.5813L15.3986 12.6995C15.4532 12.4684 15.4826 12.229 15.4826 11.9832C15.4826 11.7374 15.4532 11.4959 15.3986 11.2669ZM18.8433 6.47366L15.031 10.286C14.7348 9.70628 14.2622 9.23368 13.6846 8.93751L17.4969 5.12515C17.6272 4.99492 17.8393 4.99492 17.9695 5.12515L18.8454 6.00105C18.9757 6.13128 18.9757 6.34343 18.8454 6.47366H18.8433Z" fill="url(#paint0_linear_18957_49704)"/>
<defs>
<linearGradient id="paint0_linear_18957_49704" x1="20.0553" y1="25.9513" x2="3.94469" y2="-1.95134" gradientUnits="userSpaceOnUse">
<stop stop-color="#54A0E4"/>
<stop offset="0.49" stop-color="#0B77D8"/>
<stop offset="1" stop-color="#0347BF"/>
</linearGradient>
</defs>
</svg>
