<svg width="221" height="48" viewBox="0 0 221 48" fill="none" xmlns="http://www.w3.org/2000/svg">
<g clip-path="url(#clip0_17650_3514)">
<path fill-rule="evenodd" clip-rule="evenodd" d="M35.363 16.5953C35.363 15.808 35.363 14.4696 36.8658 14.4696C38.3685 14.4696 38.3665 15.808 38.3665 16.5953V28.0919C38.3665 28.703 38.3665 30.2134 36.8658 30.2134C35.3651 30.2134 35.363 28.703 35.363 28.0919V16.5953ZM30.1534 27.6257C30.1534 31.759 32.729 34.183 36.8637 34.183C40.9984 34.183 43.5719 31.759 43.5719 27.6257V17.0594C43.5719 12.518 40.7417 10.5 36.8637 10.5C32.9857 10.5 30.1534 12.518 30.1534 17.0594V27.6257Z" fill="white"/>
<path d="M76.8496 29.0511C76.8496 31.2327 77.9516 34.183 82.8231 34.183C87.6945 34.183 88.7966 31.2327 88.7966 29.0511V25.3923H83.9251V29.4012C83.9251 30.0394 83.9251 30.9137 82.821 30.9137C81.7169 30.9137 81.7169 30.0394 81.7169 29.4012V19.9413C81.7169 19.3011 81.7169 18.4268 82.821 18.4268C83.9251 18.4268 83.9251 19.3011 83.9251 19.9413V22.5994H88.7966V20.2914C88.7966 18.1077 87.6904 15.1595 82.8231 15.1595C77.9558 15.1595 76.8496 18.1077 76.8496 20.2914V29.0511Z" fill="white"/>
<path d="M90.2052 30.6941C90.2052 33.605 91.8228 33.953 93.9183 33.953H95.0767V18.9696H96.2914V15.3584H95.0767V10.703H90.2052V15.3584H88.9863V18.9696H90.2052V30.6941Z" fill="white"/>
<path fill-rule="evenodd" clip-rule="evenodd" d="M96.972 33.9696H101.844V15.3709H96.972V33.9696ZM96.972 14.1485H101.844V10.7155H96.972V14.1506V14.1485Z" fill="white"/>
<path fill-rule="evenodd" clip-rule="evenodd" d="M105.471 33.9696H111.167L114.475 15.3709H109.608L108.389 27.2735H108.333L107.199 15.3709H102.188L105.471 33.9696Z" fill="white"/>
<path fill-rule="evenodd" clip-rule="evenodd" d="M63.903 29.0511C63.903 31.2327 65.005 34.183 69.8743 34.183C74.7437 34.183 75.852 31.2348 75.852 29.0511V27.0725H70.9785V29.4012C70.9785 30.0394 70.9785 30.9137 69.8743 30.9137C68.7702 30.9137 68.7702 30.0394 68.7702 29.4012V25.413H75.852V20.2914C75.852 18.1077 74.7479 15.1595 69.8743 15.1595C65.0008 15.1595 63.903 18.1077 63.903 20.2914V29.0532V29.0511ZM68.7702 19.9392C68.7702 19.299 68.7702 18.4268 69.8743 18.4268C70.9785 18.4268 70.9785 19.299 70.9785 19.9392V21.9779H68.7702V19.9392Z" fill="white"/>
<path fill-rule="evenodd" clip-rule="evenodd" d="M114.304 29.0511C114.304 31.2327 115.406 34.183 120.277 34.183C125.149 34.183 126.253 31.2348 126.253 29.0511V27.0725H121.384V29.4012C121.384 30.0394 121.384 30.9137 120.28 30.9137C119.175 30.9137 119.175 30.0394 119.175 29.4012V25.413H126.255V20.2914C126.255 18.1077 125.151 15.1595 120.28 15.1595C115.408 15.1595 114.306 18.1077 114.306 20.2914V29.0532L114.304 29.0511ZM119.173 19.9392C119.173 19.299 119.173 18.4247 120.277 18.4247C121.382 18.4247 121.382 19.299 121.382 19.9392V21.9779H119.171V19.9392" fill="white"/>
<path fill-rule="evenodd" clip-rule="evenodd" d="M49.71 29.3764C49.71 30.0166 49.71 30.8909 50.8141 30.8909C51.9182 30.8909 51.9203 30.0166 51.9203 29.3764V19.9164C51.9203 19.2762 51.9203 18.4019 50.8141 18.4019C49.7079 18.4019 49.71 19.2742 49.71 19.9164L49.6975 29.3764H49.71ZM49.6975 33.6133V33.9572H44.8281V10.703H49.6975V15.6008C50.0523 15.346 50.787 15.1326 51.1836 15.1326C55.7482 15.1326 56.7876 18.0829 56.7876 20.2645V29.0242C56.7876 31.2058 55.7837 34.1561 51.3234 34.1561C50.9268 34.1561 50.0523 33.9758 49.6933 33.6112H49.6975" fill="white"/>
<path d="M57.925 37.4834L59.0772 37.5C62.5043 37.5 62.7965 35.4199 62.7965 32.625V15.3709H57.9271V37.4834" fill="white"/>
<path d="M57.925 10.7155H62.7965V14.1485H57.925V10.7155Z" fill="white"/>
<path d="M140.819 34.2017L134.472 24.5097H134.445V34.2017H132.588V15.2983H134.445V23.7887H134.472L140.444 15.2983H142.623L136.219 24.029L143.08 34.2017H140.819Z" fill="white"/>
<path d="M144.591 34.2017V15.2983H152.259V16.9537H146.421V23.5753H151.881V25.1768H146.421V32.5193H152.526V34.2017H144.591Z" fill="white"/>
<path d="M160.249 26.4323V34.2017H158.421V26.4323L153.687 15.2983H155.73L159.335 24.5097L163.021 15.2983H165.037L160.249 26.4323Z" fill="white"/>
<path d="M174.091 29.1816C174.091 29.9834 173.972 30.6982 173.73 31.3197C173.488 31.9434 173.158 32.4717 172.736 32.9088C172.315 33.3439 171.82 33.6775 171.252 33.9075C170.685 34.1374 170.082 34.2534 169.445 34.2534C168.516 34.2534 167.66 34.0566 166.878 33.665C166.095 33.2714 165.463 32.7514 164.98 32.1029L166.091 30.8474C166.485 31.4109 166.984 31.846 167.587 32.1547C168.191 32.4613 168.8 32.6146 169.42 32.6146C170.246 32.6146 170.937 32.3246 171.497 31.7445C172.056 31.1644 172.336 30.3356 172.336 29.2604C172.336 28.7486 172.25 28.2949 172.079 27.9033C171.908 27.5097 171.674 27.1595 171.382 26.8529C171.09 26.5463 170.758 26.2728 170.388 26.0325C170.019 25.7942 169.627 25.5704 169.215 25.3674C168.716 25.1291 168.243 24.8598 167.796 24.5594C167.347 24.261 166.957 23.915 166.621 23.5214C166.285 23.1298 166.014 22.6637 165.807 22.125C165.6 21.5863 165.498 20.9586 165.498 20.2417C165.498 19.4047 165.627 18.6754 165.886 18.0518C166.143 17.4282 166.492 16.9081 166.93 16.4896C167.368 16.0711 167.863 15.7604 168.414 15.5552C168.965 15.3501 169.541 15.2486 170.142 15.2486C170.969 15.2486 171.712 15.3895 172.375 15.6713C173.037 15.953 173.592 16.3923 174.039 16.991L172.928 18.2465C172.584 17.7514 172.181 17.3971 171.716 17.1837C171.252 16.9703 170.743 16.8626 170.192 16.8626C169.831 16.8626 169.474 16.9268 169.121 17.0552C168.767 17.1837 168.454 17.3847 168.178 17.6581C167.903 17.9316 167.679 18.2818 167.506 18.7086C167.335 19.1354 167.249 19.6388 167.249 20.221C167.249 20.7327 167.326 21.1782 167.483 21.5532C167.637 21.9302 167.848 22.2617 168.115 22.5518C168.383 22.8418 168.691 23.0987 169.044 23.3204C169.397 23.5421 169.762 23.7472 170.142 23.9358C170.624 24.174 171.1 24.4475 171.574 24.7562C172.046 25.0628 172.471 25.4233 172.851 25.8315C173.229 26.2417 173.532 26.7203 173.755 27.2673C173.978 27.8142 174.091 28.4544 174.091 29.1878" fill="white"/>
<path d="M181.093 16.8999V34.2017H179.238V16.8999H175.579V15.2983H184.779V16.8999H181.093Z" fill="white"/>
<path d="M197.588 24.7459C197.588 26.1733 197.449 27.4765 197.171 28.6533C196.893 29.8322 196.497 30.8432 195.975 31.6844C195.455 32.5276 194.823 33.1803 194.078 33.6443C193.333 34.1084 192.483 34.3405 191.532 34.3405C190.58 34.3405 189.726 34.1084 188.971 33.6443C188.217 33.1803 187.576 32.5256 187.046 31.6844C186.518 30.8412 186.115 29.8322 185.838 28.6533C185.56 27.4745 185.422 26.1733 185.422 24.7459C185.422 23.3184 185.556 22.0421 185.825 20.8633C186.094 19.6865 186.489 18.6796 187.009 17.8446C187.528 17.0117 188.165 16.3612 188.918 15.8971C189.674 15.433 190.542 15.201 191.529 15.201C192.517 15.201 193.331 15.433 194.076 15.8971C194.819 16.3612 195.453 17.0117 195.973 17.8446C196.493 18.6796 196.891 19.6844 197.169 20.8633C197.447 22.0421 197.586 23.335 197.586 24.7459M195.691 24.7459C195.691 23.6457 195.604 22.614 195.43 21.6506C195.257 20.6872 194.994 19.8543 194.637 19.1478C194.282 18.4434 193.844 17.884 193.324 17.4717C192.805 17.0594 192.206 16.8522 191.532 16.8522C190.822 16.8522 190.202 17.0594 189.674 17.4717C189.144 17.884 188.708 18.4434 188.361 19.1478C188.015 19.8522 187.754 20.6872 187.583 21.6506C187.409 22.614 187.324 23.6457 187.324 24.7459C187.324 25.846 187.409 26.8778 187.583 27.8412C187.756 28.8046 188.015 29.6478 188.361 30.3688C188.708 31.0919 189.146 31.6595 189.674 32.0718C190.202 32.4841 190.822 32.6913 191.532 32.6913C192.241 32.6913 192.83 32.4841 193.349 32.0718C193.869 31.6595 194.301 31.0919 194.648 30.3688C194.994 29.6457 195.255 28.8046 195.426 27.8412C195.599 26.8778 195.687 25.846 195.687 24.7459" fill="white"/>
<path d="M207.836 34.2017L201.214 18.4744H201.132V34.2017H199.356V15.2983H201.698L208.287 31.0235H208.369V15.2983H210.089V34.2017H207.836Z" fill="white"/>
<path d="M213.067 34.2017V15.2983H220.733V16.9537H214.895V23.5753H220.355V25.1768H214.895V32.5193H221V34.2017H213.067Z" fill="white"/>
<rect y="10.5125" width="24" height="24" rx="1" fill="white"/>
<path d="M23.2312 10.5125H0.768773C0.346578 10.5125 0 10.8591 0 11.2813V33.7437C0 34.1659 0.346578 34.5125 0.768773 34.5125H23.2312C23.6534 34.5125 24 34.1659 24 33.7437V11.2813C24 10.8591 23.6555 10.5125 23.2312 10.5125ZM8.30737 26.4803L6.44845 26.4845C6.35813 26.4845 6.25941 26.4152 6.23 26.3291L3.48468 18.885C3.45528 18.7989 3.50569 18.7296 3.59601 18.7296L6.70891 18.7254C6.79923 18.7254 6.88955 18.7968 6.90845 18.885L8.4376 26.3207C8.4565 26.4089 8.39769 26.4824 8.30737 26.4824V26.4803ZM13.8946 28.4505H10.0235C9.93314 28.4505 9.84281 28.3791 9.82391 28.2888L7.33905 16.7635C7.32015 16.6753 7.37896 16.6018 7.46928 16.6018H16.4131C16.5034 16.6018 16.5622 16.6753 16.5433 16.7635L14.0942 28.2888C14.0753 28.377 13.9849 28.4505 13.8946 28.4505ZM20.404 18.8787L18.2594 26.3207C18.23 26.4068 18.1334 26.4761 18.0431 26.4761L15.3923 26.4824C15.3019 26.4824 15.2431 26.411 15.262 26.3228L16.9823 18.8913C17.0012 18.8031 17.0915 18.7296 17.1819 18.7296L20.2948 18.7233C20.3851 18.7233 20.4355 18.7926 20.4061 18.8787H20.404Z" fill="url(#paint0_linear_17650_3514)"/>
</g>
<defs>
<linearGradient id="paint0_linear_17650_3514" x1="20.0553" y1="36.4639" x2="3.94469" y2="8.56117" gradientUnits="userSpaceOnUse">
<stop stop-color="#00BBB7"/>
<stop offset="0.5" stop-color="#00ABA7"/>
<stop offset="0.73" stop-color="#00A29E"/>
<stop offset="1" stop-color="#00928F"/>
</linearGradient>
<clipPath id="clip0_17650_3514">
<rect width="221" height="27" fill="white" transform="translate(0 10.5)"/>
</clipPath>
</defs>
</svg>
