<svg width="24" height="24" viewBox="0 0 24 24" fill="none" xmlns="http://www.w3.org/2000/svg">
<path d="M23.2292 0H0.768706C0.346548 0 0 0.346548 0 0.768706V23.2313C0 23.6535 0.346548 24 0.768706 24H23.2313C23.6535 24 24 23.6535 24 23.2313V0.768706C24 0.346548 23.6556 0 23.2313 0H23.2292ZM9.60882 8.63429L11.7175 5.1121C11.8309 4.92098 12.1082 4.92308 12.2216 5.1163L16.9913 13.3683C17.1048 13.5637 16.964 13.8052 16.7393 13.8073L12.6164 13.8115C12.5135 13.8115 12.4169 13.7569 12.3644 13.6666L9.60672 8.93253C9.55421 8.84011 9.55421 8.7267 9.60672 8.63639L9.60882 8.63429ZM8.34865 19.0244H4.24258C4.01995 19.0244 3.88133 18.7829 3.99055 18.5897L8.68049 10.2914C8.79181 10.0961 9.07115 10.094 9.18666 10.2872L11.2807 13.8367C11.3332 13.927 11.3353 14.0362 11.2849 14.1286L8.60488 18.8753C8.55238 18.9677 8.45366 19.0244 8.34865 19.0244ZM19.7532 19.0034L10.2221 19.0118C9.99737 19.0118 9.85666 18.7682 9.96797 18.575L12.0263 15.0024C12.0788 14.9121 12.1733 14.8574 12.2783 14.8553L17.7558 14.8322C17.863 14.8322 17.9596 14.8889 18.0121 14.9814L20.0095 18.5687C20.1187 18.764 19.9779 19.0034 19.7553 19.0034H19.7532Z" fill="url(#paint0_linear_18957_49698)"/>
<defs>
<linearGradient id="paint0_linear_18957_49698" x1="20.0536" y1="25.9512" x2="3.94434" y2="-1.95117" gradientUnits="userSpaceOnUse">
<stop stop-color="#54A0E4"/>
<stop offset="0.49" stop-color="#0B77D8"/>
<stop offset="1" stop-color="#0347BF"/>
</linearGradient>
</defs>
</svg>
