<svg width="190" height="48" viewBox="0 0 190 48" fill="none" xmlns="http://www.w3.org/2000/svg">
<g clip-path="url(#clip0_17650_3519)">
<path d="M76.5857 29.0511C76.5857 31.2328 77.6839 34.183 82.5387 34.183C87.3934 34.183 88.4916 31.2328 88.4916 29.0511V25.3923H83.6369V29.4013C83.6369 30.0394 83.6369 30.9137 82.5366 30.9137C81.4363 30.9137 81.4363 30.0394 81.4363 29.4013V19.9413C81.4363 19.3011 81.4363 18.4268 82.5366 18.4268C83.6369 18.4268 83.6369 19.3011 83.6369 19.9413V22.5995H88.4916V20.2915C88.4916 18.1078 87.3892 15.1595 82.5387 15.1595C77.6881 15.1595 76.5857 18.1078 76.5857 20.2915V29.0511Z" fill="white"/>
<path d="M89.8958 30.6941C89.8958 33.605 91.5078 33.9531 93.5961 33.9531H94.7505V18.9696H95.961V15.3585H94.7505V10.7031H89.8958V15.3585H88.681V18.9696H89.8958V30.6941Z" fill="white"/>
<path fill-rule="evenodd" clip-rule="evenodd" d="M96.6392 33.9696H101.494V15.3708H96.6392V33.9696ZM96.6392 14.1485H101.494V10.7155H96.6392V14.1505V14.1485Z" fill="white"/>
<path fill-rule="evenodd" clip-rule="evenodd" d="M105.109 33.9696H110.785L114.082 15.3708H109.231L108.017 27.2735H107.96L106.831 15.3708H101.837L105.109 33.9696Z" fill="white"/>
<path fill-rule="evenodd" clip-rule="evenodd" d="M63.6835 29.0511C63.6835 31.2328 64.7817 34.183 69.6344 34.183C74.487 34.183 75.5915 31.2348 75.5915 29.0511V27.0725H70.7347V29.4013C70.7347 30.0394 70.7347 30.9137 69.6344 30.9137C68.534 30.9137 68.534 30.0394 68.534 29.4013V25.413H75.5915V20.2915C75.5915 18.1078 74.4912 15.1595 69.6344 15.1595C64.7776 15.1595 63.6835 18.1078 63.6835 20.2915V29.0532V29.0511ZM68.534 19.9392C68.534 19.299 68.534 18.4268 69.6344 18.4268C70.7347 18.4268 70.7347 19.299 70.7347 19.9392V21.9779H68.534V19.9392Z" fill="white"/>
<path fill-rule="evenodd" clip-rule="evenodd" d="M113.911 29.0511C113.911 31.2328 115.01 34.183 119.864 34.183C124.719 34.183 125.82 31.2348 125.82 29.0511V27.0725H120.967V29.4013C120.967 30.0394 120.967 30.9137 119.867 30.9137C118.766 30.9137 118.766 30.0394 118.766 29.4013V25.413H125.822V20.2915C125.822 18.1078 124.721 15.1595 119.867 15.1595C115.012 15.1595 113.914 18.1078 113.914 20.2915V29.0532L113.911 29.0511ZM118.764 19.9392C118.764 19.299 118.764 18.4247 119.864 18.4247C120.965 18.4247 120.965 19.299 120.965 19.9392V21.9779H118.762V19.9392" fill="white"/>
<path fill-rule="evenodd" clip-rule="evenodd" d="M35.2414 16.5953C35.2414 15.808 35.2414 14.4696 36.739 14.4696C38.2366 14.4696 38.2345 15.808 38.2345 16.5953V28.0919C38.2345 28.703 38.2345 30.2134 36.739 30.2134C35.2435 30.2134 35.2414 28.703 35.2414 28.0919V16.5953ZM30.0497 27.6257C30.0497 31.759 32.6164 34.183 36.7369 34.183C40.8574 34.183 43.422 31.759 43.422 27.6257V17.0594C43.422 12.518 40.6015 10.5 36.7369 10.5C32.8722 10.5 30.0497 12.518 30.0497 17.0594V27.6257Z" fill="white"/>
<path fill-rule="evenodd" clip-rule="evenodd" d="M49.5397 29.3764C49.5397 30.0166 49.5397 30.8909 50.64 30.8909C51.7403 30.8909 51.7424 30.0166 51.7424 29.3764V19.9165C51.7424 19.2763 51.7424 18.402 50.64 18.402C49.5376 18.402 49.5397 19.2742 49.5397 19.9165L49.5272 29.3764H49.5397ZM49.5272 33.6133V33.9572H44.6746V10.7031H49.5272V15.6009C49.8808 15.346 50.613 15.1326 51.0082 15.1326C55.5571 15.1326 56.593 18.0829 56.593 20.2645V29.0242C56.593 31.2058 55.5925 34.1561 51.1475 34.1561C50.7523 34.1561 49.8808 33.9759 49.523 33.6112H49.5272" fill="white"/>
<path d="M57.7262 37.4834L58.8744 37.5C62.2897 37.5 62.5809 35.4199 62.5809 32.625V15.3708H57.7283V37.4834" fill="white"/>
<path d="M57.7262 10.7155H62.5809V14.1485H57.7262V10.7155Z" fill="white"/>
<path d="M140.122 34.1209L133.88 18.3605H133.805L133.821 34.1292L132.153 34.1312L132.132 15.1761L134.333 15.1741L140.54 30.9344H140.617L140.6 15.1658L142.218 15.1637L142.237 34.1188L140.122 34.1209Z" fill="white"/>
<path d="M146.332 34.1146L146.312 15.1595L153.515 15.1512L153.517 16.8108L148.032 16.817L148.038 23.4572L153.169 23.451L153.172 25.0566L148.04 25.0628L148.048 32.4261L153.785 32.4199L153.787 34.1064L146.332 34.1146Z" fill="white"/>
<path d="M164.175 34.0939L160.551 25.6906L156.947 34.1022L155.077 34.1043L159.59 24.1119L155.511 15.1491L157.381 15.1471L160.599 22.6388L163.775 15.1388L165.595 15.1367L161.562 24.1367L166.097 34.0918L164.175 34.0939Z" fill="white"/>
<path d="M178.084 30.2072C177.909 31.0732 177.622 31.8274 177.227 32.4696C176.832 33.1119 176.306 33.6174 175.648 33.9841C174.991 34.3508 174.184 34.5352 173.223 34.5352C172.262 34.5352 171.457 34.355 170.808 33.9904C170.159 33.6257 169.637 33.1223 169.24 32.48C168.842 31.8377 168.56 31.0836 168.391 30.2196C168.221 29.3536 168.137 28.4317 168.135 27.4496L168.123 15.1347H169.893L169.905 27.2072C169.905 27.9033 169.953 28.5912 170.047 29.2687C170.14 29.9462 170.309 30.5491 170.554 31.0753C170.8 31.6015 171.137 32.0242 171.567 32.3453C171.998 32.6665 172.557 32.826 173.248 32.826C173.922 32.826 174.477 32.6644 174.916 32.3433C175.353 32.0221 175.694 31.5974 175.937 31.0712C176.181 30.5449 176.349 29.9462 176.441 29.277C176.532 28.6078 176.578 27.9158 176.578 27.201L176.566 15.1264H178.336L178.348 27.4392C178.348 28.4213 178.263 29.3453 178.086 30.2113L178.084 30.2072Z" fill="white"/>
<path d="M190 29.2168C190 30.0559 189.884 30.8018 189.649 31.4523C189.414 32.105 189.089 32.6581 188.677 33.1139C188.265 33.5697 187.781 33.9178 187.225 34.1602C186.67 34.4026 186.079 34.5228 185.457 34.5249C184.546 34.5249 183.708 34.3218 182.943 33.9116C182.175 33.5014 181.555 32.9586 181.083 32.2811L182.169 30.9675C182.556 31.5559 183.047 32.0097 183.635 32.3308C184.226 32.6519 184.823 32.8115 185.43 32.8115C186.239 32.8115 186.918 32.5069 187.465 31.8999C188.012 31.2928 188.284 30.4268 188.284 29.3018C188.284 28.7673 188.199 28.2928 188.03 27.8826C187.862 27.4724 187.633 27.1057 187.346 26.7866C187.059 26.4655 186.734 26.1816 186.373 25.9309C186.011 25.6802 185.626 25.4503 185.222 25.2369C184.734 24.9883 184.27 24.7065 183.831 24.3957C183.392 24.0829 183.009 23.7224 182.681 23.3122C182.352 22.9019 182.086 22.4151 181.884 21.8536C181.68 21.2921 181.578 20.6354 181.578 19.8854C181.578 19.011 181.703 18.2486 181.955 17.596C182.206 16.9454 182.547 16.4005 182.976 15.9613C183.404 15.5242 183.889 15.1968 184.428 14.9834C184.966 14.768 185.53 14.6602 186.121 14.6602C186.93 14.6602 187.658 14.8052 188.307 15.0994C188.956 15.3936 189.499 15.8515 189.938 16.4751L188.854 17.7887C188.515 17.2728 188.12 16.9019 187.664 16.6802C187.209 16.4586 186.712 16.3467 186.173 16.3467C185.819 16.3467 185.47 16.4151 185.125 16.5497C184.779 16.6844 184.471 16.8936 184.203 17.1796C183.933 17.4655 183.714 17.8322 183.546 18.2776C183.377 18.7251 183.294 19.2514 183.294 19.8584C183.294 20.393 183.371 20.8591 183.523 21.2507C183.675 21.6423 183.881 21.9903 184.143 22.2949C184.405 22.5974 184.709 22.8667 185.054 23.0967C185.399 23.3287 185.757 23.5421 186.129 23.7369C186.601 23.9876 187.069 24.2714 187.531 24.5925C187.995 24.9137 188.413 25.2866 188.783 25.7155C189.154 26.1423 189.449 26.6436 189.669 27.2134C189.888 27.7852 189.998 28.4544 190 29.221V29.2168Z" fill="white"/>
</g>
<rect y="10.5126" width="24" height="24" rx="1" fill="white"/>
<path d="M23.2312 10.5126H0.768773C0.346578 10.5126 0 10.8592 0 11.2814V33.7439C0 34.1661 0.346578 34.5126 0.768773 34.5126H23.2312C23.6534 34.5126 24 34.1661 24 33.7439V11.2814C24 10.8592 23.6555 10.5126 23.2312 10.5126ZM5.05164 18.5049L7.95029 15.6063C8.0217 15.5349 8.13933 15.5349 8.21075 15.6063L11.3909 18.7864C11.4245 18.8221 11.4455 18.8683 11.4455 18.9166V21.8153C11.4455 21.9182 11.3636 22.0001 11.2606 22.0001H8.36198C8.31367 22.0001 8.26536 21.9812 8.23175 21.9455L5.05164 18.7654C4.98022 18.694 4.98022 18.5763 5.05164 18.5049ZM11.3909 26.262L8.21075 29.4421C8.13933 29.5135 8.0217 29.5135 7.95029 29.4421L5.05164 26.5434C4.98022 26.472 4.98022 26.3544 5.05164 26.283L8.23175 23.1029C8.26746 23.0693 8.31367 23.0483 8.36198 23.0483H11.2606C11.3636 23.0483 11.4455 23.1302 11.4455 23.2331V26.1317C11.4455 26.1801 11.4266 26.2284 11.3909 26.262ZM12.4915 18.9166C12.4915 18.8683 12.5104 18.82 12.5461 18.7864L15.7262 15.6063C15.7977 15.5349 15.9153 15.5349 15.9867 15.6063L18.8853 18.5049C18.9568 18.5763 18.9568 18.694 18.8853 18.7654L15.7052 21.9455C15.6695 21.9812 15.6233 22.0001 15.575 22.0001H12.6764C12.5734 22.0001 12.4915 21.9182 12.4915 21.8153V18.9166ZM18.8874 26.5434L15.9888 29.4421C15.9174 29.5135 15.7998 29.5135 15.7283 29.4421L12.5482 26.262C12.5125 26.2263 12.4936 26.1801 12.4936 26.1317V23.2331C12.4936 23.1302 12.5755 23.0483 12.6785 23.0483H15.5771C15.6254 23.0483 15.6737 23.0672 15.7073 23.1029L18.8874 26.283C18.9589 26.3544 18.9589 26.472 18.8874 26.5434Z" fill="url(#paint0_linear_17650_3519)"/>
<defs>
<linearGradient id="paint0_linear_17650_3519" x1="20.0553" y1="36.464" x2="3.94469" y2="8.5613" gradientUnits="userSpaceOnUse">
<stop stop-color="#54A0E4"/>
<stop offset="0.49" stop-color="#0B77D8"/>
<stop offset="1" stop-color="#0347BF"/>
</linearGradient>
<clipPath id="clip0_17650_3519">
<rect width="190" height="27" fill="white" transform="translate(0 10.5)"/>
</clipPath>
</defs>
</svg>
