<svg width="212" height="71" viewBox="0 0 212 71" fill="none" xmlns="http://www.w3.org/2000/svg">
<rect y="55.2011" width="211.477" height="15.7989" fill="#0079BD"/>
<path fill-rule="evenodd" clip-rule="evenodd" d="M102.785 41.0638C102.785 45.8954 105.212 52.4257 115.934 52.4257C126.648 52.4257 129.084 45.8954 129.084 41.0638V32.9632H118.363V41.8373C118.363 43.251 118.363 45.1862 115.934 45.1862C113.502 45.1862 113.502 43.251 113.502 41.8373V20.8953C113.502 19.4784 113.502 17.5448 115.934 17.5448C118.363 17.5448 118.363 19.4784 118.363 20.8953V26.7805H129.084V21.6703C129.084 16.8356 126.648 10.3085 115.934 10.3085C105.212 10.3085 102.785 16.8356 102.785 21.6703V41.0638Z" fill="black"/>
<path fill-rule="evenodd" clip-rule="evenodd" d="M132.183 44.7027C132.183 51.1468 135.741 51.914 140.353 51.914H142.903V18.7475H145.578V10.7534H142.903V0.446793H132.183V10.7534H129.498V18.7475H132.183V44.7027Z" fill="black"/>
<path fill-rule="evenodd" clip-rule="evenodd" d="M147.078 51.9518H157.798V10.7818H147.078V51.9518ZM147.077 8.07653H157.798V0.473793H147.077V8.07653Z" fill="black"/>
<path fill-rule="evenodd" clip-rule="evenodd" d="M165.785 51.9512H178.319L185.604 10.7828H174.887L172.208 37.1309H172.079L169.589 10.7828H158.555L165.785 51.9512Z" fill="black"/>
<path fill-rule="evenodd" clip-rule="evenodd" d="M74.2887 41.0636C74.2887 45.8951 76.7163 52.4238 87.4335 52.4238C98.1617 52.4238 100.589 45.8951 100.589 41.0636V36.6813H89.8658V41.8385C89.8658 43.2507 89.8658 45.1874 87.4335 45.1874C85.0043 45.1874 85.0043 43.2507 85.0043 41.8385V33.0068H100.589V21.6684C100.589 16.8353 98.1617 10.3066 87.4335 10.3066C76.7163 10.3066 74.2887 16.8353 74.2887 21.6684V41.0636ZM85.0043 20.8947C85.0043 19.4778 85.0043 17.5458 87.4335 17.5458C89.8658 17.5458 89.8658 19.4778 89.8658 20.8947V25.4069H85.0043V20.8947Z" fill="black"/>
<path fill-rule="evenodd" clip-rule="evenodd" d="M185.225 41.0636C185.225 45.8951 187.651 52.4238 198.375 52.4238C209.096 52.4238 211.526 45.8951 211.526 41.0636V36.6813H200.807V41.8385C200.807 43.2507 200.807 45.1874 198.375 45.1874C195.944 45.1874 195.944 43.2507 195.944 41.8385V33.0068H211.526V21.6684C211.526 16.8353 209.096 10.3066 198.375 10.3066C187.651 10.3066 185.225 16.8353 185.225 21.6684V41.0636ZM195.944 20.8947C195.944 19.4778 195.944 17.5458 198.375 17.5458C200.807 17.5458 200.807 19.4778 200.807 20.8947V25.4069H195.944V20.8947Z" fill="black"/>
<path fill-rule="evenodd" clip-rule="evenodd" d="M11.4712 13.4908C11.4712 11.7483 11.4712 8.78454 14.777 8.78454C18.0781 8.78454 18.0781 11.7483 18.0781 13.4908V38.9387C18.0781 40.2914 18.0781 43.6372 14.777 43.6372C11.4712 43.6372 11.4712 40.2914 11.4712 38.9387V13.4908ZM0.00588989 37.9088C0.00588989 47.0552 5.675 52.4238 14.7769 52.4238C23.8773 52.4238 29.5417 47.0552 29.5417 37.9088V14.5182C29.5417 4.46676 23.3159 0 14.7769 0C6.23486 0 0.00588989 4.46676 0.00588989 14.5182V37.9088Z" fill="black"/>
<path fill-rule="evenodd" clip-rule="evenodd" d="M43.0515 41.7836C43.0515 43.2005 43.0515 45.1357 45.4854 45.1357C47.9177 45.1357 47.9177 43.2005 47.9177 41.7836V20.8448C47.9177 19.4263 47.9177 17.4928 45.4854 17.4928C43.0515 17.4928 43.0515 19.4263 43.0515 20.8448L43.0249 41.7836H43.0515ZM43.0249 51.1635V51.9244H32.3092V0.447838H43.0249L43.0217 11.2899C43.8043 10.7294 45.4227 10.255 46.2978 10.255C56.3469 10.255 58.6318 16.7868 58.6318 21.6168V41.0104C58.6318 45.8404 56.4206 52.3706 46.6051 52.3706C45.7316 52.3706 43.8043 51.9698 43.017 51.1635H43.0249Z" fill="black"/>
<path fill-rule="evenodd" clip-rule="evenodd" d="M61.1349 59.7319L63.6692 59.7695C71.2123 59.7695 71.8537 55.1634 71.8537 48.9775V10.7807H61.1349V59.7319Z" fill="black"/>
<path fill-rule="evenodd" clip-rule="evenodd" d="M61.1344 8.07653H71.8547V0.473793H61.1344V8.07653Z" fill="black"/>
</svg>
