<svg width="512" height="512" viewBox="0 0 512 512" fill="none" xmlns="http://www.w3.org/2000/svg">
<g clip-path="url(#clip0_36612_50624)">
<path d="M495.622 0H16.3784C7.36814 0 0 7.36814 0 16.3784V495.622C0 504.632 7.36814 512 16.3784 512H495.622C504.646 512 512 504.632 512 495.622V16.3784C512 7.36814 504.632 0 495.622 0Z" fill="url(#paint0_linear_36612_50624)"/>
<path d="M381.772 128.828H309.033C307.535 128.828 306.32 130.043 306.32 131.541V204.28C306.32 205.779 307.535 206.993 309.033 206.993H381.772C383.271 206.993 384.485 205.779 384.485 204.28V131.541C384.485 130.043 383.271 128.828 381.772 128.828Z" fill="white"/>
<path d="M306.334 287.943C306.334 302.922 294.068 315.188 279.089 315.188H225.385C210.406 315.188 198.14 302.922 198.14 287.943V234.238C198.14 219.259 210.406 206.993 225.385 206.993H282.388C283.887 206.993 285.101 205.779 285.101 204.28V131.541C285.101 130.042 283.887 128.828 282.388 128.828H186.588C149.947 128.828 119.975 158.8 119.975 195.441V326.526C119.975 363.281 150.047 393.353 186.802 393.353H317.886C354.527 393.353 384.499 363.381 384.499 326.74V230.94C384.499 229.44 383.286 228.227 381.786 228.227H309.047C307.548 228.227 306.334 229.44 306.334 230.94V287.943Z" fill="white"/>
</g>
<defs>
<linearGradient id="paint0_linear_36612_50624" x1="427.852" y1="553.653" x2="84.1481" y2="-41.6528" gradientUnits="userSpaceOnUse">
<stop stop-color="#77BC4A"/>
<stop offset="0.49" stop-color="#00ABA7"/>
<stop offset="0.94" stop-color="#0347BF"/>
</linearGradient>
<clipPath id="clip0_36612_50624">
<rect width="512" height="512" fill="white"/>
</clipPath>
</defs>
</svg>
