<svg width="24" height="24" viewBox="0 0 24 24" fill="none" xmlns="http://www.w3.org/2000/svg">
<path d="M23.2312 0H0.768773C0.346578 0 0 0.346578 0 0.768773V23.2312C0 23.6534 0.346578 24 0.768773 24H23.2312C23.6534 24 24 23.6534 24 23.2312V0.768773C23.9979 0.346578 23.6534 0 23.2312 0ZM14.4134 9.3555L15.115 5.84351C15.1318 5.7679 15.2095 5.70488 15.2872 5.70488H18.6417C18.7194 5.70488 18.7635 5.7658 18.7383 5.83931L17.7007 9.36181C17.6755 9.43532 17.5915 9.49624 17.5137 9.49624H14.5248C14.4471 9.49624 14.3966 9.43322 14.4134 9.3576V9.3555ZM9.94154 5.71749L11.9664 5.70698L14.0018 5.71749C14.0774 5.71749 14.1278 5.7763 14.111 5.84772L13.506 8.9081C13.4892 8.98162 13.4073 9.01733 13.3401 8.98372C12.8843 8.74847 12.5461 8.61404 11.9979 8.61404H11.9727H11.9433C11.3951 8.61404 11.0569 8.74847 10.6011 8.98372C10.5339 9.01733 10.452 8.98372 10.4351 8.9081L9.83021 5.84772C9.81341 5.7763 9.86382 5.71749 9.93944 5.71749H9.94154ZM5.23228 5.70488H8.58673C8.66445 5.70488 8.74217 5.7679 8.75897 5.84351L9.46053 9.3555C9.47733 9.43112 9.42692 9.49414 9.3492 9.49414H6.36023C6.28251 9.49414 6.19849 9.43322 6.17329 9.35971L5.13566 5.83721C5.11045 5.7637 5.15456 5.70278 5.23228 5.70278V5.70488ZM9.46053 14.697L8.75897 18.209C8.74217 18.2846 8.66445 18.3476 8.58673 18.3476H5.23228C5.15456 18.3476 5.11045 18.2867 5.13566 18.2132L6.17329 14.6907C6.19849 14.6172 6.28251 14.5563 6.36023 14.5563H9.3492C9.42692 14.5563 9.47733 14.6193 9.46053 14.6949V14.697ZM14.0018 18.335L11.9769 18.3455L9.94154 18.335C9.86592 18.335 9.81551 18.2762 9.83231 18.2048L10.4372 15.1444C10.4541 15.0709 10.536 15.0352 10.6032 15.0688C11.059 15.304 11.3972 15.4385 11.9454 15.4385H11.9706H12C12.5482 15.4385 12.8864 15.304 13.3422 15.0688C13.4094 15.0352 13.4913 15.0688 13.5081 15.1444L14.1131 18.2069C14.1299 18.2783 14.0795 18.3371 14.0038 18.3371L14.0018 18.335ZM18.6417 18.3476H15.2872C15.2095 18.3476 15.1318 18.2846 15.115 18.209L14.4134 14.697C14.3966 14.6214 14.4471 14.5584 14.5248 14.5584H17.5137C17.5915 14.5584 17.6755 14.6193 17.7007 14.6928L18.7383 18.2153C18.7635 18.2888 18.7194 18.3497 18.6417 18.3497V18.3476ZM18.8496 11.9895H18.8391V13.1511C18.8391 13.3464 18.6816 13.5039 18.4863 13.5039H5.46333C5.27009 13.5039 5.11045 13.3443 5.11045 13.1511V12.0105H5.12095V10.8489C5.12095 10.6536 5.27849 10.4961 5.47383 10.4961H18.4947C18.6879 10.4961 18.8475 10.6557 18.8475 10.8489V11.9895H18.8496Z" fill="url(#paint0_linear_18957_49699)"/>
<defs>
<linearGradient id="paint0_linear_18957_49699" x1="20.0553" y1="25.9513" x2="3.94469" y2="-1.95134" gradientUnits="userSpaceOnUse">
<stop stop-color="#54A0E4"/>
<stop offset="0.49" stop-color="#0B77D8"/>
<stop offset="1" stop-color="#0347BF"/>
</linearGradient>
</defs>
</svg>
