<svg width="24" height="24" viewBox="0 0 24 24" fill="none" xmlns="http://www.w3.org/2000/svg">
<path d="M23.2312 0H0.768773C0.346578 0 0 0.346578 0 0.768773V23.2312C0 23.6534 0.346578 24 0.768773 24H23.2312C23.6534 24 24 23.6534 24 23.2312V0.768773C24 0.346578 23.6555 0 23.2312 0ZM6.2447 17.9632L3.71574 17.9569C3.62542 17.9569 3.5729 17.8834 3.60231 17.7973L7.38316 6.2321C7.41047 6.14598 7.50919 6.07457 7.59951 6.07667H10.1306C10.2209 6.07667 10.2734 6.14808 10.244 6.2342L6.46105 17.8078C6.43375 17.8939 6.33503 17.9632 6.2447 17.9632ZM12 10.6893C10.662 10.6893 9.51934 11.5274 9.05934 12.71L11.1346 6.33713C11.1745 6.2027 11.2501 6.07877 11.393 6.07877H12.6091C12.7499 6.07877 12.8255 6.19849 12.8675 6.33713L14.9428 12.71C14.4828 11.5295 13.3401 10.6914 12.0021 10.6893H12ZM20.2696 17.959L17.7406 17.9653C17.6503 17.9653 17.5515 17.896 17.5242 17.8099L13.7581 6.2342C13.7308 6.14808 13.7812 6.07667 13.8715 6.07667H16.4047C16.495 6.07667 16.5937 6.14598 16.621 6.2342L20.383 17.8015C20.4103 17.8876 20.3599 17.959 20.2696 17.9611V17.959Z" fill="url(#paint0_linear_18957_49705)"/>
<defs>
<linearGradient id="paint0_linear_18957_49705" x1="20.0553" y1="25.9513" x2="3.94469" y2="-1.95134" gradientUnits="userSpaceOnUse">
<stop stop-color="#77BC4A"/>
<stop offset="0.5" stop-color="#5DA10C"/>
<stop offset="0.76" stop-color="#549809"/>
<stop offset="1" stop-color="#488C07"/>
</linearGradient>
</defs>
</svg>
