<svg width="221" height="48" viewBox="0 0 221 48" fill="none" xmlns="http://www.w3.org/2000/svg">
<g clip-path="url(#clip0_409_5365)">
<path fill-rule="evenodd" clip-rule="evenodd" d="M35.3629 16.5953C35.3629 15.808 35.3629 14.4696 36.8657 14.4696C38.3684 14.4696 38.3663 15.808 38.3663 16.5953V28.0919C38.3663 28.703 38.3663 30.2134 36.8657 30.2134C35.365 30.2134 35.3629 28.703 35.3629 28.0919V16.5953ZM30.1533 27.6257C30.1533 31.759 32.7289 34.183 36.8636 34.183C40.9983 34.183 43.5717 31.759 43.5717 27.6257V17.0594C43.5717 12.518 40.7415 10.5 36.8636 10.5C32.9856 10.5 30.1533 12.518 30.1533 17.0594V27.6257Z" fill="#32373F"/>
<path d="M76.8496 29.0508C76.8496 31.2324 77.9516 34.1827 82.8231 34.1827C87.6945 34.1827 88.7966 31.2324 88.7966 29.0508V25.3919H83.9251V29.4009C83.9251 30.039 83.9251 30.9133 82.821 30.9133C81.7169 30.9133 81.7169 30.039 81.7169 29.4009V19.9409C81.7169 19.3008 81.7169 18.4264 82.821 18.4264C83.9251 18.4264 83.9251 19.3008 83.9251 19.9409V22.5991H88.7966V20.2911C88.7966 18.1074 87.6904 15.1592 82.8231 15.1592C77.9558 15.1592 76.8496 18.1074 76.8496 20.2911V29.0508Z" fill="#32373F"/>
<path d="M90.2052 30.6941C90.2052 33.6051 91.8228 33.9531 93.9183 33.9531H95.0767V18.9697H96.2914V15.3585H95.0767V10.7031H90.2052V15.3585H88.9863V18.9697H90.2052V30.6941Z" fill="#32373F"/>
<path fill-rule="evenodd" clip-rule="evenodd" d="M96.9722 33.97H101.844V15.3712H96.9722V33.97ZM96.9722 14.1488H101.844V10.7158H96.9722V14.1509V14.1488Z" fill="#32373F"/>
<path fill-rule="evenodd" clip-rule="evenodd" d="M105.471 33.9698H111.167L114.475 15.3711H109.608L108.389 27.2737H108.333L107.199 15.3711H102.188L105.471 33.9698Z" fill="#32373F"/>
<path fill-rule="evenodd" clip-rule="evenodd" d="M63.9028 29.0508C63.9028 31.2324 65.0049 34.1827 69.8742 34.1827C74.7436 34.1827 75.8519 31.2345 75.8519 29.0508V27.0722H70.9783V29.4009C70.9783 30.039 70.9783 30.9133 69.8742 30.9133C68.7701 30.9133 68.7701 30.039 68.7701 29.4009V25.4126H75.8519V20.2911C75.8519 18.1074 74.7478 15.1592 69.8742 15.1592C65.0007 15.1592 63.9028 18.1074 63.9028 20.2911V29.0528V29.0508ZM68.7701 19.9389C68.7701 19.2987 68.7701 18.4264 69.8742 18.4264C70.9783 18.4264 70.9783 19.2987 70.9783 19.9389V21.9776H68.7701V19.9389Z" fill="#32373F"/>
<path fill-rule="evenodd" clip-rule="evenodd" d="M114.304 29.0508C114.304 31.2324 115.406 34.1827 120.277 34.1827C125.149 34.1827 126.253 31.2345 126.253 29.0508V27.0722H121.383V29.4009C121.383 30.039 121.383 30.9133 120.279 30.9133C119.175 30.9133 119.175 30.039 119.175 29.4009V25.4126H126.255V20.2911C126.255 18.1074 125.151 15.1592 120.279 15.1592C115.408 15.1592 114.306 18.1074 114.306 20.2911V29.0528L114.304 29.0508ZM119.173 19.9389C119.173 19.2987 119.173 18.4244 120.277 18.4244C121.381 18.4244 121.381 19.2987 121.381 19.9389V21.9776H119.171V19.9389" fill="#32373F"/>
<path fill-rule="evenodd" clip-rule="evenodd" d="M49.7105 29.3765C49.7105 30.0167 49.7105 30.891 50.8146 30.891C51.9187 30.891 51.9208 30.0167 51.9208 29.3765V19.9165C51.9208 19.2763 51.9208 18.402 50.8146 18.402C49.7084 18.402 49.7105 19.2743 49.7105 19.9165L49.698 29.3765H49.7105ZM49.698 33.6133V33.9573H44.8286V10.7031H49.698V15.6009C50.0528 15.3461 50.7875 15.1327 51.184 15.1327C55.7487 15.1327 56.7881 18.083 56.7881 20.2646V29.0243C56.7881 31.2059 55.7842 34.1562 51.3239 34.1562C50.9273 34.1562 50.0528 33.9759 49.6938 33.6113H49.698" fill="#32373F"/>
<path d="M57.9253 37.4837L59.0774 37.5002C62.5045 37.5002 62.7967 35.4201 62.7967 32.6252V15.3711H57.9274V37.4837" fill="#32373F"/>
<path d="M57.9253 10.7158H62.7967V14.1488H57.9253V10.7158Z" fill="#32373F"/>
<path d="M140.819 34.2021L134.472 24.5102H134.445V34.2021H132.587V15.2988H134.445V23.7892H134.472L140.444 15.2988H142.623L136.219 24.0295L143.08 34.2021H140.819Z" fill="#00928F"/>
<path d="M144.591 34.2021V15.2988H152.259V16.9542H146.421V23.5758H151.881V25.1773H146.421V32.5198H152.526V34.2021H144.591Z" fill="#00928F"/>
<path d="M160.249 26.4328V34.2021H158.42V26.4328L153.687 15.2988H155.73L159.334 24.5102L163.02 15.2988H165.037L160.249 26.4328Z" fill="#00928F"/>
<path d="M174.091 29.182C174.091 29.9838 173.972 30.6986 173.73 31.3202C173.488 31.9438 173.158 32.4721 172.736 32.9092C172.315 33.3443 171.82 33.6779 171.252 33.9079C170.685 34.1378 170.082 34.2539 169.445 34.2539C168.516 34.2539 167.66 34.057 166.878 33.6655C166.095 33.2718 165.463 32.7518 164.98 32.1033L166.091 30.8478C166.485 31.4113 166.984 31.8464 167.587 32.1551C168.191 32.4617 168.8 32.615 169.42 32.615C170.246 32.615 170.937 32.325 171.497 31.7449C172.056 31.1648 172.336 30.336 172.336 29.2608C172.336 28.749 172.25 28.2953 172.079 27.9037C171.908 27.5101 171.674 27.1599 171.382 26.8533C171.09 26.5467 170.758 26.2732 170.388 26.0329C170.019 25.7946 169.627 25.5708 169.215 25.3678C168.716 25.1295 168.243 24.8602 167.796 24.5598C167.347 24.2615 166.957 23.9155 166.621 23.5218C166.285 23.1302 166.014 22.6641 165.807 22.1254C165.6 21.5867 165.498 20.959 165.498 20.2421C165.498 19.4051 165.627 18.6758 165.886 18.0522C166.143 17.4286 166.492 16.9086 166.93 16.49C167.368 16.0715 167.863 15.7608 168.414 15.5557C168.965 15.3505 169.541 15.249 170.142 15.249C170.969 15.249 171.712 15.3899 172.375 15.6717C173.037 15.9534 173.592 16.3927 174.039 16.9914L172.928 18.247C172.584 17.7518 172.181 17.3975 171.716 17.1841C171.252 16.9707 170.743 16.863 170.192 16.863C169.831 16.863 169.474 16.9272 169.121 17.0557C168.767 17.1841 168.454 17.3851 168.178 17.6586C167.903 17.932 167.679 18.2822 167.506 18.709C167.335 19.1358 167.249 19.6392 167.249 20.2214C167.249 20.7331 167.326 21.1786 167.483 21.5536C167.637 21.9307 167.848 22.2621 168.115 22.5522C168.383 22.8423 168.691 23.0992 169.044 23.3208C169.397 23.5425 169.762 23.7476 170.142 23.9362C170.624 24.1744 171.1 24.4479 171.574 24.7566C172.046 25.0632 172.471 25.4237 172.851 25.8319C173.229 26.2421 173.532 26.7207 173.755 27.2677C173.978 27.8146 174.091 28.4548 174.091 29.1882" fill="#00928F"/>
<path d="M181.093 16.9003V34.2021H179.238V16.9003H175.579V15.2988H184.779V16.9003H181.093Z" fill="#00928F"/>
<path d="M197.588 24.7461C197.588 26.1735 197.449 27.4767 197.171 28.6535C196.893 29.8324 196.497 30.8434 195.975 31.6846C195.455 32.5278 194.823 33.1805 194.078 33.6445C193.333 34.1086 192.483 34.3407 191.532 34.3407C190.58 34.3407 189.726 34.1086 188.971 33.6445C188.217 33.1805 187.576 32.5258 187.046 31.6846C186.518 30.8414 186.115 29.8324 185.838 28.6535C185.56 27.4747 185.422 26.1735 185.422 24.7461C185.422 23.3186 185.556 22.0423 185.825 20.8635C186.094 19.6867 186.489 18.6798 187.009 17.8448C187.528 17.0119 188.165 16.3614 188.918 15.8973C189.674 15.4332 190.542 15.2012 191.529 15.2012C192.517 15.2012 193.331 15.4332 194.076 15.8973C194.819 16.3614 195.453 17.0119 195.973 17.8448C196.493 18.6798 196.891 19.6846 197.169 20.8635C197.447 22.0423 197.586 23.3351 197.586 24.7461M195.691 24.7461C195.691 23.6459 195.604 22.6142 195.43 21.6508C195.257 20.6874 194.994 19.8545 194.637 19.148C194.282 18.4436 193.844 17.8842 193.324 17.4719C192.805 17.0596 192.206 16.8524 191.532 16.8524C190.822 16.8524 190.202 17.0596 189.674 17.4719C189.144 17.8842 188.708 18.4436 188.361 19.148C188.015 19.8524 187.754 20.6874 187.583 21.6508C187.409 22.6142 187.324 23.6459 187.324 24.7461C187.324 25.8462 187.409 26.878 187.583 27.8414C187.756 28.8048 188.015 29.648 188.361 30.369C188.708 31.0921 189.146 31.6597 189.674 32.072C190.202 32.4843 190.822 32.6915 191.532 32.6915C192.241 32.6915 192.83 32.4843 193.349 32.072C193.869 31.6597 194.301 31.0921 194.648 30.369C194.994 29.6459 195.255 28.8048 195.426 27.8414C195.599 26.878 195.687 25.8462 195.687 24.7461" fill="#00928F"/>
<path d="M207.836 34.2021L201.214 18.4749H201.132V34.2021H199.356V15.2988H201.698L208.287 31.024H208.368V15.2988H210.088V34.2021H207.836Z" fill="#00928F"/>
<path d="M213.066 34.2021V15.2988H220.733V16.9542H214.895V23.5758H220.355V25.1773H214.895V32.5198H221V34.2021H213.066Z" fill="#00928F"/>
<rect y="10.5127" width="24" height="24" rx="1" fill="white"/>
<path d="M23.2312 10.5127H0.768773C0.346578 10.5127 0 10.8593 0 11.2815V33.7439C0 34.1661 0.346578 34.5127 0.768773 34.5127H23.2312C23.6534 34.5127 24 34.1661 24 33.7439V11.2815C24 10.8593 23.6555 10.5127 23.2312 10.5127ZM8.30737 26.4805L6.44845 26.4847C6.35813 26.4847 6.25941 26.4154 6.23 26.3293L3.48468 18.8852C3.45528 18.7991 3.50569 18.7297 3.59601 18.7297L6.70891 18.7255C6.79923 18.7255 6.88955 18.797 6.90845 18.8852L8.4376 26.3209C8.4565 26.4091 8.39769 26.4826 8.30737 26.4826V26.4805ZM13.8946 28.4507H10.0235C9.93314 28.4507 9.84281 28.3793 9.82391 28.289L7.33905 16.7637C7.32015 16.6755 7.37896 16.602 7.46928 16.602H16.4131C16.5034 16.602 16.5622 16.6755 16.5433 16.7637L14.0942 28.289C14.0753 28.3772 13.9849 28.4507 13.8946 28.4507ZM20.404 18.8789L18.2594 26.3209C18.23 26.407 18.1334 26.4763 18.0431 26.4763L15.3923 26.4826C15.3019 26.4826 15.2431 26.4112 15.262 26.323L16.9823 18.8915C17.0012 18.8033 17.0915 18.7297 17.1819 18.7297L20.2948 18.7234C20.3851 18.7234 20.4355 18.7928 20.4061 18.8789H20.404Z" fill="url(#paint0_linear_409_5365)"/>
</g>
<defs>
<linearGradient id="paint0_linear_409_5365" x1="20.0553" y1="36.464" x2="3.94469" y2="8.56136" gradientUnits="userSpaceOnUse">
<stop stop-color="#00BBB7"/>
<stop offset="0.5" stop-color="#00ABA7"/>
<stop offset="0.73" stop-color="#00A29E"/>
<stop offset="1" stop-color="#00928F"/>
</linearGradient>
<clipPath id="clip0_409_5365">
<rect width="221" height="27" fill="white" transform="translate(0 10.5)"/>
</clipPath>
</defs>
</svg>
