<svg width="240" height="48" viewBox="0 0 240 48" fill="none" xmlns="http://www.w3.org/2000/svg">
<g clip-path="url(#clip0_17663_2670)">
<path fill-rule="evenodd" clip-rule="evenodd" d="M35.2446 16.5953C35.2446 15.808 35.2446 14.4696 36.7424 14.4696C38.2401 14.4696 38.238 15.808 38.238 16.5953V28.0919C38.238 28.703 38.238 30.2134 36.7424 30.2134C35.2467 30.2134 35.2446 28.703 35.2446 28.0919V16.5953ZM30.0525 27.6257C30.0525 31.759 32.6194 34.183 36.7403 34.183C40.8612 34.183 43.426 31.759 43.426 27.6257V17.0594C43.426 12.518 40.6053 10.5 36.7403 10.5C32.8753 10.5 30.0525 12.518 30.0525 17.0594V27.6257Z" fill="#32373F"/>
<path d="M76.5927 29.051C76.5927 31.2326 77.691 34.1829 82.5462 34.1829C87.4013 34.1829 88.4997 31.2326 88.4997 29.051V25.3922H83.6445V29.4011C83.6445 30.0393 83.6445 30.9136 82.5441 30.9136C81.4437 30.9136 81.4437 30.0393 81.4437 29.4011V19.9412C81.4437 19.301 81.4437 18.4267 82.5441 18.4267C83.6445 18.4267 83.6445 19.301 83.6445 19.9412V22.5993H88.4997V20.2913C88.4997 18.1076 87.3972 15.1594 82.5462 15.1594C77.6952 15.1594 76.5927 18.1076 76.5927 20.2913V29.051Z" fill="#32373F"/>
<path d="M89.9038 30.6939C89.9038 33.6048 91.5159 33.9529 93.6045 33.9529H94.759V18.9695H95.9696V15.3583H94.759V10.7029H89.9038V15.3583H88.689V18.9695H89.9038V30.6939Z" fill="#32373F"/>
<path fill-rule="evenodd" clip-rule="evenodd" d="M96.6477 33.9696H101.503V15.3708H96.6477V33.9696ZM96.6477 14.1485H101.503V10.7155H96.6477V14.1505V14.1485Z" fill="#32373F"/>
<path fill-rule="evenodd" clip-rule="evenodd" d="M105.118 33.9699H110.795L114.092 15.3711H109.241L108.026 27.2737H107.97L106.841 15.3711H101.846L105.118 33.9699Z" fill="#32373F"/>
<path fill-rule="evenodd" clip-rule="evenodd" d="M63.6892 29.051C63.6892 31.2326 64.7875 34.1829 69.6406 34.1829C74.4937 34.1829 75.5983 31.2347 75.5983 29.051V27.0724H70.7411V29.4011C70.7411 30.0393 70.7411 30.9136 69.6406 30.9136C68.5402 30.9136 68.5402 30.0393 68.5402 29.4011V25.4129H75.5983V20.2913C75.5983 18.1076 74.4979 15.1594 69.6406 15.1594C64.7834 15.1594 63.6892 18.1076 63.6892 20.2913V29.0531V29.051ZM68.5402 19.9391C68.5402 19.2989 68.5402 18.4267 69.6406 18.4267C70.7411 18.4267 70.7411 19.2989 70.7411 19.9391V21.9778H68.5402V19.9391Z" fill="#32373F"/>
<path fill-rule="evenodd" clip-rule="evenodd" d="M113.922 29.051C113.922 31.2326 115.02 34.1829 119.875 34.1829C124.73 34.1829 125.831 31.2347 125.831 29.051V27.0724H120.978V29.4011C120.978 30.0393 120.978 30.9136 119.877 30.9136C118.777 30.9136 118.777 30.0393 118.777 29.4011V25.4129H125.833V20.2913C125.833 18.1076 124.733 15.1594 119.877 15.1594C115.022 15.1594 113.924 18.1076 113.924 20.2913V29.0531L113.922 29.051ZM118.775 19.9391C118.775 19.2989 118.775 18.4246 119.875 18.4246C120.976 18.4246 120.976 19.2989 120.976 19.9391V21.9778H118.773V19.9391" fill="#32373F"/>
<path fill-rule="evenodd" clip-rule="evenodd" d="M49.5439 29.3762C49.5439 30.0164 49.5439 30.8907 50.6443 30.8907C51.7448 30.8907 51.7468 30.0164 51.7468 29.3762V19.9163C51.7468 19.2761 51.7468 18.4018 50.6443 18.4018C49.5418 18.4018 49.5439 19.274 49.5439 19.9163L49.5314 29.3762H49.5439ZM49.5314 33.6131V33.957H44.6783V10.7029H49.5314V15.6007C49.8851 15.3458 50.6173 15.1324 51.0125 15.1324C55.5619 15.1324 56.5978 18.0827 56.5978 20.2643V29.024C56.5978 31.2056 55.5973 34.1559 51.1519 34.1559C50.7567 34.1559 49.8851 33.9757 49.5273 33.611H49.5314" fill="#32373F"/>
<path d="M57.7316 37.4837L58.8798 37.5002C62.2955 37.5002 62.5867 35.4201 62.5867 32.6252V15.3711H57.7336V37.4837" fill="#32373F"/>
<path d="M57.7316 10.7155H62.5867V14.1485H57.7316V10.7155Z" fill="#32373F"/>
<path d="M139.822 20.3578C139.822 19.6824 139.727 19.1147 139.537 18.663C139.348 18.2093 139.094 17.8488 138.78 17.5815C138.464 17.3143 138.104 17.1278 137.698 17.0221C137.293 16.9165 136.875 16.8626 136.442 16.8626H134.01L134.019 23.9731L136.531 23.969C137.557 23.969 138.364 23.6499 138.949 23.018C139.533 22.3861 139.824 21.4973 139.822 20.3578ZM139.947 34.239L136.479 25.4462H134.021L134.031 34.2473H132.167L132.146 15.259L136.739 15.2549C137.37 15.2549 137.977 15.3398 138.564 15.5076C139.148 15.6775 139.672 15.9593 140.132 16.3509C140.592 16.7445 140.962 17.2625 141.241 17.9047C141.522 18.5491 141.661 19.3364 141.663 20.2646C141.663 21.0705 141.561 21.7625 141.355 22.3426C141.149 22.9248 140.879 23.4117 140.546 23.8053C140.213 24.1989 139.845 24.5035 139.44 24.719C139.036 24.9324 138.634 25.0691 138.237 25.123L141.975 34.239H139.949H139.947Z" fill="#00928F"/>
<path d="M145.027 34.2349L145.004 15.2446L152.703 15.2363L152.705 16.8979L146.843 16.9041L146.849 23.5568L152.334 23.5506V25.1604L146.853 25.1666L146.862 32.5423L152.994 32.5361V34.2246L145.027 34.2349Z" fill="#00928F"/>
<path d="M164.893 34.1456C164.146 34.4232 163.268 34.562 162.259 34.5641C161.196 34.5641 160.241 34.3341 159.395 33.87C158.548 33.4059 157.834 32.745 157.258 31.8873C156.68 31.0296 156.237 29.9937 155.931 28.7775C155.623 27.5613 155.469 26.2022 155.467 24.7022C155.467 23.2892 155.613 21.9736 155.908 20.7575C156.206 19.5413 156.63 18.4909 157.19 17.6042C157.747 16.7174 158.429 16.0254 159.241 15.524C160.05 15.0227 160.967 14.772 161.995 14.7699C162.931 14.7699 163.786 14.9564 164.562 15.3293C165.336 15.7043 165.985 16.2927 166.509 17.0966L165.294 18.3314C164.878 17.7057 164.395 17.2374 163.848 16.9246C163.297 16.6117 162.706 16.4564 162.078 16.4564C161.285 16.4564 160.601 16.678 160.027 17.1173C159.451 17.5565 158.97 18.1511 158.583 18.9032C158.196 19.6553 157.909 20.5254 157.722 21.5199C157.535 22.5123 157.441 23.5731 157.441 24.7001C157.441 25.8811 157.543 26.9709 157.743 27.9716C157.941 28.9722 158.244 29.8362 158.65 30.5593C159.055 31.2823 159.561 31.85 160.164 32.2602C160.77 32.6705 161.466 32.8756 162.259 32.8756C162.835 32.8756 163.353 32.803 163.813 32.6601C164.273 32.5171 164.653 32.31 164.961 32.0427L164.955 25.6055L162.226 25.6097V23.9999L166.79 23.9937L166.8 33.0372C166.278 33.5013 165.643 33.8721 164.897 34.1497L164.893 34.1456Z" fill="#00928F"/>
<path d="M184.059 34.1912L181.574 34.1933L178.422 17.9419H178.368L175.279 34.2016L172.795 34.2037L169.018 15.2175L170.936 15.2154L174.089 31.8149H174.143L177.311 15.2071L179.581 15.2051L182.843 31.8045H182.895L185.982 15.1968H187.82L184.059 34.1912Z" fill="#00928F"/>
<path d="M200.283 24.6508C200.283 23.5051 200.191 22.434 200.008 21.4312C199.827 20.4305 199.553 19.5645 199.183 18.8311C198.812 18.0977 198.357 17.5176 197.816 17.0887C197.275 16.6598 196.653 16.4464 195.952 16.4464C195.214 16.4464 194.571 16.6619 194.022 17.0928C193.472 17.5238 193.019 18.1039 192.659 18.8373C192.299 19.5707 192.031 20.4388 191.852 21.4395C191.673 22.4423 191.586 23.5134 191.586 24.6591C191.588 25.8028 191.679 26.876 191.86 27.8767C192.041 28.8794 192.312 29.7537 192.674 30.5037C193.036 31.2537 193.489 31.8442 194.038 32.2731C194.587 32.702 195.23 32.9153 195.971 32.9153C196.69 32.9153 197.323 32.6999 197.862 32.2689C198.402 31.838 198.852 31.2475 199.21 30.4955C199.569 29.7455 199.838 28.8691 200.017 27.8663C200.196 26.8656 200.285 25.7924 200.283 24.6488V24.6508ZM202.257 24.6488C202.257 26.1322 202.116 27.4872 201.829 28.7116C201.541 29.9381 201.13 30.9886 200.589 31.8649C200.05 32.7434 199.393 33.4229 198.619 33.9057C197.845 34.3905 196.963 34.6329 195.973 34.6329C194.983 34.6329 194.094 34.3946 193.31 33.9119C192.526 33.4292 191.858 32.7517 191.309 31.8753C190.758 31.001 190.34 29.9485 190.048 28.7261C189.759 27.5017 189.614 26.1467 189.612 24.6633C189.612 23.1964 189.747 21.8518 190.026 20.6253C190.304 19.4008 190.712 18.3546 191.251 17.4844C191.79 16.6163 192.451 15.9409 193.233 15.4582C194.015 14.9734 194.92 14.731 195.948 14.731C196.938 14.731 197.82 14.9692 198.596 15.452C199.37 15.9347 200.027 16.608 200.57 17.4741C201.111 18.3401 201.527 19.3863 201.816 20.6108C202.105 21.8352 202.251 23.1819 202.253 24.6488H202.257Z" fill="#00928F"/>
<path d="M213.49 20.277C213.49 19.6016 213.394 19.0339 213.205 18.5801C213.016 18.1264 212.762 17.7659 212.448 17.4987C212.132 17.2314 211.772 17.0449 211.366 16.9393C210.963 16.8336 210.542 16.7797 210.112 16.7797L207.68 16.7839L207.688 23.8923L210.201 23.8882C211.227 23.8882 212.034 23.5712 212.618 22.9372C213.203 22.3053 213.494 21.4185 213.494 20.277H213.49ZM213.613 34.1582L210.145 25.3633L207.686 25.3674L207.697 34.1644H205.833L205.81 15.1761L210.403 15.1699C211.033 15.1699 211.643 15.2528 212.227 15.4227C212.812 15.5926 213.336 15.8743 213.796 16.2659C214.256 16.6596 214.624 17.1775 214.905 17.8219C215.185 18.4641 215.325 19.2514 215.327 20.1817C215.327 20.9876 215.225 21.6796 215.019 22.2597C214.813 22.8419 214.543 23.3288 214.21 23.7245C213.877 24.1181 213.509 24.4227 213.103 24.6382C212.7 24.8536 212.298 24.9862 211.901 25.0422L215.639 34.1582H213.613Z" fill="#00928F"/>
<path d="M226.957 34.1439L220.571 24.4125H220.544L220.554 34.1501L218.69 34.1522L218.67 15.1618L220.534 15.1598L220.544 23.6895H220.571L226.558 15.1536L228.746 15.1494L222.327 23.9298L229.227 34.1418L226.957 34.1439Z" fill="#00928F"/>
<path d="M240 29.2729C240 30.1141 239.875 30.8599 239.626 31.5125C239.372 32.1652 239.029 32.7204 238.588 33.1762C238.147 33.632 237.629 33.9821 237.036 34.2225C236.441 34.4649 235.811 34.585 235.145 34.5871C234.171 34.5871 233.277 34.3841 232.455 33.9739C231.636 33.5636 230.972 33.0187 230.469 32.3413L231.629 31.0257C232.043 31.6161 232.568 32.0719 233.198 32.3931C233.828 32.7142 234.467 32.8758 235.116 32.8737C235.981 32.8737 236.705 32.5692 237.29 31.96C237.876 31.3509 238.167 30.4828 238.165 29.3578C238.165 28.8212 238.074 28.3468 237.893 27.9366C237.712 27.5263 237.468 27.1596 237.163 26.8364C236.857 26.5153 236.509 26.2294 236.12 25.9808C235.734 25.7301 235.324 25.498 234.889 25.2846C234.367 25.0339 233.872 24.7522 233.402 24.4414C232.934 24.1286 232.524 23.7681 232.172 23.3558C231.821 22.9455 231.536 22.4587 231.319 21.8951C231.103 21.3316 230.993 20.6748 230.993 19.9228C230.993 19.0464 231.128 18.2819 231.396 17.6292C231.665 16.9766 232.031 16.4317 232.488 15.9904C232.948 15.5512 233.464 15.2259 234.04 15.0105C234.617 14.795 235.22 14.6873 235.85 14.6873C236.715 14.6873 237.493 14.8323 238.186 15.1286C238.881 15.4228 239.461 15.8827 239.929 16.5084L238.769 17.824C238.407 17.306 237.984 16.9352 237.498 16.7135C237.009 16.4897 236.48 16.3779 235.902 16.3799C235.523 16.3799 235.149 16.4483 234.781 16.583C234.413 16.7176 234.084 16.929 233.795 17.2149C233.508 17.5008 233.273 17.8696 233.094 18.315C232.915 18.7625 232.823 19.2908 232.825 19.8979C232.825 20.4345 232.909 20.8986 233.071 21.2922C233.233 21.6859 233.454 22.036 233.735 22.3385C234.015 22.6431 234.34 22.9103 234.708 23.1424C235.078 23.3744 235.461 23.5899 235.858 23.7846C236.362 24.0333 236.863 24.3192 237.358 24.6424C237.853 24.9635 238.301 25.3385 238.698 25.7674C239.095 26.1962 239.409 26.6955 239.644 27.2694C239.877 27.8413 239.996 28.5125 239.998 29.2812L240 29.2729Z" fill="#00928F"/>
<path d="M23.2312 10.5126H0.768773C0.346578 10.5126 0 10.8592 0 11.2813V33.7438C0 34.166 0.346578 34.5126 0.768773 34.5126H23.2312C23.6534 34.5126 24 34.166 24 33.7438V11.2813C24 10.8592 23.6555 10.5126 23.2312 10.5126ZM12.3655 21.811L13.5333 16.4065C13.5586 16.2889 13.6783 16.1923 13.798 16.1944L18.9862 16.2007C19.1059 16.2007 19.1731 16.2931 19.1332 16.4065L17.7364 21.8215C17.6965 21.9349 17.5684 22.0274 17.4465 22.0274L12.5356 22.0232C12.4159 22.0232 12.3382 21.9265 12.3634 21.8089L12.3655 21.811ZM11.6681 23.1574L10.5003 28.5619C10.4751 28.6796 10.3553 28.7762 10.2356 28.7741L5.04744 28.7678C4.92771 28.7678 4.86049 28.6754 4.9004 28.5619L6.29722 23.1448C6.33713 23.0314 6.46525 22.939 6.58708 22.939L11.498 22.9432C11.6177 22.9432 11.6954 23.0398 11.6702 23.1574H11.6681ZM11.4959 22.0253L6.58498 22.0295C6.46525 22.0295 6.33503 21.937 6.29512 21.8236L4.8983 16.4086C4.85839 16.2952 4.92561 16.2028 5.04534 16.2028L10.2335 16.1965C10.3532 16.1965 10.473 16.2931 10.4982 16.4086L11.666 21.8131C11.6912 21.9307 11.6135 22.0274 11.4938 22.0274L11.4959 22.0253ZM18.9883 28.7678L13.8001 28.7741C13.6804 28.7741 13.5607 28.6775 13.5354 28.5619L12.3676 23.1574C12.3424 23.0398 12.4201 22.9432 12.5398 22.9432L17.4507 22.939C17.5705 22.939 17.7007 23.0314 17.7406 23.1448L19.1374 28.5619C19.1773 28.6754 19.1101 28.7678 18.9904 28.7678H18.9883Z" fill="url(#paint0_linear_17663_2670)"/>
</g>
<defs>
<linearGradient id="paint0_linear_17663_2670" x1="20.0553" y1="36.4639" x2="3.94469" y2="8.56124" gradientUnits="userSpaceOnUse">
<stop stop-color="#00BBB7"/>
<stop offset="0.5" stop-color="#00ABA7"/>
<stop offset="0.73" stop-color="#00A29E"/>
<stop offset="1" stop-color="#00928F"/>
</linearGradient>
<clipPath id="clip0_17663_2670">
<rect width="240" height="27" fill="white" transform="translate(0 10.5)"/>
</clipPath>
</defs>
</svg>
