<svg width="1499" height="48" viewBox="0 0 1499 48" fill="none" xmlns="http://www.w3.org/2000/svg">
<mask id="path-1-inside-1_34217_8946" fill="white">
<path d="M0 0H1499V48H0V0Z"/>
</mask>
<path d="M0 0H1499V48H0V0Z" fill="white"/>
<path d="M0 0V1H1499V0V-1H0V0Z" fill="#D1D1D1" mask="url(#path-1-inside-1_34217_8946)"/>
<g clip-path="url(#clip0_34217_8946)">
<path d="M66 27L61 22L61.7 21.3L66 25.6L70.3 21.3L71 22L66 27Z" fill="#32373F"/>
<g clip-path="url(#clip1_34217_8946)">
<path d="M25.232 29V27.964H27.962V20.096H27.864L25.4 22.392L24.714 21.65L27.304 19.228H29.138V27.964H31.658V29H25.232ZM36.7545 29.168C35.5879 29.168 34.7339 28.7247 34.1925 27.838C33.6605 26.9513 33.3945 25.71 33.3945 24.114C33.3945 22.518 33.6605 21.2767 34.1925 20.39C34.7339 19.5033 35.5879 19.06 36.7545 19.06C37.9212 19.06 38.7705 19.5033 39.3025 20.39C39.8439 21.2767 40.1145 22.518 40.1145 24.114C40.1145 25.71 39.8439 26.9513 39.3025 27.838C38.7705 28.7247 37.9212 29.168 36.7545 29.168ZM36.7545 28.146C37.1372 28.146 37.4639 28.0667 37.7345 27.908C38.0052 27.7493 38.2245 27.5253 38.3925 27.236C38.5605 26.9467 38.6819 26.606 38.7565 26.214C38.8405 25.822 38.8825 25.388 38.8825 24.912V23.316C38.8825 22.84 38.8405 22.406 38.7565 22.014C38.6819 21.622 38.5605 21.2813 38.3925 20.992C38.2245 20.7027 38.0052 20.4787 37.7345 20.32C37.4639 20.1613 37.1372 20.082 36.7545 20.082C36.3719 20.082 36.0452 20.1613 35.7745 20.32C35.5039 20.4787 35.2845 20.7027 35.1165 20.992C34.9485 21.2813 34.8225 21.622 34.7385 22.014C34.6639 22.406 34.6265 22.84 34.6265 23.316V24.912C34.6265 25.388 34.6639 25.822 34.7385 26.214C34.8225 26.606 34.9485 26.9467 35.1165 27.236C35.2845 27.5253 35.5039 27.7493 35.7745 27.908C36.0452 28.0667 36.3719 28.146 36.7545 28.146ZM45.3091 29.168C44.1424 29.168 43.2884 28.7247 42.7471 27.838C42.2151 26.9513 41.9491 25.71 41.9491 24.114C41.9491 22.518 42.2151 21.2767 42.7471 20.39C43.2884 19.5033 44.1424 19.06 45.3091 19.06C46.4757 19.06 47.3251 19.5033 47.8571 20.39C48.3984 21.2767 48.6691 22.518 48.6691 24.114C48.6691 25.71 48.3984 26.9513 47.8571 27.838C47.3251 28.7247 46.4757 29.168 45.3091 29.168ZM45.3091 28.146C45.6917 28.146 46.0184 28.0667 46.2891 27.908C46.5597 27.7493 46.7791 27.5253 46.9471 27.236C47.1151 26.9467 47.2364 26.606 47.3111 26.214C47.3951 25.822 47.4371 25.388 47.4371 24.912V23.316C47.4371 22.84 47.3951 22.406 47.3111 22.014C47.2364 21.622 47.1151 21.2813 46.9471 20.992C46.7791 20.7027 46.5597 20.4787 46.2891 20.32C46.0184 20.1613 45.6917 20.082 45.3091 20.082C44.9264 20.082 44.5997 20.1613 44.3291 20.32C44.0584 20.4787 43.8391 20.7027 43.6711 20.992C43.5031 21.2813 43.3771 21.622 43.2931 22.014C43.2184 22.406 43.1811 22.84 43.1811 23.316V24.912C43.1811 25.388 43.2184 25.822 43.2931 26.214C43.3771 26.606 43.5031 26.9467 43.6711 27.236C43.8391 27.5253 44.0584 27.7493 44.3291 27.908C44.5997 28.0667 44.9264 28.146 45.3091 28.146Z" fill="#32373F"/>
</g>
</g>
<line x1="82.5" x2="82.5" y2="48" stroke="#D1D1D1"/>
<path d="M99.232 29V27.964H101.962V20.096H101.864L99.4 22.392L98.714 21.65L101.304 19.228H103.138V27.964H105.658V29H99.232ZM110.527 25.276V24.212H117.751V25.276H110.527ZM123.114 29V27.964H125.844V20.096H125.746L123.282 22.392L122.596 21.65L125.186 19.228H127.02V27.964H129.54V29H123.114ZM134.637 29.168C133.47 29.168 132.616 28.7247 132.075 27.838C131.543 26.9513 131.277 25.71 131.277 24.114C131.277 22.518 131.543 21.2767 132.075 20.39C132.616 19.5033 133.47 19.06 134.637 19.06C135.803 19.06 136.653 19.5033 137.185 20.39C137.726 21.2767 137.997 22.518 137.997 24.114C137.997 25.71 137.726 26.9513 137.185 27.838C136.653 28.7247 135.803 29.168 134.637 29.168ZM134.637 28.146C135.019 28.146 135.346 28.0667 135.617 27.908C135.887 27.7493 136.107 27.5253 136.275 27.236C136.443 26.9467 136.564 26.606 136.639 26.214C136.723 25.822 136.765 25.388 136.765 24.912V23.316C136.765 22.84 136.723 22.406 136.639 22.014C136.564 21.622 136.443 21.2813 136.275 20.992C136.107 20.7027 135.887 20.4787 135.617 20.32C135.346 20.1613 135.019 20.082 134.637 20.082C134.254 20.082 133.927 20.1613 133.657 20.32C133.386 20.4787 133.167 20.7027 132.999 20.992C132.831 21.2813 132.705 21.622 132.621 22.014C132.546 22.406 132.509 22.84 132.509 23.316V24.912C132.509 25.388 132.546 25.822 132.621 26.214C132.705 26.606 132.831 26.9467 132.999 27.236C133.167 27.5253 133.386 27.7493 133.657 27.908C133.927 28.0667 134.254 28.146 134.637 28.146ZM143.191 29.168C142.025 29.168 141.171 28.7247 140.629 27.838C140.097 26.9513 139.831 25.71 139.831 24.114C139.831 22.518 140.097 21.2767 140.629 20.39C141.171 19.5033 142.025 19.06 143.191 19.06C144.358 19.06 145.207 19.5033 145.739 20.39C146.281 21.2767 146.551 22.518 146.551 24.114C146.551 25.71 146.281 26.9513 145.739 27.838C145.207 28.7247 144.358 29.168 143.191 29.168ZM143.191 28.146C143.574 28.146 143.901 28.0667 144.171 27.908C144.442 27.7493 144.661 27.5253 144.829 27.236C144.997 26.9467 145.119 26.606 145.193 26.214C145.277 25.822 145.319 25.388 145.319 24.912V23.316C145.319 22.84 145.277 22.406 145.193 22.014C145.119 21.622 144.997 21.2813 144.829 20.992C144.661 20.7027 144.442 20.4787 144.171 20.32C143.901 20.1613 143.574 20.082 143.191 20.082C142.809 20.082 142.482 20.1613 142.211 20.32C141.941 20.4787 141.721 20.7027 141.553 20.992C141.385 21.2813 141.259 21.622 141.175 22.014C141.101 22.406 141.063 22.84 141.063 23.316V24.912C141.063 25.388 141.101 25.822 141.175 26.214C141.259 26.606 141.385 26.9467 141.553 27.236C141.721 27.5253 141.941 27.7493 142.211 27.908C142.482 28.0667 142.809 28.146 143.191 28.146ZM154.934 29.168C154.449 29.168 154.006 29.0793 153.604 28.902C153.203 28.7247 152.858 28.4727 152.568 28.146C152.288 27.81 152.069 27.4133 151.91 26.956C151.752 26.4893 151.672 25.9667 151.672 25.388C151.672 24.8187 151.752 24.3007 151.91 23.834C152.069 23.3673 152.288 22.9707 152.568 22.644C152.858 22.308 153.203 22.0513 153.604 21.874C154.006 21.6967 154.449 21.608 154.934 21.608C155.42 21.608 155.858 21.6967 156.25 21.874C156.652 22.0513 156.997 22.308 157.286 22.644C157.576 22.9707 157.8 23.3673 157.958 23.834C158.117 24.3007 158.196 24.8187 158.196 25.388C158.196 25.9667 158.117 26.4893 157.958 26.956C157.8 27.4133 157.576 27.81 157.286 28.146C156.997 28.4727 156.652 28.7247 156.25 28.902C155.858 29.0793 155.42 29.168 154.934 29.168ZM154.934 28.174C155.541 28.174 156.036 27.9873 156.418 27.614C156.801 27.2407 156.992 26.6713 156.992 25.906V24.87C156.992 24.1047 156.801 23.5353 156.418 23.162C156.036 22.7887 155.541 22.602 154.934 22.602C154.328 22.602 153.833 22.7887 153.45 23.162C153.068 23.5353 152.876 24.1047 152.876 24.87V25.906C152.876 26.6713 153.068 27.2407 153.45 27.614C153.833 27.9873 154.328 28.174 154.934 28.174ZM160.508 22.756H159.332V21.776H160.508V20.32C160.508 19.816 160.639 19.41 160.9 19.102C161.162 18.794 161.558 18.64 162.09 18.64H163.182V19.62H161.628V21.776H163.182V22.756H161.628V29H160.508V22.756ZM168.326 29V27.964H171.056V20.096H170.958L168.494 22.392L167.808 21.65L170.398 19.228H172.232V27.964H174.752V29H168.326ZM179.849 29.168C178.682 29.168 177.828 28.7247 177.287 27.838C176.755 26.9513 176.489 25.71 176.489 24.114C176.489 22.518 176.755 21.2767 177.287 20.39C177.828 19.5033 178.682 19.06 179.849 19.06C181.015 19.06 181.865 19.5033 182.397 20.39C182.938 21.2767 183.209 22.518 183.209 24.114C183.209 25.71 182.938 26.9513 182.397 27.838C181.865 28.7247 181.015 29.168 179.849 29.168ZM179.849 28.146C180.231 28.146 180.558 28.0667 180.829 27.908C181.099 27.7493 181.319 27.5253 181.487 27.236C181.655 26.9467 181.776 26.606 181.851 26.214C181.935 25.822 181.977 25.388 181.977 24.912V23.316C181.977 22.84 181.935 22.406 181.851 22.014C181.776 21.622 181.655 21.2813 181.487 20.992C181.319 20.7027 181.099 20.4787 180.829 20.32C180.558 20.1613 180.231 20.082 179.849 20.082C179.466 20.082 179.139 20.1613 178.869 20.32C178.598 20.4787 178.379 20.7027 178.211 20.992C178.043 21.2813 177.917 21.622 177.833 22.014C177.758 22.406 177.721 22.84 177.721 23.316V24.912C177.721 25.388 177.758 25.822 177.833 26.214C177.917 26.606 178.043 26.9467 178.211 27.236C178.379 27.5253 178.598 27.7493 178.869 27.908C179.139 28.0667 179.466 28.146 179.849 28.146ZM188.403 29.168C187.236 29.168 186.382 28.7247 185.841 27.838C185.309 26.9513 185.043 25.71 185.043 24.114C185.043 22.518 185.309 21.2767 185.841 20.39C186.382 19.5033 187.236 19.06 188.403 19.06C189.57 19.06 190.419 19.5033 190.951 20.39C191.492 21.2767 191.763 22.518 191.763 24.114C191.763 25.71 191.492 26.9513 190.951 27.838C190.419 28.7247 189.57 29.168 188.403 29.168ZM188.403 28.146C188.786 28.146 189.112 28.0667 189.383 27.908C189.654 27.7493 189.873 27.5253 190.041 27.236C190.209 26.9467 190.33 26.606 190.405 26.214C190.489 25.822 190.531 25.388 190.531 24.912V23.316C190.531 22.84 190.489 22.406 190.405 22.014C190.33 21.622 190.209 21.2813 190.041 20.992C189.873 20.7027 189.654 20.4787 189.383 20.32C189.112 20.1613 188.786 20.082 188.403 20.082C188.02 20.082 187.694 20.1613 187.423 20.32C187.152 20.4787 186.933 20.7027 186.765 20.992C186.597 21.2813 186.471 21.622 186.387 22.014C186.312 22.406 186.275 22.84 186.275 23.316V24.912C186.275 25.388 186.312 25.822 186.387 26.214C186.471 26.606 186.597 26.9467 186.765 27.236C186.933 27.5253 187.152 27.7493 187.423 27.908C187.694 28.0667 188.02 28.146 188.403 28.146ZM197.976 20.082C197.734 20.082 197.556 20.026 197.444 19.914C197.342 19.7927 197.29 19.6387 197.29 19.452V19.27C197.29 19.0833 197.342 18.934 197.444 18.822C197.556 18.7007 197.734 18.64 197.976 18.64C198.219 18.64 198.392 18.7007 198.494 18.822C198.606 18.934 198.662 19.0833 198.662 19.27V19.452C198.662 19.6387 198.606 19.7927 198.494 19.914C198.392 20.026 198.219 20.082 197.976 20.082ZM197.416 21.776H198.536V29H197.416V21.776ZM202.672 29C202.28 29 201.982 28.8927 201.776 28.678C201.58 28.454 201.482 28.1647 201.482 27.81V22.756H200.292V21.776H200.964C201.207 21.776 201.37 21.7293 201.454 21.636C201.548 21.5333 201.594 21.3607 201.594 21.118V19.774H202.602V21.776H204.184V22.756H202.602V28.02H204.072V29H202.672ZM208.806 29.168C208.311 29.168 207.863 29.0793 207.462 28.902C207.07 28.7247 206.729 28.4727 206.44 28.146C206.16 27.81 205.94 27.4133 205.782 26.956C205.632 26.4893 205.558 25.9667 205.558 25.388C205.558 24.8187 205.632 24.3007 205.782 23.834C205.94 23.3673 206.16 22.9707 206.44 22.644C206.729 22.308 207.07 22.0513 207.462 21.874C207.863 21.6967 208.311 21.608 208.806 21.608C209.291 21.608 209.725 21.6967 210.108 21.874C210.49 22.0513 210.817 22.2987 211.088 22.616C211.358 22.924 211.564 23.2927 211.704 23.722C211.853 24.1513 211.928 24.6227 211.928 25.136V25.668H206.734V26.004C206.734 26.312 206.78 26.6013 206.874 26.872C206.976 27.1333 207.116 27.362 207.294 27.558C207.48 27.754 207.704 27.908 207.966 28.02C208.236 28.132 208.54 28.188 208.876 28.188C209.333 28.188 209.73 28.0807 210.066 27.866C210.411 27.6513 210.677 27.3433 210.864 26.942L211.662 27.516C211.428 28.0107 211.064 28.412 210.57 28.72C210.075 29.0187 209.487 29.168 208.806 29.168ZM208.806 22.546C208.498 22.546 208.218 22.602 207.966 22.714C207.714 22.8167 207.494 22.966 207.308 23.162C207.13 23.358 206.99 23.5913 206.888 23.862C206.785 24.1233 206.734 24.4127 206.734 24.73V24.828H210.724V24.674C210.724 24.03 210.546 23.5167 210.192 23.134C209.846 22.742 209.384 22.546 208.806 22.546ZM213.933 29V21.776H215.053V22.952H215.109C215.193 22.7653 215.287 22.5927 215.389 22.434C215.501 22.266 215.632 22.1213 215.781 22C215.94 21.8787 216.122 21.7853 216.327 21.72C216.533 21.6453 216.775 21.608 217.055 21.608C217.531 21.608 217.97 21.7247 218.371 21.958C218.773 22.182 219.071 22.5553 219.267 23.078H219.295C219.426 22.686 219.669 22.3453 220.023 22.056C220.387 21.7573 220.877 21.608 221.493 21.608C222.231 21.608 222.805 21.8507 223.215 22.336C223.635 22.812 223.845 23.4887 223.845 24.366V29H222.725V24.562C222.725 23.918 222.599 23.4327 222.347 23.106C222.095 22.7793 221.694 22.616 221.143 22.616C220.919 22.616 220.705 22.644 220.499 22.7C220.303 22.756 220.126 22.84 219.967 22.952C219.809 23.064 219.683 23.2087 219.589 23.386C219.496 23.554 219.449 23.7547 219.449 23.988V29H218.329V24.562C218.329 23.918 218.203 23.4327 217.951 23.106C217.699 22.7793 217.307 22.616 216.775 22.616C216.551 22.616 216.337 22.644 216.131 22.7C215.926 22.756 215.744 22.84 215.585 22.952C215.427 23.064 215.296 23.2087 215.193 23.386C215.1 23.554 215.053 23.7547 215.053 23.988V29H213.933ZM228.486 29.168C227.814 29.168 227.249 29.042 226.792 28.79C226.344 28.5287 225.957 28.1833 225.63 27.754L226.428 27.11C226.708 27.4647 227.021 27.74 227.366 27.936C227.711 28.1227 228.113 28.216 228.57 28.216C229.046 28.216 229.415 28.1133 229.676 27.908C229.947 27.7027 230.082 27.4133 230.082 27.04C230.082 26.76 229.989 26.522 229.802 26.326C229.625 26.1207 229.298 25.9807 228.822 25.906L228.248 25.822C227.912 25.7753 227.604 25.7053 227.324 25.612C227.044 25.5093 226.797 25.3787 226.582 25.22C226.377 25.052 226.213 24.8467 226.092 24.604C225.98 24.3613 225.924 24.072 225.924 23.736C225.924 23.3813 225.989 23.0733 226.12 22.812C226.251 22.5413 226.428 22.3173 226.652 22.14C226.885 21.9627 227.161 21.832 227.478 21.748C227.795 21.6547 228.136 21.608 228.5 21.608C229.088 21.608 229.578 21.7107 229.97 21.916C230.371 22.1213 230.721 22.406 231.02 22.77L230.278 23.442C230.119 23.218 229.886 23.0173 229.578 22.84C229.27 22.6533 228.883 22.56 228.416 22.56C227.949 22.56 227.595 22.6627 227.352 22.868C227.119 23.064 227.002 23.3347 227.002 23.68C227.002 24.0347 227.119 24.2913 227.352 24.45C227.595 24.6087 227.94 24.7253 228.388 24.8L228.948 24.884C229.751 25.0053 230.32 25.2387 230.656 25.584C230.992 25.92 231.16 26.3633 231.16 26.914C231.16 27.614 230.922 28.1647 230.446 28.566C229.97 28.9673 229.317 29.168 228.486 29.168Z" fill="#707070"/>
<line x1="1255.5" x2="1255.5" y2="48" stroke="#D1D1D1"/>
<g clip-path="url(#clip2_34217_8946)">
<path d="M1296 27L1291 22L1291.7 21.3L1296 25.6L1300.3 21.3L1301 22L1296 27Z" fill="#32373F"/>
<g clip-path="url(#clip3_34217_8946)">
<path d="M1272.23 29V27.964H1274.96V20.096H1274.86L1272.4 22.392L1271.71 21.65L1274.3 19.228H1276.14V27.964H1278.66V29H1272.23Z" fill="#32373F"/>
</g>
</g>
<path d="M1315.92 29.168C1315.43 29.168 1314.99 29.0793 1314.59 28.902C1314.19 28.7247 1313.84 28.4727 1313.55 28.146C1313.27 27.81 1313.05 27.4133 1312.9 26.956C1312.74 26.4893 1312.66 25.9667 1312.66 25.388C1312.66 24.8187 1312.74 24.3007 1312.9 23.834C1313.05 23.3673 1313.27 22.9707 1313.55 22.644C1313.84 22.308 1314.19 22.0513 1314.59 21.874C1314.99 21.6967 1315.43 21.608 1315.92 21.608C1316.41 21.608 1316.84 21.6967 1317.24 21.874C1317.64 22.0513 1317.98 22.308 1318.27 22.644C1318.56 22.9707 1318.79 23.3673 1318.94 23.834C1319.1 24.3007 1319.18 24.8187 1319.18 25.388C1319.18 25.9667 1319.1 26.4893 1318.94 26.956C1318.79 27.4133 1318.56 27.81 1318.27 28.146C1317.98 28.4727 1317.64 28.7247 1317.24 28.902C1316.84 29.0793 1316.41 29.168 1315.92 29.168ZM1315.92 28.174C1316.53 28.174 1317.02 27.9873 1317.4 27.614C1317.79 27.2407 1317.98 26.6713 1317.98 25.906V24.87C1317.98 24.1047 1317.79 23.5353 1317.4 23.162C1317.02 22.7887 1316.53 22.602 1315.92 22.602C1315.31 22.602 1314.82 22.7887 1314.44 23.162C1314.05 23.5353 1313.86 24.1047 1313.86 24.87V25.906C1313.86 26.6713 1314.05 27.2407 1314.44 27.614C1314.82 27.9873 1315.31 28.174 1315.92 28.174ZM1321.49 22.756H1320.32V21.776H1321.49V20.32C1321.49 19.816 1321.62 19.41 1321.89 19.102C1322.15 18.794 1322.54 18.64 1323.08 18.64H1324.17V19.62H1322.61V21.776H1324.17V22.756H1322.61V29H1321.49V22.756ZM1329.31 29V27.964H1332.04V20.096H1331.94L1329.48 22.392L1328.79 21.65L1331.38 19.228H1333.22V27.964H1335.74V29H1329.31ZM1340.83 29.168C1339.67 29.168 1338.81 28.7247 1338.27 27.838C1337.74 26.9513 1337.47 25.71 1337.47 24.114C1337.47 22.518 1337.74 21.2767 1338.27 20.39C1338.81 19.5033 1339.67 19.06 1340.83 19.06C1342 19.06 1342.85 19.5033 1343.38 20.39C1343.92 21.2767 1344.19 22.518 1344.19 24.114C1344.19 25.71 1343.92 26.9513 1343.38 27.838C1342.85 28.7247 1342 29.168 1340.83 29.168ZM1340.83 28.146C1341.22 28.146 1341.54 28.0667 1341.81 27.908C1342.08 27.7493 1342.3 27.5253 1342.47 27.236C1342.64 26.9467 1342.76 26.606 1342.84 26.214C1342.92 25.822 1342.96 25.388 1342.96 24.912V23.316C1342.96 22.84 1342.92 22.406 1342.84 22.014C1342.76 21.622 1342.64 21.2813 1342.47 20.992C1342.3 20.7027 1342.08 20.4787 1341.81 20.32C1341.54 20.1613 1341.22 20.082 1340.83 20.082C1340.45 20.082 1340.12 20.1613 1339.85 20.32C1339.58 20.4787 1339.36 20.7027 1339.2 20.992C1339.03 21.2813 1338.9 21.622 1338.82 22.014C1338.74 22.406 1338.71 22.84 1338.71 23.316V24.912C1338.71 25.388 1338.74 25.822 1338.82 26.214C1338.9 26.606 1339.03 26.9467 1339.2 27.236C1339.36 27.5253 1339.58 27.7493 1339.85 27.908C1340.12 28.0667 1340.45 28.146 1340.83 28.146ZM1349.85 21.776H1350.97V22.952H1351.02C1351.21 22.4947 1351.48 22.1587 1351.84 21.944C1352.2 21.72 1352.63 21.608 1353.14 21.608C1353.59 21.608 1353.99 21.6967 1354.36 21.874C1354.72 22.0513 1355.03 22.3033 1355.28 22.63C1355.54 22.9567 1355.74 23.3533 1355.87 23.82C1356.01 24.2867 1356.08 24.8093 1356.08 25.388C1356.08 25.9667 1356.01 26.4893 1355.87 26.956C1355.74 27.4227 1355.54 27.8193 1355.28 28.146C1355.03 28.4727 1354.72 28.7247 1354.36 28.902C1353.99 29.0793 1353.59 29.168 1353.14 29.168C1352.16 29.168 1351.45 28.72 1351.02 27.824H1350.97V31.8H1349.85V21.776ZM1352.83 28.16C1353.46 28.16 1353.96 27.964 1354.33 27.572C1354.69 27.1707 1354.87 26.648 1354.87 26.004V24.772C1354.87 24.128 1354.69 23.61 1354.33 23.218C1353.96 22.8167 1353.46 22.616 1352.83 22.616C1352.58 22.616 1352.33 22.6533 1352.1 22.728C1351.88 22.7933 1351.68 22.8867 1351.51 23.008C1351.35 23.1293 1351.21 23.2787 1351.11 23.456C1351.01 23.624 1350.97 23.806 1350.97 24.002V26.69C1350.97 26.9233 1351.01 27.1333 1351.11 27.32C1351.21 27.4973 1351.35 27.6513 1351.51 27.782C1351.68 27.9033 1351.88 27.9967 1352.1 28.062C1352.33 28.1273 1352.58 28.16 1352.83 28.16ZM1363.38 29C1362.96 29 1362.66 28.888 1362.47 28.664C1362.29 28.44 1362.18 28.16 1362.13 27.824H1362.06C1361.9 28.272 1361.64 28.608 1361.28 28.832C1360.91 29.056 1360.48 29.168 1359.98 29.168C1359.21 29.168 1358.61 28.972 1358.18 28.58C1357.76 28.188 1357.55 27.656 1357.55 26.984C1357.55 26.3027 1357.8 25.78 1358.3 25.416C1358.8 25.052 1359.58 24.87 1360.63 24.87H1362.06V24.156C1362.06 23.6427 1361.92 23.2507 1361.64 22.98C1361.36 22.7093 1360.93 22.574 1360.35 22.574C1359.92 22.574 1359.55 22.672 1359.25 22.868C1358.96 23.064 1358.72 23.3253 1358.52 23.652L1357.85 23.022C1358.04 22.63 1358.36 22.2987 1358.79 22.028C1359.22 21.748 1359.76 21.608 1360.41 21.608C1361.29 21.608 1361.97 21.8227 1362.45 22.252C1362.94 22.6813 1363.18 23.2787 1363.18 24.044V28.02H1364.01V29H1363.38ZM1360.16 28.216C1360.44 28.216 1360.7 28.1833 1360.93 28.118C1361.16 28.0527 1361.36 27.9593 1361.53 27.838C1361.7 27.7167 1361.83 27.5767 1361.92 27.418C1362.02 27.2593 1362.06 27.0867 1362.06 26.9V25.71H1360.58C1359.93 25.71 1359.46 25.8033 1359.16 25.99C1358.88 26.1767 1358.73 26.4473 1358.73 26.802V27.096C1358.73 27.4507 1358.86 27.726 1359.11 27.922C1359.37 28.118 1359.72 28.216 1360.16 28.216ZM1371.86 29.798C1371.86 30.5447 1371.56 31.0907 1370.97 31.436C1370.4 31.7907 1369.52 31.968 1368.36 31.968C1367.23 31.968 1366.42 31.814 1365.92 31.506C1365.43 31.198 1365.18 30.7593 1365.18 30.19C1365.18 29.798 1365.28 29.49 1365.49 29.266C1365.69 29.0513 1365.97 28.8927 1366.33 28.79V28.636C1365.9 28.4307 1365.68 28.0947 1365.68 27.628C1365.68 27.264 1365.8 26.9887 1366.03 26.802C1366.27 26.606 1366.56 26.4613 1366.93 26.368V26.312C1366.5 26.1067 1366.16 25.8127 1365.92 25.43C1365.69 25.0473 1365.57 24.604 1365.57 24.1C1365.57 23.736 1365.64 23.4 1365.77 23.092C1365.9 22.784 1366.08 22.5227 1366.31 22.308C1366.56 22.084 1366.84 21.9113 1367.17 21.79C1367.5 21.6687 1367.88 21.608 1368.29 21.608C1368.8 21.608 1369.26 21.7013 1369.66 21.888V21.762C1369.66 21.482 1369.72 21.2533 1369.85 21.076C1369.99 20.8893 1370.2 20.796 1370.5 20.796H1371.58V21.776H1370.2V22.238C1370.47 22.462 1370.67 22.7327 1370.81 23.05C1370.96 23.358 1371.03 23.708 1371.03 24.1C1371.03 24.464 1370.97 24.8 1370.83 25.108C1370.7 25.416 1370.52 25.682 1370.27 25.906C1370.04 26.1207 1369.76 26.2887 1369.42 26.41C1369.08 26.5313 1368.71 26.592 1368.3 26.592C1368.07 26.592 1367.83 26.5687 1367.6 26.522C1367.36 26.5873 1367.14 26.6853 1366.94 26.816C1366.75 26.9373 1366.65 27.11 1366.65 27.334C1366.65 27.5487 1366.75 27.6933 1366.96 27.768C1367.16 27.8427 1367.43 27.88 1367.75 27.88H1369.29C1370.19 27.88 1370.84 28.0527 1371.24 28.398C1371.65 28.734 1371.86 29.2007 1371.86 29.798ZM1370.81 29.882C1370.81 29.5927 1370.69 29.3593 1370.47 29.182C1370.26 29.014 1369.87 28.93 1369.31 28.93H1366.9C1366.45 29.1353 1366.23 29.462 1366.23 29.91C1366.23 30.2273 1366.35 30.498 1366.58 30.722C1366.82 30.946 1367.23 31.058 1367.8 31.058H1368.83C1369.46 31.058 1369.94 30.96 1370.29 30.764C1370.63 30.568 1370.81 30.274 1370.81 29.882ZM1368.3 25.696C1368.78 25.696 1369.15 25.584 1369.43 25.36C1369.71 25.1267 1369.85 24.772 1369.85 24.296V23.904C1369.85 23.428 1369.71 23.078 1369.43 22.854C1369.15 22.6207 1368.78 22.504 1368.3 22.504C1367.82 22.504 1367.45 22.6207 1367.17 22.854C1366.89 23.078 1366.75 23.428 1366.75 23.904V24.296C1366.75 24.772 1366.89 25.1267 1367.17 25.36C1367.45 25.584 1367.82 25.696 1368.3 25.696ZM1375.96 29.168C1375.46 29.168 1375.01 29.0793 1374.61 28.902C1374.22 28.7247 1373.88 28.4727 1373.59 28.146C1373.31 27.81 1373.09 27.4133 1372.93 26.956C1372.78 26.4893 1372.71 25.9667 1372.71 25.388C1372.71 24.8187 1372.78 24.3007 1372.93 23.834C1373.09 23.3673 1373.31 22.9707 1373.59 22.644C1373.88 22.308 1374.22 22.0513 1374.61 21.874C1375.01 21.6967 1375.46 21.608 1375.96 21.608C1376.44 21.608 1376.88 21.6967 1377.26 21.874C1377.64 22.0513 1377.97 22.2987 1378.24 22.616C1378.51 22.924 1378.72 23.2927 1378.86 23.722C1379 24.1513 1379.08 24.6227 1379.08 25.136V25.668H1373.89V26.004C1373.89 26.312 1373.93 26.6013 1374.03 26.872C1374.13 27.1333 1374.27 27.362 1374.45 27.558C1374.63 27.754 1374.86 27.908 1375.12 28.02C1375.39 28.132 1375.69 28.188 1376.03 28.188C1376.48 28.188 1376.88 28.0807 1377.22 27.866C1377.56 27.6513 1377.83 27.3433 1378.02 26.942L1378.81 27.516C1378.58 28.0107 1378.22 28.412 1377.72 28.72C1377.23 29.0187 1376.64 29.168 1375.96 29.168ZM1375.96 22.546C1375.65 22.546 1375.37 22.602 1375.12 22.714C1374.87 22.8167 1374.65 22.966 1374.46 23.162C1374.28 23.358 1374.14 23.5913 1374.04 23.862C1373.94 24.1233 1373.89 24.4127 1373.89 24.73V24.828H1377.88V24.674C1377.88 24.03 1377.7 23.5167 1377.34 23.134C1377 22.742 1376.54 22.546 1375.96 22.546ZM1383.25 29.168C1382.58 29.168 1382.02 29.042 1381.56 28.79C1381.11 28.5287 1380.73 28.1833 1380.4 27.754L1381.2 27.11C1381.48 27.4647 1381.79 27.74 1382.13 27.936C1382.48 28.1227 1382.88 28.216 1383.34 28.216C1383.81 28.216 1384.18 28.1133 1384.44 27.908C1384.72 27.7027 1384.85 27.4133 1384.85 27.04C1384.85 26.76 1384.76 26.522 1384.57 26.326C1384.39 26.1207 1384.07 25.9807 1383.59 25.906L1383.02 25.822C1382.68 25.7753 1382.37 25.7053 1382.09 25.612C1381.81 25.5093 1381.57 25.3787 1381.35 25.22C1381.15 25.052 1380.98 24.8467 1380.86 24.604C1380.75 24.3613 1380.69 24.072 1380.69 23.736C1380.69 23.3813 1380.76 23.0733 1380.89 22.812C1381.02 22.5413 1381.2 22.3173 1381.42 22.14C1381.65 21.9627 1381.93 21.832 1382.25 21.748C1382.56 21.6547 1382.9 21.608 1383.27 21.608C1383.86 21.608 1384.35 21.7107 1384.74 21.916C1385.14 22.1213 1385.49 22.406 1385.79 22.77L1385.05 23.442C1384.89 23.218 1384.65 23.0173 1384.35 22.84C1384.04 22.6533 1383.65 22.56 1383.18 22.56C1382.72 22.56 1382.36 22.6627 1382.12 22.868C1381.89 23.064 1381.77 23.3347 1381.77 23.68C1381.77 24.0347 1381.89 24.2913 1382.12 24.45C1382.36 24.6087 1382.71 24.7253 1383.16 24.8L1383.72 24.884C1384.52 25.0053 1385.09 25.2387 1385.42 25.584C1385.76 25.92 1385.93 26.3633 1385.93 26.914C1385.93 27.614 1385.69 28.1647 1385.21 28.566C1384.74 28.9673 1384.09 29.168 1383.25 29.168Z" fill="#32373F"/>
<line x1="1403.5" x2="1403.5" y2="48" stroke="#D1D1D1"/>
<g clip-path="url(#clip4_34217_8946)">
<g clip-path="url(#clip5_34217_8946)">
<path d="M1429 28L1424 24L1429 20V28Z" fill="#32373F"/>
</g>
</g>
<line x1="1451.5" x2="1451.5" y2="48" stroke="#D1D1D1"/>
<g clip-path="url(#clip6_34217_8946)">
<g clip-path="url(#clip7_34217_8946)">
<path d="M1473 20L1478 24L1473 28V20Z" fill="#32373F"/>
</g>
</g>
<defs>
<clipPath id="clip0_34217_8946">
<rect width="66" height="48" fill="white" transform="translate(16)"/>
</clipPath>
<clipPath id="clip1_34217_8946">
<rect width="26" height="18" fill="white" transform="translate(24 15)"/>
</clipPath>
<clipPath id="clip2_34217_8946">
<rect width="49" height="48" fill="white" transform="translate(1263)"/>
</clipPath>
<clipPath id="clip3_34217_8946">
<rect width="9" height="18" fill="white" transform="translate(1271 15)"/>
</clipPath>
<clipPath id="clip4_34217_8946">
<rect width="48" height="48" fill="white" transform="translate(1403)"/>
</clipPath>
<clipPath id="clip5_34217_8946">
<rect width="16" height="16" fill="white" transform="translate(1419 16)"/>
</clipPath>
<clipPath id="clip6_34217_8946">
<rect width="48" height="48" fill="white" transform="translate(1451)"/>
</clipPath>
<clipPath id="clip7_34217_8946">
<rect width="16" height="16" fill="white" transform="translate(1467 16)"/>
</clipPath>
</defs>
</svg>
