<svg width="196" height="174" viewBox="0 0 196 174" fill="none" xmlns="http://www.w3.org/2000/svg">
<ellipse cx="84.7348" cy="52.7787" rx="84.7348" ry="52.7787" transform="matrix(0.963472 0.26781 -0.300508 0.953779 32.5542 18.9358)" fill="#F5F5F5"/>
<g filter="url(#filter0_ddd_1_402)">
<path d="M95.4688 151.253V160.508L159.999 125.56V116.305L95.4688 151.253Z" fill="#27AE60"/>
<path d="M95.4687 151.254L30.9388 116.307L95.4687 81.3318L159.999 116.307L95.4687 151.254Z" fill="#6FCF97"/>
<path d="M95.4687 160.508L30.9388 125.56V116.305L95.4687 151.253V160.508Z" fill="#219653"/>
</g>
<g clip-path="url(#clip0_1_402)">
<path d="M79.6652 99.4191L82.7079 39.9373L140.834 71.9405V129.6L135.318 132.911L79.6652 99.4191Z" fill="#7C7CD6"/>
<path d="M77.1951 100.908V43.2487L135.318 75.2519V132.911L77.1951 100.908Z" fill="#ACACE5"/>
<path d="M80.0425 47.9086V99.3815L132.473 128.251V125.584L82.7989 98.2359V49.4277L80.0425 47.9086Z" fill="#5454AE"/>
<path d="M82.799 49.4277V98.236L132.473 125.584V76.7785L82.799 49.4277Z" fill="#7C7CD6"/>
<path d="M82.7079 39.9373L77.1951 43.2487L135.318 75.2519L140.834 71.9405L82.7079 39.9373Z" fill="#D3D3EF"/>
<path d="M82.7989 98.2359L80.0425 99.3815L132.473 128.251V125.584L82.7989 98.2359Z" fill="#6666C4"/>
<path d="M129.123 81.6691L129.075 114.051L84.4688 138.073L84.5169 105.691L129.123 81.6691Z" fill="#5454AE"/>
<path d="M84.5169 105.691L84.4687 138.073L39.8335 113.773L39.8817 81.3908L84.5169 105.691Z" fill="#7C7CD6"/>
<path d="M129.123 81.6691L84.517 105.691L39.8817 81.3908L84.4875 57.369L129.123 81.6691Z" fill="#B1B1E5"/>
<path d="M43.2295 81.3958L63.8652 92.6284L84.4768 81.5312L105.137 92.7788L125.772 81.6641L84.4768 59.1838L43.2295 81.3958Z" fill="#7C7CD6"/>
<path d="M63.8652 92.6284L84.525 103.879L105.137 92.7788L84.4768 81.5312L63.8652 92.6284Z" fill="#5454AE"/>
<path d="M84.4768 59.1838V81.5312L105.137 92.7788L125.772 81.6641L84.4768 59.1838Z" fill="#7171C6"/>
<path d="M70.2772 111.023L70.2451 117.904L68.1871 119.007L68.2192 112.126L70.2772 111.023Z" fill="#5454AE"/>
<path d="M68.2193 112.126L68.1872 119.007L48.5229 108.441L48.5524 101.562L68.2193 112.126Z" fill="#9A9ADB"/>
<path d="M70.2772 111.023L68.2193 112.126L48.5524 101.562L50.6103 100.457L70.2772 111.023Z" fill="#B1B1E5"/>
<mask id="mask0_1_402" style="mask-type:luminance" maskUnits="userSpaceOnUse" x="43" y="12" width="83" height="92">
<path d="M125.772 81.6641L84.3296 103.786L43.2295 81.3958L45.82 28.4666L84.4768 12.2105L116.59 27.494L125.772 81.6641Z" fill="white"/>
</mask>
<g mask="url(#mask0_1_402)">
<path d="M76.724 76.4651V14.9102L118.362 37.8341V99.3915L116.59 100.457L76.724 76.4651Z" fill="#7C7CD6"/>
<path d="M74.9551 77.533V15.9756L116.59 38.902V100.457L74.9551 77.533Z" fill="#EEEEFF"/>
<path d="M114.607 97.2107V39.9649L76.9381 19.2243V76.4702L114.607 97.2107Z" fill="white"/>
<path d="M79.2744 29.3364L112.268 47.5025V48.6281L79.2744 30.4619V29.3364Z" fill="#EEEEFF"/>
<path d="M79.2744 67.8821L112.268 86.0483V87.1738L79.2744 69.0077V67.8821Z" fill="#EEEEFF"/>
<path d="M96.2384 58.4569V43.8452L79.443 34.598V49.2096L96.2384 58.4569Z" fill="#F9BB41"/>
<path d="M110.417 53.8295L99.9636 48.0114C99.5728 47.7933 99.2517 47.317 99.2517 46.9511C99.2517 46.5851 99.5728 46.4623 99.9636 46.6803L110.417 52.4984C110.807 52.7165 111.128 53.1928 111.128 53.5588C111.128 53.9247 110.807 54.0476 110.417 53.8295Z" fill="#F9BB41"/>
<path d="M110.417 57.186L99.9636 51.3679C99.5728 51.1498 99.2517 50.6735 99.2517 50.3076C99.2517 49.9416 99.5728 49.8188 99.9636 50.0368L110.417 55.8549C110.807 56.073 111.128 56.5493 111.128 56.9153C111.128 57.2812 110.807 57.4041 110.417 57.186Z" fill="#C6C6ED"/>
<path d="M110.417 60.545L99.9636 54.7269C99.5728 54.5088 99.2517 54.0325 99.2517 53.6666C99.2517 53.3006 99.5728 53.1778 99.9636 53.3958L110.417 59.2139C110.807 59.432 111.128 59.9083 111.128 60.2743C111.128 60.6402 110.807 60.7631 110.417 60.545Z" fill="#C6C6ED"/>
<path d="M110.417 63.9015L99.9636 58.0834C99.5728 57.8653 99.2517 57.389 99.2517 57.023C99.2517 56.6571 99.5728 56.5342 99.9636 56.7523L110.417 62.5704C110.807 62.7885 111.128 63.2648 111.128 63.6307C111.128 63.9967 110.807 64.1196 110.417 63.9015Z" fill="#C6C6ED"/>
<path d="M90.6078 61.9187L80.1548 56.1006C79.7641 55.8825 79.443 55.4062 79.443 55.0402C79.443 54.6743 79.7641 54.5514 80.1548 54.7695L90.6078 60.5876C90.9985 60.8057 91.3197 61.282 91.3197 61.6479C91.3197 62.0139 90.9985 62.1368 90.6078 61.9187Z" fill="#F9BB41"/>
<path d="M90.6078 65.2752L80.1548 59.4571C79.7641 59.239 79.443 58.7627 79.443 58.3967C79.443 58.0308 79.7641 57.9079 80.1548 58.126L90.6078 63.9441C90.9985 64.1622 91.3197 64.6385 91.3197 65.0044C91.3197 65.3704 90.9985 65.4932 90.6078 65.2752Z" fill="#C6C6ED"/>
<path d="M90.6078 68.6342L80.1548 62.8161C79.7641 62.598 79.443 62.1217 79.443 61.7557C79.443 61.3898 79.7641 61.2669 80.1548 61.485L90.6078 67.3031C90.9985 67.5212 91.3197 67.9975 91.3197 68.3634C91.3197 68.7294 90.9985 68.8522 90.6078 68.6342Z" fill="#C6C6ED"/>
<path d="M90.6078 71.9907L80.1548 66.1726C79.7641 65.9545 79.443 65.4782 79.443 65.1122C79.443 64.7462 79.7641 64.6234 80.1548 64.8415L90.6078 70.6596C90.9985 70.8777 91.3197 71.3539 91.3197 71.7199C91.3197 72.0859 90.9985 72.2087 90.6078 71.9907Z" fill="#C6C6ED"/>
<path d="M108.706 71.9907L98.2535 66.1726C97.8628 65.9545 97.5416 65.4782 97.5416 65.1122C97.5416 64.7462 97.8628 64.6234 98.2535 64.8415L108.706 70.6596C109.097 70.8777 109.418 71.3539 109.418 71.7199C109.418 72.0859 109.097 72.2087 108.706 71.9907Z" fill="#F9BB41"/>
<path d="M108.706 75.3496L98.2535 69.5316C97.8628 69.3135 97.5416 68.8372 97.5416 68.4712C97.5416 68.1052 97.8628 67.9824 98.2535 68.2005L108.706 74.0186C109.097 74.2367 109.418 74.7129 109.418 75.0789C109.418 75.4449 109.097 75.5677 108.706 75.3496Z" fill="#C6C6ED"/>
<path d="M108.706 78.7086L98.2535 72.8906C97.8628 72.6725 97.5416 72.1962 97.5416 71.8302C97.5416 71.4642 97.8628 71.3414 98.2535 71.5595L108.706 77.3776C109.097 77.5957 109.418 78.0719 109.418 78.4379C109.418 78.8039 109.097 78.9267 108.706 78.7086Z" fill="#C6C6ED"/>
<path d="M108.706 82.0651L98.2535 76.247C97.8628 76.029 97.5416 75.5527 97.5416 75.1867C97.5416 74.8207 97.8628 74.6979 98.2535 74.916L108.706 80.7341C109.097 80.9521 109.418 81.4284 109.418 81.7944C109.418 82.1604 109.097 82.2832 108.706 82.0651Z" fill="#C6C6ED"/>
<path d="M99.0055 84.5518L88.5526 78.7337C88.1618 78.5156 87.8407 78.0393 87.8407 77.6734C87.8407 77.3074 88.1618 77.1846 88.5526 77.4026L99.0055 83.2207C99.3962 83.4388 99.7174 83.9151 99.7174 84.2811C99.7174 84.6471 99.3962 84.7699 99.0055 84.5518Z" fill="#C6C6ED"/>
<path d="M104.847 40.8046L86.6979 30.7025C86.0182 30.324 85.4642 29.4943 85.4642 28.8601C85.4642 28.2234 86.0209 28.0128 86.6979 28.3914L104.847 38.4934C105.527 38.8719 106.081 39.7017 106.081 40.3359C106.081 40.9726 105.525 41.1831 104.847 40.8046Z" fill="#F9BB41"/>
<path d="M76.724 14.9102L74.9551 15.9756L116.59 38.902L118.362 37.8341L76.724 14.9102Z" fill="#B1B1E5"/>
<path d="M64.5342 86.7402V25.1853L106.172 48.1117V109.667L104.403 110.732L64.5342 86.7402Z" fill="#7C7CD6"/>
<path d="M62.7653 87.808V26.2531L104.403 49.177V110.732L62.7653 87.808Z" fill="#EEEEFF"/>
<path d="M102.42 107.486V50.2399L64.7483 29.4993V86.7452L102.42 107.486Z" fill="white"/>
<path d="M67.0872 39.6114L100.081 57.7776V58.9031L67.0872 40.7369V39.6114Z" fill="#EEEEFF"/>
<path d="M67.0872 78.1572L100.081 96.3233V97.4489L67.0872 79.2827V78.1572Z" fill="#EEEEFF"/>
<path d="M84.0486 68.7319V54.1203L67.2532 44.873V59.4847L84.0486 68.7319Z" fill="#F9BB41"/>
<path d="M98.2294 64.1045L87.7764 58.2864C87.3857 58.0684 87.0646 57.5921 87.0646 57.2261C87.0646 56.8601 87.3857 56.7373 87.7764 56.9554L98.2294 62.7735C98.6201 62.9916 98.9413 63.4678 98.9413 63.8338C98.9413 64.1998 98.6201 64.3226 98.2294 64.1045Z" fill="#F07554"/>
<path d="M98.2294 67.4635L87.7764 61.6454C87.3857 61.4274 87.0646 60.9511 87.0646 60.5851C87.0646 60.2191 87.3857 60.0963 87.7764 60.3144L98.2294 66.1325C98.6201 66.3505 98.9413 66.8268 98.9413 67.1928C98.9413 67.5588 98.6201 67.6816 98.2294 67.4635Z" fill="#C6C6ED"/>
<path d="M98.2294 70.82L87.7764 65.0019C87.3857 64.7838 87.0646 64.3076 87.0646 63.9416C87.0646 63.5756 87.3857 63.4528 87.7764 63.6709L98.2294 69.489C98.6201 69.707 98.9413 70.1833 98.9413 70.5493C98.9413 70.9153 98.6201 71.0381 98.2294 70.82Z" fill="#C6C6ED"/>
<path d="M98.2294 74.179L87.7764 68.3609C87.3857 68.1428 87.0646 67.6666 87.0646 67.3006C87.0646 66.9346 87.3857 66.8118 87.7764 67.0299L98.2294 72.8479C98.6201 73.066 98.9413 73.5423 98.9413 73.9083C98.9413 74.2743 98.6201 74.3971 98.2294 74.179Z" fill="#C6C6ED"/>
<path d="M78.418 72.1937L67.965 66.3756C67.5743 66.1575 67.2532 65.6813 67.2532 65.3153C67.2532 64.9493 67.5743 64.8265 67.965 65.0446L78.418 70.8626C78.8087 71.0807 79.1299 71.557 79.1299 71.923C79.1299 72.289 78.8087 72.4118 78.418 72.1937Z" fill="#F9BB41"/>
<path d="M78.418 75.5527L67.965 69.7346C67.5743 69.5165 67.2532 69.0403 67.2532 68.6743C67.2532 68.3083 67.5743 68.1855 67.965 68.4036L78.418 74.2216C78.8087 74.4397 79.1299 74.916 79.1299 75.282C79.1299 75.648 78.8087 75.7708 78.418 75.5527Z" fill="#C6C6ED"/>
<path d="M78.418 78.9092L67.965 73.0911C67.5743 72.873 67.2532 72.3967 67.2532 72.0308C67.2532 71.6648 67.5743 71.542 67.965 71.76L78.418 77.5781C78.8087 77.7962 79.1299 78.2725 79.1299 78.6385C79.1299 79.0045 78.8087 79.1273 78.418 78.9092Z" fill="#C6C6ED"/>
<path d="M78.418 82.2682L67.965 76.4501C67.5743 76.232 67.2532 75.7557 67.2532 75.3898C67.2532 75.0238 67.5743 74.901 67.965 75.119L78.418 80.9371C78.8087 81.1552 79.1299 81.6315 79.1299 81.9975C79.1299 82.3634 78.8087 82.4863 78.418 82.2682Z" fill="#C6C6ED"/>
<path d="M96.5193 82.2682L86.0663 76.4501C85.6756 76.232 85.3545 75.7557 85.3545 75.3898C85.3545 75.0238 85.6756 74.901 86.0663 75.119L96.5193 80.9371C96.91 81.1552 97.2312 81.6315 97.2312 81.9975C97.2312 82.3634 96.91 82.4863 96.5193 82.2682Z" fill="#F9BB41"/>
<path d="M96.5193 85.6247L86.0663 79.8066C85.6756 79.5885 85.3545 79.1122 85.3545 78.7463C85.3545 78.3803 85.6756 78.2574 86.0663 78.4755L96.5193 84.2936C96.91 84.5117 97.2312 84.988 97.2312 85.354C97.2312 85.7199 96.91 85.8428 96.5193 85.6247Z" fill="#C6C6ED"/>
<path d="M96.5193 88.9837L86.0663 83.1656C85.6756 82.9475 85.3545 82.4712 85.3545 82.1052C85.3545 81.7393 85.6756 81.6164 86.0663 81.8345L96.5193 87.6526C96.91 87.8707 97.2312 88.347 97.2312 88.7129C97.2312 89.0789 96.91 89.2018 96.5193 88.9837Z" fill="#C6C6ED"/>
<path d="M96.5193 92.3402L86.0663 86.5221C85.6756 86.304 85.3545 85.8277 85.3545 85.4617C85.3545 85.0958 85.6756 84.9729 86.0663 85.191L96.5193 91.0091C96.91 91.2272 97.2312 91.7035 97.2312 92.0694C97.2312 92.4354 96.91 92.5582 96.5193 92.3402Z" fill="#C6C6ED"/>
<path d="M86.8157 94.8268L76.3627 89.0087C75.972 88.7907 75.6509 88.3144 75.6509 87.9484C75.6509 87.5824 75.972 87.4596 76.3627 87.6777L86.8157 93.4958C87.2064 93.7138 87.5276 94.1901 87.5276 94.5561C87.5276 94.9221 87.2064 95.0449 86.8157 94.8268Z" fill="#C6C6ED"/>
<path d="M64.5342 25.1853L62.7653 26.2531L104.403 49.177L106.172 48.1117L64.5342 25.1853Z" fill="#B1B1E5"/>
<path d="M102.42 50.2399L64.7483 29.4993V36.3727L102.42 57.1133V50.2399Z" fill="#F07554"/>
<path d="M52.347 111.562V50.0043L93.985 72.9307V134.486L92.2134 135.551L52.347 111.562Z" fill="#7C7CD6"/>
<path d="M50.5781 112.627V51.0721L92.2134 73.996V135.551L50.5781 112.627Z" fill="#EEEEFF"/>
<path d="M90.2304 132.305V75.0589L52.5612 54.3183V111.564L90.2304 132.305Z" fill="white"/>
<path d="M54.9 64.4304L87.8941 82.5966V83.7221L54.9 65.5559V64.4304Z" fill="#EEEEFF"/>
<path d="M54.9 102.976L87.8941 121.142V122.27L54.9 104.104V102.976Z" fill="#EEEEFF"/>
<path d="M71.8615 93.5534V78.9418L55.066 69.6945V84.3061L71.8615 93.5534Z" fill="#F9BB41"/>
<path d="M86.0396 88.9235L75.5866 83.1054C75.1959 82.8873 74.8748 82.4111 74.8748 82.0451C74.8748 81.6791 75.1959 81.5563 75.5866 81.7744L86.0396 87.5924C86.4303 87.8105 86.7514 88.2868 86.7514 88.6528C86.7514 89.0188 86.4303 89.1416 86.0396 88.9235Z" fill="#F9BB41"/>
<path d="M86.0396 92.2825L75.5866 86.4644C75.1959 86.2463 74.8748 85.7701 74.8748 85.4041C74.8748 85.0381 75.1959 84.9153 75.5866 85.1334L86.0396 90.9514C86.4303 91.1695 86.7514 91.6458 86.7514 92.0118C86.7514 92.3778 86.4303 92.5006 86.0396 92.2825Z" fill="#C6C6ED"/>
<path d="M86.0396 95.639L75.5866 89.8209C75.1959 89.6028 74.8748 89.1266 74.8748 88.7606C74.8748 88.3946 75.1959 88.2718 75.5866 88.4898L86.0396 94.3079C86.4303 94.526 86.7514 95.0023 86.7514 95.3683C86.7514 95.7343 86.4303 95.8571 86.0396 95.639Z" fill="#C6C6ED"/>
<path d="M86.0396 98.998L75.5866 93.1799C75.1959 92.9618 74.8748 92.4856 74.8748 92.1196C74.8748 91.7536 75.1959 91.6308 75.5866 91.8489L86.0396 97.6669C86.4303 97.885 86.7514 98.3613 86.7514 98.7273C86.7514 99.0933 86.4303 99.2161 86.0396 98.998Z" fill="#C6C6ED"/>
<path d="M66.2309 97.0127L55.7779 91.1946C55.3872 90.9765 55.066 90.5002 55.066 90.1343C55.066 89.7683 55.3872 89.6455 55.7779 89.8635L66.2309 95.6816C66.6216 95.8997 66.9427 96.376 66.9427 96.742C66.9427 97.1079 66.6216 97.2308 66.2309 97.0127Z" fill="#F9BB41"/>
<path d="M66.2309 100.372L55.7779 94.5536C55.3872 94.3355 55.066 93.8593 55.066 93.4933C55.066 93.1273 55.3872 93.0045 55.7779 93.2225L66.2309 99.0406C66.6216 99.2587 66.9427 99.735 66.9427 100.101C66.9427 100.467 66.6216 100.59 66.2309 100.372Z" fill="#C6C6ED"/>
<path d="M66.2309 103.728L55.7779 97.9101C55.3872 97.692 55.066 97.2157 55.066 96.8497C55.066 96.4838 55.3872 96.3609 55.7779 96.579L66.2309 102.397C66.6216 102.615 66.9427 103.091 66.9427 103.457C66.9427 103.823 66.6216 103.946 66.2309 103.728Z" fill="#C6C6ED"/>
<path d="M66.2309 107.087L55.7779 101.269C55.3872 101.051 55.066 100.575 55.066 100.209C55.066 99.8428 55.3872 99.7199 55.7779 99.938L66.2309 105.756C66.6216 105.974 66.9427 106.45 66.9427 106.816C66.9427 107.182 66.6216 107.305 66.2309 107.087Z" fill="#C6C6ED"/>
<path d="M84.3295 107.087L73.8765 101.269C73.4858 101.051 73.1647 100.575 73.1647 100.209C73.1647 99.8428 73.4858 99.7199 73.8765 99.938L84.3295 105.756C84.7202 105.974 85.0414 106.45 85.0414 106.816C85.0414 107.182 84.7202 107.305 84.3295 107.087Z" fill="#F9BB41"/>
<path d="M84.3295 110.444L73.8765 104.626C73.4858 104.407 73.1647 103.931 73.1647 103.565C73.1647 103.199 73.4858 103.076 73.8765 103.295L84.3295 109.113C84.7202 109.331 85.0414 109.807 85.0414 110.173C85.0414 110.539 84.7202 110.662 84.3295 110.444Z" fill="#C6C6ED"/>
<path d="M80.4705 75.8986L62.321 65.7966C61.6412 65.418 61.0873 64.5908 61.0873 63.9541C61.0873 63.3174 61.6439 63.1069 62.321 63.4854L80.4705 73.5874C81.1503 73.9659 81.7042 74.7957 81.7042 75.4299C81.7042 76.0666 81.1476 76.2771 80.4705 75.8986Z" fill="#F9BB41"/>
<path d="M52.347 50.0043L50.5781 51.0721L92.2134 73.996L93.985 72.9307L52.347 50.0043Z" fill="#B1B1E5"/>
</g>
<path d="M51.5549 109.491C51.5121 109.514 51.4746 109.539 51.4372 109.561C51.3997 109.584 51.3596 109.609 51.3248 109.631C51.2953 109.652 51.2659 109.674 51.2391 109.697C51.207 109.722 51.1722 109.747 51.1428 109.772C51.1241 109.787 51.108 109.804 51.0919 109.819C51.0438 109.862 50.9983 109.907 50.9581 109.952C50.9421 109.972 50.9233 109.992 50.9073 110.013C50.8805 110.045 50.8564 110.08 50.8324 110.115C50.819 110.138 50.8029 110.158 50.7895 110.18C50.7735 110.211 50.7574 110.241 50.744 110.271C50.7333 110.296 50.72 110.318 50.7119 110.343C50.7012 110.373 50.6932 110.401 50.6852 110.431C50.6771 110.456 50.6691 110.481 50.6664 110.506C50.6611 110.536 50.6584 110.569 50.6557 110.599C50.6531 110.627 50.6477 110.657 50.6477 110.684L50.6531 108.727C50.6531 108.727 50.6531 108.709 50.6531 108.701C50.6531 108.681 50.6584 108.661 50.6611 108.641C50.6638 108.611 50.6664 108.579 50.6718 108.549C50.6718 108.544 50.6718 108.539 50.6718 108.534C50.6771 108.513 50.6852 108.493 50.6905 108.473C50.6986 108.443 50.7066 108.416 50.7173 108.386C50.7173 108.381 50.72 108.373 50.7226 108.368C50.7307 108.351 50.7414 108.333 50.7494 108.315C50.7628 108.285 50.7788 108.255 50.7949 108.225C50.8002 108.218 50.8002 108.21 50.8056 108.203C50.8136 108.188 50.827 108.175 50.8377 108.16C50.8618 108.125 50.8832 108.092 50.9126 108.057C50.9207 108.047 50.926 108.037 50.9341 108.027C50.9421 108.017 50.9555 108.007 50.9635 107.997C51.0036 107.952 51.0491 107.907 51.0973 107.864C51.108 107.854 51.1187 107.842 51.1294 107.832C51.1348 107.827 51.1428 107.822 51.1481 107.817C51.1776 107.792 51.2124 107.766 51.2445 107.741C51.2739 107.719 51.3007 107.699 51.3328 107.676C51.3676 107.651 51.4077 107.629 51.4452 107.606C51.472 107.589 51.496 107.571 51.5255 107.556C51.5389 107.548 51.5496 107.541 51.5629 107.536L53.4871 106.458L53.4817 108.416L51.5576 109.494L51.5549 109.491Z" fill="#5454AE"/>
<path d="M48.1589 108.694C48.1589 109.388 48.646 110.085 49.6254 110.614L55.4755 113.743C55.5932 113.805 55.7137 113.865 55.8394 113.92C55.8823 113.941 55.9277 113.956 55.9706 113.973C56.0535 114.008 56.1365 114.041 56.2194 114.073C56.3907 114.136 56.57 114.191 56.752 114.241C56.8082 114.256 56.8644 114.269 56.9233 114.284C57.025 114.309 57.1267 114.334 57.231 114.354C57.3006 114.369 57.3675 114.382 57.4371 114.394C57.5254 114.409 57.611 114.424 57.6993 114.437C57.7743 114.447 57.8465 114.457 57.9215 114.467C58.0044 114.477 58.0874 114.484 58.1703 114.492C58.2453 114.5 58.3229 114.505 58.4005 114.51C58.4835 114.515 58.5691 114.52 58.6521 114.522C58.727 114.525 58.8046 114.527 58.8795 114.527C58.9705 114.527 59.0615 114.527 59.1525 114.527C59.2247 114.527 59.297 114.525 59.3693 114.522C59.4817 114.517 59.5941 114.51 59.7064 114.502C59.7653 114.497 59.8242 114.495 59.8831 114.487C60.0731 114.469 60.2631 114.444 60.4477 114.414C60.512 114.404 60.5708 114.392 60.6351 114.379C60.7287 114.362 60.8197 114.344 60.9107 114.324C60.9776 114.309 61.0418 114.291 61.1061 114.274C61.1917 114.251 61.2773 114.231 61.363 114.206C61.4111 114.191 61.4593 114.176 61.5048 114.161C61.6386 114.119 61.7671 114.073 61.8955 114.023C61.9437 114.006 61.9919 113.986 62.0374 113.966C62.2006 113.898 62.3585 113.825 62.5057 113.743L64.7296 112.502L64.7242 114.459L62.5003 115.7C62.3505 115.78 62.1926 115.853 62.032 115.923C61.9865 115.943 61.9383 115.961 61.8902 115.981C61.7644 116.031 61.6333 116.076 61.4995 116.119C61.47 116.129 61.4406 116.141 61.4111 116.149C61.3924 116.154 61.3737 116.159 61.3549 116.164C61.272 116.189 61.1864 116.209 61.1007 116.232C61.0365 116.249 60.9723 116.267 60.9054 116.282C60.8144 116.302 60.7234 116.319 60.6297 116.337C60.5762 116.347 60.5227 116.36 60.4691 116.37C60.4611 116.37 60.4504 116.37 60.4424 116.372C60.2551 116.402 60.0677 116.427 59.8777 116.445C59.8643 116.445 59.851 116.45 59.8376 116.45C59.7921 116.455 59.7466 116.455 59.7038 116.457C59.5914 116.465 59.479 116.475 59.3666 116.477C59.3398 116.477 59.3131 116.482 59.2863 116.482C59.2408 116.482 59.1953 116.482 59.1498 116.482C59.0588 116.482 58.9678 116.482 58.8768 116.482C58.8421 116.482 58.8099 116.482 58.7752 116.482C58.7323 116.482 58.6922 116.477 58.6494 116.475C58.5664 116.472 58.4808 116.467 58.3978 116.462C58.3604 116.462 58.3229 116.46 58.2854 116.457C58.2453 116.455 58.2051 116.447 58.1677 116.445C58.0847 116.437 58.0018 116.43 57.9215 116.42C57.884 116.415 57.8439 116.412 57.8037 116.407C57.7689 116.402 57.7341 116.395 57.6967 116.39C57.6084 116.377 57.52 116.362 57.4344 116.347C57.3943 116.339 57.3514 116.334 57.3113 116.327C57.2845 116.322 57.2578 116.314 57.2283 116.307C57.124 116.284 57.0223 116.262 56.9179 116.237C56.8751 116.227 56.8323 116.219 56.7895 116.207C56.7734 116.202 56.76 116.197 56.7466 116.194C56.5647 116.144 56.3854 116.089 56.2141 116.026C56.2061 116.024 56.1954 116.021 56.1873 116.019C56.1097 115.991 56.0375 115.958 55.9625 115.926C55.9197 115.908 55.8769 115.893 55.8341 115.873C55.7083 115.818 55.5879 115.758 55.4701 115.695L49.6201 112.567C48.6406 112.038 48.1509 111.341 48.1536 110.647L48.1589 108.689V108.694Z" fill="#5454AE"/>
<path d="M64.7325 112.499L62.5086 113.74C60.5738 114.793 57.4266 114.793 55.4784 113.74L49.6284 110.612C47.6802 109.559 47.6694 107.852 49.6043 106.796L51.8282 105.556L53.4874 106.453L51.5632 107.531C50.3456 108.193 50.3509 109.268 51.5766 109.93L56.7308 112.682C57.9565 113.344 59.9342 113.344 61.1518 112.682L63.076 111.604L64.7352 112.502L64.7325 112.499Z" fill="#B1B1E5"/>
</g>
<defs>
<filter id="filter0_ddd_1_402" x="18.6158" y="69.6934" width="153.706" height="103.822" filterUnits="userSpaceOnUse" color-interpolation-filters="sRGB">
<feFlood flood-opacity="0" result="BackgroundImageFix"/>
<feColorMatrix in="SourceAlpha" type="matrix" values="0 0 0 0 0 0 0 0 0 0 0 0 0 0 0 0 0 0 127 0" result="hardAlpha"/>
<feOffset dy="0.684615"/>
<feGaussianBlur stdDeviation="6.16154"/>
<feComposite in2="hardAlpha" operator="out"/>
<feColorMatrix type="matrix" values="0 0 0 0 0 0 0 0 0 0 0 0 0 0 0 0 0 0 0.12 0"/>
<feBlend mode="normal" in2="BackgroundImageFix" result="effect1_dropShadow_1_402"/>
<feColorMatrix in="SourceAlpha" type="matrix" values="0 0 0 0 0 0 0 0 0 0 0 0 0 0 0 0 0 0 127 0" result="hardAlpha"/>
<feOffset dy="4.10769"/>
<feGaussianBlur stdDeviation="3.42308"/>
<feComposite in2="hardAlpha" operator="out"/>
<feColorMatrix type="matrix" values="0 0 0 0 0 0 0 0 0 0 0 0 0 0 0 0 0 0 0.14 0"/>
<feBlend mode="normal" in2="effect1_dropShadow_1_402" result="effect2_dropShadow_1_402"/>
<feColorMatrix in="SourceAlpha" type="matrix" values="0 0 0 0 0 0 0 0 0 0 0 0 0 0 0 0 0 0 127 0" result="hardAlpha"/>
<feMorphology radius="0.684615" operator="erode" in="SourceAlpha" result="effect3_dropShadow_1_402"/>
<feOffset dy="2.05385"/>
<feGaussianBlur stdDeviation="1.71154"/>
<feComposite in2="hardAlpha" operator="out"/>
<feColorMatrix type="matrix" values="0 0 0 0 0 0 0 0 0 0 0 0 0 0 0 0 0 0 0.2 0"/>
<feBlend mode="normal" in2="effect2_dropShadow_1_402" result="effect3_dropShadow_1_402"/>
<feBlend mode="normal" in="SourceGraphic" in2="effect3_dropShadow_1_402" result="shape"/>
</filter>
<clipPath id="clip0_1_402">
<rect width="101" height="125.862" fill="white" transform="translate(39.8335 12.2105)"/>
</clipPath>
</defs>
</svg>
