<svg width="196" height="169" viewBox="0 0 196 169" fill="none" xmlns="http://www.w3.org/2000/svg">
<ellipse cx="85.1637" cy="56.0724" rx="85.1637" ry="56.0724" transform="matrix(0.95862 0.284689 -0.282856 0.959162 32.2207 4.17479)" fill="#F5F5F5"/>
<g filter="url(#filter0_ddd_1_293)">
<path d="M95.1353 145.543V155.431L159.665 118.093V108.205L95.1353 145.543Z" fill="#27AE60"/>
<path d="M95.1352 145.544L30.6053 108.206L95.1352 70.8388L159.665 108.206L95.1352 145.544Z" fill="#6FCF97"/>
<path d="M95.1352 155.431L30.6053 118.093V108.205L95.1352 145.543V155.431Z" fill="#219653"/>
</g>
<g clip-path="url(#clip0_1_293)">
<path d="M108.279 119.981L110.613 49.7923L155.168 75.3884V144.121L150.942 146.768L108.279 119.981Z" fill="#7C7CD6"/>
<path d="M106.388 121.172V52.442L150.942 78.0382V146.768L106.388 121.172Z" fill="#EEEEFF"/>
<path d="M110.613 49.7923L106.388 52.442L150.942 78.0382L155.168 75.3884L110.613 49.7923Z" fill="#B1B1E5"/>
<path d="M99.1488 124.741V56.0116L143.704 81.6078V150.34L141.812 151.531L99.1488 124.741Z" fill="#7C7CD6"/>
<path d="M97.2573 125.932V57.2025L141.812 82.7987V151.531L97.2573 125.932Z" fill="#EEEEFF"/>
<path d="M139.69 147.904V83.9865L99.3794 60.8269V124.747L139.69 147.904Z" fill="white"/>
<path d="M101.882 72.1174L137.188 92.4018V93.6597L101.882 73.3752V72.1174Z" fill="#EEEEFF"/>
<path d="M101.882 115.156L137.188 135.441V136.699L101.882 116.414V115.156Z" fill="#EEEEFF"/>
<path d="M120.03 104.633V88.3205L102.059 77.9956V94.3084L120.03 104.633Z" fill="#C6C6ED"/>
<path d="M135.206 99.4679L124.019 92.9714C123.601 92.7277 123.259 92.1947 123.259 91.7866C123.259 91.3784 123.601 91.2414 124.019 91.4851L135.206 97.9816C135.623 98.2252 135.966 98.7582 135.966 99.1663C135.966 99.5745 135.623 99.7115 135.206 99.4679Z" fill="#C6C6ED"/>
<path d="M135.206 103.217L124.019 96.7206C123.601 96.477 123.259 95.944 123.259 95.5358C123.259 95.1277 123.601 94.9907 124.019 95.2343L135.206 101.731C135.623 101.974 135.966 102.507 135.966 102.916C135.966 103.324 135.623 103.461 135.206 103.217Z" fill="#C6C6ED"/>
<path d="M135.206 106.966L124.019 100.47C123.601 100.226 123.259 99.6932 123.259 99.2851C123.259 98.877 123.601 98.7399 124.019 98.9836L135.206 105.48C135.623 105.724 135.966 106.257 135.966 106.665C135.966 107.073 135.623 107.21 135.206 106.966Z" fill="#C6C6ED"/>
<path d="M135.206 110.716L124.019 104.219C123.601 103.976 123.259 103.443 123.259 103.034C123.259 102.626 123.601 102.489 124.019 102.733L135.206 109.229C135.623 109.473 135.966 110.006 135.966 110.414C135.966 110.822 135.623 110.959 135.206 110.716Z" fill="#C6C6ED"/>
<path d="M114.007 108.498L102.82 102.002C102.402 101.758 102.059 101.225 102.059 100.817C102.059 100.409 102.402 100.272 102.82 100.516L114.007 107.012C114.424 107.256 114.767 107.789 114.767 108.197C114.767 108.605 114.424 108.742 114.007 108.498Z" fill="#C6C6ED"/>
<path d="M114.007 112.248L102.82 105.751C102.402 105.508 102.059 104.974 102.059 104.566C102.059 104.158 102.402 104.021 102.82 104.265L114.007 110.761C114.424 111.005 114.767 111.538 114.767 111.946C114.767 112.354 114.424 112.491 114.007 112.248Z" fill="#C6C6ED"/>
<path d="M114.007 115.997L102.82 109.5C102.402 109.257 102.059 108.724 102.059 108.316C102.059 107.908 102.402 107.77 102.82 108.014L114.007 114.511C114.424 114.754 114.767 115.287 114.767 115.695C114.767 116.104 114.424 116.241 114.007 115.997Z" fill="#C6C6ED"/>
<path d="M114.007 119.746L102.82 113.25C102.402 113.006 102.059 112.473 102.059 112.065C102.059 111.657 102.402 111.52 102.82 111.763L114.007 118.26C114.424 118.504 114.767 119.037 114.767 119.445C114.767 119.853 114.424 119.99 114.007 119.746Z" fill="#C6C6ED"/>
<path d="M133.374 119.746L122.187 113.25C121.769 113.006 121.426 112.473 121.426 112.065C121.426 111.657 121.769 111.52 122.187 111.763L133.374 118.26C133.791 118.504 134.134 119.037 134.134 119.445C134.134 119.853 133.791 119.99 133.374 119.746Z" fill="#C6C6ED"/>
<path d="M133.374 123.496L122.187 116.999C121.769 116.755 121.426 116.222 121.426 115.814C121.426 115.406 121.769 115.269 122.187 115.513L133.374 122.009C133.791 122.253 134.134 122.786 134.134 123.194C134.134 123.602 133.791 123.739 133.374 123.496Z" fill="#C6C6ED"/>
<path d="M133.374 127.245L122.187 120.748C121.769 120.505 121.426 119.972 121.426 119.563C121.426 119.155 121.769 119.018 122.187 119.262L133.374 125.758C133.791 126.002 134.134 126.535 134.134 126.943C134.134 127.351 133.791 127.488 133.374 127.245Z" fill="#C6C6ED"/>
<path d="M133.374 130.994L122.187 124.498C121.769 124.254 121.426 123.721 121.426 123.313C121.426 122.905 121.769 122.768 122.187 123.011L133.374 129.508C133.791 129.751 134.134 130.284 134.134 130.693C134.134 131.101 133.791 131.238 133.374 130.994Z" fill="#C6C6ED"/>
<path d="M122.994 133.769L111.807 127.272C111.389 127.029 111.046 126.496 111.046 126.087C111.046 125.679 111.389 125.542 111.807 125.786L122.994 132.282C123.411 132.526 123.754 133.059 123.754 133.467C123.754 133.875 123.411 134.012 122.994 133.769Z" fill="#C6C6ED"/>
<path d="M129.245 84.9246L109.822 73.6463C109.096 73.226 108.5 72.3001 108.5 71.5874C108.5 70.8777 109.096 70.6432 109.822 71.0635L129.245 82.3418C129.971 82.7621 130.566 83.688 130.566 84.4007C130.566 85.1104 129.971 85.3449 129.245 84.9246Z" fill="#C6C6ED"/>
<path d="M99.1488 56.0116L97.2573 57.2025L141.812 82.7987L143.704 81.6078L99.1488 56.0116Z" fill="#B1B1E5"/>
<path d="M46.1929 83.2342L48.5238 13.0457L93.0785 38.6419V107.375L88.853 110.021L46.1929 83.2342Z" fill="#7C7CD6"/>
<path d="M44.2983 84.4251V15.6955L88.8531 41.2917V110.021L44.2983 84.4251Z" fill="#EEEEFF"/>
<path d="M48.5238 13.0457L44.2983 15.6955L88.8531 41.2917L93.0786 38.6419L48.5238 13.0457Z" fill="#B1B1E5"/>
<path d="M37.0626 87.9947V19.2651L81.6173 44.8613V113.594L79.7227 114.785L37.0626 87.9947Z" fill="#7C7CD6"/>
<path d="M35.168 89.1855V20.456L79.7227 46.0521V114.785L35.168 89.1855Z" fill="#EEEEFF"/>
<path d="M77.6007 111.157V47.24L37.2901 24.0804V88.0007L77.6007 111.157Z" fill="white"/>
<path d="M39.7924 35.3739L75.0984 55.6553V56.9131L39.7924 36.6287V35.3739Z" fill="#EEEEFF"/>
<path d="M39.7924 78.4128L75.0984 98.6943V99.9521L39.7924 79.6707V78.4128Z" fill="#EEEEFF"/>
<path d="M57.944 67.8899V51.574L39.97 41.249V57.5649L57.944 67.8899Z" fill="#C6C6ED"/>
<path d="M73.1165 62.7213L61.9295 56.2248C61.512 55.9812 61.1692 55.4482 61.1692 55.04C61.1692 54.6319 61.512 54.4949 61.9295 54.7385L73.1165 61.235C73.5341 61.4787 73.8769 62.0117 73.8769 62.4198C73.8769 62.8279 73.5341 62.965 73.1165 62.7213Z" fill="#C6C6ED"/>
<path d="M73.1165 66.4706L61.9295 59.9741C61.512 59.7304 61.1692 59.1974 61.1692 58.7893C61.1692 58.3812 61.512 58.2441 61.9295 58.4878L73.1165 64.9843C73.5341 65.228 73.8769 65.761 73.8769 66.1691C73.8769 66.5772 73.5341 66.7143 73.1165 66.4706Z" fill="#C6C6ED"/>
<path d="M73.1165 70.2199L61.9295 63.7234C61.512 63.4797 61.1692 62.9467 61.1692 62.5386C61.1692 62.1305 61.512 61.9934 61.9295 62.2371L73.1165 68.7336C73.5341 68.9772 73.8769 69.5102 73.8769 69.9183C73.8769 70.3265 73.5341 70.4635 73.1165 70.2199Z" fill="#C6C6ED"/>
<path d="M73.1165 73.9692L61.9295 67.4726C61.512 67.229 61.1692 66.696 61.1692 66.2879C61.1692 65.8797 61.512 65.7427 61.9295 65.9863L73.1165 72.4828C73.5341 72.7265 73.8769 73.2595 73.8769 73.6676C73.8769 74.0758 73.5341 74.2128 73.1165 73.9692Z" fill="#C6C6ED"/>
<path d="M51.9173 71.7519L40.7303 65.2554C40.3127 65.0117 39.97 64.4787 39.97 64.0706C39.97 63.6624 40.3127 63.5254 40.7303 63.769L51.9173 70.2656C52.3349 70.5092 52.6776 71.0422 52.6776 71.4503C52.6776 71.8585 52.3349 71.9955 51.9173 71.7519Z" fill="#C6C6ED"/>
<path d="M51.9173 75.5011L40.7303 69.0046C40.3127 68.761 39.97 68.228 39.97 67.8198C39.97 67.4117 40.3127 67.2747 40.7303 67.5183L51.9173 74.0148C52.3349 74.2585 52.6776 74.7915 52.6776 75.1996C52.6776 75.6077 52.3349 75.7448 51.9173 75.5011Z" fill="#C6C6ED"/>
<path d="M51.9173 79.2504L40.7303 72.7539C40.3127 72.5102 39.97 71.9772 39.97 71.5691C39.97 71.161 40.3127 71.0239 40.7303 71.2676L51.9173 77.7641C52.3349 78.0078 52.6776 78.5408 52.6776 78.9489C52.6776 79.357 52.3349 79.4941 51.9173 79.2504Z" fill="#C6C6ED"/>
<path d="M51.9173 82.9997L40.7303 76.5032C40.3127 76.2595 39.97 75.7265 39.97 75.3184C39.97 74.9103 40.3127 74.7732 40.7303 75.0169L51.9173 81.5134C52.3349 81.757 52.6776 82.29 52.6776 82.6982C52.6776 83.1063 52.3349 83.2433 51.9173 82.9997Z" fill="#C6C6ED"/>
<path d="M71.2873 82.9997L60.1003 76.5032C59.6827 76.2595 59.34 75.7265 59.34 75.3184C59.34 74.9103 59.6827 74.7732 60.1003 75.0169L71.2873 81.5134C71.7049 81.757 72.0476 82.29 72.0476 82.6982C72.0476 83.1063 71.7049 83.2433 71.2873 82.9997Z" fill="#C6C6ED"/>
<path d="M71.2873 86.749L60.1003 80.2524C59.6827 80.0088 59.34 79.4758 59.34 79.0677C59.34 78.6595 59.6827 78.5225 60.1003 78.7661L71.2873 85.2626C71.7049 85.5063 72.0476 86.0393 72.0476 86.4474C72.0476 86.8556 71.7049 86.9926 71.2873 86.749Z" fill="#C6C6ED"/>
<path d="M71.2873 90.4982L60.1003 84.0017C59.6827 83.7581 59.34 83.2251 59.34 82.8169C59.34 82.4088 59.6827 82.2718 60.1003 82.5154L71.2873 89.0119C71.7049 89.2556 72.0476 89.7886 72.0476 90.1967C72.0476 90.6048 71.7049 90.7419 71.2873 90.4982Z" fill="#C6C6ED"/>
<path d="M71.2873 94.2475L60.1003 87.751C59.6827 87.5073 59.34 86.9743 59.34 86.5662C59.34 86.1581 59.6827 86.021 60.1003 86.2647L71.2873 92.7612C71.7049 93.0049 72.0476 93.5378 72.0476 93.946C72.0476 94.3541 71.7049 94.4912 71.2873 94.2475Z" fill="#C6C6ED"/>
<path d="M60.9043 97.0252L49.7173 90.5287C49.2997 90.285 48.957 89.752 48.957 89.3439C48.957 88.9358 49.2997 88.7987 49.7173 89.0424L60.9043 95.5389C61.3219 95.7825 61.6646 96.3155 61.6646 96.7237C61.6646 97.1318 61.3219 97.2689 60.9043 97.0252Z" fill="#C6C6ED"/>
<path d="M67.1553 48.178L47.7323 36.8998C47.0063 36.4795 46.4111 35.5536 46.4111 34.8409C46.4111 34.1312 47.0063 33.8967 47.7323 34.317L67.1553 45.5953C67.8814 46.0156 68.4766 46.9415 68.4766 47.6542C68.4766 48.3638 67.8814 48.5983 67.1553 48.178Z" fill="#C6C6ED"/>
<path d="M37.0626 19.2651L35.168 20.456L79.7227 46.0521L81.6174 44.8613L37.0626 19.2651Z" fill="#B1B1E5"/>
</g>
<defs>
<filter id="filter0_ddd_1_293" x="18.2823" y="59.2004" width="153.706" height="109.238" filterUnits="userSpaceOnUse" color-interpolation-filters="sRGB">
<feFlood flood-opacity="0" result="BackgroundImageFix"/>
<feColorMatrix in="SourceAlpha" type="matrix" values="0 0 0 0 0 0 0 0 0 0 0 0 0 0 0 0 0 0 127 0" result="hardAlpha"/>
<feOffset dy="0.684615"/>
<feGaussianBlur stdDeviation="6.16154"/>
<feComposite in2="hardAlpha" operator="out"/>
<feColorMatrix type="matrix" values="0 0 0 0 0 0 0 0 0 0 0 0 0 0 0 0 0 0 0.12 0"/>
<feBlend mode="normal" in2="BackgroundImageFix" result="effect1_dropShadow_1_293"/>
<feColorMatrix in="SourceAlpha" type="matrix" values="0 0 0 0 0 0 0 0 0 0 0 0 0 0 0 0 0 0 127 0" result="hardAlpha"/>
<feOffset dy="4.10769"/>
<feGaussianBlur stdDeviation="3.42308"/>
<feComposite in2="hardAlpha" operator="out"/>
<feColorMatrix type="matrix" values="0 0 0 0 0 0 0 0 0 0 0 0 0 0 0 0 0 0 0.14 0"/>
<feBlend mode="normal" in2="effect1_dropShadow_1_293" result="effect2_dropShadow_1_293"/>
<feColorMatrix in="SourceAlpha" type="matrix" values="0 0 0 0 0 0 0 0 0 0 0 0 0 0 0 0 0 0 127 0" result="hardAlpha"/>
<feMorphology radius="0.684615" operator="erode" in="SourceAlpha" result="effect3_dropShadow_1_293"/>
<feOffset dy="2.05385"/>
<feGaussianBlur stdDeviation="1.71154"/>
<feComposite in2="hardAlpha" operator="out"/>
<feColorMatrix type="matrix" values="0 0 0 0 0 0 0 0 0 0 0 0 0 0 0 0 0 0 0.2 0"/>
<feBlend mode="normal" in2="effect2_dropShadow_1_293" result="effect3_dropShadow_1_293"/>
<feBlend mode="normal" in="SourceGraphic" in2="effect3_dropShadow_1_293" result="shape"/>
</filter>
<clipPath id="clip0_1_293">
<rect width="120" height="138.486" fill="white" transform="translate(35.168 13.0457)"/>
</clipPath>
</defs>
</svg>
