<svg width="37" height="36" viewBox="0 0 37 36" fill="none" xmlns="http://www.w3.org/2000/svg">
<path d="M4.54996 32H31.55C31.825 32 32.05 31.775 32.05 31.5V4.5C32.05 4.225 31.825 4 31.55 4H4.54996C4.27496 4 4.04996 4.225 4.04996 4.5V31.5C4.04996 31.775 4.27496 32 4.54996 32Z" fill="white"/>
<path opacity="0.64" fill-rule="evenodd" clip-rule="evenodd" d="M4.54996 33H31.55C32.377 33 33.05 32.327 33.05 31.5V4.5C33.05 3.673 32.377 3 31.55 3H4.54996C3.72296 3 3.04996 3.673 3.04996 4.5V31.5C3.04996 32.327 3.72296 33 4.54996 33ZM4.04996 4.5C4.04996 4.36739 4.10264 4.24021 4.19641 4.14645C4.29018 4.05268 4.41736 4 4.54996 4H31.55C31.6826 4 31.8097 4.05268 31.9035 4.14645C31.9973 4.24021 32.05 4.36739 32.05 4.5V31.5C32.05 31.6326 31.9973 31.7598 31.9035 31.8536C31.8097 31.9473 31.6826 32 31.55 32H4.54996C4.41736 32 4.29018 31.9473 4.19641 31.8536C4.10264 31.7598 4.04996 31.6326 4.04996 31.5V4.5Z" fill="#605E5C"/>
<path d="M13.569 24.492C14.684 24.492 15.588 23.602 15.588 22.502C15.588 21.404 14.684 20.514 13.569 20.514C12.454 20.514 11.55 21.404 11.55 22.503C11.55 23.601 12.454 24.492 13.569 24.492ZM21.559 23.455C22.659 23.455 23.549 22.577 23.549 21.493C23.549 20.41 22.659 19.531 21.559 19.531C20.459 19.531 19.568 20.41 19.568 21.493C19.568 22.577 20.459 23.455 21.558 23.455H21.559Z" stroke="#E8467C" stroke-linecap="round" stroke-linejoin="round"/>
<path d="M15.09 22.294C15.09 22.4266 15.1426 22.5538 15.2364 22.6476C15.3302 22.7413 15.4574 22.794 15.59 22.794C15.7226 22.794 15.8498 22.7413 15.9435 22.6476C16.0373 22.5538 16.09 22.4266 16.09 22.294H15.09ZM15.59 13.38L15.461 12.897C15.3544 12.9252 15.2601 12.9879 15.1928 13.0752C15.1256 13.1626 15.089 13.2697 15.089 13.38H15.589H15.59ZM23.55 11.273H24.05C24.0501 11.1964 24.0326 11.1207 23.9988 11.052C23.965 10.9832 23.9159 10.9231 23.8552 10.8763C23.7945 10.8295 23.7239 10.7973 23.6487 10.7822C23.5736 10.7671 23.496 10.7694 23.422 10.789L23.55 11.273ZM23.05 21.494C23.05 21.6266 23.1026 21.7538 23.1964 21.8476C23.2902 21.9413 23.4174 21.994 23.55 21.994C23.6826 21.994 23.8098 21.9413 23.9035 21.8476C23.9973 21.7538 24.05 21.6266 24.05 21.494H23.05ZM15.616 15.922C15.5522 15.9378 15.4922 15.9659 15.4393 16.0049C15.3864 16.0438 15.3418 16.0928 15.3078 16.1491C15.2739 16.2053 15.2513 16.2676 15.2415 16.3326C15.2317 16.3975 15.2347 16.4637 15.2505 16.5275C15.2662 16.5913 15.2944 16.6513 15.3333 16.7042C15.3723 16.757 15.4213 16.8017 15.4775 16.8357C15.5337 16.8696 15.5961 16.8921 15.661 16.902C15.726 16.9118 15.7922 16.9088 15.856 16.893L15.616 15.922ZM23.228 15.078C23.3567 15.0462 23.4676 14.9645 23.5361 14.8509C23.6047 14.7374 23.6253 14.6013 23.5935 14.4725C23.5616 14.3437 23.48 14.2329 23.3664 14.1643C23.2529 14.0958 23.1167 14.0752 22.988 14.107L23.228 15.078ZM16.089 22.294V13.38H15.089V22.294H16.089ZM15.717 13.864L23.678 11.756L23.422 10.789L15.461 12.897L15.717 13.864ZM23.05 11.273V21.494H24.05V11.273H23.05ZM15.856 16.893L23.228 15.078L22.988 14.107L15.617 15.922L15.856 16.893Z" fill="#E8467C"/>
</svg>
