<svg width="37" height="36" viewBox="0 0 37 36" fill="none" xmlns="http://www.w3.org/2000/svg">
<path d="M7.636 33H28.85C29.066 33 29.25 32.83 29.25 32.628V10H23.65C22.878 10 22.25 9.372 22.25 8.6V3H7.65C7.434 3 7.25 3.17 7.25 3.372V32.642C7.25 32.839 7.423 33 7.636 33Z" fill="white"/>
<path d="M28.454 8.99994L23.25 3.81494V8.59994C23.25 8.81994 23.43 8.99994 23.65 8.99994H28.454Z" fill="white"/>
<path opacity="0.64" fill-rule="evenodd" clip-rule="evenodd" d="M29.863 8.993L23.268 2.421C22.9973 2.15221 22.6315 2.00095 22.25 2H7.65C6.878 2 6.25 2.615 6.25 3.372V32.642C6.25 33.39 6.872 34 7.636 34H28.85C29.622 34 30.25 33.385 30.25 32.628V9.923C30.25 9.577 30.11 9.237 29.863 8.993ZM23.25 3.815L28.454 9H23.65C23.5439 9 23.4422 8.95786 23.3672 8.88284C23.2921 8.80783 23.25 8.70609 23.25 8.6V3.815ZM28.85 33C29.066 33 29.25 32.83 29.25 32.628V10H23.65C22.878 10 22.25 9.372 22.25 8.6V3H7.65C7.434 3 7.25 3.17 7.25 3.372V32.642C7.25 32.84 7.423 33 7.636 33H28.85Z" fill="#605E5C"/>
</svg>
