<svg width="37" height="36" viewBox="0 0 37 36" fill="none" xmlns="http://www.w3.org/2000/svg">
<path d="M8.33598 33H29.55C29.766 33 29.95 32.83 29.95 32.628V10H24.35C23.578 10 22.95 9.372 22.95 8.6V3H8.34998C8.13398 3 7.94998 3.17 7.94998 3.372V32.642C7.94998 32.839 8.12298 33 8.33598 33Z" fill="white"/>
<path d="M29.154 8.99994L23.95 3.81494V8.59994C23.95 8.81994 24.13 8.99994 24.35 8.99994H29.154Z" fill="white"/>
<path opacity="0.64" fill-rule="evenodd" clip-rule="evenodd" d="M30.563 8.993L23.968 2.421C23.6972 2.15221 23.3315 2.00095 22.95 2H8.34998C7.57798 2 6.94998 2.615 6.94998 3.372V32.642C6.94998 33.39 7.57198 34 8.33598 34H29.55C30.322 34 30.95 33.385 30.95 32.628V9.923C30.95 9.577 30.81 9.237 30.563 8.993ZM23.95 3.815L29.154 9H24.35C24.2439 9 24.1422 8.95786 24.0671 8.88284C23.9921 8.80783 23.95 8.70609 23.95 8.6V3.815ZM29.55 33C29.766 33 29.95 32.83 29.95 32.628V10H24.35C23.578 10 22.95 9.372 22.95 8.6V3H8.34998C8.13398 3 7.94998 3.17 7.94998 3.372V32.642C7.94998 32.84 8.12298 33 8.33598 33H29.55Z" fill="#605E5C"/>
<path d="M11.513 26.2C11.643 20.988 15.293 14.5 23.45 14.5" stroke="#C8C6C4" stroke-linecap="round"/>
<path d="M12.45 29H11.45V30H12.45V29ZM11.45 29C11.3174 29 11.1902 28.9473 11.0964 28.8536C11.0027 28.7598 10.95 28.6326 10.95 28.5H9.94998C9.94998 28.8978 10.108 29.2794 10.3893 29.5607C10.6706 29.842 11.0522 30 11.45 30V29ZM10.95 28.5V27.5H9.94998V28.5H10.95ZM10.95 27.5C10.95 27.3674 11.0027 27.2402 11.0964 27.1464C11.1902 27.0527 11.3174 27 11.45 27V26C11.0522 26 10.6706 26.158 10.3893 26.4393C10.108 26.7206 9.94998 27.1022 9.94998 27.5H10.95ZM11.45 27H12.45V26H11.45V27ZM12.45 27C12.5826 27 12.7098 27.0527 12.8035 27.1464C12.8973 27.2402 12.95 27.3674 12.95 27.5H13.95C13.95 27.1022 13.7919 26.7206 13.5106 26.4393C13.2293 26.158 12.8478 26 12.45 26V27ZM12.95 27.5V28.5H13.95V27.5H12.95ZM12.95 28.5C12.95 28.6326 12.8973 28.7598 12.8035 28.8536C12.7098 28.9473 12.5826 29 12.45 29V30C12.8478 30 13.2293 29.842 13.5106 29.5607C13.7919 29.2794 13.95 28.8978 13.95 28.5H12.95ZM25.45 16H24.45V17H25.45V16ZM24.45 16C24.3174 16 24.1902 15.9473 24.0964 15.8536C24.0027 15.7598 23.95 15.6326 23.95 15.5H22.95C22.95 15.8978 23.108 16.2794 23.3893 16.5607C23.6706 16.842 24.0522 17 24.45 17V16ZM23.95 15.5V14.5H22.95V15.5H23.95ZM23.95 14.5C23.95 14.3674 24.0027 14.2402 24.0964 14.1464C24.1902 14.0527 24.3174 14 24.45 14V13C24.0522 13 23.6706 13.158 23.3893 13.4393C23.108 13.7206 22.95 14.1022 22.95 14.5H23.95ZM24.45 14H25.45V13H24.45V14ZM25.45 14C25.5826 14 25.7098 14.0527 25.8035 14.1464C25.8973 14.2402 25.95 14.3674 25.95 14.5H26.95C26.95 14.1022 26.7919 13.7206 26.5106 13.4393C26.2293 13.158 25.8478 13 25.45 13V14ZM25.95 14.5V15.5H26.95V14.5H25.95ZM25.95 15.5C25.95 15.6326 25.8973 15.7598 25.8035 15.8536C25.7098 15.9473 25.5826 16 25.45 16V17C25.8478 17 26.2293 16.842 26.5106 16.5607C26.7919 16.2794 26.95 15.8978 26.95 15.5H25.95ZM15.95 20.5C16.8782 20.5 17.7685 20.1313 18.4249 19.4749C19.0812 18.8185 19.45 17.9283 19.45 17C19.45 16.0717 19.0812 15.1815 18.4249 14.5251C17.7685 13.8687 16.8782 13.5 15.95 13.5C15.0217 13.5 14.1315 13.8687 13.4751 14.5251C12.8187 15.1815 12.45 16.0717 12.45 17C12.45 17.9283 12.8187 18.8185 13.4751 19.4749C14.1315 20.1313 15.0217 20.5 15.95 20.5Z" fill="#0078D7"/>
<path fill-rule="evenodd" clip-rule="evenodd" d="M11.95 17C11.95 14.794 13.744 13 15.95 13C18.156 13 19.95 14.794 19.95 17C19.95 19.206 18.156 21 15.95 21C13.744 21 11.95 19.206 11.95 17ZM18.95 17C18.95 16.2044 18.6339 15.4413 18.0713 14.8787C17.5087 14.3161 16.7456 14 15.95 14C15.1543 14 14.3913 14.3161 13.8287 14.8787C13.2661 15.4413 12.95 16.2044 12.95 17C12.95 17.7956 13.2661 18.5587 13.8287 19.1213C14.3913 19.6839 15.1543 20 15.95 20C16.7456 20 17.5087 19.6839 18.0713 19.1213C18.6339 18.5587 18.95 17.7956 18.95 17Z" fill="white"/>
<path d="M20.277 23.0161L26.793 25.4591C26.8412 25.4773 26.8823 25.5104 26.9104 25.5536C26.9385 25.5967 26.952 25.6477 26.9491 25.6992C26.9462 25.7506 26.927 25.7997 26.8943 25.8395C26.8615 25.8792 26.8169 25.9075 26.767 25.9201L23.65 26.7001L22.87 29.8171C22.8571 29.8667 22.8287 29.9109 22.7891 29.9433C22.7495 29.9758 22.7006 29.9948 22.6494 29.9977C22.5983 30.0006 22.5476 29.9872 22.5045 29.9594C22.4615 29.9316 22.4284 29.8909 22.41 29.8431L19.966 23.3271C19.9502 23.2837 19.9471 23.2368 19.9571 23.1917C19.9671 23.1466 19.9898 23.1054 20.0225 23.0728C20.0552 23.0402 20.0965 23.0177 20.1416 23.0078C20.1867 22.9979 20.2337 23.0002 20.277 23.0161Z" fill="#0078D7"/>
</svg>
