<svg width="37" height="36" viewBox="0 0 37 36" fill="none" xmlns="http://www.w3.org/2000/svg">
<path d="M7.93602 33H29.15C29.366 33 29.55 32.83 29.55 32.628V10H23.95C23.178 10 22.55 9.372 22.55 8.6V3H7.95002C7.73402 3 7.55002 3.17 7.55002 3.372V32.642C7.55002 32.839 7.72302 33 7.93602 33Z" fill="white"/>
<path d="M28.754 8.99994L23.55 3.81494V8.59994C23.55 8.81994 23.73 8.99994 23.95 8.99994H28.754Z" fill="white"/>
<path opacity="0.64" fill-rule="evenodd" clip-rule="evenodd" d="M30.163 8.993L23.568 2.421C23.2973 2.15221 22.9315 2.00095 22.55 2H7.95002C7.17802 2 6.55002 2.615 6.55002 3.372V32.642C6.55002 33.39 7.17202 34 7.93602 34H29.15C29.922 34 30.55 33.385 30.55 32.628V9.923C30.55 9.577 30.41 9.237 30.163 8.993ZM23.55 3.815L28.754 9H23.95C23.8439 9 23.7422 8.95786 23.6672 8.88284C23.5922 8.80783 23.55 8.70609 23.55 8.6V3.815ZM29.15 33C29.366 33 29.55 32.83 29.55 32.628V10H23.95C23.178 10 22.55 9.372 22.55 8.6V3H7.95002C7.73402 3 7.55002 3.17 7.55002 3.372V32.642C7.55002 32.84 7.72302 33 7.93602 33H29.15Z" fill="#605E5C"/>
</svg>
