<svg width="37" height="36" viewBox="0 0 37 36" fill="none" xmlns="http://www.w3.org/2000/svg">
<path d="M4.74991 32H31.7499C32.0249 32 32.2499 31.775 32.2499 31.5V4.5C32.2499 4.225 32.0249 4 31.7499 4H4.74991C4.47491 4 4.24991 4.225 4.24991 4.5V31.5C4.24991 31.775 4.47491 32 4.74991 32Z" fill="white"/>
<path opacity="0.64" fill-rule="evenodd" clip-rule="evenodd" d="M4.74991 33H31.7499C32.5769 33 33.2499 32.327 33.2499 31.5V4.5C33.2499 3.673 32.5769 3 31.7499 3H4.74991C3.92291 3 3.24991 3.673 3.24991 4.5V31.5C3.24991 32.327 3.92291 33 4.74991 33ZM4.24991 4.5C4.24991 4.36739 4.30259 4.24021 4.39636 4.14645C4.49012 4.05268 4.6173 4 4.74991 4H31.7499C31.8825 4 32.0097 4.05268 32.1035 4.14645C32.1972 4.24021 32.2499 4.36739 32.2499 4.5V31.5C32.2499 31.6326 32.1972 31.7598 32.1035 31.8536C32.0097 31.9473 31.8825 32 31.7499 32H4.74991C4.6173 32 4.49012 31.9473 4.39636 31.8536C4.30259 31.7598 4.24991 31.6326 4.24991 31.5V4.5Z" fill="#605E5C"/>
<path d="M24.2499 18C24.2489 18.0946 24.2241 18.1874 24.1779 18.27C24.1329 18.3498 24.0673 18.4161 23.9879 18.462L15.0999 23.916C15.0375 23.9548 14.9681 23.9808 14.8957 23.9928C14.8232 24.0047 14.7491 24.0022 14.6776 23.9855C14.6061 23.9688 14.5386 23.9382 14.4789 23.8954C14.4193 23.8525 14.3686 23.7984 14.3299 23.736C14.2788 23.65 14.2512 23.552 14.2499 23.452V18H24.2499Z" fill="#BC1948"/>
<path d="M24.2499 18C24.2489 17.9054 24.2241 17.8125 24.1779 17.73C24.1329 17.6501 24.0673 17.5838 23.9879 17.538L15.0999 12.082C15.0155 12.0306 14.9191 12.0023 14.8203 11.9998C14.7215 11.9974 14.6238 12.0208 14.5369 12.068C14.4505 12.1142 14.3783 12.183 14.3278 12.267C14.2773 12.3509 14.2504 12.447 14.2499 12.545V18H24.2499Z" fill="#E8467C"/>
</svg>
