<svg width="37" height="36" viewBox="0 0 37 36" fill="none" xmlns="http://www.w3.org/2000/svg">
<path d="M6.60486 25.2973V12.6486V0H18.8881C29.8092 0 31.2037 0.0162162 31.4794 0.12973C31.6416 0.194595 31.8848 0.348649 32.0064 0.47027C32.1361 0.591892 32.3226 0.835135 32.4118 1.01351C32.5821 1.32162 32.5902 1.44324 32.5902 3.44595C32.5902 4.60541 32.5821 9.9973 32.5496 25.2973H6.60486Z" fill="#E51050"/>
<path d="M32.5596 25.2973V15.446V5.5946H35.073L35.0892 17.0027C35.1054 23.2865 35.1054 30.1216 35.073 36L5.52027 35.9919L5.15542 35.8054C4.95272 35.7081 4.67706 35.4811 4.53923 35.3027C4.39329 35.1162 4.25546 34.8 4.1906 34.5405C4.12573 34.2243 4.10141 33.0568 4.14195 26.8054L6.65535 25.2973H32.5596Z" fill="#770829"/>
<path d="M1.16007 3.28378L3.87617 1.64595C5.36799 0.745946 6.60037 0 6.61658 0C6.62469 0 6.6328 5.7 6.62469 25.3378L5.39231 26.0757C4.71126 26.4811 4.16805 26.8541 4.18426 26.9108C4.19237 26.9595 4.17615 26.9838 4.14372 26.9595C4.10318 26.9432 3.43835 27.3081 2.66001 27.7784C1.88166 28.2405 1.21683 28.6216 1.1844 28.6216C1.14386 28.6216 1.12764 22.9216 1.16007 3.28378Z" fill="#E85984"/>
<path d="M18.7214 11.1892C19.0863 9.64865 19.4187 8.34325 19.4754 8.27838C19.5241 8.22163 19.5727 8.20541 19.5808 8.23784C19.589 8.27838 19.9133 9.60001 20.2943 11.173C20.6754 12.7378 20.9835 14.0432 20.9835 14.0676C20.9835 14.0919 20.3268 14.1081 19.5241 14.1081C18.7214 14.1081 18.0647 14.0838 18.0647 14.0514C18.0647 14.0108 18.3647 12.7297 18.7214 11.1892Z" fill="#E51050"/>
<path d="M23.9022 32.1892L23.9184 30.4378L23.9265 28.6783L24.4211 28.727C24.7292 28.7594 24.9724 28.8324 25.0697 28.9216C25.1508 29.0027 25.2724 29.1892 25.3292 29.3351C25.4022 29.4973 25.4427 29.8946 25.4346 30.4297C25.4346 30.8838 25.394 31.3783 25.3373 31.5324C25.2805 31.6865 25.1346 31.8892 25.013 31.9783C24.8589 32.0919 24.6319 32.1567 23.9022 32.1892Z" fill="#770829"/>
<path d="M19.143 29.9838C19.2646 29.4405 19.3943 28.9378 19.4186 28.8729C19.443 28.8 19.5889 29.2216 19.743 29.8054C19.8889 30.381 20.0105 30.8838 20.0105 30.9162C20.0105 30.9486 19.7673 30.981 18.9241 30.9729L19.143 29.9838Z" fill="#770829"/>
<path d="M22.9376 26.921H25.2883C25.6994 26.921 26.0748 26.9866 26.4145 27.1177C26.7541 27.2487 27.0431 27.4454 27.2815 27.7076C27.5198 27.9638 27.7045 28.2885 27.8356 28.6818C27.9667 29.0691 28.0322 29.522 28.0322 30.0404C28.0322 30.5588 27.9667 31.0146 27.8356 31.4079C27.7045 31.7952 27.5198 32.1199 27.2815 32.3821C27.0431 32.6383 26.7541 32.832 26.4145 32.9631C26.0748 33.0942 25.6994 33.1597 25.2883 33.1597H22.9376V26.921ZM25.2883 31.9531C25.6935 31.9531 26.0123 31.8399 26.2447 31.6134C26.477 31.387 26.5932 31.0235 26.5932 30.523V29.5577C26.5932 29.0572 26.477 28.6937 26.2447 28.4673C26.0123 28.2409 25.6935 28.1276 25.2883 28.1276H24.2962V31.9531H25.2883Z" fill="white"/>
<path d="M20.6622 33.1597L20.2153 31.676H18.1328L17.6859 33.1597H16.3094L18.3652 26.921H20.0455L22.0744 33.1597H20.6622ZM19.1875 28.1545H19.1428L18.4546 30.523H19.8846L19.1875 28.1545Z" fill="white"/>
<path d="M13.5874 33.267C13.1644 33.267 12.783 33.2015 12.4434 33.0704C12.1037 32.9333 11.8148 32.7337 11.5764 32.4716C11.3381 32.2034 11.1533 31.8727 11.0223 31.4794C10.8912 31.0802 10.8256 30.6154 10.8256 30.0851C10.8256 29.5608 10.8912 29.096 11.0223 28.6908C11.1533 28.2797 11.3381 27.937 11.5764 27.6629C11.8148 27.3829 12.1037 27.1714 12.4434 27.0284C12.783 26.8853 13.1644 26.8138 13.5874 26.8138C14.1654 26.8138 14.6421 26.933 15.0175 27.1714C15.3929 27.4037 15.6938 27.7732 15.9202 28.2797L14.7494 28.8874C14.666 28.6253 14.5349 28.4167 14.3561 28.2618C14.1833 28.1009 13.9271 28.0205 13.5874 28.0205C13.1882 28.0205 12.8665 28.1516 12.6221 28.4137C12.3838 28.67 12.2646 29.0453 12.2646 29.5399V30.541C12.2646 31.0355 12.3838 31.4139 12.6221 31.6761C12.8665 31.9323 13.1882 32.0604 13.5874 32.0604C13.9211 32.0604 14.1863 31.971 14.3829 31.7923C14.5855 31.6076 14.7345 31.3871 14.8298 31.1309L15.9381 31.7744C15.7057 32.2511 15.3989 32.6205 15.0175 32.8827C14.6421 33.1389 14.1654 33.267 13.5874 33.267Z" fill="white"/>
<path d="M22.9345 19.862L21.8952 16.4374H17.0521L16.0128 19.862H12.8118L17.5925 5.46204H21.5003L26.2187 19.862H22.9345ZM19.5048 8.30903H19.4009L17.8004 13.7761H21.1261L19.5048 8.30903Z" fill="white"/>
</svg>
