<svg width="37" height="36" viewBox="0 0 37 36" fill="none" xmlns="http://www.w3.org/2000/svg">
<path d="M4.83337 32H31.8334C32.1084 32 32.3334 31.775 32.3334 31.5V4.5C32.3334 4.225 32.1084 4 31.8334 4H4.83337C4.55837 4 4.33337 4.225 4.33337 4.5V31.5C4.33337 31.775 4.55837 32 4.83337 32Z" fill="white"/>
<path d="M21.9534 19.683L19.8974 22.793L16.4114 17.825C16.3052 17.6673 16.1619 17.538 15.9941 17.4486C15.8263 17.3592 15.639 17.3125 15.4489 17.3125C15.2587 17.3125 15.0715 17.3592 14.9036 17.4486C14.7358 17.538 14.5925 17.6673 14.4864 17.825L9.06137 25.552C8.49137 26.364 9.05337 27.5 10.0234 27.5H26.8334C27.7894 27.5 28.3534 26.395 27.8154 25.58L23.9154 19.683C23.8109 19.5172 23.6661 19.3805 23.4944 19.2857C23.3228 19.191 23.1299 19.1413 22.9339 19.1413C22.7378 19.1413 22.545 19.191 22.3733 19.2857C22.2017 19.3805 22.0569 19.5172 21.9524 19.683H21.9534Z" stroke="#A6CCC3"/>
<path d="M25.3334 13.5C25.9964 13.5 26.6323 13.2366 27.1011 12.7678C27.57 12.2989 27.8334 11.663 27.8334 11C27.8334 10.337 27.57 9.70107 27.1011 9.23223C26.6323 8.76339 25.9964 8.5 25.3334 8.5C24.6703 8.5 24.0344 8.76339 23.5656 9.23223C23.0968 9.70107 22.8334 10.337 22.8334 11C22.8334 11.663 23.0968 12.2989 23.5656 12.7678C24.0344 13.2366 24.6703 13.5 25.3334 13.5Z" stroke="#FF9810"/>
<path opacity="0.64" fill-rule="evenodd" clip-rule="evenodd" d="M4.83337 33H31.8334C32.6604 33 33.3334 32.327 33.3334 31.5V4.5C33.3334 3.673 32.6604 3 31.8334 3H4.83337C4.00637 3 3.33337 3.673 3.33337 4.5V31.5C3.33337 32.327 4.00637 33 4.83337 33ZM4.33337 4.5C4.33337 4.36739 4.38605 4.24021 4.47982 4.14645C4.57359 4.05268 4.70077 4 4.83337 4H31.8334C31.966 4 32.0932 4.05268 32.1869 4.14645C32.2807 4.24021 32.3334 4.36739 32.3334 4.5V31.5C32.3334 31.6326 32.2807 31.7598 32.1869 31.8536C32.0932 31.9473 31.966 32 31.8334 32H4.83337C4.70077 32 4.57359 31.9473 4.47982 31.8536C4.38605 31.7598 4.33337 31.6326 4.33337 31.5V4.5Z" fill="#605E5C"/>
</svg>
