<svg width="37" height="36" viewBox="0 0 37 36" fill="none" xmlns="http://www.w3.org/2000/svg">
<g clip-path="url(#clip0_31557_14964)">
<path d="M6.41443 25.2973V12.6486V0H18.6977C29.6188 0 31.0133 0.0162162 31.289 0.12973C31.4511 0.194595 31.6944 0.348649 31.816 0.47027C31.9457 0.591892 32.1322 0.835135 32.2214 1.01351C32.3916 1.32162 32.3997 1.44324 32.3997 3.44595C32.3997 4.60541 32.3916 9.9973 32.3592 25.2973H6.41443Z" fill="#E51050"/>
<path d="M32.3691 25.2973V15.446V5.5946H34.8825L34.8988 17.0027C34.915 23.2865 34.915 30.1216 34.8825 36L5.32984 35.9919L4.96499 35.8054C4.76229 35.7081 4.48663 35.4811 4.3488 35.3027C4.20286 35.1162 4.06503 34.8 4.00017 34.5405C3.93531 34.2243 3.91098 33.0568 3.95152 26.8054L6.46492 25.2973H32.3691Z" fill="#770829"/>
<path d="M0.969645 3.28378L3.68574 1.64595C5.17756 0.745946 6.40994 0 6.42615 0C6.43426 0 6.44237 5.7 6.43426 25.3378L5.20188 26.0757C4.52083 26.4811 3.97762 26.8541 3.99383 26.9108C4.00194 26.9595 3.98572 26.9838 3.95329 26.9595C3.91275 26.9432 3.24792 27.3081 2.46958 27.7784C1.69123 28.2405 1.0264 28.6216 0.993968 28.6216C0.953429 28.6216 0.937214 22.9216 0.969645 3.28378Z" fill="#E85984"/>
<path d="M18.531 11.1892C18.8958 9.64865 19.2283 8.34325 19.285 8.27838C19.3337 8.22163 19.3823 8.20541 19.3904 8.23784C19.3985 8.27838 19.7228 9.60001 20.1039 11.173C20.485 12.7378 20.7931 14.0432 20.7931 14.0676C20.7931 14.0919 20.1363 14.1081 19.3337 14.1081C18.531 14.1081 17.8743 14.0838 17.8743 14.0514C17.8743 14.0108 18.1743 12.7297 18.531 11.1892Z" fill="#E51050"/>
<path d="M23.7118 32.1892L23.728 30.4378L23.7361 28.6783L24.2307 28.727C24.5388 28.7594 24.782 28.8324 24.8793 28.9216C24.9604 29.0027 25.082 29.1892 25.1388 29.3351C25.2117 29.4973 25.2523 29.8946 25.2442 30.4297C25.2442 30.8838 25.2036 31.3783 25.1469 31.5324C25.0901 31.6865 24.9442 31.8892 24.8226 31.9783C24.6685 32.0919 24.4415 32.1567 23.7118 32.1892Z" fill="#770829"/>
<path d="M18.9526 29.9838C19.0742 29.4405 19.2039 28.9378 19.2282 28.8729C19.2525 28.8 19.3985 29.2216 19.5525 29.8054C19.6985 30.381 19.8201 30.8838 19.8201 30.9162C19.8201 30.9486 19.5768 30.981 18.7336 30.9729L18.9526 29.9838Z" fill="#770829"/>
<path d="M22.7472 26.921H25.0979C25.509 26.921 25.8844 26.9866 26.224 27.1177C26.5637 27.2487 26.8527 27.4454 27.091 27.7076C27.3294 27.9638 27.5141 28.2885 27.6452 28.6818C27.7763 29.0691 27.8418 29.522 27.8418 30.0404C27.8418 30.5588 27.7763 31.0146 27.6452 31.4079C27.5141 31.7952 27.3294 32.1199 27.091 32.3821C26.8527 32.6383 26.5637 32.832 26.224 32.9631C25.8844 33.0942 25.509 33.1597 25.0979 33.1597H22.7472V26.921ZM25.0979 31.9531C25.5031 31.9531 25.8218 31.8399 26.0542 31.6134C26.2866 31.387 26.4028 31.0235 26.4028 30.523V29.5577C26.4028 29.0572 26.2866 28.6937 26.0542 28.4673C25.8218 28.2409 25.5031 28.1276 25.0979 28.1276H24.1058V31.9531H25.0979Z" fill="white"/>
<path d="M20.4718 33.1597L20.0249 31.676H17.9424L17.4955 33.1597H16.119L18.1747 26.921H19.8551L21.884 33.1597H20.4718ZM18.997 28.1545H18.9523L18.2641 30.523H19.6942L18.997 28.1545Z" fill="white"/>
<path d="M13.397 33.267C12.974 33.267 12.5926 33.2015 12.253 33.0704C11.9133 32.9333 11.6243 32.7337 11.386 32.4716C11.1476 32.2034 10.9629 31.8727 10.8318 31.4794C10.7007 31.0802 10.6352 30.6154 10.6352 30.0851C10.6352 29.5608 10.7007 29.096 10.8318 28.6908C10.9629 28.2797 11.1476 27.937 11.386 27.6629C11.6243 27.3829 11.9133 27.1714 12.253 27.0284C12.5926 26.8853 12.974 26.8138 13.397 26.8138C13.975 26.8138 14.4517 26.933 14.8271 27.1714C15.2025 27.4037 15.5034 27.7732 15.7298 28.2797L14.5589 28.8874C14.4755 28.6253 14.3444 28.4167 14.1657 28.2618C13.9929 28.1009 13.7367 28.0205 13.397 28.0205C12.9978 28.0205 12.676 28.1516 12.4317 28.4137C12.1934 28.67 12.0742 29.0453 12.0742 29.5399V30.541C12.0742 31.0355 12.1934 31.4139 12.4317 31.6761C12.676 31.9323 12.9978 32.0604 13.397 32.0604C13.7307 32.0604 13.9959 31.971 14.1925 31.7923C14.3951 31.6076 14.544 31.3871 14.6394 31.1309L15.7477 31.7744C15.5153 32.2511 15.2084 32.6205 14.8271 32.8827C14.4517 33.1389 13.975 33.267 13.397 33.267Z" fill="white"/>
<path d="M22.7441 19.862L21.7048 16.4374H16.8617L15.8224 19.862H12.6213L17.4021 5.46204H21.3098L26.0282 19.862H22.7441ZM19.3144 8.30903H19.2105L17.61 13.7761H20.9357L19.3144 8.30903Z" fill="white"/>
</g>
<defs>
<clipPath id="clip0_31557_14964">
<rect width="36" height="36" fill="white" transform="translate(0.333374)"/>
</clipPath>
</defs>
</svg>
