<svg width="37" height="36" viewBox="0 0 37 36" fill="none" xmlns="http://www.w3.org/2000/svg">
<path d="M10.2749 33H32.0249C32.2311 33 32.3999 32.8312 32.3999 32.625V10.5H26.0249C25.4046 10.5 24.8999 9.99525 24.8999 9.375V3H10.2749C10.0686 3 9.89987 3.16875 9.89987 3.375V32.625C9.89987 32.8312 10.0686 33 10.2749 33Z" fill="white"/>
<path d="M31.8696 9.75002L25.6499 3.53027V9.37502C25.6499 9.58127 25.8186 9.75002 26.0249 9.75002H31.8696Z" fill="white"/>
<path opacity="0.64" d="M32.8199 9.6405L25.7594 2.57925C25.548 2.36918 25.2624 2.25088 24.9644 2.25H10.2749C9.65462 2.25 9.14987 2.75475 9.14987 3.375V32.625C9.14987 33.2453 9.65462 33.75 10.2749 33.75H32.0249C32.6451 33.75 33.1499 33.2453 33.1499 32.625V10.4355C33.1499 10.1355 33.0329 9.85275 32.8199 9.6405ZM25.6499 3.53025L31.8696 9.75H26.0249C25.9255 9.7498 25.8302 9.71023 25.7599 9.63995C25.6896 9.56966 25.6501 9.4744 25.6499 9.375V3.53025ZM32.0249 33H10.2749C10.1755 32.9998 10.0802 32.9602 10.0099 32.8899C9.93964 32.8197 9.90007 32.7244 9.89987 32.625V3.375C9.89987 3.16875 10.0686 3 10.2749 3H24.8999V9.375C24.8999 9.99525 25.4046 10.5 26.0249 10.5H32.3999V32.625C32.3999 32.8312 32.2311 33 32.0249 33Z" fill="#605E5C"/>
<path d="M27.1499 23.2724H25.9649V22.1174H25.9364C25.4211 23.0077 24.6621 23.4532 23.6609 23.4532C22.9484 23.4532 22.3776 23.2597 21.9494 22.8719C21.5204 22.4842 21.3059 21.9629 21.3059 21.3082C21.3059 19.9304 22.1196 19.1264 23.7471 18.8954L25.9649 18.5849C25.9649 17.3324 25.4564 16.7069 24.4409 16.7069C23.5499 16.7069 22.7459 17.0077 22.0281 17.6092V16.3957C22.2449 16.2322 22.6161 16.0747 23.1404 15.9232C23.6654 15.7717 24.1326 15.6952 24.5421 15.6952C26.2799 15.6952 27.1499 16.6177 27.1499 18.4627V23.2724ZM25.9649 19.5307L24.1739 19.7834C23.5619 19.8704 23.1336 20.0159 22.8876 20.2207C22.6424 20.4254 22.5201 20.7569 22.5201 21.2137C22.5201 21.5849 22.6514 21.8819 22.9161 22.1062C23.1816 22.3304 23.5206 22.4422 23.9354 22.4422C24.5226 22.4422 25.0079 22.2352 25.3904 21.8204C25.7729 21.4064 25.9656 20.8889 25.9656 20.2679V19.5307H25.9649ZM30.1499 21.9532L29.0009 25.4999H28.1564L29.0009 21.9532H30.1499Z" fill="#33C481"/>
<path d="M4.64987 27.75H18.1499C18.5477 27.75 18.9292 27.592 19.2105 27.3107C19.4918 27.0294 19.6499 26.6478 19.6499 26.25V12.75C19.6499 12.3522 19.4918 11.9706 19.2105 11.6893C18.9292 11.408 18.5477 11.25 18.1499 11.25H4.64987C4.25205 11.25 3.87052 11.408 3.58921 11.6893C3.30791 11.9706 3.14987 12.3522 3.14987 12.75V26.25C3.14987 26.6478 3.30791 27.0294 3.58921 27.3107C3.87052 27.592 4.25205 27.75 4.64987 27.75Z" fill="#107C41"/>
<path d="M7.28838 24L10.1766 19.4872L7.53063 15H9.65988L11.1044 17.8688C11.2371 18.1403 11.3279 18.3435 11.3781 18.477H11.3969C11.4921 18.2595 11.5919 18.048 11.6954 17.8433L13.2404 15H15.1941L12.4791 19.4625L15.2624 24H13.1834L11.5146 20.85C11.4361 20.7159 11.3696 20.5751 11.3159 20.4293H11.2911C11.2428 20.572 11.1781 20.7086 11.0984 20.8365L9.38013 24H7.28838Z" fill="#F9F7F7"/>
</svg>
