<svg width="37" height="36" viewBox="0 0 37 36" fill="none" xmlns="http://www.w3.org/2000/svg">
<path d="M8.19553 33H29.4095C29.6255 33 29.8095 32.83 29.8095 32.628V10H24.2095C23.4375 10 22.8095 9.372 22.8095 8.6V3H8.20953C7.99353 3 7.80953 3.17 7.80953 3.372V32.642C7.80953 32.839 7.98253 33 8.19553 33Z" fill="white"/>
<path d="M29.0135 8.99994L23.8095 3.81494V8.59994C23.8095 8.81994 23.9895 8.99994 24.2095 8.99994H29.0135Z" fill="white"/>
<path opacity="0.64" fill-rule="evenodd" clip-rule="evenodd" d="M30.4225 8.993L23.8275 2.421C23.5568 2.15221 23.191 2.00095 22.8095 2H8.20953C7.43753 2 6.80953 2.615 6.80953 3.372V32.642C6.80953 33.39 7.43153 34 8.19553 34H29.4095C30.1815 34 30.8095 33.385 30.8095 32.628V9.923C30.8095 9.577 30.6695 9.237 30.4225 8.993ZM23.8095 3.815L29.0135 9H24.2095C24.1034 9 24.0017 8.95786 23.9267 8.88284C23.8517 8.80783 23.8095 8.70609 23.8095 8.6V3.815ZM29.4095 33C29.6255 33 29.8095 32.83 29.8095 32.628V10H24.2095C23.4375 10 22.8095 9.372 22.8095 8.6V3H8.20953C7.99353 3 7.80953 3.17 7.80953 3.372V32.642C7.80953 32.84 7.98253 33 8.19553 33H29.4095Z" fill="#605E5C"/>
<path d="M18.7995 22.929C19.3042 22.929 19.7883 22.7286 20.1452 22.3717C20.502 22.0148 20.7025 21.5308 20.7025 21.026C20.7025 20.5213 20.502 20.0373 20.1452 19.6804C19.7883 19.3235 19.3042 19.123 18.7995 19.123C18.2948 19.123 17.8108 19.3235 17.4539 19.6804C17.097 20.0373 16.8965 20.5213 16.8965 21.026C16.8965 21.5308 17.097 22.0148 17.4539 22.3717C17.8108 22.7286 18.2948 22.929 18.7995 22.929Z" stroke="#B4B0AD" stroke-linecap="round" stroke-linejoin="round"/>
<path d="M24.8955 19.977L23.5395 19.864C23.52 19.8624 23.5015 19.8548 23.4865 19.8423C23.4714 19.8297 23.4606 19.8129 23.4555 19.794C23.3493 19.4087 23.1954 19.0382 22.9975 18.691C22.9876 18.674 22.9832 18.6544 22.985 18.6349C22.9868 18.6153 22.9947 18.5968 23.0075 18.582L23.8875 17.542C23.9495 17.4686 23.9816 17.3746 23.9775 17.2787C23.9734 17.1827 23.9335 17.0918 23.8655 17.024L22.8395 15.998C22.7716 15.9298 22.6805 15.8896 22.5843 15.8855C22.4882 15.8815 22.394 15.9137 22.3205 15.976L21.2805 16.856C21.2658 16.8686 21.2475 16.8763 21.2281 16.8781C21.2088 16.8799 21.1894 16.8757 21.1725 16.866C20.8241 16.6672 20.4522 16.5127 20.0655 16.406C20.0479 16.4018 20.0321 16.3923 20.0203 16.3786C20.0084 16.365 20.0012 16.348 19.9995 16.33L19.8855 14.966C19.8777 14.8702 19.834 14.781 19.7632 14.7161C19.6923 14.6511 19.5996 14.6154 19.5035 14.616H18.0535C17.8535 14.616 17.6875 14.769 17.6705 14.968L17.5575 16.324C17.5557 16.3433 17.5481 16.3616 17.5356 16.3765C17.523 16.3913 17.5063 16.4019 17.4875 16.407C17.0975 16.515 16.7265 16.671 16.3815 16.867C16.366 16.8767 16.3477 16.8813 16.3294 16.88C16.3111 16.8788 16.2936 16.8718 16.2795 16.86L15.2345 15.975C15.1613 15.913 15.0674 15.881 14.9715 15.8852C14.8757 15.8895 14.785 15.9298 14.7175 15.998L13.6915 17.024C13.623 17.0919 13.5827 17.1833 13.5786 17.2797C13.5746 17.3761 13.607 17.4705 13.6695 17.544L14.5495 18.584C14.5755 18.614 14.5795 18.656 14.5595 18.691C14.3613 19.0382 14.2071 19.4087 14.1005 19.794C14.0955 19.8127 14.0849 19.8295 14.07 19.842C14.0552 19.8545 14.0369 19.8622 14.0175 19.864L12.6615 19.977C12.5656 19.9848 12.4761 20.0284 12.4109 20.0992C12.3456 20.17 12.3095 20.2627 12.3095 20.359V21.81C12.3095 22.01 12.4625 22.176 12.6605 22.192L14.0165 22.305C14.0565 22.309 14.0895 22.337 14.1005 22.375C14.2075 22.765 14.3635 23.135 14.5595 23.479C14.5692 23.4958 14.5735 23.5152 14.5717 23.5346C14.5699 23.5539 14.5622 23.5722 14.5495 23.587L13.6695 24.627C13.607 24.7005 13.5746 24.7949 13.5786 24.8913C13.5827 24.9877 13.623 25.079 13.6915 25.147L14.7175 26.172C14.8575 26.312 15.0835 26.322 15.2355 26.193L16.2755 25.313C16.2903 25.3004 16.3086 25.2926 16.3279 25.2908C16.3473 25.289 16.3667 25.2933 16.3835 25.303C16.7285 25.5 17.0995 25.656 17.4915 25.763C17.5275 25.773 17.5545 25.801 17.5575 25.839L17.6705 27.204C17.6875 27.404 17.8535 27.554 18.0525 27.554H19.5035C19.7035 27.554 19.8695 27.401 19.8855 27.202L19.9985 25.846C20.0001 25.8265 20.0077 25.8079 20.0202 25.7929C20.0328 25.7779 20.0496 25.7671 20.0685 25.762C20.4551 25.656 20.8268 25.5014 21.1745 25.302C21.1903 25.2921 21.2088 25.2876 21.2273 25.289C21.2459 25.2905 21.2635 25.2978 21.2775 25.31L22.3225 26.195C22.3958 26.2569 22.4897 26.289 22.5855 26.2847C22.6814 26.2805 22.7721 26.2402 22.8395 26.172L23.8655 25.146C23.9336 25.0779 23.9736 24.9867 23.9775 24.8906C23.9813 24.7944 23.9489 24.7003 23.8865 24.627L23.0065 23.587C22.9939 23.5722 22.9862 23.5539 22.9844 23.5346C22.9826 23.5152 22.9868 23.4958 22.9965 23.479C23.1935 23.135 23.3485 22.765 23.4565 22.375C23.4616 22.3562 23.4722 22.3395 23.487 22.3269C23.5019 22.3144 23.5202 22.3068 23.5395 22.305L24.8955 22.192C24.9915 22.1842 25.081 22.1406 25.1462 22.0698C25.2114 21.999 25.2476 21.9062 25.2475 21.81V20.36C25.2475 20.16 25.0945 19.994 24.8955 19.977Z" stroke="#B4B0AD" stroke-linecap="round" stroke-linejoin="bevel"/>
</svg>
