<svg width="37" height="36" viewBox="0 0 37 36" fill="none" xmlns="http://www.w3.org/2000/svg">
<path d="M10.5248 10.9279C10.3481 10.9279 10.3209 10.3946 10.3209 6.96396V3H26.4318L33.1616 10.1351V35H10.3209V31.036C10.3209 27.6054 10.3481 27.0721 10.5248 27.0721C10.7015 27.0721 10.7287 27.591 10.7287 34.5676H32.7538V10.4955L26.1599 10.4234L26.0919 3.43243H10.7287V7.18018C10.7287 10.409 10.7015 10.9279 10.5248 10.9279Z" fill="#797774"/>
<path d="M10.7287 10.9279V7.18012V3.43237H26.1191L26.1599 10.4234L32.7538 10.4954V34.5675H10.7287V27.072H21.8772V10.9279H10.7287Z" fill="#FAFAFA"/>
<path d="M6.64999 27.0721V19.0001V10.928H21.8772V27.0721H6.64999Z" fill="#185ABD"/>
<path d="M22.693 22.8918V22.4594V22.027H30.8504V22.8918H22.693Z" fill="#103F91"/>
<path d="M26.4997 10.0631V6.96397C26.4997 5.26307 26.5269 3.86487 26.5677 3.86487C26.6085 3.86487 27.9409 5.26307 32.4139 10.0631H26.4997Z" fill="#FAFAFA"/>
<path d="M7.87363 25.7748V19V12.2252H20.6536V14.3874H17.1187V15.3243C17.1187 16.2469 17.1187 16.2613 17.8937 16.3333L16.3709 19.6487L16.303 14.3874H14.6035L13.3799 16.9964C12.7001 18.4234 12.1155 19.6342 12.0611 19.6631C11.9931 19.6919 11.9523 18.9423 11.9523 16.2613H13.04V14.3874H8.55341V16.2613H9.64107V23.7568H12.4282L14.6035 19.2162L14.6715 23.7568L16.5069 23.6847L19.5659 16.2613H20.6536V25.7748H7.87363Z" fill="#FAFAFA"/>
<path d="M22.693 18.2793V17.8469V17.4144H30.8504V18.2793H22.693Z" fill="#2B7CD3"/>
<path d="M22.693 15.973V15.5406V15.1082H30.8504V15.973H22.693Z" fill="#41A5EE"/>
<path d="M22.693 20.5856V20.1531V19.7207H30.8504V20.5856H22.693Z" fill="#185ABD"/>
</svg>
