<svg width="37" height="36" viewBox="0 0 37 36" fill="none" xmlns="http://www.w3.org/2000/svg">
<path d="M12.236 33H33.45C33.666 33 33.85 32.83 33.85 32.628V10H28.25C27.478 10 26.85 9.372 26.85 8.6V3H12.25C12.034 3 11.85 3.17 11.85 3.372V32.642C11.85 32.839 12.023 33 12.236 33Z" fill="white"/>
<path d="M33.054 8.99994L27.85 3.81494V8.59994C27.85 8.81994 28.03 8.99994 28.25 8.99994H33.054Z" fill="white"/>
<path opacity="0.64" fill-rule="evenodd" clip-rule="evenodd" d="M34.463 8.993L27.868 2.421C27.5973 2.15221 27.2315 2.00095 26.85 2H12.25C11.478 2 10.85 2.615 10.85 3.372V32.642C10.85 33.391 11.472 34 12.236 34H33.45C34.222 34 34.85 33.385 34.85 32.628V9.923C34.85 9.577 34.71 9.237 34.463 8.993ZM27.85 3.815L33.054 9H28.25C28.1439 9 28.0422 8.95786 27.9672 8.88284C27.8921 8.80783 27.85 8.70609 27.85 8.6V3.815ZM33.45 33C33.666 33 33.85 32.83 33.85 32.628V10H28.25C27.478 10 26.85 9.372 26.85 8.6V3H12.25C12.034 3 11.85 3.17 11.85 3.372V32.642C11.85 32.84 12.023 33 12.236 33H33.45Z" fill="#605E5C"/>
<path d="M30.35 24H20.85V25H30.35C30.4826 25 30.6098 24.9473 30.7036 24.8536C30.7973 24.7598 30.85 24.6326 30.85 24.5C30.85 24.3674 30.7973 24.2402 30.7036 24.1464C30.6098 24.0527 30.4826 24 30.35 24Z" fill="#103F91"/>
<path d="M30.35 21H20.85V22H30.35C30.4826 22 30.6098 21.9473 30.7036 21.8536C30.7973 21.7598 30.85 21.6326 30.85 21.5C30.85 21.3674 30.7973 21.2402 30.7036 21.1464C30.6098 21.0527 30.4826 21 30.35 21Z" fill="#185ABD"/>
<path d="M30.35 18H20.85V19H30.35C30.4826 19 30.6098 18.9473 30.7036 18.8536C30.7973 18.7598 30.85 18.6326 30.85 18.5C30.85 18.3674 30.7973 18.2402 30.7036 18.1464C30.6098 18.0527 30.4826 18 30.35 18Z" fill="#2B7CD3"/>
<path d="M30.35 15H20.85V16H30.35C30.4826 16 30.6098 15.9473 30.7036 15.8536C30.7973 15.7598 30.85 15.6326 30.85 15.5C30.85 15.3674 30.7973 15.2402 30.7036 15.1464C30.6098 15.0527 30.4826 15 30.35 15Z" fill="#41A5EE"/>
<path d="M4.35001 28H17.35C17.7478 28 18.1294 27.842 18.4107 27.5607C18.692 27.2794 18.85 26.8978 18.85 26.5V13.5C18.85 13.1022 18.692 12.7206 18.4107 12.4393C18.1294 12.158 17.7478 12 17.35 12H4.35001C3.95218 12 3.57065 12.158 3.28935 12.4393C3.00804 12.7206 2.85001 13.1022 2.85001 13.5V26.5C2.85001 26.8978 3.00804 27.2794 3.28935 27.5607C3.57065 27.842 3.95218 28 4.35001 28Z" fill="#185ABD"/>
<path d="M8.707 22.55H8.734C8.744 22.416 10.092 16 10.092 16H11.65C11.65 16 13.028 22.118 13.07 22.538H13.09C13.108 22.248 14.224 16 14.224 16H15.65L13.895 24H12.229C12.229 24 10.845 17.68 10.834 17.568H10.814C10.8 17.698 9.514 24 9.514 24H7.818L6.05 16H7.502C7.502 16 8.702 22.408 8.709 22.55H8.707Z" fill="#F9F7F7"/>
</svg>
