<svg width="37" height="36" viewBox="0 0 37 36" fill="none" xmlns="http://www.w3.org/2000/svg">
<g clip-path="url(#clip0_28306_8698)">
<path d="M11.6185 33H31.8682C32.0744 33 32.25 32.83 32.25 32.628V10H26.9045C26.1676 10 25.5682 9.372 25.5682 8.6V3H11.6318C11.4256 3 11.25 3.17 11.25 3.372V32.642C11.25 32.839 11.4151 33 11.6185 33Z" fill="white"/>
<path d="M31.25 9L25.25 3V8.53713C25.25 8.79171 25.4575 9 25.7112 9H31.25Z" fill="white"/>
<path opacity="0.64" fill-rule="evenodd" clip-rule="evenodd" d="M31.8953 8.993L25.8498 2.421C25.6017 2.15221 25.2664 2.00095 24.9167 2H11.5333C10.8257 2 10.25 2.615 10.25 3.372V32.642C10.25 33.391 10.8202 34 11.5205 34H30.9667C31.6743 34 32.25 33.385 32.25 32.628V9.923C32.25 9.577 32.1217 9.237 31.8953 8.993ZM25.8333 3.815L30.6037 9H26.2C26.1028 9 26.0095 8.95786 25.9407 8.88284C25.872 8.80783 25.8333 8.70609 25.8333 8.6V3.815ZM30.9667 33C31.1647 33 31.3333 32.83 31.3333 32.628V10H26.2C25.4923 10 24.9167 9.372 24.9167 8.6V3H11.5333C11.3353 3 11.1667 3.17 11.1667 3.372V32.642C11.1667 32.84 11.3252 33 11.5205 33H30.9667Z" fill="#605E5C"/>
<path d="M3.75 28H16.75C17.1478 28 17.5294 27.842 17.8107 27.5607C18.092 27.2794 18.25 26.8978 18.25 26.5V13.5C18.25 13.1022 18.092 12.7206 17.8107 12.4393C17.5294 12.158 17.1478 12 16.75 12H3.75C3.35218 12 2.97064 12.158 2.68934 12.4393C2.40804 12.7206 2.25 13.1022 2.25 13.5V26.5C2.25 26.8978 2.40804 27.2794 2.68934 27.5607C2.97064 27.842 3.35218 28 3.75 28Z" fill="#185ABD"/>
<path d="M8.10701 22.55H8.13401C8.14401 22.416 9.49201 16 9.49201 16H11.05C11.05 16 12.428 22.118 12.47 22.538H12.49C12.508 22.248 13.624 16 13.624 16H15.05L13.295 24H11.629C11.629 24 10.245 17.68 10.234 17.568H10.214C10.2 17.698 8.91401 24 8.91401 24H7.21801L5.45001 16H6.90201C6.90201 16 8.10201 22.408 8.10901 22.55H8.10701Z" fill="#F9F7F7"/>
<path d="M22.1077 21.9781C22.1077 20.6095 23.2172 19.5 24.5858 19.5H32.3996V32.0292C32.3996 33.3978 31.2902 34.5073 29.9215 34.5073H27.5454C27.3839 34.5073 27.2229 34.4915 27.0645 34.4602L22.1077 33.4797V21.9781Z" fill="url(#paint0_linear_28306_8698)" stroke="#185ABD"/>
<path d="M22.4763 35.0073C20.6945 35.0073 19.25 33.7296 19.25 32.1533C19.25 31.984 19.2667 31.8182 19.2986 31.657H29.177C29.177 31.657 29.177 32.6497 29.177 33.6424C29.177 34.6351 30.2318 35.0073 30.2318 35.0073H22.4763Z" fill="#185ABD"/>
<path d="M27.5405 27.5218H26.8556L26.5552 21.3577H27.8409L27.5405 27.5218ZM26.447 29.2881C26.447 28.9917 26.5191 28.7835 26.6633 28.6633C26.8075 28.5431 26.9837 28.4831 27.192 28.4831C27.3923 28.4831 27.5645 28.5431 27.7087 28.6633C27.8609 28.7835 27.937 28.9917 27.937 29.2881C27.937 29.5765 27.8609 29.7848 27.7087 29.9129C27.5645 30.0411 27.3923 30.1052 27.192 30.1052C26.9837 30.1052 26.8075 30.0411 26.6633 29.9129C26.5191 29.7848 26.447 29.5765 26.447 29.2881Z" fill="#525965"/>
<path fill-rule="evenodd" clip-rule="evenodd" d="M32.25 22.3504L36.1832 22.3504C36.2151 22.1892 36.2318 22.0233 36.2318 21.854C36.2318 20.2778 34.7874 19 33.0055 19L32.25 19V22.3504Z" fill="#185ABD"/>
</g>
<defs>
<linearGradient id="paint0_linear_28306_8698" x1="27.2537" y1="19" x2="27.2537" y2="35.0073" gradientUnits="userSpaceOnUse">
<stop stop-color="white"/>
<stop offset="1" stop-color="#E2E2E2"/>
</linearGradient>
<clipPath id="clip0_28306_8698">
<rect width="36" height="36" fill="white" transform="translate(0.25)"/>
</clipPath>
</defs>
</svg>
