<svg width="37" height="36" viewBox="0 0 37 36" fill="none" xmlns="http://www.w3.org/2000/svg">
<path d="M12.336 33H33.55C33.766 33 33.95 32.83 33.95 32.628V10H28.35C27.578 10 26.95 9.372 26.95 8.6V3H12.35C12.134 3 11.95 3.17 11.95 3.372V32.642C11.95 32.839 12.123 33 12.336 33Z" fill="white"/>
<path d="M33.154 8.99994L27.95 3.81494V8.59994C27.95 8.81994 28.13 8.99994 28.35 8.99994H33.154Z" fill="white"/>
<path opacity="0.64" fill-rule="evenodd" clip-rule="evenodd" d="M34.563 8.993L27.968 2.421C27.6972 2.15221 27.3315 2.00095 26.95 2H12.35C11.578 2 10.95 2.615 10.95 3.372V32.642C10.95 33.391 11.572 34 12.336 34H33.55C34.322 34 34.95 33.385 34.95 32.628V9.923C34.95 9.577 34.81 9.237 34.563 8.993ZM27.95 3.815L33.154 9H28.35C28.2439 9 28.1422 8.95786 28.0671 8.88284C27.9921 8.80783 27.95 8.70609 27.95 8.6V3.815ZM33.55 33C33.766 33 33.95 32.83 33.95 32.628V10H28.35C27.578 10 26.95 9.372 26.95 8.6V3H12.35C12.134 3 11.95 3.17 11.95 3.372V32.642C11.95 32.84 12.123 33 12.336 33H33.55Z" fill="#605E5C"/>
<path d="M30.45 24H20.95V25H30.45C30.5826 25 30.7098 24.9473 30.8035 24.8536C30.8973 24.7598 30.95 24.6326 30.95 24.5C30.95 24.3674 30.8973 24.2402 30.8035 24.1464C30.7098 24.0527 30.5826 24 30.45 24Z" fill="#103F91"/>
<path d="M30.45 21H20.95V22H30.45C30.5826 22 30.7098 21.9473 30.8035 21.8536C30.8973 21.7598 30.95 21.6326 30.95 21.5C30.95 21.3674 30.8973 21.2402 30.8035 21.1464C30.7098 21.0527 30.5826 21 30.45 21Z" fill="#185ABD"/>
<path d="M30.45 18H20.95V19H30.45C30.5826 19 30.7098 18.9473 30.8035 18.8536C30.8973 18.7598 30.95 18.6326 30.95 18.5C30.95 18.3674 30.8973 18.2402 30.8035 18.1464C30.7098 18.0527 30.5826 18 30.45 18Z" fill="#2B7CD3"/>
<path d="M30.45 15H20.95V16H30.45C30.5826 16 30.7098 15.9473 30.8035 15.8536C30.8973 15.7598 30.95 15.6326 30.95 15.5C30.95 15.3674 30.8973 15.2402 30.8035 15.1464C30.7098 15.0527 30.5826 15 30.45 15Z" fill="#41A5EE"/>
<path d="M4.44998 28H17.45C17.8478 28 18.2293 27.842 18.5106 27.5607C18.7919 27.2794 18.95 26.8978 18.95 26.5V13.5C18.95 13.1022 18.7919 12.7206 18.5106 12.4393C18.2293 12.158 17.8478 12 17.45 12H4.44998C4.05216 12 3.67063 12.158 3.38932 12.4393C3.10802 12.7206 2.94998 13.1022 2.94998 13.5V26.5C2.94998 26.8978 3.10802 27.2794 3.38932 27.5607C3.67063 27.842 4.05216 28 4.44998 28Z" fill="#185ABD"/>
<path d="M8.80699 22.55H8.83399C8.84399 22.416 10.192 16 10.192 16H11.75C11.75 16 13.128 22.118 13.17 22.538H13.19C13.208 22.248 14.324 16 14.324 16H15.75L13.995 24H12.329C12.329 24 10.945 17.68 10.934 17.568H10.914C10.9 17.698 9.61399 24 9.61399 24H7.91799L6.14999 16H7.60199C7.60199 16 8.80199 22.408 8.80899 22.55H8.80699Z" fill="#F9F7F7"/>
</svg>
