<svg width="37" height="36" viewBox="0 0 37 36" fill="none" xmlns="http://www.w3.org/2000/svg">
<path d="M31.6499 30.5C31.6499 31.327 30.9769 32 30.1499 32H13.6499V32.607C13.6499 32.824 13.8259 33 14.0429 33H33.2569C33.3612 33 33.4611 32.9586 33.5348 32.8849C33.6085 32.8112 33.6499 32.7112 33.6499 32.607V5.5H34.1499V4.928L31.1499 3.25V6.5H31.6499V30.5Z" fill="white"/>
<path d="M11.1499 31H30.1499C30.2826 31 30.4097 30.9473 30.5035 30.8536C30.5973 30.7598 30.6499 30.6326 30.6499 30.5V6.5H10.6499V30.5C10.6499 30.6326 10.7026 30.7598 10.7964 30.8536C10.8902 30.9473 11.0173 31 11.1499 31Z" fill="white"/>
<path opacity="0.64" d="M33.6499 5.5V32.607C33.6499 32.7112 33.6085 32.8112 33.5348 32.8849C33.4611 32.9586 33.3612 33 33.2569 33H14.0429C13.9387 33 13.8388 32.9586 13.7651 32.8849C13.6914 32.8112 13.6499 32.7112 13.6499 32.607V32H30.1499C30.9769 32 31.6499 31.327 31.6499 30.5V6.5H30.6499V30.5C30.6499 30.6326 30.5973 30.7598 30.5035 30.8536C30.4097 30.9473 30.2826 31 30.1499 31H11.1499C11.0173 31 10.8902 30.9473 10.7964 30.8536C10.7026 30.7598 10.6499 30.6326 10.6499 30.5V6.5H9.64995V30.5C9.64995 31.327 10.3229 32 11.1499 32H12.6499V32.607C12.6499 33.375 13.2749 34 14.0429 34H33.2569C34.0249 34 34.6499 33.375 34.6499 32.607V5.5H33.6499Z" fill="#605E5C"/>
<path d="M31.6499 2.01C31.6329 2.009 31.6179 2 31.6019 2H10.5419C10.0499 2 9.64995 2.4 9.64995 2.893V6L10.1499 6.5H31.1499L31.6499 6V5L32.1499 4.5V3L31.6499 2.01Z" fill="#41A5EE"/>
<path fill-rule="evenodd" clip-rule="evenodd" d="M34.6499 6.46401L32.7969 4.94201C32.6944 4.85748 32.57 4.80382 32.4382 4.78728C32.3064 4.77074 32.1726 4.79201 32.0524 4.8486C31.9322 4.90519 31.8305 4.99478 31.7593 5.10692C31.688 5.21907 31.6501 5.34915 31.6499 5.48201V2.01001C31.8688 2.01857 32.0767 2.10759 32.2339 2.26001L34.3879 4.41801C34.5553 4.58499 34.6496 4.81159 34.6499 5.04801V6.46401ZM31.6499 6.00001H9.64995V7.00001H31.6499V6.00001Z" fill="#2B7CD3"/>
<path d="M27.1499 24H20.6499V25H27.1499C27.2826 25 27.4097 24.9473 27.5035 24.8536C27.5973 24.7598 27.6499 24.6326 27.6499 24.5C27.6499 24.3674 27.5973 24.2402 27.5035 24.1464C27.4097 24.0527 27.2826 24 27.1499 24Z" fill="#103F91"/>
<path d="M27.1499 21H20.6499V22H27.1499C27.2826 22 27.4097 21.9473 27.5035 21.8536C27.5973 21.7598 27.6499 21.6326 27.6499 21.5C27.6499 21.3674 27.5973 21.2402 27.5035 21.1464C27.4097 21.0527 27.2826 21 27.1499 21Z" fill="#185ABD"/>
<path d="M27.1499 18H20.6499V19H27.1499C27.2826 19 27.4097 18.9473 27.5035 18.8536C27.5973 18.7598 27.6499 18.6326 27.6499 18.5C27.6499 18.3674 27.5973 18.2402 27.5035 18.1464C27.4097 18.0527 27.2826 18 27.1499 18Z" fill="#2B7CD3"/>
<path d="M27.1499 15H20.6499V16H27.1499C27.2826 16 27.4097 15.9473 27.5035 15.8536C27.5973 15.7598 27.6499 15.6326 27.6499 15.5C27.6499 15.3674 27.5973 15.2402 27.5035 15.1464C27.4097 15.0527 27.2826 15 27.1499 15Z" fill="#41A5EE"/>
<path d="M4.14995 28H17.1499C17.5478 28 17.9293 27.842 18.2106 27.5607C18.4919 27.2794 18.6499 26.8978 18.6499 26.5V13.5C18.6499 13.1022 18.4919 12.7206 18.2106 12.4393C17.9293 12.158 17.5478 12 17.1499 12H4.14995C3.75212 12 3.37059 12.158 3.08929 12.4393C2.80798 12.7206 2.64995 13.1022 2.64995 13.5V26.5C2.64995 26.8978 2.80798 27.2794 3.08929 27.5607C3.37059 27.842 3.75212 28 4.14995 28Z" fill="#185ABD"/>
<path d="M8.50695 22.55H8.53395C8.54395 22.416 9.89194 16 9.89194 16H11.4499C11.4499 16 12.8279 22.118 12.8699 22.538H12.8899C12.9079 22.248 14.0239 16 14.0239 16H15.4499L13.6949 24H12.0289C12.0289 24 10.6449 17.68 10.6339 17.568H10.6139C10.5999 17.698 9.31394 24 9.31394 24H7.61795L5.84995 16H7.30195C7.30195 16 8.50195 22.408 8.50895 22.55H8.50695Z" fill="#F9F7F7"/>
</svg>
