<svg width="37" height="36" viewBox="0 0 37 36" fill="none" xmlns="http://www.w3.org/2000/svg">
<path d="M11.536 33H32.75C32.966 33 33.15 32.83 33.15 32.628V10H27.55C26.778 10 26.15 9.372 26.15 8.6V3H11.55C11.334 3 11.15 3.17 11.15 3.372V32.642C11.15 32.839 11.323 33 11.536 33Z" fill="white"/>
<path d="M32.354 8.99994L27.15 3.81494V8.59994C27.15 8.81994 27.33 8.99994 27.55 8.99994H32.354Z" fill="white"/>
<path opacity="0.64" fill-rule="evenodd" clip-rule="evenodd" d="M33.763 8.993L27.168 2.421C26.8973 2.15221 26.5315 2.00095 26.15 2H11.55C10.778 2 10.15 2.615 10.15 3.372V32.642C10.15 33.391 10.772 34 11.536 34H32.75C33.522 34 34.15 33.385 34.15 32.628V9.923C34.15 9.577 34.01 9.237 33.763 8.993ZM27.15 3.815L32.354 9H27.55C27.4439 9 27.3422 8.95786 27.2672 8.88284C27.1921 8.80783 27.15 8.70609 27.15 8.6V3.815ZM32.75 33C32.966 33 33.15 32.83 33.15 32.628V10H27.55C26.778 10 26.15 9.372 26.15 8.6V3H11.55C11.334 3 11.15 3.17 11.15 3.372V32.642C11.15 32.84 11.323 33 11.536 33H32.75Z" fill="#605E5C"/>
<path d="M29.65 24H20.15V25H29.65C29.7826 25 29.9098 24.9473 30.0035 24.8536C30.0973 24.7598 30.15 24.6326 30.15 24.5C30.15 24.3674 30.0973 24.2402 30.0035 24.1464C29.9098 24.0527 29.7826 24 29.65 24Z" fill="#103F91"/>
<path d="M29.65 21H20.15V22H29.65C29.7826 22 29.9098 21.9473 30.0035 21.8536C30.0973 21.7598 30.15 21.6326 30.15 21.5C30.15 21.3674 30.0973 21.2402 30.0035 21.1464C29.9098 21.0527 29.7826 21 29.65 21Z" fill="#185ABD"/>
<path d="M29.65 18H20.15V19H29.65C29.7826 19 29.9098 18.9473 30.0035 18.8536C30.0973 18.7598 30.15 18.6326 30.15 18.5C30.15 18.3674 30.0973 18.2402 30.0035 18.1464C29.9098 18.0527 29.7826 18 29.65 18Z" fill="#2B7CD3"/>
<path d="M29.65 15H20.15V16H29.65C29.7826 16 29.9098 15.9473 30.0035 15.8536C30.0973 15.7598 30.15 15.6326 30.15 15.5C30.15 15.3674 30.0973 15.2402 30.0035 15.1464C29.9098 15.0527 29.7826 15 29.65 15Z" fill="#41A5EE"/>
<path d="M3.64999 28H16.65C17.0478 28 17.4293 27.842 17.7107 27.5607C17.992 27.2794 18.15 26.8978 18.15 26.5V13.5C18.15 13.1022 17.992 12.7206 17.7107 12.4393C17.4293 12.158 17.0478 12 16.65 12H3.64999C3.25217 12 2.87064 12.158 2.58933 12.4393C2.30803 12.7206 2.14999 13.1022 2.14999 13.5V26.5C2.14999 26.8978 2.30803 27.2794 2.58933 27.5607C2.87064 27.842 3.25217 28 3.64999 28Z" fill="#185ABD"/>
<path d="M8.00699 22.55H8.03399C8.04399 22.416 9.39199 16 9.39199 16H10.95C10.95 16 12.328 22.118 12.37 22.538H12.39C12.408 22.248 13.524 16 13.524 16H14.95L13.195 24H11.529C11.529 24 10.145 17.68 10.134 17.568H10.114C10.1 17.698 8.81399 24 8.81399 24H7.11799L5.34999 16H6.80199C6.80199 16 8.00199 22.408 8.00899 22.55H8.00699Z" fill="#F9F7F7"/>
</svg>
