<svg width="37" height="36" viewBox="0 0 37 36" fill="none" xmlns="http://www.w3.org/2000/svg">
<path d="M31.35 30.5C31.35 31.327 30.677 32 29.85 32H13.35V32.607C13.35 32.824 13.526 33 13.743 33H32.957C33.0612 33 33.1611 32.9586 33.2348 32.8849C33.3085 32.8112 33.35 32.7112 33.35 32.607V5.5H33.85V4.928L30.85 3.25V6.5H31.35V30.5Z" fill="white"/>
<path d="M10.85 31H29.85C29.9826 31 30.1097 30.9473 30.2035 30.8536C30.2973 30.7598 30.35 30.6326 30.35 30.5V6.5H10.35V30.5C10.35 30.6326 10.4026 30.7598 10.4964 30.8536C10.5902 30.9473 10.7173 31 10.85 31Z" fill="white"/>
<path opacity="0.64" d="M33.35 5.5V32.607C33.35 32.7112 33.3085 32.8112 33.2348 32.8849C33.1611 32.9586 33.0612 33 32.957 33H13.743C13.6387 33 13.5388 32.9586 13.4651 32.8849C13.3914 32.8112 13.35 32.7112 13.35 32.607V32H29.85C30.677 32 31.35 31.327 31.35 30.5V6.5H30.35V30.5C30.35 30.6326 30.2973 30.7598 30.2035 30.8536C30.1097 30.9473 29.9826 31 29.85 31H10.85C10.7173 31 10.5902 30.9473 10.4964 30.8536C10.4026 30.7598 10.35 30.6326 10.35 30.5V6.5H9.34995V30.5C9.34995 31.327 10.023 32 10.85 32H12.35V32.607C12.35 33.375 12.975 34 13.743 34H32.957C33.725 34 34.35 33.375 34.35 32.607V5.5H33.35Z" fill="#605E5C"/>
<path d="M31.35 2.01C31.333 2.009 31.318 2 31.302 2H10.242C9.74995 2 9.34995 2.4 9.34995 2.893V6L9.84995 6.5H30.85L31.35 6V5L31.85 4.5V3L31.35 2.01Z" fill="#41A5EE"/>
<path fill-rule="evenodd" clip-rule="evenodd" d="M34.35 6.46401L32.497 4.94201C32.3945 4.85748 32.27 4.80382 32.1382 4.78728C32.0064 4.77074 31.8726 4.79201 31.7524 4.8486C31.6322 4.90519 31.5305 4.99478 31.4593 5.10692C31.388 5.21907 31.3501 5.34915 31.35 5.48201V2.01001C31.5688 2.01857 31.7767 2.10759 31.934 2.26001L34.088 4.41801C34.2553 4.58499 34.3496 4.81159 34.35 5.04801V6.46401ZM31.35 6.00001H9.34995V7.00001H31.35V6.00001Z" fill="#2B7CD3"/>
<path d="M26.85 24H20.35V25H26.85C26.9826 25 27.1097 24.9473 27.2035 24.8536C27.2973 24.7598 27.35 24.6326 27.35 24.5C27.35 24.3674 27.2973 24.2402 27.2035 24.1464C27.1097 24.0527 26.9826 24 26.85 24Z" fill="#103F91"/>
<path d="M26.85 21H20.35V22H26.85C26.9826 22 27.1097 21.9473 27.2035 21.8536C27.2973 21.7598 27.35 21.6326 27.35 21.5C27.35 21.3674 27.2973 21.2402 27.2035 21.1464C27.1097 21.0527 26.9826 21 26.85 21Z" fill="#185ABD"/>
<path d="M26.85 18H20.35V19H26.85C26.9826 19 27.1097 18.9473 27.2035 18.8536C27.2973 18.7598 27.35 18.6326 27.35 18.5C27.35 18.3674 27.2973 18.2402 27.2035 18.1464C27.1097 18.0527 26.9826 18 26.85 18Z" fill="#2B7CD3"/>
<path d="M26.85 15H20.35V16H26.85C26.9826 16 27.1097 15.9473 27.2035 15.8536C27.2973 15.7598 27.35 15.6326 27.35 15.5C27.35 15.3674 27.2973 15.2402 27.2035 15.1464C27.1097 15.0527 26.9826 15 26.85 15Z" fill="#41A5EE"/>
<path d="M3.84995 28H16.85C17.2478 28 17.6293 27.842 17.9106 27.5607C18.1919 27.2794 18.35 26.8978 18.35 26.5V13.5C18.35 13.1022 18.1919 12.7206 17.9106 12.4393C17.6293 12.158 17.2478 12 16.85 12H3.84995C3.45213 12 3.0706 12.158 2.78929 12.4393C2.50799 12.7206 2.34995 13.1022 2.34995 13.5V26.5C2.34995 26.8978 2.50799 27.2794 2.78929 27.5607C3.0706 27.842 3.45213 28 3.84995 28Z" fill="#185ABD"/>
<path d="M8.20695 22.55H8.23395C8.24395 22.416 9.59195 16 9.59195 16H11.15C11.15 16 12.528 22.118 12.57 22.538H12.5899C12.6079 22.248 13.7239 16 13.7239 16H15.15L13.3949 24H11.7289C11.7289 24 10.345 17.68 10.334 17.568H10.3139C10.2999 17.698 9.01395 24 9.01395 24H7.31795L5.54995 16H7.00195C7.00195 16 8.20195 22.408 8.20895 22.55H8.20695Z" fill="#F9F7F7"/>
</svg>
