<svg width="37" height="36" viewBox="0 0 37 36" fill="none" xmlns="http://www.w3.org/2000/svg">
<path d="M6.79529 25.2973V12.6486V0H19.0785C29.9996 0 31.3942 0.0162162 31.6698 0.12973C31.832 0.194595 32.0752 0.348649 32.1968 0.47027C32.3266 0.591892 32.513 0.835135 32.6022 1.01351C32.7725 1.32162 32.7806 1.44324 32.7806 3.44595C32.7806 4.60541 32.7725 9.9973 32.7401 25.2973H6.79529Z" fill="#E51050"/>
<path d="M32.75 25.2973V15.446V5.5946H35.2634L35.2796 17.0027C35.2958 23.2865 35.2958 30.1216 35.2634 36L5.7107 35.9919L5.34585 35.8054C5.14315 35.7081 4.86749 35.4811 4.72966 35.3027C4.58372 35.1162 4.44589 34.8 4.38103 34.5405C4.31616 34.2243 4.29184 33.0568 4.33238 26.8054L6.84578 25.2973H32.75Z" fill="#770829"/>
<path d="M1.3505 3.28378L4.0666 1.64595C5.55842 0.745946 6.7908 0 6.80701 0C6.81512 0 6.82323 5.7 6.81512 25.3378L5.58274 26.0757C4.90169 26.4811 4.35848 26.8541 4.37469 26.9108C4.3828 26.9595 4.36658 26.9838 4.33415 26.9595C4.29361 26.9432 3.62878 27.3081 2.85044 27.7784C2.07209 28.2405 1.40726 28.6216 1.37483 28.6216C1.33429 28.6216 1.31807 22.9216 1.3505 3.28378Z" fill="#E85984"/>
<path d="M18.9119 11.1892C19.2767 9.64865 19.6091 8.34325 19.6659 8.27838C19.7145 8.22163 19.7632 8.20541 19.7713 8.23784C19.7794 8.27838 20.1037 9.60001 20.4848 11.173C20.8658 12.7378 21.1739 14.0432 21.1739 14.0676C21.1739 14.0919 20.5172 14.1081 19.7145 14.1081C18.9119 14.1081 18.2551 14.0838 18.2551 14.0514C18.2551 14.0108 18.5551 12.7297 18.9119 11.1892Z" fill="#E51050"/>
<path d="M24.0927 32.1892L24.1089 30.4378L24.117 28.6783L24.6115 28.727C24.9196 28.7594 25.1629 28.8324 25.2602 28.9216C25.3412 29.0027 25.4629 29.1892 25.5196 29.3351C25.5926 29.4973 25.6331 29.8946 25.625 30.4297C25.625 30.8838 25.5845 31.3783 25.5277 31.5324C25.471 31.6865 25.325 31.8892 25.2034 31.9783C25.0494 32.0919 24.8224 32.1567 24.0927 32.1892Z" fill="#770829"/>
<path d="M19.3334 29.9838C19.455 29.4405 19.5848 28.9378 19.6091 28.8729C19.6334 28.8 19.7793 29.2216 19.9334 29.8054C20.0793 30.381 20.2009 30.8838 20.2009 30.9162C20.2009 30.9486 19.9577 30.981 19.1145 30.9729L19.3334 29.9838Z" fill="#770829"/>
<path d="M23.1281 26.921H25.4787C25.8899 26.921 26.2653 26.9866 26.6049 27.1177C26.9445 27.2487 27.2335 27.4454 27.4719 27.7076C27.7102 27.9638 27.8949 28.2885 28.026 28.6818C28.1571 29.0691 28.2227 29.522 28.2227 30.0404C28.2227 30.5588 28.1571 31.0146 28.026 31.4079C27.8949 31.7952 27.7102 32.1199 27.4719 32.3821C27.2335 32.6383 26.9445 32.832 26.6049 32.9631C26.2653 33.0942 25.8899 33.1597 25.4787 33.1597H23.1281V26.921ZM25.4787 31.9531C25.8839 31.9531 26.2027 31.8399 26.4351 31.6134C26.6675 31.387 26.7837 31.0235 26.7837 30.523V29.5577C26.7837 29.0572 26.6675 28.6937 26.4351 28.4673C26.2027 28.2409 25.8839 28.1276 25.4787 28.1276H24.4866V31.9531H25.4787Z" fill="white"/>
<path d="M20.8527 33.1597L20.4058 31.676H18.3232L17.8763 33.1597H16.4999L18.5556 26.921H20.2359L22.2648 33.1597H20.8527ZM19.3779 28.1545H19.3332L18.645 30.523H20.0751L19.3779 28.1545Z" fill="white"/>
<path d="M13.7779 33.267C13.3548 33.267 12.9735 33.2015 12.6338 33.0704C12.2942 32.9333 12.0052 32.7337 11.7668 32.4716C11.5285 32.2034 11.3438 31.8727 11.2127 31.4794C11.0816 31.0802 11.0161 30.6154 11.0161 30.0851C11.0161 29.5608 11.0816 29.096 11.2127 28.6908C11.3438 28.2797 11.5285 27.937 11.7668 27.6629C12.0052 27.3829 12.2942 27.1714 12.6338 27.0284C12.9735 26.8853 13.3548 26.8138 13.7779 26.8138C14.3559 26.8138 14.8325 26.933 15.2079 27.1714C15.5833 27.4037 15.8842 27.7732 16.1107 28.2797L14.9398 28.8874C14.8564 28.6253 14.7253 28.4167 14.5465 28.2618C14.3737 28.1009 14.1175 28.0205 13.7779 28.0205C13.3786 28.0205 13.0569 28.1516 12.8126 28.4137C12.5742 28.67 12.4551 29.0453 12.4551 29.5399V30.541C12.4551 31.0355 12.5742 31.4139 12.8126 31.6761C13.0569 31.9323 13.3786 32.0604 13.7779 32.0604C14.1116 32.0604 14.3767 31.971 14.5733 31.7923C14.7759 31.6076 14.9249 31.3871 15.0202 31.1309L16.1286 31.7744C15.8962 32.2511 15.5893 32.6205 15.2079 32.8827C14.8325 33.1389 14.3559 33.267 13.7779 33.267Z" fill="white"/>
<path d="M23.1249 19.862L22.0856 16.4374H17.2425L16.2032 19.862H13.0022L17.783 5.46204H21.6907L26.4091 19.862H23.1249ZM19.6953 8.30903H19.5913L17.9908 13.7761H21.3166L19.6953 8.30903Z" fill="white"/>
</svg>
