<svg width="37" height="36" viewBox="0 0 37 36" fill="none" xmlns="http://www.w3.org/2000/svg">
<path d="M7.48125 33H28.6952C28.9112 33 29.0952 32.83 29.0952 32.628V10H23.4952C22.7232 10 22.0952 9.372 22.0952 8.6V3H7.49525C7.27925 3 7.09525 3.17 7.09525 3.372V32.642C7.09525 32.839 7.26825 33 7.48125 33Z" fill="white"/>
<path d="M28.2992 8.99994L23.0952 3.81494V8.59994C23.0952 8.81994 23.2752 8.99994 23.4952 8.99994H28.2992Z" fill="white"/>
<path opacity="0.64" fill-rule="evenodd" clip-rule="evenodd" d="M29.7082 8.993L23.1132 2.421C22.8425 2.15221 22.4767 2.00095 22.0952 2H7.49525C6.72325 2 6.09525 2.615 6.09525 3.372V32.642C6.09525 33.39 6.71725 34 7.48125 34H28.6952C29.4672 34 30.0952 33.385 30.0952 32.628V9.923C30.0952 9.577 29.9552 9.237 29.7082 8.993ZM23.0952 3.815L28.2992 9H23.4952C23.3892 9 23.2874 8.95786 23.2124 8.88284C23.1374 8.80783 23.0952 8.70609 23.0952 8.6V3.815ZM28.6952 33C28.9112 33 29.0952 32.83 29.0952 32.628V10H23.4952C22.7232 10 22.0952 9.372 22.0952 8.6V3H7.49525C7.27925 3 7.09525 3.17 7.09525 3.372V32.642C7.09525 32.84 7.26825 33 7.48125 33H28.6952Z" fill="#605E5C"/>
</svg>
