<svg width="37" height="36" viewBox="0 0 37 36" fill="none" xmlns="http://www.w3.org/2000/svg">
<path d="M4.78574 28.101H31.7857C31.9183 28.101 32.0455 28.0483 32.1393 27.9545C32.2331 27.8607 32.2857 27.7336 32.2857 27.601V8.77095L18.6707 22.106C18.5775 22.198 18.4518 22.2497 18.3207 22.2497C18.1897 22.2497 18.0639 22.198 17.9707 22.106L4.28574 8.69995V27.601C4.28574 27.7336 4.33841 27.8607 4.43218 27.9545C4.52595 28.0483 4.65313 28.101 4.78574 28.101Z" fill="white"/>
<path d="M31.7077 7.93604H4.93375L18.3207 21.049L31.7077 7.93604Z" fill="white"/>
<path opacity="0.64" fill-rule="evenodd" clip-rule="evenodd" d="M31.7857 7H4.78574C4.38791 7 4.00638 7.15804 3.72508 7.43934C3.44377 7.72064 3.28574 8.10218 3.28574 8.5V27.5C3.28574 27.8978 3.44377 28.2794 3.72508 28.5607C4.00638 28.842 4.38791 29 4.78574 29H31.7857C32.1836 29 32.5651 28.842 32.8464 28.5607C33.1277 28.2794 33.2857 27.8978 33.2857 27.5V8.5C33.2857 8.10218 33.1277 7.72064 32.8464 7.43934C32.5651 7.15804 32.1836 7 31.7857 7ZM31.7077 8L18.3207 21.114L4.93374 8H31.7077ZM4.78574 28H31.7857C31.9183 28 32.0455 27.9473 32.1393 27.8536C32.2331 27.7598 32.2857 27.6326 32.2857 27.5V8.668L18.6707 22.006C18.5775 22.0981 18.4518 22.1497 18.3207 22.1497C18.1897 22.1497 18.0639 22.0981 17.9707 22.006L4.28574 8.6V27.5C4.28574 27.6326 4.33841 27.7598 4.43218 27.8536C4.52595 27.9473 4.65313 28 4.78574 28Z" fill="#605E5C"/>
</svg>
