<svg width="37" height="36" viewBox="0 0 37 36" fill="none" xmlns="http://www.w3.org/2000/svg">
<path d="M8.03595 33H29.2499C29.4659 33 29.6499 32.83 29.6499 32.628V10H24.0499C23.2779 10 22.6499 9.372 22.6499 8.6V3H8.04995C7.83395 3 7.64995 3.17 7.64995 3.372V32.642C7.64995 32.839 7.82295 33 8.03595 33Z" fill="white"/>
<path d="M28.8539 8.99994L23.6499 3.81494V8.59994C23.6499 8.81994 23.8299 8.99994 24.0499 8.99994H28.8539Z" fill="white"/>
<path opacity="0.64" fill-rule="evenodd" clip-rule="evenodd" d="M30.2629 8.993L23.6679 2.421C23.3972 2.15221 23.0315 2.00095 22.6499 2H8.04995C7.27795 2 6.64995 2.615 6.64995 3.372V32.642C6.64995 33.39 7.27195 34 8.03595 34H29.2499C30.0219 34 30.6499 33.385 30.6499 32.628V9.923C30.6499 9.577 30.5099 9.237 30.2629 8.993ZM23.6499 3.815L28.8539 9H24.0499C23.9439 9 23.8421 8.95786 23.7671 8.88284C23.6921 8.80783 23.6499 8.70609 23.6499 8.6V3.815ZM29.2499 33C29.4659 33 29.6499 32.83 29.6499 32.628V10H24.0499C23.2779 10 22.6499 9.372 22.6499 8.6V3H8.04995C7.83395 3 7.64995 3.17 7.64995 3.372V32.642C7.64995 32.84 7.82295 33 8.03595 33H29.2499Z" fill="#605E5C"/>
<path d="M11.213 26.2C11.343 20.988 14.993 14.5 23.15 14.5" stroke="#C8C6C4" stroke-linecap="round"/>
<path d="M12.1499 29H11.1499V30H12.1499V29ZM11.1499 29C11.0173 29 10.8902 28.9473 10.7964 28.8536C10.7026 28.7598 10.6499 28.6326 10.6499 28.5H9.64995C9.64995 28.8978 9.80798 29.2794 10.0893 29.5607C10.3706 29.842 10.7521 30 11.1499 30V29ZM10.6499 28.5V27.5H9.64995V28.5H10.6499ZM10.6499 27.5C10.6499 27.3674 10.7026 27.2402 10.7964 27.1464C10.8902 27.0527 11.0173 27 11.1499 27V26C10.7521 26 10.3706 26.158 10.0893 26.4393C9.80798 26.7206 9.64995 27.1022 9.64995 27.5H10.6499ZM11.1499 27H12.1499V26H11.1499V27ZM12.1499 27C12.2826 27 12.4097 27.0527 12.5035 27.1464C12.5973 27.2402 12.6499 27.3674 12.6499 27.5H13.6499C13.6499 27.1022 13.4919 26.7206 13.2106 26.4393C12.9293 26.158 12.5478 26 12.1499 26V27ZM12.6499 27.5V28.5H13.6499V27.5H12.6499ZM12.6499 28.5C12.6499 28.6326 12.5973 28.7598 12.5035 28.8536C12.4097 28.9473 12.2826 29 12.1499 29V30C12.5478 30 12.9293 29.842 13.2106 29.5607C13.4919 29.2794 13.6499 28.8978 13.6499 28.5H12.6499ZM25.1499 16H24.1499V17H25.1499V16ZM24.1499 16C24.0173 16 23.8902 15.9473 23.7964 15.8536C23.7026 15.7598 23.6499 15.6326 23.6499 15.5H22.6499C22.6499 15.8978 22.808 16.2794 23.0893 16.5607C23.3706 16.842 23.7521 17 24.1499 17V16ZM23.6499 15.5V14.5H22.6499V15.5H23.6499ZM23.6499 14.5C23.6499 14.3674 23.7026 14.2402 23.7964 14.1464C23.8902 14.0527 24.0173 14 24.1499 14V13C23.7521 13 23.3706 13.158 23.0893 13.4393C22.808 13.7206 22.6499 14.1022 22.6499 14.5H23.6499ZM24.1499 14H25.1499V13H24.1499V14ZM25.1499 14C25.2826 14 25.4097 14.0527 25.5035 14.1464C25.5973 14.2402 25.6499 14.3674 25.6499 14.5H26.6499C26.6499 14.1022 26.4919 13.7206 26.2106 13.4393C25.9293 13.158 25.5478 13 25.1499 13V14ZM25.6499 14.5V15.5H26.6499V14.5H25.6499ZM25.6499 15.5C25.6499 15.6326 25.5973 15.7598 25.5035 15.8536C25.4097 15.9473 25.2826 16 25.1499 16V17C25.5478 17 25.9293 16.842 26.2106 16.5607C26.4919 16.2794 26.6499 15.8978 26.6499 15.5H25.6499ZM15.6499 20.5C16.5782 20.5 17.4684 20.1313 18.1248 19.4749C18.7812 18.8185 19.1499 17.9283 19.1499 17C19.1499 16.0717 18.7812 15.1815 18.1248 14.5251C17.4684 13.8687 16.5782 13.5 15.6499 13.5C14.7217 13.5 13.8315 13.8687 13.1751 14.5251C12.5187 15.1815 12.1499 16.0717 12.1499 17C12.1499 17.9283 12.5187 18.8185 13.1751 19.4749C13.8315 20.1313 14.7217 20.5 15.6499 20.5Z" fill="#0078D7"/>
<path fill-rule="evenodd" clip-rule="evenodd" d="M11.6499 17C11.6499 14.794 13.4439 13 15.6499 13C17.8559 13 19.6499 14.794 19.6499 17C19.6499 19.206 17.8559 21 15.6499 21C13.4439 21 11.6499 19.206 11.6499 17ZM18.6499 17C18.6499 16.2044 18.3339 15.4413 17.7713 14.8787C17.2087 14.3161 16.4456 14 15.6499 14C14.8543 14 14.0912 14.3161 13.5286 14.8787C12.966 15.4413 12.6499 16.2044 12.6499 17C12.6499 17.7956 12.966 18.5587 13.5286 19.1213C14.0912 19.6839 14.8543 20 15.6499 20C16.4456 20 17.2087 19.6839 17.7713 19.1213C18.3339 18.5587 18.6499 17.7956 18.6499 17Z" fill="white"/>
<path d="M19.977 23.0161L26.493 25.4591C26.5411 25.4773 26.5823 25.5104 26.6104 25.5536C26.6384 25.5967 26.652 25.6477 26.6491 25.6992C26.6462 25.7506 26.627 25.7997 26.5942 25.8395C26.5615 25.8792 26.5169 25.9075 26.467 25.9201L23.35 26.7001L22.57 29.8171C22.557 29.8667 22.5287 29.9109 22.4891 29.9433C22.4495 29.9758 22.4006 29.9948 22.3494 29.9977C22.2983 30.0006 22.2475 29.9872 22.2045 29.9594C22.1615 29.9316 22.1284 29.8909 22.11 29.8431L19.666 23.3271C19.6501 23.2837 19.6471 23.2368 19.6571 23.1917C19.6671 23.1466 19.6898 23.1054 19.7225 23.0728C19.7552 23.0402 19.7965 23.0177 19.8416 23.0078C19.8867 22.9979 19.9336 23.0002 19.977 23.0161Z" fill="#0078D7"/>
</svg>
