<svg width="37" height="36" viewBox="0 0 37 36" fill="none" xmlns="http://www.w3.org/2000/svg">
<path d="M8.03595 33H29.2499C29.4659 33 29.6499 32.83 29.6499 32.628V10H24.0499C23.2779 10 22.6499 9.372 22.6499 8.6V3H8.04995C7.83395 3 7.64995 3.17 7.64995 3.372V32.642C7.64995 32.839 7.82295 33 8.03595 33Z" fill="white"/>
<path d="M28.8539 8.99994L23.6499 3.81494V8.59994C23.6499 8.81994 23.8299 8.99994 24.0499 8.99994H28.8539Z" fill="white"/>
<path opacity="0.64" fill-rule="evenodd" clip-rule="evenodd" d="M30.2629 8.993L23.6679 2.421C23.3972 2.15221 23.0315 2.00095 22.6499 2H8.04995C7.27795 2 6.64995 2.615 6.64995 3.372V32.642C6.64995 33.39 7.27195 34 8.03595 34H29.2499C30.0219 34 30.6499 33.385 30.6499 32.628V9.923C30.6499 9.577 30.5099 9.237 30.2629 8.993ZM23.6499 3.815L28.8539 9H24.0499C23.9439 9 23.8421 8.95786 23.7671 8.88284C23.6921 8.80783 23.6499 8.70609 23.6499 8.6V3.815ZM29.2499 33C29.4659 33 29.6499 32.83 29.6499 32.628V10H24.0499C23.2779 10 22.6499 9.372 22.6499 8.6V3H8.04995C7.83395 3 7.64995 3.17 7.64995 3.372V32.642C7.64995 32.84 7.82295 33 8.03595 33H29.2499Z" fill="#605E5C"/>
</svg>
