<svg width="37" height="36" viewBox="0 0 37 36" fill="none" xmlns="http://www.w3.org/2000/svg">
<path d="M8.05266 33H29.2667C29.4827 33 29.6667 32.83 29.6667 32.628V10H24.0667C23.2947 10 22.6667 9.372 22.6667 8.6V3H8.06666C7.85066 3 7.66666 3.17 7.66666 3.372V32.642C7.66666 32.839 7.83966 33 8.05266 33Z" fill="white"/>
<path d="M28.8707 8.99994L23.6667 3.81494V8.59994C23.6667 8.81994 23.8467 8.99994 24.0667 8.99994H28.8707Z" fill="white"/>
<path opacity="0.64" fill-rule="evenodd" clip-rule="evenodd" d="M30.2797 8.993L23.6847 2.421C23.4139 2.15221 23.0482 2.00095 22.6667 2H8.06666C7.29466 2 6.66666 2.615 6.66666 3.372V32.642C6.66666 33.39 7.28866 34 8.05266 34H29.2667C30.0387 34 30.6667 33.385 30.6667 32.628V9.923C30.6667 9.577 30.5267 9.237 30.2797 8.993ZM23.6667 3.815L28.8707 9H24.0667C23.9606 9 23.8588 8.95786 23.7838 8.88284C23.7088 8.80783 23.6667 8.70609 23.6667 8.6V3.815ZM29.2667 33C29.4827 33 29.6667 32.83 29.6667 32.628V10H24.0667C23.2947 10 22.6667 9.372 22.6667 8.6V3H8.06666C7.85066 3 7.66666 3.17 7.66666 3.372V32.642C7.66666 32.84 7.83966 33 8.05266 33H29.2667Z" fill="#605E5C"/>
</svg>
