<svg width="37" height="36" viewBox="0 0 37 36" fill="none" xmlns="http://www.w3.org/2000/svg">
<path d="M5.35715 32H32.3571C32.6321 32 32.8571 31.775 32.8571 31.5V4.5C32.8571 4.225 32.6321 4 32.3571 4H5.35715C5.08215 4 4.85715 4.225 4.85715 4.5V31.5C4.85715 31.775 5.08215 32 5.35715 32Z" fill="white"/>
<path opacity="0.64" fill-rule="evenodd" clip-rule="evenodd" d="M5.35715 33H32.3571C33.1841 33 33.8571 32.327 33.8571 31.5V4.5C33.8571 3.673 33.1841 3 32.3571 3H5.35715C4.53015 3 3.85715 3.673 3.85715 4.5V31.5C3.85715 32.327 4.53015 33 5.35715 33ZM4.85715 4.5C4.85715 4.36739 4.90983 4.24021 5.00359 4.14645C5.09736 4.05268 5.22454 4 5.35715 4H32.3571C32.4898 4 32.6169 4.05268 32.7107 4.14645C32.8045 4.24021 32.8571 4.36739 32.8571 4.5V31.5C32.8571 31.6326 32.8045 31.7598 32.7107 31.8536C32.6169 31.9473 32.4898 32 32.3571 32H5.35715C5.22454 32 5.09736 31.9473 5.00359 31.8536C4.90983 31.7598 4.85715 31.6326 4.85715 31.5V4.5Z" fill="#605E5C"/>
<path d="M24.8571 18C24.8561 18.0946 24.8313 18.1874 24.7851 18.27C24.7401 18.3498 24.6745 18.4161 24.5951 18.462L15.7071 23.916C15.6448 23.9548 15.5754 23.9808 15.5029 23.9928C15.4305 24.0047 15.3564 24.0022 15.2849 23.9855C15.2133 23.9688 15.1458 23.9382 15.0862 23.8954C15.0265 23.8525 14.9759 23.7984 14.9371 23.736C14.8861 23.65 14.8585 23.552 14.8571 23.452V18H24.8571Z" fill="#BC1948"/>
<path d="M24.8571 18C24.8561 17.9054 24.8313 17.8125 24.7851 17.73C24.7401 17.6501 24.6745 17.5838 24.5951 17.538L15.7071 12.082C15.6227 12.0306 15.5263 12.0023 15.4275 11.9998C15.3287 11.9974 15.231 12.0208 15.1441 12.068C15.0578 12.1142 14.9855 12.183 14.935 12.267C14.8845 12.3509 14.8576 12.447 14.8571 12.545V18H24.8571Z" fill="#E8467C"/>
</svg>
