<svg width="37" height="36" viewBox="0 0 37 36" fill="none" xmlns="http://www.w3.org/2000/svg">
<path d="M8.23601 33H29.45C29.666 33 29.85 32.83 29.85 32.628V10H24.25C23.478 10 22.85 9.372 22.85 8.6V3H8.25001C8.03401 3 7.85001 3.17 7.85001 3.372V32.642C7.85001 32.839 8.02301 33 8.23601 33Z" fill="white"/>
<path d="M29.054 8.99994L23.85 3.81494V8.59994C23.85 8.81994 24.03 8.99994 24.25 8.99994H29.054Z" fill="white"/>
<path opacity="0.64" fill-rule="evenodd" clip-rule="evenodd" d="M30.463 8.993L23.868 2.421C23.5973 2.15221 23.2315 2.00095 22.85 2H8.25001C7.47801 2 6.85001 2.615 6.85001 3.372V32.642C6.85001 33.39 7.47201 34 8.23601 34H29.45C30.222 34 30.85 33.385 30.85 32.628V9.923C30.85 9.577 30.71 9.237 30.463 8.993ZM23.85 3.815L29.054 9H24.25C24.1439 9 24.0422 8.95786 23.9672 8.88284C23.8921 8.80783 23.85 8.70609 23.85 8.6V3.815ZM29.45 33C29.666 33 29.85 32.83 29.85 32.628V10H24.25C23.478 10 22.85 9.372 22.85 8.6V3H8.25001C8.03401 3 7.85001 3.17 7.85001 3.372V32.642C7.85001 32.84 8.02301 33 8.23601 33H29.45Z" fill="#605E5C"/>
<path d="M20.576 13.386L17.624 22.243" stroke="#69AFE5" stroke-linecap="round"/>
<path d="M13.215 20.066C13.3109 20.1525 13.4366 20.1985 13.5657 20.1944C13.6949 20.1903 13.8174 20.1363 13.9076 20.0439C13.9978 19.9515 14.0488 19.8277 14.0498 19.6985C14.0508 19.5694 14.0018 19.4448 13.913 19.351L13.215 20.066ZM11.35 17.548L10.998 17.193C10.9509 17.2397 10.9135 17.2954 10.8881 17.3567C10.8627 17.418 10.8498 17.4837 10.8501 17.5501C10.8504 17.6165 10.8639 17.6821 10.8898 17.7432C10.9157 17.8043 10.9535 17.8596 11.001 17.906L11.35 17.548ZM13.916 15.714C14.0103 15.6206 14.0636 15.4936 14.0643 15.361C14.0649 15.2283 14.0129 15.1008 13.9195 15.0065C13.8262 14.9122 13.6992 14.8589 13.5665 14.8582C13.4338 14.8575 13.3063 14.9096 13.212 15.003L13.916 15.714ZM23.988 19.363C23.94 19.4099 23.902 19.466 23.8762 19.5279C23.8504 19.5899 23.8373 19.6564 23.8377 19.7235C23.8381 19.7906 23.852 19.8569 23.8786 19.9185C23.9052 19.9801 23.9439 20.0357 23.9925 20.0821C24.041 20.1284 24.0984 20.1645 24.1612 20.1882C24.224 20.2119 24.2909 20.2227 24.3579 20.2199C24.425 20.2172 24.4908 20.2011 24.5514 20.1724C24.6121 20.1437 24.6664 20.1031 24.711 20.053L23.988 19.363ZM26.428 17.533L26.789 17.879C26.8777 17.786 26.9271 17.6625 26.9271 17.534C26.9271 17.4055 26.8777 17.282 26.789 17.189L26.428 17.533ZM24.712 15.013C24.6205 14.917 24.4946 14.8612 24.362 14.8581C24.2294 14.8549 24.101 14.9045 24.005 14.996C23.909 15.0875 23.8533 15.2134 23.8501 15.346C23.8469 15.4785 23.8965 15.607 23.988 15.703L24.712 15.013ZM13.913 19.351L11.699 17.19L11.001 17.906L13.215 20.066L13.913 19.351ZM11.702 17.903L13.916 15.714L13.212 15.002L10.998 17.192L11.702 17.903ZM24.711 20.053L26.79 17.878L26.066 17.187L23.988 19.362L24.711 20.053ZM26.79 17.187L24.712 15.011L23.988 15.701L26.066 17.878L26.79 17.187Z" fill="#69AFE5"/>
<path fill-rule="evenodd" clip-rule="evenodd" d="M11.35 26H26.35C26.4826 26 26.6098 25.9473 26.7036 25.8536C26.7973 25.7598 26.85 25.6326 26.85 25.5C26.85 25.3674 26.7973 25.2402 26.7036 25.1464C26.6098 25.0527 26.4826 25 26.35 25H11.35C11.2174 25 11.0902 25.0527 10.9965 25.1464C10.9027 25.2402 10.85 25.3674 10.85 25.5C10.85 25.6326 10.9027 25.7598 10.9965 25.8536C11.0902 25.9473 11.2174 26 11.35 26ZM11.35 29H26.35C26.4826 29 26.6098 28.9473 26.7036 28.8536C26.7973 28.7598 26.85 28.6326 26.85 28.5C26.85 28.3674 26.7973 28.2402 26.7036 28.1464C26.6098 28.0527 26.4826 28 26.35 28H11.35C11.2174 28 11.0902 28.0527 10.9965 28.1464C10.9027 28.2402 10.85 28.3674 10.85 28.5C10.85 28.6326 10.9027 28.7598 10.9965 28.8536C11.0902 28.9473 11.2174 29 11.35 29Z" fill="#C8C6C4"/>
</svg>
