<svg width="37" height="36" viewBox="0 0 37 36" fill="none" xmlns="http://www.w3.org/2000/svg">
<path d="M5.21423 32H32.2142C32.4892 32 32.7142 31.775 32.7142 31.5V4.5C32.7142 4.225 32.4892 4 32.2142 4H5.21423C4.93923 4 4.71423 4.225 4.71423 4.5V31.5C4.71423 31.775 4.93923 32 5.21423 32Z" fill="white"/>
<path d="M22.3342 19.683L20.2782 22.793L16.7922 17.825C16.6861 17.6673 16.5428 17.538 16.375 17.4486C16.2071 17.3592 16.0199 17.3125 15.8297 17.3125C15.6396 17.3125 15.4523 17.3592 15.2845 17.4486C15.1167 17.538 14.9734 17.6673 14.8672 17.825L9.44223 25.552C8.87223 26.364 9.43423 27.5 10.4042 27.5H27.2142C28.1702 27.5 28.7342 26.395 28.1962 25.58L24.2962 19.683C24.1917 19.5172 24.0469 19.3805 23.8753 19.2857C23.7036 19.191 23.5108 19.1413 23.3147 19.1413C23.1187 19.1413 22.9258 19.191 22.7542 19.2857C22.5826 19.3805 22.4377 19.5172 22.3332 19.683H22.3342Z" stroke="#A6CCC3"/>
<path d="M25.7142 13.5C26.3773 13.5 27.0132 13.2366 27.482 12.7678C27.9508 12.2989 28.2142 11.663 28.2142 11C28.2142 10.337 27.9508 9.70107 27.482 9.23223C27.0132 8.76339 26.3773 8.5 25.7142 8.5C25.0512 8.5 24.4153 8.76339 23.9465 9.23223C23.4776 9.70107 23.2142 10.337 23.2142 11C23.2142 11.663 23.4776 12.2989 23.9465 12.7678C24.4153 13.2366 25.0512 13.5 25.7142 13.5Z" stroke="#FF9810"/>
<path opacity="0.64" fill-rule="evenodd" clip-rule="evenodd" d="M5.21423 33H32.2142C33.0412 33 33.7142 32.327 33.7142 31.5V4.5C33.7142 3.673 33.0412 3 32.2142 3H5.21423C4.38723 3 3.71423 3.673 3.71423 4.5V31.5C3.71423 32.327 4.38723 33 5.21423 33ZM4.71423 4.5C4.71423 4.36739 4.76691 4.24021 4.86068 4.14645C4.95445 4.05268 5.08163 4 5.21423 4H32.2142C32.3468 4 32.474 4.05268 32.5678 4.14645C32.6616 4.24021 32.7142 4.36739 32.7142 4.5V31.5C32.7142 31.6326 32.6616 31.7598 32.5678 31.8536C32.474 31.9473 32.3468 32 32.2142 32H5.21423C5.08163 32 4.95445 31.9473 4.86068 31.8536C4.76691 31.7598 4.71423 31.6326 4.71423 31.5V4.5Z" fill="#605E5C"/>
</svg>
