<svg width="37" height="36" viewBox="0 0 37 36" fill="none" xmlns="http://www.w3.org/2000/svg">
<path d="M7.62412 33H28.8381C29.0541 33 29.2381 32.83 29.2381 32.628V10H23.6381C22.8661 10 22.2381 9.372 22.2381 8.6V3H7.63812C7.42212 3 7.23812 3.17 7.23812 3.372V32.642C7.23812 32.839 7.41112 33 7.62412 33Z" fill="white"/>
<path d="M28.4421 8.99994L23.2381 3.81494V8.59994C23.2381 8.81994 23.4181 8.99994 23.6381 8.99994H28.4421Z" fill="white"/>
<path opacity="0.64" fill-rule="evenodd" clip-rule="evenodd" d="M29.8511 8.993L23.2561 2.421C22.9854 2.15221 22.6196 2.00095 22.2381 2H7.63812C6.86612 2 6.23812 2.615 6.23812 3.372V32.642C6.23812 33.39 6.86012 34 7.62412 34H28.8381C29.6101 34 30.2381 33.385 30.2381 32.628V9.923C30.2381 9.577 30.0981 9.237 29.8511 8.993ZM23.2381 3.815L28.4421 9H23.6381C23.532 9 23.4303 8.95786 23.3553 8.88284C23.2803 8.80783 23.2381 8.70609 23.2381 8.6V3.815ZM28.8381 33C29.0541 33 29.2381 32.83 29.2381 32.628V10H23.6381C22.8661 10 22.2381 9.372 22.2381 8.6V3H7.63812C7.42212 3 7.23812 3.17 7.23812 3.372V32.642C7.23812 32.84 7.41112 33 7.62412 33H28.8381Z" fill="#605E5C"/>
<path d="M18.2381 22.5C19.4316 22.5 20.5762 22.0259 21.4201 21.182C22.264 20.3381 22.7381 19.1935 22.7381 18C22.7381 16.8065 22.264 15.6619 21.4201 14.818C20.5762 13.9741 19.4316 13.5 18.2381 13.5C17.0446 13.5 15.9001 13.9741 15.0561 14.818C14.2122 15.6619 13.7381 16.8065 13.7381 18C13.7381 19.1935 14.2122 20.3381 15.0561 21.182C15.9001 22.0259 17.0446 22.5 18.2381 22.5Z" stroke="#69AFE5"/>
<path d="M19.3631 18C19.3631 19.22 19.2411 20.285 18.9991 21.027C18.8781 21.399 18.7381 21.656 18.5971 21.811C18.4671 21.956 18.3521 22 18.2381 22V23C18.6901 23 19.0601 22.792 19.3401 22.481C19.6101 22.181 19.8061 21.779 19.9501 21.337C20.2381 20.45 20.3631 19.266 20.3631 18H19.3631ZM18.2381 22C18.1341 22 18.0231 21.959 17.8921 21.807C17.7521 21.643 17.6141 21.375 17.4951 20.988C17.2591 20.22 17.1451 19.128 17.1451 17.906H16.1451C16.1451 19.17 16.2611 20.376 16.5401 21.282C16.6781 21.734 16.8681 22.148 17.1331 22.457C17.4071 22.777 17.7781 23 18.2381 23V22ZM17.1451 17.906C17.1451 16.683 17.2601 15.643 17.4931 14.926C17.7401 14.167 18.0291 14 18.2381 14V13C17.3181 13 16.8101 13.793 16.5421 14.616C16.2611 15.48 16.1451 16.643 16.1451 17.906H17.1451ZM18.2381 14C18.3521 14 18.4671 14.044 18.5981 14.188C18.7381 14.344 18.8781 14.601 18.9991 14.973C19.2411 15.715 19.3631 16.781 19.3631 18H20.3631C20.3631 16.734 20.2381 15.55 19.9501 14.663C19.8061 14.221 19.6101 13.819 19.3401 13.519C19.0601 13.209 18.6901 13 18.2381 13V14ZM14.1481 17H22.3291V16H14.1481V17ZM22.3291 16H14.1481V17H22.3291V16ZM14.1471 20H22.3291V19H14.1481L14.1471 20ZM22.3291 19H14.1481L14.1471 20H22.3291V19Z" fill="#69AFE5"/>
<path fill-rule="evenodd" clip-rule="evenodd" d="M10.7381 26H25.7381C25.8707 26 25.9979 25.9473 26.0917 25.8536C26.1854 25.7598 26.2381 25.6326 26.2381 25.5C26.2381 25.3674 26.1854 25.2402 26.0917 25.1464C25.9979 25.0527 25.8707 25 25.7381 25H10.7381C10.6055 25 10.4783 25.0527 10.3846 25.1464C10.2908 25.2402 10.2381 25.3674 10.2381 25.5C10.2381 25.6326 10.2908 25.7598 10.3846 25.8536C10.4783 25.9473 10.6055 26 10.7381 26ZM10.7381 29H25.7381C25.8707 29 25.9979 28.9473 26.0917 28.8536C26.1854 28.7598 26.2381 28.6326 26.2381 28.5C26.2381 28.3674 26.1854 28.2402 26.0917 28.1464C25.9979 28.0527 25.8707 28 25.7381 28H10.7381C10.6055 28 10.4783 28.0527 10.3846 28.1464C10.2908 28.2402 10.2381 28.3674 10.2381 28.5C10.2381 28.6326 10.2908 28.7598 10.3846 28.8536C10.4783 28.9473 10.6055 29 10.7381 29Z" fill="#C8C6C4"/>
</svg>
