<svg width="37" height="36" viewBox="0 0 37 36" fill="none" xmlns="http://www.w3.org/2000/svg">
<path d="M6.98572 25.2973V12.6486V0H19.2689C30.1901 0 31.5846 0.0162162 31.8603 0.12973C32.0224 0.194595 32.2656 0.348649 32.3873 0.47027C32.517 0.591892 32.7035 0.835135 32.7927 1.01351C32.9629 1.32162 32.971 1.44324 32.971 3.44595C32.971 4.60541 32.9629 9.9973 32.9305 25.2973H6.98572Z" fill="#E51050"/>
<path d="M32.9404 25.2973V15.446V5.5946H35.4538L35.4701 17.0027C35.4863 23.2865 35.4863 30.1216 35.4538 36L5.90113 35.9919L5.53628 35.8054C5.33358 35.7081 5.05792 35.4811 4.92009 35.3027C4.77415 35.1162 4.63632 34.8 4.57146 34.5405C4.50659 34.2243 4.48227 33.0568 4.52281 26.8054L7.03621 25.2973H32.9404Z" fill="#770829"/>
<path d="M1.54093 3.28378L4.25703 1.64595C5.74885 0.745946 6.98123 0 6.99744 0C7.00555 0 7.01366 5.7 7.00555 25.3378L5.77317 26.0757C5.09212 26.4811 4.54891 26.8541 4.56512 26.9108C4.57323 26.9595 4.55701 26.9838 4.52458 26.9595C4.48404 26.9432 3.81921 27.3081 3.04087 27.7784C2.26252 28.2405 1.59769 28.6216 1.56526 28.6216C1.52472 28.6216 1.5085 22.9216 1.54093 3.28378Z" fill="#E85984"/>
<path d="M19.1023 11.1892C19.4671 9.64865 19.7995 8.34325 19.8563 8.27838C19.9049 8.22163 19.9536 8.20541 19.9617 8.23784C19.9698 8.27838 20.2941 9.60001 20.6752 11.173C21.0562 12.7378 21.3643 14.0432 21.3643 14.0676C21.3643 14.0919 20.7076 14.1081 19.9049 14.1081C19.1023 14.1081 18.4456 14.0838 18.4456 14.0514C18.4456 14.0108 18.7455 12.7297 19.1023 11.1892Z" fill="#E51050"/>
<path d="M24.2831 32.1892L24.2993 30.4378L24.3074 28.6783L24.802 28.727C25.1101 28.7594 25.3533 28.8324 25.4506 28.9216C25.5317 29.0027 25.6533 29.1892 25.71 29.3351C25.783 29.4973 25.8236 29.8946 25.8154 30.4297C25.8154 30.8838 25.7749 31.3783 25.7182 31.5324C25.6614 31.6865 25.5155 31.8892 25.3938 31.9783C25.2398 32.0919 25.0128 32.1567 24.2831 32.1892Z" fill="#770829"/>
<path d="M19.5238 29.9838C19.6455 29.4405 19.7752 28.9378 19.7995 28.8729C19.8238 28.8 19.9698 29.2216 20.1238 29.8054C20.2698 30.381 20.3914 30.8838 20.3914 30.9162C20.3914 30.9486 20.1481 30.981 19.3049 30.9729L19.5238 29.9838Z" fill="#770829"/>
<path d="M23.3185 26.921H25.6692C26.0803 26.921 26.4557 26.9866 26.7953 27.1177C27.135 27.2487 27.424 27.4454 27.6623 27.7076C27.9007 27.9638 28.0854 28.2885 28.2165 28.6818C28.3476 29.0691 28.4131 29.522 28.4131 30.0404C28.4131 30.5588 28.3476 31.0146 28.2165 31.4079C28.0854 31.7952 27.9007 32.1199 27.6623 32.3821C27.424 32.6383 27.135 32.832 26.7953 32.9631C26.4557 33.0942 26.0803 33.1597 25.6692 33.1597H23.3185V26.921ZM25.6692 31.9531C26.0743 31.9531 26.3931 31.8399 26.6255 31.6134C26.8579 31.387 26.9741 31.0235 26.9741 30.523V29.5577C26.9741 29.0572 26.8579 28.6937 26.6255 28.4673C26.3931 28.2409 26.0743 28.1276 25.6692 28.1276H24.677V31.9531H25.6692Z" fill="white"/>
<path d="M21.0431 33.1597L20.5962 31.676H18.5136L18.0667 33.1597H16.6903L18.746 26.921H20.4264L22.4553 33.1597H21.0431ZM19.5683 28.1545H19.5236L18.8354 30.523H20.2655L19.5683 28.1545Z" fill="white"/>
<path d="M13.9683 33.267C13.5452 33.267 13.1639 33.2015 12.8242 33.0704C12.4846 32.9333 12.1956 32.7337 11.9573 32.4716C11.7189 32.2034 11.5342 31.8727 11.4031 31.4794C11.272 31.0802 11.2065 30.6154 11.2065 30.0851C11.2065 29.5608 11.272 29.096 11.4031 28.6908C11.5342 28.2797 11.7189 27.937 11.9573 27.6629C12.1956 27.3829 12.4846 27.1714 12.8242 27.0284C13.1639 26.8853 13.5452 26.8138 13.9683 26.8138C14.5463 26.8138 15.023 26.933 15.3984 27.1714C15.7738 27.4037 16.0747 27.7732 16.3011 28.2797L15.1302 28.8874C15.0468 28.6253 14.9157 28.4167 14.737 28.2618C14.5642 28.1009 14.3079 28.0205 13.9683 28.0205C13.5691 28.0205 13.2473 28.1516 13.003 28.4137C12.7647 28.67 12.6455 29.0453 12.6455 29.5399V30.541C12.6455 31.0355 12.7647 31.4139 13.003 31.6761C13.2473 31.9323 13.5691 32.0604 13.9683 32.0604C14.302 32.0604 14.5671 31.971 14.7638 31.7923C14.9664 31.6076 15.1153 31.3871 15.2107 31.1309L16.319 31.7744C16.0866 32.2511 15.7797 32.6205 15.3984 32.8827C15.023 33.1389 14.5463 33.267 13.9683 33.267Z" fill="white"/>
<path d="M23.3154 19.862L22.2761 16.4374H17.4329L16.3937 19.862H13.1926L17.9734 5.46204H21.8811L26.5995 19.862H23.3154ZM19.8857 8.30903H19.7818L18.1812 13.7761H21.507L19.8857 8.30903Z" fill="white"/>
</svg>
