<svg width="37" height="36" viewBox="0 0 37 36" fill="none" xmlns="http://www.w3.org/2000/svg">
<path d="M8.13598 33H29.35C29.566 33 29.75 32.83 29.75 32.628V10H24.15C23.378 10 22.75 9.372 22.75 8.6V3H8.14998C7.93398 3 7.74998 3.17 7.74998 3.372V32.642C7.74998 32.839 7.92298 33 8.13598 33Z" fill="white"/>
<path d="M28.954 8.99994L23.75 3.81494V8.59994C23.75 8.81994 23.93 8.99994 24.15 8.99994H28.954Z" fill="white"/>
<path opacity="0.64" fill-rule="evenodd" clip-rule="evenodd" d="M30.363 8.993L23.768 2.421C23.4972 2.15221 23.1315 2.00095 22.75 2H8.14998C7.37798 2 6.74998 2.615 6.74998 3.372V32.642C6.74998 33.39 7.37198 34 8.13598 34H29.35C30.122 34 30.75 33.385 30.75 32.628V9.923C30.75 9.577 30.61 9.237 30.363 8.993ZM23.75 3.815L28.954 9H24.15C24.0439 9 23.9421 8.95786 23.8671 8.88284C23.7921 8.80783 23.75 8.70609 23.75 8.6V3.815ZM29.35 33C29.566 33 29.75 32.83 29.75 32.628V10H24.15C23.378 10 22.75 9.372 22.75 8.6V3H8.14998C7.93398 3 7.74998 3.17 7.74998 3.372V32.642C7.74998 32.84 7.92298 33 8.13598 33H29.35Z" fill="#605E5C"/>
<path d="M11.313 26.2C11.443 20.988 15.093 14.5 23.25 14.5" stroke="#C8C6C4" stroke-linecap="round"/>
<path d="M12.25 29H11.25V30H12.25V29ZM11.25 29C11.1174 29 10.9902 28.9473 10.8964 28.8536C10.8027 28.7598 10.75 28.6326 10.75 28.5H9.74998C9.74998 28.8978 9.90801 29.2794 10.1893 29.5607C10.4706 29.842 10.8522 30 11.25 30V29ZM10.75 28.5V27.5H9.74998V28.5H10.75ZM10.75 27.5C10.75 27.3674 10.8027 27.2402 10.8964 27.1464C10.9902 27.0527 11.1174 27 11.25 27V26C10.8522 26 10.4706 26.158 10.1893 26.4393C9.90801 26.7206 9.74998 27.1022 9.74998 27.5H10.75ZM11.25 27H12.25V26H11.25V27ZM12.25 27C12.3826 27 12.5098 27.0527 12.6035 27.1464C12.6973 27.2402 12.75 27.3674 12.75 27.5H13.75C13.75 27.1022 13.5919 26.7206 13.3106 26.4393C13.0293 26.158 12.6478 26 12.25 26V27ZM12.75 27.5V28.5H13.75V27.5H12.75ZM12.75 28.5C12.75 28.6326 12.6973 28.7598 12.6035 28.8536C12.5098 28.9473 12.3826 29 12.25 29V30C12.6478 30 13.0293 29.842 13.3106 29.5607C13.5919 29.2794 13.75 28.8978 13.75 28.5H12.75ZM25.25 16H24.25V17H25.25V16ZM24.25 16C24.1174 16 23.9902 15.9473 23.8964 15.8536C23.8027 15.7598 23.75 15.6326 23.75 15.5H22.75C22.75 15.8978 22.908 16.2794 23.1893 16.5607C23.4706 16.842 23.8522 17 24.25 17V16ZM23.75 15.5V14.5H22.75V15.5H23.75ZM23.75 14.5C23.75 14.3674 23.8027 14.2402 23.8964 14.1464C23.9902 14.0527 24.1174 14 24.25 14V13C23.8522 13 23.4706 13.158 23.1893 13.4393C22.908 13.7206 22.75 14.1022 22.75 14.5H23.75ZM24.25 14H25.25V13H24.25V14ZM25.25 14C25.3826 14 25.5098 14.0527 25.6035 14.1464C25.6973 14.2402 25.75 14.3674 25.75 14.5H26.75C26.75 14.1022 26.5919 13.7206 26.3106 13.4393C26.0293 13.158 25.6478 13 25.25 13V14ZM25.75 14.5V15.5H26.75V14.5H25.75ZM25.75 15.5C25.75 15.6326 25.6973 15.7598 25.6035 15.8536C25.5098 15.9473 25.3826 16 25.25 16V17C25.6478 17 26.0293 16.842 26.3106 16.5607C26.5919 16.2794 26.75 15.8978 26.75 15.5H25.75ZM15.75 20.5C16.6782 20.5 17.5685 20.1313 18.2249 19.4749C18.8812 18.8185 19.25 17.9283 19.25 17C19.25 16.0717 18.8812 15.1815 18.2249 14.5251C17.5685 13.8687 16.6782 13.5 15.75 13.5C14.8217 13.5 13.9315 13.8687 13.2751 14.5251C12.6187 15.1815 12.25 16.0717 12.25 17C12.25 17.9283 12.6187 18.8185 13.2751 19.4749C13.9315 20.1313 14.8217 20.5 15.75 20.5Z" fill="#0078D7"/>
<path fill-rule="evenodd" clip-rule="evenodd" d="M11.75 17C11.75 14.794 13.544 13 15.75 13C17.956 13 19.75 14.794 19.75 17C19.75 19.206 17.956 21 15.75 21C13.544 21 11.75 19.206 11.75 17ZM18.75 17C18.75 16.2044 18.4339 15.4413 17.8713 14.8787C17.3087 14.3161 16.5456 14 15.75 14C14.9543 14 14.1913 14.3161 13.6287 14.8787C13.066 15.4413 12.75 16.2044 12.75 17C12.75 17.7956 13.066 18.5587 13.6287 19.1213C14.1913 19.6839 14.9543 20 15.75 20C16.5456 20 17.3087 19.6839 17.8713 19.1213C18.4339 18.5587 18.75 17.7956 18.75 17Z" fill="white"/>
<path d="M20.077 23.0161L26.593 25.4591C26.6412 25.4773 26.6823 25.5104 26.7104 25.5536C26.7385 25.5967 26.752 25.6477 26.7491 25.6992C26.7462 25.7506 26.727 25.7997 26.6943 25.8395C26.6615 25.8792 26.6169 25.9075 26.567 25.9201L23.45 26.7001L22.67 29.8171C22.6571 29.8667 22.6288 29.9109 22.5891 29.9433C22.5495 29.9758 22.5006 29.9948 22.4494 29.9977C22.3983 30.0006 22.3476 29.9872 22.3045 29.9594C22.2615 29.9316 22.2284 29.8909 22.21 29.8431L19.766 23.3271C19.7502 23.2837 19.7471 23.2368 19.7571 23.1917C19.7671 23.1466 19.7898 23.1054 19.8225 23.0728C19.8552 23.0402 19.8965 23.0177 19.9416 23.0078C19.9867 22.9979 20.0337 23.0002 20.077 23.0161Z" fill="#0078D7"/>
</svg>
