<svg width="37" height="36" viewBox="0 0 37 36" fill="none" xmlns="http://www.w3.org/2000/svg">
<path d="M5.44998 32H32.45C32.725 32 32.95 31.775 32.95 31.5V4.5C32.95 4.225 32.725 4 32.45 4H5.44998C5.17498 4 4.94998 4.225 4.94998 4.5V31.5C4.94998 31.775 5.17498 32 5.44998 32Z" fill="white"/>
<path d="M22.57 19.683L20.514 22.793L17.028 17.825C16.9218 17.6673 16.7786 17.538 16.6107 17.4486C16.4429 17.3592 16.2556 17.3125 16.0655 17.3125C15.8753 17.3125 15.6881 17.3592 15.5202 17.4486C15.3524 17.538 15.2091 17.6673 15.103 17.825L9.67798 25.552C9.10798 26.364 9.66998 27.5 10.64 27.5H27.45C28.406 27.5 28.97 26.395 28.432 25.58L24.532 19.683C24.4275 19.5172 24.2827 19.3805 24.111 19.2857C23.9394 19.191 23.7465 19.1413 23.5505 19.1413C23.3544 19.1413 23.1616 19.191 22.9899 19.2857C22.8183 19.3805 22.6735 19.5172 22.569 19.683H22.57Z" stroke="#A6CCC3"/>
<path d="M25.95 13.5C26.613 13.5 27.2489 13.2366 27.7177 12.7678C28.1866 12.2989 28.45 11.663 28.45 11C28.45 10.337 28.1866 9.70107 27.7177 9.23223C27.2489 8.76339 26.613 8.5 25.95 8.5C25.2869 8.5 24.6511 8.76339 24.1822 9.23223C23.7134 9.70107 23.45 10.337 23.45 11C23.45 11.663 23.7134 12.2989 24.1822 12.7678C24.6511 13.2366 25.2869 13.5 25.95 13.5Z" stroke="#FF9810"/>
<path opacity="0.64" fill-rule="evenodd" clip-rule="evenodd" d="M5.44998 33H32.45C33.277 33 33.95 32.327 33.95 31.5V4.5C33.95 3.673 33.277 3 32.45 3H5.44998C4.62298 3 3.94998 3.673 3.94998 4.5V31.5C3.94998 32.327 4.62298 33 5.44998 33ZM4.94998 4.5C4.94998 4.36739 5.00266 4.24021 5.09643 4.14645C5.1902 4.05268 5.31737 4 5.44998 4H32.45C32.5826 4 32.7098 4.05268 32.8035 4.14645C32.8973 4.24021 32.95 4.36739 32.95 4.5V31.5C32.95 31.6326 32.8973 31.7598 32.8035 31.8536C32.7098 31.9473 32.5826 32 32.45 32H5.44998C5.31737 32 5.1902 31.9473 5.09643 31.8536C5.00266 31.7598 4.94998 31.6326 4.94998 31.5V4.5Z" fill="#605E5C"/>
</svg>
