<svg width="37" height="36" viewBox="0 0 37 36" fill="none" xmlns="http://www.w3.org/2000/svg">
<path d="M4.64297 32H31.643C31.918 32 32.143 31.775 32.143 31.5V4.5C32.143 4.225 31.918 4 31.643 4H4.64297C4.36797 4 4.14297 4.225 4.14297 4.5V31.5C4.14297 31.775 4.36797 32 4.64297 32Z" fill="white"/>
<path d="M21.763 19.683L19.707 22.793L16.221 17.825C16.1148 17.6673 15.9715 17.538 15.8037 17.4486C15.6359 17.3592 15.4486 17.3125 15.2585 17.3125C15.0683 17.3125 14.8811 17.3592 14.7132 17.4486C14.5454 17.538 14.4021 17.6673 14.296 17.825L8.87097 25.552C8.30097 26.364 8.86297 27.5 9.83297 27.5H26.643C27.599 27.5 28.163 26.395 27.625 25.58L23.725 19.683C23.6205 19.5172 23.4757 19.3805 23.304 19.2857C23.1324 19.191 22.9395 19.1413 22.7435 19.1413C22.5474 19.1413 22.3546 19.191 22.1829 19.2857C22.0113 19.3805 21.8665 19.5172 21.762 19.683H21.763Z" stroke="#A6CCC3"/>
<path d="M25.1429 13.5C25.806 13.5 26.4419 13.2366 26.9107 12.7678C27.3796 12.2989 27.6429 11.663 27.6429 11C27.6429 10.337 27.3796 9.70107 26.9107 9.23223C26.4419 8.76339 25.806 8.5 25.1429 8.5C24.4799 8.5 23.844 8.76339 23.3752 9.23223C22.9063 9.70107 22.6429 10.337 22.6429 11C22.6429 11.663 22.9063 12.2989 23.3752 12.7678C23.844 13.2366 24.4799 13.5 25.1429 13.5Z" stroke="#FF9810"/>
<path opacity="0.64" fill-rule="evenodd" clip-rule="evenodd" d="M4.64297 33H31.643C32.47 33 33.143 32.327 33.143 31.5V4.5C33.143 3.673 32.47 3 31.643 3H4.64297C3.81597 3 3.14297 3.673 3.14297 4.5V31.5C3.14297 32.327 3.81597 33 4.64297 33ZM4.14297 4.5C4.14297 4.36739 4.19565 4.24021 4.28942 4.14645C4.38319 4.05268 4.51037 4 4.64297 4H31.643C31.7756 4 31.9028 4.05268 31.9965 4.14645C32.0903 4.24021 32.143 4.36739 32.143 4.5V31.5C32.143 31.6326 32.0903 31.7598 31.9965 31.8536C31.9028 31.9473 31.7756 32 31.643 32H4.64297C4.51037 32 4.38319 31.9473 4.28942 31.8536C4.19565 31.7598 4.14297 31.6326 4.14297 31.5V4.5Z" fill="#605E5C"/>
</svg>
