<svg width="37" height="36" viewBox="0 0 37 36" fill="none" xmlns="http://www.w3.org/2000/svg">
<path d="M4.75 32H31.75C32.025 32 32.25 31.775 32.25 31.5V4.5C32.25 4.225 32.025 4 31.75 4H4.75C4.475 4 4.25 4.225 4.25 4.5V31.5C4.25 31.775 4.475 32 4.75 32Z" fill="white"/>
<path d="M21.87 19.683L19.814 22.793L16.328 17.825C16.2219 17.6673 16.0786 17.538 15.9107 17.4486C15.7429 17.3592 15.5557 17.3125 15.3655 17.3125C15.1753 17.3125 14.9881 17.3592 14.8203 17.4486C14.6524 17.538 14.5091 17.6673 14.403 17.825L8.978 25.552C8.408 26.364 8.97 27.5 9.94 27.5H26.75C27.706 27.5 28.27 26.395 27.732 25.58L23.832 19.683C23.7275 19.5172 23.5827 19.3805 23.411 19.2857C23.2394 19.191 23.0465 19.1413 22.8505 19.1413C22.6545 19.1413 22.4616 19.191 22.29 19.2857C22.1183 19.3805 21.9735 19.5172 21.869 19.683H21.87Z" stroke="#A6CCC3"/>
<path d="M25.25 13.5C25.913 13.5 26.5489 13.2366 27.0178 12.7678C27.4866 12.2989 27.75 11.663 27.75 11C27.75 10.337 27.4866 9.70107 27.0178 9.23223C26.5489 8.76339 25.913 8.5 25.25 8.5C24.587 8.5 23.9511 8.76339 23.4822 9.23223C23.0134 9.70107 22.75 10.337 22.75 11C22.75 11.663 23.0134 12.2989 23.4822 12.7678C23.9511 13.2366 24.587 13.5 25.25 13.5Z" stroke="#FF9810"/>
<path opacity="0.64" fill-rule="evenodd" clip-rule="evenodd" d="M4.75 33H31.75C32.577 33 33.25 32.327 33.25 31.5V4.5C33.25 3.673 32.577 3 31.75 3H4.75C3.923 3 3.25 3.673 3.25 4.5V31.5C3.25 32.327 3.923 33 4.75 33ZM4.25 4.5C4.25 4.36739 4.30268 4.24021 4.39645 4.14645C4.49021 4.05268 4.61739 4 4.75 4H31.75C31.8826 4 32.0098 4.05268 32.1036 4.14645C32.1973 4.24021 32.25 4.36739 32.25 4.5V31.5C32.25 31.6326 32.1973 31.7598 32.1036 31.8536C32.0098 31.9473 31.8826 32 31.75 32H4.75C4.61739 32 4.49021 31.9473 4.39645 31.8536C4.30268 31.7598 4.25 31.6326 4.25 31.5V4.5Z" fill="#605E5C"/>
</svg>
