<svg width="37" height="36" viewBox="0 0 37 36" fill="none" xmlns="http://www.w3.org/2000/svg">
<path d="M11.836 33H33.05C33.266 33 33.45 32.83 33.45 32.628V10H27.85C27.078 10 26.45 9.372 26.45 8.6V3H11.85C11.634 3 11.45 3.17 11.45 3.372V32.642C11.45 32.839 11.623 33 11.836 33Z" fill="white"/>
<path d="M32.654 8.99994L27.45 3.81494V8.59994C27.45 8.81994 27.63 8.99994 27.85 8.99994H32.654Z" fill="white"/>
<path opacity="0.64" fill-rule="evenodd" clip-rule="evenodd" d="M34.063 8.993L27.468 2.421C27.1973 2.15221 26.8315 2.00095 26.45 2H11.85C11.078 2 10.45 2.615 10.45 3.372V32.642C10.45 33.391 11.072 34 11.836 34H33.05C33.822 34 34.45 33.385 34.45 32.628V9.923C34.45 9.577 34.31 9.237 34.063 8.993ZM27.45 3.815L32.654 9H27.85C27.7439 9 27.6422 8.95786 27.5671 8.88284C27.4921 8.80783 27.45 8.70609 27.45 8.6V3.815ZM33.05 33C33.266 33 33.45 32.83 33.45 32.628V10H27.85C27.078 10 26.45 9.372 26.45 8.6V3H11.85C11.634 3 11.45 3.17 11.45 3.372V32.642C11.45 32.84 11.623 33 11.836 33H33.05Z" fill="#605E5C"/>
<path d="M29.95 24H20.45V25H29.95C30.0826 25 30.2098 24.9473 30.3035 24.8536C30.3973 24.7598 30.45 24.6326 30.45 24.5C30.45 24.3674 30.3973 24.2402 30.3035 24.1464C30.2098 24.0527 30.0826 24 29.95 24Z" fill="#103F91"/>
<path d="M29.95 21H20.45V22H29.95C30.0826 22 30.2098 21.9473 30.3035 21.8536C30.3973 21.7598 30.45 21.6326 30.45 21.5C30.45 21.3674 30.3973 21.2402 30.3035 21.1464C30.2098 21.0527 30.0826 21 29.95 21Z" fill="#185ABD"/>
<path d="M29.95 18H20.45V19H29.95C30.0826 19 30.2098 18.9473 30.3035 18.8536C30.3973 18.7598 30.45 18.6326 30.45 18.5C30.45 18.3674 30.3973 18.2402 30.3035 18.1464C30.2098 18.0527 30.0826 18 29.95 18Z" fill="#2B7CD3"/>
<path d="M29.95 15H20.45V16H29.95C30.0826 16 30.2098 15.9473 30.3035 15.8536C30.3973 15.7598 30.45 15.6326 30.45 15.5C30.45 15.3674 30.3973 15.2402 30.3035 15.1464C30.2098 15.0527 30.0826 15 29.95 15Z" fill="#41A5EE"/>
<path d="M3.94999 28H16.95C17.3478 28 17.7293 27.842 18.0106 27.5607C18.292 27.2794 18.45 26.8978 18.45 26.5V13.5C18.45 13.1022 18.292 12.7206 18.0106 12.4393C17.7293 12.158 17.3478 12 16.95 12H3.94999C3.55216 12 3.17063 12.158 2.88933 12.4393C2.60802 12.7206 2.44999 13.1022 2.44999 13.5V26.5C2.44999 26.8978 2.60802 27.2794 2.88933 27.5607C3.17063 27.842 3.55216 28 3.94999 28Z" fill="#185ABD"/>
<path d="M8.30699 22.55H8.33399C8.34399 22.416 9.69199 16 9.69199 16H11.25C11.25 16 12.628 22.118 12.67 22.538H12.69C12.708 22.248 13.824 16 13.824 16H15.25L13.495 24H11.829C11.829 24 10.445 17.68 10.434 17.568H10.414C10.4 17.698 9.11399 24 9.11399 24H7.41799L5.64999 16H7.10199C7.10199 16 8.30199 22.408 8.30899 22.55H8.30699Z" fill="#F9F7F7"/>
</svg>
