<svg width="37" height="36" viewBox="0 0 37 36" fill="none" xmlns="http://www.w3.org/2000/svg">
<path d="M5.25 32H32.25C32.525 32 32.75 31.775 32.75 31.5V4.5C32.75 4.225 32.525 4 32.25 4H5.25C4.975 4 4.75 4.225 4.75 4.5V31.5C4.75 31.775 4.975 32 5.25 32Z" fill="white"/>
<path opacity="0.64" fill-rule="evenodd" clip-rule="evenodd" d="M5.25 33H32.25C33.077 33 33.75 32.327 33.75 31.5V4.5C33.75 3.673 33.077 3 32.25 3H5.25C4.423 3 3.75 3.673 3.75 4.5V31.5C3.75 32.327 4.423 33 5.25 33ZM4.75 4.5C4.75 4.36739 4.80268 4.24021 4.89645 4.14645C4.99021 4.05268 5.11739 4 5.25 4H32.25C32.3826 4 32.5098 4.05268 32.6036 4.14645C32.6973 4.24021 32.75 4.36739 32.75 4.5V31.5C32.75 31.6326 32.6973 31.7598 32.6036 31.8536C32.5098 31.9473 32.3826 32 32.25 32H5.25C5.11739 32 4.99021 31.9473 4.89645 31.8536C4.80268 31.7598 4.75 31.6326 4.75 31.5V4.5Z" fill="#605E5C"/>
<path d="M24.75 18C24.7489 18.0946 24.7242 18.1874 24.678 18.27C24.633 18.3498 24.5673 18.4161 24.488 18.462L15.6 23.916C15.5376 23.9548 15.4682 23.9808 15.3958 23.9928C15.3233 24.0047 15.2492 24.0022 15.1777 23.9855C15.1062 23.9688 15.0387 23.9382 14.979 23.8954C14.9194 23.8525 14.8687 23.7984 14.83 23.736C14.7789 23.65 14.7513 23.552 14.75 23.452V18H24.75Z" fill="#BC1948"/>
<path d="M24.75 18C24.7489 17.9054 24.7242 17.8125 24.678 17.73C24.633 17.6501 24.5673 17.5838 24.488 17.538L15.6 12.082C15.5156 12.0306 15.4192 12.0023 15.3204 11.9998C15.2216 11.9974 15.1239 12.0208 15.037 12.068C14.9506 12.1142 14.8784 12.183 14.8279 12.267C14.7773 12.3509 14.7504 12.447 14.75 12.545V18H24.75Z" fill="#E8467C"/>
</svg>
