<svg width="37" height="36" viewBox="0 0 37 36" fill="none" xmlns="http://www.w3.org/2000/svg">
<path d="M7.9359 33H29.1499C29.3659 33 29.5499 32.83 29.5499 32.628V10H23.9499C23.1779 10 22.5499 9.372 22.5499 8.6V3H7.9499C7.7339 3 7.5499 3.17 7.5499 3.372V32.642C7.5499 32.839 7.7229 33 7.9359 33Z" fill="white"/>
<path d="M28.7539 8.99994L23.5499 3.81494V8.59994C23.5499 8.81994 23.7299 8.99994 23.9499 8.99994H28.7539Z" fill="white"/>
<path opacity="0.64" fill-rule="evenodd" clip-rule="evenodd" d="M30.1629 8.993L23.5679 2.421C23.2972 2.15221 22.9314 2.00095 22.5499 2H7.9499C7.1779 2 6.5499 2.615 6.5499 3.372V32.642C6.5499 33.39 7.1719 34 7.9359 34H29.1499C29.9219 34 30.5499 33.385 30.5499 32.628V9.923C30.5499 9.577 30.4099 9.237 30.1629 8.993ZM23.5499 3.815L28.7539 9H23.9499C23.8438 9 23.7421 8.95786 23.6671 8.88284C23.592 8.80783 23.5499 8.70609 23.5499 8.6V3.815ZM29.1499 33C29.3659 33 29.5499 32.83 29.5499 32.628V10H23.9499C23.1779 10 22.5499 9.372 22.5499 8.6V3H7.9499C7.7339 3 7.5499 3.17 7.5499 3.372V32.642C7.5499 32.84 7.7229 33 7.9359 33H29.1499Z" fill="#605E5C"/>
</svg>
