<svg width="37" height="36" viewBox="0 0 37 36" fill="none" xmlns="http://www.w3.org/2000/svg">
<path d="M4.9762 28.101H31.9762C32.1088 28.101 32.236 28.0483 32.3298 27.9545C32.4235 27.8607 32.4762 27.7336 32.4762 27.601V8.77095L18.8612 22.106C18.768 22.198 18.6422 22.2497 18.5112 22.2497C18.3802 22.2497 18.2544 22.198 18.1612 22.106L4.4762 8.69995V27.601C4.4762 27.7336 4.52887 27.8607 4.62264 27.9545C4.71641 28.0483 4.84359 28.101 4.9762 28.101Z" fill="white"/>
<path d="M31.8982 7.93604H5.12421L18.5112 21.049L31.8982 7.93604Z" fill="white"/>
<path opacity="0.64" fill-rule="evenodd" clip-rule="evenodd" d="M31.9762 7H4.9762C4.57837 7 4.19684 7.15804 3.91554 7.43934C3.63423 7.72064 3.4762 8.10218 3.4762 8.5V27.5C3.4762 27.8978 3.63423 28.2794 3.91554 28.5607C4.19684 28.842 4.57837 29 4.9762 29H31.9762C32.374 29 32.7556 28.842 33.0369 28.5607C33.3182 28.2794 33.4762 27.8978 33.4762 27.5V8.5C33.4762 8.10218 33.3182 7.72064 33.0369 7.43934C32.7556 7.15804 32.374 7 31.9762 7ZM31.8982 8L18.5112 21.114L5.1242 8H31.8982ZM4.9762 28H31.9762C32.1088 28 32.236 27.9473 32.3298 27.8536C32.4235 27.7598 32.4762 27.6326 32.4762 27.5V8.668L18.8612 22.006C18.768 22.0981 18.6422 22.1497 18.5112 22.1497C18.3802 22.1497 18.2544 22.0981 18.1612 22.006L4.4762 8.6V27.5C4.4762 27.6326 4.52887 27.7598 4.62264 27.8536C4.71641 27.9473 4.84359 28 4.9762 28Z" fill="#605E5C"/>
</svg>
