<svg width="37" height="36" viewBox="0 0 37 36" fill="none" xmlns="http://www.w3.org/2000/svg">
<path d="M5.35001 32H32.35C32.625 32 32.85 31.775 32.85 31.5V4.5C32.85 4.225 32.625 4 32.35 4H5.35001C5.07501 4 4.85001 4.225 4.85001 4.5V31.5C4.85001 31.775 5.07501 32 5.35001 32Z" fill="white"/>
<path opacity="0.64" fill-rule="evenodd" clip-rule="evenodd" d="M5.35001 33H32.35C33.177 33 33.85 32.327 33.85 31.5V4.5C33.85 3.673 33.177 3 32.35 3H5.35001C4.52301 3 3.85001 3.673 3.85001 4.5V31.5C3.85001 32.327 4.52301 33 5.35001 33ZM4.85001 4.5C4.85001 4.36739 4.90268 4.24021 4.99645 4.14645C5.09022 4.05268 5.2174 4 5.35001 4H32.35C32.4826 4 32.6098 4.05268 32.7036 4.14645C32.7973 4.24021 32.85 4.36739 32.85 4.5V31.5C32.85 31.6326 32.7973 31.7598 32.7036 31.8536C32.6098 31.9473 32.4826 32 32.35 32H5.35001C5.2174 32 5.09022 31.9473 4.99645 31.8536C4.90268 31.7598 4.85001 31.6326 4.85001 31.5V4.5Z" fill="#605E5C"/>
<path d="M14.369 24.492C15.484 24.492 16.388 23.602 16.388 22.502C16.388 21.404 15.484 20.514 14.369 20.514C13.254 20.514 12.35 21.404 12.35 22.503C12.35 23.601 13.254 24.492 14.369 24.492ZM22.359 23.455C23.459 23.455 24.349 22.577 24.349 21.493C24.349 20.41 23.459 19.531 22.359 19.531C21.259 19.531 20.368 20.41 20.368 21.493C20.368 22.577 21.259 23.455 22.358 23.455H22.359Z" stroke="#E8467C" stroke-linecap="round" stroke-linejoin="round"/>
<path d="M15.89 22.294C15.89 22.4266 15.9427 22.5538 16.0365 22.6476C16.1302 22.7413 16.2574 22.794 16.39 22.794C16.5226 22.794 16.6498 22.7413 16.7436 22.6476C16.8373 22.5538 16.89 22.4266 16.89 22.294H15.89ZM16.39 13.38L16.261 12.897C16.1544 12.9252 16.0602 12.9879 15.9929 13.0752C15.9256 13.1626 15.8891 13.2697 15.889 13.38H16.389H16.39ZM24.35 11.273H24.85C24.8501 11.1964 24.8326 11.1207 24.7988 11.052C24.7651 10.9832 24.7159 10.9231 24.6552 10.8763C24.5945 10.8295 24.5239 10.7973 24.4488 10.7822C24.3737 10.7671 24.2961 10.7694 24.222 10.789L24.35 11.273ZM23.85 21.494C23.85 21.6266 23.9027 21.7538 23.9965 21.8476C24.0902 21.9413 24.2174 21.994 24.35 21.994C24.4826 21.994 24.6098 21.9413 24.7036 21.8476C24.7973 21.7538 24.85 21.6266 24.85 21.494H23.85ZM16.416 15.922C16.3523 15.9378 16.2922 15.9659 16.2393 16.0049C16.1865 16.0438 16.1418 16.0928 16.1079 16.1491C16.0739 16.2053 16.0514 16.2676 16.0415 16.3326C16.0317 16.3975 16.0347 16.4637 16.0505 16.5275C16.0663 16.5913 16.0944 16.6513 16.1334 16.7042C16.1723 16.757 16.2213 16.8017 16.2776 16.8357C16.3338 16.8696 16.3961 16.8921 16.4611 16.902C16.526 16.9118 16.5923 16.9088 16.656 16.893L16.416 15.922ZM24.028 15.078C24.1568 15.0462 24.2676 14.9645 24.3362 14.8509C24.4047 14.7374 24.4253 14.6013 24.3935 14.4725C24.3617 14.3437 24.28 14.2329 24.1665 14.1643C24.0529 14.0958 23.9168 14.0752 23.788 14.107L24.028 15.078ZM16.889 22.294V13.38H15.889V22.294H16.889ZM16.517 13.864L24.478 11.756L24.222 10.789L16.261 12.897L16.517 13.864ZM23.85 11.273V21.494H24.85V11.273H23.85ZM16.656 16.893L24.028 15.078L23.788 14.107L16.417 15.922L16.656 16.893Z" fill="#E8467C"/>
</svg>
