<svg width="37" height="36" viewBox="0 0 37 36" fill="none" xmlns="http://www.w3.org/2000/svg">
<path d="M4.59525 32H31.5952C31.8702 32 32.0952 31.775 32.0952 31.5V4.5C32.0952 4.225 31.8702 4 31.5952 4H4.59525C4.32025 4 4.09525 4.225 4.09525 4.5V31.5C4.09525 31.775 4.32025 32 4.59525 32Z" fill="white"/>
<path opacity="0.64" fill-rule="evenodd" clip-rule="evenodd" d="M4.59525 33H31.5952C32.4222 33 33.0952 32.327 33.0952 31.5V4.5C33.0952 3.673 32.4222 3 31.5952 3H4.59525C3.76825 3 3.09525 3.673 3.09525 4.5V31.5C3.09525 32.327 3.76825 33 4.59525 33ZM4.09525 4.5C4.09525 4.36739 4.14792 4.24021 4.24169 4.14645C4.33546 4.05268 4.46264 4 4.59525 4H31.5952C31.7279 4 31.855 4.05268 31.9488 4.14645C32.0426 4.24021 32.0952 4.36739 32.0952 4.5V31.5C32.0952 31.6326 32.0426 31.7598 31.9488 31.8536C31.855 31.9473 31.7279 32 31.5952 32H4.59525C4.46264 32 4.33546 31.9473 4.24169 31.8536C4.14792 31.7598 4.09525 31.6326 4.09525 31.5V4.5Z" fill="#605E5C"/>
<path d="M24.0952 18C24.0942 18.0946 24.0694 18.1874 24.0232 18.27C23.9782 18.3498 23.9126 18.4161 23.8332 18.462L14.9452 23.916C14.8829 23.9548 14.8135 23.9808 14.741 23.9928C14.6686 24.0047 14.5945 24.0022 14.523 23.9855C14.4514 23.9688 14.3839 23.9382 14.3243 23.8954C14.2646 23.8525 14.214 23.7984 14.1752 23.736C14.1242 23.65 14.0966 23.552 14.0952 23.452V18H24.0952Z" fill="#BC1948"/>
<path d="M24.0952 18C24.0942 17.9054 24.0694 17.8125 24.0232 17.73C23.9782 17.6501 23.9126 17.5838 23.8332 17.538L14.9452 12.082C14.8608 12.0306 14.7644 12.0023 14.6656 11.9998C14.5668 11.9974 14.4691 12.0208 14.3822 12.068C14.2959 12.1142 14.2236 12.183 14.1731 12.267C14.1226 12.3509 14.0957 12.447 14.0952 12.545V18H24.0952Z" fill="#E8467C"/>
</svg>
