<svg width="37" height="36" viewBox="0 0 37 36" fill="none" xmlns="http://www.w3.org/2000/svg">
<path d="M5.0499 32H32.0499C32.3249 32 32.5499 31.775 32.5499 31.5V4.5C32.5499 4.225 32.3249 4 32.0499 4H5.0499C4.7749 4 4.5499 4.225 4.5499 4.5V31.5C4.5499 31.775 4.7749 32 5.0499 32Z" fill="white"/>
<path opacity="0.64" fill-rule="evenodd" clip-rule="evenodd" d="M5.0499 33H32.0499C32.8769 33 33.5499 32.327 33.5499 31.5V4.5C33.5499 3.673 32.8769 3 32.0499 3H5.0499C4.2229 3 3.5499 3.673 3.5499 4.5V31.5C3.5499 32.327 4.2229 33 5.0499 33ZM4.5499 4.5C4.5499 4.36739 4.60257 4.24021 4.69634 4.14645C4.79011 4.05268 4.91729 4 5.0499 4H32.0499C32.1825 4 32.3097 4.05268 32.4035 4.14645C32.4972 4.24021 32.5499 4.36739 32.5499 4.5V31.5C32.5499 31.6326 32.4972 31.7598 32.4035 31.8536C32.3097 31.9473 32.1825 32 32.0499 32H5.0499C4.91729 32 4.79011 31.9473 4.69634 31.8536C4.60257 31.7598 4.5499 31.6326 4.5499 31.5V4.5Z" fill="#605E5C"/>
<path d="M24.5499 18C24.5488 18.0946 24.5241 18.1874 24.4779 18.27C24.4329 18.3498 24.3672 18.4161 24.2879 18.462L15.3999 23.916C15.3375 23.9548 15.2681 23.9808 15.1957 23.9928C15.1232 24.0047 15.0491 24.0022 14.9776 23.9855C14.9061 23.9688 14.8386 23.9382 14.7789 23.8954C14.7193 23.8525 14.6686 23.7984 14.6299 23.736C14.5788 23.65 14.5512 23.552 14.5499 23.452V18H24.5499Z" fill="#BC1948"/>
<path d="M24.5499 18C24.5488 17.9054 24.5241 17.8125 24.4779 17.73C24.4329 17.6501 24.3672 17.5838 24.2879 17.538L15.3999 12.082C15.3155 12.0306 15.2191 12.0023 15.1203 11.9998C15.0215 11.9974 14.9238 12.0208 14.8369 12.068C14.7505 12.1142 14.6783 12.183 14.6278 12.267C14.5772 12.3509 14.5503 12.447 14.5499 12.545V18H24.5499Z" fill="#E8467C"/>
</svg>
