<svg width="37" height="36" viewBox="0 0 37 36" fill="none" xmlns="http://www.w3.org/2000/svg">
<path d="M4.64999 32H31.65C31.925 32 32.15 31.775 32.15 31.5V4.5C32.15 4.225 31.925 4 31.65 4H4.64999C4.37499 4 4.14999 4.225 4.14999 4.5V31.5C4.14999 31.775 4.37499 32 4.64999 32Z" fill="white"/>
<path opacity="0.64" fill-rule="evenodd" clip-rule="evenodd" d="M4.64999 33H31.65C32.477 33 33.15 32.327 33.15 31.5V4.5C33.15 3.673 32.477 3 31.65 3H4.64999C3.82299 3 3.14999 3.673 3.14999 4.5V31.5C3.14999 32.327 3.82299 33 4.64999 33ZM4.14999 4.5C4.14999 4.36739 4.20267 4.24021 4.29644 4.14645C4.39021 4.05268 4.51739 4 4.64999 4H31.65C31.7826 4 31.9098 4.05268 32.0035 4.14645C32.0973 4.24021 32.15 4.36739 32.15 4.5V31.5C32.15 31.6326 32.0973 31.7598 32.0035 31.8536C31.9098 31.9473 31.7826 32 31.65 32H4.64999C4.51739 32 4.39021 31.9473 4.29644 31.8536C4.20267 31.7598 4.14999 31.6326 4.14999 31.5V4.5Z" fill="#605E5C"/>
<path d="M13.669 24.492C14.784 24.492 15.688 23.602 15.688 22.502C15.688 21.404 14.784 20.514 13.669 20.514C12.554 20.514 11.65 21.404 11.65 22.503C11.65 23.601 12.554 24.492 13.669 24.492ZM21.659 23.455C22.759 23.455 23.649 22.577 23.649 21.493C23.649 20.41 22.759 19.531 21.659 19.531C20.559 19.531 19.668 20.41 19.668 21.493C19.668 22.577 20.559 23.455 21.658 23.455H21.659Z" stroke="#E8467C" stroke-linecap="round" stroke-linejoin="round"/>
<path d="M15.19 22.294C15.19 22.4266 15.2427 22.5538 15.3364 22.6476C15.4302 22.7413 15.5574 22.794 15.69 22.794C15.8226 22.794 15.9498 22.7413 16.0435 22.6476C16.1373 22.5538 16.19 22.4266 16.19 22.294H15.19ZM15.69 13.38L15.561 12.897C15.4544 12.9252 15.3601 12.9879 15.2929 13.0752C15.2256 13.1626 15.1891 13.2697 15.189 13.38H15.689H15.69ZM23.65 11.273H24.15C24.1501 11.1964 24.1326 11.1207 24.0988 11.052C24.065 10.9832 24.0159 10.9231 23.9552 10.8763C23.8945 10.8295 23.8239 10.7973 23.7488 10.7822C23.6737 10.7671 23.5961 10.7694 23.522 10.789L23.65 11.273ZM23.15 21.494C23.15 21.6266 23.2027 21.7538 23.2964 21.8476C23.3902 21.9413 23.5174 21.994 23.65 21.994C23.7826 21.994 23.9098 21.9413 24.0035 21.8476C24.0973 21.7538 24.15 21.6266 24.15 21.494H23.15ZM15.716 15.922C15.6522 15.9378 15.5922 15.9659 15.5393 16.0049C15.4865 16.0438 15.4418 16.0928 15.4078 16.1491C15.3739 16.2053 15.3514 16.2676 15.3415 16.3326C15.3317 16.3975 15.3347 16.4637 15.3505 16.5275C15.3663 16.5913 15.3944 16.6513 15.4334 16.7042C15.4723 16.757 15.5213 16.8017 15.5775 16.8357C15.6338 16.8696 15.6961 16.8921 15.7611 16.902C15.826 16.9118 15.8922 16.9088 15.956 16.893L15.716 15.922ZM23.328 15.078C23.4568 15.0462 23.5676 14.9645 23.6361 14.8509C23.7047 14.7374 23.7253 14.6013 23.6935 14.4725C23.6617 14.3437 23.58 14.2329 23.4664 14.1643C23.3529 14.0958 23.2168 14.0752 23.088 14.107L23.328 15.078ZM16.189 22.294V13.38H15.189V22.294H16.189ZM15.817 13.864L23.778 11.756L23.522 10.789L15.561 12.897L15.817 13.864ZM23.15 11.273V21.494H24.15V11.273H23.15ZM15.956 16.893L23.328 15.078L23.088 14.107L15.717 15.922L15.956 16.893Z" fill="#E8467C"/>
</svg>
