<svg width="37" height="36" viewBox="0 0 37 36" fill="none" xmlns="http://www.w3.org/2000/svg">
<path d="M5.34988 32H32.3499C32.6249 32 32.8499 31.775 32.8499 31.5V4.5C32.8499 4.225 32.6249 4 32.3499 4H5.34988C5.07488 4 4.84988 4.225 4.84988 4.5V31.5C4.84988 31.775 5.07488 32 5.34988 32Z" fill="white"/>
<path opacity="0.64" fill-rule="evenodd" clip-rule="evenodd" d="M5.34988 33H32.3499C33.1769 33 33.8499 32.327 33.8499 31.5V4.5C33.8499 3.673 33.1769 3 32.3499 3H5.34988C4.52288 3 3.84988 3.673 3.84988 4.5V31.5C3.84988 32.327 4.52288 33 5.34988 33ZM4.84988 4.5C4.84988 4.36739 4.90256 4.24021 4.99633 4.14645C5.0901 4.05268 5.21728 4 5.34988 4H32.3499C32.4825 4 32.6097 4.05268 32.7034 4.14645C32.7972 4.24021 32.8499 4.36739 32.8499 4.5V31.5C32.8499 31.6326 32.7972 31.7598 32.7034 31.8536C32.6097 31.9473 32.4825 32 32.3499 32H5.34988C5.21728 32 5.0901 31.9473 4.99633 31.8536C4.90256 31.7598 4.84988 31.6326 4.84988 31.5V4.5Z" fill="#605E5C"/>
<path d="M24.8499 18C24.8488 18.0946 24.8241 18.1874 24.7779 18.27C24.7328 18.3498 24.6672 18.4161 24.5879 18.462L15.6999 23.916C15.6375 23.9548 15.5681 23.9808 15.4957 23.9928C15.4232 24.0047 15.3491 24.0022 15.2776 23.9855C15.2061 23.9688 15.1386 23.9382 15.0789 23.8954C15.0193 23.8525 14.9686 23.7984 14.9299 23.736C14.8788 23.65 14.8512 23.552 14.8499 23.452V18H24.8499Z" fill="#BC1948"/>
<path d="M24.8499 18C24.8488 17.9054 24.8241 17.8125 24.7779 17.73C24.7328 17.6501 24.6672 17.5838 24.5879 17.538L15.6999 12.082C15.6155 12.0306 15.519 12.0023 15.4203 11.9998C15.3215 11.9974 15.2238 12.0208 15.1369 12.068C15.0505 12.1142 14.9783 12.183 14.9277 12.267C14.8772 12.3509 14.8503 12.447 14.8499 12.545V18H24.8499Z" fill="#E8467C"/>
</svg>
