<svg width="37" height="36" viewBox="0 0 37 36" fill="none" xmlns="http://www.w3.org/2000/svg">
<path d="M4.55005 32H31.55C31.825 32 32.05 31.775 32.05 31.5V4.5C32.05 4.225 31.825 4 31.55 4H4.55005C4.27505 4 4.05005 4.225 4.05005 4.5V31.5C4.05005 31.775 4.27505 32 4.55005 32Z" fill="white"/>
<path opacity="0.64" fill-rule="evenodd" clip-rule="evenodd" d="M4.55005 33H31.55C32.377 33 33.05 32.327 33.05 31.5V4.5C33.05 3.673 32.377 3 31.55 3H4.55005C3.72305 3 3.05005 3.673 3.05005 4.5V31.5C3.05005 32.327 3.72305 33 4.55005 33ZM4.05005 4.5C4.05005 4.36739 4.10273 4.24021 4.1965 4.14645C4.29026 4.05268 4.41744 4 4.55005 4H31.55C31.6827 4 31.8098 4.05268 31.9036 4.14645C31.9974 4.24021 32.05 4.36739 32.05 4.5V31.5C32.05 31.6326 31.9974 31.7598 31.9036 31.8536C31.8098 31.9473 31.6827 32 31.55 32H4.55005C4.41744 32 4.29026 31.9473 4.1965 31.8536C4.10273 31.7598 4.05005 31.6326 4.05005 31.5V4.5Z" fill="#605E5C"/>
<path d="M24.05 18C24.049 18.0946 24.0242 18.1874 23.978 18.27C23.933 18.3498 23.8674 18.4161 23.788 18.462L14.9 23.916C14.8377 23.9548 14.7683 23.9808 14.6958 23.9928C14.6234 24.0047 14.5493 24.0022 14.4778 23.9855C14.4062 23.9688 14.3387 23.9382 14.2791 23.8954C14.2194 23.8525 14.1688 23.7984 14.13 23.736C14.079 23.65 14.0514 23.552 14.05 23.452V18H24.05Z" fill="#BC1948"/>
<path d="M24.05 18C24.049 17.9054 24.0242 17.8125 23.978 17.73C23.933 17.6501 23.8674 17.5838 23.788 17.538L14.9 12.082C14.8156 12.0306 14.7192 12.0023 14.6204 11.9998C14.5216 11.9974 14.4239 12.0208 14.337 12.068C14.2507 12.1142 14.1784 12.183 14.1279 12.267C14.0774 12.3509 14.0505 12.447 14.05 12.545V18H24.05Z" fill="#E8467C"/>
</svg>
