<svg width="37" height="36" viewBox="0 0 37 36" fill="none" xmlns="http://www.w3.org/2000/svg">
<path d="M4.8501 32H31.8501C32.1251 32 32.3501 31.775 32.3501 31.5V4.5C32.3501 4.225 32.1251 4 31.8501 4H4.8501C4.5751 4 4.3501 4.225 4.3501 4.5V31.5C4.3501 31.775 4.5751 32 4.8501 32Z" fill="white"/>
<path opacity="0.64" fill-rule="evenodd" clip-rule="evenodd" d="M4.8501 33H31.8501C32.6771 33 33.3501 32.327 33.3501 31.5V4.5C33.3501 3.673 32.6771 3 31.8501 3H4.8501C4.0231 3 3.3501 3.673 3.3501 4.5V31.5C3.3501 32.327 4.0231 33 4.8501 33ZM4.3501 4.5C4.3501 4.36739 4.40278 4.24021 4.49654 4.14645C4.59031 4.05268 4.71749 4 4.8501 4H31.8501C31.9827 4 32.1099 4.05268 32.2037 4.14645C32.2974 4.24021 32.3501 4.36739 32.3501 4.5V31.5C32.3501 31.6326 32.2974 31.7598 32.2037 31.8536C32.1099 31.9473 31.9827 32 31.8501 32H4.8501C4.71749 32 4.59031 31.9473 4.49654 31.8536C4.40278 31.7598 4.3501 31.6326 4.3501 31.5V4.5Z" fill="#605E5C"/>
<path d="M24.3501 18C24.349 18.0946 24.3243 18.1874 24.2781 18.27C24.2331 18.3498 24.1674 18.4161 24.0881 18.462L15.2001 23.916C15.1377 23.9548 15.0683 23.9808 14.9959 23.9928C14.9234 24.0047 14.8493 24.0022 14.7778 23.9855C14.7063 23.9688 14.6388 23.9382 14.5791 23.8954C14.5195 23.8525 14.4688 23.7984 14.4301 23.736C14.379 23.65 14.3514 23.552 14.3501 23.452V18H24.3501Z" fill="#BC1948"/>
<path d="M24.3501 18C24.349 17.9054 24.3243 17.8125 24.2781 17.73C24.2331 17.6501 24.1674 17.5838 24.0881 17.538L15.2001 12.082C15.1157 12.0306 15.0193 12.0023 14.9205 11.9998C14.8217 11.9974 14.724 12.0208 14.6371 12.068C14.5507 12.1142 14.4785 12.183 14.428 12.267C14.3774 12.3509 14.3505 12.447 14.3501 12.545V18H24.3501Z" fill="#E8467C"/>
</svg>
