<svg width="37" height="36" viewBox="0 0 37 36" fill="none" xmlns="http://www.w3.org/2000/svg">
<path d="M12.1955 33H33.4095C33.6255 33 33.8095 32.83 33.8095 32.628V10H28.2095C27.4375 10 26.8095 9.372 26.8095 8.6V3H12.2095C11.9935 3 11.8095 3.17 11.8095 3.372V32.642C11.8095 32.839 11.9825 33 12.1955 33Z" fill="white"/>
<path d="M33.0135 8.99994L27.8095 3.81494V8.59994C27.8095 8.81994 27.9895 8.99994 28.2095 8.99994H33.0135Z" fill="white"/>
<path opacity="0.64" fill-rule="evenodd" clip-rule="evenodd" d="M34.4225 8.993L27.8275 2.421C27.5568 2.15221 27.191 2.00095 26.8095 2H12.2095C11.4375 2 10.8095 2.615 10.8095 3.372V32.642C10.8095 33.391 11.4315 34 12.1955 34H33.4095C34.1815 34 34.8095 33.385 34.8095 32.628V9.923C34.8095 9.577 34.6695 9.237 34.4225 8.993ZM27.8095 3.815L33.0135 9H28.2095C28.1034 9 28.0017 8.95786 27.9267 8.88284C27.8517 8.80783 27.8095 8.70609 27.8095 8.6V3.815ZM33.4095 33C33.6255 33 33.8095 32.83 33.8095 32.628V10H28.2095C27.4375 10 26.8095 9.372 26.8095 8.6V3H12.2095C11.9935 3 11.8095 3.17 11.8095 3.372V32.642C11.8095 32.84 11.9825 33 12.1955 33H33.4095Z" fill="#605E5C"/>
<path d="M29.3095 29.5H16.3095C16.0443 29.5 15.79 29.3946 15.6024 29.2071C15.4149 29.0196 15.3095 28.7652 15.3095 28.5V14.5H29.3095C29.5747 14.5 29.8291 14.6054 30.0166 14.7929C30.2042 14.9804 30.3095 15.2348 30.3095 15.5V28.5C30.3095 28.7652 30.2042 29.0196 30.0166 29.2071C29.8291 29.3946 29.5747 29.5 29.3095 29.5Z" stroke="#C8C6C4"/>
<path fill-rule="evenodd" clip-rule="evenodd" d="M25.3095 19H14.3095C14.1769 19 14.0497 18.9473 13.956 18.8536C13.8622 18.7598 13.8095 18.6326 13.8095 18.5V17.5C13.8095 17.3674 13.8622 17.2402 13.956 17.1464C14.0497 17.0527 14.1769 17 14.3095 17H25.3095C25.4421 17 25.5693 17.0527 25.6631 17.1464C25.7569 17.2402 25.8095 17.3674 25.8095 17.5V18.5C25.8095 18.6326 25.7569 18.7598 25.6631 18.8536C25.5693 18.9473 25.4421 19 25.3095 19ZM26.3095 27H15.3095C15.1769 27 15.0497 26.9473 14.956 26.8536C14.8622 26.7598 14.8095 26.6326 14.8095 26.5V25.5C14.8095 25.3674 14.8622 25.2402 14.956 25.1464C15.0497 25.0527 15.1769 25 15.3095 25H26.3095C26.4421 25 26.5693 25.0527 26.6631 25.1464C26.7569 25.2402 26.8095 25.3674 26.8095 25.5V26.5C26.8095 26.6326 26.7569 26.7598 26.6631 26.8536C26.5693 26.9473 26.4421 27 26.3095 27ZM22.3095 23H29.8095V21H22.3095C22.1769 21 22.0497 21.0527 21.956 21.1464C21.8622 21.2402 21.8095 21.3674 21.8095 21.5V22.5C21.8095 22.6326 21.8622 22.7598 21.956 22.8536C22.0497 22.9473 22.1769 23 22.3095 23Z" fill="#8BBF8A"/>
<path d="M4.30953 28H17.3095C17.7074 28 18.0889 27.842 18.3702 27.5607C18.6515 27.2794 18.8095 26.8978 18.8095 26.5V13.5C18.8095 13.1022 18.6515 12.7206 18.3702 12.4393C18.0889 12.158 17.7074 12 17.3095 12H4.30953C3.91171 12 3.53018 12.158 3.24887 12.4393C2.96757 12.7206 2.80953 13.1022 2.80953 13.5V26.5C2.80953 26.8978 2.96757 27.2794 3.24887 27.5607C3.53018 27.842 3.91171 28 4.30953 28Z" fill="#31752F"/>
<path fill-rule="evenodd" clip-rule="evenodd" d="M14.0335 15.785C13.4565 15.261 12.6225 15 11.5365 15H7.91153V24.784H9.68953V21.324H11.4195C12.1155 21.324 12.7255 21.187 13.2525 20.911C13.7622 20.6522 14.1857 20.251 14.4715 19.756C14.7565 19.259 14.8995 18.693 14.8995 18.056C14.8995 17.065 14.6115 16.308 14.0335 15.785ZM11.2185 19.83H9.68853V16.515H11.2755C12.4435 16.515 13.0275 17.054 13.0275 18.131C13.0275 18.687 12.8745 19.108 12.5705 19.397C12.2655 19.686 11.8155 19.83 11.2185 19.83Z" fill="white"/>
</svg>
