<svg width="37" height="36" viewBox="0 0 37 36" fill="none" xmlns="http://www.w3.org/2000/svg">
<path d="M31.5238 30.5C31.5238 31.327 30.8508 32 30.0238 32H13.5238V32.607C13.5238 32.824 13.6998 33 13.9168 33H33.1308C33.235 33 33.335 32.9586 33.4087 32.8849C33.4824 32.8112 33.5238 32.7112 33.5238 32.607V5.5H34.0238V4.928L31.0238 3.25V6.5H31.5238V30.5Z" fill="white"/>
<path d="M11.0238 31H30.0238C30.1564 31 30.2836 30.9473 30.3774 30.8536C30.4711 30.7598 30.5238 30.6326 30.5238 30.5V6.5H10.5238V30.5C10.5238 30.6326 10.5765 30.7598 10.6702 30.8536C10.764 30.9473 10.8912 31 11.0238 31Z" fill="white"/>
<path opacity="0.64" d="M33.5238 5.5V32.607C33.5238 32.7112 33.4824 32.8112 33.4087 32.8849C33.335 32.9586 33.235 33 33.1308 33H13.9168C13.8126 33 13.7126 32.9586 13.6389 32.8849C13.5652 32.8112 13.5238 32.7112 13.5238 32.607V32H30.0238C30.8508 32 31.5238 31.327 31.5238 30.5V6.5H30.5238V30.5C30.5238 30.6326 30.4711 30.7598 30.3774 30.8536C30.2836 30.9473 30.1564 31 30.0238 31H11.0238C10.8912 31 10.764 30.9473 10.6702 30.8536C10.5765 30.7598 10.5238 30.6326 10.5238 30.5V6.5H9.5238V30.5C9.5238 31.327 10.1968 32 11.0238 32H12.5238V32.607C12.5238 33.375 13.1488 34 13.9168 34H33.1308C33.8988 34 34.5238 33.375 34.5238 32.607V5.5H33.5238Z" fill="#605E5C"/>
<path d="M31.4758 2H10.4158C9.9238 2 9.5238 2.4 9.5238 2.893V7H31.5238V5.484C31.524 5.35114 31.5619 5.22106 31.633 5.10887C31.7042 4.99668 31.8058 4.90699 31.9259 4.85023C32.046 4.79347 32.1798 4.77196 32.3116 4.7882C32.4435 4.80445 32.568 4.85778 32.6708 4.942L34.5238 6.464V5.048C34.5233 4.8116 34.4291 4.58504 34.2618 4.418L32.1068 2.262C31.9395 2.09448 31.7126 2.00024 31.4758 2Z" fill="#31752F"/>
<path d="M26.0238 25.5H15.0238C14.7586 25.5 14.5042 25.3946 14.3167 25.2071C14.1292 25.0196 14.0238 24.7652 14.0238 24.5V14.5H26.0238C26.289 14.5 26.5434 14.6054 26.7309 14.7929C26.9184 14.9804 27.0238 15.2348 27.0238 15.5V24.5C27.0238 24.7652 26.9184 25.0196 26.7309 25.2071C26.5434 25.3946 26.289 25.5 26.0238 25.5Z" stroke="#C8C6C4"/>
<path fill-rule="evenodd" clip-rule="evenodd" d="M22.0238 18H13.0238C12.8912 18 12.764 17.9473 12.6702 17.8536C12.5765 17.7598 12.5238 17.6326 12.5238 17.5V16.5C12.5238 16.3674 12.5765 16.2402 12.6702 16.1464C12.764 16.0527 12.8912 16 13.0238 16H22.0238C22.1564 16 22.2836 16.0527 22.3774 16.1464C22.4711 16.2402 22.5238 16.3674 22.5238 16.5V17.5C22.5238 17.6326 22.4711 17.7598 22.3774 17.8536C22.2836 17.9473 22.1564 18 22.0238 18ZM23.0238 24H14.0238C13.8912 24 13.764 23.9473 13.6702 23.8536C13.5765 23.7598 13.5238 23.6326 13.5238 23.5V22.5C13.5238 22.3674 13.5765 22.2402 13.6702 22.1464C13.764 22.0527 13.8912 22 14.0238 22H23.0238C23.1564 22 23.2836 22.0527 23.3774 22.1464C23.4711 22.2402 23.5238 22.3674 23.5238 22.5V23.5C23.5238 23.6326 23.4711 23.7598 23.3774 23.8536C23.2836 23.9473 23.1564 24 23.0238 24ZM20.0238 21H26.5238V19H20.0238C19.8912 19 19.764 19.0527 19.6702 19.1464C19.5765 19.2402 19.5238 19.3674 19.5238 19.5V20.5C19.5238 20.6326 19.5765 20.7598 19.6702 20.8536C19.764 20.9473 19.8912 21 20.0238 21Z" fill="#8BBF8A"/>
<path d="M4.0238 28H17.0238C17.4216 28 17.8032 27.842 18.0845 27.5607C18.3658 27.2794 18.5238 26.8978 18.5238 26.5V13.5C18.5238 13.1022 18.3658 12.7206 18.0845 12.4393C17.8032 12.158 17.4216 12 17.0238 12H4.0238C3.62598 12 3.24445 12.158 2.96314 12.4393C2.68184 12.7206 2.5238 13.1022 2.5238 13.5V26.5C2.5238 26.8978 2.68184 27.2794 2.96314 27.5607C3.24445 27.842 3.62598 28 4.0238 28Z" fill="#31752F"/>
<path fill-rule="evenodd" clip-rule="evenodd" d="M13.7478 15.785C13.1708 15.261 12.3368 15 11.2508 15H7.62579V24.784H9.40379V21.324H11.1338C11.8298 21.324 12.4398 21.187 12.9668 20.911C13.4764 20.6522 13.8999 20.251 14.1858 19.756C14.4708 19.259 14.6138 18.693 14.6138 18.056C14.6138 17.065 14.3258 16.308 13.7478 15.785ZM10.9328 19.83H9.40279V16.515H10.9898C12.1578 16.515 12.7418 17.054 12.7418 18.131C12.7418 18.687 12.5888 19.108 12.2848 19.397C11.9798 19.686 11.5298 19.83 10.9328 19.83Z" fill="white"/>
</svg>
