<svg width="36" height="36" viewBox="0 0 36 36" fill="none" xmlns="http://www.w3.org/2000/svg">
<path d="M31 30.5C31 31.327 30.327 32 29.5 32H13V32.607C13 32.824 13.176 33 13.393 33H32.607C32.7112 33 32.8112 32.9586 32.8849 32.8849C32.9586 32.8112 33 32.7112 33 32.607V5.5H33.5V4.928L30.5 3.25V6.5H31V30.5Z" fill="white"/>
<path d="M10.5 31H29.5C29.6326 31 29.7598 30.9473 29.8536 30.8536C29.9473 30.7598 30 30.6326 30 30.5V6.5H10V30.5C10 30.6326 10.0527 30.7598 10.1465 30.8536C10.2402 30.9473 10.3674 31 10.5 31Z" fill="white"/>
<path opacity="0.64" d="M33 5.5V32.607C33 32.7112 32.9586 32.8112 32.8849 32.8849C32.8112 32.9586 32.7112 33 32.607 33H13.393C13.2888 33 13.1888 32.9586 13.1151 32.8849C13.0414 32.8112 13 32.7112 13 32.607V32H29.5C30.327 32 31 31.327 31 30.5V6.5H30V30.5C30 30.6326 29.9473 30.7598 29.8536 30.8536C29.7598 30.9473 29.6326 31 29.5 31H10.5C10.3674 31 10.2402 30.9473 10.1465 30.8536C10.0527 30.7598 10 30.6326 10 30.5V6.5H9.00002V30.5C9.00002 31.327 9.67302 32 10.5 32H12V32.607C12 33.375 12.625 34 13.393 34H32.607C33.375 34 34 33.375 34 32.607V5.5H33Z" fill="#605E5C"/>
<path d="M30.952 2H9.89202C9.40002 2 9.00002 2.4 9.00002 2.893V7H31V5.484C31.0002 5.35114 31.0381 5.22106 31.1092 5.10887C31.1804 4.99668 31.282 4.90699 31.4021 4.85023C31.5222 4.79347 31.656 4.77196 31.7878 4.7882C31.9197 4.80445 32.0443 4.85778 32.147 4.942L34 6.464V5.048C33.9995 4.8116 33.9053 4.58504 33.738 4.418L31.583 2.262C31.4157 2.09448 31.1888 2.00024 30.952 2Z" fill="#31752F"/>
<path d="M25.5 25.5H14.5C14.2348 25.5 13.9804 25.3946 13.7929 25.2071C13.6054 25.0196 13.5 24.7652 13.5 24.5V14.5H25.5C25.7652 14.5 26.0196 14.6054 26.2071 14.7929C26.3947 14.9804 26.5 15.2348 26.5 15.5V24.5C26.5 24.7652 26.3947 25.0196 26.2071 25.2071C26.0196 25.3946 25.7652 25.5 25.5 25.5Z" stroke="#C8C6C4"/>
<path fill-rule="evenodd" clip-rule="evenodd" d="M21.5 18H12.5C12.3674 18 12.2402 17.9473 12.1465 17.8536C12.0527 17.7598 12 17.6326 12 17.5V16.5C12 16.3674 12.0527 16.2402 12.1465 16.1464C12.2402 16.0527 12.3674 16 12.5 16H21.5C21.6326 16 21.7598 16.0527 21.8536 16.1464C21.9473 16.2402 22 16.3674 22 16.5V17.5C22 17.6326 21.9473 17.7598 21.8536 17.8536C21.7598 17.9473 21.6326 18 21.5 18ZM22.5 24H13.5C13.3674 24 13.2402 23.9473 13.1465 23.8536C13.0527 23.7598 13 23.6326 13 23.5V22.5C13 22.3674 13.0527 22.2402 13.1465 22.1464C13.2402 22.0527 13.3674 22 13.5 22H22.5C22.6326 22 22.7598 22.0527 22.8536 22.1464C22.9473 22.2402 23 22.3674 23 22.5V23.5C23 23.6326 22.9473 23.7598 22.8536 23.8536C22.7598 23.9473 22.6326 24 22.5 24ZM19.5 21H26V19H19.5C19.3674 19 19.2402 19.0527 19.1465 19.1464C19.0527 19.2402 19 19.3674 19 19.5V20.5C19 20.6326 19.0527 20.7598 19.1465 20.8536C19.2402 20.9473 19.3674 21 19.5 21Z" fill="#8BBF8A"/>
<path d="M3.50002 28H16.5C16.8978 28 17.2794 27.842 17.5607 27.5607C17.842 27.2794 18 26.8978 18 26.5V13.5C18 13.1022 17.842 12.7206 17.5607 12.4393C17.2794 12.158 16.8978 12 16.5 12H3.50002C3.10219 12 2.72066 12.158 2.43936 12.4393C2.15805 12.7206 2.00002 13.1022 2.00002 13.5V26.5C2.00002 26.8978 2.15805 27.2794 2.43936 27.5607C2.72066 27.842 3.10219 28 3.50002 28Z" fill="#31752F"/>
<path fill-rule="evenodd" clip-rule="evenodd" d="M13.224 15.785C12.647 15.261 11.813 15 10.727 15H7.10202V24.784H8.88002V21.324H10.61C11.306 21.324 11.916 21.187 12.443 20.911C12.9527 20.6522 13.3762 20.251 13.662 19.756C13.947 19.259 14.09 18.693 14.09 18.056C14.09 17.065 13.802 16.308 13.224 15.785ZM10.409 19.83H8.87902V16.515H10.466C11.634 16.515 12.218 17.054 12.218 18.131C12.218 18.687 12.065 19.108 11.761 19.397C11.456 19.686 11.006 19.83 10.409 19.83Z" fill="white"/>
</svg>
