<svg width="37" height="36" viewBox="0 0 37 36" fill="none" xmlns="http://www.w3.org/2000/svg">
<path d="M8.00507 33H29.2191C29.4351 33 29.6191 32.83 29.6191 32.628V10H24.0191C23.2471 10 22.6191 9.372 22.6191 8.6V3H8.01907C7.80307 3 7.61907 3.17 7.61907 3.372V32.642C7.61907 32.839 7.79207 33 8.00507 33Z" fill="white"/>
<path d="M28.8231 8.99994L23.6191 3.81494V8.59994C23.6191 8.81994 23.7991 8.99994 24.0191 8.99994H28.8231Z" fill="white"/>
<path opacity="0.64" fill-rule="evenodd" clip-rule="evenodd" d="M30.2321 8.993L23.6371 2.421C23.3663 2.15221 23.0006 2.00095 22.6191 2H8.01907C7.24707 2 6.61907 2.615 6.61907 3.372V32.642C6.61907 33.39 7.24107 34 8.00507 34H29.2191C29.9911 34 30.6191 33.385 30.6191 32.628V9.923C30.6191 9.577 30.4791 9.237 30.2321 8.993ZM23.6191 3.815L28.8231 9H24.0191C23.913 9 23.8112 8.95786 23.7362 8.88284C23.6612 8.80783 23.6191 8.70609 23.6191 8.6V3.815ZM29.2191 33C29.4351 33 29.6191 32.83 29.6191 32.628V10H24.0191C23.2471 10 22.6191 9.372 22.6191 8.6V3H8.01907C7.80307 3 7.61907 3.17 7.61907 3.372V32.642C7.61907 32.84 7.79207 33 8.00507 33H29.2191Z" fill="#605E5C"/>
</svg>
