<svg width="37" height="36" viewBox="0 0 37 36" fill="none" xmlns="http://www.w3.org/2000/svg">
<path d="M7.81461 33H29.0286C29.2446 33 29.4286 32.83 29.4286 32.628V10H23.8286C23.0566 10 22.4286 9.372 22.4286 8.6V3H7.82861C7.61261 3 7.42861 3.17 7.42861 3.372V32.642C7.42861 32.839 7.60161 33 7.81461 33Z" fill="white"/>
<path d="M28.6326 8.99994L23.4286 3.81494V8.59994C23.4286 8.81994 23.6086 8.99994 23.8286 8.99994H28.6326Z" fill="white"/>
<path opacity="0.64" fill-rule="evenodd" clip-rule="evenodd" d="M30.0416 8.993L23.4466 2.421C23.1759 2.15221 22.8101 2.00095 22.4286 2H7.82861C7.05661 2 6.42861 2.615 6.42861 3.372V32.642C6.42861 33.39 7.05061 34 7.81461 34H29.0286C29.8006 34 30.4286 33.385 30.4286 32.628V9.923C30.4286 9.577 30.2886 9.237 30.0416 8.993ZM23.4286 3.815L28.6326 9H23.8286C23.7225 9 23.6208 8.95786 23.5458 8.88284C23.4708 8.80783 23.4286 8.70609 23.4286 8.6V3.815ZM29.0286 33C29.2446 33 29.4286 32.83 29.4286 32.628V10H23.8286C23.0566 10 22.4286 9.372 22.4286 8.6V3H7.82861C7.61261 3 7.42861 3.17 7.42861 3.372V32.642C7.42861 32.84 7.60161 33 7.81461 33H29.0286Z" fill="#605E5C"/>
</svg>
