<svg width="37" height="36" viewBox="0 0 37 36" fill="none" xmlns="http://www.w3.org/2000/svg">
<path d="M5.16666 28.101H32.1667C32.2993 28.101 32.4264 28.0483 32.5202 27.9545C32.614 27.8607 32.6667 27.7336 32.6667 27.601V8.77095L19.0517 22.106C18.9584 22.198 18.8327 22.2497 18.7017 22.2497C18.5706 22.2497 18.4449 22.198 18.3517 22.106L4.66666 8.69995V27.601C4.66666 27.7336 4.71934 27.8607 4.8131 27.9545C4.90687 28.0483 5.03405 28.101 5.16666 28.101Z" fill="white"/>
<path d="M32.0887 7.93604H5.31467L18.7017 21.049L32.0887 7.93604Z" fill="white"/>
<path opacity="0.64" fill-rule="evenodd" clip-rule="evenodd" d="M32.1667 7H5.16666C4.76883 7 4.3873 7.15804 4.106 7.43934C3.82469 7.72064 3.66666 8.10218 3.66666 8.5V27.5C3.66666 27.8978 3.82469 28.2794 4.106 28.5607C4.3873 28.842 4.76883 29 5.16666 29H32.1667C32.5645 29 32.946 28.842 33.2273 28.5607C33.5086 28.2794 33.6667 27.8978 33.6667 27.5V8.5C33.6667 8.10218 33.5086 7.72064 33.2273 7.43934C32.946 7.15804 32.5645 7 32.1667 7ZM32.0887 8L18.7017 21.114L5.31466 8H32.0887ZM5.16666 28H32.1667C32.2993 28 32.4264 27.9473 32.5202 27.8536C32.614 27.7598 32.6667 27.6326 32.6667 27.5V8.668L19.0517 22.006C18.9584 22.0981 18.8327 22.1497 18.7017 22.1497C18.5706 22.1497 18.4449 22.0981 18.3517 22.006L4.66666 8.6V27.5C4.66666 27.6326 4.71933 27.7598 4.8131 27.8536C4.90687 27.9473 5.03405 28 5.16666 28Z" fill="#605E5C"/>
</svg>
