<svg width="37" height="36" viewBox="0 0 37 36" fill="none" xmlns="http://www.w3.org/2000/svg">
<path d="M31.3334 30.5C31.3334 31.327 30.6604 32 29.8334 32H13.3334V32.607C13.3334 32.824 13.5094 33 13.7264 33H32.9404C33.0446 33 33.1446 32.9586 33.2183 32.8849C33.292 32.8112 33.3334 32.7112 33.3334 32.607V5.5H33.8334V4.928L30.8334 3.25V6.5H31.3334V30.5Z" fill="white"/>
<path d="M10.8334 31H29.8334C29.966 31 30.0932 30.9473 30.1869 30.8536C30.2807 30.7598 30.3334 30.6326 30.3334 30.5V6.5H10.3334V30.5C10.3334 30.6326 10.3861 30.7598 10.4798 30.8536C10.5736 30.9473 10.7008 31 10.8334 31Z" fill="white"/>
<path opacity="0.64" d="M33.3334 5.5V32.607C33.3334 32.7112 33.292 32.8112 33.2183 32.8849C33.1446 32.9586 33.0446 33 32.9404 33H13.7264C13.6221 33 13.5222 32.9586 13.4485 32.8849C13.3748 32.8112 13.3334 32.7112 13.3334 32.607V32H29.8334C30.6604 32 31.3334 31.327 31.3334 30.5V6.5H30.3334V30.5C30.3334 30.6326 30.2807 30.7598 30.1869 30.8536C30.0932 30.9473 29.966 31 29.8334 31H10.8334C10.7008 31 10.5736 30.9473 10.4798 30.8536C10.3861 30.7598 10.3334 30.6326 10.3334 30.5V6.5H9.33337V30.5C9.33337 31.327 10.0064 32 10.8334 32H12.3334V32.607C12.3334 33.375 12.9584 34 13.7264 34H32.9404C33.7084 34 34.3334 33.375 34.3334 32.607V5.5H33.3334Z" fill="#605E5C"/>
<path d="M31.2854 2H10.2254C9.73337 2 9.33337 2.4 9.33337 2.893V7H31.3334V5.484C31.3336 5.35114 31.3714 5.22106 31.4426 5.10887C31.5138 4.99668 31.6153 4.90699 31.7355 4.85023C31.8556 4.79347 31.9893 4.77196 32.1212 4.7882C32.2531 4.80445 32.3776 4.85778 32.4804 4.942L34.3334 6.464V5.048C34.3329 4.8116 34.2387 4.58504 34.0714 4.418L31.9164 2.262C31.7491 2.09448 31.5221 2.00024 31.2854 2Z" fill="#31752F"/>
<path d="M25.8334 25.5H14.8334C14.5682 25.5 14.3138 25.3946 14.1263 25.2071C13.9387 25.0196 13.8334 24.7652 13.8334 24.5V14.5H25.8334C26.0986 14.5 26.3529 14.6054 26.5405 14.7929C26.728 14.9804 26.8334 15.2348 26.8334 15.5V24.5C26.8334 24.7652 26.728 25.0196 26.5405 25.2071C26.3529 25.3946 26.0986 25.5 25.8334 25.5Z" stroke="#C8C6C4"/>
<path fill-rule="evenodd" clip-rule="evenodd" d="M21.8334 18H12.8334C12.7008 18 12.5736 17.9473 12.4798 17.8536C12.3861 17.7598 12.3334 17.6326 12.3334 17.5V16.5C12.3334 16.3674 12.3861 16.2402 12.4798 16.1464C12.5736 16.0527 12.7008 16 12.8334 16H21.8334C21.966 16 22.0932 16.0527 22.1869 16.1464C22.2807 16.2402 22.3334 16.3674 22.3334 16.5V17.5C22.3334 17.6326 22.2807 17.7598 22.1869 17.8536C22.0932 17.9473 21.966 18 21.8334 18ZM22.8334 24H13.8334C13.7008 24 13.5736 23.9473 13.4798 23.8536C13.3861 23.7598 13.3334 23.6326 13.3334 23.5V22.5C13.3334 22.3674 13.3861 22.2402 13.4798 22.1464C13.5736 22.0527 13.7008 22 13.8334 22H22.8334C22.966 22 23.0932 22.0527 23.1869 22.1464C23.2807 22.2402 23.3334 22.3674 23.3334 22.5V23.5C23.3334 23.6326 23.2807 23.7598 23.1869 23.8536C23.0932 23.9473 22.966 24 22.8334 24ZM19.8334 21H26.3334V19H19.8334C19.7008 19 19.5736 19.0527 19.4798 19.1464C19.3861 19.2402 19.3334 19.3674 19.3334 19.5V20.5C19.3334 20.6326 19.3861 20.7598 19.4798 20.8536C19.5736 20.9473 19.7008 21 19.8334 21Z" fill="#8BBF8A"/>
<path d="M3.83337 28H16.8334C17.2312 28 17.6127 27.842 17.894 27.5607C18.1753 27.2794 18.3334 26.8978 18.3334 26.5V13.5C18.3334 13.1022 18.1753 12.7206 17.894 12.4393C17.6127 12.158 17.2312 12 16.8334 12H3.83337C3.43555 12 3.05402 12.158 2.77271 12.4393C2.49141 12.7206 2.33337 13.1022 2.33337 13.5V26.5C2.33337 26.8978 2.49141 27.2794 2.77271 27.5607C3.05402 27.842 3.43555 28 3.83337 28Z" fill="#31752F"/>
<path fill-rule="evenodd" clip-rule="evenodd" d="M13.5574 15.785C12.9804 15.261 12.1464 15 11.0604 15H7.43536V24.784H9.21336V21.324H10.9434C11.6394 21.324 12.2494 21.187 12.7764 20.911C13.286 20.6522 13.7095 20.251 13.9954 19.756C14.2804 19.259 14.4234 18.693 14.4234 18.056C14.4234 17.065 14.1354 16.308 13.5574 15.785ZM10.7424 19.83H9.21236V16.515H10.7994C11.9674 16.515 12.5514 17.054 12.5514 18.131C12.5514 18.687 12.3984 19.108 12.0944 19.397C11.7894 19.686 11.3394 19.83 10.7424 19.83Z" fill="white"/>
</svg>
