<svg width="37" height="36" viewBox="0 0 37 36" fill="none" xmlns="http://www.w3.org/2000/svg">
<path d="M5.44995 11.6919L5.85476 11.3028L6.25957 10.928H20.8182L21.6856 11.7928V26.2073L20.8471 27.0721L6.28848 27.0865L5.47887 26.2793L5.44995 11.6919Z" fill="#107C41"/>
<path d="M9.61371 10.9279C9.42577 10.9279 9.39685 10.3946 9.39685 6.96396V3H26.5289L33.6853 10.1351V35H9.39685V31.036C9.39685 27.6054 9.42577 27.0721 9.61371 27.0721C9.80166 27.0721 9.83057 27.591 9.83057 34.5676H33.2515V10.4955L26.2397 10.4234L26.1674 3.43243H9.83057V7.18018C9.83057 10.409 9.80166 10.9279 9.61371 10.9279Z" fill="#797774"/>
<path d="M9.83057 10.9279V7.18012V3.43237H26.1963L26.2397 10.4234L33.2515 10.4954V34.5675H9.83057V27.072H20.8471L21.6856 26.2071V11.7927L20.8182 10.9279H9.83057Z" fill="#FAFAFA"/>
<path d="M22.5531 23.6127V23.1802V22.7478H31.2275V23.6127H22.5531Z" fill="#C8C6C4"/>
<path d="M22.5531 25.919V25.4865V25.0541H31.2275V25.919H22.5531Z" fill="#C8C6C4"/>
<path d="M26.6011 10.0631V6.96397C26.6011 5.26307 26.6301 3.86487 26.6734 3.86487C26.7168 3.86487 28.1336 5.26307 32.8901 10.0631H26.6011Z" fill="#FAFAFA"/>
<path d="M24.794 12.6865C25.1988 12.4271 25.7048 12.1532 25.9506 12.0811C26.1963 12.009 26.8469 11.9658 27.3963 11.9946C27.9746 12.009 28.6107 12.1388 28.871 12.2685C29.1312 12.4126 29.5794 12.7298 29.8685 12.9748C30.1577 13.2343 30.5625 13.7676 30.7504 14.1712C30.9528 14.5604 31.1552 15.2379 31.2998 16.4054H29.9986L29.883 15.8C29.8251 15.4541 29.6227 14.9208 29.4348 14.6036C29.2469 14.2865 28.8854 13.8829 28.6107 13.7099C28.336 13.537 27.83 13.3496 27.4686 13.2919C26.9626 13.2199 26.6445 13.2775 26.0373 13.537C25.5747 13.7388 25.0397 14.128 24.7651 14.4595C24.4904 14.7766 24.1868 15.3244 24.0856 15.6847C23.8978 16.3327 23.8832 16.3334 23.2345 16.3621L23.2326 16.3622C22.7699 16.391 22.5531 16.3478 22.5531 16.218C22.5531 16.1316 22.6687 15.6991 22.8133 15.2811C22.9434 14.8487 23.2904 14.2 23.5651 13.8397C23.8542 13.4649 24.4036 12.946 24.794 12.6865Z" fill="#33C481"/>
<path d="M23.0591 19C22.8711 18.6397 22.6832 18.1063 22.6254 17.818L22.5097 17.2703H23.1892C23.6952 17.2703 23.8687 17.328 23.941 17.5298C23.9844 17.6595 24.1578 18.0631 24.3313 18.409C24.5048 18.755 24.8807 19.2018 25.1554 19.3748C25.4301 19.5622 25.9506 19.7496 26.312 19.8072C26.818 19.8793 27.1361 19.8217 27.7433 19.5622C28.177 19.3748 28.7264 18.9856 28.9577 18.7117C29.2035 18.4379 29.4782 17.991 29.5938 17.746C29.7673 17.3135 29.8396 17.2703 30.4324 17.2703C31.0685 17.2703 31.0829 17.2847 30.9962 17.6739C30.9528 17.8901 30.8082 18.2793 30.6781 18.5532C30.548 18.8271 30.201 19.3171 29.9119 19.6343C29.6227 19.9658 29.0444 20.4126 28.6107 20.6577C27.9168 21.0469 27.6999 21.0901 26.6011 21.0901C25.7048 21.0901 25.2422 21.018 24.8952 20.8307C24.6494 20.7009 24.2012 20.3694 23.9121 20.1244C23.6229 19.8649 23.2326 19.3604 23.0591 19Z" fill="#33C481"/>
<path d="M11.2041 16.881C10.5246 15.6991 9.97518 14.7045 9.97518 14.6468C9.97518 14.5747 10.4234 14.5315 11.9992 14.5315L13.6907 17.9189L14.3847 16.6216C14.775 15.9153 15.2088 15.1513 15.3533 14.9351C15.5847 14.5747 15.7003 14.5315 16.481 14.5315C16.9581 14.5315 17.3485 14.5892 17.3485 14.6756C17.3485 14.7477 16.7991 15.7135 16.1196 16.809C15.4545 17.8901 14.8907 18.8558 14.8907 18.9279C14.8907 19.0144 15.4545 19.9801 16.134 21.0901C16.828 22.2 17.4063 23.1946 17.4352 23.2955C17.4786 23.4252 17.2328 23.454 15.4401 23.3964L13.6184 19.9369L11.739 23.3964L10.7125 23.4396C10.1487 23.454 9.68604 23.4252 9.68604 23.3675C9.68604 23.2955 10.3077 22.3009 12.4329 19L11.2041 16.881Z" fill="white"/>
</svg>
