<svg width="37" height="36" viewBox="0 0 37 36" fill="none" xmlns="http://www.w3.org/2000/svg">
<path d="M5.44992 32H32.4499C32.7249 32 32.9499 31.775 32.9499 31.5V4.5C32.9499 4.225 32.7249 4 32.4499 4H5.44992C5.17492 4 4.94992 4.225 4.94992 4.5V31.5C4.94992 31.775 5.17492 32 5.44992 32Z" fill="white"/>
<path opacity="0.64" fill-rule="evenodd" clip-rule="evenodd" d="M5.44992 33H32.4499C33.2769 33 33.9499 32.327 33.9499 31.5V4.5C33.9499 3.673 33.2769 3 32.4499 3H5.44992C4.62292 3 3.94992 3.673 3.94992 4.5V31.5C3.94992 32.327 4.62292 33 5.44992 33ZM4.94992 4.5C4.94992 4.36739 5.0026 4.24021 5.09637 4.14645C5.19014 4.05268 5.31731 4 5.44992 4H32.4499C32.5825 4 32.7097 4.05268 32.8035 4.14645C32.8972 4.24021 32.9499 4.36739 32.9499 4.5V31.5C32.9499 31.6326 32.8972 31.7598 32.8035 31.8536C32.7097 31.9473 32.5825 32 32.4499 32H5.44992C5.31731 32 5.19014 31.9473 5.09637 31.8536C5.0026 31.7598 4.94992 31.6326 4.94992 31.5V4.5Z" fill="#605E5C"/>
<path d="M14.4689 24.492C15.5839 24.492 16.4879 23.602 16.4879 22.502C16.4879 21.404 15.5839 20.514 14.4689 20.514C13.3539 20.514 12.4499 21.404 12.4499 22.503C12.4499 23.601 13.3539 24.492 14.4689 24.492ZM22.4589 23.455C23.5589 23.455 24.4489 22.577 24.4489 21.493C24.4489 20.41 23.5589 19.531 22.4589 19.531C21.3589 19.531 20.4679 20.41 20.4679 21.493C20.4679 22.577 21.3589 23.455 22.4579 23.455H22.4589Z" stroke="#E8467C" stroke-linecap="round" stroke-linejoin="round"/>
<path d="M15.9899 22.294C15.9899 22.4266 16.0426 22.5538 16.1364 22.6476C16.2301 22.7413 16.3573 22.794 16.4899 22.794C16.6225 22.794 16.7497 22.7413 16.8435 22.6476C16.9372 22.5538 16.9899 22.4266 16.9899 22.294H15.9899ZM16.4899 13.38L16.3609 12.897C16.2543 12.9252 16.1601 12.9879 16.0928 13.0752C16.0255 13.1626 15.989 13.2697 15.9889 13.38H16.4889H16.4899ZM24.4499 11.273H24.9499C24.95 11.1964 24.9325 11.1207 24.8987 11.052C24.865 10.9832 24.8158 10.9231 24.7551 10.8763C24.6945 10.8295 24.6238 10.7973 24.5487 10.7822C24.4736 10.7671 24.396 10.7694 24.3219 10.789L24.4499 11.273ZM23.9499 21.494C23.9499 21.6266 24.0026 21.7538 24.0964 21.8476C24.1901 21.9413 24.3173 21.994 24.4499 21.994C24.5825 21.994 24.7097 21.9413 24.8035 21.8476C24.8972 21.7538 24.9499 21.6266 24.9499 21.494H23.9499ZM16.5159 15.922C16.4522 15.9378 16.3921 15.9659 16.3393 16.0049C16.2864 16.0438 16.2417 16.0928 16.2078 16.1491C16.1738 16.2053 16.1513 16.2676 16.1415 16.3326C16.1316 16.3975 16.1347 16.4637 16.1504 16.5275C16.1662 16.5913 16.1943 16.6513 16.2333 16.7042C16.2723 16.757 16.3212 16.8017 16.3775 16.8357C16.4337 16.8696 16.4961 16.8921 16.561 16.902C16.6259 16.9118 16.6922 16.9088 16.7559 16.893L16.5159 15.922ZM24.1279 15.078C24.2567 15.0462 24.3675 14.9645 24.4361 14.8509C24.5046 14.7374 24.5252 14.6013 24.4934 14.4725C24.4616 14.3437 24.3799 14.2329 24.2664 14.1643C24.1528 14.0958 24.0167 14.0752 23.8879 14.107L24.1279 15.078ZM16.9889 22.294V13.38H15.9889V22.294H16.9889ZM16.6169 13.864L24.5779 11.756L24.3219 10.789L16.3609 12.897L16.6169 13.864ZM23.9499 11.273V21.494H24.9499V11.273H23.9499ZM16.7559 16.893L24.1279 15.078L23.8879 14.107L16.5169 15.922L16.7559 16.893Z" fill="#E8467C"/>
</svg>
