<svg width="37" height="36" viewBox="0 0 37 36" fill="none" xmlns="http://www.w3.org/2000/svg">
<path d="M4.84995 32H31.85C32.125 32 32.35 31.775 32.35 31.5V4.5C32.35 4.225 32.125 4 31.85 4H4.84995C4.57495 4 4.34995 4.225 4.34995 4.5V31.5C4.34995 31.775 4.57495 32 4.84995 32Z" fill="white"/>
<path opacity="0.64" fill-rule="evenodd" clip-rule="evenodd" d="M4.84995 33H31.85C32.677 33 33.35 32.327 33.35 31.5V4.5C33.35 3.673 32.677 3 31.85 3H4.84995C4.02295 3 3.34995 3.673 3.34995 4.5V31.5C3.34995 32.327 4.02295 33 4.84995 33ZM4.34995 4.5C4.34995 4.36739 4.40263 4.24021 4.4964 4.14645C4.59017 4.05268 4.71734 4 4.84995 4H31.85C31.9826 4 32.1097 4.05268 32.2035 4.14645C32.2973 4.24021 32.35 4.36739 32.35 4.5V31.5C32.35 31.6326 32.2973 31.7598 32.2035 31.8536C32.1097 31.9473 31.9826 32 31.85 32H4.84995C4.71734 32 4.59017 31.9473 4.4964 31.8536C4.40263 31.7598 4.34995 31.6326 4.34995 31.5V4.5Z" fill="#605E5C"/>
<path d="M13.869 24.492C14.984 24.492 15.888 23.602 15.888 22.502C15.888 21.404 14.984 20.514 13.869 20.514C12.754 20.514 11.85 21.404 11.85 22.503C11.85 23.601 12.754 24.492 13.869 24.492ZM21.859 23.455C22.959 23.455 23.849 22.577 23.849 21.493C23.849 20.41 22.959 19.531 21.859 19.531C20.759 19.531 19.868 20.41 19.868 21.493C19.868 22.577 20.759 23.455 21.858 23.455H21.859Z" stroke="#E8467C" stroke-linecap="round" stroke-linejoin="round"/>
<path d="M15.39 22.294C15.39 22.4266 15.4426 22.5538 15.5364 22.6476C15.6302 22.7413 15.7573 22.794 15.89 22.794C16.0226 22.794 16.1497 22.7413 16.2435 22.6476C16.3373 22.5538 16.39 22.4266 16.39 22.294H15.39ZM15.89 13.38L15.761 12.897C15.6544 12.9252 15.5601 12.9879 15.4928 13.0752C15.4255 13.1626 15.389 13.2697 15.389 13.38H15.889H15.89ZM23.85 11.273H24.35C24.3501 11.1964 24.3325 11.1207 24.2988 11.052C24.265 10.9832 24.2159 10.9231 24.1552 10.8763C24.0945 10.8295 24.0239 10.7973 23.9487 10.7822C23.8736 10.7671 23.796 10.7694 23.722 10.789L23.85 11.273ZM23.35 21.494C23.35 21.6266 23.4026 21.7538 23.4964 21.8476C23.5902 21.9413 23.7173 21.994 23.85 21.994C23.9826 21.994 24.1097 21.9413 24.2035 21.8476C24.2973 21.7538 24.35 21.6266 24.35 21.494H23.35ZM15.916 15.922C15.8522 15.9378 15.7922 15.9659 15.7393 16.0049C15.6864 16.0438 15.6417 16.0928 15.6078 16.1491C15.5739 16.2053 15.5513 16.2676 15.5415 16.3326C15.5316 16.3975 15.5347 16.4637 15.5505 16.5275C15.5662 16.5913 15.5944 16.6513 15.6333 16.7042C15.6723 16.757 15.7213 16.8017 15.7775 16.8357C15.8337 16.8696 15.8961 16.8921 15.961 16.902C16.026 16.9118 16.0922 16.9088 16.156 16.893L15.916 15.922ZM23.528 15.078C23.6567 15.0462 23.7676 14.9645 23.8361 14.8509C23.9047 14.7374 23.9253 14.6013 23.8935 14.4725C23.8616 14.3437 23.78 14.2329 23.6664 14.1643C23.5528 14.0958 23.4167 14.0752 23.288 14.107L23.528 15.078ZM16.389 22.294V13.38H15.389V22.294H16.389ZM16.017 13.864L23.978 11.756L23.722 10.789L15.761 12.897L16.017 13.864ZM23.35 11.273V21.494H24.35V11.273H23.35ZM16.156 16.893L23.528 15.078L23.288 14.107L15.917 15.922L16.156 16.893Z" fill="#E8467C"/>
</svg>
