<svg width="37" height="36" viewBox="0 0 37 36" fill="none" xmlns="http://www.w3.org/2000/svg">
<path d="M7.62412 33H28.8381C29.0541 33 29.2381 32.83 29.2381 32.628V10H23.6381C22.8661 10 22.2381 9.372 22.2381 8.6V3H7.63812C7.42212 3 7.23812 3.17 7.23812 3.372V32.642C7.23812 32.839 7.41112 33 7.62412 33Z" fill="white"/>
<path d="M28.4421 8.99994L23.2381 3.81494V8.59994C23.2381 8.81994 23.4181 8.99994 23.6381 8.99994H28.4421Z" fill="white"/>
<path opacity="0.64" fill-rule="evenodd" clip-rule="evenodd" d="M29.8511 8.993L23.2561 2.421C22.9854 2.15221 22.6196 2.00095 22.2381 2H7.63812C6.86612 2 6.23812 2.615 6.23812 3.372V32.642C6.23812 33.39 6.86012 34 7.62412 34H28.8381C29.6101 34 30.2381 33.385 30.2381 32.628V9.923C30.2381 9.577 30.0981 9.237 29.8511 8.993ZM23.2381 3.815L28.4421 9H23.6381C23.532 9 23.4303 8.95786 23.3553 8.88284C23.2803 8.80783 23.2381 8.70609 23.2381 8.6V3.815ZM28.8381 33C29.0541 33 29.2381 32.83 29.2381 32.628V10H23.6381C22.8661 10 22.2381 9.372 22.2381 8.6V3H7.63812C7.42212 3 7.23812 3.17 7.23812 3.372V32.642C7.23812 32.84 7.41112 33 7.62412 33H28.8381Z" fill="#605E5C"/>
</svg>
