<svg width="37" height="36" viewBox="0 0 37 36" fill="none" xmlns="http://www.w3.org/2000/svg">
<path opacity="0.64" fill-rule="evenodd" clip-rule="evenodd" d="M30.3499 34H10.3499C9.52288 34 8.84988 33.327 8.84988 32.5V3.5C8.84988 2.673 9.52288 2 10.3499 2H30.3499C31.1769 2 31.8499 2.673 31.8499 3.5V4H33.3499C34.1769 4 34.8499 4.673 34.8499 5.5V10.5C34.8499 11.327 34.1769 12 33.3499 12H31.8499V32.5C31.8499 33.327 31.1769 34 30.3499 34ZM10.3499 3C10.2173 3 10.0901 3.05268 9.99633 3.14645C9.90256 3.24021 9.84988 3.36739 9.84988 3.5V32.5C9.84988 32.6326 9.90256 32.7598 9.99633 32.8536C10.0901 32.9473 10.2173 33 10.3499 33H30.3499C30.4825 33 30.6097 32.9473 30.7034 32.8536C30.7972 32.7598 30.8499 32.6326 30.8499 32.5V12C30.8499 11.7348 30.9552 11.4804 31.1428 11.2929C31.3303 11.1054 31.5847 11 31.8499 11H33.3499C33.4825 11 33.6097 10.9473 33.7034 10.8536C33.7972 10.7598 33.8499 10.6326 33.8499 10.5V5.5C33.8499 5.36739 33.7972 5.24021 33.7034 5.14645C33.6097 5.05268 33.4825 5 33.3499 5H31.8499C31.5847 5 31.3303 4.89464 31.1428 4.70711C30.9552 4.51957 30.8499 4.26522 30.8499 4V3.5C30.8499 3.36739 30.7972 3.24021 30.7034 3.14645C30.6097 3.05268 30.4825 3 30.3499 3H10.3499Z" fill="#605E5C"/>
<path d="M33.3499 11C33.4825 11 33.6097 10.9473 33.7034 10.8536C33.7972 10.7598 33.8499 10.6326 33.8499 10.5V5.5C33.8499 5.36739 33.7972 5.24021 33.7034 5.14645C33.6097 5.05268 33.4825 5 33.3499 5H31.8499C31.5847 5 31.3303 4.89464 31.1428 4.70711C30.9552 4.51957 30.8499 4.26522 30.8499 4V3.5C30.8499 3.36739 30.7972 3.24021 30.7034 3.14645C30.6097 3.05268 30.4825 3 30.3499 3H10.3499C10.2173 3 10.0901 3.05268 9.99633 3.14645C9.90256 3.24021 9.84988 3.36739 9.84988 3.5V32.5C9.84988 32.6326 9.90256 32.7598 9.99633 32.8536C10.0901 32.9473 10.2173 33 10.3499 33H30.3499C30.4825 33 30.6097 32.9473 30.7034 32.8536C30.7972 32.7598 30.8499 32.6326 30.8499 32.5V12C30.8499 11.7348 30.9552 11.4804 31.1428 11.2929C31.3303 11.1054 31.5847 11 31.8499 11H33.3499Z" fill="white"/>
<path d="M4.34988 28H17.3499C17.7477 28 18.1292 27.842 18.4105 27.5607C18.6918 27.2794 18.8499 26.8978 18.8499 26.5V13.5C18.8499 13.1022 18.6918 12.7206 18.4105 12.4393C18.1292 12.158 17.7477 12 17.3499 12H4.34988C3.95206 12 3.57053 12.158 3.28922 12.4393C3.00792 12.7206 2.84988 13.1022 2.84988 13.5V26.5C2.84988 26.8978 3.00792 27.2794 3.28922 27.5607C3.57053 27.842 3.95206 28 4.34988 28Z" fill="#7719AA"/>
<path d="M7.01687 15.344H8.96687L12.7959 21.554C12.9699 21.833 13.1009 22.057 13.1889 22.227H13.2129C13.1759 21.992 13.1579 21.567 13.1579 20.953V15.343H14.8199V24.708H12.9949L9.02287 18.328C8.88782 18.1173 8.76881 17.8966 8.66687 17.668H8.63587C8.66887 17.956 8.68587 18.422 8.68587 19.066V24.708H7.01587L7.01687 15.344Z" fill="white"/>
</svg>
