<svg width="37" height="36" viewBox="0 0 37 36" fill="none" xmlns="http://www.w3.org/2000/svg">
<path d="M5.35715 28.101H32.3571C32.4898 28.101 32.6169 28.0483 32.7107 27.9545C32.8045 27.8607 32.8571 27.7336 32.8571 27.601V8.77095L19.2421 22.106C19.1489 22.198 19.0232 22.2497 18.8921 22.2497C18.7611 22.2497 18.6354 22.198 18.5421 22.106L4.85715 8.69995V27.601C4.85715 27.7336 4.90983 27.8607 5.00359 27.9545C5.09736 28.0483 5.22454 28.101 5.35715 28.101Z" fill="white"/>
<path d="M32.2791 7.93604H5.50514L18.8921 21.049L32.2791 7.93604Z" fill="white"/>
<path opacity="0.64" fill-rule="evenodd" clip-rule="evenodd" d="M32.3571 7H5.35715C4.95932 7 4.57779 7.15804 4.29649 7.43934C4.01518 7.72064 3.85715 8.10218 3.85715 8.5V27.5C3.85715 27.8978 4.01518 28.2794 4.29649 28.5607C4.57779 28.842 4.95932 29 5.35715 29H32.3571C32.755 29 33.1365 28.842 33.4178 28.5607C33.6991 28.2794 33.8571 27.8978 33.8571 27.5V8.5C33.8571 8.10218 33.6991 7.72064 33.4178 7.43934C33.1365 7.15804 32.755 7 32.3571 7ZM32.2791 8L18.8921 21.114L5.50515 8H32.2791ZM5.35715 28H32.3571C32.4898 28 32.6169 27.9473 32.7107 27.8536C32.8045 27.7598 32.8571 27.6326 32.8571 27.5V8.668L19.2421 22.006C19.1489 22.0981 19.0232 22.1497 18.8921 22.1497C18.7611 22.1497 18.6354 22.0981 18.5421 22.006L4.85715 8.6V27.5C4.85715 27.6326 4.90983 27.7598 5.00359 27.8536C5.09736 27.9473 5.22454 28 5.35715 28Z" fill="#605E5C"/>
</svg>
