<svg width="37" height="36" viewBox="0 0 37 36" fill="none" xmlns="http://www.w3.org/2000/svg">
<path d="M7.9359 33H29.1499C29.3659 33 29.5499 32.83 29.5499 32.628V10H23.9499C23.1779 10 22.5499 9.372 22.5499 8.6V3H7.9499C7.7339 3 7.5499 3.17 7.5499 3.372V32.642C7.5499 32.839 7.7229 33 7.9359 33Z" fill="white"/>
<path d="M28.7539 8.99994L23.5499 3.81494V8.59994C23.5499 8.81994 23.7299 8.99994 23.9499 8.99994H28.7539Z" fill="white"/>
<path opacity="0.64" fill-rule="evenodd" clip-rule="evenodd" d="M30.1629 8.993L23.5679 2.421C23.2972 2.15221 22.9314 2.00095 22.5499 2H7.9499C7.1779 2 6.5499 2.615 6.5499 3.372V32.642C6.5499 33.39 7.1719 34 7.9359 34H29.1499C29.9219 34 30.5499 33.385 30.5499 32.628V9.923C30.5499 9.577 30.4099 9.237 30.1629 8.993ZM23.5499 3.815L28.7539 9H23.9499C23.8438 9 23.7421 8.95786 23.6671 8.88284C23.592 8.80783 23.5499 8.70609 23.5499 8.6V3.815ZM29.1499 33C29.3659 33 29.5499 32.83 29.5499 32.628V10H23.9499C23.1779 10 22.5499 9.372 22.5499 8.6V3H7.9499C7.7339 3 7.5499 3.17 7.5499 3.372V32.642C7.5499 32.84 7.7229 33 7.9359 33H29.1499Z" fill="#605E5C"/>
<path fill-rule="evenodd" clip-rule="evenodd" d="M11.0499 14H26.0499C26.1825 14 26.3097 14.0527 26.4035 14.1464C26.4972 14.2402 26.5499 14.3674 26.5499 14.5C26.5499 14.6326 26.4972 14.7598 26.4035 14.8536C26.3097 14.9473 26.1825 15 26.0499 15H11.0499C10.9173 15 10.7901 14.9473 10.6963 14.8536C10.6026 14.7598 10.5499 14.6326 10.5499 14.5C10.5499 14.3674 10.6026 14.2402 10.6963 14.1464C10.7901 14.0527 10.9173 14 11.0499 14ZM26.0499 16H11.0499C10.9173 16 10.7901 16.0527 10.6963 16.1464C10.6026 16.2402 10.5499 16.3674 10.5499 16.5C10.5499 16.6326 10.6026 16.7598 10.6963 16.8536C10.7901 16.9473 10.9173 17 11.0499 17H26.0499C26.1825 17 26.3097 16.9473 26.4035 16.8536C26.4972 16.7598 26.5499 16.6326 26.5499 16.5C26.5499 16.3674 26.4972 16.2402 26.4035 16.1464C26.3097 16.0527 26.1825 16 26.0499 16ZM26.0499 18H11.0499C10.9173 18 10.7901 18.0527 10.6963 18.1464C10.6026 18.2402 10.5499 18.3674 10.5499 18.5C10.5499 18.6326 10.6026 18.7598 10.6963 18.8536C10.7901 18.9473 10.9173 19 11.0499 19H26.0499C26.1825 19 26.3097 18.9473 26.4035 18.8536C26.4972 18.7598 26.5499 18.6326 26.5499 18.5C26.5499 18.3674 26.4972 18.2402 26.4035 18.1464C26.3097 18.0527 26.1825 18 26.0499 18Z" fill="#C8C6C4"/>
<path fill-rule="evenodd" clip-rule="evenodd" d="M15.9579 22.098H21.3699C22.213 22.0988 23.0214 22.4341 23.6176 23.0303C24.2138 23.6265 24.5491 24.4349 24.5499 25.278V27.742C24.5491 28.5852 24.2138 29.3936 23.6176 29.9897C23.0214 30.5859 22.213 30.9212 21.3699 30.922H15.9579C15.1148 30.9212 14.3064 30.5859 13.7102 29.9897C13.114 29.3936 12.7787 28.5852 12.7779 27.742V25.278C12.7787 24.4349 13.114 23.6265 13.7102 23.0303C14.3064 22.4341 15.1148 22.0988 15.9579 22.098ZM23.0499 25.278C23.0499 24.8325 22.8729 24.4051 22.5578 24.0901C22.2428 23.775 21.8155 23.598 21.3699 23.598H15.9579C15.0309 23.598 14.2779 24.351 14.2779 25.278V27.742C14.2779 28.669 15.0299 29.422 15.9579 29.422H21.3699C21.8155 29.422 22.2428 29.245 22.5578 28.93C22.8729 28.6149 23.0499 28.1876 23.0499 27.742V25.278ZM30.5499 23H25.7999C25.7336 23 25.67 23.0264 25.6231 23.0732C25.5762 23.1201 25.5499 23.1837 25.5499 23.25V29.75C25.5499 29.888 25.6619 30 25.7999 30H30.5499C30.8151 30 31.0695 29.8947 31.257 29.7071C31.4445 29.5196 31.5499 29.2652 31.5499 29V24C31.5499 23.7348 31.4445 23.4805 31.257 23.2929C31.0695 23.1054 30.8151 23 30.5499 23ZM11.2999 23H6.5499C6.28468 23 6.03033 23.1054 5.84279 23.2929C5.65525 23.4805 5.5499 23.7348 5.5499 24V29C5.5499 29.2652 5.65525 29.5196 5.84279 29.7071C6.03033 29.8947 6.28468 30 6.5499 30H11.2999C11.3662 30 11.4298 29.9737 11.4767 29.9268C11.5236 29.8799 11.5499 29.8163 11.5499 29.75V23.25C11.5499 23.1837 11.5236 23.1201 11.4767 23.0732C11.4298 23.0264 11.3662 23 11.2999 23Z" fill="#D65532"/>
</svg>
