<svg width="37" height="36" viewBox="0 0 37 36" fill="none" xmlns="http://www.w3.org/2000/svg">
<path d="M7.81461 33H29.0286C29.2446 33 29.4286 32.83 29.4286 32.628V10H23.8286C23.0566 10 22.4286 9.372 22.4286 8.6V3H7.82861C7.61261 3 7.42861 3.17 7.42861 3.372V32.642C7.42861 32.839 7.60161 33 7.81461 33Z" fill="white"/>
<path d="M28.6326 8.99994L23.4286 3.81494V8.59994C23.4286 8.81994 23.6086 8.99994 23.8286 8.99994H28.6326Z" fill="white"/>
<path opacity="0.64" fill-rule="evenodd" clip-rule="evenodd" d="M30.0416 8.993L23.4466 2.421C23.1759 2.15221 22.8101 2.00095 22.4286 2H7.82861C7.05661 2 6.42861 2.615 6.42861 3.372V32.642C6.42861 33.39 7.05061 34 7.81461 34H29.0286C29.8006 34 30.4286 33.385 30.4286 32.628V9.923C30.4286 9.577 30.2886 9.237 30.0416 8.993ZM23.4286 3.815L28.6326 9H23.8286C23.7225 9 23.6208 8.95786 23.5458 8.88284C23.4708 8.80783 23.4286 8.70609 23.4286 8.6V3.815ZM29.0286 33C29.2446 33 29.4286 32.83 29.4286 32.628V10H23.8286C23.0566 10 22.4286 9.372 22.4286 8.6V3H7.82861C7.61261 3 7.42861 3.17 7.42861 3.372V32.642C7.42861 32.84 7.60161 33 7.81461 33H29.0286Z" fill="#605E5C"/>
<path d="M18.4286 22.5C19.6221 22.5 20.7667 22.0259 21.6106 21.182C22.4545 20.3381 22.9286 19.1935 22.9286 18C22.9286 16.8065 22.4545 15.6619 21.6106 14.818C20.7667 13.9741 19.6221 13.5 18.4286 13.5C17.2351 13.5 16.0905 13.9741 15.2466 14.818C14.4027 15.6619 13.9286 16.8065 13.9286 18C13.9286 19.1935 14.4027 20.3381 15.2466 21.182C16.0905 22.0259 17.2351 22.5 18.4286 22.5Z" stroke="#69AFE5"/>
<path d="M19.5536 18C19.5536 19.22 19.4316 20.285 19.1896 21.027C19.0686 21.399 18.9286 21.656 18.7876 21.811C18.6576 21.956 18.5426 22 18.4286 22V23C18.8806 23 19.2506 22.792 19.5306 22.481C19.8006 22.181 19.9966 21.779 20.1406 21.337C20.4286 20.45 20.5536 19.266 20.5536 18H19.5536ZM18.4286 22C18.3246 22 18.2136 21.959 18.0826 21.807C17.9426 21.643 17.8046 21.375 17.6856 20.988C17.4496 20.22 17.3356 19.128 17.3356 17.906H16.3356C16.3356 19.17 16.4516 20.376 16.7306 21.282C16.8686 21.734 17.0586 22.148 17.3236 22.457C17.5976 22.777 17.9686 23 18.4286 23V22ZM17.3356 17.906C17.3356 16.683 17.4506 15.643 17.6836 14.926C17.9306 14.167 18.2196 14 18.4286 14V13C17.5086 13 17.0006 13.793 16.7326 14.616C16.4516 15.48 16.3356 16.643 16.3356 17.906H17.3356ZM18.4286 14C18.5426 14 18.6576 14.044 18.7886 14.188C18.9286 14.344 19.0686 14.601 19.1896 14.973C19.4316 15.715 19.5536 16.781 19.5536 18H20.5536C20.5536 16.734 20.4286 15.55 20.1406 14.663C19.9966 14.221 19.8006 13.819 19.5306 13.519C19.2506 13.209 18.8806 13 18.4286 13V14ZM14.3386 17H22.5196V16H14.3386V17ZM22.5196 16H14.3386V17H22.5196V16ZM14.3376 20H22.5196V19H14.3386L14.3376 20ZM22.5196 19H14.3386L14.3376 20H22.5196V19Z" fill="#69AFE5"/>
<path fill-rule="evenodd" clip-rule="evenodd" d="M10.9286 26H25.9286C26.0612 26 26.1884 25.9473 26.2822 25.8536C26.3759 25.7598 26.4286 25.6326 26.4286 25.5C26.4286 25.3674 26.3759 25.2402 26.2822 25.1464C26.1884 25.0527 26.0612 25 25.9286 25H10.9286C10.796 25 10.6688 25.0527 10.5751 25.1464C10.4813 25.2402 10.4286 25.3674 10.4286 25.5C10.4286 25.6326 10.4813 25.7598 10.5751 25.8536C10.6688 25.9473 10.796 26 10.9286 26ZM10.9286 29H25.9286C26.0612 29 26.1884 28.9473 26.2822 28.8536C26.3759 28.7598 26.4286 28.6326 26.4286 28.5C26.4286 28.3674 26.3759 28.2402 26.2822 28.1464C26.1884 28.0527 26.0612 28 25.9286 28H10.9286C10.796 28 10.6688 28.0527 10.5751 28.1464C10.4813 28.2402 10.4286 28.3674 10.4286 28.5C10.4286 28.6326 10.4813 28.7598 10.5751 28.8536C10.6688 28.9473 10.796 29 10.9286 29Z" fill="#C8C6C4"/>
</svg>
