<svg width="37" height="36" viewBox="0 0 37 36" fill="none" xmlns="http://www.w3.org/2000/svg">
<path d="M5.40466 32H32.4047C32.6797 32 32.9047 31.775 32.9047 31.5V4.5C32.9047 4.225 32.6797 4 32.4047 4H5.40466C5.12966 4 4.90466 4.225 4.90466 4.5V31.5C4.90466 31.775 5.12966 32 5.40466 32Z" fill="white"/>
<path d="M22.5247 19.683L20.4687 22.793L16.9827 17.825C16.8765 17.6673 16.7332 17.538 16.5654 17.4486C16.3976 17.3592 16.2103 17.3125 16.0202 17.3125C15.83 17.3125 15.6428 17.3592 15.4749 17.4486C15.3071 17.538 15.1638 17.6673 15.0577 17.825L9.63266 25.552C9.06266 26.364 9.62466 27.5 10.5947 27.5H27.4047C28.3607 27.5 28.9247 26.395 28.3867 25.58L24.4867 19.683C24.3822 19.5172 24.2373 19.3805 24.0657 19.2857C23.8941 19.191 23.7012 19.1413 23.5052 19.1413C23.3091 19.1413 23.1163 19.191 22.9446 19.2857C22.773 19.3805 22.6282 19.5172 22.5237 19.683H22.5247Z" stroke="#A6CCC3"/>
<path d="M25.9047 13.5C26.5677 13.5 27.2036 13.2366 27.6724 12.7678C28.1413 12.2989 28.4047 11.663 28.4047 11C28.4047 10.337 28.1413 9.70107 27.6724 9.23223C27.2036 8.76339 26.5677 8.5 25.9047 8.5C25.2416 8.5 24.6057 8.76339 24.1369 9.23223C23.6681 9.70107 23.4047 10.337 23.4047 11C23.4047 11.663 23.6681 12.2989 24.1369 12.7678C24.6057 13.2366 25.2416 13.5 25.9047 13.5Z" stroke="#FF9810"/>
<path opacity="0.64" fill-rule="evenodd" clip-rule="evenodd" d="M5.40466 33H32.4047C33.2317 33 33.9047 32.327 33.9047 31.5V4.5C33.9047 3.673 33.2317 3 32.4047 3H5.40466C4.57766 3 3.90466 3.673 3.90466 4.5V31.5C3.90466 32.327 4.57766 33 5.40466 33ZM4.90466 4.5C4.90466 4.36739 4.95734 4.24021 5.05111 4.14645C5.14488 4.05268 5.27205 4 5.40466 4H32.4047C32.5373 4 32.6644 4.05268 32.7582 4.14645C32.852 4.24021 32.9047 4.36739 32.9047 4.5V31.5C32.9047 31.6326 32.852 31.7598 32.7582 31.8536C32.6644 31.9473 32.5373 32 32.4047 32H5.40466C5.27205 32 5.14488 31.9473 5.05111 31.8536C4.95734 31.7598 4.90466 31.6326 4.90466 31.5V4.5Z" fill="#605E5C"/>
</svg>
