<svg width="37" height="36" viewBox="0 0 37 36" fill="none" xmlns="http://www.w3.org/2000/svg">
<path d="M31.5101 4.22528V3.61987V3.60546C31.5101 3.11537 31.5537 3.00005 31.7573 3.01447C31.9028 3.01447 32.441 3.15861 33.9101 3.6487L33.9391 4.25411C33.9682 4.60005 33.9391 4.87393 33.881 4.87393C33.8082 4.87393 33.2555 4.72978 31.5101 4.22528Z" fill="#ED6C47"/>
<path d="M20.5282 6.90636C10.87 6.90636 9.54641 6.87753 9.54641 6.69014C9.54641 6.50276 10.87 6.47393 20.5282 6.47393C30.1864 6.47393 31.5101 6.50276 31.5101 6.69014C31.5101 6.87753 30.1864 6.90636 20.5282 6.90636Z" fill="#ED6C47"/>
<path d="M5.61907 27.0721V19.0001V10.928H21.91V27.0721H5.61907Z" fill="#C43E1C"/>
<path fill-rule="evenodd" clip-rule="evenodd" d="M33.7646 4.8739C33.9537 4.8739 33.9828 6.64687 33.9828 35H12.0191V32.5496H9.54641V29.8108C9.54641 27.4757 9.5755 27.0721 9.7646 27.0721C9.95369 27.0721 9.98278 27.4469 9.98278 32.1171H31.0737V19.5045C31.0737 8.39102 31.1028 6.89192 31.2919 6.89192C31.481 6.89192 31.5101 8.41985 31.5101 32.5496H12.4555V34.5676H33.5464V19.7207C33.5464 6.61805 33.5755 4.8739 33.7646 4.8739ZM9.7646 6.89192C9.95369 6.89192 9.98278 7.20904 9.98278 8.90994C9.98278 10.6108 9.95369 10.928 9.7646 10.928C9.5755 10.928 9.54641 10.6108 9.54641 8.90994C9.54641 7.20904 9.5755 6.89192 9.7646 6.89192Z" fill="#797774"/>
<path d="M31.51 32.5495V18.4234C31.51 10.654 31.5391 4.29724 31.5827 4.29724C31.6264 4.29724 32.0918 4.41254 33.6043 4.78726L33.6046 4.78733L33.5464 34.5675H12.4555V32.5495H31.51Z" fill="#FAFAFA"/>
<path d="M9.98274 10.9279V8.90985V6.89184H31.0737V32.1171H9.98274V27.072H21.91V10.9279H9.98274Z" fill="#FAFAFA"/>
<path d="M9.50271 4.83063C9.48817 3.95135 9.48817 3.17297 9.51726 3.11532V3.1009C9.54635 3.04324 14.5064 3 31.51 3V6.45946H9.54635L9.50271 4.83063Z" fill="#FF8F6B"/>
<path d="M22.7827 23.3964V21.2054V19H29.4737V19.4324C29.4737 19.6631 29.3282 20.2396 29.1682 20.6865C28.95 21.2775 28.6155 21.7676 28.0337 22.3297C27.4664 22.9063 26.9718 23.2378 26.3755 23.4541C25.8809 23.627 25.2118 23.7568 24.7173 23.7568C24.2518 23.7568 23.6264 23.6703 22.7827 23.3964Z" fill="#ED6C47"/>
<path d="M25.5464 18.1351L25.561 15.7423L25.59 13.3351L26.2591 13.4072C26.6228 13.436 27.2482 13.6234 27.6555 13.8252C28.0482 14.0126 28.63 14.4306 28.9646 14.7477C29.2846 15.0792 29.7064 15.6558 29.8955 16.045C30.0991 16.4486 30.2882 17.0684 30.4191 18.1351H25.5464Z" fill="#FFC7B5"/>
<path d="M6.92818 25.7748V19V12.2252H20.6009V25.7748H6.92818Z" fill="#FAFAFA"/>
<path d="M22.7245 14.5604L23.1609 14.4163C23.3936 14.3298 23.83 14.2577 24.6736 14.2433V19H22.7827L22.7245 14.5604Z" fill="#FF8F6B"/>
<path d="M8.09186 23.7568V19V14.2433H19.4373V23.7568H8.09186Z" fill="#C43E1C"/>
<path d="M8.96451 16.4055V15.8289V15.2523H18.5645V16.4055H8.96451Z" fill="#FAFAFA"/>
<path d="M9.4736 18.6397C9.70633 18.337 10.1427 17.9766 10.4191 17.8325C10.6954 17.6739 11.0736 17.5586 11.2481 17.5586C11.5681 17.5586 11.5827 17.6019 11.5827 20.1532H12.8918C14.0991 20.1532 14.2009 20.1676 14.2009 20.4415C14.2009 20.6001 14.07 20.9748 13.9245 21.2775C13.7791 21.5658 13.5318 21.9118 13.3863 22.0415C13.2263 22.1712 12.8772 22.3875 12.6009 22.5316C12.2518 22.7046 11.8591 22.7622 11.35 22.7334C10.7827 22.6902 10.4627 22.5748 10.0554 22.2433C9.74997 21.9983 9.38633 21.5802 9.22633 21.3064C9.02269 20.9316 8.96451 20.5857 8.9936 19.9947C9.02269 19.346 9.12451 19.0721 9.4736 18.6397Z" fill="#FAFAFA"/>
<path d="M15.1463 18.1352C15.03 18.1352 14.9282 18.0343 14.9282 17.919C14.9282 17.8037 15.03 17.7028 15.1463 17.7028C15.2627 17.7028 15.3645 17.8037 15.3645 17.919C15.3645 18.0343 15.2627 18.1352 15.1463 18.1352Z" fill="#FAFAFA"/>
<path d="M17.11 18.1352C16.0482 18.1352 15.8009 18.092 15.8009 17.919C15.8009 17.746 16.0482 17.7028 17.11 17.7028C18.1718 17.7028 18.4191 17.746 18.4191 17.919C18.4191 18.092 18.1718 18.1352 17.11 18.1352Z" fill="#FAFAFA"/>
<path d="M15.1463 19.2884C15.03 19.2884 14.9282 19.1875 14.9282 19.0721C14.9282 18.9568 15.03 18.8559 15.1463 18.8559C15.2627 18.8559 15.3645 18.9568 15.3645 19.0721C15.3645 19.1875 15.2627 19.2884 15.1463 19.2884Z" fill="#FAFAFA"/>
<path d="M17.11 19.2884C16.0482 19.2884 15.8009 19.2451 15.8009 19.0721C15.8009 18.8992 16.0482 18.8559 17.11 18.8559C18.1718 18.8559 18.4191 18.8992 18.4191 19.0721C18.4191 19.2451 18.1718 19.2884 17.11 19.2884Z" fill="#FAFAFA"/>
<path d="M15.1463 20.4415C15.03 20.4415 14.9282 20.3406 14.9282 20.2253C14.9282 20.11 15.03 20.0091 15.1463 20.0091C15.2627 20.0091 15.3645 20.11 15.3645 20.2253C15.3645 20.3406 15.2627 20.4415 15.1463 20.4415Z" fill="#FAFAFA"/>
<path d="M17.11 20.4415C16.0482 20.4415 15.8009 20.3983 15.8009 20.2253C15.8009 20.0523 16.0482 20.0091 17.11 20.0091C18.1718 20.0091 18.4191 20.0523 18.4191 20.2253C18.4191 20.3983 18.1718 20.4415 17.11 20.4415Z" fill="#FAFAFA"/>
</svg>
