<svg width="37" height="36" viewBox="0 0 37 36" fill="none" xmlns="http://www.w3.org/2000/svg">
<path d="M12.1955 33H33.4095C33.6255 33 33.8095 32.83 33.8095 32.628V10H28.2095C27.4375 10 26.8095 9.372 26.8095 8.6V3H12.2095C11.9935 3 11.8095 3.17 11.8095 3.372V32.642C11.8095 32.839 11.9825 33 12.1955 33Z" fill="white"/>
<path d="M33.0135 8.99994L27.8095 3.81494V8.59994C27.8095 8.81994 27.9895 8.99994 28.2095 8.99994H33.0135Z" fill="white"/>
<path opacity="0.64" fill-rule="evenodd" clip-rule="evenodd" d="M34.4225 8.993L27.8275 2.421C27.5568 2.15221 27.191 2.00095 26.8095 2H12.2095C11.4375 2 10.8095 2.615 10.8095 3.372V32.642C10.8095 33.391 11.4315 34 12.1955 34H33.4095C34.1815 34 34.8095 33.385 34.8095 32.628V9.923C34.8095 9.577 34.6695 9.237 34.4225 8.993ZM27.8095 3.815L33.0135 9H28.2095C28.1034 9 28.0017 8.95786 27.9267 8.88284C27.8517 8.80783 27.8095 8.70609 27.8095 8.6V3.815ZM33.4095 33C33.6255 33 33.8095 32.83 33.8095 32.628V10H28.2095C27.4375 10 26.8095 9.372 26.8095 8.6V3H12.2095C11.9935 3 11.8095 3.17 11.8095 3.372V32.642C11.8095 32.84 11.9825 33 12.1955 33H33.4095Z" fill="#605E5C"/>
<path d="M24.7745 20.035L23.8095 19H21.8095L20.8095 20V24.463C21.907 25.4528 23.3326 26.0005 24.8105 26C26.3956 25.9998 27.9162 25.3723 29.0402 24.2547C30.1642 23.137 30.8003 21.6201 30.8095 20.035H24.7745Z" fill="#ED6C47"/>
<path d="M25.8095 13V19H31.8095C31.8095 17.4087 31.1774 15.8826 30.0522 14.7574C28.927 13.6321 27.4008 13 25.8095 13Z" fill="#FFC7B5"/>
<path d="M20.8095 15.554V20H24.8095V14C23.3305 14.0084 21.9064 14.5617 20.8095 15.554Z" fill="#FF8F6B"/>
<path d="M4.30953 28H17.3095C17.7074 28 18.0889 27.842 18.3702 27.5607C18.6515 27.2794 18.8095 26.8978 18.8095 26.5V13.5C18.8095 13.1022 18.6515 12.7206 18.3702 12.4393C18.0889 12.158 17.7074 12 17.3095 12H4.30953C3.91171 12 3.53018 12.158 3.24887 12.4393C2.96757 12.7206 2.80953 13.1022 2.80953 13.5V26.5C2.80953 26.8978 2.96757 27.2794 3.24887 27.5607C3.53018 27.842 3.91171 28 4.30953 28Z" fill="#C43E1C"/>
<path fill-rule="evenodd" clip-rule="evenodd" d="M14.0335 15.785C13.4565 15.261 12.6225 15 11.5365 15H7.91153V24.784H9.68953V21.324H11.4195C12.1155 21.324 12.7255 21.187 13.2525 20.911C13.7622 20.6522 14.1857 20.251 14.4715 19.756C14.7565 19.259 14.8995 18.693 14.8995 18.056C14.8995 17.065 14.6115 16.308 14.0335 15.785ZM11.2185 19.83H9.68853V16.515H11.2755C12.4435 16.515 13.0275 17.054 13.0275 18.131C13.0275 18.687 12.8745 19.108 12.5705 19.397C12.2655 19.686 11.8155 19.83 11.2185 19.83Z" fill="white"/>
</svg>
