<svg width="36" height="36" viewBox="0 0 36 36" fill="none" xmlns="http://www.w3.org/2000/svg">
<path d="M22.0796 20.9414C22.1867 20.7138 22.4812 20.4193 22.7222 20.272H22.7089C23.1373 20.0176 23.3917 20.0042 28.4662 20.0042C32.9381 20.0042 33.862 20.031 34.1967 20.205C34.4109 20.3122 34.6921 20.5799 34.7992 20.8075C34.9331 21.0753 35.0001 21.5975 35.0001 23.4854H32.59V28.6C32.59 33.487 32.5766 33.7548 32.3222 34.1565C32.175 34.3975 31.867 34.6921 31.6528 34.7992C31.3181 34.9732 30.3942 35 25.9624 35C21.5306 35 20.6068 34.9732 20.272 34.7992C20.0444 34.6921 19.7766 34.4243 19.6695 34.1967C19.5356 33.9289 19.4687 33.4067 19.4687 31.5188H21.8787V26.431C21.8787 22.1732 21.9055 21.2762 22.0796 20.9414Z" fill="#ED6C48"/>
<path d="M26.8461 4.13809V3.57575C26.8461 3.10713 26.8863 3.00002 27.0737 3.01341C27.2076 3.01341 27.703 3.1473 29.0553 3.60253L29.0821 4.16487C29.1089 4.48621 29.0821 4.7406 29.0151 4.7406C28.9616 4.7406 28.4528 4.60671 26.8461 4.13809Z" fill="#ED6C48"/>
<path d="M16.7373 6.60169C7.84693 6.60169 6.62852 6.57491 6.62852 6.40085C6.62852 6.2268 7.84693 6.20002 16.7373 6.20002C25.6277 6.20002 26.8461 6.2268 26.8461 6.40085C26.8461 6.57491 25.6277 6.60169 16.7373 6.60169Z" fill="#ED6C48"/>
<path d="M3.0134 11.0201L3.33474 10.6987L3.65608 10.364H17.1925L17.9958 11.1674V24.5565L17.2193 25.3598H3.66947L3.00002 24.6904L3.0134 11.0201Z" fill="#C43E1C"/>
<path d="M26.8327 19.6024V11.9037C26.8327 7.67274 26.8595 4.20496 26.8997 4.20496C26.9398 4.20496 27.3683 4.31207 28.7607 4.66017L28.7607 4.66019L28.7072 19.6024H26.8327Z" fill="#FAFAFA"/>
<path d="M7.01682 10.364V8.48947V6.615H26.431V19.5355L24.8645 19.6158C23.9942 19.656 23.1373 19.7765 22.9499 19.8702C22.7624 19.964 22.4679 20.1648 22.3072 20.3255C22.1331 20.4727 21.8921 20.7807 21.7716 21.0083C21.5708 21.3564 21.544 21.9991 21.4771 30.046H7.01682V25.3598H17.2193L17.9959 24.5564V11.1673L17.1925 10.364H7.01682Z" fill="#FAFAFA"/>
<path d="M22.6687 20.9949C22.8294 20.7941 23.1105 20.5799 23.2712 20.5263C23.4185 20.4727 25.4938 20.4192 32.175 20.4058L32.1214 33.661L31.6796 34.0895C31.3047 34.4644 31.1574 34.5313 30.5817 34.5313C30.0059 34.5313 29.8587 34.4644 29.4838 34.0895C29.0687 33.6744 29.0419 33.5941 28.975 31.5188H22.2804L22.3474 21.3698L22.6687 20.9949Z" fill="#FAFAFA"/>
<path d="M9.29297 32.3221V31.3849V30.4476H21.4771V30.7824C21.4771 31.1171 21.4637 31.1171 19.067 31.1171V32.3221H9.29297Z" fill="#FAFAFA"/>
<path d="M28.908 19.6025C28.7339 19.6025 28.7072 18.6921 28.7072 12.1716C28.7072 5.65106 28.7339 4.7406 28.908 4.7406C29.0821 4.7406 29.1088 5.65106 29.1088 12.1716C29.1088 18.6921 29.0821 19.6025 28.908 19.6025Z" fill="#797774"/>
<path d="M6.81595 10.364C6.64189 10.364 6.61511 10.0695 6.61511 8.48955C6.61511 6.90964 6.64189 6.61508 6.81595 6.61508C6.99001 6.61508 7.01679 6.90964 7.01679 8.48955C7.01679 10.0695 6.99001 10.364 6.81595 10.364Z" fill="#797774"/>
<path d="M26.6319 19.6025C26.4578 19.6025 26.431 18.7858 26.431 13.1088C26.431 7.43181 26.4578 6.61508 26.6319 6.61508C26.8059 6.61508 26.8327 7.43181 26.8327 13.1088C26.8327 18.7858 26.8059 19.6025 26.6319 19.6025Z" fill="#797774"/>
<path d="M6.61511 30.4477V27.9038C6.61511 25.7347 6.64189 25.3598 6.81595 25.3598C6.99001 25.3598 7.01679 25.708 7.01679 30.046H14.2469C20.58 30.046 21.477 30.0728 21.477 30.2469C21.477 30.4209 20.7139 30.4477 9.29294 30.4477V32.3222H14.18C18.4377 32.3222 19.067 32.349 19.067 32.523C19.067 32.6971 18.4109 32.7239 8.89126 32.7239V30.4477H6.61511Z" fill="#797774"/>
<path d="M6.57496 4.70042C6.56157 3.88368 6.56157 3.16067 6.58835 3.10711V3.09372C6.61512 3.04017 11.1808 3 26.8327 3V6.21339H6.61512L6.57496 4.70042Z" fill="#FF8F6B"/>
<path d="M26.8327 28.3054V24.9581V21.6108H27.636V28.3054H26.8327Z" fill="#797774"/>
<path d="M27.2344 30.3138C26.8461 30.3138 26.8327 30.287 26.8327 29.7113C26.8327 29.1355 26.8461 29.1087 27.2344 29.1087C27.6227 29.1087 27.636 29.1355 27.636 29.7113C27.636 30.287 27.6227 30.3138 27.2344 30.3138Z" fill="#797774"/>
<path d="M7.4586 17.9958C7.4586 15.8267 7.47199 13.9656 7.51216 13.8585C7.56572 13.7112 7.94061 13.6845 9.54731 13.7514C10.6184 13.7782 11.7163 13.8853 11.9707 13.979C12.2251 14.0727 12.6134 14.3137 12.841 14.528C13.0686 14.7288 13.323 15.1305 13.4034 15.4117C13.4971 15.6928 13.5774 16.1079 13.5774 16.3221C13.5774 16.5497 13.5105 16.938 13.4168 17.1924C13.3364 17.4468 13.149 17.8083 13.0285 17.9958C12.8946 18.1832 12.5197 18.4778 12.2117 18.6652C11.7297 18.933 11.4352 18.9999 9.02513 19.0669V22.0125L7.48538 21.9455L7.4586 17.9958Z" fill="white"/>
<path d="M9.02515 17.728L9.03854 16.3757L9.06531 15.01L10.0963 15.0636C10.9933 15.1037 11.1942 15.1707 11.4887 15.4519C11.7699 15.7196 11.8369 15.9071 11.8369 16.4159C11.8369 16.938 11.7699 17.1255 11.4754 17.3933C11.1406 17.7012 10.9933 17.7414 9.02515 17.728Z" fill="#C43E1C"/>
</svg>
