<svg width="37" height="36" viewBox="0 0 37 36" fill="none" xmlns="http://www.w3.org/2000/svg">
<path d="M4.78796 27.5732C4.60051 27.3857 4.78796 27.1581 6.60888 25.2703V25.2569C7.73357 24.1054 8.72436 23.1548 8.83147 23.1548C8.93859 23.1548 9.91599 24.092 11.0273 25.2301C12.1252 26.3682 13.0357 27.359 13.0357 27.4393C13.0357 27.5062 12.9285 27.6134 12.808 27.6535C12.6206 27.7205 12.1252 27.292 9.01892 24.159V29.0728C9.01892 33.3707 8.99214 34 8.81808 34C8.64403 34 8.61725 33.3707 8.61725 24.159L6.80972 25.9665C5.18963 27.5866 4.9888 27.7473 4.78796 27.5732Z" fill="#ED6C47"/>
<path d="M19.1947 34V26.5021V19.0042H34.1905V34H19.1947Z" fill="#C43E1C"/>
<path d="M6.00644 7.62343C5.83238 7.62343 5.8056 7.22176 5.8056 4.81172V2H21.6717L28.2993 8.62761V13.6084C28.2993 17.9598 28.2725 18.6025 28.0985 18.6025C27.9244 18.6025 27.8977 17.9732 27.8977 8.96234L21.4039 8.8954L21.337 2.40167H6.20728V5.01255C6.20728 7.24854 6.1805 7.62343 6.00644 7.62343Z" fill="#797774"/>
<path d="M14.1069 31.7238C10.0366 31.7238 9.42067 31.6971 9.42067 31.523C9.42067 31.349 10.0366 31.3222 14.1069 31.3222C18.1772 31.3222 18.7931 31.349 18.7931 31.523C18.7931 31.6971 18.1772 31.7238 14.1069 31.7238Z" fill="#797774"/>
<path d="M6.20717 7.62349V5.01261V2.40173H21.3637L21.4038 8.89546L27.8975 8.9624V18.6026H18.7929V31.3222H9.42056V24.8285L12.6339 28.0419L13.3703 27.3055L8.88499 22.8201V20.8787H12.2323V19.6737H9.42056V16.0586L11.7637 16.0185C13.7988 15.9917 14.1335 15.9649 14.3344 15.7507C14.5486 15.5365 14.5754 15.175 14.6423 8.82851H15.8473V7.62349H6.20717Z" fill="#FAFAFA"/>
<path d="M20.3996 32.795V26.5022V20.2093H32.9854V32.795H20.3996Z" fill="#FAFAFA"/>
<path d="M2.79302 8.42682C2.35118 8.42682 2.19051 8.37326 2.19051 8.22598C2.19051 8.05192 3.02063 8.02515 8.81812 8.02515C14.6156 8.02515 15.4457 8.05192 15.4457 8.22598C15.4457 8.37326 15.2851 8.42682 14.2407 8.42682V11.908C14.2407 13.8226 14.2139 15.4561 14.1738 15.5231C14.1336 15.6034 13.1294 15.6569 9.01896 15.6569V20.0754H10.4248C11.5897 20.0754 11.8307 20.1155 11.8307 20.2762C11.8307 20.4503 11.4022 20.477 8.81812 20.477C6.23402 20.477 5.80557 20.4503 5.80557 20.2762C5.80557 20.1155 6.04657 20.0754 8.61728 20.0754V15.6569L3.46247 15.59L3.39553 8.42682H2.79302Z" fill="#D35230"/>
<path d="M21.4708 30.9206V26.5022V22.0837H31.9144V30.9206H21.4708Z" fill="#C43E1C"/>
<path d="M3.79727 15.2552V11.841V8.42676H13.8391V15.2552H3.79727Z" fill="#FFC7B5"/>
<path d="M21.7387 8.56067V5.68201C21.7387 4.10209 21.7655 2.80334 21.8056 2.80334C21.8458 2.80334 23.1579 4.10209 27.5629 8.56067H21.7387Z" fill="#FAFAFA"/>
<path d="M22.2742 24.092V23.5565V23.0209H31.1111V24.092H22.2742Z" fill="#FAFAFA"/>
<path d="M22.7696 26.1138C22.9839 25.8728 23.3588 25.5515 23.6132 25.4176C23.8675 25.2703 24.2157 25.1632 24.3897 25.1632C24.6709 25.1632 24.6843 25.2033 24.6843 27.5732H25.8893C26.947 27.5732 27.0943 27.6 27.0943 27.8008C27.0943 27.9347 27.014 28.2561 26.9069 28.5105C26.7998 28.7649 26.5454 29.1397 26.3311 29.3272C26.1303 29.5146 25.7956 29.7423 25.5947 29.8226C25.3805 29.9163 24.9788 29.9833 24.6843 29.9833C24.3897 29.9833 23.9479 29.9029 23.7069 29.8092C23.4793 29.7021 23.0776 29.4075 22.8366 29.1397C22.5956 28.8586 22.368 28.4301 22.3278 28.1356C22.2742 27.8678 22.2742 27.3992 22.3144 27.1046C22.368 26.81 22.5688 26.3682 22.7696 26.1138Z" fill="#FAFAFA"/>
<path d="M27.9646 25.6987C27.8575 25.6987 27.7638 25.605 27.7638 25.4979C27.7638 25.3908 27.8575 25.2971 27.9646 25.2971C28.0717 25.2971 28.1655 25.3908 28.1655 25.4979C28.1655 25.605 28.0717 25.6987 27.9646 25.6987Z" fill="#FAFAFA"/>
<path d="M29.7722 25.6987C28.7947 25.6987 28.5671 25.6586 28.5671 25.4979C28.5671 25.3372 28.7947 25.2971 29.7722 25.2971C30.7496 25.2971 30.9772 25.3372 30.9772 25.4979C30.9772 25.6586 30.7496 25.6987 29.7722 25.6987Z" fill="#FAFAFA"/>
<path d="M27.9646 26.7699C27.8575 26.7699 27.7638 26.6761 27.7638 26.569C27.7638 26.4619 27.8575 26.3682 27.9646 26.3682C28.0717 26.3682 28.1655 26.4619 28.1655 26.569C28.1655 26.6761 28.0717 26.7699 27.9646 26.7699Z" fill="#FAFAFA"/>
<path d="M29.7722 26.7699C28.7947 26.7699 28.5671 26.7297 28.5671 26.569C28.5671 26.4084 28.7947 26.3682 29.7722 26.3682C30.7496 26.3682 30.9772 26.4084 30.9772 26.569C30.9772 26.7297 30.7496 26.7699 29.7722 26.7699Z" fill="#FAFAFA"/>
<path d="M27.9646 27.841C27.8575 27.841 27.7638 27.7473 27.7638 27.6402C27.7638 27.5331 27.8575 27.4393 27.9646 27.4393C28.0717 27.4393 28.1655 27.5331 28.1655 27.6402C28.1655 27.7473 28.0717 27.841 27.9646 27.841Z" fill="#FAFAFA"/>
<path d="M29.7722 27.841C28.7947 27.841 28.5671 27.8008 28.5671 27.6402C28.5671 27.4795 28.7947 27.4393 29.7722 27.4393C30.7496 27.4393 30.9772 27.4795 30.9772 27.6402C30.9772 27.8008 30.7496 27.841 29.7722 27.841Z" fill="#FAFAFA"/>
</svg>
