<svg width="37" height="36" viewBox="0 0 37 36" fill="none" xmlns="http://www.w3.org/2000/svg">
<path d="M4.97845 27.5732C4.791 27.3857 4.97845 27.1581 6.79937 25.2703V25.2569C7.92406 24.1054 8.91485 23.1548 9.02196 23.1548C9.12908 23.1548 10.1065 24.092 11.2178 25.2301C12.3157 26.3682 13.2261 27.359 13.2261 27.4393C13.2261 27.5062 13.119 27.6134 12.9985 27.6535C12.8111 27.7205 12.3157 27.292 9.20941 24.159V29.0728C9.20941 33.3707 9.18263 34 9.00857 34C8.83452 34 8.80774 33.3707 8.80774 24.159L7.00021 25.9665C5.38012 27.5866 5.17929 27.7473 4.97845 27.5732Z" fill="#ED6C47"/>
<path d="M19.3852 34V26.5021V19.0042H34.381V34H19.3852Z" fill="#C43E1C"/>
<path d="M6.19693 7.62343C6.02287 7.62343 5.99609 7.22176 5.99609 4.81172V2H21.8622L28.4898 8.62761V13.6084C28.4898 17.9598 28.463 18.6025 28.289 18.6025C28.1149 18.6025 28.0881 17.9732 28.0881 8.96234L21.5944 8.8954L21.5275 2.40167H6.39777V5.01255C6.39777 7.24854 6.37099 7.62343 6.19693 7.62343Z" fill="#797774"/>
<path d="M14.2973 31.7238C10.2271 31.7238 9.61116 31.6971 9.61116 31.523C9.61116 31.349 10.2271 31.3222 14.2973 31.3222C18.3676 31.3222 18.9835 31.349 18.9835 31.523C18.9835 31.6971 18.3676 31.7238 14.2973 31.7238Z" fill="#797774"/>
<path d="M6.39767 7.62349V5.01261V2.40173H21.5542L21.5943 8.89546L28.0881 8.9624V18.6026H18.9834V31.3222H9.61106V24.8285L12.8245 28.0419L13.5609 27.3055L9.0755 22.8201V20.8787H12.4228V19.6737H9.61106V16.0586L11.9542 16.0185C13.9893 15.9917 14.324 15.9649 14.5249 15.7507C14.7391 15.5365 14.7659 15.175 14.8328 8.82851H16.0378V7.62349H6.39767Z" fill="#FAFAFA"/>
<path d="M20.5901 32.795V26.5022V20.2093H33.1759V32.795H20.5901Z" fill="#FAFAFA"/>
<path d="M2.98351 8.42682C2.54167 8.42682 2.381 8.37326 2.381 8.22598C2.381 8.05192 3.21112 8.02515 9.00861 8.02515C14.8061 8.02515 15.6362 8.05192 15.6362 8.22598C15.6362 8.37326 15.4756 8.42682 14.4312 8.42682V11.908C14.4312 13.8226 14.4044 15.4561 14.3643 15.5231C14.3241 15.6034 13.3199 15.6569 9.20945 15.6569V20.0754H10.6153C11.7802 20.0754 12.0212 20.1155 12.0212 20.2762C12.0212 20.4503 11.5927 20.477 9.00861 20.477C6.42451 20.477 5.99606 20.4503 5.99606 20.2762C5.99606 20.1155 6.23706 20.0754 8.80778 20.0754V15.6569L3.65296 15.59L3.58602 8.42682H2.98351Z" fill="#D35230"/>
<path d="M21.6613 30.9206V26.5022V22.0837H32.1049V30.9206H21.6613Z" fill="#C43E1C"/>
<path d="M3.98776 15.2552V11.841V8.42676H14.0296V15.2552H3.98776Z" fill="#FFC7B5"/>
<path d="M21.9292 8.56067V5.68201C21.9292 4.10209 21.9559 2.80334 21.9961 2.80334C22.0363 2.80334 23.3484 4.10209 27.7534 8.56067H21.9292Z" fill="#FAFAFA"/>
<path d="M22.4647 24.092V23.5565V23.0209H31.3016V24.092H22.4647Z" fill="#FAFAFA"/>
<path d="M22.9601 26.1138C23.1744 25.8728 23.5493 25.5515 23.8036 25.4176C24.058 25.2703 24.4062 25.1632 24.5802 25.1632C24.8614 25.1632 24.8748 25.2033 24.8748 27.5732H26.0798C27.1375 27.5732 27.2848 27.6 27.2848 27.8008C27.2848 27.9347 27.2045 28.2561 27.0974 28.5105C26.9903 28.7649 26.7359 29.1397 26.5216 29.3272C26.3208 29.5146 25.9861 29.7423 25.7852 29.8226C25.571 29.9163 25.1693 29.9833 24.8748 29.9833C24.5802 29.9833 24.1384 29.9029 23.8974 29.8092C23.6698 29.7021 23.2681 29.4075 23.0271 29.1397C22.7861 28.8586 22.5585 28.4301 22.5183 28.1356C22.4647 27.8678 22.4647 27.3992 22.5049 27.1046C22.5585 26.81 22.7593 26.3682 22.9601 26.1138Z" fill="#FAFAFA"/>
<path d="M28.1551 25.6987C28.048 25.6987 27.9543 25.605 27.9543 25.4979C27.9543 25.3908 28.048 25.2971 28.1551 25.2971C28.2622 25.2971 28.3559 25.3908 28.3559 25.4979C28.3559 25.605 28.2622 25.6987 28.1551 25.6987Z" fill="#FAFAFA"/>
<path d="M29.9626 25.6987C28.9852 25.6987 28.7576 25.6586 28.7576 25.4979C28.7576 25.3372 28.9852 25.2971 29.9626 25.2971C30.94 25.2971 31.1677 25.3372 31.1677 25.4979C31.1677 25.6586 30.94 25.6987 29.9626 25.6987Z" fill="#FAFAFA"/>
<path d="M28.1551 26.7699C28.048 26.7699 27.9543 26.6761 27.9543 26.569C27.9543 26.4619 28.048 26.3682 28.1551 26.3682C28.2622 26.3682 28.3559 26.4619 28.3559 26.569C28.3559 26.6761 28.2622 26.7699 28.1551 26.7699Z" fill="#FAFAFA"/>
<path d="M29.9626 26.7699C28.9852 26.7699 28.7576 26.7297 28.7576 26.569C28.7576 26.4084 28.9852 26.3682 29.9626 26.3682C30.94 26.3682 31.1677 26.4084 31.1677 26.569C31.1677 26.7297 30.94 26.7699 29.9626 26.7699Z" fill="#FAFAFA"/>
<path d="M28.1551 27.841C28.048 27.841 27.9543 27.7473 27.9543 27.6402C27.9543 27.5331 28.048 27.4393 28.1551 27.4393C28.2622 27.4393 28.3559 27.5331 28.3559 27.6402C28.3559 27.7473 28.2622 27.841 28.1551 27.841Z" fill="#FAFAFA"/>
<path d="M29.9626 27.841C28.9852 27.841 28.7576 27.8008 28.7576 27.6402C28.7576 27.4795 28.9852 27.4393 29.9626 27.4393C30.94 27.4393 31.1677 27.4795 31.1677 27.6402C31.1677 27.8008 30.94 27.841 29.9626 27.841Z" fill="#FAFAFA"/>
</svg>
