<svg width="37" height="36" viewBox="0 0 37 36" fill="none" xmlns="http://www.w3.org/2000/svg">
<path d="M5.23812 27.0721V19.0001V10.928H21.2613V27.0721H5.23812Z" fill="#C43E1C"/>
<path d="M9.31535 10.9279C9.12937 10.9279 9.10075 10.3946 9.10075 6.96396V3H26.0538L33.1355 10.1351V35H9.10075V31.036C9.10075 27.6054 9.12937 27.0721 9.31535 27.0721C9.50133 27.0721 9.52995 27.591 9.52995 34.5676H32.7063V10.4955L25.7677 10.4234L25.6962 3.43243H9.52995V7.18018C9.52995 10.409 9.50133 10.9279 9.31535 10.9279Z" fill="#797774"/>
<path d="M9.53004 10.9279V7.18012V3.43237H25.7249L25.7678 10.4234L32.7064 10.4954V34.5675H9.53004V27.072H21.2613V10.9279H9.53004Z" fill="#FAFAFA"/>
<path d="M22.1053 21.8108L22.1196 20.4126V19H30.7034V19.4324C30.7034 19.6631 30.5604 20.2396 30.403 20.6865C30.1884 21.2775 29.8594 21.7676 29.2871 22.3297C28.7292 22.9063 28.2427 23.2378 27.6562 23.4541C27.1555 23.6414 26.5117 23.7568 25.9823 23.7568C25.453 23.7568 24.8092 23.6414 24.2942 23.4396C23.8078 23.2523 23.2069 22.8775 22.1053 21.8108Z" fill="#ED6C47"/>
<path d="M26.8407 18.1351L26.855 15.7423L26.8836 13.3351L27.5417 13.4072C27.8994 13.436 28.5146 13.6234 28.9152 13.8252C29.3014 14.0126 29.8737 14.4306 30.2027 14.7477C30.5175 15.0792 30.9324 15.6558 31.1183 16.045C31.3186 16.4486 31.5046 17.0684 31.6334 18.1351H26.8407Z" fill="#FFC7B5"/>
<path d="M26.1254 10.0631V6.96397C26.1254 5.26307 26.154 3.86487 26.1969 3.86487C26.2398 3.86487 27.6418 5.26307 32.3486 10.0631H26.1254Z" fill="#FAFAFA"/>
<path d="M6.52562 25.7748V19V12.2252H19.9736V25.7748H6.52562Z" fill="#FAFAFA"/>
<path d="M23.2212 15.0793C23.6075 14.8343 24.1368 14.546 24.4086 14.4451C24.6805 14.3442 25.1526 14.2577 25.9824 14.2433V19H22.1196V17.5874C22.1196 16.5784 22.1769 16.1027 22.3342 15.8577C22.4487 15.6847 22.8493 15.3388 23.2212 15.0793Z" fill="#FF8F6B"/>
<path d="M7.67015 23.7568V19V14.2433H18.8291V23.7568H7.67015Z" fill="#C43E1C"/>
<path d="M8.52862 16.4054V15.8288V15.2522H17.9708V16.4054H8.52862Z" fill="#FAFAFA"/>
<path d="M9.14379 18.3513C9.32978 18.1207 9.68743 17.8468 9.95926 17.7459C10.2311 17.645 10.603 17.5729 10.789 17.5585C11.0895 17.5585 11.1038 17.6017 11.1038 20.1531H12.3913C13.5788 20.1531 13.6789 20.1675 13.6789 20.4414C13.6789 20.5999 13.5931 20.9459 13.4786 21.1909C13.3785 21.4504 13.1067 21.8396 12.8778 22.0558C12.6489 22.272 12.2912 22.5171 12.0766 22.5891C11.8477 22.6756 11.4185 22.7477 11.1038 22.7477C10.789 22.7477 10.3169 22.6612 10.0737 22.5459C9.81619 22.445 9.42992 22.1711 9.21532 21.9405C9.00073 21.7099 8.75752 21.3495 8.68599 21.1189C8.60015 20.9026 8.52862 20.4702 8.52862 20.1531C8.52862 19.836 8.60015 19.4035 8.68599 19.1729C8.75752 18.9567 8.97212 18.5963 9.14379 18.3513Z" fill="#FAFAFA"/>
<path d="M14.6088 18.1351C14.4944 18.1351 14.3942 18.0342 14.3942 17.9189C14.3942 17.8035 14.4944 17.7026 14.6088 17.7026C14.7233 17.7026 14.8234 17.8035 14.8234 17.9189C14.8234 18.0342 14.7233 18.1351 14.6088 18.1351Z" fill="#FAFAFA"/>
<path d="M16.5402 18.1351C15.4958 18.1351 15.2526 18.0918 15.2526 17.9189C15.2526 17.7459 15.4958 17.7026 16.5402 17.7026C17.5846 17.7026 17.8278 17.7459 17.8278 17.9189C17.8278 18.0918 17.5846 18.1351 16.5402 18.1351Z" fill="#FAFAFA"/>
<path d="M14.6088 19.2882C14.4944 19.2882 14.3942 19.1873 14.3942 19.072C14.3942 18.9567 14.4944 18.8558 14.6088 18.8558C14.7233 18.8558 14.8234 18.9567 14.8234 19.072C14.8234 19.1873 14.7233 19.2882 14.6088 19.2882Z" fill="#FAFAFA"/>
<path d="M16.5402 19.2882C15.4958 19.2882 15.2526 19.245 15.2526 19.072C15.2526 18.899 15.4958 18.8558 16.5402 18.8558C17.5846 18.8558 17.8278 18.899 17.8278 19.072C17.8278 19.245 17.5846 19.2882 16.5402 19.2882Z" fill="#FAFAFA"/>
<path d="M14.6088 20.4414C14.4944 20.4414 14.3942 20.3405 14.3942 20.2252C14.3942 20.1099 14.4944 20.009 14.6088 20.009C14.7233 20.009 14.8234 20.1099 14.8234 20.2252C14.8234 20.3405 14.7233 20.4414 14.6088 20.4414Z" fill="#FAFAFA"/>
<path d="M16.5402 20.4414C15.4958 20.4414 15.2526 20.3981 15.2526 20.2252C15.2526 20.0522 15.4958 20.009 16.5402 20.009C17.5846 20.009 17.8278 20.0522 17.8278 20.2252C17.8278 20.3981 17.5846 20.4414 16.5402 20.4414Z" fill="#FAFAFA"/>
</svg>
