<svg width="37" height="36" viewBox="0 0 37 36" fill="none" xmlns="http://www.w3.org/2000/svg">
<path d="M11.9575 33H33.1715C33.3875 33 33.5715 32.83 33.5715 32.628V10H27.9715C27.1995 10 26.5715 9.372 26.5715 8.6V3H11.9715C11.7555 3 11.5715 3.17 11.5715 3.372V32.642C11.5715 32.839 11.7445 33 11.9575 33Z" fill="white"/>
<path d="M32.7755 8.99994L27.5715 3.81494V8.59994C27.5715 8.81994 27.7515 8.99994 27.9715 8.99994H32.7755Z" fill="white"/>
<path opacity="0.64" fill-rule="evenodd" clip-rule="evenodd" d="M34.1845 8.993L27.5895 2.421C27.3188 2.15221 26.953 2.00095 26.5715 2H11.9715C11.1995 2 10.5715 2.615 10.5715 3.372V32.642C10.5715 33.391 11.1935 34 11.9575 34H33.1715C33.9435 34 34.5715 33.385 34.5715 32.628V9.923C34.5715 9.577 34.4315 9.237 34.1845 8.993ZM27.5715 3.815L32.7755 9H27.9715C27.8654 9 27.7637 8.95786 27.6887 8.88284C27.6136 8.80783 27.5715 8.70609 27.5715 8.6V3.815ZM33.1715 33C33.3875 33 33.5715 32.83 33.5715 32.628V10H27.9715C27.1995 10 26.5715 9.372 26.5715 8.6V3H11.9715C11.7555 3 11.5715 3.17 11.5715 3.372V32.642C11.5715 32.84 11.7445 33 11.9575 33H33.1715Z" fill="#605E5C"/>
<path d="M24.5365 20.035L23.5715 19H21.5715L20.5715 20V24.463C21.669 25.4528 23.0946 26.0005 24.5725 26C26.1576 25.9998 27.6782 25.3723 28.8022 24.2547C29.9262 23.137 30.5623 21.6201 30.5715 20.035H24.5365Z" fill="#ED6C47"/>
<path d="M25.5715 13V19H31.5715C31.5715 17.4087 30.9394 15.8826 29.8141 14.7574C28.6889 13.6321 27.1628 13 25.5715 13Z" fill="#FFC7B5"/>
<path d="M20.5715 15.554V20H24.5715V14C23.0924 14.0084 21.6683 14.5617 20.5715 15.554Z" fill="#FF8F6B"/>
<path d="M4.0715 28H17.0715C17.4693 28 17.8509 27.842 18.1322 27.5607C18.4135 27.2794 18.5715 26.8978 18.5715 26.5V13.5C18.5715 13.1022 18.4135 12.7206 18.1322 12.4393C17.8509 12.158 17.4693 12 17.0715 12H4.0715C3.67368 12 3.29215 12.158 3.01084 12.4393C2.72954 12.7206 2.5715 13.1022 2.5715 13.5V26.5C2.5715 26.8978 2.72954 27.2794 3.01084 27.5607C3.29215 27.842 3.67368 28 4.0715 28Z" fill="#C43E1C"/>
<path fill-rule="evenodd" clip-rule="evenodd" d="M13.7955 15.785C13.2185 15.261 12.3845 15 11.2985 15H7.67349V24.784H9.45149V21.324H11.1815C11.8775 21.324 12.4875 21.187 13.0145 20.911C13.5241 20.6522 13.9476 20.251 14.2335 19.756C14.5185 19.259 14.6615 18.693 14.6615 18.056C14.6615 17.065 14.3735 16.308 13.7955 15.785ZM10.9805 19.83H9.45049V16.515H11.0375C12.2055 16.515 12.7895 17.054 12.7895 18.131C12.7895 18.687 12.6365 19.108 12.3325 19.397C12.0275 19.686 11.5775 19.83 10.9805 19.83Z" fill="white"/>
</svg>
