<svg width="37" height="36" viewBox="0 0 37 36" fill="none" xmlns="http://www.w3.org/2000/svg">
<path d="M5.76199 27.0721V19.0001V10.928H21.7851V27.0721H5.76199Z" fill="#C43E1C"/>
<path d="M9.83923 10.9279C9.65325 10.9279 9.62463 10.3946 9.62463 6.96396V3H26.5777L33.6593 10.1351V35H9.62463V31.036C9.62463 27.6054 9.65325 27.0721 9.83923 27.0721C10.0252 27.0721 10.0538 27.591 10.0538 34.5676H33.2302V10.4955L26.2916 10.4234L26.22 3.43243H10.0538V7.18018C10.0538 10.409 10.0252 10.9279 9.83923 10.9279Z" fill="#797774"/>
<path d="M10.0539 10.9279V7.18012V3.43237H26.2487L26.2917 10.4234L33.2303 10.4954V34.5675H10.0539V27.072H21.7852V10.9279H10.0539Z" fill="#FAFAFA"/>
<path d="M22.6292 21.8108L22.6435 20.4126V19H31.2273V19.4324C31.2273 19.6631 31.0843 20.2396 30.9269 20.6865C30.7123 21.2775 30.3832 21.7676 29.811 22.3297C29.253 22.9063 28.7666 23.2378 28.1801 23.4541C27.6793 23.6414 27.0355 23.7568 26.5062 23.7568C25.9769 23.7568 25.3331 23.6414 24.8181 23.4396C24.3316 23.2523 23.7308 22.8775 22.6292 21.8108Z" fill="#ED6C47"/>
<path d="M27.3646 18.1351L27.3789 15.7423L27.4075 13.3351L28.0656 13.4072C28.4233 13.436 29.0384 13.6234 29.439 13.8252C29.8253 14.0126 30.3975 14.4306 30.7266 14.7477C31.0413 15.0792 31.4562 15.6558 31.6422 16.045C31.8425 16.4486 32.0285 17.0684 32.1572 18.1351H27.3646Z" fill="#FFC7B5"/>
<path d="M26.6492 10.0631V6.96397C26.6492 5.26307 26.6778 3.86487 26.7208 3.86487C26.7637 3.86487 28.1657 5.26307 32.8725 10.0631H26.6492Z" fill="#FAFAFA"/>
<path d="M7.0495 25.7748V19V12.2252H20.4975V25.7748H7.0495Z" fill="#FAFAFA"/>
<path d="M23.7451 15.0793C24.1314 14.8343 24.6607 14.546 24.9325 14.4451C25.2043 14.3442 25.6764 14.2577 26.5062 14.2433V19H22.6435V17.5874C22.6435 16.5784 22.7007 16.1027 22.8581 15.8577C22.9725 15.6847 23.3731 15.3388 23.7451 15.0793Z" fill="#FF8F6B"/>
<path d="M8.19403 23.7568V19V14.2433H19.353V23.7568H8.19403Z" fill="#C43E1C"/>
<path d="M9.05249 16.4054V15.8288V15.2522H18.4947V16.4054H9.05249Z" fill="#FAFAFA"/>
<path d="M9.66766 18.3513C9.85365 18.1207 10.2113 17.8468 10.4831 17.7459C10.7549 17.645 11.1269 17.5729 11.3129 17.5585C11.6133 17.5585 11.6276 17.6017 11.6276 20.1531H12.9152C14.1026 20.1531 14.2028 20.1675 14.2028 20.4414C14.2028 20.5999 14.1169 20.9459 14.0025 21.1909C13.9024 21.4504 13.6305 21.8396 13.4016 22.0558C13.1727 22.272 12.8151 22.5171 12.6005 22.5891C12.3716 22.6756 11.9424 22.7477 11.6276 22.7477C11.3129 22.7477 10.8408 22.6612 10.5976 22.5459C10.3401 22.445 9.95379 22.1711 9.7392 21.9405C9.5246 21.7099 9.28139 21.3495 9.20986 21.1189C9.12402 20.9026 9.05249 20.4702 9.05249 20.1531C9.05249 19.836 9.12402 19.4035 9.20986 19.1729C9.28139 18.9567 9.49599 18.5963 9.66766 18.3513Z" fill="#FAFAFA"/>
<path d="M15.1327 18.1351C15.0182 18.1351 14.9181 18.0342 14.9181 17.9189C14.9181 17.8035 15.0182 17.7026 15.1327 17.7026C15.2472 17.7026 15.3473 17.8035 15.3473 17.9189C15.3473 18.0342 15.2472 18.1351 15.1327 18.1351Z" fill="#FAFAFA"/>
<path d="M17.0641 18.1351C16.0197 18.1351 15.7765 18.0918 15.7765 17.9189C15.7765 17.7459 16.0197 17.7026 17.0641 17.7026C18.1084 17.7026 18.3516 17.7459 18.3516 17.9189C18.3516 18.0918 18.1084 18.1351 17.0641 18.1351Z" fill="#FAFAFA"/>
<path d="M15.1327 19.2882C15.0182 19.2882 14.9181 19.1873 14.9181 19.072C14.9181 18.9567 15.0182 18.8558 15.1327 18.8558C15.2472 18.8558 15.3473 18.9567 15.3473 19.072C15.3473 19.1873 15.2472 19.2882 15.1327 19.2882Z" fill="#FAFAFA"/>
<path d="M17.0641 19.2882C16.0197 19.2882 15.7765 19.245 15.7765 19.072C15.7765 18.899 16.0197 18.8558 17.0641 18.8558C18.1084 18.8558 18.3516 18.899 18.3516 19.072C18.3516 19.245 18.1084 19.2882 17.0641 19.2882Z" fill="#FAFAFA"/>
<path d="M15.1327 20.4414C15.0182 20.4414 14.9181 20.3405 14.9181 20.2252C14.9181 20.1099 15.0182 20.009 15.1327 20.009C15.2472 20.009 15.3473 20.1099 15.3473 20.2252C15.3473 20.3405 15.2472 20.4414 15.1327 20.4414Z" fill="#FAFAFA"/>
<path d="M17.0641 20.4414C16.0197 20.4414 15.7765 20.3981 15.7765 20.2252C15.7765 20.0522 16.0197 20.009 17.0641 20.009C18.1084 20.009 18.3516 20.0522 18.3516 20.2252C18.3516 20.3981 18.1084 20.4414 17.0641 20.4414Z" fill="#FAFAFA"/>
</svg>
