<svg width="37" height="36" viewBox="0 0 37 36" fill="none" xmlns="http://www.w3.org/2000/svg">
<path d="M11.8146 33H33.0286C33.2446 33 33.4286 32.83 33.4286 32.628V10H27.8286C27.0566 10 26.4286 9.372 26.4286 8.6V3H11.8286C11.6126 3 11.4286 3.17 11.4286 3.372V32.642C11.4286 32.839 11.6016 33 11.8146 33Z" fill="white"/>
<path d="M32.6326 8.99994L27.4286 3.81494V8.59994C27.4286 8.81994 27.6086 8.99994 27.8286 8.99994H32.6326Z" fill="white"/>
<path opacity="0.64" fill-rule="evenodd" clip-rule="evenodd" d="M34.0416 8.993L27.4466 2.421C27.1759 2.15221 26.8101 2.00095 26.4286 2H11.8286C11.0566 2 10.4286 2.615 10.4286 3.372V32.642C10.4286 33.391 11.0506 34 11.8146 34H33.0286C33.8006 34 34.4286 33.385 34.4286 32.628V9.923C34.4286 9.577 34.2886 9.237 34.0416 8.993ZM27.4286 3.815L32.6326 9H27.8286C27.7225 9 27.6208 8.95786 27.5458 8.88284C27.4708 8.80783 27.4286 8.70609 27.4286 8.6V3.815ZM33.0286 33C33.2446 33 33.4286 32.83 33.4286 32.628V10H27.8286C27.0566 10 26.4286 9.372 26.4286 8.6V3H11.8286C11.6126 3 11.4286 3.17 11.4286 3.372V32.642C11.4286 32.84 11.6016 33 11.8146 33H33.0286Z" fill="#605E5C"/>
<path d="M24.3936 20.035L23.4286 19H21.4286L20.4286 20V24.463C21.5261 25.4528 22.9517 26.0005 24.4296 26C26.0147 25.9998 27.5353 25.3723 28.6593 24.2547C29.7833 23.137 30.4194 21.6201 30.4286 20.035H24.3936Z" fill="#ED6C47"/>
<path d="M25.4286 13V19H31.4286C31.4286 17.4087 30.7965 15.8826 29.6713 14.7574C28.546 13.6321 27.0199 13 25.4286 13Z" fill="#FFC7B5"/>
<path d="M20.4286 15.554V20H24.4286V14C22.9495 14.0084 21.5254 14.5617 20.4286 15.554Z" fill="#FF8F6B"/>
<path d="M3.92861 28H16.9286C17.3264 28 17.708 27.842 17.9893 27.5607C18.2706 27.2794 18.4286 26.8978 18.4286 26.5V13.5C18.4286 13.1022 18.2706 12.7206 17.9893 12.4393C17.708 12.158 17.3264 12 16.9286 12H3.92861C3.53079 12 3.14926 12.158 2.86795 12.4393C2.58665 12.7206 2.42861 13.1022 2.42861 13.5V26.5C2.42861 26.8978 2.58665 27.2794 2.86795 27.5607C3.14926 27.842 3.53079 28 3.92861 28Z" fill="#C43E1C"/>
<path fill-rule="evenodd" clip-rule="evenodd" d="M13.6526 15.785C13.0756 15.261 12.2416 15 11.1556 15H7.53061V24.784H9.30861V21.324H11.0386C11.7346 21.324 12.3446 21.187 12.8716 20.911C13.3813 20.6522 13.8048 20.251 14.0906 19.756C14.3756 19.259 14.5186 18.693 14.5186 18.056C14.5186 17.065 14.2306 16.308 13.6526 15.785ZM10.8376 19.83H9.30761V16.515H10.8946C12.0626 16.515 12.6466 17.054 12.6466 18.131C12.6466 18.687 12.4936 19.108 12.1896 19.397C11.8846 19.686 11.4346 19.83 10.8376 19.83Z" fill="white"/>
</svg>
