<svg width="37" height="36" viewBox="0 0 37 36" fill="none" xmlns="http://www.w3.org/2000/svg">
<path d="M7.83599 33H29.05C29.266 33 29.45 32.83 29.45 32.628V10H23.85C23.078 10 22.45 9.372 22.45 8.6V3H7.84999C7.63399 3 7.44999 3.17 7.44999 3.372V32.642C7.44999 32.839 7.62299 33 7.83599 33Z" fill="white"/>
<path d="M28.654 8.99994L23.45 3.81494V8.59994C23.45 8.81994 23.63 8.99994 23.85 8.99994H28.654Z" fill="white"/>
<path opacity="0.64" fill-rule="evenodd" clip-rule="evenodd" d="M30.063 8.993L23.468 2.421C23.1973 2.15221 22.8315 2.00095 22.45 2H7.84999C7.07799 2 6.44999 2.615 6.44999 3.372V32.642C6.44999 33.39 7.07199 34 7.83599 34H29.05C29.822 34 30.45 33.385 30.45 32.628V9.923C30.45 9.577 30.31 9.237 30.063 8.993ZM23.45 3.815L28.654 9H23.85C23.7439 9 23.6422 8.95786 23.5671 8.88284C23.4921 8.80783 23.45 8.70609 23.45 8.6V3.815ZM29.05 33C29.266 33 29.45 32.83 29.45 32.628V10H23.85C23.078 10 22.45 9.372 22.45 8.6V3H7.84999C7.63399 3 7.44999 3.17 7.44999 3.372V32.642C7.44999 32.84 7.62299 33 7.83599 33H29.05Z" fill="#605E5C"/>
</svg>
