<svg width="37" height="36" viewBox="0 0 37 36" fill="none" xmlns="http://www.w3.org/2000/svg">
<path d="M4.84995 32H31.85C32.125 32 32.35 31.775 32.35 31.5V4.5C32.35 4.225 32.125 4 31.85 4H4.84995C4.57495 4 4.34995 4.225 4.34995 4.5V31.5C4.34995 31.775 4.57495 32 4.84995 32Z" fill="white"/>
<path d="M21.97 19.683L19.914 22.793L16.428 17.825C16.3218 17.6673 16.1785 17.538 16.0107 17.4486C15.8428 17.3592 15.6556 17.3125 15.4655 17.3125C15.2753 17.3125 15.0881 17.3592 14.9202 17.4486C14.7524 17.538 14.6091 17.6673 14.503 17.825L9.07795 25.552C8.50795 26.364 9.06995 27.5 10.04 27.5H26.85C27.806 27.5 28.37 26.395 27.832 25.58L23.932 19.683C23.8275 19.5172 23.6826 19.3805 23.511 19.2857C23.3394 19.191 23.1465 19.1413 22.9505 19.1413C22.7544 19.1413 22.5616 19.191 22.3899 19.2857C22.2183 19.3805 22.0734 19.5172 21.969 19.683H21.97Z" stroke="#A6CCC3"/>
<path d="M25.35 13.5C26.013 13.5 26.6489 13.2366 27.1177 12.7678C27.5866 12.2989 27.85 11.663 27.85 11C27.85 10.337 27.5866 9.70107 27.1177 9.23223C26.6489 8.76339 26.013 8.5 25.35 8.5C24.6869 8.5 24.051 8.76339 23.5822 9.23223C23.1133 9.70107 22.85 10.337 22.85 11C22.85 11.663 23.1133 12.2989 23.5822 12.7678C24.051 13.2366 24.6869 13.5 25.35 13.5Z" stroke="#FF9810"/>
<path opacity="0.64" fill-rule="evenodd" clip-rule="evenodd" d="M4.84995 33H31.85C32.677 33 33.35 32.327 33.35 31.5V4.5C33.35 3.673 32.677 3 31.85 3H4.84995C4.02295 3 3.34995 3.673 3.34995 4.5V31.5C3.34995 32.327 4.02295 33 4.84995 33ZM4.34995 4.5C4.34995 4.36739 4.40263 4.24021 4.4964 4.14645C4.59017 4.05268 4.71734 4 4.84995 4H31.85C31.9826 4 32.1097 4.05268 32.2035 4.14645C32.2973 4.24021 32.35 4.36739 32.35 4.5V31.5C32.35 31.6326 32.2973 31.7598 32.2035 31.8536C32.1097 31.9473 31.9826 32 31.85 32H4.84995C4.71734 32 4.59017 31.9473 4.4964 31.8536C4.40263 31.7598 4.34995 31.6326 4.34995 31.5V4.5Z" fill="#605E5C"/>
</svg>
