<svg width="37" height="36" viewBox="0 0 37 36" fill="none" xmlns="http://www.w3.org/2000/svg">
<path d="M4.54764 28.101H31.5476C31.6802 28.101 31.8074 28.0483 31.9012 27.9545C31.995 27.8607 32.0476 27.7336 32.0476 27.601V8.77095L18.4326 22.106C18.3394 22.198 18.2137 22.2497 18.0826 22.2497C17.9516 22.2497 17.8259 22.198 17.7326 22.106L4.04764 8.69995V27.601C4.04764 27.7336 4.10032 27.8607 4.19408 27.9545C4.28785 28.0483 4.41503 28.101 4.54764 28.101Z" fill="white"/>
<path d="M31.4696 7.93604H4.69563L18.0826 21.049L31.4696 7.93604Z" fill="white"/>
<path opacity="0.64" fill-rule="evenodd" clip-rule="evenodd" d="M31.5476 7H4.54764C4.14981 7 3.76828 7.15804 3.48698 7.43934C3.20567 7.72064 3.04764 8.10218 3.04764 8.5V27.5C3.04764 27.8978 3.20567 28.2794 3.48698 28.5607C3.76828 28.842 4.14981 29 4.54764 29H31.5476C31.9455 29 32.327 28.842 32.6083 28.5607C32.8896 28.2794 33.0476 27.8978 33.0476 27.5V8.5C33.0476 8.10218 32.8896 7.72064 32.6083 7.43934C32.327 7.15804 31.9455 7 31.5476 7ZM31.4696 8L18.0826 21.114L4.69564 8H31.4696ZM4.54764 28H31.5476C31.6802 28 31.8074 27.9473 31.9012 27.8536C31.995 27.7598 32.0476 27.6326 32.0476 27.5V8.668L18.4326 22.006C18.3394 22.0981 18.2137 22.1497 18.0826 22.1497C17.9516 22.1497 17.8259 22.0981 17.7326 22.006L4.04764 8.6V27.5C4.04764 27.6326 4.10032 27.7598 4.19408 27.8536C4.28785 27.9473 4.41503 28 4.54764 28Z" fill="#605E5C"/>
</svg>
