<svg width="37" height="36" viewBox="0 0 37 36" fill="none" xmlns="http://www.w3.org/2000/svg">
<path d="M11.5399 32.9999H32.7499C32.8516 33.0026 32.9505 32.9655 33.0252 32.8963C33.0999 32.8272 33.1447 32.7316 33.1499 32.6299V9.9999H27.5499C27.1786 9.9999 26.8225 9.8524 26.5599 9.58985C26.2974 9.3273 26.1499 8.9712 26.1499 8.5999V2.9999H11.5499C11.4481 2.99715 11.3493 3.03432 11.2745 3.10346C11.1998 3.17259 11.1551 3.26822 11.1499 3.3699V32.6399C11.1511 32.6894 11.1623 32.7381 11.1827 32.7832C11.2032 32.8282 11.2324 32.8688 11.2688 32.9023C11.3052 32.9359 11.3479 32.9618 11.3944 32.9786C11.441 32.9953 11.4905 33.0026 11.5399 32.9999Z" fill="white"/>
<path d="M32.3499 9.00006L27.1499 3.81006V8.60006C27.1499 8.82006 27.3299 9.00006 27.5499 9.00006H32.3499Z" fill="white"/>
<path opacity="0.64" fill-rule="evenodd" clip-rule="evenodd" d="M33.7599 9.00004L27.1499 2.42004C26.8834 2.15595 26.525 2.0054 26.1499 2.00004H11.5499C11.1829 1.99736 10.8298 2.13989 10.5676 2.39654C10.3053 2.65318 10.1551 3.00313 10.1499 3.37004V32.64C10.1512 32.8208 10.1882 32.9995 10.2589 33.1659C10.3296 33.3323 10.4325 33.483 10.5617 33.6094C10.6909 33.7359 10.8439 33.8354 11.0118 33.9025C11.1796 33.9695 11.3591 34.0027 11.5399 34H32.7499C33.1168 34.0027 33.4699 33.8602 33.7322 33.6035C33.9945 33.3469 34.1446 32.997 34.1499 32.63V9.92004C34.1444 9.57434 34.0045 9.24435 33.7599 9.00004ZM27.1499 3.81004L32.3499 9.00004H27.5499C27.4438 9.00004 27.342 8.95789 27.267 8.88288C27.192 8.80787 27.1499 8.70612 27.1499 8.60004V3.81004ZM32.7499 33C32.8516 33.0028 32.9505 32.9656 33.0252 32.8965C33.0999 32.8273 33.1447 32.7317 33.1499 32.63V10H27.5499C27.1786 10 26.8225 9.85254 26.5599 9.58999C26.2974 9.32744 26.1499 8.97134 26.1499 8.60004V3.00004H11.5499C11.4481 2.99729 11.3493 3.03446 11.2745 3.1036C11.1998 3.17273 11.1551 3.26836 11.1499 3.37004V32.64C11.1511 32.6895 11.1623 32.7382 11.1827 32.7833C11.2032 32.8284 11.2324 32.8689 11.2688 32.9025C11.3052 32.936 11.3479 32.962 11.3944 32.9787C11.441 32.9955 11.4905 33.0027 11.5399 33H32.7499Z" fill="#605E5C"/>
<path d="M16.6499 12H3.64987C2.82144 12 2.14987 12.6716 2.14987 13.5V26.5C2.14987 27.3284 2.82144 28 3.64987 28H16.6499C17.4783 28 18.1499 27.3284 18.1499 26.5V13.5C18.1499 12.6716 17.4783 12 16.6499 12Z" fill="#038387"/>
<path fill-rule="evenodd" clip-rule="evenodd" d="M13.3699 15.7801C12.6671 15.217 11.7783 14.9386 10.8799 15.0001H7.24988V24.7801H9.02988V21.3201H10.7599C11.3946 21.3385 12.0237 21.1975 12.5899 20.9101C13.1012 20.6557 13.5258 20.2556 13.8099 19.7601C14.1025 19.242 14.251 18.655 14.2399 18.0601C14.2672 17.6399 14.2037 17.2187 14.0535 16.8252C13.9034 16.4317 13.6702 16.0753 13.3699 15.7801ZM10.5599 19.8301H9.02988V16.5101H10.6199C11.7799 16.5101 12.3699 17.0501 12.3699 18.1301C12.3871 18.3622 12.3551 18.5954 12.2758 18.8143C12.1965 19.0332 12.0718 19.2328 11.9099 19.4001C11.5337 19.7149 11.0489 19.8694 10.5599 19.8301Z" fill="white"/>
<path d="M29.6499 24H20.1499V25H29.6499C29.7825 25 29.9097 24.9473 30.0034 24.8536C30.0972 24.7598 30.1499 24.6326 30.1499 24.5C30.1499 24.3674 30.0972 24.2402 30.0034 24.1464C29.9097 24.0527 29.7825 24 29.6499 24Z" fill="#038387"/>
<path d="M29.6499 21H20.1499V22H29.6499C29.7825 22 29.9097 21.9473 30.0034 21.8536C30.0972 21.7598 30.1499 21.6326 30.1499 21.5C30.1499 21.3674 30.0972 21.2402 30.0034 21.1464C29.9097 21.0527 29.7825 21 29.6499 21Z" fill="#1A9BA1"/>
<path d="M20.1499 15H29.1499C29.4151 15 29.6694 15.1054 29.857 15.2929C30.0445 15.4804 30.1499 15.7348 30.1499 16V18C30.1499 18.2652 30.0445 18.5196 29.857 18.7071C29.6694 18.8946 29.4151 19 29.1499 19H20.1499V15Z" fill="#37C6D0"/>
</svg>
