<svg width="37" height="36" viewBox="0 0 37 36" fill="none" xmlns="http://www.w3.org/2000/svg">
<path d="M11.84 32.9999H33.0499C33.1517 33.0026 33.2505 32.9655 33.3253 32.8963C33.4 32.8272 33.4448 32.7316 33.45 32.6299V9.9999H27.85C27.4786 9.9999 27.1226 9.8524 26.86 9.58985C26.5975 9.3273 26.45 8.9712 26.45 8.5999V2.9999H11.85C11.7482 2.99715 11.6494 3.03432 11.5746 3.10346C11.4999 3.17259 11.4551 3.26822 11.45 3.3699V32.6399C11.4512 32.6894 11.4624 32.7381 11.4828 32.7832C11.5032 32.8282 11.5325 32.8688 11.5689 32.9023C11.6052 32.9359 11.648 32.9618 11.6945 32.9786C11.7411 32.9953 11.7905 33.0026 11.84 32.9999Z" fill="white"/>
<path d="M32.65 9.00006L27.45 3.81006V8.60006C27.45 8.82006 27.63 9.00006 27.85 9.00006H32.65Z" fill="white"/>
<path opacity="0.64" fill-rule="evenodd" clip-rule="evenodd" d="M34.06 9.00004L27.45 2.42004C27.1835 2.15595 26.8251 2.0054 26.45 2.00004H11.85C11.483 1.99736 11.1299 2.13989 10.8676 2.39654C10.6054 2.65318 10.4552 3.00313 10.45 3.37004V32.64C10.4513 32.8208 10.4883 32.9995 10.559 33.1659C10.6297 33.3323 10.7326 33.483 10.8618 33.6094C10.991 33.7359 11.144 33.8354 11.3118 33.9025C11.4797 33.9695 11.6592 34.0027 11.84 34H33.0499C33.4169 34.0027 33.77 33.8602 34.0323 33.6035C34.2945 33.3469 34.4447 32.997 34.45 32.63V9.92004C34.4445 9.57434 34.3046 9.24435 34.06 9.00004ZM27.45 3.81004L32.65 9.00004H27.85C27.7439 9.00004 27.6421 8.95789 27.5671 8.88288C27.4921 8.80787 27.45 8.70612 27.45 8.60004V3.81004ZM33.0499 33C33.1517 33.0028 33.2505 32.9656 33.3253 32.8965C33.4 32.8273 33.4448 32.7317 33.45 32.63V10H27.85C27.4786 10 27.1226 9.85254 26.86 9.58999C26.5975 9.32744 26.45 8.97134 26.45 8.60004V3.00004H11.85C11.7482 2.99729 11.6494 3.03446 11.5746 3.1036C11.4999 3.17273 11.4551 3.26836 11.45 3.37004V32.64C11.4512 32.6895 11.4624 32.7382 11.4828 32.7833C11.5032 32.8284 11.5325 32.8689 11.5689 32.9025C11.6052 32.936 11.648 32.962 11.6945 32.9787C11.7411 32.9955 11.7905 33.0027 11.84 33H33.0499Z" fill="#605E5C"/>
<path d="M16.95 12H3.94995C3.12152 12 2.44995 12.6716 2.44995 13.5V26.5C2.44995 27.3284 3.12152 28 3.94995 28H16.95C17.7784 28 18.45 27.3284 18.45 26.5V13.5C18.45 12.6716 17.7784 12 16.95 12Z" fill="#038387"/>
<path fill-rule="evenodd" clip-rule="evenodd" d="M13.6699 15.7801C12.9671 15.217 12.0784 14.9386 11.1799 15.0001H7.54993V24.7801H9.32993V21.3201H11.0599C11.6946 21.3385 12.3238 21.1975 12.8899 20.9101C13.4013 20.6557 13.8258 20.2556 14.1099 19.7601C14.4026 19.242 14.551 18.655 14.5399 18.0601C14.5673 17.6399 14.5037 17.2187 14.3536 16.8252C14.2035 16.4317 13.9703 16.0753 13.6699 15.7801ZM10.8599 19.8301H9.32993V16.5101H10.9199C12.0799 16.5101 12.6699 17.0501 12.6699 18.1301C12.6872 18.3622 12.6551 18.5954 12.5758 18.8143C12.4966 19.0332 12.3719 19.2328 12.2099 19.4001C11.8337 19.7149 11.3489 19.8694 10.8599 19.8301Z" fill="white"/>
<path d="M29.95 24H20.45V25H29.95C30.0826 25 30.2097 24.9473 30.3035 24.8536C30.3973 24.7598 30.45 24.6326 30.45 24.5C30.45 24.3674 30.3973 24.2402 30.3035 24.1464C30.2097 24.0527 30.0826 24 29.95 24Z" fill="#038387"/>
<path d="M29.95 21H20.45V22H29.95C30.0826 22 30.2097 21.9473 30.3035 21.8536C30.3973 21.7598 30.45 21.6326 30.45 21.5C30.45 21.3674 30.3973 21.2402 30.3035 21.1464C30.2097 21.0527 30.0826 21 29.95 21Z" fill="#1A9BA1"/>
<path d="M20.45 15H29.45C29.7152 15 29.9695 15.1054 30.1571 15.2929C30.3446 15.4804 30.45 15.7348 30.45 16V18C30.45 18.2652 30.3446 18.5196 30.1571 18.7071C29.9695 18.8946 29.7152 19 29.45 19H20.45V15Z" fill="#37C6D0"/>
</svg>
