<svg width="37" height="36" viewBox="0 0 37 36" fill="none" xmlns="http://www.w3.org/2000/svg">
<path d="M12.14 32.9999H33.35C33.4518 33.0026 33.5506 32.9655 33.6253 32.8963C33.7001 32.8272 33.7448 32.7316 33.75 32.6299V9.9999H28.15C27.7787 9.9999 27.4226 9.8524 27.1601 9.58985C26.8975 9.3273 26.75 8.9712 26.75 8.5999V2.9999H12.15C12.0482 2.99715 11.9494 3.03432 11.8747 3.10346C11.7999 3.17259 11.7552 3.26822 11.75 3.3699V32.6399C11.7513 32.6894 11.7624 32.7381 11.7829 32.7832C11.8033 32.8282 11.8326 32.8688 11.8689 32.9023C11.9053 32.9359 11.948 32.9618 11.9946 32.9786C12.0411 32.9953 12.0906 33.0026 12.14 32.9999Z" fill="white"/>
<path d="M32.95 9.00006L27.75 3.81006V8.60006C27.75 8.82006 27.93 9.00006 28.15 9.00006H32.95Z" fill="white"/>
<path opacity="0.64" fill-rule="evenodd" clip-rule="evenodd" d="M34.36 9.00004L27.75 2.42004C27.4836 2.15595 27.1251 2.0054 26.75 2.00004H12.15C11.7831 1.99736 11.4299 2.13989 11.1677 2.39654C10.9054 2.65318 10.7553 3.00313 10.75 3.37004V32.64C10.7513 32.8208 10.7884 32.9995 10.859 33.1659C10.9297 33.3323 11.0326 33.483 11.1619 33.6094C11.2911 33.7359 11.444 33.8354 11.6119 33.9025C11.7798 33.9695 11.9593 34.0027 12.14 34H33.35C33.7169 34.0027 34.0701 33.8602 34.3323 33.6035C34.5946 33.3469 34.7447 32.997 34.75 32.63V9.92004C34.7445 9.57434 34.6046 9.24435 34.36 9.00004ZM27.75 3.81004L32.95 9.00004H28.15C28.0439 9.00004 27.9422 8.95789 27.8672 8.88288C27.7921 8.80787 27.75 8.70612 27.75 8.60004V3.81004ZM33.35 33C33.4518 33.0028 33.5506 32.9656 33.6253 32.8965C33.7001 32.8273 33.7448 32.7317 33.75 32.63V10H28.15C27.7787 10 27.4226 9.85254 27.1601 9.58999C26.8975 9.32744 26.75 8.97134 26.75 8.60004V3.00004H12.15C12.0482 2.99729 11.9494 3.03446 11.8747 3.1036C11.7999 3.17273 11.7552 3.26836 11.75 3.37004V32.64C11.7513 32.6895 11.7624 32.7382 11.7829 32.7833C11.8033 32.8284 11.8326 32.8689 11.8689 32.9025C11.9053 32.936 11.948 32.962 11.9946 32.9787C12.0411 32.9955 12.0906 33.0027 12.14 33H33.35Z" fill="#605E5C"/>
<path d="M17.25 12H4.25C3.42157 12 2.75 12.6716 2.75 13.5V26.5C2.75 27.3284 3.42157 28 4.25 28H17.25C18.0784 28 18.75 27.3284 18.75 26.5V13.5C18.75 12.6716 18.0784 12 17.25 12Z" fill="#038387"/>
<path fill-rule="evenodd" clip-rule="evenodd" d="M13.97 15.7801C13.2672 15.217 12.3784 14.9386 11.48 15.0001H7.84998V24.7801H9.62998V21.3201H11.36C11.9946 21.3385 12.6238 21.1975 13.19 20.9101C13.7013 20.6557 14.1259 20.2556 14.41 19.7601C14.7026 19.242 14.8511 18.655 14.84 18.0601C14.8673 17.6399 14.8038 17.2187 14.6536 16.8252C14.5035 16.4317 14.2703 16.0753 13.97 15.7801ZM11.16 19.8301H9.62998V16.5101H11.22C12.38 16.5101 12.97 17.0501 12.97 18.1301C12.9872 18.3622 12.9552 18.5954 12.8759 18.8143C12.7966 19.0332 12.6719 19.2328 12.51 19.4001C12.1338 19.7149 11.649 19.8694 11.16 19.8301Z" fill="white"/>
<path d="M30.25 24H20.75V25H30.25C30.3826 25 30.5098 24.9473 30.6036 24.8536C30.6973 24.7598 30.75 24.6326 30.75 24.5C30.75 24.3674 30.6973 24.2402 30.6036 24.1464C30.5098 24.0527 30.3826 24 30.25 24Z" fill="#038387"/>
<path d="M30.25 21H20.75V22H30.25C30.3826 22 30.5098 21.9473 30.6036 21.8536C30.6973 21.7598 30.75 21.6326 30.75 21.5C30.75 21.3674 30.6973 21.2402 30.6036 21.1464C30.5098 21.0527 30.3826 21 30.25 21Z" fill="#1A9BA1"/>
<path d="M20.75 15H29.75C30.0152 15 30.2696 15.1054 30.4571 15.2929C30.6446 15.4804 30.75 15.7348 30.75 16V18C30.75 18.2652 30.6446 18.5196 30.4571 18.7071C30.2696 18.8946 30.0152 19 29.75 19H20.75V15Z" fill="#37C6D0"/>
</svg>
