<svg width="37" height="36" viewBox="0 0 37 36" fill="none" xmlns="http://www.w3.org/2000/svg">
<path d="M12.3385 33H33.5525C33.7685 33 33.9525 32.83 33.9525 32.628V10H28.3525C27.5805 10 26.9525 9.372 26.9525 8.6V3H12.3525C12.1365 3 11.9525 3.17 11.9525 3.372V32.642C11.9525 32.839 12.1255 33 12.3385 33Z" fill="white"/>
<path d="M33.1565 8.99994L27.9525 3.81494V8.59994C27.9525 8.81994 28.1325 8.99994 28.3525 8.99994H33.1565Z" fill="white"/>
<path opacity="0.64" fill-rule="evenodd" clip-rule="evenodd" d="M34.5655 8.993L27.9705 2.421C27.6997 2.15221 27.334 2.00095 26.9525 2H12.3525C11.5805 2 10.9525 2.615 10.9525 3.372V32.642C10.9525 33.391 11.5745 34 12.3385 34H33.5525C34.3245 34 34.9525 33.385 34.9525 32.628V9.923C34.9525 9.577 34.8125 9.237 34.5655 8.993ZM27.9525 3.815L33.1565 9H28.3525C28.2464 9 28.1447 8.95786 28.0696 8.88284C27.9946 8.80783 27.9525 8.70609 27.9525 8.6V3.815ZM33.5525 33C33.7685 33 33.9525 32.83 33.9525 32.628V10H28.3525C27.5805 10 26.9525 9.372 26.9525 8.6V3H12.3525C12.1365 3 11.9525 3.17 11.9525 3.372V32.642C11.9525 32.84 12.1255 33 12.3385 33H33.5525Z" fill="#605E5C"/>
<path d="M24.9175 20.035L23.9525 19H21.9525L20.9525 20V24.463C22.05 25.4528 23.4756 26.0005 24.9535 26C26.5386 25.9998 28.0592 25.3723 29.1832 24.2547C30.3072 23.137 30.9432 21.6201 30.9525 20.035H24.9175Z" fill="#ED6C47"/>
<path d="M25.9525 13V19H31.9525C31.9525 17.4087 31.3203 15.8826 30.1951 14.7574C29.0699 13.6321 27.5438 13 25.9525 13Z" fill="#FFC7B5"/>
<path d="M20.9525 15.554V20H24.9525V14C23.4734 14.0084 22.0493 14.5617 20.9525 15.554Z" fill="#FF8F6B"/>
<path d="M4.45248 28H17.4525C17.8503 28 18.2318 27.842 18.5131 27.5607C18.7944 27.2794 18.9525 26.8978 18.9525 26.5V13.5C18.9525 13.1022 18.7944 12.7206 18.5131 12.4393C18.2318 12.158 17.8503 12 17.4525 12H4.45248C4.05466 12 3.67313 12.158 3.39182 12.4393C3.11052 12.7206 2.95248 13.1022 2.95248 13.5V26.5C2.95248 26.8978 3.11052 27.2794 3.39182 27.5607C3.67313 27.842 4.05466 28 4.45248 28Z" fill="#C43E1C"/>
<path fill-rule="evenodd" clip-rule="evenodd" d="M14.1765 15.785C13.5995 15.261 12.7655 15 11.6795 15H8.05447V24.784H9.83247V21.324H11.5625C12.2585 21.324 12.8685 21.187 13.3955 20.911C13.9051 20.6522 14.3286 20.251 14.6145 19.756C14.8995 19.259 15.0425 18.693 15.0425 18.056C15.0425 17.065 14.7545 16.308 14.1765 15.785ZM11.3615 19.83H9.83147V16.515H11.4185C12.5865 16.515 13.1705 17.054 13.1705 18.131C13.1705 18.687 13.0175 19.108 12.7135 19.397C12.4085 19.686 11.9585 19.83 11.3615 19.83Z" fill="white"/>
</svg>
