<svg width="37" height="36" viewBox="0 0 37 36" fill="none" xmlns="http://www.w3.org/2000/svg">
<path d="M11.936 33H33.15C33.366 33 33.55 32.83 33.55 32.628V10H27.95C27.178 10 26.55 9.372 26.55 8.6V3H11.95C11.734 3 11.55 3.17 11.55 3.372V32.642C11.55 32.839 11.723 33 11.936 33Z" fill="white"/>
<path d="M32.754 8.99994L27.55 3.81494V8.59994C27.55 8.81994 27.73 8.99994 27.95 8.99994H32.754Z" fill="white"/>
<path opacity="0.64" fill-rule="evenodd" clip-rule="evenodd" d="M34.163 8.993L27.568 2.421C27.2973 2.15221 26.9315 2.00095 26.55 2H11.95C11.178 2 10.55 2.615 10.55 3.372V32.642C10.55 33.391 11.172 34 11.936 34H33.15C33.922 34 34.55 33.385 34.55 32.628V9.923C34.55 9.577 34.41 9.237 34.163 8.993ZM27.55 3.815L32.754 9H27.95C27.8439 9 27.7422 8.95786 27.6672 8.88284C27.5922 8.80783 27.55 8.70609 27.55 8.6V3.815ZM33.15 33C33.366 33 33.55 32.83 33.55 32.628V10H27.95C27.178 10 26.55 9.372 26.55 8.6V3H11.95C11.734 3 11.55 3.17 11.55 3.372V32.642C11.55 32.84 11.723 33 11.936 33H33.15Z" fill="#605E5C"/>
<path d="M30.05 24H20.55V25H30.05C30.1826 25 30.3098 24.9473 30.4036 24.8536C30.4973 24.7598 30.55 24.6326 30.55 24.5C30.55 24.3674 30.4973 24.2402 30.4036 24.1464C30.3098 24.0527 30.1826 24 30.05 24Z" fill="#103F91"/>
<path d="M30.05 21H20.55V22H30.05C30.1826 22 30.3098 21.9473 30.4036 21.8536C30.4973 21.7598 30.55 21.6326 30.55 21.5C30.55 21.3674 30.4973 21.2402 30.4036 21.1464C30.3098 21.0527 30.1826 21 30.05 21Z" fill="#185ABD"/>
<path d="M30.05 18H20.55V19H30.05C30.1826 19 30.3098 18.9473 30.4036 18.8536C30.4973 18.7598 30.55 18.6326 30.55 18.5C30.55 18.3674 30.4973 18.2402 30.4036 18.1464C30.3098 18.0527 30.1826 18 30.05 18Z" fill="#2B7CD3"/>
<path d="M30.05 15H20.55V16H30.05C30.1826 16 30.3098 15.9473 30.4036 15.8536C30.4973 15.7598 30.55 15.6326 30.55 15.5C30.55 15.3674 30.4973 15.2402 30.4036 15.1464C30.3098 15.0527 30.1826 15 30.05 15Z" fill="#41A5EE"/>
<path d="M4.05002 28H17.05C17.4478 28 17.8294 27.842 18.1107 27.5607C18.392 27.2794 18.55 26.8978 18.55 26.5V13.5C18.55 13.1022 18.392 12.7206 18.1107 12.4393C17.8294 12.158 17.4478 12 17.05 12H4.05002C3.65219 12 3.27066 12.158 2.98936 12.4393C2.70805 12.7206 2.55002 13.1022 2.55002 13.5V26.5C2.55002 26.8978 2.70805 27.2794 2.98936 27.5607C3.27066 27.842 3.65219 28 4.05002 28Z" fill="#185ABD"/>
<path d="M8.40703 22.55H8.43403C8.44403 22.416 9.79203 16 9.79203 16H11.35C11.35 16 12.728 22.118 12.77 22.538H12.79C12.808 22.248 13.924 16 13.924 16H15.35L13.595 24H11.929C11.929 24 10.545 17.68 10.534 17.568H10.514C10.5 17.698 9.21403 24 9.21403 24H7.51803L5.75003 16H7.20203C7.20203 16 8.40203 22.408 8.40903 22.55H8.40703Z" fill="#F9F7F7"/>
</svg>
