<svg width="37" height="36" viewBox="0 0 37 36" fill="none" xmlns="http://www.w3.org/2000/svg">
<path d="M7.43605 33H28.65C28.866 33 29.05 32.83 29.05 32.628V10H23.45C22.678 10 22.05 9.372 22.05 8.6V3H7.45005C7.23405 3 7.05005 3.17 7.05005 3.372V32.642C7.05005 32.839 7.22305 33 7.43605 33Z" fill="white"/>
<path d="M28.254 8.99994L23.05 3.81494V8.59994C23.05 8.81994 23.23 8.99994 23.45 8.99994H28.254Z" fill="white"/>
<path opacity="0.64" fill-rule="evenodd" clip-rule="evenodd" d="M29.663 8.993L23.068 2.421C22.7973 2.15221 22.4316 2.00095 22.05 2H7.45005C6.67805 2 6.05005 2.615 6.05005 3.372V32.642C6.05005 33.39 6.67205 34 7.43605 34H28.65C29.422 34 30.05 33.385 30.05 32.628V9.923C30.05 9.577 29.91 9.237 29.663 8.993ZM23.05 3.815L28.254 9H23.45C23.344 9 23.2422 8.95786 23.1672 8.88284C23.0922 8.80783 23.05 8.70609 23.05 8.6V3.815ZM28.65 33C28.866 33 29.05 32.83 29.05 32.628V10H23.45C22.678 10 22.05 9.372 22.05 8.6V3H7.45005C7.23405 3 7.05005 3.17 7.05005 3.372V32.642C7.05005 32.84 7.22305 33 7.43605 33H28.65Z" fill="#605E5C"/>
</svg>
