<svg width="37" height="36" viewBox="0 0 37 36" fill="none" xmlns="http://www.w3.org/2000/svg">
<path d="M12.136 33H33.35C33.566 33 33.75 32.83 33.75 32.628V10H28.15C27.378 10 26.75 9.372 26.75 8.6V3H12.15C11.934 3 11.75 3.17 11.75 3.372V32.642C11.75 32.839 11.923 33 12.136 33Z" fill="white"/>
<path d="M32.954 8.99994L27.75 3.81494V8.59994C27.75 8.81994 27.93 8.99994 28.15 8.99994H32.954Z" fill="white"/>
<path opacity="0.64" fill-rule="evenodd" clip-rule="evenodd" d="M34.363 8.993L27.768 2.421C27.4972 2.15221 27.1315 2.00095 26.75 2H12.15C11.378 2 10.75 2.615 10.75 3.372V32.642C10.75 33.391 11.372 34 12.136 34H33.35C34.122 34 34.75 33.385 34.75 32.628V9.923C34.75 9.577 34.61 9.237 34.363 8.993ZM27.75 3.815L32.954 9H28.15C28.0439 9 27.9421 8.95786 27.8671 8.88284C27.7921 8.80783 27.75 8.70609 27.75 8.6V3.815ZM33.35 33C33.566 33 33.75 32.83 33.75 32.628V10H28.15C27.378 10 26.75 9.372 26.75 8.6V3H12.15C11.934 3 11.75 3.17 11.75 3.372V32.642C11.75 32.84 11.923 33 12.136 33H33.35Z" fill="#605E5C"/>
<path d="M30.25 24H20.75V25H30.25C30.3826 25 30.5098 24.9473 30.6035 24.8536C30.6973 24.7598 30.75 24.6326 30.75 24.5C30.75 24.3674 30.6973 24.2402 30.6035 24.1464C30.5098 24.0527 30.3826 24 30.25 24Z" fill="#103F91"/>
<path d="M30.25 21H20.75V22H30.25C30.3826 22 30.5098 21.9473 30.6035 21.8536C30.6973 21.7598 30.75 21.6326 30.75 21.5C30.75 21.3674 30.6973 21.2402 30.6035 21.1464C30.5098 21.0527 30.3826 21 30.25 21Z" fill="#185ABD"/>
<path d="M30.25 18H20.75V19H30.25C30.3826 19 30.5098 18.9473 30.6035 18.8536C30.6973 18.7598 30.75 18.6326 30.75 18.5C30.75 18.3674 30.6973 18.2402 30.6035 18.1464C30.5098 18.0527 30.3826 18 30.25 18Z" fill="#2B7CD3"/>
<path d="M30.25 15H20.75V16H30.25C30.3826 16 30.5098 15.9473 30.6035 15.8536C30.6973 15.7598 30.75 15.6326 30.75 15.5C30.75 15.3674 30.6973 15.2402 30.6035 15.1464C30.5098 15.0527 30.3826 15 30.25 15Z" fill="#41A5EE"/>
<path d="M4.24998 28H17.25C17.6478 28 18.0293 27.842 18.3106 27.5607C18.5919 27.2794 18.75 26.8978 18.75 26.5V13.5C18.75 13.1022 18.5919 12.7206 18.3106 12.4393C18.0293 12.158 17.6478 12 17.25 12H4.24998C3.85215 12 3.47062 12.158 3.18932 12.4393C2.90801 12.7206 2.74998 13.1022 2.74998 13.5V26.5C2.74998 26.8978 2.90801 27.2794 3.18932 27.5607C3.47062 27.842 3.85215 28 4.24998 28Z" fill="#185ABD"/>
<path d="M8.60698 22.55H8.63398C8.64398 22.416 9.99198 16 9.99198 16H11.55C11.55 16 12.928 22.118 12.97 22.538H12.99C13.008 22.248 14.124 16 14.124 16H15.55L13.795 24H12.129C12.129 24 10.745 17.68 10.734 17.568H10.714C10.7 17.698 9.41398 24 9.41398 24H7.71798L5.94998 16H7.40198C7.40198 16 8.60198 22.408 8.60898 22.55H8.60698Z" fill="#F9F7F7"/>
</svg>
