<svg width="37" height="36" viewBox="0 0 37 36" fill="none" xmlns="http://www.w3.org/2000/svg">
<path d="M5.14999 32H32.15C32.425 32 32.65 31.775 32.65 31.5V4.5C32.65 4.225 32.425 4 32.15 4H5.14999C4.87499 4 4.64999 4.225 4.64999 4.5V31.5C4.64999 31.775 4.87499 32 5.14999 32Z" fill="white"/>
<path d="M22.27 19.683L20.214 22.793L16.728 17.825C16.6219 17.6673 16.4786 17.538 16.3107 17.4486C16.1429 17.3592 15.9556 17.3125 15.7655 17.3125C15.5753 17.3125 15.3881 17.3592 15.2203 17.4486C15.0524 17.538 14.9091 17.6673 14.803 17.825L9.37799 25.552C8.80799 26.364 9.36999 27.5 10.34 27.5H27.15C28.106 27.5 28.67 26.395 28.132 25.58L24.232 19.683C24.1275 19.5172 23.9827 19.3805 23.811 19.2857C23.6394 19.191 23.4465 19.1413 23.2505 19.1413C23.0544 19.1413 22.8616 19.191 22.69 19.2857C22.5183 19.3805 22.3735 19.5172 22.269 19.683H22.27Z" stroke="#A6CCC3"/>
<path d="M25.65 13.5C26.313 13.5 26.9489 13.2366 27.4178 12.7678C27.8866 12.2989 28.15 11.663 28.15 11C28.15 10.337 27.8866 9.70107 27.4178 9.23223C26.9489 8.76339 26.313 8.5 25.65 8.5C24.987 8.5 24.3511 8.76339 23.8822 9.23223C23.4134 9.70107 23.15 10.337 23.15 11C23.15 11.663 23.4134 12.2989 23.8822 12.7678C24.3511 13.2366 24.987 13.5 25.65 13.5Z" stroke="#FF9810"/>
<path opacity="0.64" fill-rule="evenodd" clip-rule="evenodd" d="M5.14999 33H32.15C32.977 33 33.65 32.327 33.65 31.5V4.5C33.65 3.673 32.977 3 32.15 3H5.14999C4.32299 3 3.64999 3.673 3.64999 4.5V31.5C3.64999 32.327 4.32299 33 5.14999 33ZM4.64999 4.5C4.64999 4.36739 4.70267 4.24021 4.79644 4.14645C4.89021 4.05268 5.01739 4 5.14999 4H32.15C32.2826 4 32.4098 4.05268 32.5035 4.14645C32.5973 4.24021 32.65 4.36739 32.65 4.5V31.5C32.65 31.6326 32.5973 31.7598 32.5035 31.8536C32.4098 31.9473 32.2826 32 32.15 32H5.14999C5.01739 32 4.89021 31.9473 4.79644 31.8536C4.70267 31.7598 4.64999 31.6326 4.64999 31.5V4.5Z" fill="#605E5C"/>
</svg>
