<svg width="37" height="36" viewBox="0 0 37 36" fill="none" xmlns="http://www.w3.org/2000/svg">
<path d="M8.23588 33H29.4499C29.6659 33 29.8499 32.83 29.8499 32.628V10H24.2499C23.4779 10 22.8499 9.372 22.8499 8.6V3H8.24988C8.03388 3 7.84988 3.17 7.84988 3.372V32.642C7.84988 32.839 8.02288 33 8.23588 33Z" fill="white"/>
<path d="M29.0539 8.99994L23.8499 3.81494V8.59994C23.8499 8.81994 24.0299 8.99994 24.2499 8.99994H29.0539Z" fill="white"/>
<path opacity="0.64" fill-rule="evenodd" clip-rule="evenodd" d="M30.4629 8.993L23.8679 2.421C23.5971 2.15221 23.2314 2.00095 22.8499 2H8.24988C7.47788 2 6.84988 2.615 6.84988 3.372V32.642C6.84988 33.39 7.47188 34 8.23588 34H29.4499C30.2219 34 30.8499 33.385 30.8499 32.628V9.923C30.8499 9.577 30.7099 9.237 30.4629 8.993ZM23.8499 3.815L29.0539 9H24.2499C24.1438 9 24.0421 8.95786 23.967 8.88284C23.892 8.80783 23.8499 8.70609 23.8499 8.6V3.815ZM29.4499 33C29.6659 33 29.8499 32.83 29.8499 32.628V10H24.2499C23.4779 10 22.8499 9.372 22.8499 8.6V3H8.24988C8.03388 3 7.84988 3.17 7.84988 3.372V32.642C7.84988 32.84 8.02288 33 8.23588 33H29.4499Z" fill="#605E5C"/>
<path d="M20.5759 13.386L17.6239 22.243" stroke="#69AFE5" stroke-linecap="round"/>
<path d="M13.2149 20.066C13.3108 20.1525 13.4365 20.1985 13.5656 20.1944C13.6947 20.1903 13.8172 20.1363 13.9075 20.0439C13.9977 19.9515 14.0487 19.8277 14.0497 19.6985C14.0507 19.5694 14.0017 19.4448 13.9129 19.351L13.2149 20.066ZM11.3499 17.548L10.9979 17.193C10.9507 17.2397 10.9134 17.2954 10.888 17.3567C10.8626 17.418 10.8497 17.4837 10.8499 17.5501C10.8502 17.6165 10.8637 17.6821 10.8896 17.7432C10.9155 17.8043 10.9534 17.8596 11.0009 17.906L11.3499 17.548ZM13.9159 15.714C14.0102 15.6206 14.0635 15.4936 14.0641 15.361C14.0648 15.2283 14.0127 15.1008 13.9194 15.0065C13.826 14.9122 13.699 14.8589 13.5663 14.8582C13.4337 14.8575 13.3062 14.9096 13.2119 15.003L13.9159 15.714ZM23.9879 19.363C23.9399 19.4099 23.9019 19.466 23.8761 19.5279C23.8502 19.5899 23.8371 19.6564 23.8376 19.7235C23.838 19.7906 23.8519 19.8569 23.8785 19.9185C23.9051 19.9801 23.9438 20.0357 23.9924 20.0821C24.0409 20.1284 24.0983 20.1645 24.161 20.1882C24.2238 20.2119 24.2907 20.2227 24.3578 20.2199C24.4248 20.2172 24.4906 20.2011 24.5513 20.1724C24.612 20.1437 24.6662 20.1031 24.7109 20.053L23.9879 19.363ZM26.4279 17.533L26.7889 17.879C26.8775 17.786 26.927 17.6625 26.927 17.534C26.927 17.4055 26.8775 17.282 26.7889 17.189L26.4279 17.533ZM24.7119 15.013C24.6204 14.917 24.4945 14.8612 24.3619 14.8581C24.2293 14.8549 24.1009 14.9045 24.0049 14.996C23.9089 15.0875 23.8531 15.2134 23.8499 15.346C23.8468 15.4785 23.8964 15.607 23.9879 15.703L24.7119 15.013ZM13.9129 19.351L11.6989 17.19L11.0009 17.906L13.2149 20.066L13.9129 19.351ZM11.7019 17.903L13.9159 15.714L13.2119 15.002L10.9979 17.192L11.7019 17.903ZM24.7109 20.053L26.7899 17.878L26.0659 17.187L23.9879 19.362L24.7109 20.053ZM26.7899 17.187L24.7119 15.011L23.9879 15.701L26.0659 17.878L26.7899 17.187Z" fill="#69AFE5"/>
<path fill-rule="evenodd" clip-rule="evenodd" d="M11.3499 26H26.3499C26.4825 26 26.6097 25.9473 26.7034 25.8536C26.7972 25.7598 26.8499 25.6326 26.8499 25.5C26.8499 25.3674 26.7972 25.2402 26.7034 25.1464C26.6097 25.0527 26.4825 25 26.3499 25H11.3499C11.2173 25 11.0901 25.0527 10.9963 25.1464C10.9026 25.2402 10.8499 25.3674 10.8499 25.5C10.8499 25.6326 10.9026 25.7598 10.9963 25.8536C11.0901 25.9473 11.2173 26 11.3499 26ZM11.3499 29H26.3499C26.4825 29 26.6097 28.9473 26.7034 28.8536C26.7972 28.7598 26.8499 28.6326 26.8499 28.5C26.8499 28.3674 26.7972 28.2402 26.7034 28.1464C26.6097 28.0527 26.4825 28 26.3499 28H11.3499C11.2173 28 11.0901 28.0527 10.9963 28.1464C10.9026 28.2402 10.8499 28.3674 10.8499 28.5C10.8499 28.6326 10.9026 28.7598 10.9963 28.8536C11.0901 28.9473 11.2173 29 11.3499 29Z" fill="#C8C6C4"/>
</svg>
