<svg width="37" height="36" viewBox="0 0 37 36" fill="none" xmlns="http://www.w3.org/2000/svg">
<path d="M8.33592 33H29.5499C29.7659 33 29.9499 32.83 29.9499 32.628V10H24.3499C23.5779 10 22.9499 9.372 22.9499 8.6V3H8.34992C8.13392 3 7.94992 3.17 7.94992 3.372V32.642C7.94992 32.839 8.12292 33 8.33592 33Z" fill="white"/>
<path d="M29.1539 8.99994L23.9499 3.81494V8.59994C23.9499 8.81994 24.1299 8.99994 24.3499 8.99994H29.1539Z" fill="white"/>
<path opacity="0.64" fill-rule="evenodd" clip-rule="evenodd" d="M30.5629 8.993L23.9679 2.421C23.6972 2.15221 23.3314 2.00095 22.9499 2H8.34992C7.57792 2 6.94992 2.615 6.94992 3.372V32.642C6.94992 33.39 7.57192 34 8.33592 34H29.5499C30.3219 34 30.9499 33.385 30.9499 32.628V9.923C30.9499 9.577 30.8099 9.237 30.5629 8.993ZM23.9499 3.815L29.1539 9H24.3499C24.2438 9 24.1421 8.95786 24.0671 8.88284C23.9921 8.80783 23.9499 8.70609 23.9499 8.6V3.815ZM29.5499 33C29.7659 33 29.9499 32.83 29.9499 32.628V10H24.3499C23.5779 10 22.9499 9.372 22.9499 8.6V3H8.34992C8.13392 3 7.94992 3.17 7.94992 3.372V32.642C7.94992 32.84 8.12292 33 8.33592 33H29.5499Z" fill="#605E5C"/>
<path d="M11.5129 26.2C11.6429 20.988 15.2929 14.5 23.4499 14.5" stroke="#C8C6C4" stroke-linecap="round"/>
<path d="M12.4499 29H11.4499V30H12.4499V29ZM11.4499 29C11.3173 29 11.1901 28.9473 11.0964 28.8536C11.0026 28.7598 10.9499 28.6326 10.9499 28.5H9.94992C9.94992 28.8978 10.108 29.2794 10.3893 29.5607C10.6706 29.842 11.0521 30 11.4499 30V29ZM10.9499 28.5V27.5H9.94992V28.5H10.9499ZM10.9499 27.5C10.9499 27.3674 11.0026 27.2402 11.0964 27.1464C11.1901 27.0527 11.3173 27 11.4499 27V26C11.0521 26 10.6706 26.158 10.3893 26.4393C10.108 26.7206 9.94992 27.1022 9.94992 27.5H10.9499ZM11.4499 27H12.4499V26H11.4499V27ZM12.4499 27C12.5825 27 12.7097 27.0527 12.8035 27.1464C12.8972 27.2402 12.9499 27.3674 12.9499 27.5H13.9499C13.9499 27.1022 13.7919 26.7206 13.5106 26.4393C13.2293 26.158 12.8477 26 12.4499 26V27ZM12.9499 27.5V28.5H13.9499V27.5H12.9499ZM12.9499 28.5C12.9499 28.6326 12.8972 28.7598 12.8035 28.8536C12.7097 28.9473 12.5825 29 12.4499 29V30C12.8477 30 13.2293 29.842 13.5106 29.5607C13.7919 29.2794 13.9499 28.8978 13.9499 28.5H12.9499ZM25.4499 16H24.4499V17H25.4499V16ZM24.4499 16C24.3173 16 24.1901 15.9473 24.0964 15.8536C24.0026 15.7598 23.9499 15.6326 23.9499 15.5H22.9499C22.9499 15.8978 23.108 16.2794 23.3893 16.5607C23.6706 16.842 24.0521 17 24.4499 17V16ZM23.9499 15.5V14.5H22.9499V15.5H23.9499ZM23.9499 14.5C23.9499 14.3674 24.0026 14.2402 24.0964 14.1464C24.1901 14.0527 24.3173 14 24.4499 14V13C24.0521 13 23.6706 13.158 23.3893 13.4393C23.108 13.7206 22.9499 14.1022 22.9499 14.5H23.9499ZM24.4499 14H25.4499V13H24.4499V14ZM25.4499 14C25.5825 14 25.7097 14.0527 25.8035 14.1464C25.8972 14.2402 25.9499 14.3674 25.9499 14.5H26.9499C26.9499 14.1022 26.7919 13.7206 26.5106 13.4393C26.2293 13.158 25.8477 13 25.4499 13V14ZM25.9499 14.5V15.5H26.9499V14.5H25.9499ZM25.9499 15.5C25.9499 15.6326 25.8972 15.7598 25.8035 15.8536C25.7097 15.9473 25.5825 16 25.4499 16V17C25.8477 17 26.2293 16.842 26.5106 16.5607C26.7919 16.2794 26.9499 15.8978 26.9499 15.5H25.9499ZM15.9499 20.5C16.8782 20.5 17.7684 20.1313 18.4248 19.4749C19.0812 18.8185 19.4499 17.9283 19.4499 17C19.4499 16.0717 19.0812 15.1815 18.4248 14.5251C17.7684 13.8687 16.8782 13.5 15.9499 13.5C15.0217 13.5 14.1314 13.8687 13.475 14.5251C12.8187 15.1815 12.4499 16.0717 12.4499 17C12.4499 17.9283 12.8187 18.8185 13.475 19.4749C14.1314 20.1313 15.0217 20.5 15.9499 20.5Z" fill="#0078D7"/>
<path fill-rule="evenodd" clip-rule="evenodd" d="M11.9499 17C11.9499 14.794 13.7439 13 15.9499 13C18.1559 13 19.9499 14.794 19.9499 17C19.9499 19.206 18.1559 21 15.9499 21C13.7439 21 11.9499 19.206 11.9499 17ZM18.9499 17C18.9499 16.2044 18.6339 15.4413 18.0712 14.8787C17.5086 14.3161 16.7456 14 15.9499 14C15.1543 14 14.3912 14.3161 13.8286 14.8787C13.266 15.4413 12.9499 16.2044 12.9499 17C12.9499 17.7956 13.266 18.5587 13.8286 19.1213C14.3912 19.6839 15.1543 20 15.9499 20C16.7456 20 17.5086 19.6839 18.0712 19.1213C18.6339 18.5587 18.9499 17.7956 18.9499 17Z" fill="white"/>
<path d="M20.2769 23.0161L26.7929 25.4591C26.8411 25.4773 26.8822 25.5104 26.9103 25.5536C26.9384 25.5967 26.952 25.6477 26.9491 25.6992C26.9462 25.7506 26.927 25.7997 26.8942 25.8395C26.8614 25.8792 26.8169 25.9075 26.7669 25.9201L23.6499 26.7001L22.8699 29.8171C22.857 29.8667 22.8287 29.9109 22.7891 29.9433C22.7494 29.9758 22.7005 29.9948 22.6494 29.9977C22.5983 30.0006 22.5475 29.9872 22.5045 29.9594C22.4615 29.9316 22.4283 29.8909 22.4099 29.8431L19.9659 23.3271C19.9501 23.2837 19.947 23.2368 19.957 23.1917C19.9671 23.1466 19.9897 23.1054 20.0224 23.0728C20.0551 23.0402 20.0965 23.0177 20.1415 23.0078C20.1866 22.9979 20.2336 23.0002 20.2769 23.0161Z" fill="#0078D7"/>
</svg>
