<svg width="37" height="36" viewBox="0 0 37 36" fill="none" xmlns="http://www.w3.org/2000/svg">
<path d="M4.94995 32H31.95C32.225 32 32.45 31.775 32.45 31.5V4.5C32.45 4.225 32.225 4 31.95 4H4.94995C4.67495 4 4.44995 4.225 4.44995 4.5V31.5C4.44995 31.775 4.67495 32 4.94995 32Z" fill="white"/>
<path opacity="0.64" fill-rule="evenodd" clip-rule="evenodd" d="M4.94995 33H31.95C32.777 33 33.45 32.327 33.45 31.5V4.5C33.45 3.673 32.777 3 31.95 3H4.94995C4.12295 3 3.44995 3.673 3.44995 4.5V31.5C3.44995 32.327 4.12295 33 4.94995 33ZM4.44995 4.5C4.44995 4.36739 4.50263 4.24021 4.5964 4.14645C4.69017 4.05268 4.81734 4 4.94995 4H31.95C32.0826 4 32.2097 4.05268 32.3035 4.14645C32.3973 4.24021 32.45 4.36739 32.45 4.5V31.5C32.45 31.6326 32.3973 31.7598 32.3035 31.8536C32.2097 31.9473 32.0826 32 31.95 32H4.94995C4.81734 32 4.69017 31.9473 4.5964 31.8536C4.50263 31.7598 4.44995 31.6326 4.44995 31.5V4.5Z" fill="#605E5C"/>
<path d="M24.45 18C24.4489 18.0946 24.4241 18.1874 24.378 18.27C24.3329 18.3498 24.2673 18.4161 24.188 18.462L15.3 23.916C15.2376 23.9548 15.1682 23.9808 15.0957 23.9928C15.0233 24.0047 14.9492 24.0022 14.8777 23.9855C14.8062 23.9688 14.7386 23.9382 14.679 23.8954C14.6193 23.8525 14.5687 23.7984 14.53 23.736C14.4789 23.65 14.4513 23.552 14.45 23.452V18H24.45Z" fill="#BC1948"/>
<path d="M24.45 18C24.4489 17.9054 24.4241 17.8125 24.378 17.73C24.3329 17.6501 24.2673 17.5838 24.188 17.538L15.3 12.082C15.2155 12.0306 15.1191 12.0023 15.0203 11.9998C14.9215 11.9974 14.8238 12.0208 14.737 12.068C14.6506 12.1142 14.5783 12.183 14.5278 12.267C14.4773 12.3509 14.4504 12.447 14.45 12.545V18H24.45Z" fill="#E8467C"/>
</svg>
