<svg width="37" height="36" viewBox="0 0 37 36" fill="none" xmlns="http://www.w3.org/2000/svg">
<path d="M5.05002 32H32.05C32.325 32 32.55 31.775 32.55 31.5V4.5C32.55 4.225 32.325 4 32.05 4H5.05002C4.77502 4 4.55002 4.225 4.55002 4.5V31.5C4.55002 31.775 4.77502 32 5.05002 32Z" fill="white"/>
<path d="M22.17 19.683L20.114 22.793L16.628 17.825C16.5219 17.6673 16.3786 17.538 16.2108 17.4486C16.0429 17.3592 15.8557 17.3125 15.6655 17.3125C15.4754 17.3125 15.2881 17.3592 15.1203 17.4486C14.9524 17.538 14.8092 17.6673 14.703 17.825L9.27802 25.552C8.70802 26.364 9.27002 27.5 10.24 27.5H27.05C28.006 27.5 28.57 26.395 28.032 25.58L24.132 19.683C24.0275 19.5172 23.8827 19.3805 23.7111 19.2857C23.5394 19.191 23.3466 19.1413 23.1505 19.1413C22.9545 19.1413 22.7616 19.191 22.59 19.2857C22.4183 19.3805 22.2735 19.5172 22.169 19.683H22.17Z" stroke="#A6CCC3"/>
<path d="M25.55 13.5C26.2131 13.5 26.8489 13.2366 27.3178 12.7678C27.7866 12.2989 28.05 11.663 28.05 11C28.05 10.337 27.7866 9.70107 27.3178 9.23223C26.8489 8.76339 26.2131 8.5 25.55 8.5C24.887 8.5 24.2511 8.76339 23.7823 9.23223C23.3134 9.70107 23.05 10.337 23.05 11C23.05 11.663 23.3134 12.2989 23.7823 12.7678C24.2511 13.2366 24.887 13.5 25.55 13.5Z" stroke="#FF9810"/>
<path opacity="0.64" fill-rule="evenodd" clip-rule="evenodd" d="M5.05002 33H32.05C32.877 33 33.55 32.327 33.55 31.5V4.5C33.55 3.673 32.877 3 32.05 3H5.05002C4.22302 3 3.55002 3.673 3.55002 4.5V31.5C3.55002 32.327 4.22302 33 5.05002 33ZM4.55002 4.5C4.55002 4.36739 4.6027 4.24021 4.69647 4.14645C4.79023 4.05268 4.91741 4 5.05002 4H32.05C32.1826 4 32.3098 4.05268 32.4036 4.14645C32.4973 4.24021 32.55 4.36739 32.55 4.5V31.5C32.55 31.6326 32.4973 31.7598 32.4036 31.8536C32.3098 31.9473 32.1826 32 32.05 32H5.05002C4.91741 32 4.79023 31.9473 4.69647 31.8536C4.6027 31.7598 4.55002 31.6326 4.55002 31.5V4.5Z" fill="#605E5C"/>
</svg>
