<svg width="37" height="36" viewBox="0 0 37 36" fill="none" xmlns="http://www.w3.org/2000/svg">
<path d="M5.0238 32H32.0238C32.2988 32 32.5238 31.775 32.5238 31.5V4.5C32.5238 4.225 32.2988 4 32.0238 4H5.0238C4.7488 4 4.5238 4.225 4.5238 4.5V31.5C4.5238 31.775 4.7488 32 5.0238 32Z" fill="white"/>
<path d="M22.1438 19.683L20.0878 22.793L16.6018 17.825C16.4957 17.6673 16.3524 17.538 16.1845 17.4486C16.0167 17.3592 15.8295 17.3125 15.6393 17.3125C15.4492 17.3125 15.2619 17.3592 15.0941 17.4486C14.9262 17.538 14.7829 17.6673 14.6768 17.825L9.2518 25.552C8.6818 26.364 9.2438 27.5 10.2138 27.5H27.0238C27.9798 27.5 28.5438 26.395 28.0058 25.58L24.1058 19.683C24.0013 19.5172 23.8565 19.3805 23.6848 19.2857C23.5132 19.191 23.3204 19.1413 23.1243 19.1413C22.9283 19.1413 22.7354 19.191 22.5638 19.2857C22.3921 19.3805 22.2473 19.5172 22.1428 19.683H22.1438Z" stroke="#A6CCC3"/>
<path d="M25.5238 13.5C26.1868 13.5 26.8227 13.2366 27.2916 12.7678C27.7604 12.2989 28.0238 11.663 28.0238 11C28.0238 10.337 27.7604 9.70107 27.2916 9.23223C26.8227 8.76339 26.1868 8.5 25.5238 8.5C24.8608 8.5 24.2249 8.76339 23.756 9.23223C23.2872 9.70107 23.0238 10.337 23.0238 11C23.0238 11.663 23.2872 12.2989 23.756 12.7678C24.2249 13.2366 24.8608 13.5 25.5238 13.5Z" stroke="#FF9810"/>
<path opacity="0.64" fill-rule="evenodd" clip-rule="evenodd" d="M5.0238 33H32.0238C32.8508 33 33.5238 32.327 33.5238 31.5V4.5C33.5238 3.673 32.8508 3 32.0238 3H5.0238C4.1968 3 3.5238 3.673 3.5238 4.5V31.5C3.5238 32.327 4.1968 33 5.0238 33ZM4.5238 4.5C4.5238 4.36739 4.57648 4.24021 4.67025 4.14645C4.76402 4.05268 4.8912 4 5.0238 4H32.0238C32.1564 4 32.2836 4.05268 32.3774 4.14645C32.4711 4.24021 32.5238 4.36739 32.5238 4.5V31.5C32.5238 31.6326 32.4711 31.7598 32.3774 31.8536C32.2836 31.9473 32.1564 32 32.0238 32H5.0238C4.8912 32 4.76402 31.9473 4.67025 31.8536C4.57648 31.7598 4.5238 31.6326 4.5238 31.5V4.5Z" fill="#605E5C"/>
</svg>
