<svg width="37" height="36" viewBox="0 0 37 36" fill="none" xmlns="http://www.w3.org/2000/svg">
<path d="M11.436 33H32.65C32.866 33 33.05 32.83 33.05 32.628V10H27.45C26.678 10 26.05 9.372 26.05 8.6V3H11.45C11.234 3 11.05 3.17 11.05 3.372V32.642C11.05 32.839 11.223 33 11.436 33Z" fill="white"/>
<path d="M32.254 8.99994L27.05 3.81494V8.59994C27.05 8.81994 27.23 8.99994 27.45 8.99994H32.254Z" fill="white"/>
<path opacity="0.64" fill-rule="evenodd" clip-rule="evenodd" d="M33.663 8.993L27.068 2.421C26.7972 2.15221 26.4315 2.00095 26.05 2H11.45C10.678 2 10.05 2.615 10.05 3.372V32.642C10.05 33.391 10.672 34 11.436 34H32.65C33.422 34 34.05 33.385 34.05 32.628V9.923C34.05 9.577 33.91 9.237 33.663 8.993ZM27.05 3.815L32.254 9H27.45C27.3439 9 27.2421 8.95786 27.1671 8.88284C27.0921 8.80783 27.05 8.70609 27.05 8.6V3.815ZM32.65 33C32.866 33 33.05 32.83 33.05 32.628V10H27.45C26.678 10 26.05 9.372 26.05 8.6V3H11.45C11.234 3 11.05 3.17 11.05 3.372V32.642C11.05 32.84 11.223 33 11.436 33H32.65Z" fill="#605E5C"/>
<path d="M29.55 24H20.05V25H29.55C29.6826 25 29.8098 24.9473 29.9035 24.8536C29.9973 24.7598 30.05 24.6326 30.05 24.5C30.05 24.3674 29.9973 24.2402 29.9035 24.1464C29.8098 24.0527 29.6826 24 29.55 24Z" fill="#103F91"/>
<path d="M29.55 21H20.05V22H29.55C29.6826 22 29.8098 21.9473 29.9035 21.8536C29.9973 21.7598 30.05 21.6326 30.05 21.5C30.05 21.3674 29.9973 21.2402 29.9035 21.1464C29.8098 21.0527 29.6826 21 29.55 21Z" fill="#185ABD"/>
<path d="M29.55 18H20.05V19H29.55C29.6826 19 29.8098 18.9473 29.9035 18.8536C29.9973 18.7598 30.05 18.6326 30.05 18.5C30.05 18.3674 29.9973 18.2402 29.9035 18.1464C29.8098 18.0527 29.6826 18 29.55 18Z" fill="#2B7CD3"/>
<path d="M29.55 15H20.05V16H29.55C29.6826 16 29.8098 15.9473 29.9035 15.8536C29.9973 15.7598 30.05 15.6326 30.05 15.5C30.05 15.3674 29.9973 15.2402 29.9035 15.1464C29.8098 15.0527 29.6826 15 29.55 15Z" fill="#41A5EE"/>
<path d="M3.54996 28H16.55C16.9478 28 17.3293 27.842 17.6106 27.5607C17.8919 27.2794 18.05 26.8978 18.05 26.5V13.5C18.05 13.1022 17.8919 12.7206 17.6106 12.4393C17.3293 12.158 16.9478 12 16.55 12H3.54996C3.15214 12 2.77061 12.158 2.4893 12.4393C2.208 12.7206 2.04996 13.1022 2.04996 13.5V26.5C2.04996 26.8978 2.208 27.2794 2.4893 27.5607C2.77061 27.842 3.15214 28 3.54996 28Z" fill="#185ABD"/>
<path d="M7.90697 22.55H7.93397C7.94397 22.416 9.29197 16 9.29197 16H10.85C10.85 16 12.228 22.118 12.27 22.538H12.29C12.308 22.248 13.424 16 13.424 16H14.85L13.095 24H11.429C11.429 24 10.045 17.68 10.034 17.568H10.014C9.99997 17.698 8.71397 24 8.71397 24H7.01797L5.24997 16H6.70197C6.70197 16 7.90197 22.408 7.90897 22.55H7.90697Z" fill="#F9F7F7"/>
</svg>
