<svg width="37" height="36" viewBox="0 0 37 36" fill="none" xmlns="http://www.w3.org/2000/svg">
<path d="M8.00507 33H29.2191C29.4351 33 29.6191 32.83 29.6191 32.628V10H24.0191C23.2471 10 22.6191 9.372 22.6191 8.6V3H8.01907C7.80307 3 7.61907 3.17 7.61907 3.372V32.642C7.61907 32.839 7.79207 33 8.00507 33Z" fill="white"/>
<path d="M28.8231 8.99994L23.6191 3.81494V8.59994C23.6191 8.81994 23.7991 8.99994 24.0191 8.99994H28.8231Z" fill="white"/>
<path opacity="0.64" fill-rule="evenodd" clip-rule="evenodd" d="M30.2321 8.993L23.6371 2.421C23.3663 2.15221 23.0006 2.00095 22.6191 2H8.01907C7.24707 2 6.61907 2.615 6.61907 3.372V32.642C6.61907 33.39 7.24107 34 8.00507 34H29.2191C29.9911 34 30.6191 33.385 30.6191 32.628V9.923C30.6191 9.577 30.4791 9.237 30.2321 8.993ZM23.6191 3.815L28.8231 9H24.0191C23.913 9 23.8112 8.95786 23.7362 8.88284C23.6612 8.80783 23.6191 8.70609 23.6191 8.6V3.815ZM29.2191 33C29.4351 33 29.6191 32.83 29.6191 32.628V10H24.0191C23.2471 10 22.6191 9.372 22.6191 8.6V3H8.01907C7.80307 3 7.61907 3.17 7.61907 3.372V32.642C7.61907 32.84 7.79207 33 8.00507 33H29.2191Z" fill="#605E5C"/>
<path d="M18.6191 22.5C19.8125 22.5 20.9571 22.0259 21.8011 21.182C22.645 20.3381 23.1191 19.1935 23.1191 18C23.1191 16.8065 22.645 15.6619 21.8011 14.818C20.9571 13.9741 19.8125 13.5 18.6191 13.5C17.4256 13.5 16.281 13.9741 15.4371 14.818C14.5932 15.6619 14.1191 16.8065 14.1191 18C14.1191 19.1935 14.5932 20.3381 15.4371 21.182C16.281 22.0259 17.4256 22.5 18.6191 22.5Z" stroke="#69AFE5"/>
<path d="M19.7441 18C19.7441 19.22 19.6221 20.285 19.3801 21.027C19.2591 21.399 19.1191 21.656 18.9781 21.811C18.8481 21.956 18.7331 22 18.6191 22V23C19.0711 23 19.4411 22.792 19.7211 22.481C19.9911 22.181 20.1871 21.779 20.3311 21.337C20.6191 20.45 20.7441 19.266 20.7441 18H19.7441ZM18.6191 22C18.5151 22 18.4041 21.959 18.2731 21.807C18.1331 21.643 17.9951 21.375 17.8761 20.988C17.6401 20.22 17.5261 19.128 17.5261 17.906H16.5261C16.5261 19.17 16.6421 20.376 16.9211 21.282C17.0591 21.734 17.2491 22.148 17.5141 22.457C17.7881 22.777 18.1591 23 18.6191 23V22ZM17.5261 17.906C17.5261 16.683 17.6411 15.643 17.8741 14.926C18.1211 14.167 18.4101 14 18.6191 14V13C17.6991 13 17.1911 13.793 16.9231 14.616C16.6421 15.48 16.5261 16.643 16.5261 17.906H17.5261ZM18.6191 14C18.7331 14 18.8481 14.044 18.9791 14.188C19.1191 14.344 19.2591 14.601 19.3801 14.973C19.6221 15.715 19.7441 16.781 19.7441 18H20.7441C20.7441 16.734 20.6191 15.55 20.3311 14.663C20.1871 14.221 19.9911 13.819 19.7211 13.519C19.4411 13.209 19.0711 13 18.6191 13V14ZM14.5291 17H22.7101V16H14.5291V17ZM22.7101 16H14.5291V17H22.7101V16ZM14.5281 20H22.7101V19H14.5291L14.5281 20ZM22.7101 19H14.5291L14.5281 20H22.7101V19Z" fill="#69AFE5"/>
<path fill-rule="evenodd" clip-rule="evenodd" d="M11.1191 26H26.1191C26.2517 26 26.3789 25.9473 26.4726 25.8536C26.5664 25.7598 26.6191 25.6326 26.6191 25.5C26.6191 25.3674 26.5664 25.2402 26.4726 25.1464C26.3789 25.0527 26.2517 25 26.1191 25H11.1191C10.9865 25 10.8593 25.0527 10.7655 25.1464C10.6717 25.2402 10.6191 25.3674 10.6191 25.5C10.6191 25.6326 10.6717 25.7598 10.7655 25.8536C10.8593 25.9473 10.9865 26 11.1191 26ZM11.1191 29H26.1191C26.2517 29 26.3789 28.9473 26.4726 28.8536C26.5664 28.7598 26.6191 28.6326 26.6191 28.5C26.6191 28.3674 26.5664 28.2402 26.4726 28.1464C26.3789 28.0527 26.2517 28 26.1191 28H11.1191C10.9865 28 10.8593 28.0527 10.7655 28.1464C10.6717 28.2402 10.6191 28.3674 10.6191 28.5C10.6191 28.6326 10.6717 28.7598 10.7655 28.8536C10.8593 28.9473 10.9865 29 11.1191 29Z" fill="#C8C6C4"/>
</svg>
