<svg width="37" height="36" viewBox="0 0 37 36" fill="none" xmlns="http://www.w3.org/2000/svg">
<path d="M31.7499 7.98999H4.74991C4.6173 7.98999 4.49012 8.04267 4.39636 8.13644C4.30259 8.23021 4.24991 8.35738 4.24991 8.48999V27.49C4.24991 27.6226 4.30259 27.7498 4.39636 27.8435C4.49012 27.9373 4.6173 27.99 4.74991 27.99H9.18991C9.18991 27.92 9.23991 27.69 9.25991 27.62C9.34691 27.1576 9.59413 26.7407 9.95809 26.4426C10.3221 26.1445 10.7795 25.9842 11.2499 25.99C11.7221 25.9819 12.1818 26.141 12.5479 26.4394C12.9139 26.7377 13.1626 27.1559 13.2499 27.62V27.96H23.2499C23.2589 27.835 23.2819 27.71 23.3199 27.59C23.411 27.1432 23.6521 26.7411 24.0031 26.4501C24.3541 26.1591 24.794 25.9967 25.2499 25.99C25.7221 25.9819 26.1818 26.141 26.5479 26.4394C26.9139 26.7377 27.1626 27.1559 27.2499 27.62C27.2579 27.74 27.2579 27.86 27.2499 27.98H31.7499C31.8825 27.98 32.0097 27.9273 32.1035 27.8335C32.1972 27.7398 32.2499 27.6126 32.2499 27.48V8.48999C32.2499 8.35738 32.1972 8.23021 32.1035 8.13644C32.0097 8.04267 31.8825 7.98999 31.7499 7.98999Z" fill="white"/>
<path d="M11.7499 18.49C12.5456 18.49 13.3086 18.1739 13.8712 17.6113C14.4338 17.0487 14.7499 16.2856 14.7499 15.49C14.7499 14.6943 14.4338 13.9313 13.8712 13.3687C13.3086 12.8061 12.5456 12.49 11.7499 12.49C10.9543 12.49 10.1912 12.8061 9.62859 13.3687C9.06598 13.9313 8.74991 14.6943 8.74991 15.49C8.74991 16.2856 9.06598 17.0487 9.62859 17.6113C10.1912 18.1739 10.9543 18.49 11.7499 18.49Z" stroke="#69AFE5"/>
<path d="M7.6499 22.51C7.6499 22.51 7.6499 18.51 11.7499 18.51C15.8499 18.51 15.8299 22.51 15.8299 22.51" stroke="#69AFE5" stroke-linecap="round" stroke-linejoin="round"/>
<path d="M28.7499 12.99H19.7499C19.4738 12.99 19.2499 13.2138 19.2499 13.49C19.2499 13.7661 19.4738 13.99 19.7499 13.99H28.7499C29.0261 13.99 29.2499 13.7661 29.2499 13.49C29.2499 13.2138 29.0261 12.99 28.7499 12.99Z" fill="#C8C6C4"/>
<path d="M28.7499 16.99H19.7499C19.4738 16.99 19.2499 17.2138 19.2499 17.49C19.2499 17.7661 19.4738 17.99 19.7499 17.99H28.7499C29.0261 17.99 29.2499 17.7661 29.2499 17.49C29.2499 17.2138 29.0261 16.99 28.7499 16.99Z" fill="#C8C6C4"/>
<path d="M24.7499 20.99H19.7499C19.4738 20.99 19.2499 21.2138 19.2499 21.49C19.2499 21.7661 19.4738 21.99 19.7499 21.99H24.7499C25.0261 21.99 25.2499 21.7661 25.2499 21.49C25.2499 21.2138 25.0261 20.99 24.7499 20.99Z" fill="#C8C6C4"/>
<path d="M28.7499 21.99C28.8825 21.99 29.0097 21.9373 29.1035 21.8435C29.1972 21.7498 29.2499 21.6226 29.2499 21.49C29.2499 21.3574 29.1972 21.2302 29.1035 21.1364C29.0097 21.0427 28.8825 20.99 28.7499 20.99C28.6173 20.99 28.4901 21.0427 28.3964 21.1364C28.3026 21.2302 28.2499 21.3574 28.2499 21.49C28.2499 21.6226 28.3026 21.7498 28.3964 21.8435C28.4901 21.9373 28.6173 21.99 28.7499 21.99Z" fill="#C8C6C4"/>
<path opacity="0.64" fill-rule="evenodd" clip-rule="evenodd" d="M4.74991 6.98999H31.7499C32.1477 6.98999 32.5293 7.14803 32.8106 7.42933C33.0919 7.71063 33.2499 8.09217 33.2499 8.48999V27.49C33.2499 27.8878 33.0919 28.2693 32.8106 28.5507C32.5293 28.832 32.1477 28.99 31.7499 28.99H26.8099C26.6752 28.9939 26.5437 28.9481 26.4405 28.8615C26.3373 28.7749 26.2695 28.6533 26.2499 28.52V27.99C26.2499 27.99 26.2499 26.88 25.2499 26.88C24.2499 26.88 24.2499 27.99 24.2499 27.99V28.54C24.2326 28.6725 24.1668 28.7939 24.0653 28.8807C23.9637 28.9675 23.8335 29.0136 23.6999 29.01H12.8099C12.6752 29.0139 12.5437 28.9681 12.4405 28.8815C12.3373 28.7949 12.2695 28.6733 12.2499 28.54V28.01C12.2499 28.01 12.2499 26.9 11.2499 26.9C10.9847 26.9 10.7303 27.0053 10.5428 27.1929C10.3553 27.3804 10.2499 27.6348 10.2499 27.9C10.2532 27.9299 10.2532 27.9601 10.2499 27.99V28.52C10.2326 28.6525 10.1668 28.7739 10.0653 28.8607C9.96366 28.9475 9.83349 28.9936 9.69991 28.99H4.74991C4.35208 28.99 3.97055 28.832 3.68925 28.5507C3.40794 28.2693 3.24991 27.8878 3.24991 27.49V8.48999C3.24991 8.09217 3.40794 7.71063 3.68925 7.42933C3.97055 7.14803 4.35208 6.98999 4.74991 6.98999ZM31.7499 27.99C31.8825 27.99 32.0097 27.9373 32.1035 27.8435C32.1972 27.7498 32.2499 27.6226 32.2499 27.49V8.48999C32.2499 8.35738 32.1972 8.23021 32.1035 8.13644C32.0097 8.04267 31.8825 7.98999 31.7499 7.98999H4.74991C4.6173 7.98999 4.49012 8.04267 4.39636 8.13644C4.30259 8.23021 4.24991 8.35738 4.24991 8.48999V27.48C4.24991 27.6126 4.30259 27.7398 4.39636 27.8335C4.49012 27.9273 4.6173 27.98 4.74991 27.98H9.17991C9.18743 27.9371 9.1961 27.8944 9.20591 27.852C9.22591 27.761 9.24991 27.654 9.24991 27.61C9.33928 27.1478 9.58886 26.7319 9.9547 26.4355C10.3205 26.1392 10.7792 25.9814 11.2499 25.99C11.73 25.9754 12.1993 26.1341 12.5721 26.4371C12.9448 26.74 13.1961 27.167 13.2799 27.64V27.98H23.1799C23.1874 27.9371 23.1961 27.8944 23.2059 27.852C23.2259 27.761 23.2499 27.654 23.2499 27.61C23.3393 27.1478 23.5889 26.7319 23.9547 26.4355C24.3205 26.1392 24.7792 25.9814 25.2499 25.99C25.7319 25.9701 26.2049 26.1252 26.5817 26.4266C26.9584 26.7279 27.2135 27.1553 27.2999 27.63V27.99H31.7499Z" fill="#605E5C"/>
</svg>
