<svg width="37" height="36" viewBox="0 0 37 36" fill="none" xmlns="http://www.w3.org/2000/svg">
<path d="M11.9615 33H33.1715C33.2733 33.0028 33.3721 32.9656 33.4468 32.8965C33.5216 32.8273 33.5663 32.7317 33.5715 32.63V10H27.9715C27.6002 10 27.2441 9.85252 26.9816 9.58997C26.719 9.32742 26.5715 8.97132 26.5715 8.60002V3.00002H11.9715C11.8697 2.99728 11.7709 3.03444 11.6962 3.10358C11.6214 3.17272 11.5767 3.26834 11.5715 3.37002V32.64C11.5728 32.6895 11.5839 32.7382 11.6044 32.7833C11.6248 32.8284 11.6541 32.8689 11.6904 32.9024C11.7268 32.936 11.7695 32.9619 11.8161 32.9787C11.8626 32.9955 11.9121 33.0027 11.9615 33Z" fill="white"/>
<path d="M32.7715 9.00006L27.5715 3.81006V8.60006C27.5715 8.82006 27.7515 9.00006 27.9715 9.00006H32.7715Z" fill="white"/>
<path opacity="0.64" fill-rule="evenodd" clip-rule="evenodd" d="M34.1815 9.00004L27.5715 2.42004C27.3051 2.15595 26.9466 2.0054 26.5715 2.00004H11.9715C11.6046 1.99736 11.2514 2.13989 10.9892 2.39654C10.7269 2.65318 10.5768 3.00313 10.5715 3.37004V32.64C10.5728 32.8208 10.6099 32.9995 10.6805 33.1659C10.7512 33.3323 10.8541 33.483 10.9834 33.6094C11.1126 33.7359 11.2655 33.8354 11.4334 33.9025C11.6013 33.9695 11.7808 34.0027 11.9615 34H33.1715C33.5384 34.0027 33.8916 33.8602 34.1538 33.6035C34.4161 33.3469 34.5662 32.997 34.5715 32.63V9.92004C34.566 9.57434 34.4261 9.24435 34.1815 9.00004ZM27.5715 3.81004L32.7715 9.00004H27.9715C27.8654 9.00004 27.7637 8.95789 27.6887 8.88288C27.6136 8.80787 27.5715 8.70612 27.5715 8.60004V3.81004ZM33.1715 33C33.2733 33.0028 33.3721 32.9656 33.4468 32.8965C33.5216 32.8273 33.5663 32.7317 33.5715 32.63V10H27.9715C27.6002 10 27.2441 9.85254 26.9816 9.58999C26.719 9.32744 26.5715 8.97134 26.5715 8.60004V3.00004H11.9715C11.8697 2.99729 11.7709 3.03446 11.6962 3.1036C11.6214 3.17273 11.5767 3.26836 11.5715 3.37004V32.64C11.5728 32.6895 11.5839 32.7382 11.6044 32.7833C11.6248 32.8284 11.6541 32.8689 11.6904 32.9025C11.7268 32.936 11.7695 32.962 11.8161 32.9787C11.8626 32.9955 11.9121 33.0027 11.9615 33H33.1715Z" fill="#605E5C"/>
<path d="M17.0715 12H4.0715C3.24308 12 2.5715 12.6716 2.5715 13.5V26.5C2.5715 27.3284 3.24308 28 4.0715 28H17.0715C17.8999 28 18.5715 27.3284 18.5715 26.5V13.5C18.5715 12.6716 17.8999 12 17.0715 12Z" fill="#185ABD"/>
<path d="M10.1115 21.59C10.4015 22.42 10.5715 22.94 10.6215 23.16C10.6715 22.94 10.8515 22.38 11.1715 21.48L13.4815 15H15.5715L11.7215 25H9.48149L5.68149 15H7.83149L10.1115 21.59Z" fill="white"/>
<path d="M27.0715 24H24.0715V23H27.0715C27.2041 23 27.3313 22.9473 27.4251 22.8536C27.5188 22.7598 27.5715 22.6326 27.5715 22.5V18.5H28.5715V22.5C28.5715 22.8978 28.4135 23.2794 28.1322 23.5607C27.8509 23.842 27.4693 24 27.0715 24Z" fill="#185ABD"/>
<path d="M20.5715 21H24.5715V26H20.5715V21Z" fill="#41A5EE"/>
<path d="M25.0695 16.9949L28.0675 13.9969L31.0655 16.9949L28.0675 19.9929L25.0695 16.9949Z" fill="#103F91"/>
</svg>
