<svg width="37" height="36" viewBox="0 0 37 36" fill="none" xmlns="http://www.w3.org/2000/svg">
<path d="M4.9762 32H31.9762C32.2512 32 32.4762 31.775 32.4762 31.5V4.5C32.4762 4.225 32.2512 4 31.9762 4H4.9762C4.7012 4 4.4762 4.225 4.4762 4.5V31.5C4.4762 31.775 4.7012 32 4.9762 32Z" fill="white"/>
<path opacity="0.64" fill-rule="evenodd" clip-rule="evenodd" d="M4.9762 33H31.9762C32.8032 33 33.4762 32.327 33.4762 31.5V4.5C33.4762 3.673 32.8032 3 31.9762 3H4.9762C4.1492 3 3.4762 3.673 3.4762 4.5V31.5C3.4762 32.327 4.1492 33 4.9762 33ZM4.4762 4.5C4.4762 4.36739 4.52887 4.24021 4.62264 4.14645C4.71641 4.05268 4.84359 4 4.9762 4H31.9762C32.1088 4 32.236 4.05268 32.3298 4.14645C32.4235 4.24021 32.4762 4.36739 32.4762 4.5V31.5C32.4762 31.6326 32.4235 31.7598 32.3298 31.8536C32.236 31.9473 32.1088 32 31.9762 32H4.9762C4.84359 32 4.71641 31.9473 4.62264 31.8536C4.52887 31.7598 4.4762 31.6326 4.4762 31.5V4.5Z" fill="#605E5C"/>
<path d="M24.4762 18C24.4751 18.0946 24.4504 18.1874 24.4042 18.27C24.3592 18.3498 24.2935 18.4161 24.2142 18.462L15.3262 23.916C15.2638 23.9548 15.1944 23.9808 15.122 23.9928C15.0495 24.0047 14.9754 24.0022 14.9039 23.9855C14.8324 23.9688 14.7649 23.9382 14.7052 23.8954C14.6456 23.8525 14.5949 23.7984 14.5562 23.736C14.5051 23.65 14.4775 23.552 14.4762 23.452V18H24.4762Z" fill="#BC1948"/>
<path d="M24.4762 18C24.4751 17.9054 24.4504 17.8125 24.4042 17.73C24.3592 17.6501 24.2935 17.5838 24.2142 17.538L15.3262 12.082C15.2418 12.0306 15.1454 12.0023 15.0466 11.9998C14.9478 11.9974 14.8501 12.0208 14.7632 12.068C14.6768 12.1142 14.6046 12.183 14.5541 12.267C14.5035 12.3509 14.4766 12.447 14.4762 12.545V18H24.4762Z" fill="#E8467C"/>
</svg>
