<svg width="37" height="36" viewBox="0 0 37 36" fill="none" xmlns="http://www.w3.org/2000/svg">
<path d="M4.78574 32H31.7857C32.0607 32 32.2857 31.775 32.2857 31.5V4.5C32.2857 4.225 32.0607 4 31.7857 4H4.78574C4.51074 4 4.28574 4.225 4.28574 4.5V31.5C4.28574 31.775 4.51074 32 4.78574 32Z" fill="white"/>
<path opacity="0.64" fill-rule="evenodd" clip-rule="evenodd" d="M4.78574 33H31.7857C32.6127 33 33.2857 32.327 33.2857 31.5V4.5C33.2857 3.673 32.6127 3 31.7857 3H4.78574C3.95874 3 3.28574 3.673 3.28574 4.5V31.5C3.28574 32.327 3.95874 33 4.78574 33ZM4.28574 4.5C4.28574 4.36739 4.33841 4.24021 4.43218 4.14645C4.52595 4.05268 4.65313 4 4.78574 4H31.7857C31.9183 4 32.0455 4.05268 32.1393 4.14645C32.2331 4.24021 32.2857 4.36739 32.2857 4.5V31.5C32.2857 31.6326 32.2331 31.7598 32.1393 31.8536C32.0455 31.9473 31.9183 32 31.7857 32H4.78574C4.65313 32 4.52595 31.9473 4.43218 31.8536C4.33841 31.7598 4.28574 31.6326 4.28574 31.5V4.5Z" fill="#605E5C"/>
<path d="M24.2857 18C24.2847 18.0946 24.2599 18.1874 24.2137 18.27C24.1687 18.3498 24.1031 18.4161 24.0237 18.462L15.1357 23.916C15.0734 23.9548 15.004 23.9808 14.9315 23.9928C14.859 24.0047 14.7849 24.0022 14.7134 23.9855C14.6419 23.9688 14.5744 23.9382 14.5148 23.8954C14.4551 23.8525 14.4045 23.7984 14.3657 23.736C14.3146 23.65 14.2871 23.552 14.2857 23.452V18H24.2857Z" fill="#BC1948"/>
<path d="M24.2857 18C24.2847 17.9054 24.2599 17.8125 24.2137 17.73C24.1687 17.6501 24.1031 17.5838 24.0237 17.538L15.1357 12.082C15.0513 12.0306 14.9549 12.0023 14.8561 11.9998C14.7573 11.9974 14.6596 12.0208 14.5727 12.068C14.4864 12.1142 14.4141 12.183 14.3636 12.267C14.3131 12.3509 14.2862 12.447 14.2857 12.545V18H24.2857Z" fill="#E8467C"/>
</svg>
