<svg width="37" height="36" viewBox="0 0 37 36" fill="none" xmlns="http://www.w3.org/2000/svg">
<path d="M11.8662 33H33.0762C33.178 33.0028 33.2768 32.9656 33.3515 32.8965C33.4263 32.8273 33.471 32.7317 33.4762 32.63V10H27.8762C27.5049 10 27.1488 9.85252 26.8862 9.58997C26.6237 9.32742 26.4762 8.97132 26.4762 8.60002V3.00002H11.8762C11.7744 2.99728 11.6756 3.03444 11.6009 3.10358C11.5261 3.17272 11.4814 3.26834 11.4762 3.37002V32.64C11.4775 32.6895 11.4886 32.7382 11.5091 32.7833C11.5295 32.8284 11.5587 32.8689 11.5951 32.9024C11.6315 32.936 11.6742 32.9619 11.7208 32.9787C11.7673 32.9955 11.8168 33.0027 11.8662 33Z" fill="white"/>
<path d="M32.6762 9.00006L27.4762 3.81006V8.60006C27.4762 8.82006 27.6562 9.00006 27.8762 9.00006H32.6762Z" fill="white"/>
<path opacity="0.64" fill-rule="evenodd" clip-rule="evenodd" d="M34.0862 9.00004L27.4762 2.42004C27.2097 2.15595 26.8513 2.0054 26.4762 2.00004H11.8762C11.5093 1.99736 11.1561 2.13989 10.8939 2.39654C10.6316 2.65318 10.4815 3.00313 10.4762 3.37004V32.64C10.4775 32.8208 10.5146 32.9995 10.5852 33.1659C10.6559 33.3323 10.7588 33.483 10.8881 33.6094C11.0173 33.7359 11.1702 33.8354 11.3381 33.9025C11.506 33.9695 11.6854 34.0027 11.8662 34H33.0762C33.4431 34.0027 33.7962 33.8602 34.0585 33.6035C34.3208 33.3469 34.4709 32.997 34.4762 32.63V9.92004C34.4707 9.57434 34.3308 9.24435 34.0862 9.00004ZM27.4762 3.81004L32.6762 9.00004H27.8762C27.7701 9.00004 27.6684 8.95789 27.5934 8.88288C27.5183 8.80787 27.4762 8.70612 27.4762 8.60004V3.81004ZM33.0762 33C33.178 33.0028 33.2768 32.9656 33.3515 32.8965C33.4263 32.8273 33.471 32.7317 33.4762 32.63V10H27.8762C27.5049 10 27.1488 9.85254 26.8862 9.58999C26.6237 9.32744 26.4762 8.97134 26.4762 8.60004V3.00004H11.8762C11.7744 2.99729 11.6756 3.03446 11.6009 3.1036C11.5261 3.17273 11.4814 3.26836 11.4762 3.37004V32.64C11.4775 32.6895 11.4886 32.7382 11.5091 32.7833C11.5295 32.8284 11.5587 32.8689 11.5951 32.9025C11.6315 32.936 11.6742 32.962 11.7208 32.9787C11.7673 32.9955 11.8168 33.0027 11.8662 33H33.0762Z" fill="#605E5C"/>
<path d="M16.9762 12H3.9762C3.14777 12 2.4762 12.6716 2.4762 13.5V26.5C2.4762 27.3284 3.14777 28 3.9762 28H16.9762C17.8046 28 18.4762 27.3284 18.4762 26.5V13.5C18.4762 12.6716 17.8046 12 16.9762 12Z" fill="#185ABD"/>
<path d="M10.0162 21.59C10.3062 22.42 10.4762 22.94 10.5262 23.16C10.5762 22.94 10.7562 22.38 11.0762 21.48L13.3862 15H15.4762L11.6262 25H9.38618L5.58618 15H7.73618L10.0162 21.59Z" fill="white"/>
<path d="M26.9762 24H23.9762V23H26.9762C27.1088 23 27.236 22.9473 27.3298 22.8536C27.4235 22.7598 27.4762 22.6326 27.4762 22.5V18.5H28.4762V22.5C28.4762 22.8978 28.3182 23.2794 28.0369 23.5607C27.7556 23.842 27.374 24 26.9762 24Z" fill="#185ABD"/>
<path d="M20.4762 21H24.4762V26H20.4762V21Z" fill="#41A5EE"/>
<path d="M24.9742 16.9949L27.9722 13.9969L30.9702 16.9949L27.9722 19.9929L24.9742 16.9949Z" fill="#103F91"/>
</svg>
