<svg width="37" height="36" viewBox="0 0 37 36" fill="none" xmlns="http://www.w3.org/2000/svg">
<path d="M11.533 33H32.743C32.8447 33.0028 32.9436 32.9656 33.0183 32.8965C33.093 32.8273 33.1378 32.7317 33.143 32.63V10H27.543C27.1717 10 26.8156 9.85252 26.553 9.58997C26.2905 9.32742 26.143 8.97132 26.143 8.60002V3.00002H11.543C11.4412 2.99728 11.3424 3.03444 11.2676 3.10358C11.1929 3.17272 11.1482 3.26834 11.143 3.37002V32.64C11.1442 32.6895 11.1554 32.7382 11.1758 32.7833C11.1963 32.8284 11.2255 32.8689 11.2619 32.9024C11.2983 32.936 11.341 32.9619 11.3875 32.9787C11.4341 32.9955 11.4836 33.0027 11.533 33Z" fill="white"/>
<path d="M32.3429 9.00006L27.1429 3.81006V8.60006C27.1429 8.82006 27.3229 9.00006 27.5429 9.00006H32.3429Z" fill="white"/>
<path opacity="0.64" fill-rule="evenodd" clip-rule="evenodd" d="M33.753 9.00004L27.143 2.42004C26.8765 2.15595 26.5181 2.0054 26.143 2.00004H11.543C11.176 1.99736 10.8229 2.13989 10.5607 2.39654C10.2984 2.65318 10.1482 3.00313 10.143 3.37004V32.64C10.1443 32.8208 10.1813 32.9995 10.252 33.1659C10.3227 33.3323 10.4256 33.483 10.5548 33.6094C10.684 33.7359 10.837 33.8354 11.0049 33.9025C11.1727 33.9695 11.3522 34.0027 11.533 34H32.743C33.1099 34.0027 33.463 33.8602 33.7253 33.6035C33.9876 33.3469 34.1377 32.997 34.143 32.63V9.92004C34.1375 9.57434 33.9976 9.24435 33.753 9.00004ZM27.143 3.81004L32.343 9.00004H27.543C27.4369 9.00004 27.3351 8.95789 27.2601 8.88288C27.1851 8.80787 27.143 8.70612 27.143 8.60004V3.81004ZM32.743 33C32.8447 33.0028 32.9436 32.9656 33.0183 32.8965C33.093 32.8273 33.1378 32.7317 33.143 32.63V10H27.543C27.1717 10 26.8156 9.85254 26.553 9.58999C26.2905 9.32744 26.143 8.97134 26.143 8.60004V3.00004H11.543C11.4412 2.99729 11.3424 3.03446 11.2676 3.1036C11.1929 3.17273 11.1482 3.26836 11.143 3.37004V32.64C11.1442 32.6895 11.1554 32.7382 11.1758 32.7833C11.1963 32.8284 11.2255 32.8689 11.2619 32.9025C11.2983 32.936 11.341 32.962 11.3875 32.9787C11.4341 32.9955 11.4836 33.0027 11.533 33H32.743Z" fill="#605E5C"/>
<path d="M16.643 12H3.64297C2.81455 12 2.14297 12.6716 2.14297 13.5V26.5C2.14297 27.3284 2.81455 28 3.64297 28H16.643C17.4714 28 18.143 27.3284 18.143 26.5V13.5C18.143 12.6716 17.4714 12 16.643 12Z" fill="#185ABD"/>
<path d="M9.68296 21.59C9.97296 22.42 10.143 22.94 10.193 23.16C10.243 22.94 10.423 22.38 10.743 21.48L13.053 15H15.143L11.293 25H9.05296L5.25296 15H7.40296L9.68296 21.59Z" fill="white"/>
<path d="M26.6429 24H23.6429V23H26.6429C26.7756 23 26.9027 22.9473 26.9965 22.8536C27.0903 22.7598 27.1429 22.6326 27.1429 22.5V18.5H28.1429V22.5C28.1429 22.8978 27.9849 23.2794 27.7036 23.5607C27.4223 23.842 27.0408 24 26.6429 24Z" fill="#185ABD"/>
<path d="M20.1429 21H24.1429V26H20.1429V21Z" fill="#41A5EE"/>
<path d="M24.641 16.9949L27.639 13.9969L30.637 16.9949L27.639 19.9929L24.641 16.9949Z" fill="#103F91"/>
</svg>
