<svg width="37" height="36" viewBox="0 0 37 36" fill="none" xmlns="http://www.w3.org/2000/svg">
<path d="M12.3425 33H33.5525C33.6543 33.0028 33.7531 32.9656 33.8278 32.8965C33.9026 32.8273 33.9473 32.7317 33.9525 32.63V10H28.3525C27.9812 10 27.6251 9.85252 27.3625 9.58997C27.1 9.32742 26.9525 8.97132 26.9525 8.60002V3.00002H12.3525C12.2507 2.99728 12.1519 3.03444 12.0772 3.10358C12.0024 3.17272 11.9577 3.26834 11.9525 3.37002V32.64C11.9537 32.6895 11.9649 32.7382 11.9853 32.7833C12.0058 32.8284 12.035 32.8689 12.0714 32.9024C12.1078 32.936 12.1505 32.9619 12.1971 32.9787C12.2436 32.9955 12.2931 33.0027 12.3425 33Z" fill="white"/>
<path d="M33.1525 9.00006L27.9525 3.81006V8.60006C27.9525 8.82006 28.1325 9.00006 28.3525 9.00006H33.1525Z" fill="white"/>
<path opacity="0.64" fill-rule="evenodd" clip-rule="evenodd" d="M34.5625 9.00004L27.9525 2.42004C27.686 2.15595 27.3276 2.0054 26.9525 2.00004H12.3525C11.9855 1.99736 11.6324 2.13989 11.3702 2.39654C11.1079 2.65318 10.9578 3.00313 10.9525 3.37004V32.64C10.9538 32.8208 10.9908 32.9995 11.0615 33.1659C11.1322 33.3323 11.2351 33.483 11.3643 33.6094C11.4935 33.7359 11.6465 33.8354 11.8144 33.9025C11.9823 33.9695 12.1617 34.0027 12.3425 34H33.5525C33.9194 34.0027 34.2725 33.8602 34.5348 33.6035C34.7971 33.3469 34.9472 32.997 34.9525 32.63V9.92004C34.947 9.57434 34.8071 9.24435 34.5625 9.00004ZM27.9525 3.81004L33.1525 9.00004H28.3525C28.2464 9.00004 28.1447 8.95789 28.0696 8.88288C27.9946 8.80787 27.9525 8.70612 27.9525 8.60004V3.81004ZM33.5525 33C33.6543 33.0028 33.7531 32.9656 33.8278 32.8965C33.9026 32.8273 33.9473 32.7317 33.9525 32.63V10H28.3525C27.9812 10 27.6251 9.85254 27.3625 9.58999C27.1 9.32744 26.9525 8.97134 26.9525 8.60004V3.00004H12.3525C12.2507 2.99729 12.1519 3.03446 12.0772 3.1036C12.0024 3.17273 11.9577 3.26836 11.9525 3.37004V32.64C11.9537 32.6895 11.9649 32.7382 11.9853 32.7833C12.0058 32.8284 12.035 32.8689 12.0714 32.9025C12.1078 32.936 12.1505 32.962 12.1971 32.9787C12.2436 32.9955 12.2931 33.0027 12.3425 33H33.5525Z" fill="#605E5C"/>
<path d="M17.4525 12H4.45248C3.62406 12 2.95248 12.6716 2.95248 13.5V26.5C2.95248 27.3284 3.62406 28 4.45248 28H17.4525C18.2809 28 18.9525 27.3284 18.9525 26.5V13.5C18.9525 12.6716 18.2809 12 17.4525 12Z" fill="#185ABD"/>
<path d="M10.4925 21.59C10.7825 22.42 10.9525 22.94 11.0025 23.16C11.0525 22.94 11.2325 22.38 11.5525 21.48L13.8625 15H15.9525L12.1025 25H9.86247L6.06247 15H8.21247L10.4925 21.59Z" fill="white"/>
<path d="M27.4525 24H24.4525V23H27.4525C27.5851 23 27.7123 22.9473 27.806 22.8536C27.8998 22.7598 27.9525 22.6326 27.9525 22.5V18.5H28.9525V22.5C28.9525 22.8978 28.7944 23.2794 28.5131 23.5607C28.2318 23.842 27.8503 24 27.4525 24Z" fill="#185ABD"/>
<path d="M20.9525 21H24.9525V26H20.9525V21Z" fill="#41A5EE"/>
<path d="M25.4505 16.9949L28.4485 13.9969L31.4465 16.9949L28.4485 19.9929L25.4505 16.9949Z" fill="#103F91"/>
</svg>
