<svg width="37" height="36" viewBox="0 0 37 36" fill="none" xmlns="http://www.w3.org/2000/svg">
<path opacity="0.64" fill-rule="evenodd" clip-rule="evenodd" d="M12.0567 34H33.2667C33.6336 34.0027 33.9867 33.8602 34.249 33.6035C34.5112 33.3469 34.6614 32.997 34.6667 32.63V3.50004C34.6667 3.10221 34.5086 2.72068 34.2273 2.43938C33.946 2.15807 33.5645 2.00004 33.1667 2.00004H12.0667C11.6997 1.99736 11.3466 2.13989 11.0843 2.39654C10.8221 2.65318 10.6719 3.00313 10.6667 3.37004V32.64C10.668 32.8208 10.705 32.9995 10.7757 33.1659C10.8464 33.3323 10.9493 33.483 11.0785 33.6094C11.2077 33.7359 11.3607 33.8354 11.5285 33.9025C11.6964 33.9695 11.8759 34.0027 12.0567 34ZM11.6667 3.37004C11.6718 3.26836 11.7166 3.17273 11.7913 3.1036C11.8661 3.03446 11.9649 2.99729 12.0667 3.00004H33.1667C33.2993 3.00004 33.4264 3.05272 33.5202 3.14648C33.614 3.24025 33.6667 3.36743 33.6667 3.50004V32.63C33.6615 32.7317 33.6167 32.8273 33.542 32.8965C33.4672 32.9656 33.3684 33.0028 33.2667 33H12.0567C12.0072 33.0027 11.9578 32.9955 11.9112 32.9787C11.8647 32.962 11.8219 32.936 11.7856 32.9025C11.7492 32.8689 11.7199 32.8284 11.6995 32.7833C11.6791 32.7382 11.6679 32.6895 11.6667 32.64V3.37004Z" fill="#605E5C"/>
<path d="M12.0567 33H33.2667C33.3684 33.0028 33.4672 32.9656 33.542 32.8965C33.6167 32.8273 33.6615 32.7317 33.6667 32.63V3.50002C33.6667 3.36741 33.614 3.24023 33.5202 3.14647C33.4264 3.0527 33.2993 3.00002 33.1667 3.00002H12.0667C11.9649 2.99728 11.8661 3.03444 11.7913 3.10358C11.7166 3.17272 11.6718 3.26834 11.6667 3.37002V32.64C11.6679 32.6895 11.6791 32.7382 11.6995 32.7833C11.7199 32.8284 11.7492 32.8689 11.7856 32.9024C11.8219 32.936 11.8647 32.9619 11.9112 32.9787C11.9578 32.9955 12.0072 33.0027 12.0567 33Z" fill="white"/>
<path d="M17.1667 12H4.16666C3.33823 12 2.66666 12.6716 2.66666 13.5V26.5C2.66666 27.3284 3.33823 28 4.16666 28H17.1667C17.9951 28 18.6667 27.3284 18.6667 26.5V13.5C18.6667 12.6716 17.9951 12 17.1667 12Z" fill="#185ABD"/>
<path d="M10.2066 21.59C10.4966 22.42 10.6666 22.94 10.7166 23.16C10.7666 22.94 10.9466 22.38 11.2666 21.48L13.5766 15H15.6666L11.8166 25H9.57664L5.77664 15H7.92664L10.2066 21.59Z" fill="white"/>
<path opacity="0.64" fill-rule="evenodd" clip-rule="evenodd" d="M25.1667 16H29.1667C29.5645 16 29.946 15.842 30.2273 15.5607C30.5086 15.2794 30.6667 14.8978 30.6667 14.5V7.5C30.6667 7.10218 30.5086 6.72064 30.2273 6.43934C29.946 6.15804 29.5645 6 29.1667 6H25.1667C24.7688 6 24.3873 6.15804 24.106 6.43934C23.8247 6.72064 23.6667 7.10218 23.6667 7.5V14.5C23.6667 14.8978 23.8247 15.2794 24.106 15.5607C24.3873 15.842 24.7688 16 25.1667 16ZM24.6667 7.5C24.6667 7.36739 24.7193 7.24021 24.8131 7.14645C24.9069 7.05268 25.034 7 25.1667 7H29.1667C29.2993 7 29.4264 7.05268 29.5202 7.14645C29.614 7.24021 29.6667 7.36739 29.6667 7.5V14.5C29.6667 14.6326 29.614 14.7598 29.5202 14.8536C29.4264 14.9473 29.2993 15 29.1667 15H25.1667C25.034 15 24.9069 14.9473 24.8131 14.8536C24.7193 14.7598 24.6667 14.6326 24.6667 14.5V7.5ZM25.1667 30H29.1667C29.5645 30 29.946 29.842 30.2273 29.5607C30.5086 29.2794 30.6667 28.8978 30.6667 28.5V21.5C30.6667 21.1022 30.5086 20.7206 30.2273 20.4393C29.946 20.158 29.5645 20 29.1667 20H25.1667C24.7688 20 24.3873 20.158 24.106 20.4393C23.8247 20.7206 23.6667 21.1022 23.6667 21.5V28.5C23.6667 28.8978 23.8247 29.2794 24.106 29.5607C24.3873 29.842 24.7688 30 25.1667 30ZM24.6667 21.5C24.6667 21.3674 24.7193 21.2402 24.8131 21.1464C24.9069 21.0527 25.034 21 25.1667 21H29.1667C29.2993 21 29.4264 21.0527 29.5202 21.1464C29.614 21.2402 29.6667 21.3674 29.6667 21.5V28.5C29.6667 28.6326 29.614 28.7598 29.5202 28.8536C29.4264 28.9473 29.2993 29 29.1667 29H25.1667C25.034 29 24.9069 28.9473 24.8131 28.8536C24.7193 28.7598 24.6667 28.6326 24.6667 28.5V21.5Z" fill="#C8C6C4"/>
<path opacity="0.64" d="M20.6667 20.09V28.5C20.6667 28.6326 20.614 28.7598 20.5202 28.8536C20.4264 28.9473 20.2993 29 20.1667 29H19.6067C18.9572 29.6423 18.0801 30.0018 17.1667 30H20.1667C20.5645 30 20.946 29.842 21.2273 29.5607C21.5086 29.2794 21.6667 28.8978 21.6667 28.5V21.5C21.6643 21.1909 21.5672 20.8899 21.3884 20.6377C21.2095 20.3856 20.9576 20.1944 20.6667 20.09ZM20.1667 6H16.1667C15.7688 6 15.3873 6.15804 15.106 6.43934C14.8247 6.72064 14.6667 7.10218 14.6667 7.5V10H15.6667V7.5C15.6667 7.36739 15.7193 7.24021 15.8131 7.14645C15.9069 7.05268 16.034 7 16.1667 7H20.1667C20.2993 7 20.4264 7.05268 20.5202 7.14645C20.614 7.24021 20.6667 7.36739 20.6667 7.5V15.91C20.9576 15.8056 21.2095 15.6144 21.3884 15.3623C21.5672 15.1101 21.6643 14.8091 21.6667 14.5V7.5C21.6667 7.10218 21.5086 6.72064 21.2273 6.43934C20.946 6.15804 20.5645 6 20.1667 6Z" fill="#C8C6C4"/>
</svg>
