<svg width="37" height="36" viewBox="0 0 37 36" fill="none" xmlns="http://www.w3.org/2000/svg">
<path opacity="0.64" fill-rule="evenodd" clip-rule="evenodd" d="M11.6757 34H32.8857C33.2527 34.0027 33.6058 33.8602 33.8681 33.6035C34.1303 33.3469 34.2805 32.997 34.2857 32.63V3.50004C34.2857 3.10221 34.1277 2.72068 33.8464 2.43938C33.5651 2.15807 33.1836 2.00004 32.7857 2.00004H11.6857C11.3188 1.99736 10.9657 2.13989 10.7034 2.39654C10.4411 2.65318 10.291 3.00313 10.2857 3.37004V32.64C10.287 32.8208 10.3241 32.9995 10.3948 33.1659C10.4655 33.3323 10.5684 33.483 10.6976 33.6094C10.8268 33.7359 10.9797 33.8354 11.1476 33.9025C11.3155 33.9695 11.495 34.0027 11.6757 34ZM11.2857 3.37004C11.2909 3.26836 11.3357 3.17273 11.4104 3.1036C11.4851 3.03446 11.584 2.99729 11.6857 3.00004H32.7857C32.9183 3.00004 33.0455 3.05272 33.1393 3.14648C33.2331 3.24025 33.2857 3.36743 33.2857 3.50004V32.63C33.2806 32.7317 33.2358 32.8273 33.1611 32.8965C33.0863 32.9656 32.9875 33.0028 32.8857 33H11.6757C11.6263 33.0027 11.5769 32.9955 11.5303 32.9787C11.4837 32.962 11.441 32.936 11.4047 32.9025C11.3683 32.8689 11.339 32.8284 11.3186 32.7833C11.2982 32.7382 11.287 32.6895 11.2857 32.64V3.37004Z" fill="#605E5C"/>
<path d="M11.6757 33H32.8857C32.9875 33.0028 33.0863 32.9656 33.1611 32.8965C33.2358 32.8273 33.2806 32.7317 33.2857 32.63V3.50002C33.2857 3.36741 33.2331 3.24023 33.1393 3.14647C33.0455 3.0527 32.9183 3.00002 32.7857 3.00002H11.6857C11.584 2.99728 11.4851 3.03444 11.4104 3.10358C11.3357 3.17272 11.2909 3.26834 11.2857 3.37002V32.64C11.287 32.6895 11.2982 32.7382 11.3186 32.7833C11.339 32.8284 11.3683 32.8689 11.4047 32.9024C11.441 32.936 11.4837 32.9619 11.5303 32.9787C11.5769 32.9955 11.6263 33.0027 11.6757 33Z" fill="white"/>
<path d="M16.7857 12H3.78574C2.95731 12 2.28574 12.6716 2.28574 13.5V26.5C2.28574 27.3284 2.95731 28 3.78574 28H16.7857C17.6142 28 18.2857 27.3284 18.2857 26.5V13.5C18.2857 12.6716 17.6142 12 16.7857 12Z" fill="#185ABD"/>
<path d="M9.82572 21.59C10.1157 22.42 10.2857 22.94 10.3357 23.16C10.3857 22.94 10.5657 22.38 10.8857 21.48L13.1957 15H15.2857L11.4357 25H9.19572L5.39572 15H7.54572L9.82572 21.59Z" fill="white"/>
<path opacity="0.64" fill-rule="evenodd" clip-rule="evenodd" d="M24.7857 16H28.7857C29.1836 16 29.5651 15.842 29.8464 15.5607C30.1277 15.2794 30.2857 14.8978 30.2857 14.5V7.5C30.2857 7.10218 30.1277 6.72064 29.8464 6.43934C29.5651 6.15804 29.1836 6 28.7857 6H24.7857C24.3879 6 24.0064 6.15804 23.7251 6.43934C23.4438 6.72064 23.2857 7.10218 23.2857 7.5V14.5C23.2857 14.8978 23.4438 15.2794 23.7251 15.5607C24.0064 15.842 24.3879 16 24.7857 16ZM24.2857 7.5C24.2857 7.36739 24.3384 7.24021 24.4322 7.14645C24.526 7.05268 24.6531 7 24.7857 7H28.7857C28.9183 7 29.0455 7.05268 29.1393 7.14645C29.2331 7.24021 29.2857 7.36739 29.2857 7.5V14.5C29.2857 14.6326 29.2331 14.7598 29.1393 14.8536C29.0455 14.9473 28.9183 15 28.7857 15H24.7857C24.6531 15 24.526 14.9473 24.4322 14.8536C24.3384 14.7598 24.2857 14.6326 24.2857 14.5V7.5ZM24.7857 30H28.7857C29.1836 30 29.5651 29.842 29.8464 29.5607C30.1277 29.2794 30.2857 28.8978 30.2857 28.5V21.5C30.2857 21.1022 30.1277 20.7206 29.8464 20.4393C29.5651 20.158 29.1836 20 28.7857 20H24.7857C24.3879 20 24.0064 20.158 23.7251 20.4393C23.4438 20.7206 23.2857 21.1022 23.2857 21.5V28.5C23.2857 28.8978 23.4438 29.2794 23.7251 29.5607C24.0064 29.842 24.3879 30 24.7857 30ZM24.2857 21.5C24.2857 21.3674 24.3384 21.2402 24.4322 21.1464C24.526 21.0527 24.6531 21 24.7857 21H28.7857C28.9183 21 29.0455 21.0527 29.1393 21.1464C29.2331 21.2402 29.2857 21.3674 29.2857 21.5V28.5C29.2857 28.6326 29.2331 28.7598 29.1393 28.8536C29.0455 28.9473 28.9183 29 28.7857 29H24.7857C24.6531 29 24.526 28.9473 24.4322 28.8536C24.3384 28.7598 24.2857 28.6326 24.2857 28.5V21.5Z" fill="#C8C6C4"/>
<path opacity="0.64" d="M20.2857 20.09V28.5C20.2857 28.6326 20.2331 28.7598 20.1393 28.8536C20.0455 28.9473 19.9183 29 19.7857 29H19.2257C18.5763 29.6423 17.6992 30.0018 16.7857 30H19.7857C20.1836 30 20.5651 29.842 20.8464 29.5607C21.1277 29.2794 21.2857 28.8978 21.2857 28.5V21.5C21.2834 21.1909 21.1863 20.8899 21.0075 20.6377C20.8286 20.3856 20.5767 20.1944 20.2857 20.09ZM19.7857 6H15.7857C15.3879 6 15.0064 6.15804 14.7251 6.43934C14.4438 6.72064 14.2857 7.10218 14.2857 7.5V10H15.2857V7.5C15.2857 7.36739 15.3384 7.24021 15.4322 7.14645C15.526 7.05268 15.6531 7 15.7857 7H19.7857C19.9183 7 20.0455 7.05268 20.1393 7.14645C20.2331 7.24021 20.2857 7.36739 20.2857 7.5V15.91C20.5767 15.8056 20.8286 15.6144 21.0075 15.3623C21.1863 15.1101 21.2834 14.8091 21.2857 14.5V7.5C21.2857 7.10218 21.1277 6.72064 20.8464 6.43934C20.5651 6.15804 20.1836 6 19.7857 6Z" fill="#C8C6C4"/>
</svg>
