<svg width="37" height="36" viewBox="0 0 37 36" fill="none" xmlns="http://www.w3.org/2000/svg">
<path opacity="0.64" fill-rule="evenodd" clip-rule="evenodd" d="M11.5805 34H32.7905C33.1574 34.0027 33.5106 33.8602 33.7728 33.6035C34.0351 33.3469 34.1852 32.997 34.1905 32.63V3.50004C34.1905 3.10221 34.0325 2.72068 33.7512 2.43938C33.4699 2.15807 33.0883 2.00004 32.6905 2.00004H11.5905C11.2236 1.99736 10.8705 2.13989 10.6082 2.39654C10.3459 2.65318 10.1958 3.00313 10.1905 3.37004V32.64C10.1918 32.8208 10.2289 32.9995 10.2996 33.1659C10.3702 33.3323 10.4732 33.483 10.6024 33.6094C10.7316 33.7359 10.8845 33.8354 11.0524 33.9025C11.2203 33.9695 11.3998 34.0027 11.5805 34ZM11.1905 3.37004C11.1957 3.26836 11.2404 3.17273 11.3152 3.1036C11.3899 3.03446 11.4887 2.99729 11.5905 3.00004H32.6905C32.8231 3.00004 32.9503 3.05272 33.0441 3.14648C33.1378 3.24025 33.1905 3.36743 33.1905 3.50004V32.63C33.1853 32.7317 33.1406 32.8273 33.0658 32.8965C32.9911 32.9656 32.8923 33.0028 32.7905 33H11.5805C11.5311 33.0027 11.4816 32.9955 11.4351 32.9787C11.3885 32.962 11.3458 32.936 11.3094 32.9025C11.2731 32.8689 11.2438 32.8284 11.2234 32.7833C11.2029 32.7382 11.1918 32.6895 11.1905 32.64V3.37004Z" fill="#605E5C"/>
<path d="M11.5805 33H32.7905C32.8923 33.0028 32.9911 32.9656 33.0658 32.8965C33.1406 32.8273 33.1853 32.7317 33.1905 32.63V3.50002C33.1905 3.36741 33.1378 3.24023 33.0441 3.14647C32.9503 3.0527 32.8231 3.00002 32.6905 3.00002H11.5905C11.4887 2.99728 11.3899 3.03444 11.3152 3.10358C11.2404 3.17272 11.1957 3.26834 11.1905 3.37002V32.64C11.1918 32.6895 11.2029 32.7382 11.2234 32.7833C11.2438 32.8284 11.2731 32.8689 11.3094 32.9024C11.3458 32.936 11.3885 32.9619 11.4351 32.9787C11.4816 32.9955 11.5311 33.0027 11.5805 33Z" fill="white"/>
<path d="M16.6905 12H3.69051C2.86208 12 2.19051 12.6716 2.19051 13.5V26.5C2.19051 27.3284 2.86208 28 3.69051 28H16.6905C17.5189 28 18.1905 27.3284 18.1905 26.5V13.5C18.1905 12.6716 17.5189 12 16.6905 12Z" fill="#185ABD"/>
<path d="M9.73051 21.59C10.0205 22.42 10.1905 22.94 10.2405 23.16C10.2905 22.94 10.4705 22.38 10.7905 21.48L13.1005 15H15.1905L11.3405 25H9.10051L5.30051 15H7.45051L9.73051 21.59Z" fill="white"/>
<path opacity="0.64" fill-rule="evenodd" clip-rule="evenodd" d="M24.6905 16H28.6905C29.0883 16 29.4699 15.842 29.7512 15.5607C30.0325 15.2794 30.1905 14.8978 30.1905 14.5V7.5C30.1905 7.10218 30.0325 6.72064 29.7512 6.43934C29.4699 6.15804 29.0883 6 28.6905 6H24.6905C24.2927 6 23.9112 6.15804 23.6298 6.43934C23.3485 6.72064 23.1905 7.10218 23.1905 7.5V14.5C23.1905 14.8978 23.3485 15.2794 23.6298 15.5607C23.9112 15.842 24.2927 16 24.6905 16ZM24.1905 7.5C24.1905 7.36739 24.2432 7.24021 24.337 7.14645C24.4307 7.05268 24.5579 7 24.6905 7H28.6905C28.8231 7 28.9503 7.05268 29.0441 7.14645C29.1378 7.24021 29.1905 7.36739 29.1905 7.5V14.5C29.1905 14.6326 29.1378 14.7598 29.0441 14.8536C28.9503 14.9473 28.8231 15 28.6905 15H24.6905C24.5579 15 24.4307 14.9473 24.337 14.8536C24.2432 14.7598 24.1905 14.6326 24.1905 14.5V7.5ZM24.6905 30H28.6905C29.0883 30 29.4699 29.842 29.7512 29.5607C30.0325 29.2794 30.1905 28.8978 30.1905 28.5V21.5C30.1905 21.1022 30.0325 20.7206 29.7512 20.4393C29.4699 20.158 29.0883 20 28.6905 20H24.6905C24.2927 20 23.9112 20.158 23.6298 20.4393C23.3485 20.7206 23.1905 21.1022 23.1905 21.5V28.5C23.1905 28.8978 23.3485 29.2794 23.6298 29.5607C23.9112 29.842 24.2927 30 24.6905 30ZM24.1905 21.5C24.1905 21.3674 24.2432 21.2402 24.337 21.1464C24.4307 21.0527 24.5579 21 24.6905 21H28.6905C28.8231 21 28.9503 21.0527 29.0441 21.1464C29.1378 21.2402 29.1905 21.3674 29.1905 21.5V28.5C29.1905 28.6326 29.1378 28.7598 29.0441 28.8536C28.9503 28.9473 28.8231 29 28.6905 29H24.6905C24.5579 29 24.4307 28.9473 24.337 28.8536C24.2432 28.7598 24.1905 28.6326 24.1905 28.5V21.5Z" fill="#C8C6C4"/>
<path opacity="0.64" d="M20.1905 20.09V28.5C20.1905 28.6326 20.1378 28.7598 20.0441 28.8536C19.9503 28.9473 19.8231 29 19.6905 29H19.1305C18.4811 29.6423 17.604 30.0018 16.6905 30H19.6905C20.0883 30 20.4699 29.842 20.7512 29.5607C21.0325 29.2794 21.1905 28.8978 21.1905 28.5V21.5C21.1882 21.1909 21.0911 20.8899 20.9122 20.6377C20.7334 20.3856 20.4815 20.1944 20.1905 20.09ZM19.6905 6H15.6905C15.2927 6 14.9112 6.15804 14.6298 6.43934C14.3485 6.72064 14.1905 7.10218 14.1905 7.5V10H15.1905V7.5C15.1905 7.36739 15.2432 7.24021 15.337 7.14645C15.4307 7.05268 15.5579 7 15.6905 7H19.6905C19.8231 7 19.9503 7.05268 20.0441 7.14645C20.1378 7.24021 20.1905 7.36739 20.1905 7.5V15.91C20.4815 15.8056 20.7334 15.6144 20.9122 15.3623C21.0911 15.1101 21.1882 14.8091 21.1905 14.5V7.5C21.1905 7.10218 21.0325 6.72064 20.7512 6.43934C20.4699 6.15804 20.0883 6 19.6905 6Z" fill="#C8C6C4"/>
</svg>
