<svg width="37" height="36" viewBox="0 0 37 36" fill="none" xmlns="http://www.w3.org/2000/svg">
<path d="M31.8571 30.5C31.8571 30.8978 31.6991 31.2794 31.4178 31.5607C31.1365 31.842 30.755 32 30.3571 32H13.8571V32.61C13.8597 32.7126 13.9016 32.8104 13.9742 32.883C14.0468 32.9556 14.1445 32.9975 14.2471 33H33.4671C33.5698 32.9975 33.6675 32.9556 33.7401 32.883C33.8127 32.8104 33.8546 32.7126 33.8571 32.61V5.5H34.3571V4.93L31.3571 3.25V6.5H31.8571V30.5Z" fill="white"/>
<path d="M11.3571 31H30.3571C30.4898 31 30.6169 30.9473 30.7107 30.8536C30.8045 30.7598 30.8571 30.6326 30.8571 30.5V6.5H10.8571V30.5C10.8571 30.6326 10.9098 30.7598 11.0036 30.8536C11.0974 30.9473 11.2245 31 11.3571 31Z" fill="white"/>
<path opacity="0.64" d="M33.8571 5.5V32.61C33.8546 32.7126 33.8127 32.8104 33.7401 32.883C33.6675 32.9556 33.5698 32.9975 33.4671 33H14.2471C14.1445 32.9975 14.0468 32.9556 13.9742 32.883C13.9016 32.8104 13.8597 32.7126 13.8571 32.61V32H30.3571C30.755 32 31.1365 31.842 31.4178 31.5607C31.6991 31.2794 31.8571 30.8978 31.8571 30.5V6.5H30.8571V30.5C30.8571 30.6326 30.8045 30.7598 30.7107 30.8536C30.6169 30.9473 30.4898 31 30.3571 31H11.3571C11.2245 31 11.0974 30.9473 11.0036 30.8536C10.9098 30.7598 10.8571 30.6326 10.8571 30.5V6.5H9.85715V30.5C9.85715 30.8978 10.0152 31.2794 10.2965 31.5607C10.5778 31.842 10.9593 32 11.3571 32H12.8571V32.61C12.8571 32.7925 12.8931 32.9733 12.963 33.1419C13.0328 33.3106 13.1352 33.4638 13.2643 33.5929C13.3933 33.722 13.5466 33.8243 13.7152 33.8942C13.8839 33.964 14.0646 34 14.2471 34H33.4671C33.6497 34 33.8304 33.964 33.9991 33.8942C34.1677 33.8243 34.321 33.722 34.45 33.5929C34.5791 33.4638 34.6815 33.3106 34.7513 33.1419C34.8212 32.9733 34.8571 32.7925 34.8571 32.61V5.5H33.8571Z" fill="#605E5C"/>
<path d="M17.3571 12H4.35715C3.52872 12 2.85715 12.6716 2.85715 13.5V26.5C2.85715 27.3284 3.52872 28 4.35715 28H17.3571C18.1856 28 18.8571 27.3284 18.8571 26.5V13.5C18.8571 12.6716 18.1856 12 17.3571 12Z" fill="#3955A3"/>
<path d="M10.3971 21.59C10.6871 22.42 10.8571 22.94 10.9071 23.16C10.9571 22.94 11.1371 22.38 11.4571 21.48L13.7671 15H15.8571L12.0071 25H9.76715L5.96715 15H8.11715L10.3971 21.59Z" fill="white"/>
<path d="M31.8571 2H10.7471C10.5111 2 10.2847 2.09377 10.1178 2.26067C9.95092 2.42758 9.85715 2.65396 9.85715 2.89V6L10.3571 6.5H31.3571L31.8571 6V5L32.3571 4.5V3L31.8571 2Z" fill="#41A5EE"/>
<path d="M9.85715 6H31.8571V7H9.85715V6ZM33.0071 4.94L34.8571 6.46V5.05C34.859 4.93281 34.8369 4.81648 34.7922 4.70815C34.7475 4.59981 34.6811 4.50175 34.5971 4.42L32.4371 2.26C32.283 2.1041 32.0761 2.01138 31.8571 2V5.48C31.8603 5.34811 31.9002 5.21971 31.9722 5.10921C32.0443 4.9987 32.1457 4.91046 32.2652 4.85439C32.3846 4.79831 32.5173 4.77662 32.6483 4.79174C32.7794 4.80686 32.9036 4.8582 33.0071 4.94Z" fill="#2B7CD3"/>
<path d="M25.3571 24H22.3571V23H25.3571C25.4898 23 25.6169 22.9473 25.7107 22.8536C25.8045 22.7598 25.8571 22.6326 25.8571 22.5V18.5H26.8571V22.5C26.8571 22.8978 26.6991 23.2794 26.4178 23.5607C26.1365 23.842 25.755 24 25.3571 24Z" fill="#185ABD"/>
<path d="M20.8571 21H22.8571V26H20.8571V21Z" fill="#41A5EE"/>
<path d="M23.3611 17L26.3591 14.002L29.3571 17L26.3591 19.998L23.3611 17Z" fill="#103F91"/>
</svg>
