<svg width="37" height="36" viewBox="0 0 37 36" fill="none" xmlns="http://www.w3.org/2000/svg">
<path d="M31.381 30.5C31.381 30.8978 31.2229 31.2794 30.9416 31.5607C30.6603 31.842 30.2788 32 29.881 32H13.381V32.61C13.3835 32.7126 13.4254 32.8104 13.498 32.883C13.5706 32.9556 13.6683 32.9975 13.771 33H32.991C33.0936 32.9975 33.1913 32.9556 33.2639 32.883C33.3365 32.8104 33.3784 32.7126 33.381 32.61V5.5H33.881V4.93L30.881 3.25V6.5H31.381V30.5Z" fill="white"/>
<path d="M10.881 31H29.881C30.0136 31 30.1408 30.9473 30.2345 30.8536C30.3283 30.7598 30.381 30.6326 30.381 30.5V6.5H10.381V30.5C10.381 30.6326 10.4337 30.7598 10.5274 30.8536C10.6212 30.9473 10.7484 31 10.881 31Z" fill="white"/>
<path opacity="0.64" d="M33.381 5.5V32.61C33.3784 32.7126 33.3365 32.8104 33.2639 32.883C33.1913 32.9556 33.0936 32.9975 32.991 33H13.771C13.6683 32.9975 13.5706 32.9556 13.498 32.883C13.4254 32.8104 13.3835 32.7126 13.381 32.61V32H29.881C30.2788 32 30.6603 31.842 30.9416 31.5607C31.2229 31.2794 31.381 30.8978 31.381 30.5V6.5H30.381V30.5C30.381 30.6326 30.3283 30.7598 30.2345 30.8536C30.1408 30.9473 30.0136 31 29.881 31H10.881C10.7484 31 10.6212 30.9473 10.5274 30.8536C10.4337 30.7598 10.381 30.6326 10.381 30.5V6.5H9.38098V30.5C9.38098 30.8978 9.53902 31.2794 9.82032 31.5607C10.1016 31.842 10.4832 32 10.881 32H12.381V32.61C12.381 32.7925 12.4169 32.9733 12.4868 33.1419C12.5566 33.3106 12.659 33.4638 12.7881 33.5929C12.9172 33.722 13.0704 33.8243 13.2391 33.8942C13.4077 33.964 13.5884 34 13.771 34H32.991C33.1735 34 33.3543 33.964 33.5229 33.8942C33.6916 33.8243 33.8448 33.722 33.9739 33.5929C34.1029 33.4638 34.2053 33.3106 34.2752 33.1419C34.345 32.9733 34.381 32.7925 34.381 32.61V5.5H33.381Z" fill="#605E5C"/>
<path d="M16.881 12H3.881C3.05257 12 2.381 12.6716 2.381 13.5V26.5C2.381 27.3284 3.05257 28 3.881 28H16.881C17.7094 28 18.381 27.3284 18.381 26.5V13.5C18.381 12.6716 17.7094 12 16.881 12Z" fill="#3955A3"/>
<path d="M9.921 21.59C10.211 22.42 10.381 22.94 10.431 23.16C10.481 22.94 10.661 22.38 10.981 21.48L13.291 15H15.381L11.531 25H9.291L5.491 15H7.641L9.921 21.59Z" fill="white"/>
<path d="M31.381 2H10.271C10.0349 2 9.80856 2.09377 9.64166 2.26067C9.47475 2.42758 9.38098 2.65396 9.38098 2.89V6L9.88098 6.5H30.881L31.381 6V5L31.881 4.5V3L31.381 2Z" fill="#41A5EE"/>
<path d="M9.38098 6H31.381V7H9.38098V6ZM32.531 4.94L34.381 6.46V5.05C34.3829 4.93281 34.3608 4.81648 34.3161 4.70815C34.2713 4.59981 34.205 4.50175 34.121 4.42L31.961 2.26C31.8068 2.1041 31.6 2.01138 31.381 2V5.48C31.3842 5.34811 31.424 5.21971 31.4961 5.10921C31.5681 4.9987 31.6696 4.91046 31.789 4.85439C31.9084 4.79831 32.0411 4.77662 32.1722 4.79174C32.3032 4.80686 32.4275 4.8582 32.531 4.94Z" fill="#2B7CD3"/>
<path d="M24.881 24H21.881V23H24.881C25.0136 23 25.1408 22.9473 25.2345 22.8536C25.3283 22.7598 25.381 22.6326 25.381 22.5V18.5H26.381V22.5C26.381 22.8978 26.2229 23.2794 25.9416 23.5607C25.6603 23.842 25.2788 24 24.881 24Z" fill="#185ABD"/>
<path d="M20.381 21H22.381V26H20.381V21Z" fill="#41A5EE"/>
<path d="M22.885 17L25.883 14.002L28.881 17L25.883 19.998L22.885 17Z" fill="#103F91"/>
</svg>
