<svg width="37" height="36" viewBox="0 0 37 36" fill="none" xmlns="http://www.w3.org/2000/svg">
<path d="M31.0952 30.5C31.0952 30.8978 30.9372 31.2794 30.6559 31.5607C30.3746 31.842 29.9931 32 29.5952 32H13.0952V32.61C13.0978 32.7126 13.1397 32.8104 13.2123 32.883C13.2849 32.9556 13.3826 32.9975 13.4852 33H32.7052C32.8079 32.9975 32.9056 32.9556 32.9782 32.883C33.0508 32.8104 33.0927 32.7126 33.0952 32.61V5.5H33.5952V4.93L30.5952 3.25V6.5H31.0952V30.5Z" fill="white"/>
<path d="M10.5952 31H29.5952C29.7279 31 29.855 30.9473 29.9488 30.8536C30.0426 30.7598 30.0952 30.6326 30.0952 30.5V6.5H10.0952V30.5C10.0952 30.6326 10.1479 30.7598 10.2417 30.8536C10.3355 30.9473 10.4626 31 10.5952 31Z" fill="white"/>
<path opacity="0.64" d="M33.0952 5.5V32.61C33.0927 32.7126 33.0508 32.8104 32.9782 32.883C32.9056 32.9556 32.8079 32.9975 32.7052 33H13.4852C13.3826 32.9975 13.2849 32.9556 13.2123 32.883C13.1397 32.8104 13.0978 32.7126 13.0952 32.61V32H29.5952C29.9931 32 30.3746 31.842 30.6559 31.5607C30.9372 31.2794 31.0952 30.8978 31.0952 30.5V6.5H30.0952V30.5C30.0952 30.6326 30.0426 30.7598 29.9488 30.8536C29.855 30.9473 29.7279 31 29.5952 31H10.5952C10.4626 31 10.3355 30.9473 10.2417 30.8536C10.1479 30.7598 10.0952 30.6326 10.0952 30.5V6.5H9.09525V30.5C9.09525 30.8978 9.25328 31.2794 9.53458 31.5607C9.81589 31.842 10.1974 32 10.5952 32H12.0952V32.61C12.0952 32.7925 12.1312 32.9733 12.2011 33.1419C12.2709 33.3106 12.3733 33.4638 12.5024 33.5929C12.6314 33.722 12.7847 33.8243 12.9533 33.8942C13.122 33.964 13.3027 34 13.4852 34H32.7052C32.8878 34 33.0685 33.964 33.2372 33.8942C33.4058 33.8243 33.5591 33.722 33.6881 33.5929C33.8172 33.4638 33.9196 33.3106 33.9894 33.1419C34.0593 32.9733 34.0952 32.7925 34.0952 32.61V5.5H33.0952Z" fill="#605E5C"/>
<path d="M16.5952 12H3.59525C2.76682 12 2.09525 12.6716 2.09525 13.5V26.5C2.09525 27.3284 2.76682 28 3.59525 28H16.5952C17.4237 28 18.0952 27.3284 18.0952 26.5V13.5C18.0952 12.6716 17.4237 12 16.5952 12Z" fill="#3955A3"/>
<path d="M9.63523 21.59C9.92523 22.42 10.0952 22.94 10.1452 23.16C10.1952 22.94 10.3752 22.38 10.6952 21.48L13.0052 15H15.0952L11.2452 25H9.00523L5.20523 15H7.35523L9.63523 21.59Z" fill="white"/>
<path d="M31.0952 2H9.98525C9.7492 2 9.52283 2.09377 9.35592 2.26067C9.18901 2.42758 9.09525 2.65396 9.09525 2.89V6L9.59525 6.5H30.5952L31.0952 6V5L31.5952 4.5V3L31.0952 2Z" fill="#41A5EE"/>
<path d="M9.09525 6H31.0952V7H9.09525V6ZM32.2452 4.94L34.0952 6.46V5.05C34.0971 4.93281 34.075 4.81648 34.0303 4.70815C33.9856 4.59981 33.9192 4.50175 33.8352 4.42L31.6752 2.26C31.5211 2.1041 31.3142 2.01138 31.0952 2V5.48C31.0984 5.34811 31.1383 5.21971 31.2103 5.10921C31.2824 4.9987 31.3838 4.91046 31.5033 4.85439C31.6227 4.79831 31.7554 4.77662 31.8864 4.79174C32.0175 4.80686 32.1417 4.8582 32.2452 4.94Z" fill="#2B7CD3"/>
<path d="M24.5952 24H21.5952V23H24.5952C24.7279 23 24.855 22.9473 24.9488 22.8536C25.0426 22.7598 25.0952 22.6326 25.0952 22.5V18.5H26.0952V22.5C26.0952 22.8978 25.9372 23.2794 25.6559 23.5607C25.3746 23.842 24.9931 24 24.5952 24Z" fill="#185ABD"/>
<path d="M20.0952 21H22.0952V26H20.0952V21Z" fill="#41A5EE"/>
<path d="M22.5992 17L25.5972 14.002L28.5952 17L25.5972 19.998L22.5992 17Z" fill="#103F91"/>
</svg>
