<svg width="37" height="36" viewBox="0 0 37 36" fill="none" xmlns="http://www.w3.org/2000/svg">
<path d="M31.0476 30.5C31.0476 30.8978 30.8896 31.2794 30.6083 31.5607C30.327 31.842 29.9455 32 29.5476 32H13.0476V32.61C13.0502 32.7126 13.0921 32.8104 13.1647 32.883C13.2373 32.9556 13.335 32.9975 13.4376 33H32.6576C32.7603 32.9975 32.858 32.9556 32.9306 32.883C33.0032 32.8104 33.0451 32.7126 33.0476 32.61V5.5H33.5476V4.93L30.5476 3.25V6.5H31.0476V30.5Z" fill="white"/>
<path d="M10.5476 31H29.5476C29.6802 31 29.8074 30.9473 29.9012 30.8536C29.995 30.7598 30.0476 30.6326 30.0476 30.5V6.5H10.0476V30.5C10.0476 30.6326 10.1003 30.7598 10.1941 30.8536C10.2879 30.9473 10.415 31 10.5476 31Z" fill="white"/>
<path opacity="0.64" d="M33.0476 5.5V32.61C33.0451 32.7126 33.0032 32.8104 32.9306 32.883C32.858 32.9556 32.7603 32.9975 32.6576 33H13.4376C13.335 32.9975 13.2373 32.9556 13.1647 32.883C13.0921 32.8104 13.0502 32.7126 13.0476 32.61V32H29.5476C29.9455 32 30.327 31.842 30.6083 31.5607C30.8896 31.2794 31.0476 30.8978 31.0476 30.5V6.5H30.0476V30.5C30.0476 30.6326 29.995 30.7598 29.9012 30.8536C29.8074 30.9473 29.6802 31 29.5476 31H10.5476C10.415 31 10.2879 30.9473 10.1941 30.8536C10.1003 30.7598 10.0476 30.6326 10.0476 30.5V6.5H9.04764V30.5C9.04764 30.8978 9.20567 31.2794 9.48698 31.5607C9.76828 31.842 10.1498 32 10.5476 32H12.0476V32.61C12.0476 32.7925 12.0836 32.9733 12.1534 33.1419C12.2233 33.3106 12.3257 33.4638 12.4548 33.5929C12.5838 33.722 12.7371 33.8243 12.9057 33.8942C13.0744 33.964 13.2551 34 13.4376 34H32.6576C32.8402 34 33.0209 33.964 33.1896 33.8942C33.3582 33.8243 33.5114 33.722 33.6405 33.5929C33.7696 33.4638 33.872 33.3106 33.9418 33.1419C34.0117 32.9733 34.0476 32.7925 34.0476 32.61V5.5H33.0476Z" fill="#605E5C"/>
<path d="M16.5476 12H3.54764C2.71921 12 2.04764 12.6716 2.04764 13.5V26.5C2.04764 27.3284 2.71921 28 3.54764 28H16.5476C17.3761 28 18.0476 27.3284 18.0476 26.5V13.5C18.0476 12.6716 17.3761 12 16.5476 12Z" fill="#3955A3"/>
<path d="M9.58764 21.59C9.87764 22.42 10.0476 22.94 10.0976 23.16C10.1476 22.94 10.3276 22.38 10.6476 21.48L12.9576 15H15.0476L11.1976 25H8.95764L5.15764 15H7.30764L9.58764 21.59Z" fill="white"/>
<path d="M31.0476 2H9.93764C9.7016 2 9.47522 2.09377 9.30831 2.26067C9.14141 2.42758 9.04764 2.65396 9.04764 2.89V6L9.54764 6.5H30.5476L31.0476 6V5L31.5476 4.5V3L31.0476 2Z" fill="#41A5EE"/>
<path d="M9.04764 6H31.0476V7H9.04764V6ZM32.1976 4.94L34.0476 6.46V5.05C34.0495 4.93281 34.0274 4.81648 33.9827 4.70815C33.938 4.59981 33.8716 4.50175 33.7876 4.42L31.6276 2.26C31.4734 2.1041 31.2666 2.01138 31.0476 2V5.48C31.0508 5.34811 31.0907 5.21971 31.1627 5.10921C31.2348 4.9987 31.3362 4.91046 31.4557 4.85439C31.5751 4.79831 31.7078 4.77662 31.8388 4.79174C31.9699 4.80686 32.0941 4.8582 32.1976 4.94Z" fill="#2B7CD3"/>
<path d="M24.5476 24H21.5476V23H24.5476C24.6802 23 24.8074 22.9473 24.9012 22.8536C24.995 22.7598 25.0476 22.6326 25.0476 22.5V18.5H26.0476V22.5C26.0476 22.8978 25.8896 23.2794 25.6083 23.5607C25.327 23.842 24.9455 24 24.5476 24Z" fill="#185ABD"/>
<path d="M20.0476 21H22.0476V26H20.0476V21Z" fill="#41A5EE"/>
<path d="M22.5516 17L25.5496 14.002L28.5476 17L25.5496 19.998L22.5516 17Z" fill="#103F91"/>
</svg>
