<svg width="37" height="36" viewBox="0 0 37 36" fill="none" xmlns="http://www.w3.org/2000/svg">
<path d="M12.152 33H33.362C33.4638 33.0028 33.5626 32.9656 33.6373 32.8965C33.7121 32.8273 33.7568 32.7317 33.762 32.63V10H28.162C27.7907 10 27.4346 9.85252 27.172 9.58997C26.9095 9.32742 26.762 8.97132 26.762 8.60002V3.00002H12.162C12.0602 2.99728 11.9614 3.03444 11.8867 3.10358C11.8119 3.17272 11.7672 3.26834 11.762 3.37002V32.64C11.7633 32.6895 11.7744 32.7382 11.7949 32.7833C11.8153 32.8284 11.8445 32.8689 11.8809 32.9024C11.9173 32.936 11.96 32.9619 12.0066 32.9787C12.0531 32.9955 12.1026 33.0027 12.152 33Z" fill="white"/>
<path d="M32.962 9.00006L27.762 3.81006V8.60006C27.762 8.82006 27.942 9.00006 28.162 9.00006H32.962Z" fill="white"/>
<path opacity="0.64" fill-rule="evenodd" clip-rule="evenodd" d="M34.372 9.00004L27.762 2.42004C27.4955 2.15595 27.1371 2.0054 26.762 2.00004H12.162C11.7951 1.99736 11.4419 2.13989 11.1797 2.39654C10.9174 2.65318 10.7673 3.00313 10.762 3.37004V32.64C10.7633 32.8208 10.8004 32.9995 10.871 33.1659C10.9417 33.3323 11.0446 33.483 11.1738 33.6094C11.3031 33.7359 11.456 33.8354 11.6239 33.9025C11.7918 33.9695 11.9712 34.0027 12.152 34H33.362C33.7289 34.0027 34.082 33.8602 34.3443 33.6035C34.6066 33.3469 34.7567 32.997 34.762 32.63V9.92004C34.7565 9.57434 34.6166 9.24435 34.372 9.00004ZM27.762 3.81004L32.962 9.00004H28.162C28.0559 9.00004 27.9542 8.95789 27.8792 8.88288C27.8041 8.80787 27.762 8.70612 27.762 8.60004V3.81004ZM33.362 33C33.4638 33.0028 33.5626 32.9656 33.6373 32.8965C33.7121 32.8273 33.7568 32.7317 33.762 32.63V10H28.162C27.7907 10 27.4346 9.85254 27.172 9.58999C26.9095 9.32744 26.762 8.97134 26.762 8.60004V3.00004H12.162C12.0602 2.99729 11.9614 3.03446 11.8867 3.1036C11.8119 3.17273 11.7672 3.26836 11.762 3.37004V32.64C11.7633 32.6895 11.7744 32.7382 11.7949 32.7833C11.8153 32.8284 11.8445 32.8689 11.8809 32.9025C11.9173 32.936 11.96 32.962 12.0066 32.9787C12.0531 32.9955 12.1026 33.0027 12.152 33H33.362Z" fill="#605E5C"/>
<path d="M17.262 12H4.26199C3.43357 12 2.76199 12.6716 2.76199 13.5V26.5C2.76199 27.3284 3.43357 28 4.26199 28H17.262C18.0904 28 18.762 27.3284 18.762 26.5V13.5C18.762 12.6716 18.0904 12 17.262 12Z" fill="#185ABD"/>
<path d="M10.302 21.59C10.592 22.42 10.762 22.94 10.812 23.16C10.862 22.94 11.042 22.38 11.362 21.48L13.672 15H15.762L11.912 25H9.67198L5.87198 15H8.02198L10.302 21.59Z" fill="white"/>
<path d="M27.262 24H24.262V23H27.262C27.3946 23 27.5218 22.9473 27.6155 22.8536C27.7093 22.7598 27.762 22.6326 27.762 22.5V18.5H28.762V22.5C28.762 22.8978 28.604 23.2794 28.3227 23.5607C28.0413 23.842 27.6598 24 27.262 24Z" fill="#185ABD"/>
<path d="M20.762 21H24.762V26H20.762V21Z" fill="#41A5EE"/>
<path d="M25.26 16.9949L28.258 13.9969L31.256 16.9949L28.258 19.9929L25.26 16.9949Z" fill="#103F91"/>
</svg>
