<svg width="37" height="36" viewBox="0 0 37 36" fill="none" xmlns="http://www.w3.org/2000/svg">
<path d="M4.94999 32H31.95C32.225 32 32.45 31.775 32.45 31.5V4.5C32.45 4.225 32.225 4 31.95 4H4.94999C4.67499 4 4.44999 4.225 4.44999 4.5V31.5C4.44999 31.775 4.67499 32 4.94999 32Z" fill="white"/>
<path opacity="0.64" fill-rule="evenodd" clip-rule="evenodd" d="M4.94999 33H31.95C32.777 33 33.45 32.327 33.45 31.5V4.5C33.45 3.673 32.777 3 31.95 3H4.94999C4.12299 3 3.44999 3.673 3.44999 4.5V31.5C3.44999 32.327 4.12299 33 4.94999 33ZM4.44999 4.5C4.44999 4.36739 4.50267 4.24021 4.59644 4.14645C4.6902 4.05268 4.81738 4 4.94999 4H31.95C32.0826 4 32.2098 4.05268 32.3035 4.14645C32.3973 4.24021 32.45 4.36739 32.45 4.5V31.5C32.45 31.6326 32.3973 31.7598 32.3035 31.8536C32.2098 31.9473 32.0826 32 31.95 32H4.94999C4.81738 32 4.6902 31.9473 4.59644 31.8536C4.50267 31.7598 4.44999 31.6326 4.44999 31.5V4.5Z" fill="#605E5C"/>
<path d="M13.969 24.492C15.084 24.492 15.988 23.602 15.988 22.502C15.988 21.404 15.084 20.514 13.969 20.514C12.854 20.514 11.95 21.404 11.95 22.503C11.95 23.601 12.854 24.492 13.969 24.492ZM21.959 23.455C23.059 23.455 23.949 22.577 23.949 21.493C23.949 20.41 23.059 19.531 21.959 19.531C20.859 19.531 19.968 20.41 19.968 21.493C19.968 22.577 20.859 23.455 21.958 23.455H21.959Z" stroke="#E8467C" stroke-linecap="round" stroke-linejoin="round"/>
<path d="M15.49 22.294C15.49 22.4266 15.5427 22.5538 15.6364 22.6476C15.7302 22.7413 15.8574 22.794 15.99 22.794C16.1226 22.794 16.2498 22.7413 16.3435 22.6476C16.4373 22.5538 16.49 22.4266 16.49 22.294H15.49ZM15.99 13.38L15.861 12.897C15.7544 12.9252 15.6601 12.9879 15.5929 13.0752C15.5256 13.1626 15.4891 13.2697 15.489 13.38H15.989H15.99ZM23.95 11.273H24.45C24.4501 11.1964 24.4326 11.1207 24.3988 11.052C24.365 10.9832 24.3159 10.9231 24.2552 10.8763C24.1945 10.8295 24.1239 10.7973 24.0488 10.7822C23.9737 10.7671 23.8961 10.7694 23.822 10.789L23.95 11.273ZM23.45 21.494C23.45 21.6266 23.5027 21.7538 23.5964 21.8476C23.6902 21.9413 23.8174 21.994 23.95 21.994C24.0826 21.994 24.2098 21.9413 24.3035 21.8476C24.3973 21.7538 24.45 21.6266 24.45 21.494H23.45ZM16.016 15.922C15.9522 15.9378 15.8922 15.9659 15.8393 16.0049C15.7865 16.0438 15.7418 16.0928 15.7078 16.1491C15.6739 16.2053 15.6514 16.2676 15.6415 16.3326C15.6317 16.3975 15.6347 16.4637 15.6505 16.5275C15.6662 16.5913 15.6944 16.6513 15.7334 16.7042C15.7723 16.757 15.8213 16.8017 15.8775 16.8357C15.9338 16.8696 15.9961 16.8921 16.0611 16.902C16.126 16.9118 16.1922 16.9088 16.256 16.893L16.016 15.922ZM23.628 15.078C23.7568 15.0462 23.8676 14.9645 23.9361 14.8509C24.0047 14.7374 24.0253 14.6013 23.9935 14.4725C23.9617 14.3437 23.88 14.2329 23.7664 14.1643C23.6529 14.0958 23.5168 14.0752 23.388 14.107L23.628 15.078ZM16.489 22.294V13.38H15.489V22.294H16.489ZM16.117 13.864L24.078 11.756L23.822 10.789L15.861 12.897L16.117 13.864ZM23.45 11.273V21.494H24.45V11.273H23.45ZM16.256 16.893L23.628 15.078L23.388 14.107L16.017 15.922L16.256 16.893Z" fill="#E8467C"/>
</svg>
