<svg width="37" height="36" viewBox="0 0 37 36" fill="none" xmlns="http://www.w3.org/2000/svg">
<path d="M4.64987 32H31.6499C31.9249 32 32.1499 31.775 32.1499 31.5V4.5C32.1499 4.225 31.9249 4 31.6499 4H4.64987C4.37487 4 4.14987 4.225 4.14987 4.5V31.5C4.14987 31.775 4.37487 32 4.64987 32Z" fill="white"/>
<path opacity="0.64" fill-rule="evenodd" clip-rule="evenodd" d="M4.64987 33H31.6499C32.4769 33 33.1499 32.327 33.1499 31.5V4.5C33.1499 3.673 32.4769 3 31.6499 3H4.64987C3.82287 3 3.14987 3.673 3.14987 4.5V31.5C3.14987 32.327 3.82287 33 4.64987 33ZM4.14987 4.5C4.14987 4.36739 4.20255 4.24021 4.29632 4.14645C4.39009 4.05268 4.51726 4 4.64987 4H31.6499C31.7825 4 31.9097 4.05268 32.0034 4.14645C32.0972 4.24021 32.1499 4.36739 32.1499 4.5V31.5C32.1499 31.6326 32.0972 31.7598 32.0034 31.8536C31.9097 31.9473 31.7825 32 31.6499 32H4.64987C4.51726 32 4.39009 31.9473 4.29632 31.8536C4.20255 31.7598 4.14987 31.6326 4.14987 31.5V4.5Z" fill="#605E5C"/>
<path d="M24.1499 18C24.1488 18.0946 24.1241 18.1874 24.0779 18.27C24.0328 18.3498 23.9672 18.4161 23.8879 18.462L14.9999 23.916C14.9375 23.9548 14.8681 23.9808 14.7956 23.9928C14.7232 24.0047 14.6491 24.0022 14.5776 23.9855C14.5061 23.9688 14.4386 23.9382 14.3789 23.8954C14.3192 23.8525 14.2686 23.7984 14.2299 23.736C14.1788 23.65 14.1512 23.552 14.1499 23.452V18H24.1499Z" fill="#BC1948"/>
<path d="M24.1499 18C24.1488 17.9054 24.1241 17.8125 24.0779 17.73C24.0328 17.6501 23.9672 17.5838 23.8879 17.538L14.9999 12.082C14.9154 12.0306 14.819 12.0023 14.7202 11.9998C14.6215 11.9974 14.5237 12.0208 14.4369 12.068C14.3505 12.1142 14.2783 12.183 14.2277 12.267C14.1772 12.3509 14.1503 12.447 14.1499 12.545V18H24.1499Z" fill="#E8467C"/>
</svg>
