<svg width="37" height="36" viewBox="0 0 37 36" fill="none" xmlns="http://www.w3.org/2000/svg">
<path d="M5.24998 32H32.25C32.525 32 32.75 31.775 32.75 31.5V4.5C32.75 4.225 32.525 4 32.25 4H5.24998C4.97498 4 4.74998 4.225 4.74998 4.5V31.5C4.74998 31.775 4.97498 32 5.24998 32Z" fill="white"/>
<path opacity="0.64" fill-rule="evenodd" clip-rule="evenodd" d="M5.24998 33H32.25C33.077 33 33.75 32.327 33.75 31.5V4.5C33.75 3.673 33.077 3 32.25 3H5.24998C4.42298 3 3.74998 3.673 3.74998 4.5V31.5C3.74998 32.327 4.42298 33 5.24998 33ZM4.74998 4.5C4.74998 4.36739 4.80266 4.24021 4.89642 4.14645C4.99019 4.05268 5.11737 4 5.24998 4H32.25C32.3826 4 32.5098 4.05268 32.6035 4.14645C32.6973 4.24021 32.75 4.36739 32.75 4.5V31.5C32.75 31.6326 32.6973 31.7598 32.6035 31.8536C32.5098 31.9473 32.3826 32 32.25 32H5.24998C5.11737 32 4.99019 31.9473 4.89642 31.8536C4.80266 31.7598 4.74998 31.6326 4.74998 31.5V4.5Z" fill="#605E5C"/>
<path d="M14.269 24.492C15.384 24.492 16.288 23.602 16.288 22.502C16.288 21.404 15.384 20.514 14.269 20.514C13.154 20.514 12.25 21.404 12.25 22.503C12.25 23.601 13.154 24.492 14.269 24.492ZM22.259 23.455C23.359 23.455 24.249 22.577 24.249 21.493C24.249 20.41 23.359 19.531 22.259 19.531C21.159 19.531 20.268 20.41 20.268 21.493C20.268 22.577 21.159 23.455 22.258 23.455H22.259Z" stroke="#E8467C" stroke-linecap="round" stroke-linejoin="round"/>
<path d="M15.79 22.294C15.79 22.4266 15.8427 22.5538 15.9364 22.6476C16.0302 22.7413 16.1574 22.794 16.29 22.794C16.4226 22.794 16.5498 22.7413 16.6435 22.6476C16.7373 22.5538 16.79 22.4266 16.79 22.294H15.79ZM16.29 13.38L16.161 12.897C16.0544 12.9252 15.9601 12.9879 15.8928 13.0752C15.8256 13.1626 15.7891 13.2697 15.789 13.38H16.289H16.29ZM24.25 11.273H24.75C24.7501 11.1964 24.7326 11.1207 24.6988 11.052C24.665 10.9832 24.6159 10.9231 24.5552 10.8763C24.4945 10.8295 24.4239 10.7973 24.3488 10.7822C24.2736 10.7671 24.196 10.7694 24.122 10.789L24.25 11.273ZM23.75 21.494C23.75 21.6266 23.8027 21.7538 23.8964 21.8476C23.9902 21.9413 24.1174 21.994 24.25 21.994C24.3826 21.994 24.5098 21.9413 24.6035 21.8476C24.6973 21.7538 24.75 21.6266 24.75 21.494H23.75ZM16.316 15.922C16.2522 15.9378 16.1922 15.9659 16.1393 16.0049C16.0864 16.0438 16.0418 16.0928 16.0078 16.1491C15.9739 16.2053 15.9514 16.2676 15.9415 16.3326C15.9317 16.3975 15.9347 16.4637 15.9505 16.5275C15.9662 16.5913 15.9944 16.6513 16.0334 16.7042C16.0723 16.757 16.1213 16.8017 16.1775 16.8357C16.2338 16.8696 16.2961 16.8921 16.361 16.902C16.426 16.9118 16.4922 16.9088 16.556 16.893L16.316 15.922ZM23.928 15.078C24.0567 15.0462 24.1676 14.9645 24.2361 14.8509C24.3047 14.7374 24.3253 14.6013 24.2935 14.4725C24.2617 14.3437 24.18 14.2329 24.0664 14.1643C23.9529 14.0958 23.8167 14.0752 23.688 14.107L23.928 15.078ZM16.789 22.294V13.38H15.789V22.294H16.789ZM16.417 13.864L24.378 11.756L24.122 10.789L16.161 12.897L16.417 13.864ZM23.75 11.273V21.494H24.75V11.273H23.75ZM16.556 16.893L23.928 15.078L23.688 14.107L16.317 15.922L16.556 16.893Z" fill="#E8467C"/>
</svg>
