<svg width="37" height="36" viewBox="0 0 37 36" fill="none" xmlns="http://www.w3.org/2000/svg">
<path d="M4.54764 32H31.5476C31.8226 32 32.0476 31.775 32.0476 31.5V4.5C32.0476 4.225 31.8226 4 31.5476 4H4.54764C4.27264 4 4.04764 4.225 4.04764 4.5V31.5C4.04764 31.775 4.27264 32 4.54764 32Z" fill="white"/>
<path opacity="0.64" fill-rule="evenodd" clip-rule="evenodd" d="M4.54764 33H31.5476C32.3746 33 33.0476 32.327 33.0476 31.5V4.5C33.0476 3.673 32.3746 3 31.5476 3H4.54764C3.72064 3 3.04764 3.673 3.04764 4.5V31.5C3.04764 32.327 3.72064 33 4.54764 33ZM4.04764 4.5C4.04764 4.36739 4.10032 4.24021 4.19408 4.14645C4.28785 4.05268 4.41503 4 4.54764 4H31.5476C31.6802 4 31.8074 4.05268 31.9012 4.14645C31.995 4.24021 32.0476 4.36739 32.0476 4.5V31.5C32.0476 31.6326 31.995 31.7598 31.9012 31.8536C31.8074 31.9473 31.6802 32 31.5476 32H4.54764C4.41503 32 4.28785 31.9473 4.19408 31.8536C4.10032 31.7598 4.04764 31.6326 4.04764 31.5V4.5Z" fill="#605E5C"/>
<path d="M24.0476 18C24.0466 18.0946 24.0218 18.1874 23.9756 18.27C23.9306 18.3498 23.865 18.4161 23.7856 18.462L14.8976 23.916C14.8353 23.9548 14.7659 23.9808 14.6934 23.9928C14.621 24.0047 14.5469 24.0022 14.4753 23.9855C14.4038 23.9688 14.3363 23.9382 14.2767 23.8954C14.217 23.8525 14.1664 23.7984 14.1276 23.736C14.0766 23.65 14.049 23.552 14.0476 23.452V18H24.0476Z" fill="#BC1948"/>
<path d="M24.0476 18C24.0466 17.9054 24.0218 17.8125 23.9756 17.73C23.9306 17.6501 23.865 17.5838 23.7856 17.538L14.8976 12.082C14.8132 12.0306 14.7168 12.0023 14.618 11.9998C14.5192 11.9974 14.4215 12.0208 14.3346 12.068C14.2483 12.1142 14.176 12.183 14.1255 12.267C14.075 12.3509 14.0481 12.447 14.0476 12.545V18H24.0476Z" fill="#E8467C"/>
</svg>
