<svg width="37" height="36" viewBox="0 0 37 36" fill="none" xmlns="http://www.w3.org/2000/svg">
<path d="M7.53599 33H28.75C28.966 33 29.15 32.83 29.15 32.628V10H23.55C22.778 10 22.15 9.372 22.15 8.6V3H7.54999C7.33399 3 7.14999 3.17 7.14999 3.372V32.642C7.14999 32.839 7.32299 33 7.53599 33Z" fill="white"/>
<path d="M28.354 8.99994L23.15 3.81494V8.59994C23.15 8.81994 23.33 8.99994 23.55 8.99994H28.354Z" fill="white"/>
<path opacity="0.64" fill-rule="evenodd" clip-rule="evenodd" d="M29.763 8.993L23.168 2.421C22.8973 2.15221 22.5315 2.00095 22.15 2H7.54999C6.77799 2 6.14999 2.615 6.14999 3.372V32.642C6.14999 33.39 6.77199 34 7.53599 34H28.75C29.522 34 30.15 33.385 30.15 32.628V9.923C30.15 9.577 30.01 9.237 29.763 8.993ZM23.15 3.815L28.354 9H23.55C23.4439 9 23.3422 8.95786 23.2672 8.88284C23.1921 8.80783 23.15 8.70609 23.15 8.6V3.815ZM28.75 33C28.966 33 29.15 32.83 29.15 32.628V10H23.55C22.778 10 22.15 9.372 22.15 8.6V3H7.54999C7.33399 3 7.14999 3.17 7.14999 3.372V32.642C7.14999 32.84 7.32299 33 7.53599 33H28.75Z" fill="#605E5C"/>
<path d="M10.713 26.2C10.843 20.988 14.493 14.5 22.65 14.5" stroke="#C8C6C4" stroke-linecap="round"/>
<path d="M11.65 29H10.65V30H11.65V29ZM10.65 29C10.5174 29 10.3902 28.9473 10.2964 28.8536C10.2027 28.7598 10.15 28.6326 10.15 28.5H9.14999C9.14999 28.8978 9.30803 29.2794 9.58933 29.5607C9.87064 29.842 10.2522 30 10.65 30V29ZM10.15 28.5V27.5H9.14999V28.5H10.15ZM10.15 27.5C10.15 27.3674 10.2027 27.2402 10.2964 27.1464C10.3902 27.0527 10.5174 27 10.65 27V26C10.2522 26 9.87064 26.158 9.58933 26.4393C9.30803 26.7206 9.14999 27.1022 9.14999 27.5H10.15ZM10.65 27H11.65V26H10.65V27ZM11.65 27C11.7826 27 11.9098 27.0527 12.0035 27.1464C12.0973 27.2402 12.15 27.3674 12.15 27.5H13.15C13.15 27.1022 12.992 26.7206 12.7107 26.4393C12.4293 26.158 12.0478 26 11.65 26V27ZM12.15 27.5V28.5H13.15V27.5H12.15ZM12.15 28.5C12.15 28.6326 12.0973 28.7598 12.0035 28.8536C11.9098 28.9473 11.7826 29 11.65 29V30C12.0478 30 12.4293 29.842 12.7107 29.5607C12.992 29.2794 13.15 28.8978 13.15 28.5H12.15ZM24.65 16H23.65V17H24.65V16ZM23.65 16C23.5174 16 23.3902 15.9473 23.2964 15.8536C23.2027 15.7598 23.15 15.6326 23.15 15.5H22.15C22.15 15.8978 22.308 16.2794 22.5893 16.5607C22.8706 16.842 23.2522 17 23.65 17V16ZM23.15 15.5V14.5H22.15V15.5H23.15ZM23.15 14.5C23.15 14.3674 23.2027 14.2402 23.2964 14.1464C23.3902 14.0527 23.5174 14 23.65 14V13C23.2522 13 22.8706 13.158 22.5893 13.4393C22.308 13.7206 22.15 14.1022 22.15 14.5H23.15ZM23.65 14H24.65V13H23.65V14ZM24.65 14C24.7826 14 24.9098 14.0527 25.0035 14.1464C25.0973 14.2402 25.15 14.3674 25.15 14.5H26.15C26.15 14.1022 25.992 13.7206 25.7107 13.4393C25.4293 13.158 25.0478 13 24.65 13V14ZM25.15 14.5V15.5H26.15V14.5H25.15ZM25.15 15.5C25.15 15.6326 25.0973 15.7598 25.0035 15.8536C24.9098 15.9473 24.7826 16 24.65 16V17C25.0478 17 25.4293 16.842 25.7107 16.5607C25.992 16.2794 26.15 15.8978 26.15 15.5H25.15ZM15.15 20.5C16.0783 20.5 16.9685 20.1313 17.6249 19.4749C18.2812 18.8185 18.65 17.9283 18.65 17C18.65 16.0717 18.2812 15.1815 17.6249 14.5251C16.9685 13.8687 16.0783 13.5 15.15 13.5C14.2217 13.5 13.3315 13.8687 12.6751 14.5251C12.0187 15.1815 11.65 16.0717 11.65 17C11.65 17.9283 12.0187 18.8185 12.6751 19.4749C13.3315 20.1313 14.2217 20.5 15.15 20.5Z" fill="#0078D7"/>
<path fill-rule="evenodd" clip-rule="evenodd" d="M11.15 17C11.15 14.794 12.944 13 15.15 13C17.356 13 19.15 14.794 19.15 17C19.15 19.206 17.356 21 15.15 21C12.944 21 11.15 19.206 11.15 17ZM18.15 17C18.15 16.2044 17.8339 15.4413 17.2713 14.8787C16.7087 14.3161 15.9456 14 15.15 14C14.3543 14 13.5913 14.3161 13.0287 14.8787C12.4661 15.4413 12.15 16.2044 12.15 17C12.15 17.7956 12.4661 18.5587 13.0287 19.1213C13.5913 19.6839 14.3543 20 15.15 20C15.9456 20 16.7087 19.6839 17.2713 19.1213C17.8339 18.5587 18.15 17.7956 18.15 17Z" fill="white"/>
<path d="M19.477 23.0161L25.993 25.4591C26.0412 25.4773 26.0823 25.5104 26.1104 25.5536C26.1385 25.5967 26.1521 25.6477 26.1492 25.6992C26.1463 25.7506 26.127 25.7997 26.0943 25.8395C26.0615 25.8792 26.0169 25.9075 25.967 25.9201L22.85 26.7001L22.07 29.8171C22.0571 29.8667 22.0288 29.9109 21.9891 29.9433C21.9495 29.9758 21.9006 29.9948 21.8495 29.9977C21.7983 30.0006 21.7476 29.9872 21.7046 29.9594C21.6615 29.9316 21.6284 29.8909 21.61 29.8431L19.166 23.3271C19.1502 23.2837 19.1471 23.2368 19.1571 23.1917C19.1671 23.1466 19.1898 23.1054 19.2225 23.0728C19.2552 23.0402 19.2965 23.0177 19.3416 23.0078C19.3867 22.9979 19.4337 23.0002 19.477 23.0161Z" fill="#0078D7"/>
</svg>
