<svg width="37" height="36" viewBox="0 0 37 36" fill="none" xmlns="http://www.w3.org/2000/svg">
<path d="M9.90722 10.9279C9.71759 10.9279 9.68842 10.3946 9.68842 6.96396V3H26.9739L34.1944 10.1351V35H9.68842V31.036C9.68842 27.6054 9.71759 27.0721 9.90722 27.0721C10.0968 27.0721 10.126 27.591 10.126 34.5676H33.7568V10.4955L26.6821 10.4234L26.6092 3.43243H10.126V7.18018C10.126 10.409 10.0968 10.9279 9.90722 10.9279Z" fill="#797774"/>
<path d="M10.126 10.9279V7.18012V3.43237H26.6384L26.6822 10.4234L33.7568 10.4954V34.5675H10.126V27.072H22.0873V10.9279H10.126Z" fill="#FAFAFA"/>
<path d="M5.75 27.0721V19.0001V10.928H22.0873V27.0721H5.75Z" fill="#107C41"/>
<path d="M27.7762 22.027V21.3063V20.5856H31.7146V22.027H27.7762Z" fill="#134A2C"/>
<path d="M27.0469 10.0631V6.96397C27.0469 5.26307 27.0761 3.86487 27.1198 3.86487C27.1636 3.86487 28.5931 5.26307 33.3922 10.0631H27.0469Z" fill="#FAFAFA"/>
<path d="M7.06287 25.7748V19V12.2252H20.7745V25.7748H7.06287Z" fill="#FAFAFA"/>
<path d="M22.9625 17.4145V16.6937V15.973H27.0469V17.4145H22.9625Z" fill="#21A366"/>
<path d="M27.7762 19.7208V19V18.2793H31.7147V19.7208H27.7762Z" fill="#21A366"/>
<path d="M22.9625 19.7207V19V18.2793H27.0469V19.7207H22.9625Z" fill="#107C41"/>
<path d="M27.7762 17.4145V16.6937V15.973H31.7146V17.4145H27.7762Z" fill="#33C481"/>
<path d="M22.9625 22.027V21.3063V20.5856H27.0469V22.027H22.9625Z" fill="#185C37"/>
<path d="M9.54261 17.0541C7.9964 15.5262 7.93805 15.4397 7.93805 14.8631V14.2433H11.5118L13.554 16.2613L15.6253 14.2433H19.17V14.791C19.1845 15.2811 19.0824 15.4109 17.6821 16.6793C16.8506 17.4289 16.0775 18.1208 15.9608 18.2361C15.7712 18.3946 15.7858 18.4667 16.1067 18.7838C16.4568 19.1298 16.5589 19.1442 19.4617 19.1442V19.6199C19.4471 19.9658 19.3304 20.182 18.3677 20.9892L19.1262 21.7676C19.8118 22.4451 19.8993 22.6036 19.8993 23.7568H16.3255L15.1586 22.6036H7.93805V22.2145C7.93805 21.8973 8.28813 21.4793 11.1472 18.6397L9.54261 17.0541Z" fill="#107C41"/>
<path d="M12.8538 19.3171C10.9575 17.4432 9.39673 15.7856 9.39673 15.6558C9.39673 15.5117 9.51342 15.3964 9.65929 15.3964C9.79057 15.3964 11.4681 16.9387 13.3644 18.8126C15.2752 20.7009 16.836 22.3585 16.836 22.5027C16.836 22.6468 16.7339 22.7477 16.5881 22.7477C16.4422 22.7477 14.7647 21.2054 12.8538 19.3171Z" fill="#FAFAFA"/>
</svg>
