<svg width="37" height="36" viewBox="0 0 37 36" fill="none" xmlns="http://www.w3.org/2000/svg">
<path d="M10.175 33H31.925C32.1313 33 32.3 32.8312 32.3 32.625V10.5H25.925C25.3048 10.5 24.8 9.99525 24.8 9.375V3H10.175C9.9688 3 9.80005 3.16875 9.80005 3.375V32.625C9.80005 32.8312 9.9688 33 10.175 33Z" fill="white"/>
<path d="M31.7698 9.75002L25.55 3.53027V9.37502C25.55 9.58127 25.7188 9.75002 25.925 9.75002H31.7698Z" fill="white"/>
<path opacity="0.64" d="M32.7201 9.6405L25.6595 2.57925C25.4482 2.36918 25.1625 2.25088 24.8645 2.25H10.175C9.5548 2.25 9.05005 2.75475 9.05005 3.375V32.625C9.05005 33.2453 9.5548 33.75 10.175 33.75H31.925C32.5453 33.75 33.05 33.2453 33.05 32.625V10.4355C33.05 10.1355 32.9331 9.85275 32.7201 9.6405ZM25.55 3.53025L31.7698 9.75H25.925C25.8257 9.7498 25.7304 9.71023 25.6601 9.63995C25.5898 9.56966 25.5502 9.4744 25.55 9.375V3.53025ZM31.925 33H10.175C10.0757 32.9998 9.98039 32.9602 9.9101 32.8899C9.83982 32.8197 9.80025 32.7244 9.80005 32.625V3.375C9.80005 3.16875 9.9688 3 10.175 3H24.8V9.375C24.8 9.99525 25.3048 10.5 25.925 10.5H32.3V32.625C32.3 32.8312 32.1313 33 31.925 33Z" fill="#605E5C"/>
<path d="M27.0501 23.2724H25.8651V22.1174H25.8366C25.3213 23.0077 24.5623 23.4532 23.5611 23.4532C22.8486 23.4532 22.2778 23.2597 21.8496 22.8719C21.4206 22.4842 21.2061 21.9629 21.2061 21.3082C21.2061 19.9304 22.0198 19.1264 23.6473 18.8954L25.8651 18.5849C25.8651 17.3324 25.3566 16.7069 24.3411 16.7069C23.4501 16.7069 22.6461 17.0077 21.9283 17.6092V16.3957C22.1451 16.2322 22.5163 16.0747 23.0406 15.9232C23.5656 15.7717 24.0328 15.6952 24.4423 15.6952C26.1801 15.6952 27.0501 16.6177 27.0501 18.4627V23.2724ZM25.8651 19.5307L24.0741 19.7834C23.4621 19.8704 23.0338 20.0159 22.7878 20.2207C22.5426 20.4254 22.4203 20.7569 22.4203 21.2137C22.4203 21.5849 22.5516 21.8819 22.8163 22.1062C23.0818 22.3304 23.4208 22.4422 23.8356 22.4422C24.4228 22.4422 24.9081 22.2352 25.2906 21.8204C25.6731 21.4064 25.8658 20.8889 25.8658 20.2679V19.5307H25.8651ZM30.0501 21.9532L28.9011 25.4999H28.0566L28.9011 21.9532H30.0501Z" fill="#33C481"/>
<path d="M4.55005 27.75H18.05C18.4479 27.75 18.8294 27.592 19.1107 27.3107C19.392 27.0294 19.55 26.6478 19.55 26.25V12.75C19.55 12.3522 19.392 11.9706 19.1107 11.6893C18.8294 11.408 18.4479 11.25 18.05 11.25H4.55005C4.15222 11.25 3.77069 11.408 3.48939 11.6893C3.20808 11.9706 3.05005 12.3522 3.05005 12.75V26.25C3.05005 26.6478 3.20808 27.0294 3.48939 27.3107C3.77069 27.592 4.15222 27.75 4.55005 27.75Z" fill="#107C41"/>
<path d="M7.18855 24L10.0768 19.4872L7.4308 15H9.56006L11.0046 17.8688C11.1373 18.1403 11.2281 18.3435 11.2783 18.477H11.2971C11.3923 18.2595 11.4921 18.048 11.5956 17.8433L13.1406 15H15.0943L12.3793 19.4625L15.1626 24H13.0836L11.4148 20.85C11.3363 20.7159 11.2698 20.5751 11.2161 20.4293H11.1913C11.143 20.572 11.0783 20.7086 10.9986 20.8365L9.28031 24H7.18855Z" fill="#F9F7F7"/>
</svg>
