<svg width="37" height="36" viewBox="0 0 37 36" fill="none" xmlns="http://www.w3.org/2000/svg">
<path d="M11.7361 33H32.9501C33.1661 33 33.3501 32.83 33.3501 32.628V10H27.7501C26.9781 10 26.3501 9.372 26.3501 8.6V3H11.7501C11.5341 3 11.3501 3.17 11.3501 3.372V32.642C11.3501 32.839 11.5231 33 11.7361 33Z" fill="white"/>
<path d="M32.5541 8.99994L27.3501 3.81494V8.59994C27.3501 8.81994 27.5301 8.99994 27.7501 8.99994H32.5541Z" fill="white"/>
<path opacity="0.64" fill-rule="evenodd" clip-rule="evenodd" d="M33.9631 8.993L27.3681 2.421C27.0974 2.15221 26.7316 2.00095 26.3501 2H11.7501C10.9781 2 10.3501 2.615 10.3501 3.372V32.642C10.3501 33.391 10.9721 34 11.7361 34H32.9501C33.7221 34 34.3501 33.385 34.3501 32.628V9.923C34.3501 9.577 34.2101 9.237 33.9631 8.993ZM27.3501 3.815L32.5541 9H27.7501C27.644 9 27.5423 8.95786 27.4673 8.88284C27.3922 8.80783 27.3501 8.70609 27.3501 8.6V3.815ZM32.9501 33C33.1661 33 33.3501 32.83 33.3501 32.628V10H27.7501C26.9781 10 26.3501 9.372 26.3501 8.6V3H11.7501C11.5341 3 11.3501 3.17 11.3501 3.372V32.642C11.3501 32.84 11.5231 33 11.7361 33H32.9501Z" fill="#605E5C"/>
<path d="M29.3501 25H26.3501C26.0849 25 25.8305 24.8946 25.643 24.7071C25.4555 24.5196 25.3501 24.2652 25.3501 24C25.3501 23.7348 25.4555 23.4804 25.643 23.2929C25.8305 23.1054 26.0849 23 26.3501 23H29.3501C29.6153 23 29.8697 23.1054 30.0572 23.2929C30.2447 23.4804 30.3501 23.7348 30.3501 24C30.3501 24.2652 30.2447 24.5196 30.0572 24.7071C29.8697 24.8946 29.6153 25 29.3501 25Z" fill="#134A2C"/>
<path d="M23.3501 25H20.3501V23H23.3501C23.6153 23 23.8697 23.1054 24.0572 23.2929C24.2447 23.4804 24.3501 23.7348 24.3501 24C24.3501 24.2652 24.2447 24.5196 24.0572 24.7071C23.8697 24.8946 23.6153 25 23.3501 25Z" fill="#185C37"/>
<path d="M29.3501 21H26.3501C26.0849 21 25.8305 20.8946 25.643 20.7071C25.4555 20.5196 25.3501 20.2652 25.3501 20C25.3501 19.7348 25.4555 19.4804 25.643 19.2929C25.8305 19.1054 26.0849 19 26.3501 19H29.3501C29.6153 19 29.8697 19.1054 30.0572 19.2929C30.2447 19.4804 30.3501 19.7348 30.3501 20C30.3501 20.2652 30.2447 20.5196 30.0572 20.7071C29.8697 20.8946 29.6153 21 29.3501 21Z" fill="#21A366"/>
<path d="M23.3501 21H20.3501V19H23.3501C23.6153 19 23.8697 19.1054 24.0572 19.2929C24.2447 19.4804 24.3501 19.7348 24.3501 20C24.3501 20.2652 24.2447 20.5196 24.0572 20.7071C23.8697 20.8946 23.6153 21 23.3501 21Z" fill="#107C41"/>
<path d="M29.3501 17H26.3501C26.0849 17 25.8305 16.8946 25.643 16.7071C25.4555 16.5196 25.3501 16.2652 25.3501 16C25.3501 15.7348 25.4555 15.4804 25.643 15.2929C25.8305 15.1054 26.0849 15 26.3501 15H29.3501C29.6153 15 29.8697 15.1054 30.0572 15.2929C30.2447 15.4804 30.3501 15.7348 30.3501 16C30.3501 16.2652 30.2447 16.5196 30.0572 16.7071C29.8697 16.8946 29.6153 17 29.3501 17Z" fill="#33C481"/>
<path d="M23.3501 17H20.3501V15H23.3501C23.6153 15 23.8697 15.1054 24.0572 15.2929C24.2447 15.4804 24.3501 15.7348 24.3501 16C24.3501 16.2652 24.2447 16.5196 24.0572 16.7071C23.8697 16.8946 23.6153 17 23.3501 17Z" fill="#21A366"/>
<path d="M3.8501 28H16.8501C17.2479 28 17.6295 27.842 17.9108 27.5607C18.1921 27.2794 18.3501 26.8978 18.3501 26.5V13.5C18.3501 13.1022 18.1921 12.7206 17.9108 12.4393C17.6295 12.158 17.2479 12 16.8501 12H3.8501C3.45227 12 3.07074 12.158 2.78944 12.4393C2.50813 12.7206 2.3501 13.1022 2.3501 13.5V26.5C2.3501 26.8978 2.50813 27.2794 2.78944 27.5607C3.07074 27.842 3.45227 28 3.8501 28Z" fill="#107C41"/>
<path d="M6.3501 25L9.2481 19.987L6.5931 15H8.7291L10.1781 18.186C10.3111 18.489 10.4031 18.715 10.4531 18.863H10.4731C10.5681 18.621 10.6671 18.387 10.7721 18.158L12.3201 15H14.2801L11.5571 19.959L14.3501 25H12.2641L10.5901 21.5C10.5107 21.3494 10.4438 21.1925 10.3901 21.031H10.3651C10.3351 21.143 10.2721 21.295 10.1721 21.485L8.4501 25H6.3501Z" fill="#F9F7F7"/>
</svg>
