<svg width="37" height="36" viewBox="0 0 37 36" fill="none" xmlns="http://www.w3.org/2000/svg">
<path d="M12.2907 33H33.5047C33.7207 33 33.9047 32.83 33.9047 32.628V10H28.3047C27.5327 10 26.9047 9.372 26.9047 8.6V3H12.3047C12.0887 3 11.9047 3.17 11.9047 3.372V32.642C11.9047 32.839 12.0777 33 12.2907 33Z" fill="white"/>
<path d="M33.1087 8.99994L27.9047 3.81494V8.59994C27.9047 8.81994 28.0847 8.99994 28.3047 8.99994H33.1087Z" fill="white"/>
<path opacity="0.64" fill-rule="evenodd" clip-rule="evenodd" d="M34.5177 8.993L27.9227 2.421C27.6519 2.15221 27.2862 2.00095 26.9047 2H12.3047C11.5327 2 10.9047 2.615 10.9047 3.372V32.642C10.9047 33.391 11.5267 34 12.2907 34H33.5047C34.2767 34 34.9047 33.385 34.9047 32.628V9.923C34.9047 9.577 34.7647 9.237 34.5177 8.993ZM27.9047 3.815L33.1087 9H28.3047C28.1986 9 28.0968 8.95786 28.0218 8.88284C27.9468 8.80783 27.9047 8.70609 27.9047 8.6V3.815ZM33.5047 33C33.7207 33 33.9047 32.83 33.9047 32.628V10H28.3047C27.5327 10 26.9047 9.372 26.9047 8.6V3H12.3047C12.0887 3 11.9047 3.17 11.9047 3.372V32.642C11.9047 32.84 12.0777 33 12.2907 33H33.5047Z" fill="#605E5C"/>
<path d="M29.9047 25H26.9047C26.6394 25 26.3851 24.8946 26.1976 24.7071C26.01 24.5196 25.9047 24.2652 25.9047 24C25.9047 23.7348 26.01 23.4804 26.1976 23.2929C26.3851 23.1054 26.6394 23 26.9047 23H29.9047C30.1699 23 30.4242 23.1054 30.6118 23.2929C30.7993 23.4804 30.9047 23.7348 30.9047 24C30.9047 24.2652 30.7993 24.5196 30.6118 24.7071C30.4242 24.8946 30.1699 25 29.9047 25Z" fill="#134A2C"/>
<path d="M23.9047 25H20.9047V23H23.9047C24.1699 23 24.4242 23.1054 24.6118 23.2929C24.7993 23.4804 24.9047 23.7348 24.9047 24C24.9047 24.2652 24.7993 24.5196 24.6118 24.7071C24.4242 24.8946 24.1699 25 23.9047 25Z" fill="#185C37"/>
<path d="M29.9047 21H26.9047C26.6394 21 26.3851 20.8946 26.1976 20.7071C26.01 20.5196 25.9047 20.2652 25.9047 20C25.9047 19.7348 26.01 19.4804 26.1976 19.2929C26.3851 19.1054 26.6394 19 26.9047 19H29.9047C30.1699 19 30.4242 19.1054 30.6118 19.2929C30.7993 19.4804 30.9047 19.7348 30.9047 20C30.9047 20.2652 30.7993 20.5196 30.6118 20.7071C30.4242 20.8946 30.1699 21 29.9047 21Z" fill="#21A366"/>
<path d="M23.9047 21H20.9047V19H23.9047C24.1699 19 24.4242 19.1054 24.6118 19.2929C24.7993 19.4804 24.9047 19.7348 24.9047 20C24.9047 20.2652 24.7993 20.5196 24.6118 20.7071C24.4242 20.8946 24.1699 21 23.9047 21Z" fill="#107C41"/>
<path d="M29.9047 17H26.9047C26.6394 17 26.3851 16.8946 26.1976 16.7071C26.01 16.5196 25.9047 16.2652 25.9047 16C25.9047 15.7348 26.01 15.4804 26.1976 15.2929C26.3851 15.1054 26.6394 15 26.9047 15H29.9047C30.1699 15 30.4242 15.1054 30.6118 15.2929C30.7993 15.4804 30.9047 15.7348 30.9047 16C30.9047 16.2652 30.7993 16.5196 30.6118 16.7071C30.4242 16.8946 30.1699 17 29.9047 17Z" fill="#33C481"/>
<path d="M23.9047 17H20.9047V15H23.9047C24.1699 15 24.4242 15.1054 24.6118 15.2929C24.7993 15.4804 24.9047 15.7348 24.9047 16C24.9047 16.2652 24.7993 16.5196 24.6118 16.7071C24.4242 16.8946 24.1699 17 23.9047 17Z" fill="#21A366"/>
<path d="M4.40466 28H17.4047C17.8025 28 18.184 27.842 18.4653 27.5607C18.7466 27.2794 18.9047 26.8978 18.9047 26.5V13.5C18.9047 13.1022 18.7466 12.7206 18.4653 12.4393C18.184 12.158 17.8025 12 17.4047 12H4.40466C4.00684 12 3.62531 12.158 3.344 12.4393C3.0627 12.7206 2.90466 13.1022 2.90466 13.5V26.5C2.90466 26.8978 3.0627 27.2794 3.344 27.5607C3.62531 27.842 4.00684 28 4.40466 28Z" fill="#107C41"/>
<path d="M6.90466 25L9.80266 19.987L7.14766 15H9.28366L10.7327 18.186C10.8657 18.489 10.9577 18.715 11.0077 18.863H11.0277C11.1227 18.621 11.2217 18.387 11.3267 18.158L12.8747 15H14.8347L12.1117 19.959L14.9047 25H12.8187L11.1447 21.5C11.0653 21.3494 10.9984 21.1925 10.9447 21.031H10.9197C10.8897 21.143 10.8267 21.295 10.7267 21.485L9.00466 25H6.90466Z" fill="#F9F7F7"/>
</svg>
