<svg width="37" height="36" viewBox="0 0 37 36" fill="none" xmlns="http://www.w3.org/2000/svg">
<path d="M12.1002 33H33.3142C33.5302 33 33.7142 32.83 33.7142 32.628V10H28.1142C27.3422 10 26.7142 9.372 26.7142 8.6V3H12.1142C11.8982 3 11.7142 3.17 11.7142 3.372V32.642C11.7142 32.839 11.8872 33 12.1002 33Z" fill="white"/>
<path d="M32.9182 8.99994L27.7142 3.81494V8.59994C27.7142 8.81994 27.8942 8.99994 28.1142 8.99994H32.9182Z" fill="white"/>
<path opacity="0.64" fill-rule="evenodd" clip-rule="evenodd" d="M34.3272 8.993L27.7322 2.421C27.4615 2.15221 27.0957 2.00095 26.7142 2H12.1142C11.3422 2 10.7142 2.615 10.7142 3.372V32.642C10.7142 33.391 11.3362 34 12.1002 34H33.3142C34.0862 34 34.7142 33.385 34.7142 32.628V9.923C34.7142 9.577 34.5742 9.237 34.3272 8.993ZM27.7142 3.815L32.9182 9H28.1142C28.0081 9 27.9064 8.95786 27.8314 8.88284C27.7564 8.80783 27.7142 8.70609 27.7142 8.6V3.815ZM33.3142 33C33.5302 33 33.7142 32.83 33.7142 32.628V10H28.1142C27.3422 10 26.7142 9.372 26.7142 8.6V3H12.1142C11.8982 3 11.7142 3.17 11.7142 3.372V32.642C11.7142 32.84 11.8872 33 12.1002 33H33.3142Z" fill="#605E5C"/>
<path d="M29.7142 25H26.7142C26.449 25 26.1947 24.8946 26.0071 24.7071C25.8196 24.5196 25.7142 24.2652 25.7142 24C25.7142 23.7348 25.8196 23.4804 26.0071 23.2929C26.1947 23.1054 26.449 23 26.7142 23H29.7142C29.9794 23 30.2338 23.1054 30.4213 23.2929C30.6089 23.4804 30.7142 23.7348 30.7142 24C30.7142 24.2652 30.6089 24.5196 30.4213 24.7071C30.2338 24.8946 29.9794 25 29.7142 25Z" fill="#134A2C"/>
<path d="M23.7142 25H20.7142V23H23.7142C23.9794 23 24.2338 23.1054 24.4213 23.2929C24.6089 23.4804 24.7142 23.7348 24.7142 24C24.7142 24.2652 24.6089 24.5196 24.4213 24.7071C24.2338 24.8946 23.9794 25 23.7142 25Z" fill="#185C37"/>
<path d="M29.7142 21H26.7142C26.449 21 26.1947 20.8946 26.0071 20.7071C25.8196 20.5196 25.7142 20.2652 25.7142 20C25.7142 19.7348 25.8196 19.4804 26.0071 19.2929C26.1947 19.1054 26.449 19 26.7142 19H29.7142C29.9794 19 30.2338 19.1054 30.4213 19.2929C30.6089 19.4804 30.7142 19.7348 30.7142 20C30.7142 20.2652 30.6089 20.5196 30.4213 20.7071C30.2338 20.8946 29.9794 21 29.7142 21Z" fill="#21A366"/>
<path d="M23.7142 21H20.7142V19H23.7142C23.9794 19 24.2338 19.1054 24.4213 19.2929C24.6089 19.4804 24.7142 19.7348 24.7142 20C24.7142 20.2652 24.6089 20.5196 24.4213 20.7071C24.2338 20.8946 23.9794 21 23.7142 21Z" fill="#107C41"/>
<path d="M29.7142 17H26.7142C26.449 17 26.1947 16.8946 26.0071 16.7071C25.8196 16.5196 25.7142 16.2652 25.7142 16C25.7142 15.7348 25.8196 15.4804 26.0071 15.2929C26.1947 15.1054 26.449 15 26.7142 15H29.7142C29.9794 15 30.2338 15.1054 30.4213 15.2929C30.6089 15.4804 30.7142 15.7348 30.7142 16C30.7142 16.2652 30.6089 16.5196 30.4213 16.7071C30.2338 16.8946 29.9794 17 29.7142 17Z" fill="#33C481"/>
<path d="M23.7142 17H20.7142V15H23.7142C23.9794 15 24.2338 15.1054 24.4213 15.2929C24.6089 15.4804 24.7142 15.7348 24.7142 16C24.7142 16.2652 24.6089 16.5196 24.4213 16.7071C24.2338 16.8946 23.9794 17 23.7142 17Z" fill="#21A366"/>
<path d="M4.21423 28H17.2142C17.6121 28 17.9936 27.842 18.2749 27.5607C18.5562 27.2794 18.7142 26.8978 18.7142 26.5V13.5C18.7142 13.1022 18.5562 12.7206 18.2749 12.4393C17.9936 12.158 17.6121 12 17.2142 12H4.21423C3.81641 12 3.43488 12.158 3.15357 12.4393C2.87227 12.7206 2.71423 13.1022 2.71423 13.5V26.5C2.71423 26.8978 2.87227 27.2794 3.15357 27.5607C3.43488 27.842 3.81641 28 4.21423 28Z" fill="#107C41"/>
<path d="M6.71423 25L9.61223 19.987L6.95723 15H9.09323L10.5422 18.186C10.6752 18.489 10.7672 18.715 10.8172 18.863H10.8372C10.9322 18.621 11.0312 18.387 11.1362 18.158L12.6842 15H14.6442L11.9212 19.959L14.7142 25H12.6282L10.9542 21.5C10.8748 21.3494 10.808 21.1925 10.7542 21.031H10.7292C10.6992 21.143 10.6362 21.295 10.5362 21.485L8.81423 25H6.71423Z" fill="#F9F7F7"/>
</svg>
