<svg width="37" height="36" viewBox="0 0 37 36" fill="none" xmlns="http://www.w3.org/2000/svg">
<path d="M17.3501 9L15.2291 6.879C14.9505 6.60029 14.6197 6.3792 14.2556 6.22838C13.8914 6.07756 13.5012 5.99995 13.1071 6H4.3501C3.81966 6 3.31096 6.21071 2.93588 6.58579C2.56081 6.96086 2.3501 7.46957 2.3501 8V28C2.3501 28.5304 2.56081 29.0391 2.93588 29.4142C3.31096 29.7893 3.81966 30 4.3501 30H32.3501C32.8805 30 33.3892 29.7893 33.7643 29.4142C34.1394 29.0391 34.3501 28.5304 34.3501 28V11C34.3501 10.4696 34.1394 9.96086 33.7643 9.58579C33.3892 9.21071 32.8805 9 32.3501 9H17.3501Z" fill="#FFB900"/>
<path d="M17.3501 9L15.2291 11.121C14.9505 11.3997 14.6197 11.6208 14.2556 11.7716C13.8914 11.9224 13.5012 12 13.1071 12H2.3501V28C2.3501 28.5304 2.56081 29.0391 2.93588 29.4142C3.31096 29.7893 3.81966 30 4.3501 30H32.3501C32.8805 30 33.3892 29.7893 33.7643 29.4142C34.1394 29.0391 34.3501 28.5304 34.3501 28V11C34.3501 10.4696 34.1394 9.96086 33.7643 9.58579C33.3892 9.21071 32.8805 9 32.3501 9H17.3501Z" fill="#FFD75E"/>
<path d="M17.3501 9L15.2291 11.121C14.9505 11.3997 14.6197 11.6208 14.2556 11.7716C13.8914 11.9224 13.5012 12 13.1071 12H2.3501V28C2.3501 28.5304 2.56081 29.0391 2.93588 29.4142C3.31096 29.7893 3.81966 30 4.3501 30H32.3501C32.8805 30 33.3892 29.7893 33.7643 29.4142C34.1394 29.0391 34.3501 28.5304 34.3501 28V11C34.3501 10.4696 34.1394 9.96086 33.7643 9.58579C33.3892 9.21071 32.8805 9 32.3501 9H17.3501Z" fill="url(#paint0_linear_28302_62472)"/>
<path opacity="0.4" d="M15.2291 11.121C14.9505 11.3997 14.6197 11.6208 14.2556 11.7716C13.8914 11.9224 13.5012 12 13.1071 12H2.3501V13H13.4001C13.8597 13 14.3149 12.9095 14.7395 12.7337C15.1642 12.5578 15.5501 12.3 15.8751 11.975L18.8501 9H17.3501L15.2291 11.121Z" fill="white"/>
<path d="M4.35007 30.0001H32.3501C32.7812 30.0003 33.2008 29.8612 33.5465 29.6035C33.8921 29.3458 34.1452 28.9833 34.2681 28.5701C33.9181 28.8471 33.4841 29.0001 33.0351 29.0001H3.66507C3.21727 29.0003 2.78262 28.8487 2.43207 28.5701C2.55494 28.9833 2.80805 29.3458 3.15368 29.6035C3.4993 29.8612 3.91895 30.0003 4.35007 30.0001Z" fill="#BF5712"/>
<path fill-rule="evenodd" clip-rule="evenodd" d="M15.8881 19H4.8121C4.5571 19 4.3501 19.187 4.3501 19.417V19.833H6.1001C6.2381 19.833 6.3501 19.927 6.3501 20.042V22.958C6.3501 23.073 6.2381 23.167 6.1001 23.167H4.3501V23.583C4.3501 23.813 4.5571 24 4.8121 24H15.8881C16.1431 24 16.3501 23.814 16.3501 23.583V19.417C16.3501 19.187 16.1431 19 15.8881 19ZM14.3501 22.958C14.3501 23.073 14.2381 23.167 14.1001 23.167H11.6001C11.4621 23.167 11.3501 23.073 11.3501 22.958V20.042C11.3501 19.927 11.4621 19.833 11.6001 19.833H14.1001C14.2381 19.833 14.3501 19.927 14.3501 20.042V22.958ZM4.1001 23.167H2.3501V19.833H4.1001C4.1664 19.833 4.22999 19.8593 4.27687 19.9062C4.32376 19.9531 4.3501 20.0167 4.3501 20.083V22.917C4.3501 22.9833 4.32376 23.0469 4.27687 23.0938C4.22999 23.1407 4.1664 23.167 4.1001 23.167ZM18.8501 23.167C18.5741 23.167 18.3501 22.98 18.3501 22.75V20.25C18.3501 20.02 18.5741 19.833 18.8501 19.833C19.1261 19.833 19.3501 20.02 19.3501 20.25V22.75C19.3501 22.98 19.1261 23.167 18.8501 23.167ZM21.3501 22.75C21.3501 22.98 21.5741 23.167 21.8501 23.167C22.1261 23.167 22.3501 22.98 22.3501 22.75V20.25C22.3501 20.02 22.1261 19.833 21.8501 19.833C21.5741 19.833 21.3501 20.02 21.3501 20.25V22.75ZM24.8501 23.167C24.5741 23.167 24.3501 22.98 24.3501 22.75V20.25C24.3501 20.02 24.5741 19.833 24.8501 19.833C25.1261 19.833 25.3501 20.02 25.3501 20.25V22.75C25.3501 22.98 25.1261 23.167 24.8501 23.167ZM27.3501 22.75C27.3501 22.98 27.5741 23.167 27.8501 23.167C28.1261 23.167 28.3501 22.98 28.3501 22.75V20.25C28.3501 20.02 28.1261 19.833 27.8501 19.833C27.5741 19.833 27.3501 20.02 27.3501 20.25V22.75ZM30.8501 23.167C30.5741 23.167 30.3501 22.98 30.3501 22.75V20.25C30.3501 20.02 30.5741 19.833 30.8501 19.833C31.1261 19.833 31.3501 20.02 31.3501 20.25V22.75C31.3501 22.98 31.1261 23.167 30.8501 23.167ZM33.3501 22.75C33.3501 22.98 33.5741 23.167 33.8501 23.167C34.1261 23.167 34.3501 22.98 34.3501 22.75V20.25C34.3501 20.02 34.1261 19.833 33.8501 19.833C33.5741 19.833 33.3501 20.02 33.3501 20.25V22.75Z" fill="#BF5712"/>
<defs>
<linearGradient id="paint0_linear_28302_62472" x1="2.3501" y1="9" x2="2.3501" y2="30" gradientUnits="userSpaceOnUse">
<stop stop-color="white" stop-opacity="0.01"/>
<stop offset="0.999" stop-color="#FFD75E" stop-opacity="0.3"/>
</linearGradient>
</defs>
</svg>
