<svg width="141" height="44" viewBox="0 0 141 44" fill="none" xmlns="http://www.w3.org/2000/svg">
<rect width="141" height="44" rx="2" fill="#DAE8FF"/>
<path d="M26.75 21.25V16H25.25V21.25H20V22.75H25.25V28H26.75V22.75H32V21.25H26.75Z" fill="#525965"/>
<path d="M49.0359 17.076C50.4972 17.076 51.6012 17.2893 52.3479 17.716C53.0945 18.132 53.4679 18.868 53.4679 19.924C53.4679 20.372 53.3879 20.772 53.2279 21.124C53.0679 21.4653 52.8332 21.7533 52.5239 21.988C52.2252 22.212 51.8519 22.3613 51.4039 22.436V22.516C51.8625 22.5907 52.2732 22.7293 52.6359 22.932C52.9985 23.124 53.2865 23.4067 53.4999 23.78C53.7132 24.1533 53.8199 24.6387 53.8199 25.236C53.8199 25.9293 53.6545 26.5213 53.3239 27.012C53.0039 27.492 52.5399 27.86 51.9319 28.116C51.3345 28.372 50.6199 28.5 49.7879 28.5H45.6919V17.076H49.0359ZM49.3239 21.844C50.2199 21.844 50.8332 21.7 51.1639 21.412C51.5052 21.124 51.6759 20.6973 51.6759 20.132C51.6759 19.556 51.4732 19.1453 51.0679 18.9C50.6625 18.6547 50.0172 18.532 49.1319 18.532H47.4199V21.844H49.3239ZM47.4199 23.252V27.06H49.5159C50.4439 27.06 51.0892 26.8787 51.4519 26.516C51.8145 26.1533 51.9959 25.6733 51.9959 25.076C51.9959 24.7133 51.9159 24.3933 51.7559 24.116C51.5959 23.8387 51.3239 23.6253 50.9399 23.476C50.5665 23.3267 50.0545 23.252 49.4039 23.252H47.4199ZM63.4239 19.876V28.5H62.0639L61.8239 27.364H61.7439C61.5625 27.6627 61.3279 27.908 61.0399 28.1C60.7519 28.292 60.4372 28.4307 60.0959 28.516C59.7545 28.612 59.4025 28.66 59.0399 28.66C58.3679 28.66 57.7972 28.5533 57.3279 28.34C56.8692 28.116 56.5172 27.7747 56.2719 27.316C56.0372 26.8467 55.9199 26.2493 55.9199 25.524V19.876H57.6319V25.268C57.6319 25.94 57.7705 26.4413 58.0479 26.772C58.3359 27.1027 58.7785 27.268 59.3759 27.268C59.9732 27.268 60.4425 27.1507 60.7839 26.916C61.1252 26.6813 61.3652 26.34 61.5039 25.892C61.6532 25.4333 61.7279 24.884 61.7279 24.244V19.876H63.4239ZM69.182 27.284C69.406 27.284 69.6353 27.2627 69.87 27.22C70.1047 27.1773 70.3073 27.1293 70.478 27.076V28.356C70.2967 28.4413 70.0513 28.5107 69.742 28.564C69.4327 28.628 69.1233 28.66 68.814 28.66C68.3447 28.66 67.9127 28.58 67.518 28.42C67.134 28.26 66.8247 27.9827 66.59 27.588C66.3553 27.1933 66.238 26.644 66.238 25.94V21.172H65.038V20.404L66.302 19.764L66.894 17.94H67.934V19.876H70.398V21.172H67.934V25.908C67.934 26.3773 68.046 26.724 68.27 26.948C68.5047 27.172 68.8087 27.284 69.182 27.284ZM75.307 27.284C75.531 27.284 75.7603 27.2627 75.995 27.22C76.2297 27.1773 76.4323 27.1293 76.603 27.076V28.356C76.4217 28.4413 76.1763 28.5107 75.867 28.564C75.5577 28.628 75.2483 28.66 74.939 28.66C74.4697 28.66 74.0377 28.58 73.643 28.42C73.259 28.26 72.9497 27.9827 72.715 27.588C72.4803 27.1933 72.363 26.644 72.363 25.94V21.172H71.163V20.404L72.427 19.764L73.019 17.94H74.059V19.876H76.523V21.172H74.059V25.908C74.059 26.3773 74.171 26.724 74.395 26.948C74.6297 27.172 74.9337 27.284 75.307 27.284ZM85.928 24.18C85.928 24.8947 85.832 25.5293 85.64 26.084C85.448 26.6387 85.176 27.108 84.824 27.492C84.472 27.876 84.0453 28.1693 83.544 28.372C83.0427 28.564 82.4773 28.66 81.848 28.66C81.272 28.66 80.7387 28.564 80.248 28.372C79.7573 28.1693 79.3307 27.876 78.968 27.492C78.616 27.108 78.3387 26.6387 78.136 26.084C77.9333 25.5293 77.832 24.8893 77.832 24.164C77.832 23.2147 77.992 22.4093 78.312 21.748C78.6427 21.0867 79.112 20.5853 79.72 20.244C80.3387 19.892 81.064 19.716 81.896 19.716C82.6853 19.716 83.3787 19.892 83.976 20.244C84.584 20.5853 85.0587 21.0867 85.4 21.748C85.752 22.4093 85.928 23.22 85.928 24.18ZM79.576 24.18C79.576 24.82 79.656 25.3747 79.816 25.844C79.976 26.3027 80.2267 26.6547 80.568 26.9C80.9093 27.1453 81.3467 27.268 81.88 27.268C82.4133 27.268 82.8507 27.1453 83.192 26.9C83.5333 26.6547 83.784 26.3027 83.944 25.844C84.104 25.3747 84.184 24.82 84.184 24.18C84.184 23.5187 84.0987 22.964 83.928 22.516C83.768 22.068 83.5173 21.7267 83.176 21.492C82.8453 21.2467 82.408 21.124 81.864 21.124C81.064 21.124 80.4827 21.3907 80.12 21.924C79.7573 22.4573 79.576 23.2093 79.576 24.18ZM92.446 19.716C93.4487 19.716 94.2167 19.9667 94.75 20.468C95.2833 20.9693 95.55 21.7747 95.55 22.884V28.5H93.87V23.124C93.87 22.452 93.726 21.9507 93.438 21.62C93.1607 21.2787 92.7127 21.108 92.094 21.108C91.2193 21.108 90.6113 21.3693 90.27 21.892C89.9393 22.4147 89.774 23.1667 89.774 24.148V28.5H88.078V19.876H89.422L89.662 21.028H89.758C89.95 20.7293 90.1847 20.484 90.462 20.292C90.7393 20.1 91.0487 19.956 91.39 19.86C91.7313 19.764 92.0833 19.716 92.446 19.716Z" fill="#525965"/>
<path d="M119.5 22L112 29.5L110.95 28.45L117.4 22L110.95 15.55L112 14.5L119.5 22Z" fill="#525965"/>
</svg>
