<svg width="209" height="48" viewBox="0 0 209 48" fill="none" xmlns="http://www.w3.org/2000/svg">
<g clip-path="url(#clip0_17650_3518)">
<path fill-rule="evenodd" clip-rule="evenodd" d="M35.3623 16.5953C35.3623 15.808 35.3623 14.4696 36.8651 14.4696C38.3678 14.4696 38.3657 15.808 38.3657 16.5953V28.0919C38.3657 28.703 38.3657 30.2134 36.8651 30.2134C35.3644 30.2134 35.3623 28.703 35.3623 28.0919V16.5953ZM30.1528 27.6257C30.1528 31.759 32.7284 34.183 36.863 34.183C40.9976 34.183 43.5711 31.759 43.5711 27.6257V17.0594C43.5711 12.518 40.7409 10.5 36.863 10.5C32.9851 10.5 30.1528 12.518 30.1528 17.0594V27.6257Z" fill="#32373F"/>
<path d="M76.8488 29.0511C76.8488 31.2327 77.9508 34.183 82.8222 34.183C87.6935 34.183 88.7955 31.2327 88.7955 29.0511V25.3922H83.9242V29.4012C83.9242 30.0393 83.9242 30.9137 82.8201 30.9137C81.716 30.9137 81.716 30.0393 81.716 29.4012V19.9413C81.716 19.3011 81.716 18.4268 82.8201 18.4268C83.9242 18.4268 83.9242 19.3011 83.9242 19.9413V22.5994H88.7955V20.2914C88.7955 18.1077 87.6894 15.1595 82.8222 15.1595C77.9549 15.1595 76.8488 18.1077 76.8488 20.2914V29.0511Z" fill="#32373F"/>
<path d="M90.2042 30.6941C90.2042 33.605 91.8218 33.9531 93.9173 33.9531H95.0756V18.9696H96.2903V15.3585H95.0756V10.7031H90.2042V15.3585H88.9854V18.9696H90.2042V30.6941Z" fill="#32373F"/>
<path fill-rule="evenodd" clip-rule="evenodd" d="M96.9707 33.9696H101.842V15.3708H96.9707V33.9696ZM96.9707 14.1485H101.842V10.7155H96.9707V14.1505V14.1485Z" fill="#32373F"/>
<path fill-rule="evenodd" clip-rule="evenodd" d="M105.47 33.9696H111.165L114.474 15.3709H109.606L108.387 27.2735H108.329L107.198 15.3709H102.187L105.47 33.9696Z" fill="#32373F"/>
<path fill-rule="evenodd" clip-rule="evenodd" d="M63.9021 29.0511C63.9021 31.2327 65.0041 34.183 69.8734 34.183C74.7427 34.183 75.851 31.2348 75.851 29.0511V27.0725H70.9775V29.4012C70.9775 30.0393 70.9775 30.9137 69.8734 30.9137C68.7693 30.9137 68.7693 30.0393 68.7693 29.4012V25.413H75.851V20.2914C75.851 18.1077 74.7469 15.1595 69.8734 15.1595C64.9999 15.1595 63.9021 18.1077 63.9021 20.2914V29.0532V29.0511ZM68.7693 19.9392C68.7693 19.299 68.7693 18.4268 69.8734 18.4268C70.9775 18.4268 70.9775 19.299 70.9775 19.9392V21.9779H68.7693V19.9392Z" fill="#32373F"/>
<path fill-rule="evenodd" clip-rule="evenodd" d="M114.302 29.0511C114.302 31.2327 115.404 34.183 120.276 34.183C125.147 34.183 126.251 31.2348 126.251 29.0511V27.0725H121.382V29.4012C121.382 30.0393 121.382 30.9137 120.278 30.9137C119.174 30.9137 119.174 30.0393 119.174 29.4012V25.413H126.253V20.2914C126.253 18.1077 125.149 15.1595 120.278 15.1595C115.407 15.1595 114.305 18.1077 114.305 20.2914V29.0532L114.302 29.0511ZM119.172 19.9392C119.172 19.299 119.172 18.4247 120.276 18.4247C121.38 18.4247 121.38 19.299 121.38 19.9392V21.9779H119.17V19.9392" fill="#32373F"/>
<path fill-rule="evenodd" clip-rule="evenodd" d="M49.7095 29.3764C49.7095 30.0166 49.7095 30.8909 50.8136 30.8909C51.9177 30.8909 51.9197 30.0166 51.9197 29.3764V19.9165C51.9197 19.2763 51.9197 18.402 50.8136 18.402C49.7074 18.402 49.7095 19.2742 49.7095 19.9165L49.6969 29.3764H49.7095ZM49.6969 33.6133V33.9572H44.8276V10.7031H49.6969V15.6009C50.0518 15.346 50.7864 15.1326 51.183 15.1326C55.7476 15.1326 56.787 18.0829 56.787 20.2645V29.0242C56.787 31.2058 55.783 34.1561 51.3228 34.1561C50.9263 34.1561 50.0517 33.9759 49.6928 33.6112H49.6969" fill="#32373F"/>
<path d="M57.9244 37.4834L59.0765 37.5C62.5036 37.5 62.7958 35.4199 62.7958 32.625V15.3709H57.9265V37.4834" fill="#32373F"/>
<path d="M57.9244 10.7155H62.7958V14.1485H57.9244V10.7155Z" fill="#32373F"/>
<path d="M138.146 16.817V34.2617H136.274V16.817H132.586V15.201H141.861V16.817H138.146ZM151.783 34.2597H153.818L150.076 25.1064C150.472 25.0525 150.875 24.9178 151.282 24.7024C151.689 24.4869 152.059 24.1823 152.393 23.7866C152.727 23.393 152.998 22.9019 153.207 22.3198C153.415 21.7355 153.52 21.0414 153.52 20.2334C153.52 19.3011 153.38 18.5117 153.098 17.8653C152.818 17.2189 152.447 16.6989 151.986 16.3032C151.524 15.9095 151.001 15.6257 150.412 15.4558C149.825 15.2859 149.216 15.201 148.582 15.201H143.971V34.2597H145.841V25.4296H148.31L151.781 34.2597H151.783ZM151.673 20.3287C151.673 21.4745 151.38 22.3633 150.792 22.9993C150.203 23.6333 149.396 23.9503 148.364 23.9503H145.843V16.817H148.285C148.719 16.817 149.139 16.8709 149.546 16.9786C149.953 17.0863 150.314 17.2728 150.631 17.5421C150.946 17.8115 151.199 18.172 151.391 18.6278C151.581 19.0836 151.675 19.6512 151.675 20.3308M165.206 34.2597H167.184L162.438 15.201H159.863L154.981 34.2597H156.907L158.128 29.4945H164.039L165.206 34.2597ZM161.165 16.8978L163.768 27.9883H158.397L161.056 16.8978H161.165ZM178.204 20.3702C178.204 19.384 178.056 18.5573 177.758 17.8943C177.459 17.2314 177.075 16.6968 176.606 16.2928C176.134 15.8888 175.61 15.607 175.032 15.4454C174.454 15.2838 173.884 15.203 173.323 15.203H168.793V34.2617H170.666V25.7548H173.485C174.099 25.7548 174.692 25.6367 175.261 25.4047C175.831 25.1706 176.332 24.8308 176.766 24.3812C177.2 23.9337 177.547 23.3722 177.81 22.6989C178.073 22.0276 178.204 21.2507 178.204 20.3702ZM176.334 20.3826C176.334 21.6526 176.03 22.5953 175.424 23.2127C174.819 23.8301 174.091 24.1388 173.241 24.1388H170.666V16.817H173.214C173.648 16.817 174.049 16.8854 174.42 17.018C174.79 17.1526 175.122 17.3619 175.41 17.6478C175.7 17.9337 175.925 18.3046 176.088 18.7604C176.251 19.2162 176.332 19.7569 176.332 20.3826M180.028 34.2597H188.029V32.5628H181.871V25.1602H187.377V23.5442H181.871V16.8709H187.755V15.201H180.026V34.2597H180.028ZM190.176 34.2597H199.234V32.5628H192.209L199.18 16.8419V15.1989H190.475V16.8688H197.199L190.174 32.6436V34.2597H190.176ZM201 34.2597H209V32.5628H202.843V25.1602H208.349V23.5442H202.843V16.8709H208.727V15.201H200.998V34.2597H201Z" fill="#5DA10C"/>
<rect y="10.5127" width="24" height="24" rx="1" fill="white"/>
<path d="M23.2312 10.5127H0.768773C0.346578 10.5127 0 10.8592 0 11.2814V33.7439C0 34.1661 0.346578 34.5127 0.768773 34.5127H23.2312C23.6534 34.5127 24 34.1661 24 33.7439V11.2814C24 10.8592 23.6555 10.5127 23.2312 10.5127ZM6.2447 28.4759L3.71574 28.4696C3.62542 28.4696 3.5729 28.3961 3.60231 28.31L7.38316 16.7448C7.41047 16.6586 7.50919 16.5872 7.59951 16.5893H10.1306C10.2209 16.5893 10.2734 16.6607 10.244 16.7469L6.46105 28.3205C6.43375 28.4066 6.33503 28.4759 6.2447 28.4759ZM12 21.202C10.662 21.202 9.51934 22.0401 9.05934 23.2226L11.1346 16.8498C11.1745 16.7154 11.2501 16.5914 11.393 16.5914H12.6091C12.7499 16.5914 12.8255 16.7112 12.8675 16.8498L14.9428 23.2226C14.4828 22.0422 13.3401 21.2041 12.0021 21.202H12ZM20.2696 28.4717L17.7406 28.478C17.6503 28.478 17.5515 28.4087 17.5242 28.3226L13.7581 16.7469C13.7308 16.6607 13.7812 16.5893 13.8715 16.5893H16.4047C16.495 16.5893 16.5937 16.6586 16.621 16.7469L20.383 28.3142C20.4103 28.4003 20.3599 28.4717 20.2696 28.4738V28.4717Z" fill="url(#paint0_linear_17650_3518)"/>
</g>
<defs>
<linearGradient id="paint0_linear_17650_3518" x1="20.0553" y1="36.464" x2="3.94469" y2="8.56133" gradientUnits="userSpaceOnUse">
<stop stop-color="#77BC4A"/>
<stop offset="0.5" stop-color="#5DA10C"/>
<stop offset="0.76" stop-color="#549809"/>
<stop offset="1" stop-color="#488C07"/>
</linearGradient>
<clipPath id="clip0_17650_3518">
<rect width="209" height="27" fill="white" transform="translate(0 10.5)"/>
</clipPath>
</defs>
</svg>
