<svg width="190" height="48" viewBox="0 0 190 48" fill="none" xmlns="http://www.w3.org/2000/svg">
<g clip-path="url(#clip0_17650_3510)">
<path fill-rule="evenodd" clip-rule="evenodd" d="M35.8774 16.5953C35.8774 15.808 35.8774 14.4696 37.402 14.4696C38.9267 14.4696 38.9245 15.808 38.9245 16.5953V28.0919C38.9245 28.703 38.9245 30.2134 37.402 30.2134C35.8795 30.2134 35.8774 28.703 35.8774 28.0919V16.5953ZM30.592 27.6257C30.592 31.759 33.2051 34.183 37.3999 34.183C41.5947 34.183 44.2057 31.759 44.2057 27.6257V17.0594C44.2057 12.518 41.3343 10.5 37.3999 10.5C33.4655 10.5 30.592 12.518 30.592 17.0594V27.6257Z" fill="white"/>
<path d="M77.9678 29.0511C77.9678 31.2327 79.0858 34.183 84.0282 34.183C88.9705 34.183 90.0885 31.2327 90.0885 29.0511V25.3922H85.1462V29.4012C85.1462 30.0393 85.1462 30.9137 84.026 30.9137C82.9059 30.9137 82.9059 30.0393 82.9059 29.4012V19.9413C82.9059 19.3011 82.9059 18.4268 84.026 18.4268C85.1462 18.4268 85.1462 19.3011 85.1462 19.9413V22.5994H90.0885V20.2914C90.0885 18.1077 88.9662 15.1595 84.0282 15.1595C79.0901 15.1595 77.9678 18.1077 77.9678 20.2914V29.0511Z" fill="white"/>
<path d="M91.5178 30.6941C91.5178 33.6051 93.1589 33.9531 95.2849 33.9531H96.4601V18.9697H97.6925V15.3585H96.4601V10.7031H91.5178V15.3585H90.2811V18.9697H91.5178V30.6941Z" fill="white"/>
<path fill-rule="evenodd" clip-rule="evenodd" d="M98.3833 33.9697H103.326V15.3709H98.3833V33.9697ZM98.3833 14.1486H103.326V10.7155H98.3833V14.1506V14.1486Z" fill="white"/>
<path fill-rule="evenodd" clip-rule="evenodd" d="M107.006 33.9696H112.784L116.141 15.3708H111.203L109.966 27.2735H109.909L108.759 15.3708H103.675L107.006 33.9696Z" fill="white"/>
<path fill-rule="evenodd" clip-rule="evenodd" d="M64.8318 29.0511C64.8318 31.2327 65.9498 34.183 70.89 34.183C75.8303 34.183 76.9547 31.2348 76.9547 29.0511V27.0725H72.0102V29.4012C72.0102 30.0393 72.0102 30.9137 70.89 30.9137C69.7699 30.9137 69.7699 30.0393 69.7699 29.4012V25.413H76.9547V20.2914C76.9547 18.1077 75.8345 15.1595 70.89 15.1595C65.9456 15.1595 64.8318 18.1077 64.8318 20.2914V29.0532V29.0511ZM69.7699 19.9392C69.7699 19.299 69.7699 18.4268 70.89 18.4268C72.0102 18.4268 72.0102 19.299 72.0102 19.9392V21.9779H69.7699V19.9392Z" fill="white"/>
<path fill-rule="evenodd" clip-rule="evenodd" d="M115.967 29.0511C115.967 31.2327 117.085 34.183 122.027 34.183C126.97 34.183 128.09 31.2348 128.09 29.0511V27.0725H123.15V29.4012C123.15 30.0393 123.15 30.9137 122.029 30.9137C120.909 30.9137 120.909 30.0393 120.909 29.4012V25.413H128.092V20.2914C128.092 18.1077 126.972 15.1595 122.029 15.1595C117.087 15.1595 115.969 18.1077 115.969 20.2914V29.0532L115.967 29.0511ZM120.907 19.9392C120.907 19.299 120.907 18.4247 122.027 18.4247C123.147 18.4247 123.147 19.299 123.147 19.9392V21.9779H120.905V19.9392" fill="white"/>
<path fill-rule="evenodd" clip-rule="evenodd" d="M50.4331 29.3765C50.4331 30.0167 50.4331 30.891 51.5533 30.891C52.6735 30.891 52.6756 30.0167 52.6756 29.3765V19.9165C52.6756 19.2763 52.6756 18.402 51.5533 18.402C50.431 18.402 50.4331 19.2743 50.4331 19.9165L50.4204 29.3765H50.4331ZM50.4204 33.6133V33.9573H45.4802V10.7031H50.4204V15.6009C50.7804 15.3461 51.5258 15.1327 51.9281 15.1327C56.5592 15.1327 57.6137 18.083 57.6137 20.2646V29.0243C57.6137 31.2059 56.5952 34.1562 52.07 34.1562C51.6677 34.1562 50.7804 33.9759 50.4162 33.6113H50.4204" fill="white"/>
<path d="M58.7683 37.4834L59.9372 37.5C63.4142 37.5 63.7106 35.4199 63.7106 32.625V15.3708H58.7704V37.4834" fill="white"/>
<path d="M58.7683 10.7155H63.7106V14.1486H58.7683V10.7155Z" fill="white"/>
<path d="M142.69 28.846C142.69 28.1395 142.58 27.5408 142.364 27.0559C142.146 26.5691 141.864 26.1754 141.519 25.875C141.174 25.5746 140.789 25.3529 140.363 25.212C139.935 25.0711 139.522 25.0007 139.124 25.0007H136.429V32.5111H139.124C139.615 32.5111 140.077 32.4406 140.513 32.2997C140.95 32.1588 141.331 31.9372 141.657 31.6367C141.983 31.3363 142.237 30.9551 142.419 30.4952C142.601 30.0352 142.692 29.4862 142.692 28.8501L142.69 28.846ZM142.146 20.1361C142.146 19.5166 142.051 18.9966 141.86 18.5718C141.67 18.1471 141.415 17.8073 141.098 17.5504C140.78 17.2935 140.422 17.1133 140.022 17.0055C139.624 16.8999 139.215 16.846 138.798 16.846H136.431V23.5048H138.853C139.251 23.5048 139.647 23.4427 140.037 23.3184C140.427 23.1941 140.776 22.9952 141.085 22.7217C141.394 22.4482 141.648 22.0981 141.847 21.6733C142.046 21.2486 142.146 20.7369 142.146 20.134V20.1361ZM144.568 28.9662C144.568 29.942 144.41 30.7604 144.092 31.4171C143.774 32.0739 143.37 32.6022 142.881 33.0021C142.389 33.4019 141.852 33.6858 141.261 33.8536C140.67 34.0235 140.105 34.1064 139.56 34.1064H134.633V15.2486H139.001C139.548 15.2486 140.111 15.3191 140.693 15.462C141.276 15.605 141.807 15.8474 142.29 16.1934C142.773 16.5394 143.169 17.0097 143.478 17.6043C143.787 18.1989 143.942 18.9489 143.942 19.8543C143.942 20.4945 143.863 21.0497 143.707 21.52C143.552 21.9903 143.344 22.3985 143.088 22.7445C142.832 23.0905 142.538 23.3743 142.207 23.596C141.877 23.8177 141.538 23.9917 141.191 24.116V24.1699C141.536 24.2403 141.907 24.3833 142.307 24.5967C142.705 24.8101 143.073 25.1084 143.41 25.4896C143.745 25.8709 144.022 26.3515 144.24 26.9275C144.458 27.5035 144.568 28.183 144.568 28.9641V28.9662Z" fill="white"/>
<path d="M158.356 30.2569C158.165 31.1188 157.856 31.8688 157.43 32.5069C157.005 33.1471 156.437 33.6485 155.73 34.011C155.023 34.3757 154.15 34.558 153.117 34.558C152.084 34.558 151.215 34.3757 150.517 34.011C149.818 33.6485 149.255 33.145 148.829 32.5069C148.401 31.8667 148.098 31.1188 147.916 30.2569C147.734 29.395 147.643 28.4772 147.643 27.4993V15.2486H149.549V27.261C149.549 27.953 149.6 28.6367 149.699 29.3121C149.799 29.9875 149.981 30.5863 150.244 31.1105C150.506 31.6346 150.87 32.0552 151.332 32.3764C151.794 32.6954 152.397 32.8549 153.142 32.8549C153.888 32.8549 154.466 32.6954 154.938 32.3764C155.41 32.0573 155.779 31.6346 156.041 31.1105C156.304 30.5863 156.486 29.9917 156.586 29.3266C156.685 28.6595 156.736 27.9737 156.736 27.2631V15.2486H158.642V27.4993C158.642 28.4772 158.546 29.395 158.356 30.2569Z" fill="white"/>
<path d="M162.834 34.1063V15.2486H164.74V34.1063H162.834Z" fill="white"/>
<path d="M169.148 34.1063V15.2486H171.054V32.3743H176.553V34.1063H169.148Z" fill="white"/>
<path d="M188.122 24.7044C188.122 23.368 187.99 22.2057 187.728 21.2175C187.465 20.2292 187.101 19.4129 186.639 18.7727C186.176 18.1305 185.631 17.6498 185.007 17.3287C184.38 17.0075 183.704 16.848 182.98 16.848H180.748V32.5089H182.98C183.704 32.5089 184.382 32.3494 185.007 32.0283C185.633 31.7071 186.178 31.2265 186.639 30.5842C187.101 29.9419 187.465 29.1319 187.728 28.1519C187.99 27.1719 188.122 26.022 188.122 24.7044ZM190 24.7044C190 26.2499 189.837 27.607 189.511 28.7796C189.185 29.9523 188.712 30.9323 188.096 31.7237C187.48 32.5151 186.739 33.1098 185.877 33.5075C185.015 33.9074 184.058 34.1063 183.006 34.1063H178.868V15.2486H183.033C184.086 15.2486 185.043 15.4475 185.904 15.8473C186.766 16.2472 187.501 16.8459 188.109 17.6457C188.717 18.4454 189.185 19.4357 189.511 20.6167C189.837 21.7976 190 23.1609 190 24.7044Z" fill="white"/>
<path d="M23.2312 10.5126H0.768773C0.346578 10.5126 0 10.8592 0 11.2813V33.7438C0 34.166 0.346578 34.5126 0.768773 34.5126H23.2312C23.6534 34.5126 24 34.166 24 33.7438V11.2813C24 10.8592 23.6555 10.5126 23.2312 10.5126ZM8.97952 29.295C8.97952 29.4084 8.8871 29.5008 8.77367 29.5008H5.19447C5.08104 29.5008 4.98652 29.4084 4.98652 29.2929V25.5961C4.98652 25.5415 5.00753 25.4889 5.04744 25.449L6.83704 23.6993C6.91896 23.6174 7.04919 23.6195 7.129 23.6993L8.91861 25.449C8.95642 25.4868 8.97952 25.5415 8.97952 25.5961V29.2929V29.295ZM14.0123 29.3076C14.0123 29.421 13.9198 29.5134 13.8064 29.5155H10.2272C10.1138 29.5155 10.0214 29.4231 10.0214 29.3076V22.376C10.0214 22.3214 10.0424 22.2689 10.0823 22.229L11.8719 20.4793C11.9538 20.3974 12.084 20.3995 12.1638 20.4793L13.9534 22.229C13.9933 22.2668 14.0144 22.3214 14.0144 22.376V29.3076H14.0123ZM19.0114 29.3076C19.0114 29.4126 18.9253 29.4987 18.8202 29.4987H15.2326C15.1276 29.4987 15.0415 29.4126 15.0415 29.3076V15.7638C15.0415 15.6587 15.1276 15.5726 15.2326 15.5726H18.8202C18.9253 15.5726 19.0114 15.6587 19.0114 15.7638V29.3076Z" fill="white"/>
</g>
<defs>
<clipPath id="clip0_17650_3510">
<rect width="190" height="27" fill="white" transform="translate(0 10.5)"/>
</clipPath>
</defs>
</svg>
