<svg width="196" height="169" viewBox="0 0 196 169" fill="none" xmlns="http://www.w3.org/2000/svg">
<ellipse cx="85.1637" cy="56.0724" rx="85.1637" ry="56.0724" transform="matrix(0.95862 0.284689 -0.282856 0.959162 31.8875 4.17479)" fill="#F5F5F5"/>
<g filter="url(#filter0_ddd_1_75)">
<path d="M94.802 145.543V155.431L159.332 118.093V108.205L94.802 145.543Z" fill="#27AE60"/>
<path d="M94.802 145.544L30.2721 108.206L94.802 70.8388L159.332 108.206L94.802 145.544Z" fill="#6FCF97"/>
<path d="M94.802 155.431L30.2721 118.093V108.205L94.802 145.543V155.431Z" fill="#219653"/>
</g>
<path opacity="0.67" d="M125.753 40.1707V115.202C125.753 115.616 125.609 115.997 125.376 116.311C124.765 117.156 123.524 117.537 122.446 116.957L82.4602 95.9926C80.9862 95.2145 80.0867 93.7568 80.0867 92.2007V16.6893C80.0867 15.6956 80.9315 14.9672 81.8664 14.9012C82.2437 14.8679 82.6396 14.9346 82.9992 15.1332L123.273 36.2469C124.783 37.0421 125.754 38.5486 125.754 40.1715L125.753 40.1707Z" fill="url(#paint0_linear_1_75)"/>
<path d="M127.246 39.2763V46.2806L125.754 47.241V40.17C125.754 38.5471 124.783 37.0406 123.273 36.2454L82.9988 15.1325C82.6392 14.9339 82.2433 14.8679 81.866 14.9005C82.3696 14.0891 83.5379 13.7245 84.5267 14.238L124.764 35.3681C126.311 36.1632 127.246 37.6534 127.246 39.2763H127.246Z" fill="#353644"/>
<path d="M127.248 46.2799V114.323C127.248 115.416 126.384 116.178 125.378 116.311C125.611 115.996 125.755 115.615 125.755 115.201V47.2403L127.248 46.2799Z" fill="url(#paint1_linear_1_75)"/>
<path d="M125.754 40.1707V47.2417L80.0867 23.893V16.6893C80.0867 15.6956 80.9315 14.9672 81.8664 14.9012C82.2437 14.8679 82.6396 14.9346 82.9992 15.1332L123.273 36.2469C124.783 37.0421 125.754 38.5486 125.754 40.1715V40.1707Z" fill="url(#paint2_linear_1_75)"/>
<path opacity="0.67" d="M119.793 43.55V118.581C119.793 118.995 119.649 119.376 119.415 119.69C118.804 120.535 117.563 120.916 116.485 120.336L76.4992 99.3719C75.0253 98.5938 74.1257 97.1361 74.1257 95.58V20.0686C74.1257 19.0749 74.9705 18.3465 75.9054 18.2805C76.2828 18.2472 76.6786 18.3139 77.0383 18.5125L117.312 39.6262C118.822 40.4214 119.793 41.9279 119.793 43.5508L119.793 43.55Z" fill="url(#paint3_linear_1_75)"/>
<path d="M121.285 42.6556V49.6599L119.792 50.6203V43.5493C119.792 41.9264 118.821 40.4199 117.311 39.6247L77.0379 18.5118C76.6782 18.3132 76.2824 18.2472 75.905 18.2798C76.4087 17.4684 77.5769 17.1038 78.5657 17.6173L118.803 38.7474C120.35 39.5425 121.285 41.0327 121.285 42.6556Z" fill="#353644"/>
<path d="M121.285 49.661V117.704C121.285 118.797 120.421 119.559 119.415 119.692C119.648 119.377 119.792 118.996 119.792 118.582V50.6214L121.285 49.661Z" fill="url(#paint4_linear_1_75)"/>
<path d="M119.793 43.5508V50.6218L74.1257 27.2723V20.0686C74.1257 19.0749 74.9705 18.3465 75.9054 18.2805C76.2828 18.2472 76.6786 18.3139 77.0383 18.5125L117.312 39.6262C118.822 40.4214 119.793 41.9279 119.793 43.5508Z" fill="url(#paint5_linear_1_75)"/>
<path opacity="0.67" d="M113.834 46.9317V121.963C113.834 122.377 113.69 122.758 113.456 123.072C112.845 123.917 111.604 124.298 110.526 123.718L70.5403 102.754C69.0663 101.976 68.1667 100.518 68.1667 98.9617V23.4504C68.1667 22.4566 69.0115 21.7282 69.9465 21.6623C70.3238 21.6289 70.7197 21.6956 71.0793 21.8942L111.353 43.008C112.863 43.8031 113.834 45.3096 113.834 46.9325L113.834 46.9317Z" fill="url(#paint6_linear_1_75)"/>
<path d="M115.326 46.0373V53.0416L113.833 54.002V46.931C113.833 45.3081 112.862 43.8016 111.352 43.0065L71.0789 21.8935C70.7192 21.6949 70.3234 21.6289 69.946 21.6615C70.4497 20.8501 71.6179 20.4855 72.6068 20.999L112.844 42.1291C114.391 42.9242 115.326 44.4145 115.326 46.0373Z" fill="#353644"/>
<path d="M115.326 53.0409V121.084C115.326 122.177 114.462 122.939 113.456 123.072C113.689 122.757 113.833 122.376 113.833 121.962V54.0021L115.326 53.0417V53.0409Z" fill="url(#paint7_linear_1_75)"/>
<path d="M113.834 46.9317V54.0027L68.1667 30.654V23.4504C68.1667 22.4566 69.0115 21.7282 69.9465 21.6623C70.3238 21.6289 70.7197 21.6956 71.0793 21.8942L111.353 43.008C112.863 43.8031 113.834 45.3096 113.834 46.9325V46.9317Z" fill="url(#paint8_linear_1_75)"/>
<path d="M79.5903 43.172V49.8419C79.5903 49.9079 79.5701 49.9645 79.5288 50.0118C79.4471 50.1344 78.5063 50.5207 78.2704 50.6146C78.3117 50.5866 78.3521 50.5486 78.3833 50.5106C78.4246 50.454 78.4448 50.3974 78.4448 50.3314V43.6708C78.4448 43.407 78.2915 43.1712 78.0565 43.0486L72.3392 40.0433L71.6536 39.6857C71.5921 39.6578 71.5306 39.6477 71.4692 39.6578C71.4489 39.6578 71.4388 39.6578 71.4178 39.6764L71.3875 39.6578C71.3875 39.6578 72.4714 39.1683 72.6146 39.1582C72.6761 39.1582 72.7376 39.1675 72.7991 39.1962L79.202 42.5498C79.437 42.6817 79.5903 42.9175 79.5903 43.1712V43.172Z" fill="url(#paint9_linear_1_75)"/>
<path d="M78.444 43.6713V50.3319C78.444 50.3979 78.4238 50.4545 78.3826 50.5111C78.3522 50.5491 78.311 50.5864 78.2697 50.6151C78.2596 50.6151 78.2394 50.6244 78.2284 50.6244H78.2183V50.6337C78.1265 50.6616 78.0238 50.6616 77.9218 50.6151L71.5703 47.2801C71.3353 47.1575 71.1921 46.9225 71.1921 46.6773V39.9415C71.1921 39.8003 71.2941 39.6963 71.417 39.6777C71.4372 39.6591 71.4473 39.6591 71.4684 39.6591C71.5299 39.6498 71.5914 39.6591 71.6529 39.687L72.3385 40.0446L78.0558 43.0499C78.2908 43.1725 78.444 43.4075 78.444 43.6721V43.6713Z" fill="url(#paint10_linear_1_75)"/>
<path d="M72.7175 43.8589L73.9472 46.4189L77.8452 44.7091L77.4376 43.7542L74.4475 45.1529L73.6171 43.3671L72.7175 43.8589Z" fill="#FFFEFE"/>
<path d="M87.575 47.1165L108.86 57.9988" stroke="#F1F1F2" stroke-linecap="round" stroke-linejoin="round"/>
<path d="M83.4597 46.5473L108.86 59.5342" stroke="#F1F1F2" stroke-linecap="round" stroke-linejoin="round"/>
<path d="M83.4597 48.0825L108.86 61.0694" stroke="#F1F1F2" stroke-linecap="round" stroke-linejoin="round"/>
<path d="M83.4597 49.6177L108.86 62.6047" stroke="#F1F1F2" stroke-linecap="round" stroke-linejoin="round"/>
<path d="M83.4597 51.1529L108.86 64.1399" stroke="#F1F1F2" stroke-linecap="round" stroke-linejoin="round"/>
<path d="M83.4597 52.6882L105.857 64.1399" stroke="#F1F1F2" stroke-linecap="round" stroke-linejoin="round"/>
<path d="M79.5903 55.1673V61.8372C79.5903 61.9032 79.5701 61.9598 79.5288 62.0071C79.4471 62.1297 78.5063 62.516 78.2704 62.6099C78.3117 62.582 78.3521 62.5439 78.3833 62.5059C78.4246 62.4493 78.4448 62.3927 78.4448 62.3267V55.6661C78.4448 55.4023 78.2915 55.1665 78.0565 55.0439L72.3392 52.0387L71.6536 51.681C71.5921 51.6531 71.5306 51.643 71.4692 51.6531C71.4489 51.6531 71.4388 51.6531 71.4178 51.6717L71.3875 51.6531C71.3875 51.6531 72.4714 51.1636 72.6146 51.1535C72.6761 51.1535 72.7376 51.1628 72.7991 51.1915L79.202 54.5451C79.437 54.677 79.5903 54.9128 79.5903 55.1665V55.1673Z" fill="url(#paint11_linear_1_75)"/>
<path d="M78.444 55.6666V62.3272C78.444 62.3932 78.4238 62.4498 78.3826 62.5064C78.3522 62.5445 78.311 62.5817 78.2697 62.6104C78.2596 62.6104 78.2394 62.6197 78.2284 62.6197H78.2183V62.629C78.1265 62.6569 78.0238 62.6569 77.9218 62.6104L71.5703 59.2754C71.3353 59.1529 71.1921 58.9178 71.1921 58.6727V51.9368C71.1921 51.7956 71.2941 51.6916 71.417 51.673C71.4372 51.6544 71.4473 51.6544 71.4684 51.6544C71.5299 51.6451 71.5914 51.6544 71.6529 51.6823L72.3385 52.0399L78.0558 55.0452C78.2908 55.1678 78.444 55.4028 78.444 55.6674V55.6666Z" fill="url(#paint12_linear_1_75)"/>
<path d="M72.7175 55.855L73.9472 58.4142L77.8452 56.7044L77.4376 55.7495L74.4475 57.1489L73.6171 55.3624L72.7175 55.855Z" fill="#FFFEFE"/>
<path d="M87.575 59.1096L108.86 69.9927" stroke="#F1F1F2" stroke-linecap="round" stroke-linejoin="round"/>
<path d="M83.4597 58.5422L108.86 71.5291" stroke="#F1F1F2" stroke-linecap="round" stroke-linejoin="round"/>
<path d="M83.4597 60.0774L108.86 73.0643" stroke="#F1F1F2" stroke-linecap="round" stroke-linejoin="round"/>
<path d="M83.4597 61.6126L108.86 74.5988" stroke="#F1F1F2" stroke-linecap="round" stroke-linejoin="round"/>
<path d="M83.4597 63.1479L108.86 76.1348" stroke="#F1F1F2" stroke-linecap="round" stroke-linejoin="round"/>
<path d="M83.4597 64.6831L105.857 76.1348" stroke="#F1F1F2" stroke-linecap="round" stroke-linejoin="round"/>
<path d="M79.5903 67.1626V73.8326C79.5903 73.8985 79.5701 73.9551 79.5288 74.0025C79.4471 74.125 78.5063 74.5113 78.2704 74.6052C78.3117 74.5773 78.3521 74.5393 78.3833 74.5013C78.4246 74.4446 78.4448 74.388 78.4448 74.3221V67.6614C78.4448 67.3977 78.2915 67.1618 78.0565 67.0393L72.3392 64.034L71.6536 63.6764C71.5921 63.6484 71.5306 63.6384 71.4692 63.6484C71.4489 63.6484 71.4388 63.6484 71.4178 63.6671L71.3875 63.6484C71.3875 63.6484 72.4714 63.1589 72.6146 63.1488C72.6761 63.1488 72.7376 63.1582 72.7991 63.1869L79.202 66.5405C79.437 66.6723 79.5903 66.9082 79.5903 67.1618V67.1626Z" fill="url(#paint13_linear_1_75)"/>
<path d="M78.444 67.6619V74.3226C78.444 74.3885 78.4238 74.4451 78.3826 74.5018C78.3522 74.5398 78.311 74.577 78.2697 74.6057C78.2596 74.6057 78.2394 74.615 78.2284 74.615H78.2183V74.6243C78.1265 74.6523 78.0238 74.6523 77.9218 74.6057L71.5703 71.2707C71.3353 71.1482 71.1921 70.9131 71.1921 70.668V63.9321C71.1921 63.7909 71.2941 63.687 71.417 63.6683C71.4372 63.6497 71.4473 63.6497 71.4684 63.6497C71.5299 63.6404 71.5914 63.6497 71.6529 63.6776L72.3385 64.0353L78.0558 67.0405C78.2908 67.1631 78.444 67.3982 78.444 67.6627V67.6619Z" fill="url(#paint14_linear_1_75)"/>
<path d="M72.7175 67.8495L73.9472 70.4088L77.8452 68.699L77.4376 67.744L74.4475 69.1435L73.6171 67.3577L72.7175 67.8495Z" fill="#FFFEFE"/>
<path d="M87.575 71.1063L108.86 81.9886" stroke="#F1F1F2" stroke-linecap="round" stroke-linejoin="round"/>
<path d="M83.4597 70.5371L108.86 83.5241" stroke="#F1F1F2" stroke-linecap="round" stroke-linejoin="round"/>
<path d="M83.4597 72.0723L108.86 85.0593" stroke="#F1F1F2" stroke-linecap="round" stroke-linejoin="round"/>
<path d="M83.4597 73.6076L108.86 86.5945" stroke="#F1F1F2" stroke-linecap="round" stroke-linejoin="round"/>
<path d="M83.4597 75.1428L108.86 88.1297" stroke="#F1F1F2" stroke-linecap="round" stroke-linejoin="round"/>
<path d="M83.4597 76.678L105.857 88.1297" stroke="#F1F1F2" stroke-linecap="round" stroke-linejoin="round"/>
<path d="M79.5903 79.1579V85.8279C79.5903 85.8938 79.5701 85.9505 79.5288 85.9978C79.4471 86.1203 78.5063 86.5067 78.2704 86.6005C78.3117 86.5726 78.3521 86.5346 78.3833 86.4966C78.4246 86.44 78.4448 86.3833 78.4448 86.3174V79.6568C78.4448 79.393 78.2915 79.1572 78.0565 79.0346L72.3392 76.0293L71.6536 75.6717C71.5921 75.6438 71.5306 75.6337 71.4692 75.6438C71.4489 75.6438 71.4388 75.6438 71.4178 75.6624L71.3875 75.6438C71.3875 75.6438 72.4714 75.1543 72.6146 75.1442C72.6761 75.1442 72.7376 75.1535 72.7991 75.1822L79.202 78.5358C79.437 78.6677 79.5903 78.9035 79.5903 79.1572V79.1579Z" fill="url(#paint15_linear_1_75)"/>
<path d="M78.444 79.6573V86.3179C78.444 86.3838 78.4238 86.4405 78.3826 86.4971C78.3522 86.5351 78.311 86.5723 78.2697 86.6011C78.2596 86.6011 78.2394 86.6104 78.2284 86.6104H78.2183V86.6197C78.1265 86.6476 78.0238 86.6476 77.9218 86.6011L71.5703 83.2661C71.3353 83.1435 71.1921 82.9085 71.1921 82.6633V75.9274C71.1921 75.7862 71.2941 75.6823 71.417 75.6637C71.4372 75.645 71.4473 75.645 71.4684 75.645C71.5299 75.6357 71.5914 75.645 71.6529 75.673L72.3385 76.0306L78.0558 79.0359C78.2908 79.1584 78.444 79.3935 78.444 79.658V79.6573Z" fill="url(#paint16_linear_1_75)"/>
<path d="M87.575 83.1012L108.86 93.9843" stroke="#F1F1F2" stroke-linecap="round" stroke-linejoin="round"/>
<path d="M83.4597 82.5321L108.86 95.519" stroke="#F1F1F2" stroke-linecap="round" stroke-linejoin="round"/>
<path d="M83.4597 84.0673L108.86 97.0542" stroke="#F1F1F2" stroke-linecap="round" stroke-linejoin="round"/>
<path d="M83.4597 85.6025L108.86 98.5894" stroke="#F1F1F2" stroke-linecap="round" stroke-linejoin="round"/>
<path d="M83.4597 87.1395L108.86 100.126" stroke="#F1F1F2" stroke-linecap="round" stroke-linejoin="round"/>
<path d="M83.4597 88.6748L105.857 100.126" stroke="#F1F1F2" stroke-linecap="round" stroke-linejoin="round"/>
<path d="M79.5903 91.1493V97.8193C79.5903 97.8852 79.5701 97.9419 79.5288 97.9892C79.4471 98.1118 78.5063 98.4981 78.2704 98.5919C78.3117 98.564 78.3521 98.526 78.3833 98.488C78.4246 98.4314 78.4448 98.3747 78.4448 98.3088V91.6482C78.4448 91.3844 78.2915 91.1486 78.0565 91.026L72.3392 88.0207L71.6536 87.6631C71.5921 87.6352 71.5306 87.6251 71.4692 87.6352C71.4489 87.6352 71.4388 87.6352 71.4178 87.6538L71.3875 87.6352C71.3875 87.6352 72.4714 87.1457 72.6146 87.1356C72.6761 87.1356 72.7376 87.1449 72.7991 87.1736L79.202 90.5272C79.437 90.6591 79.5903 90.8949 79.5903 91.1486V91.1493Z" fill="url(#paint17_linear_1_75)"/>
<path d="M78.444 91.6487V98.3093C78.444 98.3752 78.4238 98.4319 78.3826 98.4885C78.3522 98.5265 78.311 98.5637 78.2697 98.5924C78.2596 98.5924 78.2394 98.6018 78.2284 98.6018H78.2183V98.6111C78.1265 98.639 78.0238 98.639 77.9218 98.5924L71.5703 95.2575C71.3353 95.1349 71.1921 94.8998 71.1921 94.6547V87.9188C71.1921 87.7776 71.2941 87.6737 71.417 87.6551C71.4372 87.6365 71.4473 87.6364 71.4684 87.6364C71.5299 87.6271 71.5914 87.6365 71.6529 87.6644L72.3385 88.022L78.0558 91.0273C78.2908 91.1498 78.444 91.3849 78.444 91.6494V91.6487Z" fill="url(#paint18_linear_1_75)"/>
<path d="M87.575 95.0942L108.86 105.977" stroke="#F1F1F2" stroke-linecap="round" stroke-linejoin="round"/>
<path d="M83.4597 94.525L108.86 107.512" stroke="#F1F1F2" stroke-linecap="round" stroke-linejoin="round"/>
<path d="M83.4597 96.0602L108.86 109.047" stroke="#F1F1F2" stroke-linecap="round" stroke-linejoin="round"/>
<path d="M83.4597 97.5955L108.86 110.582" stroke="#F1F1F2" stroke-linecap="round" stroke-linejoin="round"/>
<path d="M83.4597 99.1307L108.86 112.118" stroke="#F1F1F2" stroke-linecap="round" stroke-linejoin="round"/>
<path d="M83.4597 100.666L105.857 112.118" stroke="#F1F1F2" stroke-linecap="round" stroke-linejoin="round"/>
<defs>
<filter id="filter0_ddd_1_75" x="17.9491" y="59.2004" width="153.706" height="109.238" filterUnits="userSpaceOnUse" color-interpolation-filters="sRGB">
<feFlood flood-opacity="0" result="BackgroundImageFix"/>
<feColorMatrix in="SourceAlpha" type="matrix" values="0 0 0 0 0 0 0 0 0 0 0 0 0 0 0 0 0 0 127 0" result="hardAlpha"/>
<feOffset dy="0.684615"/>
<feGaussianBlur stdDeviation="6.16154"/>
<feComposite in2="hardAlpha" operator="out"/>
<feColorMatrix type="matrix" values="0 0 0 0 0 0 0 0 0 0 0 0 0 0 0 0 0 0 0.12 0"/>
<feBlend mode="normal" in2="BackgroundImageFix" result="effect1_dropShadow_1_75"/>
<feColorMatrix in="SourceAlpha" type="matrix" values="0 0 0 0 0 0 0 0 0 0 0 0 0 0 0 0 0 0 127 0" result="hardAlpha"/>
<feOffset dy="4.10769"/>
<feGaussianBlur stdDeviation="3.42308"/>
<feComposite in2="hardAlpha" operator="out"/>
<feColorMatrix type="matrix" values="0 0 0 0 0 0 0 0 0 0 0 0 0 0 0 0 0 0 0.14 0"/>
<feBlend mode="normal" in2="effect1_dropShadow_1_75" result="effect2_dropShadow_1_75"/>
<feColorMatrix in="SourceAlpha" type="matrix" values="0 0 0 0 0 0 0 0 0 0 0 0 0 0 0 0 0 0 127 0" result="hardAlpha"/>
<feMorphology radius="0.684615" operator="erode" in="SourceAlpha" result="effect3_dropShadow_1_75"/>
<feOffset dy="2.05385"/>
<feGaussianBlur stdDeviation="1.71154"/>
<feComposite in2="hardAlpha" operator="out"/>
<feColorMatrix type="matrix" values="0 0 0 0 0 0 0 0 0 0 0 0 0 0 0 0 0 0 0.2 0"/>
<feBlend mode="normal" in2="effect2_dropShadow_1_75" result="effect3_dropShadow_1_75"/>
<feBlend mode="normal" in="SourceGraphic" in2="effect3_dropShadow_1_75" result="shape"/>
</filter>
<linearGradient id="paint0_linear_1_75" x1="131.755" y1="50.0422" x2="66.8069" y2="92.4251" gradientUnits="userSpaceOnUse">
<stop stop-color="#78C1F4"/>
<stop offset="1" stop-color="#4CA5ED"/>
</linearGradient>
<linearGradient id="paint1_linear_1_75" x1="125.378" y1="81.2952" x2="127.248" y2="81.2952" gradientUnits="userSpaceOnUse">
<stop stop-color="#78C1F4"/>
<stop offset="1" stop-color="#4CA5ED"/>
</linearGradient>
<linearGradient id="paint2_linear_1_75" x1="127.701" y1="30.9982" x2="107.98" y2="31.0658" gradientUnits="userSpaceOnUse">
<stop stop-color="#3B3E5E"/>
<stop offset="1" stop-color="#626282"/>
</linearGradient>
<linearGradient id="paint3_linear_1_75" x1="125.795" y1="53.4215" x2="60.846" y2="95.8044" gradientUnits="userSpaceOnUse">
<stop stop-color="#78C1F4"/>
<stop offset="1" stop-color="#4CA5ED"/>
</linearGradient>
<linearGradient id="paint4_linear_1_75" x1="119.415" y1="84.6763" x2="121.285" y2="84.6763" gradientUnits="userSpaceOnUse">
<stop stop-color="#78C1F4"/>
<stop offset="1" stop-color="#4CA5ED"/>
</linearGradient>
<linearGradient id="paint5_linear_1_75" x1="121.74" y1="34.3775" x2="102.019" y2="34.4451" gradientUnits="userSpaceOnUse">
<stop stop-color="#3B3E5E"/>
<stop offset="1" stop-color="#626282"/>
</linearGradient>
<linearGradient id="paint6_linear_1_75" x1="119.836" y1="56.804" x2="54.8861" y2="99.1862" gradientUnits="userSpaceOnUse">
<stop stop-color="#78C1F4"/>
<stop offset="1" stop-color="#4CA5ED"/>
</linearGradient>
<linearGradient id="paint7_linear_1_75" x1="113.456" y1="88.0562" x2="115.326" y2="88.0562" gradientUnits="userSpaceOnUse">
<stop stop-color="#78C1F4"/>
<stop offset="1" stop-color="#4CA5ED"/>
</linearGradient>
<linearGradient id="paint8_linear_1_75" x1="115.781" y1="37.7592" x2="96.0601" y2="37.8269" gradientUnits="userSpaceOnUse">
<stop stop-color="#3B3E5E"/>
<stop offset="1" stop-color="#626282"/>
</linearGradient>
<linearGradient id="paint9_linear_1_75" x1="71.3866" y1="44.8864" x2="79.5903" y2="44.8864" gradientUnits="userSpaceOnUse">
<stop stop-color="#FBD008"/>
<stop offset="1" stop-color="#F88019"/>
</linearGradient>
<linearGradient id="paint10_linear_1_75" x1="71.193" y1="45.153" x2="78.444" y2="45.153" gradientUnits="userSpaceOnUse">
<stop stop-color="#FBD008"/>
<stop offset="1" stop-color="#FFDF78"/>
</linearGradient>
<linearGradient id="paint11_linear_1_75" x1="14.5632" y1="56.8817" x2="14.6474" y2="56.8817" gradientUnits="userSpaceOnUse">
<stop stop-color="#FBD008"/>
<stop offset="1" stop-color="#F88019"/>
</linearGradient>
<linearGradient id="paint12_linear_1_75" x1="14.5633" y1="57.1491" x2="14.6475" y2="57.1491" gradientUnits="userSpaceOnUse">
<stop stop-color="#FBD008"/>
<stop offset="1" stop-color="#FFDF78"/>
</linearGradient>
<linearGradient id="paint13_linear_1_75" x1="14.5632" y1="68.877" x2="14.6474" y2="68.877" gradientUnits="userSpaceOnUse">
<stop stop-color="#FBD008"/>
<stop offset="1" stop-color="#F88019"/>
</linearGradient>
<linearGradient id="paint14_linear_1_75" x1="14.5633" y1="69.1436" x2="14.6475" y2="69.1436" gradientUnits="userSpaceOnUse">
<stop stop-color="#FBD008"/>
<stop offset="1" stop-color="#FFDF78"/>
</linearGradient>
<linearGradient id="paint15_linear_1_75" x1="14.5632" y1="80.8731" x2="14.6474" y2="80.8731" gradientUnits="userSpaceOnUse">
<stop stop-color="#FBD008"/>
<stop offset="1" stop-color="#F88019"/>
</linearGradient>
<linearGradient id="paint16_linear_1_75" x1="14.5633" y1="81.1397" x2="14.6475" y2="81.1397" gradientUnits="userSpaceOnUse">
<stop stop-color="#FBD008"/>
<stop offset="1" stop-color="#FFDF78"/>
</linearGradient>
<linearGradient id="paint17_linear_1_75" x1="14.5632" y1="92.8638" x2="14.6474" y2="92.8638" gradientUnits="userSpaceOnUse">
<stop stop-color="#FBD008"/>
<stop offset="1" stop-color="#F88019"/>
</linearGradient>
<linearGradient id="paint18_linear_1_75" x1="14.5633" y1="93.1311" x2="14.6475" y2="93.1311" gradientUnits="userSpaceOnUse">
<stop stop-color="#FBD008"/>
<stop offset="1" stop-color="#FFDF78"/>
</linearGradient>
</defs>
</svg>
