<svg width="1826" height="390" viewBox="0 0 1826 390" fill="none" xmlns="http://www.w3.org/2000/svg">
<rect width="1826" height="390" rx="16" fill="#EDF1F5"/>
<rect x="17" y="17" width="585.333" height="356" rx="7" fill="white"/>
<rect x="17" y="17" width="585.333" height="356" rx="7" stroke="#3560C1" stroke-width="2"/>
<rect width="195" height="156.055" transform="translate(203.167 40)" fill="#F04F4F"/>
<path d="M252.549 232.119C253.425 232.119 254.175 232.299 254.799 232.659C255.435 233.007 255.927 233.511 256.275 234.171C256.623 234.819 256.797 235.611 256.797 236.547V237.699H250.353C250.377 238.587 250.623 239.277 251.091 239.769C251.559 240.249 252.207 240.489 253.035 240.489C253.671 240.489 254.235 240.429 254.727 240.309C255.231 240.177 255.747 239.991 256.275 239.751V241.569C255.795 241.797 255.297 241.965 254.781 242.073C254.265 242.181 253.647 242.235 252.927 242.235C251.979 242.235 251.133 242.055 250.389 241.695C249.657 241.323 249.081 240.765 248.661 240.021C248.253 239.277 248.049 238.353 248.049 237.249C248.049 236.133 248.235 235.197 248.607 234.441C248.991 233.673 249.519 233.097 250.191 232.713C250.863 232.317 251.649 232.119 252.549 232.119ZM252.549 233.793C251.949 233.793 251.457 233.991 251.073 234.387C250.701 234.771 250.479 235.347 250.407 236.115H254.601C254.601 235.659 254.523 235.257 254.367 234.909C254.223 234.561 254.001 234.291 253.701 234.099C253.401 233.895 253.017 233.793 252.549 233.793ZM263.134 229.203C264.802 229.203 266.014 229.551 266.77 230.247C267.538 230.943 267.922 231.903 267.922 233.127C267.922 233.679 267.838 234.207 267.67 234.711C267.502 235.203 267.22 235.647 266.824 236.043C266.428 236.439 265.906 236.751 265.258 236.979C264.622 237.207 263.83 237.321 262.882 237.321H261.604V242.055H259.3V229.203H263.134ZM262.99 231.111H261.604V235.413H262.648C263.272 235.413 263.8 235.341 264.232 235.197C264.676 235.041 265.012 234.801 265.24 234.477C265.468 234.153 265.582 233.733 265.582 233.217C265.582 232.509 265.372 231.981 264.952 231.633C264.532 231.285 263.878 231.111 262.99 231.111ZM272.496 242.055H270.228V228.375H272.496V242.055ZM279.284 232.119C280.544 232.119 281.498 232.395 282.146 232.947C282.806 233.487 283.136 234.339 283.136 235.503V242.055H281.534L281.084 240.705H281.012C280.736 241.053 280.448 241.347 280.148 241.587C279.86 241.815 279.524 241.977 279.14 242.073C278.768 242.181 278.312 242.235 277.772 242.235C277.196 242.235 276.674 242.127 276.206 241.911C275.75 241.695 275.39 241.365 275.126 240.921C274.862 240.465 274.73 239.895 274.73 239.211C274.73 238.203 275.096 237.447 275.828 236.943C276.572 236.427 277.694 236.145 279.194 236.097L280.886 236.043V235.557C280.886 234.933 280.736 234.489 280.436 234.225C280.136 233.961 279.716 233.829 279.176 233.829C278.684 233.829 278.21 233.901 277.754 234.045C277.298 234.189 276.854 234.357 276.422 234.549L275.702 232.965C276.182 232.713 276.728 232.509 277.34 232.353C277.964 232.197 278.612 232.119 279.284 232.119ZM279.698 237.483C278.702 237.519 278.012 237.693 277.628 238.005C277.244 238.305 277.052 238.713 277.052 239.229C277.052 239.685 277.19 240.015 277.466 240.219C277.742 240.423 278.096 240.525 278.528 240.525C279.188 240.525 279.746 240.339 280.202 239.967C280.658 239.583 280.886 239.019 280.886 238.275V237.447L279.698 237.483ZM291.198 232.119C292.29 232.119 293.142 232.401 293.754 232.965C294.378 233.529 294.69 234.441 294.69 235.701V242.055H292.422V236.151C292.422 235.419 292.278 234.873 291.99 234.513C291.702 234.141 291.246 233.955 290.622 233.955C289.71 233.955 289.086 234.243 288.75 234.819C288.414 235.383 288.246 236.205 288.246 237.285V242.055H285.978V232.299H287.724L288.048 233.577H288.174C288.39 233.241 288.654 232.965 288.966 232.749C289.278 232.533 289.626 232.377 290.01 232.281C290.394 232.173 290.79 232.119 291.198 232.119ZM309.727 242.055H302.419V229.203H309.727V231.129H304.723V234.405H309.403V236.331H304.723V240.111H309.727V242.055ZM315.462 242.235C314.334 242.235 313.416 241.815 312.708 240.975C312.012 240.123 311.664 238.863 311.664 237.195C311.664 235.527 312.018 234.267 312.726 233.415C313.434 232.551 314.364 232.119 315.516 232.119C315.996 232.119 316.416 232.185 316.776 232.317C317.148 232.437 317.466 232.605 317.73 232.821C317.994 233.037 318.216 233.277 318.396 233.541H318.504C318.468 233.373 318.432 233.115 318.396 232.767C318.36 232.419 318.342 232.095 318.342 231.795V228.375H320.61V242.055H318.846L318.432 240.777H318.342C318.162 241.041 317.94 241.287 317.676 241.515C317.412 241.731 317.1 241.905 316.74 242.037C316.38 242.169 315.954 242.235 315.462 242.235ZM316.146 240.399C316.986 240.399 317.58 240.159 317.928 239.679C318.276 239.199 318.45 238.473 318.45 237.501V237.213C318.45 236.157 318.282 235.353 317.946 234.801C317.622 234.249 317.01 233.973 316.11 233.973C315.426 233.973 314.898 234.261 314.526 234.837C314.154 235.401 313.968 236.199 313.968 237.231C313.968 238.263 314.154 239.049 314.526 239.589C314.898 240.129 315.438 240.399 316.146 240.399ZM325.775 232.299V242.055H323.507V232.299H325.775ZM324.641 228.537C324.977 228.537 325.271 228.627 325.523 228.807C325.775 228.975 325.901 229.281 325.901 229.725C325.901 230.157 325.775 230.469 325.523 230.661C325.271 230.841 324.977 230.931 324.641 230.931C324.293 230.931 323.993 230.841 323.741 230.661C323.501 230.469 323.381 230.157 323.381 229.725C323.381 229.281 323.501 228.975 323.741 228.807C323.993 228.627 324.293 228.537 324.641 228.537ZM332.455 240.417C332.743 240.417 333.019 240.393 333.283 240.345C333.547 240.285 333.793 240.219 334.021 240.147V241.839C333.781 241.947 333.469 242.037 333.085 242.109C332.701 242.193 332.299 242.235 331.879 242.235C331.327 242.235 330.823 242.145 330.367 241.965C329.923 241.773 329.563 241.449 329.287 240.993C329.023 240.537 328.891 239.901 328.891 239.085V234.009H327.577V233.019L329.017 232.227L329.737 230.157H331.159V232.299H333.931V234.009H331.159V239.067C331.159 239.523 331.279 239.865 331.519 240.093C331.759 240.309 332.071 240.417 332.455 240.417ZM344.7 237.159C344.7 237.975 344.592 238.695 344.376 239.319C344.16 239.943 343.848 240.477 343.44 240.921C343.044 241.353 342.552 241.683 341.964 241.911C341.388 242.127 340.746 242.235 340.038 242.235C339.366 242.235 338.748 242.127 338.184 241.911C337.62 241.683 337.128 241.353 336.708 240.921C336.3 240.477 335.982 239.943 335.754 239.319C335.526 238.695 335.412 237.975 335.412 237.159C335.412 236.079 335.598 235.167 335.97 234.423C336.342 233.667 336.876 233.097 337.572 232.713C338.28 232.317 339.114 232.119 340.074 232.119C340.986 232.119 341.784 232.317 342.468 232.713C343.164 233.097 343.71 233.667 344.106 234.423C344.502 235.167 344.7 236.079 344.7 237.159ZM337.734 237.159C337.734 237.843 337.812 238.431 337.968 238.923C338.136 239.403 338.388 239.769 338.724 240.021C339.072 240.273 339.516 240.399 340.056 240.399C340.608 240.399 341.052 240.273 341.388 240.021C341.736 239.769 341.988 239.403 342.144 238.923C342.3 238.431 342.378 237.843 342.378 237.159C342.378 236.463 342.294 235.881 342.126 235.413C341.97 234.933 341.718 234.573 341.37 234.333C341.034 234.081 340.596 233.955 340.056 233.955C339.24 233.955 338.646 234.231 338.274 234.783C337.914 235.335 337.734 236.127 337.734 237.159ZM352.157 232.119C352.301 232.119 352.469 232.125 352.661 232.137C352.853 232.149 353.015 232.173 353.147 232.209L352.949 234.315C352.841 234.291 352.697 234.273 352.517 234.261C352.349 234.237 352.199 234.225 352.067 234.225C351.707 234.225 351.359 234.285 351.023 234.405C350.699 234.513 350.405 234.681 350.141 234.909C349.889 235.125 349.685 235.407 349.529 235.755C349.385 236.103 349.313 236.517 349.313 236.997V242.055H347.045V232.299H348.791L349.115 233.991H349.223C349.415 233.643 349.655 233.331 349.943 233.055C350.231 232.767 350.561 232.539 350.933 232.371C351.317 232.203 351.725 232.119 352.157 232.119Z" fill="#525252"/>
<path d="M232.036 278.055H230.804V267.415H232.036V278.055ZM240.937 274.289C240.937 274.915 240.853 275.47 240.685 275.955C240.527 276.431 240.293 276.837 239.985 277.173C239.687 277.509 239.318 277.766 238.879 277.943C238.45 278.111 237.969 278.195 237.437 278.195C236.943 278.195 236.485 278.111 236.065 277.943C235.645 277.766 235.281 277.509 234.973 277.173C234.665 276.837 234.423 276.431 234.245 275.955C234.077 275.47 233.993 274.915 233.993 274.289C233.993 273.459 234.133 272.759 234.413 272.189C234.693 271.611 235.095 271.172 235.617 270.873C236.14 270.565 236.761 270.411 237.479 270.411C238.161 270.411 238.758 270.565 239.271 270.873C239.794 271.172 240.2 271.611 240.489 272.189C240.788 272.759 240.937 273.459 240.937 274.289ZM235.267 274.289C235.267 274.877 235.342 275.391 235.491 275.829C235.65 276.259 235.893 276.59 236.219 276.823C236.546 277.057 236.961 277.173 237.465 277.173C237.969 277.173 238.385 277.057 238.711 276.823C239.038 276.59 239.276 276.259 239.425 275.829C239.584 275.391 239.663 274.877 239.663 274.289C239.663 273.692 239.584 273.183 239.425 272.763C239.267 272.343 239.024 272.021 238.697 271.797C238.38 271.564 237.965 271.447 237.451 271.447C236.686 271.447 236.131 271.699 235.785 272.203C235.44 272.707 235.267 273.403 235.267 274.289ZM246.39 270.411C246.53 270.411 246.679 270.421 246.838 270.439C247.006 270.449 247.151 270.467 247.272 270.495L247.118 271.629C246.997 271.601 246.861 271.578 246.712 271.559C246.572 271.541 246.437 271.531 246.306 271.531C246.017 271.531 245.741 271.592 245.48 271.713C245.219 271.835 244.985 272.007 244.78 272.231C244.575 272.446 244.411 272.707 244.29 273.015C244.178 273.323 244.122 273.669 244.122 274.051V278.055H242.89V270.551H243.898L244.038 271.923H244.094C244.253 271.643 244.444 271.391 244.668 271.167C244.892 270.934 245.149 270.752 245.438 270.621C245.727 270.481 246.045 270.411 246.39 270.411ZM251.298 270.411C251.942 270.411 252.492 270.551 252.95 270.831C253.416 271.111 253.771 271.508 254.014 272.021C254.266 272.525 254.392 273.118 254.392 273.799V274.541H249.254C249.272 275.391 249.487 276.039 249.898 276.487C250.318 276.926 250.901 277.145 251.648 277.145C252.124 277.145 252.544 277.103 252.908 277.019C253.281 276.926 253.664 276.795 254.056 276.627V277.705C253.673 277.873 253.295 277.995 252.922 278.069C252.548 278.153 252.105 278.195 251.592 278.195C250.882 278.195 250.252 278.051 249.702 277.761C249.16 277.472 248.736 277.043 248.428 276.473C248.129 275.895 247.98 275.19 247.98 274.359C247.98 273.538 248.115 272.833 248.386 272.245C248.666 271.657 249.053 271.205 249.548 270.887C250.052 270.57 250.635 270.411 251.298 270.411ZM251.284 271.419C250.696 271.419 250.229 271.611 249.884 271.993C249.548 272.367 249.347 272.889 249.282 273.561H253.104C253.104 273.132 253.038 272.759 252.908 272.441C252.777 272.124 252.576 271.877 252.306 271.699C252.044 271.513 251.704 271.419 251.284 271.419ZM264.534 270.411C265.383 270.411 266.018 270.631 266.438 271.069C266.858 271.499 267.068 272.199 267.068 273.169V278.055H265.85V273.225C265.85 272.637 265.724 272.194 265.472 271.895C265.229 271.597 264.847 271.447 264.324 271.447C263.596 271.447 263.073 271.657 262.756 272.077C262.448 272.497 262.294 273.109 262.294 273.911V278.055H261.076V273.225C261.076 272.833 261.02 272.507 260.908 272.245C260.796 271.975 260.628 271.774 260.404 271.643C260.18 271.513 259.891 271.447 259.536 271.447C259.032 271.447 258.635 271.555 258.346 271.769C258.057 271.975 257.847 272.278 257.716 272.679C257.595 273.081 257.534 273.575 257.534 274.163V278.055H256.302V270.551H257.296L257.478 271.573H257.548C257.707 271.312 257.898 271.097 258.122 270.929C258.355 270.752 258.612 270.621 258.892 270.537C259.172 270.453 259.461 270.411 259.76 270.411C260.339 270.411 260.819 270.514 261.202 270.719C261.594 270.925 261.879 271.242 262.056 271.671H262.126C262.378 271.242 262.719 270.925 263.148 270.719C263.587 270.514 264.049 270.411 264.534 270.411ZM274.255 270.551V278.055H273.023V270.551H274.255ZM273.653 267.737C273.839 267.737 274.003 267.803 274.143 267.933C274.292 268.055 274.367 268.251 274.367 268.521C274.367 268.783 274.292 268.979 274.143 269.109C274.003 269.24 273.839 269.305 273.653 269.305C273.447 269.305 273.275 269.24 273.135 269.109C272.995 268.979 272.925 268.783 272.925 268.521C272.925 268.251 272.995 268.055 273.135 267.933C273.275 267.803 273.447 267.737 273.653 267.737ZM280.202 270.411C281.126 270.411 281.868 270.733 282.428 271.377C282.997 272.021 283.282 272.992 283.282 274.289C283.282 275.139 283.151 275.857 282.89 276.445C282.638 277.024 282.279 277.463 281.812 277.761C281.355 278.051 280.813 278.195 280.188 278.195C279.805 278.195 279.465 278.144 279.166 278.041C278.867 277.939 278.611 277.808 278.396 277.649C278.191 277.481 278.013 277.299 277.864 277.103H277.78C277.799 277.262 277.817 277.463 277.836 277.705C277.855 277.948 277.864 278.158 277.864 278.335V281.415H276.632V270.551H277.64L277.808 271.573H277.864C278.013 271.359 278.191 271.163 278.396 270.985C278.611 270.808 278.863 270.668 279.152 270.565C279.451 270.463 279.801 270.411 280.202 270.411ZM279.978 271.447C279.474 271.447 279.068 271.545 278.76 271.741C278.452 271.928 278.228 272.213 278.088 272.595C277.948 272.978 277.873 273.463 277.864 274.051V274.289C277.864 274.905 277.929 275.428 278.06 275.857C278.191 276.287 278.41 276.613 278.718 276.837C279.035 277.061 279.465 277.173 280.006 277.173C280.463 277.173 280.837 277.047 281.126 276.795C281.425 276.543 281.644 276.203 281.784 275.773C281.933 275.335 282.008 274.835 282.008 274.275C282.008 273.417 281.84 272.731 281.504 272.217C281.177 271.704 280.669 271.447 279.978 271.447ZM290.131 275.983C290.131 276.469 290.01 276.875 289.767 277.201C289.525 277.528 289.179 277.775 288.731 277.943C288.283 278.111 287.751 278.195 287.135 278.195C286.613 278.195 286.16 278.153 285.777 278.069C285.404 277.985 285.073 277.869 284.783 277.719V276.599C285.082 276.749 285.441 276.889 285.861 277.019C286.291 277.141 286.725 277.201 287.163 277.201C287.789 277.201 288.241 277.103 288.521 276.907C288.801 276.702 288.941 276.431 288.941 276.095C288.941 275.909 288.89 275.741 288.787 275.591C288.685 275.442 288.498 275.293 288.227 275.143C287.966 274.994 287.588 274.826 287.093 274.639C286.608 274.453 286.193 274.266 285.847 274.079C285.502 273.893 285.236 273.669 285.049 273.407C284.863 273.146 284.769 272.81 284.769 272.399C284.769 271.765 285.026 271.275 285.539 270.929C286.062 270.584 286.743 270.411 287.583 270.411C288.041 270.411 288.465 270.458 288.857 270.551C289.259 270.635 289.632 270.757 289.977 270.915L289.557 271.895C289.24 271.765 288.909 271.653 288.563 271.559C288.218 271.466 287.863 271.419 287.499 271.419C286.995 271.419 286.608 271.503 286.337 271.671C286.076 271.83 285.945 272.049 285.945 272.329C285.945 272.535 286.006 272.712 286.127 272.861C286.249 273.001 286.449 273.141 286.729 273.281C287.019 273.412 287.401 273.571 287.877 273.757C288.353 273.935 288.759 274.117 289.095 274.303C289.431 274.49 289.688 274.719 289.865 274.989C290.043 275.251 290.131 275.582 290.131 275.983ZM298.217 270.551V278.055H297.209L297.027 277.061H296.971C296.812 277.323 296.607 277.537 296.355 277.705C296.103 277.873 295.827 277.995 295.529 278.069C295.23 278.153 294.917 278.195 294.591 278.195C293.993 278.195 293.489 278.102 293.079 277.915C292.677 277.719 292.374 277.421 292.169 277.019C291.963 276.618 291.861 276.1 291.861 275.465V270.551H293.107V275.381C293.107 275.979 293.242 276.427 293.513 276.725C293.783 277.024 294.203 277.173 294.773 277.173C295.333 277.173 295.771 277.071 296.089 276.865C296.415 276.651 296.644 276.343 296.775 275.941C296.915 275.531 296.985 275.036 296.985 274.457V270.551H298.217ZM308.831 270.411C309.68 270.411 310.315 270.631 310.735 271.069C311.155 271.499 311.365 272.199 311.365 273.169V278.055H310.147V273.225C310.147 272.637 310.021 272.194 309.769 271.895C309.526 271.597 309.144 271.447 308.621 271.447C307.893 271.447 307.37 271.657 307.053 272.077C306.745 272.497 306.591 273.109 306.591 273.911V278.055H305.373V273.225C305.373 272.833 305.317 272.507 305.205 272.245C305.093 271.975 304.925 271.774 304.701 271.643C304.477 271.513 304.188 271.447 303.833 271.447C303.329 271.447 302.932 271.555 302.643 271.769C302.354 271.975 302.144 272.278 302.013 272.679C301.892 273.081 301.831 273.575 301.831 274.163V278.055H300.599V270.551H301.593L301.775 271.573H301.845C302.004 271.312 302.195 271.097 302.419 270.929C302.652 270.752 302.909 270.621 303.189 270.537C303.469 270.453 303.758 270.411 304.057 270.411C304.636 270.411 305.116 270.514 305.499 270.719C305.891 270.925 306.176 271.242 306.353 271.671H306.423C306.675 271.242 307.016 270.925 307.445 270.719C307.884 270.514 308.346 270.411 308.831 270.411ZM320.33 278.195C319.667 278.195 319.074 278.06 318.552 277.789C318.038 277.519 317.632 277.099 317.334 276.529C317.044 275.96 316.9 275.232 316.9 274.345C316.9 273.421 317.054 272.67 317.362 272.091C317.67 271.513 318.085 271.088 318.608 270.817C319.14 270.547 319.742 270.411 320.414 270.411C320.796 270.411 321.165 270.453 321.52 270.537C321.874 270.612 322.164 270.705 322.388 270.817L322.01 271.839C321.786 271.755 321.524 271.676 321.226 271.601C320.927 271.527 320.647 271.489 320.386 271.489C319.882 271.489 319.466 271.597 319.14 271.811C318.813 272.026 318.57 272.343 318.412 272.763C318.253 273.183 318.174 273.706 318.174 274.331C318.174 274.929 318.253 275.437 318.412 275.857C318.57 276.277 318.808 276.595 319.126 276.809C319.443 277.024 319.84 277.131 320.316 277.131C320.726 277.131 321.086 277.089 321.394 277.005C321.711 276.921 322 276.819 322.262 276.697V277.789C322.01 277.92 321.73 278.018 321.422 278.083C321.123 278.158 320.759 278.195 320.33 278.195ZM330.57 274.289C330.57 274.915 330.486 275.47 330.318 275.955C330.159 276.431 329.926 276.837 329.618 277.173C329.319 277.509 328.951 277.766 328.512 277.943C328.083 278.111 327.602 278.195 327.07 278.195C326.575 278.195 326.118 278.111 325.698 277.943C325.278 277.766 324.914 277.509 324.606 277.173C324.298 276.837 324.055 276.431 323.878 275.955C323.71 275.47 323.626 274.915 323.626 274.289C323.626 273.459 323.766 272.759 324.046 272.189C324.326 271.611 324.727 271.172 325.25 270.873C325.773 270.565 326.393 270.411 327.112 270.411C327.793 270.411 328.391 270.565 328.904 270.873C329.427 271.172 329.833 271.611 330.122 272.189C330.421 272.759 330.57 273.459 330.57 274.289ZM324.9 274.289C324.9 274.877 324.975 275.391 325.124 275.829C325.283 276.259 325.525 276.59 325.852 276.823C326.179 277.057 326.594 277.173 327.098 277.173C327.602 277.173 328.017 277.057 328.344 276.823C328.671 276.59 328.909 276.259 329.058 275.829C329.217 275.391 329.296 274.877 329.296 274.289C329.296 273.692 329.217 273.183 329.058 272.763C328.899 272.343 328.657 272.021 328.33 271.797C328.013 271.564 327.597 271.447 327.084 271.447C326.319 271.447 325.763 271.699 325.418 272.203C325.073 272.707 324.9 273.403 324.9 274.289ZM335.029 277.187C335.215 277.187 335.407 277.173 335.603 277.145C335.799 277.108 335.957 277.071 336.079 277.033V277.971C335.948 278.037 335.761 278.088 335.519 278.125C335.276 278.172 335.043 278.195 334.819 278.195C334.427 278.195 334.063 278.13 333.727 277.999C333.4 277.859 333.134 277.621 332.929 277.285C332.723 276.949 332.621 276.478 332.621 275.871V271.503H331.557V270.915L332.635 270.425L333.125 268.829H333.853V270.551H336.023V271.503H333.853V275.843C333.853 276.301 333.96 276.641 334.175 276.865C334.399 277.08 334.683 277.187 335.029 277.187ZM341.193 270.411C342.089 270.411 342.766 270.631 343.223 271.069C343.681 271.499 343.909 272.199 343.909 273.169V278.055H342.691V273.253C342.691 272.647 342.556 272.194 342.285 271.895C342.015 271.597 341.59 271.447 341.011 271.447C340.181 271.447 339.607 271.681 339.289 272.147C338.972 272.614 338.813 273.286 338.813 274.163V278.055H337.581V270.551H338.575L338.757 271.573H338.827C338.995 271.312 339.201 271.097 339.443 270.929C339.695 270.752 339.971 270.621 340.269 270.537C340.568 270.453 340.876 270.411 341.193 270.411ZM348.742 277.187C348.928 277.187 349.12 277.173 349.316 277.145C349.512 277.108 349.67 277.071 349.792 277.033V277.971C349.661 278.037 349.474 278.088 349.232 278.125C348.989 278.172 348.756 278.195 348.532 278.195C348.14 278.195 347.776 278.13 347.44 277.999C347.113 277.859 346.847 277.621 346.642 277.285C346.436 276.949 346.334 276.478 346.334 275.871V271.503H345.27V270.915L346.348 270.425L346.838 268.829H347.566V270.551H349.736V271.503H347.566V275.843C347.566 276.301 347.673 276.641 347.888 276.865C348.112 277.08 348.396 277.187 348.742 277.187ZM354.192 270.411C354.836 270.411 355.387 270.551 355.844 270.831C356.311 271.111 356.665 271.508 356.908 272.021C357.16 272.525 357.286 273.118 357.286 273.799V274.541H352.148C352.167 275.391 352.381 276.039 352.792 276.487C353.212 276.926 353.795 277.145 354.542 277.145C355.018 277.145 355.438 277.103 355.802 277.019C356.175 276.926 356.558 276.795 356.95 276.627V277.705C356.567 277.873 356.189 277.995 355.816 278.069C355.443 278.153 354.999 278.195 354.486 278.195C353.777 278.195 353.147 278.051 352.596 277.761C352.055 277.472 351.63 277.043 351.322 276.473C351.023 275.895 350.874 275.19 350.874 274.359C350.874 273.538 351.009 272.833 351.28 272.245C351.56 271.657 351.947 271.205 352.442 270.887C352.946 270.57 353.529 270.411 354.192 270.411ZM354.178 271.419C353.59 271.419 353.123 271.611 352.778 271.993C352.442 272.367 352.241 272.889 352.176 273.561H355.998C355.998 273.132 355.933 272.759 355.802 272.441C355.671 272.124 355.471 271.877 355.2 271.699C354.939 271.513 354.598 271.419 354.178 271.419ZM362.809 270.411C363.705 270.411 364.381 270.631 364.839 271.069C365.296 271.499 365.525 272.199 365.525 273.169V278.055H364.307V273.253C364.307 272.647 364.171 272.194 363.901 271.895C363.63 271.597 363.205 271.447 362.627 271.447C361.796 271.447 361.222 271.681 360.905 272.147C360.587 272.614 360.429 273.286 360.429 274.163V278.055H359.197V270.551H360.191L360.373 271.573H360.443C360.611 271.312 360.816 271.097 361.059 270.929C361.311 270.752 361.586 270.621 361.885 270.537C362.183 270.453 362.491 270.411 362.809 270.411ZM370.357 277.187C370.543 277.187 370.735 277.173 370.931 277.145C371.127 277.108 371.285 277.071 371.407 277.033V277.971C371.276 278.037 371.089 278.088 370.847 278.125C370.604 278.172 370.371 278.195 370.147 278.195C369.755 278.195 369.391 278.13 369.055 277.999C368.728 277.859 368.462 277.621 368.257 277.285C368.051 276.949 367.949 276.478 367.949 275.871V271.503H366.885V270.915L367.963 270.425L368.453 268.829H369.181V270.551H371.351V271.503H369.181V275.843C369.181 276.301 369.288 276.641 369.503 276.865C369.727 277.08 370.011 277.187 370.357 277.187Z" fill="#525252"/>
<path d="M563.5 59.5L562.443 58.4425L568.128 52.75H553V51.25H568.128L562.443 45.5575L563.5 44.5L571 52L563.5 59.5Z" fill="#525965"/>
<rect x="619.333" y="16" width="587.333" height="358" rx="8" fill="white"/>
<rect width="195" height="156.055" transform="translate(806.5 40)" fill="#F04F4F"/>
<path d="M858.144 238.545C858.144 239.301 857.958 239.955 857.586 240.507C857.214 241.059 856.674 241.485 855.966 241.785C855.27 242.085 854.436 242.235 853.464 242.235C852.996 242.235 852.546 242.205 852.114 242.145C851.694 242.097 851.292 242.019 850.908 241.911C850.536 241.803 850.188 241.671 849.864 241.515V239.355C850.404 239.595 850.998 239.817 851.646 240.021C852.294 240.213 852.954 240.309 853.626 240.309C854.142 240.309 854.562 240.243 854.886 240.111C855.222 239.967 855.468 239.775 855.624 239.535C855.78 239.283 855.858 238.995 855.858 238.671C855.858 238.311 855.756 238.005 855.552 237.753C855.348 237.501 855.048 237.267 854.652 237.051C854.256 236.835 853.764 236.607 853.176 236.367C852.78 236.199 852.39 236.013 852.006 235.809C851.634 235.593 851.298 235.335 850.998 235.035C850.698 234.735 850.458 234.381 850.278 233.973C850.098 233.565 850.008 233.085 850.008 232.533C850.008 231.801 850.182 231.171 850.53 230.643C850.89 230.115 851.388 229.713 852.024 229.437C852.672 229.161 853.422 229.023 854.274 229.023C854.958 229.023 855.6 229.095 856.2 229.239C856.8 229.383 857.394 229.587 857.982 229.851L857.244 231.705C856.716 231.477 856.206 231.297 855.714 231.165C855.222 231.033 854.718 230.967 854.202 230.967C853.794 230.967 853.446 231.033 853.158 231.165C852.87 231.285 852.654 231.459 852.51 231.687C852.366 231.915 852.294 232.179 852.294 232.479C852.294 232.827 852.384 233.121 852.564 233.361C852.744 233.601 853.02 233.829 853.392 234.045C853.776 234.249 854.268 234.483 854.868 234.747C855.564 235.047 856.152 235.359 856.632 235.683C857.112 236.007 857.484 236.397 857.748 236.853C858.012 237.309 858.144 237.873 858.144 238.545ZM869.012 232.299V242.055H867.23L866.924 240.795H866.816C866.612 241.131 866.348 241.407 866.024 241.623C865.7 241.827 865.346 241.977 864.962 242.073C864.578 242.181 864.182 242.235 863.774 242.235C863.054 242.235 862.43 242.109 861.902 241.857C861.374 241.605 860.972 241.221 860.696 240.705C860.42 240.177 860.282 239.499 860.282 238.671V232.299H862.55V238.221C862.55 238.941 862.694 239.487 862.982 239.859C863.27 240.219 863.726 240.399 864.35 240.399C864.962 240.399 865.442 240.273 865.79 240.021C866.138 239.757 866.384 239.379 866.528 238.887C866.672 238.395 866.744 237.789 866.744 237.069V232.299H869.012ZM874.171 231.615C874.171 231.999 874.159 232.371 874.135 232.731C874.111 233.091 874.087 233.373 874.063 233.577H874.171C874.435 233.169 874.795 232.827 875.251 232.551C875.707 232.263 876.301 232.119 877.033 232.119C878.173 232.119 879.091 232.545 879.787 233.397C880.483 234.249 880.831 235.503 880.831 237.159C880.831 238.275 880.669 239.211 880.345 239.967C880.033 240.723 879.583 241.293 878.995 241.677C878.419 242.049 877.747 242.235 876.979 242.235C876.247 242.235 875.659 242.103 875.215 241.839C874.783 241.575 874.435 241.269 874.171 240.921H874.009L873.595 242.055H871.903V228.375H874.171V231.615ZM876.385 233.955C875.833 233.955 875.395 234.063 875.071 234.279C874.759 234.495 874.531 234.825 874.387 235.269C874.243 235.713 874.171 236.277 874.171 236.961V237.159C874.171 238.203 874.327 239.001 874.639 239.553C874.963 240.105 875.557 240.381 876.421 240.381C877.093 240.381 877.609 240.105 877.969 239.553C878.329 238.989 878.509 238.185 878.509 237.141C878.509 236.085 878.323 235.293 877.951 234.765C877.591 234.225 877.069 233.955 876.385 233.955ZM894.349 232.119C895.453 232.119 896.281 232.401 896.833 232.965C897.397 233.529 897.679 234.441 897.679 235.701V242.055H895.411V236.133C895.411 235.413 895.279 234.873 895.015 234.513C894.751 234.141 894.331 233.955 893.755 233.955C892.963 233.955 892.399 234.213 892.063 234.729C891.727 235.245 891.559 235.995 891.559 236.979V242.055H889.291V236.133C889.291 235.653 889.231 235.251 889.111 234.927C888.991 234.603 888.805 234.363 888.553 234.207C888.313 234.039 888.001 233.955 887.617 233.955C887.077 233.955 886.645 234.087 886.321 234.351C885.997 234.603 885.769 234.975 885.637 235.467C885.505 235.959 885.439 236.565 885.439 237.285V242.055H883.171V232.299H884.917L885.241 233.577H885.367C885.571 233.241 885.817 232.965 886.105 232.749C886.405 232.533 886.735 232.377 887.095 232.281C887.467 232.173 887.839 232.119 888.211 232.119C888.943 232.119 889.561 232.245 890.065 232.497C890.569 232.737 890.947 233.115 891.199 233.631H891.379C891.679 233.103 892.099 232.719 892.639 232.479C893.191 232.239 893.761 232.119 894.349 232.119ZM902.789 232.299V242.055H900.521V232.299H902.789ZM901.655 228.537C901.991 228.537 902.285 228.627 902.537 228.807C902.789 228.975 902.915 229.281 902.915 229.725C902.915 230.157 902.789 230.469 902.537 230.661C902.285 230.841 901.991 230.931 901.655 230.931C901.307 230.931 901.007 230.841 900.755 230.661C900.515 230.469 900.395 230.157 900.395 229.725C900.395 229.281 900.515 228.975 900.755 228.807C901.007 228.627 901.307 228.537 901.655 228.537ZM912.33 239.229C912.33 239.877 912.174 240.429 911.862 240.885C911.55 241.329 911.088 241.665 910.476 241.893C909.876 242.121 909.138 242.235 908.262 242.235C907.578 242.235 906.99 242.187 906.498 242.091C906.006 241.995 905.538 241.845 905.094 241.641V239.715C905.574 239.943 906.108 240.135 906.696 240.291C907.284 240.447 907.83 240.525 908.334 240.525C908.958 240.525 909.408 240.429 909.684 240.237C909.96 240.045 910.098 239.787 910.098 239.463C910.098 239.271 910.044 239.097 909.936 238.941C909.828 238.785 909.618 238.623 909.306 238.455C908.994 238.275 908.52 238.053 907.884 237.789C907.26 237.537 906.738 237.285 906.318 237.033C905.91 236.781 905.598 236.481 905.382 236.133C905.178 235.773 905.076 235.323 905.076 234.783C905.076 233.907 905.424 233.247 906.12 232.803C906.816 232.347 907.734 232.119 908.874 232.119C909.474 232.119 910.038 232.179 910.566 232.299C911.106 232.407 911.646 232.587 912.186 232.839L911.466 234.513C911.022 234.321 910.578 234.159 910.134 234.027C909.702 233.895 909.258 233.829 908.802 233.829C908.31 233.829 907.938 233.907 907.686 234.063C907.434 234.207 907.308 234.411 907.308 234.675C907.308 234.879 907.368 235.059 907.488 235.215C907.62 235.359 907.842 235.509 908.154 235.665C908.478 235.809 908.934 236.001 909.522 236.241C910.11 236.469 910.608 236.709 911.016 236.961C911.436 237.201 911.76 237.501 911.988 237.861C912.216 238.221 912.33 238.677 912.33 239.229ZM921.155 239.229C921.155 239.877 920.999 240.429 920.687 240.885C920.375 241.329 919.913 241.665 919.301 241.893C918.701 242.121 917.963 242.235 917.087 242.235C916.403 242.235 915.815 242.187 915.323 242.091C914.831 241.995 914.363 241.845 913.919 241.641V239.715C914.399 239.943 914.933 240.135 915.521 240.291C916.109 240.447 916.655 240.525 917.159 240.525C917.783 240.525 918.233 240.429 918.509 240.237C918.785 240.045 918.923 239.787 918.923 239.463C918.923 239.271 918.869 239.097 918.761 238.941C918.653 238.785 918.443 238.623 918.131 238.455C917.819 238.275 917.345 238.053 916.709 237.789C916.085 237.537 915.563 237.285 915.143 237.033C914.735 236.781 914.423 236.481 914.207 236.133C914.003 235.773 913.901 235.323 913.901 234.783C913.901 233.907 914.249 233.247 914.945 232.803C915.641 232.347 916.559 232.119 917.699 232.119C918.299 232.119 918.863 232.179 919.391 232.299C919.931 232.407 920.471 232.587 921.011 232.839L920.291 234.513C919.847 234.321 919.403 234.159 918.959 234.027C918.527 233.895 918.083 233.829 917.627 233.829C917.135 233.829 916.763 233.907 916.511 234.063C916.259 234.207 916.133 234.411 916.133 234.675C916.133 234.879 916.193 235.059 916.313 235.215C916.445 235.359 916.667 235.509 916.979 235.665C917.303 235.809 917.759 236.001 918.347 236.241C918.935 236.469 919.433 236.709 919.841 236.961C920.261 237.201 920.585 237.501 920.813 237.861C921.041 238.221 921.155 238.677 921.155 239.229ZM925.605 232.299V242.055H923.337V232.299H925.605ZM924.471 228.537C924.807 228.537 925.101 228.627 925.353 228.807C925.605 228.975 925.731 229.281 925.731 229.725C925.731 230.157 925.605 230.469 925.353 230.661C925.101 230.841 924.807 230.931 924.471 230.931C924.123 230.931 923.823 230.841 923.571 230.661C923.331 230.469 923.211 230.157 923.211 229.725C923.211 229.281 923.331 228.975 923.571 228.807C923.823 228.627 924.123 228.537 924.471 228.537ZM937.217 237.159C937.217 237.975 937.109 238.695 936.893 239.319C936.677 239.943 936.365 240.477 935.957 240.921C935.561 241.353 935.069 241.683 934.481 241.911C933.905 242.127 933.263 242.235 932.555 242.235C931.883 242.235 931.265 242.127 930.701 241.911C930.137 241.683 929.645 241.353 929.225 240.921C928.817 240.477 928.499 239.943 928.271 239.319C928.043 238.695 927.929 237.975 927.929 237.159C927.929 236.079 928.115 235.167 928.487 234.423C928.859 233.667 929.393 233.097 930.089 232.713C930.797 232.317 931.631 232.119 932.591 232.119C933.503 232.119 934.301 232.317 934.985 232.713C935.681 233.097 936.227 233.667 936.623 234.423C937.019 235.167 937.217 236.079 937.217 237.159ZM930.251 237.159C930.251 237.843 930.329 238.431 930.485 238.923C930.653 239.403 930.905 239.769 931.241 240.021C931.589 240.273 932.033 240.399 932.573 240.399C933.125 240.399 933.569 240.273 933.905 240.021C934.253 239.769 934.505 239.403 934.661 238.923C934.817 238.431 934.895 237.843 934.895 237.159C934.895 236.463 934.811 235.881 934.643 235.413C934.487 234.933 934.235 234.573 933.887 234.333C933.551 234.081 933.113 233.955 932.573 233.955C931.757 233.955 931.163 234.231 930.791 234.783C930.431 235.335 930.251 236.127 930.251 237.159ZM944.782 232.119C945.874 232.119 946.726 232.401 947.338 232.965C947.962 233.529 948.274 234.441 948.274 235.701V242.055H946.006V236.151C946.006 235.419 945.862 234.873 945.574 234.513C945.286 234.141 944.83 233.955 944.206 233.955C943.294 233.955 942.67 234.243 942.334 234.819C941.998 235.383 941.83 236.205 941.83 237.285V242.055H939.562V232.299H941.308L941.632 233.577H941.758C941.974 233.241 942.238 232.965 942.55 232.749C942.862 232.533 943.21 232.377 943.594 232.281C943.978 232.173 944.374 232.119 944.782 232.119ZM957.752 239.229C957.752 239.877 957.596 240.429 957.284 240.885C956.972 241.329 956.51 241.665 955.898 241.893C955.298 242.121 954.56 242.235 953.684 242.235C953 242.235 952.412 242.187 951.92 242.091C951.428 241.995 950.96 241.845 950.516 241.641V239.715C950.996 239.943 951.53 240.135 952.118 240.291C952.706 240.447 953.252 240.525 953.756 240.525C954.38 240.525 954.83 240.429 955.106 240.237C955.382 240.045 955.52 239.787 955.52 239.463C955.52 239.271 955.466 239.097 955.358 238.941C955.25 238.785 955.04 238.623 954.728 238.455C954.416 238.275 953.942 238.053 953.306 237.789C952.682 237.537 952.16 237.285 951.74 237.033C951.332 236.781 951.02 236.481 950.804 236.133C950.6 235.773 950.498 235.323 950.498 234.783C950.498 233.907 950.846 233.247 951.542 232.803C952.238 232.347 953.156 232.119 954.296 232.119C954.896 232.119 955.46 232.179 955.988 232.299C956.528 232.407 957.068 232.587 957.608 232.839L956.888 234.513C956.444 234.321 956 234.159 955.556 234.027C955.124 233.895 954.68 233.829 954.224 233.829C953.732 233.829 953.36 233.907 953.108 234.063C952.856 234.207 952.73 234.411 952.73 234.675C952.73 234.879 952.79 235.059 952.91 235.215C953.042 235.359 953.264 235.509 953.576 235.665C953.9 235.809 954.356 236.001 954.944 236.241C955.532 236.469 956.03 236.709 956.438 236.961C956.858 237.201 957.182 237.501 957.41 237.861C957.638 238.221 957.752 238.677 957.752 239.229Z" fill="#525252"/>
<path d="M835.369 278.055H834.137V267.415H835.369V278.055ZM844.271 274.289C844.271 274.915 844.187 275.47 844.019 275.955C843.86 276.431 843.627 276.837 843.319 277.173C843.02 277.509 842.651 277.766 842.213 277.943C841.783 278.111 841.303 278.195 840.771 278.195C840.276 278.195 839.819 278.111 839.399 277.943C838.979 277.766 838.615 277.509 838.307 277.173C837.999 276.837 837.756 276.431 837.579 275.955C837.411 275.47 837.327 274.915 837.327 274.289C837.327 273.459 837.467 272.759 837.747 272.189C838.027 271.611 838.428 271.172 838.951 270.873C839.473 270.565 840.094 270.411 840.813 270.411C841.494 270.411 842.091 270.565 842.605 270.873C843.127 271.172 843.533 271.611 843.823 272.189C844.121 272.759 844.271 273.459 844.271 274.289ZM838.601 274.289C838.601 274.877 838.675 275.391 838.825 275.829C838.983 276.259 839.226 276.59 839.553 276.823C839.879 277.057 840.295 277.173 840.799 277.173C841.303 277.173 841.718 277.057 842.045 276.823C842.371 276.59 842.609 276.259 842.759 275.829C842.917 275.391 842.997 274.877 842.997 274.289C842.997 273.692 842.917 273.183 842.759 272.763C842.6 272.343 842.357 272.021 842.031 271.797C841.713 271.564 841.298 271.447 840.785 271.447C840.019 271.447 839.464 271.699 839.119 272.203C838.773 272.707 838.601 273.403 838.601 274.289ZM849.723 270.411C849.863 270.411 850.013 270.421 850.171 270.439C850.339 270.449 850.484 270.467 850.605 270.495L850.451 271.629C850.33 271.601 850.195 271.578 850.045 271.559C849.905 271.541 849.77 271.531 849.639 271.531C849.35 271.531 849.075 271.592 848.813 271.713C848.552 271.835 848.319 272.007 848.113 272.231C847.908 272.446 847.745 272.707 847.623 273.015C847.511 273.323 847.455 273.669 847.455 274.051V278.055H846.223V270.551H847.231L847.371 271.923H847.427C847.586 271.643 847.777 271.391 848.001 271.167C848.225 270.934 848.482 270.752 848.771 270.621C849.061 270.481 849.378 270.411 849.723 270.411ZM854.631 270.411C855.275 270.411 855.826 270.551 856.283 270.831C856.75 271.111 857.104 271.508 857.347 272.021C857.599 272.525 857.725 273.118 857.725 273.799V274.541H852.587C852.606 275.391 852.82 276.039 853.231 276.487C853.651 276.926 854.234 277.145 854.981 277.145C855.457 277.145 855.877 277.103 856.241 277.019C856.614 276.926 856.997 276.795 857.389 276.627V277.705C857.006 277.873 856.628 277.995 856.255 278.069C855.882 278.153 855.438 278.195 854.925 278.195C854.216 278.195 853.586 278.051 853.035 277.761C852.494 277.472 852.069 277.043 851.761 276.473C851.462 275.895 851.313 275.19 851.313 274.359C851.313 273.538 851.448 272.833 851.719 272.245C851.999 271.657 852.386 271.205 852.881 270.887C853.385 270.57 853.968 270.411 854.631 270.411ZM854.617 271.419C854.029 271.419 853.562 271.611 853.217 271.993C852.881 272.367 852.68 272.889 852.615 273.561H856.437C856.437 273.132 856.372 272.759 856.241 272.441C856.11 272.124 855.91 271.877 855.639 271.699C855.378 271.513 855.037 271.419 854.617 271.419ZM867.867 270.411C868.717 270.411 869.351 270.631 869.771 271.069C870.191 271.499 870.401 272.199 870.401 273.169V278.055H869.183V273.225C869.183 272.637 869.057 272.194 868.805 271.895C868.563 271.597 868.18 271.447 867.657 271.447C866.929 271.447 866.407 271.657 866.089 272.077C865.781 272.497 865.627 273.109 865.627 273.911V278.055H864.409V273.225C864.409 272.833 864.353 272.507 864.241 272.245C864.129 271.975 863.961 271.774 863.737 271.643C863.513 271.513 863.224 271.447 862.869 271.447C862.365 271.447 861.969 271.555 861.679 271.769C861.39 271.975 861.18 272.278 861.049 272.679C860.928 273.081 860.867 273.575 860.867 274.163V278.055H859.635V270.551H860.629L860.811 271.573H860.881C861.04 271.312 861.231 271.097 861.455 270.929C861.689 270.752 861.945 270.621 862.225 270.537C862.505 270.453 862.795 270.411 863.093 270.411C863.672 270.411 864.153 270.514 864.535 270.719C864.927 270.925 865.212 271.242 865.389 271.671H865.459C865.711 271.242 866.052 270.925 866.481 270.719C866.92 270.514 867.382 270.411 867.867 270.411ZM877.588 270.551V278.055H876.356V270.551H877.588ZM876.986 267.737C877.173 267.737 877.336 267.803 877.476 267.933C877.625 268.055 877.7 268.251 877.7 268.521C877.7 268.783 877.625 268.979 877.476 269.109C877.336 269.24 877.173 269.305 876.986 269.305C876.781 269.305 876.608 269.24 876.468 269.109C876.328 268.979 876.258 268.783 876.258 268.521C876.258 268.251 876.328 268.055 876.468 267.933C876.608 267.803 876.781 267.737 876.986 267.737ZM883.535 270.411C884.459 270.411 885.201 270.733 885.761 271.377C886.331 272.021 886.615 272.992 886.615 274.289C886.615 275.139 886.485 275.857 886.223 276.445C885.971 277.024 885.612 277.463 885.145 277.761C884.688 278.051 884.147 278.195 883.521 278.195C883.139 278.195 882.798 278.144 882.499 278.041C882.201 277.939 881.944 277.808 881.729 277.649C881.524 277.481 881.347 277.299 881.197 277.103H881.113C881.132 277.262 881.151 277.463 881.169 277.705C881.188 277.948 881.197 278.158 881.197 278.335V281.415H879.965V270.551H880.973L881.141 271.573H881.197C881.347 271.359 881.524 271.163 881.729 270.985C881.944 270.808 882.196 270.668 882.485 270.565C882.784 270.463 883.134 270.411 883.535 270.411ZM883.311 271.447C882.807 271.447 882.401 271.545 882.093 271.741C881.785 271.928 881.561 272.213 881.421 272.595C881.281 272.978 881.207 273.463 881.197 274.051V274.289C881.197 274.905 881.263 275.428 881.393 275.857C881.524 276.287 881.743 276.613 882.051 276.837C882.369 277.061 882.798 277.173 883.339 277.173C883.797 277.173 884.17 277.047 884.459 276.795C884.758 276.543 884.977 276.203 885.117 275.773C885.267 275.335 885.341 274.835 885.341 274.275C885.341 273.417 885.173 272.731 884.837 272.217C884.511 271.704 884.002 271.447 883.311 271.447ZM893.465 275.983C893.465 276.469 893.343 276.875 893.101 277.201C892.858 277.528 892.513 277.775 892.065 277.943C891.617 278.111 891.085 278.195 890.469 278.195C889.946 278.195 889.493 278.153 889.111 278.069C888.737 277.985 888.406 277.869 888.117 277.719V276.599C888.415 276.749 888.775 276.889 889.195 277.019C889.624 277.141 890.058 277.201 890.497 277.201C891.122 277.201 891.575 277.103 891.855 276.907C892.135 276.702 892.275 276.431 892.275 276.095C892.275 275.909 892.223 275.741 892.121 275.591C892.018 275.442 891.831 275.293 891.561 275.143C891.299 274.994 890.921 274.826 890.427 274.639C889.941 274.453 889.526 274.266 889.181 274.079C888.835 273.893 888.569 273.669 888.383 273.407C888.196 273.146 888.103 272.81 888.103 272.399C888.103 271.765 888.359 271.275 888.873 270.929C889.395 270.584 890.077 270.411 890.917 270.411C891.374 270.411 891.799 270.458 892.191 270.551C892.592 270.635 892.965 270.757 893.311 270.915L892.891 271.895C892.573 271.765 892.242 271.653 891.897 271.559C891.551 271.466 891.197 271.419 890.833 271.419C890.329 271.419 889.941 271.503 889.671 271.671C889.409 271.83 889.279 272.049 889.279 272.329C889.279 272.535 889.339 272.712 889.461 272.861C889.582 273.001 889.783 273.141 890.063 273.281C890.352 273.412 890.735 273.571 891.211 273.757C891.687 273.935 892.093 274.117 892.429 274.303C892.765 274.49 893.021 274.719 893.199 274.989C893.376 275.251 893.465 275.582 893.465 275.983ZM901.55 270.551V278.055H900.542L900.36 277.061H900.304C900.145 277.323 899.94 277.537 899.688 277.705C899.436 277.873 899.161 277.995 898.862 278.069C898.563 278.153 898.251 278.195 897.924 278.195C897.327 278.195 896.823 278.102 896.412 277.915C896.011 277.719 895.707 277.421 895.502 277.019C895.297 276.618 895.194 276.1 895.194 275.465V270.551H896.44V275.381C896.44 275.979 896.575 276.427 896.846 276.725C897.117 277.024 897.537 277.173 898.106 277.173C898.666 277.173 899.105 277.071 899.422 276.865C899.749 276.651 899.977 276.343 900.108 275.941C900.248 275.531 900.318 275.036 900.318 274.457V270.551H901.55ZM912.164 270.411C913.014 270.411 913.648 270.631 914.068 271.069C914.488 271.499 914.698 272.199 914.698 273.169V278.055H913.48V273.225C913.48 272.637 913.354 272.194 913.102 271.895C912.86 271.597 912.477 271.447 911.954 271.447C911.226 271.447 910.704 271.657 910.386 272.077C910.078 272.497 909.924 273.109 909.924 273.911V278.055H908.706V273.225C908.706 272.833 908.65 272.507 908.538 272.245C908.426 271.975 908.258 271.774 908.034 271.643C907.81 271.513 907.521 271.447 907.166 271.447C906.662 271.447 906.266 271.555 905.976 271.769C905.687 271.975 905.477 272.278 905.346 272.679C905.225 273.081 905.164 273.575 905.164 274.163V278.055H903.932V270.551H904.926L905.108 271.573H905.178C905.337 271.312 905.528 271.097 905.752 270.929C905.986 270.752 906.242 270.621 906.522 270.537C906.802 270.453 907.092 270.411 907.39 270.411C907.969 270.411 908.45 270.514 908.832 270.719C909.224 270.925 909.509 271.242 909.686 271.671H909.756C910.008 271.242 910.349 270.925 910.778 270.719C911.217 270.514 911.679 270.411 912.164 270.411ZM923.663 278.195C923 278.195 922.408 278.06 921.885 277.789C921.372 277.519 920.966 277.099 920.667 276.529C920.378 275.96 920.233 275.232 920.233 274.345C920.233 273.421 920.387 272.67 920.695 272.091C921.003 271.513 921.418 271.088 921.941 270.817C922.473 270.547 923.075 270.411 923.747 270.411C924.13 270.411 924.498 270.453 924.853 270.537C925.208 270.612 925.497 270.705 925.721 270.817L925.343 271.839C925.119 271.755 924.858 271.676 924.559 271.601C924.26 271.527 923.98 271.489 923.719 271.489C923.215 271.489 922.8 271.597 922.473 271.811C922.146 272.026 921.904 272.343 921.745 272.763C921.586 273.183 921.507 273.706 921.507 274.331C921.507 274.929 921.586 275.437 921.745 275.857C921.904 276.277 922.142 276.595 922.459 276.809C922.776 277.024 923.173 277.131 923.649 277.131C924.06 277.131 924.419 277.089 924.727 277.005C925.044 276.921 925.334 276.819 925.595 276.697V277.789C925.343 277.92 925.063 278.018 924.755 278.083C924.456 278.158 924.092 278.195 923.663 278.195ZM933.903 274.289C933.903 274.915 933.819 275.47 933.651 275.955C933.493 276.431 933.259 276.837 932.951 277.173C932.653 277.509 932.284 277.766 931.845 277.943C931.416 278.111 930.935 278.195 930.403 278.195C929.909 278.195 929.451 278.111 929.031 277.943C928.611 277.766 928.247 277.509 927.939 277.173C927.631 276.837 927.389 276.431 927.211 275.955C927.043 275.47 926.959 274.915 926.959 274.289C926.959 273.459 927.099 272.759 927.379 272.189C927.659 271.611 928.061 271.172 928.583 270.873C929.106 270.565 929.727 270.411 930.445 270.411C931.127 270.411 931.724 270.565 932.237 270.873C932.76 271.172 933.166 271.611 933.455 272.189C933.754 272.759 933.903 273.459 933.903 274.289ZM928.233 274.289C928.233 274.877 928.308 275.391 928.457 275.829C928.616 276.259 928.859 276.59 929.185 276.823C929.512 277.057 929.927 277.173 930.431 277.173C930.935 277.173 931.351 277.057 931.677 276.823C932.004 276.59 932.242 276.259 932.391 275.829C932.55 275.391 932.629 274.877 932.629 274.289C932.629 273.692 932.55 273.183 932.391 272.763C932.233 272.343 931.99 272.021 931.663 271.797C931.346 271.564 930.931 271.447 930.417 271.447C929.652 271.447 929.097 271.699 928.751 272.203C928.406 272.707 928.233 273.403 928.233 274.289ZM938.362 277.187C938.549 277.187 938.74 277.173 938.936 277.145C939.132 277.108 939.291 277.071 939.412 277.033V277.971C939.281 278.037 939.095 278.088 938.852 278.125C938.609 278.172 938.376 278.195 938.152 278.195C937.76 278.195 937.396 278.13 937.06 277.999C936.733 277.859 936.467 277.621 936.262 277.285C936.057 276.949 935.954 276.478 935.954 275.871V271.503H934.89V270.915L935.968 270.425L936.458 268.829H937.186V270.551H939.356V271.503H937.186V275.843C937.186 276.301 937.293 276.641 937.508 276.865C937.732 277.08 938.017 277.187 938.362 277.187ZM944.527 270.411C945.423 270.411 946.099 270.631 946.557 271.069C947.014 271.499 947.243 272.199 947.243 273.169V278.055H946.025V273.253C946.025 272.647 945.889 272.194 945.619 271.895C945.348 271.597 944.923 271.447 944.345 271.447C943.514 271.447 942.94 271.681 942.623 272.147C942.305 272.614 942.147 273.286 942.147 274.163V278.055H940.915V270.551H941.909L942.091 271.573H942.161C942.329 271.312 942.534 271.097 942.777 270.929C943.029 270.752 943.304 270.621 943.603 270.537C943.901 270.453 944.209 270.411 944.527 270.411ZM952.075 277.187C952.262 277.187 952.453 277.173 952.649 277.145C952.845 277.108 953.004 277.071 953.125 277.033V277.971C952.994 278.037 952.808 278.088 952.565 278.125C952.322 278.172 952.089 278.195 951.865 278.195C951.473 278.195 951.109 278.13 950.773 277.999C950.446 277.859 950.18 277.621 949.975 277.285C949.77 276.949 949.667 276.478 949.667 275.871V271.503H948.603V270.915L949.681 270.425L950.171 268.829H950.899V270.551H953.069V271.503H950.899V275.843C950.899 276.301 951.006 276.641 951.221 276.865C951.445 277.08 951.73 277.187 952.075 277.187ZM957.526 270.411C958.17 270.411 958.72 270.551 959.178 270.831C959.644 271.111 959.999 271.508 960.242 272.021C960.494 272.525 960.62 273.118 960.62 273.799V274.541H955.482C955.5 275.391 955.715 276.039 956.126 276.487C956.546 276.926 957.129 277.145 957.876 277.145C958.352 277.145 958.772 277.103 959.136 277.019C959.509 276.926 959.892 276.795 960.284 276.627V277.705C959.901 277.873 959.523 277.995 959.15 278.069C958.776 278.153 958.333 278.195 957.82 278.195C957.11 278.195 956.48 278.051 955.93 277.761C955.388 277.472 954.964 277.043 954.656 276.473C954.357 275.895 954.208 275.19 954.208 274.359C954.208 273.538 954.343 272.833 954.614 272.245C954.894 271.657 955.281 271.205 955.776 270.887C956.28 270.57 956.863 270.411 957.526 270.411ZM957.512 271.419C956.924 271.419 956.457 271.611 956.112 271.993C955.776 272.367 955.575 272.889 955.51 273.561H959.332C959.332 273.132 959.266 272.759 959.136 272.441C959.005 272.124 958.804 271.877 958.534 271.699C958.272 271.513 957.932 271.419 957.512 271.419ZM966.142 270.411C967.038 270.411 967.715 270.631 968.172 271.069C968.629 271.499 968.858 272.199 968.858 273.169V278.055H967.64V273.253C967.64 272.647 967.505 272.194 967.234 271.895C966.963 271.597 966.539 271.447 965.96 271.447C965.129 271.447 964.555 271.681 964.238 272.147C963.921 272.614 963.762 273.286 963.762 274.163V278.055H962.53V270.551H963.524L963.706 271.573H963.776C963.944 271.312 964.149 271.097 964.392 270.929C964.644 270.752 964.919 270.621 965.218 270.537C965.517 270.453 965.825 270.411 966.142 270.411ZM973.69 277.187C973.877 277.187 974.068 277.173 974.264 277.145C974.46 277.108 974.619 277.071 974.74 277.033V277.971C974.609 278.037 974.423 278.088 974.18 278.125C973.937 278.172 973.704 278.195 973.48 278.195C973.088 278.195 972.724 278.13 972.388 277.999C972.061 277.859 971.795 277.621 971.59 277.285C971.385 276.949 971.282 276.478 971.282 275.871V271.503H970.218V270.915L971.296 270.425L971.786 268.829H972.514V270.551H974.684V271.503H972.514V275.843C972.514 276.301 972.621 276.641 972.836 276.865C973.06 277.08 973.345 277.187 973.69 277.187Z" fill="#525252"/>
<rect x="1222.67" y="16" width="587.333" height="358" rx="8" fill="white"/>
<rect width="195" height="156.055" transform="translate(1409.83 40)" fill="#F04F4F"/>
<path d="M1436.14 229.203C1437.26 229.203 1438.19 229.341 1438.93 229.617C1439.66 229.893 1440.2 230.313 1440.56 230.877C1440.92 231.429 1441.1 232.131 1441.1 232.983C1441.1 233.607 1440.98 234.141 1440.74 234.585C1440.52 235.029 1440.22 235.401 1439.84 235.701C1439.47 235.989 1439.07 236.223 1438.64 236.403L1442.33 242.055H1439.74L1436.66 236.979H1434.79V242.055H1432.48V229.203H1436.14ZM1435.99 231.129H1434.79V235.089H1436.06C1437.01 235.089 1437.7 234.921 1438.12 234.585C1438.55 234.237 1438.76 233.727 1438.76 233.055C1438.76 232.587 1438.66 232.215 1438.46 231.939C1438.25 231.651 1437.95 231.447 1437.54 231.327C1437.14 231.195 1436.63 231.129 1435.99 231.129ZM1447.83 232.119C1448.7 232.119 1449.45 232.299 1450.08 232.659C1450.71 233.007 1451.2 233.511 1451.55 234.171C1451.9 234.819 1452.07 235.611 1452.07 236.547V237.699H1445.63C1445.65 238.587 1445.9 239.277 1446.37 239.769C1446.84 240.249 1447.48 240.489 1448.31 240.489C1448.95 240.489 1449.51 240.429 1450 240.309C1450.51 240.177 1451.02 239.991 1451.55 239.751V241.569C1451.07 241.797 1450.57 241.965 1450.06 242.073C1449.54 242.181 1448.92 242.235 1448.2 242.235C1447.26 242.235 1446.41 242.055 1445.67 241.695C1444.93 241.323 1444.36 240.765 1443.94 240.021C1443.53 239.277 1443.33 238.353 1443.33 237.249C1443.33 236.133 1443.51 235.197 1443.88 234.441C1444.27 233.673 1444.8 233.097 1445.47 232.713C1446.14 232.317 1446.93 232.119 1447.83 232.119ZM1447.83 233.793C1447.23 233.793 1446.73 233.991 1446.35 234.387C1445.98 234.771 1445.76 235.347 1445.68 236.115H1449.88C1449.88 235.659 1449.8 235.257 1449.64 234.909C1449.5 234.561 1449.28 234.291 1448.98 234.099C1448.68 233.895 1448.29 233.793 1447.83 233.793ZM1459.49 232.119C1460.63 232.119 1461.55 232.545 1462.24 233.397C1462.94 234.237 1463.29 235.491 1463.29 237.159C1463.29 238.263 1463.13 239.193 1462.8 239.949C1462.48 240.705 1462.03 241.275 1461.45 241.659C1460.88 242.043 1460.2 242.235 1459.44 242.235C1458.97 242.235 1458.55 242.175 1458.19 242.055C1457.83 241.923 1457.53 241.761 1457.28 241.569C1457.02 241.365 1456.81 241.149 1456.63 240.921H1456.48C1456.53 241.137 1456.57 241.383 1456.59 241.659C1456.62 241.923 1456.63 242.175 1456.63 242.415V246.375H1454.36V232.299H1456.2L1456.52 233.595H1456.63C1456.81 233.319 1457.02 233.073 1457.28 232.857C1457.54 232.629 1457.85 232.449 1458.21 232.317C1458.58 232.185 1459.01 232.119 1459.49 232.119ZM1458.84 233.955C1458.31 233.955 1457.89 234.063 1457.56 234.279C1457.24 234.483 1457.01 234.801 1456.86 235.233C1456.72 235.665 1456.64 236.205 1456.63 236.853V237.141C1456.63 237.837 1456.69 238.425 1456.83 238.905C1456.97 239.385 1457.2 239.751 1457.53 240.003C1457.86 240.255 1458.31 240.381 1458.88 240.381C1459.36 240.381 1459.75 240.249 1460.05 239.985C1460.36 239.721 1460.59 239.349 1460.73 238.869C1460.89 238.377 1460.97 237.795 1460.97 237.123C1460.97 236.115 1460.79 235.335 1460.44 234.783C1460.11 234.231 1459.57 233.955 1458.84 233.955ZM1474.34 237.159C1474.34 237.975 1474.23 238.695 1474.02 239.319C1473.8 239.943 1473.49 240.477 1473.08 240.921C1472.68 241.353 1472.19 241.683 1471.6 241.911C1471.03 242.127 1470.39 242.235 1469.68 242.235C1469.01 242.235 1468.39 242.127 1467.82 241.911C1467.26 241.683 1466.77 241.353 1466.35 240.921C1465.94 240.477 1465.62 239.943 1465.39 239.319C1465.17 238.695 1465.05 237.975 1465.05 237.159C1465.05 236.079 1465.24 235.167 1465.61 234.423C1465.98 233.667 1466.52 233.097 1467.21 232.713C1467.92 232.317 1468.75 232.119 1469.71 232.119C1470.63 232.119 1471.42 232.317 1472.11 232.713C1472.8 233.097 1473.35 233.667 1473.75 234.423C1474.14 235.167 1474.34 236.079 1474.34 237.159ZM1467.37 237.159C1467.37 237.843 1467.45 238.431 1467.61 238.923C1467.78 239.403 1468.03 239.769 1468.36 240.021C1468.71 240.273 1469.16 240.399 1469.7 240.399C1470.25 240.399 1470.69 240.273 1471.03 240.021C1471.38 239.769 1471.63 239.403 1471.78 238.923C1471.94 238.431 1472.02 237.843 1472.02 237.159C1472.02 236.463 1471.93 235.881 1471.77 235.413C1471.61 234.933 1471.36 234.573 1471.01 234.333C1470.67 234.081 1470.24 233.955 1469.7 233.955C1468.88 233.955 1468.29 234.231 1467.91 234.783C1467.55 235.335 1467.37 236.127 1467.37 237.159ZM1481.8 232.119C1481.94 232.119 1482.11 232.125 1482.3 232.137C1482.49 232.149 1482.66 232.173 1482.79 232.209L1482.59 234.315C1482.48 234.291 1482.34 234.273 1482.16 234.261C1481.99 234.237 1481.84 234.225 1481.71 234.225C1481.35 234.225 1481 234.285 1480.66 234.405C1480.34 234.513 1480.05 234.681 1479.78 234.909C1479.53 235.125 1479.33 235.407 1479.17 235.755C1479.03 236.103 1478.95 236.517 1478.95 236.997V242.055H1476.69V232.299H1478.43L1478.76 233.991H1478.86C1479.06 233.643 1479.3 233.331 1479.58 233.055C1479.87 232.767 1480.2 232.539 1480.57 232.371C1480.96 232.203 1481.37 232.119 1481.8 232.119ZM1488.38 240.417C1488.66 240.417 1488.94 240.393 1489.2 240.345C1489.47 240.285 1489.71 240.219 1489.94 240.147V241.839C1489.7 241.947 1489.39 242.037 1489.01 242.109C1488.62 242.193 1488.22 242.235 1487.8 242.235C1487.25 242.235 1486.74 242.145 1486.29 241.965C1485.84 241.773 1485.48 241.449 1485.21 240.993C1484.94 240.537 1484.81 239.901 1484.81 239.085V234.009H1483.5V233.019L1484.94 232.227L1485.66 230.157H1487.08V232.299H1489.85V234.009H1487.08V239.067C1487.08 239.523 1487.2 239.865 1487.44 240.093C1487.68 240.309 1487.99 240.417 1488.38 240.417ZM1500.36 240.417C1500.65 240.417 1500.93 240.393 1501.19 240.345C1501.46 240.285 1501.7 240.219 1501.93 240.147V241.839C1501.69 241.947 1501.38 242.037 1500.99 242.109C1500.61 242.193 1500.21 242.235 1499.79 242.235C1499.24 242.235 1498.73 242.145 1498.28 241.965C1497.83 241.773 1497.47 241.449 1497.2 240.993C1496.93 240.537 1496.8 239.901 1496.8 239.085V234.009H1495.49V233.019L1496.93 232.227L1497.65 230.157H1499.07V232.299H1501.84V234.009H1499.07V239.067C1499.07 239.523 1499.19 239.865 1499.43 240.093C1499.67 240.309 1499.98 240.417 1500.36 240.417ZM1507.82 232.119C1508.7 232.119 1509.45 232.299 1510.07 232.659C1510.71 233.007 1511.2 233.511 1511.55 234.171C1511.89 234.819 1512.07 235.611 1512.07 236.547V237.699H1505.62C1505.65 238.587 1505.89 239.277 1506.36 239.769C1506.83 240.249 1507.48 240.489 1508.31 240.489C1508.94 240.489 1509.51 240.429 1510 240.309C1510.5 240.177 1511.02 239.991 1511.55 239.751V241.569C1511.07 241.797 1510.57 241.965 1510.05 242.073C1509.54 242.181 1508.92 242.235 1508.2 242.235C1507.25 242.235 1506.4 242.055 1505.66 241.695C1504.93 241.323 1504.35 240.765 1503.93 240.021C1503.52 239.277 1503.32 238.353 1503.32 237.249C1503.32 236.133 1503.51 235.197 1503.88 234.441C1504.26 233.673 1504.79 233.097 1505.46 232.713C1506.13 232.317 1506.92 232.119 1507.82 232.119ZM1507.82 233.793C1507.22 233.793 1506.73 233.991 1506.34 234.387C1505.97 234.771 1505.75 235.347 1505.68 236.115H1509.87C1509.87 235.659 1509.79 235.257 1509.64 234.909C1509.49 234.561 1509.27 234.291 1508.97 234.099C1508.67 233.895 1508.29 233.793 1507.82 233.793ZM1525.53 232.119C1526.64 232.119 1527.46 232.401 1528.02 232.965C1528.58 233.529 1528.86 234.441 1528.86 235.701V242.055H1526.59V236.133C1526.59 235.413 1526.46 234.873 1526.2 234.513C1525.93 234.141 1525.51 233.955 1524.94 233.955C1524.15 233.955 1523.58 234.213 1523.25 234.729C1522.91 235.245 1522.74 235.995 1522.74 236.979V242.055H1520.47V236.133C1520.47 235.653 1520.41 235.251 1520.29 234.927C1520.17 234.603 1519.99 234.363 1519.74 234.207C1519.5 234.039 1519.18 233.955 1518.8 233.955C1518.26 233.955 1517.83 234.087 1517.5 234.351C1517.18 234.603 1516.95 234.975 1516.82 235.467C1516.69 235.959 1516.62 236.565 1516.62 237.285V242.055H1514.35V232.299H1516.1L1516.42 233.577H1516.55C1516.75 233.241 1517 232.965 1517.29 232.749C1517.59 232.533 1517.92 232.377 1518.28 232.281C1518.65 232.173 1519.02 232.119 1519.39 232.119C1520.13 232.119 1520.74 232.245 1521.25 232.497C1521.75 232.737 1522.13 233.115 1522.38 233.631H1522.56C1522.86 233.103 1523.28 232.719 1523.82 232.479C1524.37 232.239 1524.94 232.119 1525.53 232.119ZM1536.83 232.119C1537.97 232.119 1538.89 232.545 1539.59 233.397C1540.28 234.237 1540.63 235.491 1540.63 237.159C1540.63 238.263 1540.47 239.193 1540.15 239.949C1539.82 240.705 1539.37 241.275 1538.8 241.659C1538.22 242.043 1537.55 242.235 1536.78 242.235C1536.31 242.235 1535.9 242.175 1535.54 242.055C1535.18 241.923 1534.87 241.761 1534.62 241.569C1534.37 241.365 1534.15 241.149 1533.97 240.921H1533.83C1533.88 241.137 1533.91 241.383 1533.94 241.659C1533.96 241.923 1533.97 242.175 1533.97 242.415V246.375H1531.7V232.299H1533.54L1533.86 233.595H1533.97C1534.15 233.319 1534.37 233.073 1534.62 232.857C1534.88 232.629 1535.2 232.449 1535.56 232.317C1535.93 232.185 1536.35 232.119 1536.83 232.119ZM1536.19 233.955C1535.66 233.955 1535.23 234.063 1534.91 234.279C1534.58 234.483 1534.35 234.801 1534.21 235.233C1534.06 235.665 1533.98 236.205 1533.97 236.853V237.141C1533.97 237.837 1534.04 238.425 1534.17 238.905C1534.31 239.385 1534.55 239.751 1534.87 240.003C1535.21 240.255 1535.66 240.381 1536.22 240.381C1536.7 240.381 1537.09 240.249 1537.39 239.985C1537.7 239.721 1537.93 239.349 1538.08 238.869C1538.23 238.377 1538.31 237.795 1538.31 237.123C1538.31 236.115 1538.14 235.335 1537.79 234.783C1537.45 234.231 1536.92 233.955 1536.19 233.955ZM1545.24 242.055H1542.97V228.375H1545.24V242.055ZM1552.03 232.119C1553.29 232.119 1554.24 232.395 1554.89 232.947C1555.55 233.487 1555.88 234.339 1555.88 235.503V242.055H1554.28L1553.83 240.705H1553.76C1553.48 241.053 1553.19 241.347 1552.89 241.587C1552.6 241.815 1552.27 241.977 1551.88 242.073C1551.51 242.181 1551.06 242.235 1550.52 242.235C1549.94 242.235 1549.42 242.127 1548.95 241.911C1548.49 241.695 1548.13 241.365 1547.87 240.921C1547.61 240.465 1547.47 239.895 1547.47 239.211C1547.47 238.203 1547.84 237.447 1548.57 236.943C1549.32 236.427 1550.44 236.145 1551.94 236.097L1553.63 236.043V235.557C1553.63 234.933 1553.48 234.489 1553.18 234.225C1552.88 233.961 1552.46 233.829 1551.92 233.829C1551.43 233.829 1550.95 233.901 1550.5 234.045C1550.04 234.189 1549.6 234.357 1549.17 234.549L1548.45 232.965C1548.93 232.713 1549.47 232.509 1550.08 232.353C1550.71 232.197 1551.36 232.119 1552.03 232.119ZM1552.44 237.483C1551.45 237.519 1550.76 237.693 1550.37 238.005C1549.99 238.305 1549.8 238.713 1549.8 239.229C1549.8 239.685 1549.93 240.015 1550.21 240.219C1550.49 240.423 1550.84 240.525 1551.27 240.525C1551.93 240.525 1552.49 240.339 1552.95 239.967C1553.4 239.583 1553.63 239.019 1553.63 238.275V237.447L1552.44 237.483ZM1562.5 240.417C1562.79 240.417 1563.07 240.393 1563.33 240.345C1563.59 240.285 1563.84 240.219 1564.07 240.147V241.839C1563.83 241.947 1563.52 242.037 1563.13 242.109C1562.75 242.193 1562.35 242.235 1561.93 242.235C1561.37 242.235 1560.87 242.145 1560.41 241.965C1559.97 241.773 1559.61 241.449 1559.33 240.993C1559.07 240.537 1558.94 239.901 1558.94 239.085V234.009H1557.62V233.019L1559.06 232.227L1559.78 230.157H1561.21V232.299H1563.98V234.009H1561.21V239.067C1561.21 239.523 1561.33 239.865 1561.57 240.093C1561.81 240.309 1562.12 240.417 1562.5 240.417ZM1569.96 232.119C1570.83 232.119 1571.58 232.299 1572.21 232.659C1572.84 233.007 1573.34 233.511 1573.68 234.171C1574.03 234.819 1574.21 235.611 1574.21 236.547V237.699H1567.76C1567.79 238.587 1568.03 239.277 1568.5 239.769C1568.97 240.249 1569.62 240.489 1570.44 240.489C1571.08 240.489 1571.64 240.429 1572.14 240.309C1572.64 240.177 1573.16 239.991 1573.68 239.751V241.569C1573.2 241.797 1572.71 241.965 1572.19 242.073C1571.67 242.181 1571.06 242.235 1570.34 242.235C1569.39 242.235 1568.54 242.055 1567.8 241.695C1567.07 241.323 1566.49 240.765 1566.07 240.021C1565.66 239.277 1565.46 238.353 1565.46 237.249C1565.46 236.133 1565.64 235.197 1566.02 234.441C1566.4 233.673 1566.93 233.097 1567.6 232.713C1568.27 232.317 1569.06 232.119 1569.96 232.119ZM1569.96 233.793C1569.36 233.793 1568.87 233.991 1568.48 234.387C1568.11 234.771 1567.89 235.347 1567.82 236.115H1572.01C1572.01 235.659 1571.93 235.257 1571.78 234.909C1571.63 234.561 1571.41 234.291 1571.11 234.099C1570.81 233.895 1570.43 233.793 1569.96 233.793ZM1583.14 239.229C1583.14 239.877 1582.98 240.429 1582.67 240.885C1582.36 241.329 1581.89 241.665 1581.28 241.893C1580.68 242.121 1579.94 242.235 1579.07 242.235C1578.38 242.235 1577.8 242.187 1577.3 242.091C1576.81 241.995 1576.34 241.845 1575.9 241.641V239.715C1576.38 239.943 1576.91 240.135 1577.5 240.291C1578.09 240.447 1578.64 240.525 1579.14 240.525C1579.76 240.525 1580.21 240.429 1580.49 240.237C1580.77 240.045 1580.9 239.787 1580.9 239.463C1580.9 239.271 1580.85 239.097 1580.74 238.941C1580.63 238.785 1580.42 238.623 1580.11 238.455C1579.8 238.275 1579.33 238.053 1578.69 237.789C1578.07 237.537 1577.54 237.285 1577.12 237.033C1576.72 236.781 1576.4 236.481 1576.19 236.133C1575.98 235.773 1575.88 235.323 1575.88 234.783C1575.88 233.907 1576.23 233.247 1576.93 232.803C1577.62 232.347 1578.54 232.119 1579.68 232.119C1580.28 232.119 1580.84 232.179 1581.37 232.299C1581.91 232.407 1582.45 232.587 1582.99 232.839L1582.27 234.513C1581.83 234.321 1581.38 234.159 1580.94 234.027C1580.51 233.895 1580.06 233.829 1579.61 233.829C1579.12 233.829 1578.74 233.907 1578.49 234.063C1578.24 234.207 1578.11 234.411 1578.11 234.675C1578.11 234.879 1578.17 235.059 1578.29 235.215C1578.43 235.359 1578.65 235.509 1578.96 235.665C1579.28 235.809 1579.74 236.001 1580.33 236.241C1580.92 236.469 1581.41 236.709 1581.82 236.961C1582.24 237.201 1582.57 237.501 1582.79 237.861C1583.02 238.221 1583.14 238.677 1583.14 239.229Z" fill="#525252"/>
<path d="M1438.7 278.055H1437.47V267.415H1438.7V278.055ZM1447.6 274.289C1447.6 274.915 1447.52 275.47 1447.35 275.955C1447.19 276.431 1446.96 276.837 1446.65 277.173C1446.35 277.509 1445.98 277.766 1445.55 277.943C1445.12 278.111 1444.64 278.195 1444.1 278.195C1443.61 278.195 1443.15 278.111 1442.73 277.943C1442.31 277.766 1441.95 277.509 1441.64 277.173C1441.33 276.837 1441.09 276.431 1440.91 275.955C1440.74 275.47 1440.66 274.915 1440.66 274.289C1440.66 273.459 1440.8 272.759 1441.08 272.189C1441.36 271.611 1441.76 271.172 1442.28 270.873C1442.81 270.565 1443.43 270.411 1444.15 270.411C1444.83 270.411 1445.42 270.565 1445.94 270.873C1446.46 271.172 1446.87 271.611 1447.16 272.189C1447.45 272.759 1447.6 273.459 1447.6 274.289ZM1441.93 274.289C1441.93 274.877 1442.01 275.391 1442.16 275.829C1442.32 276.259 1442.56 276.59 1442.89 276.823C1443.21 277.057 1443.63 277.173 1444.13 277.173C1444.64 277.173 1445.05 277.057 1445.38 276.823C1445.7 276.59 1445.94 276.259 1446.09 275.829C1446.25 275.391 1446.33 274.877 1446.33 274.289C1446.33 273.692 1446.25 273.183 1446.09 272.763C1445.93 272.343 1445.69 272.021 1445.36 271.797C1445.05 271.564 1444.63 271.447 1444.12 271.447C1443.35 271.447 1442.8 271.699 1442.45 272.203C1442.11 272.707 1441.93 273.403 1441.93 274.289ZM1453.06 270.411C1453.2 270.411 1453.35 270.421 1453.5 270.439C1453.67 270.449 1453.82 270.467 1453.94 270.495L1453.78 271.629C1453.66 271.601 1453.53 271.578 1453.38 271.559C1453.24 271.541 1453.1 271.531 1452.97 271.531C1452.68 271.531 1452.41 271.592 1452.15 271.713C1451.89 271.835 1451.65 272.007 1451.45 272.231C1451.24 272.446 1451.08 272.707 1450.96 273.015C1450.84 273.323 1450.79 273.669 1450.79 274.051V278.055H1449.56V270.551H1450.56L1450.7 271.923H1450.76C1450.92 271.643 1451.11 271.391 1451.33 271.167C1451.56 270.934 1451.82 270.752 1452.1 270.621C1452.39 270.481 1452.71 270.411 1453.06 270.411ZM1457.96 270.411C1458.61 270.411 1459.16 270.551 1459.62 270.831C1460.08 271.111 1460.44 271.508 1460.68 272.021C1460.93 272.525 1461.06 273.118 1461.06 273.799V274.541H1455.92C1455.94 275.391 1456.15 276.039 1456.56 276.487C1456.98 276.926 1457.57 277.145 1458.31 277.145C1458.79 277.145 1459.21 277.103 1459.57 277.019C1459.95 276.926 1460.33 276.795 1460.72 276.627V277.705C1460.34 277.873 1459.96 277.995 1459.59 278.069C1459.22 278.153 1458.77 278.195 1458.26 278.195C1457.55 278.195 1456.92 278.051 1456.37 277.761C1455.83 277.472 1455.4 277.043 1455.09 276.473C1454.8 275.895 1454.65 275.19 1454.65 274.359C1454.65 273.538 1454.78 272.833 1455.05 272.245C1455.33 271.657 1455.72 271.205 1456.21 270.887C1456.72 270.57 1457.3 270.411 1457.96 270.411ZM1457.95 271.419C1457.36 271.419 1456.9 271.611 1456.55 271.993C1456.21 272.367 1456.01 272.889 1455.95 273.561H1459.77C1459.77 273.132 1459.71 272.759 1459.57 272.441C1459.44 272.124 1459.24 271.877 1458.97 271.699C1458.71 271.513 1458.37 271.419 1457.95 271.419ZM1471.2 270.411C1472.05 270.411 1472.68 270.631 1473.1 271.069C1473.52 271.499 1473.73 272.199 1473.73 273.169V278.055H1472.52V273.225C1472.52 272.637 1472.39 272.194 1472.14 271.895C1471.9 271.597 1471.51 271.447 1470.99 271.447C1470.26 271.447 1469.74 271.657 1469.42 272.077C1469.11 272.497 1468.96 273.109 1468.96 273.911V278.055H1467.74V273.225C1467.74 272.833 1467.69 272.507 1467.57 272.245C1467.46 271.975 1467.29 271.774 1467.07 271.643C1466.85 271.513 1466.56 271.447 1466.2 271.447C1465.7 271.447 1465.3 271.555 1465.01 271.769C1464.72 271.975 1464.51 272.278 1464.38 272.679C1464.26 273.081 1464.2 273.575 1464.2 274.163V278.055H1462.97V270.551H1463.96L1464.14 271.573H1464.21C1464.37 271.312 1464.56 271.097 1464.79 270.929C1465.02 270.752 1465.28 270.621 1465.56 270.537C1465.84 270.453 1466.13 270.411 1466.43 270.411C1467.01 270.411 1467.49 270.514 1467.87 270.719C1468.26 270.925 1468.55 271.242 1468.72 271.671H1468.79C1469.04 271.242 1469.39 270.925 1469.81 270.719C1470.25 270.514 1470.72 270.411 1471.2 270.411ZM1480.92 270.551V278.055H1479.69V270.551H1480.92ZM1480.32 267.737C1480.51 267.737 1480.67 267.803 1480.81 267.933C1480.96 268.055 1481.03 268.251 1481.03 268.521C1481.03 268.783 1480.96 268.979 1480.81 269.109C1480.67 269.24 1480.51 269.305 1480.32 269.305C1480.11 269.305 1479.94 269.24 1479.8 269.109C1479.66 268.979 1479.59 268.783 1479.59 268.521C1479.59 268.251 1479.66 268.055 1479.8 267.933C1479.94 267.803 1480.11 267.737 1480.32 267.737ZM1486.87 270.411C1487.79 270.411 1488.53 270.733 1489.09 271.377C1489.66 272.021 1489.95 272.992 1489.95 274.289C1489.95 275.139 1489.82 275.857 1489.56 276.445C1489.3 277.024 1488.95 277.463 1488.48 277.761C1488.02 278.051 1487.48 278.195 1486.85 278.195C1486.47 278.195 1486.13 278.144 1485.83 278.041C1485.53 277.939 1485.28 277.808 1485.06 277.649C1484.86 277.481 1484.68 277.299 1484.53 277.103H1484.45C1484.47 277.262 1484.48 277.463 1484.5 277.705C1484.52 277.948 1484.53 278.158 1484.53 278.335V281.415H1483.3V270.551H1484.31L1484.47 271.573H1484.53C1484.68 271.359 1484.86 271.163 1485.06 270.985C1485.28 270.808 1485.53 270.668 1485.82 270.565C1486.12 270.463 1486.47 270.411 1486.87 270.411ZM1486.64 271.447C1486.14 271.447 1485.73 271.545 1485.43 271.741C1485.12 271.928 1484.89 272.213 1484.75 272.595C1484.61 272.978 1484.54 273.463 1484.53 274.051V274.289C1484.53 274.905 1484.6 275.428 1484.73 275.857C1484.86 276.287 1485.08 276.613 1485.38 276.837C1485.7 277.061 1486.13 277.173 1486.67 277.173C1487.13 277.173 1487.5 277.047 1487.79 276.795C1488.09 276.543 1488.31 276.203 1488.45 275.773C1488.6 275.335 1488.67 274.835 1488.67 274.275C1488.67 273.417 1488.51 272.731 1488.17 272.217C1487.84 271.704 1487.34 271.447 1486.64 271.447ZM1496.8 275.983C1496.8 276.469 1496.68 276.875 1496.43 277.201C1496.19 277.528 1495.85 277.775 1495.4 277.943C1494.95 278.111 1494.42 278.195 1493.8 278.195C1493.28 278.195 1492.83 278.153 1492.44 278.069C1492.07 277.985 1491.74 277.869 1491.45 277.719V276.599C1491.75 276.749 1492.11 276.889 1492.53 277.019C1492.96 277.141 1493.39 277.201 1493.83 277.201C1494.46 277.201 1494.91 277.103 1495.19 276.907C1495.47 276.702 1495.61 276.431 1495.61 276.095C1495.61 275.909 1495.56 275.741 1495.45 275.591C1495.35 275.442 1495.16 275.293 1494.89 275.143C1494.63 274.994 1494.25 274.826 1493.76 274.639C1493.27 274.453 1492.86 274.266 1492.51 274.079C1492.17 273.893 1491.9 273.669 1491.72 273.407C1491.53 273.146 1491.44 272.81 1491.44 272.399C1491.44 271.765 1491.69 271.275 1492.21 270.929C1492.73 270.584 1493.41 270.411 1494.25 270.411C1494.71 270.411 1495.13 270.458 1495.52 270.551C1495.93 270.635 1496.3 270.757 1496.64 270.915L1496.22 271.895C1495.91 271.765 1495.58 271.653 1495.23 271.559C1494.88 271.466 1494.53 271.419 1494.17 271.419C1493.66 271.419 1493.27 271.503 1493 271.671C1492.74 271.83 1492.61 272.049 1492.61 272.329C1492.61 272.535 1492.67 272.712 1492.79 272.861C1492.92 273.001 1493.12 273.141 1493.4 273.281C1493.69 273.412 1494.07 273.571 1494.54 273.757C1495.02 273.935 1495.43 274.117 1495.76 274.303C1496.1 274.49 1496.35 274.719 1496.53 274.989C1496.71 275.251 1496.8 275.582 1496.8 275.983ZM1504.88 270.551V278.055H1503.88L1503.69 277.061H1503.64C1503.48 277.323 1503.27 277.537 1503.02 277.705C1502.77 277.873 1502.49 277.995 1502.2 278.069C1501.9 278.153 1501.58 278.195 1501.26 278.195C1500.66 278.195 1500.16 278.102 1499.75 277.915C1499.34 277.719 1499.04 277.421 1498.84 277.019C1498.63 276.618 1498.53 276.1 1498.53 275.465V270.551H1499.77V275.381C1499.77 275.979 1499.91 276.427 1500.18 276.725C1500.45 277.024 1500.87 277.173 1501.44 277.173C1502 277.173 1502.44 277.071 1502.76 276.865C1503.08 276.651 1503.31 276.343 1503.44 275.941C1503.58 275.531 1503.65 275.036 1503.65 274.457V270.551H1504.88ZM1515.5 270.411C1516.35 270.411 1516.98 270.631 1517.4 271.069C1517.82 271.499 1518.03 272.199 1518.03 273.169V278.055H1516.81V273.225C1516.81 272.637 1516.69 272.194 1516.44 271.895C1516.19 271.597 1515.81 271.447 1515.29 271.447C1514.56 271.447 1514.04 271.657 1513.72 272.077C1513.41 272.497 1513.26 273.109 1513.26 273.911V278.055H1512.04V273.225C1512.04 272.833 1511.98 272.507 1511.87 272.245C1511.76 271.975 1511.59 271.774 1511.37 271.643C1511.14 271.513 1510.85 271.447 1510.5 271.447C1510 271.447 1509.6 271.555 1509.31 271.769C1509.02 271.975 1508.81 272.278 1508.68 272.679C1508.56 273.081 1508.5 273.575 1508.5 274.163V278.055H1507.27V270.551H1508.26L1508.44 271.573H1508.51C1508.67 271.312 1508.86 271.097 1509.09 270.929C1509.32 270.752 1509.58 270.621 1509.86 270.537C1510.14 270.453 1510.43 270.411 1510.72 270.411C1511.3 270.411 1511.78 270.514 1512.17 270.719C1512.56 270.925 1512.84 271.242 1513.02 271.671H1513.09C1513.34 271.242 1513.68 270.925 1514.11 270.719C1514.55 270.514 1515.01 270.411 1515.5 270.411ZM1527 278.195C1526.33 278.195 1525.74 278.06 1525.22 277.789C1524.71 277.519 1524.3 277.099 1524 276.529C1523.71 275.96 1523.57 275.232 1523.57 274.345C1523.57 273.421 1523.72 272.67 1524.03 272.091C1524.34 271.513 1524.75 271.088 1525.27 270.817C1525.81 270.547 1526.41 270.411 1527.08 270.411C1527.46 270.411 1527.83 270.453 1528.19 270.537C1528.54 270.612 1528.83 270.705 1529.05 270.817L1528.68 271.839C1528.45 271.755 1528.19 271.676 1527.89 271.601C1527.59 271.527 1527.31 271.489 1527.05 271.489C1526.55 271.489 1526.13 271.597 1525.81 271.811C1525.48 272.026 1525.24 272.343 1525.08 272.763C1524.92 273.183 1524.84 273.706 1524.84 274.331C1524.84 274.929 1524.92 275.437 1525.08 275.857C1525.24 276.277 1525.48 276.595 1525.79 276.809C1526.11 277.024 1526.51 277.131 1526.98 277.131C1527.39 277.131 1527.75 277.089 1528.06 277.005C1528.38 276.921 1528.67 276.819 1528.93 276.697V277.789C1528.68 277.92 1528.4 278.018 1528.09 278.083C1527.79 278.158 1527.43 278.195 1527 278.195ZM1537.24 274.289C1537.24 274.915 1537.15 275.47 1536.98 275.955C1536.83 276.431 1536.59 276.837 1536.28 277.173C1535.99 277.509 1535.62 277.766 1535.18 277.943C1534.75 278.111 1534.27 278.195 1533.74 278.195C1533.24 278.195 1532.78 278.111 1532.36 277.943C1531.94 277.766 1531.58 277.509 1531.27 277.173C1530.96 276.837 1530.72 276.431 1530.54 275.955C1530.38 275.47 1530.29 274.915 1530.29 274.289C1530.29 273.459 1530.43 272.759 1530.71 272.189C1530.99 271.611 1531.39 271.172 1531.92 270.873C1532.44 270.565 1533.06 270.411 1533.78 270.411C1534.46 270.411 1535.06 270.565 1535.57 270.873C1536.09 271.172 1536.5 271.611 1536.79 272.189C1537.09 272.759 1537.24 273.459 1537.24 274.289ZM1531.57 274.289C1531.57 274.877 1531.64 275.391 1531.79 275.829C1531.95 276.259 1532.19 276.59 1532.52 276.823C1532.85 277.057 1533.26 277.173 1533.76 277.173C1534.27 277.173 1534.68 277.057 1535.01 276.823C1535.34 276.59 1535.58 276.259 1535.72 275.829C1535.88 275.391 1535.96 274.877 1535.96 274.289C1535.96 273.692 1535.88 273.183 1535.72 272.763C1535.57 272.343 1535.32 272.021 1535 271.797C1534.68 271.564 1534.26 271.447 1533.75 271.447C1532.99 271.447 1532.43 271.699 1532.08 272.203C1531.74 272.707 1531.57 273.403 1531.57 274.289ZM1541.7 277.187C1541.88 277.187 1542.07 277.173 1542.27 277.145C1542.47 277.108 1542.62 277.071 1542.75 277.033V277.971C1542.61 278.037 1542.43 278.088 1542.19 278.125C1541.94 278.172 1541.71 278.195 1541.49 278.195C1541.09 278.195 1540.73 278.13 1540.39 277.999C1540.07 277.859 1539.8 277.621 1539.6 277.285C1539.39 276.949 1539.29 276.478 1539.29 275.871V271.503H1538.22V270.915L1539.3 270.425L1539.79 268.829H1540.52V270.551H1542.69V271.503H1540.52V275.843C1540.52 276.301 1540.63 276.641 1540.84 276.865C1541.07 277.08 1541.35 277.187 1541.7 277.187ZM1547.86 270.411C1548.76 270.411 1549.43 270.631 1549.89 271.069C1550.35 271.499 1550.58 272.199 1550.58 273.169V278.055H1549.36V273.253C1549.36 272.647 1549.22 272.194 1548.95 271.895C1548.68 271.597 1548.26 271.447 1547.68 271.447C1546.85 271.447 1546.27 271.681 1545.96 272.147C1545.64 272.614 1545.48 273.286 1545.48 274.163V278.055H1544.25V270.551H1545.24L1545.42 271.573H1545.49C1545.66 271.312 1545.87 271.097 1546.11 270.929C1546.36 270.752 1546.64 270.621 1546.94 270.537C1547.23 270.453 1547.54 270.411 1547.86 270.411ZM1555.41 277.187C1555.6 277.187 1555.79 277.173 1555.98 277.145C1556.18 277.108 1556.34 277.071 1556.46 277.033V277.971C1556.33 278.037 1556.14 278.088 1555.9 278.125C1555.66 278.172 1555.42 278.195 1555.2 278.195C1554.81 278.195 1554.44 278.13 1554.11 277.999C1553.78 277.859 1553.51 277.621 1553.31 277.285C1553.1 276.949 1553 276.478 1553 275.871V271.503H1551.94V270.915L1553.01 270.425L1553.5 268.829H1554.23V270.551H1556.4V271.503H1554.23V275.843C1554.23 276.301 1554.34 276.641 1554.55 276.865C1554.78 277.08 1555.06 277.187 1555.41 277.187ZM1560.86 270.411C1561.5 270.411 1562.05 270.551 1562.51 270.831C1562.98 271.111 1563.33 271.508 1563.57 272.021C1563.83 272.525 1563.95 273.118 1563.95 273.799V274.541H1558.81C1558.83 275.391 1559.05 276.039 1559.46 276.487C1559.88 276.926 1560.46 277.145 1561.21 277.145C1561.68 277.145 1562.1 277.103 1562.47 277.019C1562.84 276.926 1563.22 276.795 1563.62 276.627V277.705C1563.23 277.873 1562.86 277.995 1562.48 278.069C1562.11 278.153 1561.67 278.195 1561.15 278.195C1560.44 278.195 1559.81 278.051 1559.26 277.761C1558.72 277.472 1558.3 277.043 1557.99 276.473C1557.69 275.895 1557.54 275.19 1557.54 274.359C1557.54 273.538 1557.68 272.833 1557.95 272.245C1558.23 271.657 1558.61 271.205 1559.11 270.887C1559.61 270.57 1560.2 270.411 1560.86 270.411ZM1560.84 271.419C1560.26 271.419 1559.79 271.611 1559.44 271.993C1559.11 272.367 1558.91 272.889 1558.84 273.561H1562.66C1562.66 273.132 1562.6 272.759 1562.47 272.441C1562.34 272.124 1562.14 271.877 1561.87 271.699C1561.61 271.513 1561.26 271.419 1560.84 271.419ZM1569.48 270.411C1570.37 270.411 1571.05 270.631 1571.51 271.069C1571.96 271.499 1572.19 272.199 1572.19 273.169V278.055H1570.97V273.253C1570.97 272.647 1570.84 272.194 1570.57 271.895C1570.3 271.597 1569.87 271.447 1569.29 271.447C1568.46 271.447 1567.89 271.681 1567.57 272.147C1567.25 272.614 1567.1 273.286 1567.1 274.163V278.055H1565.86V270.551H1566.86L1567.04 271.573H1567.11C1567.28 271.312 1567.48 271.097 1567.73 270.929C1567.98 270.752 1568.25 270.621 1568.55 270.537C1568.85 270.453 1569.16 270.411 1569.48 270.411ZM1577.02 277.187C1577.21 277.187 1577.4 277.173 1577.6 277.145C1577.79 277.108 1577.95 277.071 1578.07 277.033V277.971C1577.94 278.037 1577.76 278.088 1577.51 278.125C1577.27 278.172 1577.04 278.195 1576.81 278.195C1576.42 278.195 1576.06 278.13 1575.72 277.999C1575.39 277.859 1575.13 277.621 1574.92 277.285C1574.72 276.949 1574.62 276.478 1574.62 275.871V271.503H1573.55V270.915L1574.63 270.425L1575.12 268.829H1575.85V270.551H1578.02V271.503H1575.85V275.843C1575.85 276.301 1575.95 276.641 1576.17 276.865C1576.39 277.08 1576.68 277.187 1577.02 277.187Z" fill="#525252"/>
</svg>
