<svg width="193" height="48" viewBox="0 0 193 48" fill="none" xmlns="http://www.w3.org/2000/svg">
<g clip-path="url(#clip0_17650_3524)">
<path d="M76.6556 29.0511C76.6556 31.2327 77.7549 34.183 82.614 34.183C87.4732 34.183 88.5724 31.2327 88.5724 29.0511V25.3923H83.7133V29.4013C83.7133 30.0394 83.7133 30.9137 82.6119 30.9137C81.5106 30.9137 81.5106 30.0394 81.5106 29.4013V19.9413C81.5106 19.3011 81.5106 18.4268 82.6119 18.4268C83.7133 18.4268 83.7133 19.3011 83.7133 19.9413V22.5995H88.5724V20.2915C88.5724 18.1077 87.469 15.1595 82.614 15.1595C77.759 15.1595 76.6556 18.1077 76.6556 20.2915V29.0511Z" fill="#32373F"/>
<path d="M89.9773 30.694C89.9773 33.6049 91.5908 33.953 93.681 33.953H94.8364V18.9696H96.0481V15.3584H94.8364V10.703H89.9773V15.3584H88.7615V18.9696H89.9773V30.694Z" fill="#32373F"/>
<path fill-rule="evenodd" clip-rule="evenodd" d="M96.7268 33.9697H101.586V15.3709H96.7268V33.9697ZM96.7268 14.1485H101.586V10.7155H96.7268V14.1506V14.1485Z" fill="#32373F"/>
<path fill-rule="evenodd" clip-rule="evenodd" d="M105.204 33.9696H110.886L114.188 15.3708H109.331L108.117 27.2735H108.059L106.93 15.3708H101.929L105.204 33.9696Z" fill="#32373F"/>
<path fill-rule="evenodd" clip-rule="evenodd" d="M63.7415 29.0511C63.7415 31.2327 64.8407 34.183 69.6978 34.183C74.5548 34.183 75.6603 31.2348 75.6603 29.0511V27.0725H70.7991V29.4013C70.7991 30.0394 70.7991 30.9137 69.6978 30.9137C68.5964 30.9137 68.5964 30.0394 68.5964 29.4013V25.413H75.6603V20.2915C75.6603 18.1077 74.559 15.1595 69.6978 15.1595C64.8365 15.1595 63.7415 18.1077 63.7415 20.2915V29.0532V29.0511ZM68.5964 19.9392C68.5964 19.299 68.5964 18.4268 69.6978 18.4268C70.7991 18.4268 70.7991 19.299 70.7991 19.9392V21.9779H68.5964V19.9392Z" fill="#32373F"/>
<path fill-rule="evenodd" clip-rule="evenodd" d="M114.015 29.0511C114.015 31.2327 115.114 34.183 119.973 34.183C124.833 34.183 125.934 31.2348 125.934 29.0511V27.0725H121.077V29.4013C121.077 30.0394 121.077 30.9137 119.975 30.9137C118.874 30.9137 118.874 30.0394 118.874 29.4013V25.413H125.936V20.2915C125.936 18.1077 124.835 15.1595 119.975 15.1595C115.116 15.1595 114.017 18.1077 114.017 20.2915V29.0532L114.015 29.0511ZM118.872 19.9392C118.872 19.299 118.872 18.4247 119.973 18.4247C121.075 18.4247 121.075 19.299 121.075 19.9392V21.9779H118.87V19.9392" fill="#32373F"/>
<path fill-rule="evenodd" clip-rule="evenodd" d="M35.2737 16.5953C35.2737 15.808 35.2737 14.4696 36.7726 14.4696C38.2716 14.4696 38.2695 15.808 38.2695 16.5953V28.0919C38.2695 28.703 38.2695 30.2134 36.7726 30.2134C35.2758 30.2134 35.2737 28.703 35.2737 28.0919V16.5953ZM30.0773 27.6257C30.0773 31.759 32.6463 34.183 36.7706 34.183C40.8948 34.183 43.4618 31.759 43.4618 27.6257V17.0594C43.4618 12.518 40.6387 10.5 36.7706 10.5C32.9024 10.5 30.0773 12.518 30.0773 17.0594V27.6257Z" fill="#32373F"/>
<path fill-rule="evenodd" clip-rule="evenodd" d="M49.5843 29.3763C49.5843 30.0165 49.5843 30.8908 50.6856 30.8908C51.7869 30.8908 51.789 30.0165 51.789 29.3763V19.9164C51.789 19.2762 51.789 18.4019 50.6856 18.4019C49.5822 18.4019 49.5843 19.2741 49.5843 19.9164L49.5718 29.3763H49.5843ZM49.5718 33.6132V33.9571H44.7147V10.703H49.5718V15.6008C49.9257 15.346 50.6585 15.1326 51.0541 15.1326C55.6072 15.1326 56.644 18.0828 56.644 20.2645V29.0241C56.644 31.2058 55.6426 34.156 51.1936 34.156C50.798 34.156 49.9257 33.9758 49.5676 33.6112H49.5718" fill="#32373F"/>
<path d="M57.7786 37.4834L58.9278 37.5C62.3462 37.5 62.6377 35.4199 62.6377 32.625V15.3708H57.7806V37.4834" fill="#32373F"/>
<path d="M57.7786 10.7155H62.6377V14.1485H57.7786V10.7155Z" fill="#32373F"/>
<path d="M141.261 28.9517C141.261 29.6581 141.157 30.3377 140.945 30.9903C140.732 31.643 140.414 32.2231 139.989 32.7265C139.564 33.23 139.042 33.6319 138.421 33.9323C137.801 34.2327 137.091 34.384 136.294 34.384C135.051 34.384 134.01 34.0773 133.167 33.4599C132.324 32.8425 131.724 31.9517 131.368 30.7873L133.017 30.3087C133.267 31.0504 133.66 31.6492 134.203 32.107C134.745 32.5649 135.415 32.7949 136.212 32.7928C136.762 32.7928 137.241 32.6727 137.649 32.4344C138.057 32.1961 138.394 31.8874 138.659 31.5062C138.925 31.1271 139.123 30.7065 139.256 30.2486C139.389 29.7887 139.454 29.3391 139.454 28.8978C139.454 27.6257 139.11 26.6602 138.426 25.9993C137.741 25.3384 136.858 25.0069 135.777 25.009H135.219V23.5276H135.804C136.762 23.5276 137.534 23.1982 138.12 22.5435C138.705 21.8909 138.996 21.0062 138.994 19.8936C138.994 19.5062 138.94 19.1167 138.834 18.7293C138.727 18.3418 138.557 17.9876 138.328 17.6706C138.097 17.3536 137.807 17.0925 137.462 16.8895C137.116 16.6865 136.693 16.5849 136.198 16.587C135.63 16.587 135.122 16.7528 134.668 17.078C134.216 17.4054 133.866 17.8508 133.618 18.4164L132.022 17.8881C132.411 16.9164 133.004 16.1913 133.802 15.7148C134.599 15.2362 135.432 14.9979 136.302 14.9979C136.993 14.9979 137.616 15.116 138.165 15.3543C138.715 15.5925 139.179 15.922 139.554 16.3467C139.931 16.7693 140.224 17.2686 140.435 17.8425C140.645 18.4164 140.751 19.038 140.751 19.7093C140.751 20.221 140.691 20.7203 140.568 21.2051C140.445 21.6899 140.266 22.1374 140.029 22.5435C139.791 22.9496 139.494 23.2997 139.133 23.5898C138.773 23.8819 138.346 24.0808 137.855 24.1865V24.2403C138.884 24.433 139.71 24.953 140.33 25.8004C140.953 26.6478 141.263 27.6982 141.265 28.9517H141.261Z" fill="#0B77D8"/>
<path d="M153.234 29.2562C153.234 30.087 153.111 30.8225 152.863 31.4669C152.616 32.1112 152.274 32.6582 151.841 33.1098C151.406 33.5615 150.898 33.9054 150.313 34.1437C149.728 34.3819 149.108 34.5021 148.45 34.5042C147.492 34.5042 146.609 34.3032 145.801 33.8971C144.994 33.4931 144.34 32.9544 143.844 32.2832L144.987 30.9841C145.395 31.5663 145.912 32.0159 146.532 32.3329C147.153 32.6499 147.783 32.8073 148.423 32.8073C149.274 32.8073 149.988 32.5048 150.563 31.904C151.139 31.3032 151.427 30.4475 151.425 29.335C151.425 28.8046 151.335 28.3384 151.156 27.9323C150.979 27.5263 150.738 27.1658 150.436 26.8467C150.134 26.5297 149.792 26.2479 149.409 26.0014C149.026 25.7548 148.625 25.5249 148.198 25.3135C147.684 25.067 147.194 24.7894 146.734 24.4807C146.272 24.172 145.868 23.8156 145.522 23.4095C145.177 23.0035 144.896 22.5228 144.683 21.9675C144.469 21.4123 144.363 20.7638 144.363 20.0221C144.363 19.1582 144.494 18.4019 144.761 17.7576C145.025 17.1133 145.385 16.5746 145.837 16.1416C146.289 15.7086 146.799 15.3854 147.365 15.174C147.933 14.9606 148.527 14.855 149.147 14.855C149.999 14.855 150.767 14.9979 151.45 15.2901C152.133 15.5801 152.705 16.0338 153.167 16.6513L152.024 17.9503C151.668 17.4385 151.252 17.0739 150.773 16.8522C150.294 16.6326 149.77 16.5228 149.203 16.5228C148.831 16.5228 148.462 16.5891 148.1 16.7217C147.736 16.8543 147.413 17.0635 147.13 17.3453C146.847 17.6292 146.615 17.9896 146.439 18.4309C146.262 18.8722 146.174 19.3943 146.174 19.9931C146.174 20.5235 146.255 20.9814 146.416 21.3709C146.576 21.7583 146.792 22.1022 147.069 22.4026C147.344 22.703 147.665 22.9682 148.027 23.1961C148.391 23.4261 148.768 23.6374 149.16 23.8301C149.657 24.0767 150.148 24.3584 150.638 24.6754C151.125 24.9924 151.566 25.3633 151.956 25.7859C152.347 26.2086 152.657 26.7037 152.888 27.2673C153.119 27.8329 153.236 28.4938 153.236 29.2521L153.234 29.2562Z" fill="#0B77D8"/>
<path d="M156.619 34.0463L156.598 15.2983H158.462L158.483 34.0442H156.619V34.0463Z" fill="#0B77D8"/>
<path d="M170.455 34.0297L166.641 25.7196L162.846 34.0379H160.877L165.627 24.1574L161.333 15.29H163.302L166.689 22.6989L170.033 15.2797H171.948L167.701 24.1802L172.475 34.0255H170.453L170.455 34.0297Z" fill="#0B77D8"/>
<path d="M178.127 16.8605L178.146 34.0214H176.309L176.291 16.8647L172.672 16.8688V15.2797L181.77 15.2693V16.8584L178.127 16.8626V16.8605Z" fill="#0B77D8"/>
<path d="M188.276 26.3039L188.285 34.009H186.475L186.467 26.3059L181.772 15.2693H183.794L187.371 24.3999L191.006 15.259H193.002L188.278 26.3039H188.276Z" fill="#0B77D8"/>
<path d="M23.2312 10.5127H0.768773C0.346578 10.5127 0 10.8593 0 11.2815V33.7439C0 34.1661 0.346578 34.5127 0.768773 34.5127H23.2312C23.6534 34.5127 24 34.1661 24 33.7439V11.2815C24 10.8593 23.6555 10.5127 23.2312 10.5127ZM15.2956 16.2785C16.2325 16.7721 17.039 17.4779 17.6566 18.3307C17.7322 18.4357 17.6566 18.5806 17.5305 18.5806L15.491 18.5869C15.4112 18.5869 15.3461 18.5281 15.3356 18.4504L15.0688 16.4381C15.052 16.3121 15.1864 16.2197 15.2977 16.2785H15.2956ZM8.53212 16.5011C9.37441 15.9823 10.3364 15.642 11.3699 15.5328C11.498 15.5181 11.5883 15.6568 11.5232 15.7681L10.5549 17.4338C10.515 17.501 10.433 17.5304 10.3616 17.501L8.55733 16.7826C8.4376 16.7343 8.42289 16.5705 8.53212 16.5032V16.5011ZM6.30142 17.02L7.69613 17.5745L7.9965 17.6942L9.84702 18.4315C9.91423 18.4588 9.94154 18.5386 9.90583 18.5995L8.4607 21.0844C8.39979 21.1894 8.24646 21.1873 8.18764 21.0823L6.06196 17.2825C5.98215 17.1271 6.13758 16.9527 6.30352 17.0179L6.30142 17.02ZM5.85192 19.5699C5.90443 19.4523 6.07037 19.4439 6.13338 19.5573L7.07649 21.244C7.1143 21.3112 7.0975 21.3952 7.03868 21.4436L5.53054 22.6618C5.42972 22.7437 5.27849 22.6744 5.27429 22.5442C5.27219 22.4728 5.27009 22.3993 5.27009 22.3279C5.27009 21.3469 5.47803 20.4143 5.84982 19.5699H5.85192ZM4.62734 25.0858C4.4383 25.0858 4.35848 24.8463 4.50761 24.7308L5.73009 23.7898L7.85367 22.1535L8.06371 21.9939C8.11203 21.9561 8.18134 21.9855 8.18974 22.0443L8.60984 25.0039C8.61614 25.0501 8.58043 25.0942 8.53212 25.0942H6.97357L6.17119 25.0921L4.62944 25.0858H4.62734ZM8.83039 28.3289C7.95029 27.8479 7.18992 27.1778 6.59758 26.3755C6.51987 26.2704 6.59548 26.1255 6.72361 26.1255L8.62874 26.1318C8.70646 26.1318 8.77367 26.1885 8.78418 26.2662L9.05934 28.1714C9.07824 28.2995 8.94171 28.394 8.82829 28.331L8.83039 28.3289ZM10.7334 30.0513C10.641 30.2046 10.4057 30.1584 10.3805 29.982L10.1642 28.4969L9.7903 25.9344L9.67688 25.1614L9.66638 25.0921L9.39751 23.2458L9.21057 21.9645C9.20427 21.9225 9.21267 21.8784 9.23578 21.8405L10.1054 20.3429L10.954 18.8831L11.0002 18.8033L11.3804 18.15L12.6827 15.9109L13.4325 14.6212C13.5249 14.4637 13.7623 14.512 13.7875 14.6926L13.987 16.1693L14.3441 18.8138L14.4176 19.3662L14.4534 19.6329L14.6991 21.4478L14.905 22.9706C14.9113 23.0126 14.9008 23.0567 14.8797 23.0945L14.3168 24.0397L13.2897 25.7642L13.1805 25.947L12.8654 26.4742L11.5001 28.7658L10.7334 30.0555V30.0513ZM15.7241 28.1315C14.8503 28.6776 13.8421 29.0326 12.7625 29.1334C12.6343 29.146 12.5461 29.0074 12.6112 28.896L13.651 27.1421C13.6909 27.0749 13.7749 27.0476 13.8463 27.077L15.7031 27.85C15.8208 27.8983 15.8334 28.06 15.7262 28.1294L15.7241 28.1315ZM17.8414 27.6147L16.4635 27.0497L15.7472 26.7556L14.4429 26.2116C14.3546 26.1738 14.3189 26.0688 14.3672 25.9869L15.722 23.7016C15.783 23.5986 15.9342 23.5986 15.993 23.7016L16.0497 23.8024L17.3373 26.0499L18.0788 27.3417C18.1691 27.4992 18.0095 27.682 17.8414 27.6126V27.6147ZM18.3308 25.1677C18.2783 25.2832 18.1145 25.2916 18.0515 25.1803L17.0243 23.4012C16.9844 23.334 17.0012 23.2479 17.0642 23.1995L18.6879 21.9309C18.7887 21.8531 18.9358 21.9204 18.9421 22.0485C18.9463 22.1409 18.9484 22.2333 18.9484 22.3279C18.9484 23.3403 18.7278 24.3023 18.3329 25.1677H18.3308ZM19.6163 19.9207L19.4588 20.0425L18.4779 20.8071L18.3623 20.8974L16.2556 22.5358L16.14 22.6261C16.0434 22.6996 15.9048 22.6429 15.888 22.5232L15.5309 19.8283C15.5183 19.7338 15.5918 19.6498 15.6863 19.6498L18.7803 19.6392H19.5218C19.6709 19.6392 19.736 19.8283 19.6184 19.9207H19.6163Z" fill="url(#paint0_linear_17650_3524)"/>
</g>
<defs>
<linearGradient id="paint0_linear_17650_3524" x1="20.0553" y1="36.464" x2="3.94469" y2="8.56136" gradientUnits="userSpaceOnUse">
<stop stop-color="#54A0E4"/>
<stop offset="0.49" stop-color="#0B77D8"/>
<stop offset="1" stop-color="#0347BF"/>
</linearGradient>
<clipPath id="clip0_17650_3524">
<rect width="193" height="27" fill="white" transform="translate(0 10.5)"/>
</clipPath>
</defs>
</svg>
