<svg width="205" height="44" viewBox="0 0 205 44" fill="none" xmlns="http://www.w3.org/2000/svg">
<rect width="205" height="44" rx="2" fill="#3560C1"/>
<path d="M26.75 21.25V16H25.25V21.25H20V22.75H25.25V28H26.75V22.75H32V21.25H26.75Z" fill="white"/>
<path d="M48.8216 17.076C50.3149 17.076 51.4029 17.38 52.0856 17.988C52.7682 18.5853 53.1096 19.4227 53.1096 20.5C53.1096 20.98 53.0296 21.4387 52.8696 21.876C52.7202 22.3133 52.4696 22.708 52.1176 23.06C51.7656 23.4013 51.2962 23.6733 50.7096 23.876C50.1336 24.068 49.4242 24.164 48.5816 24.164H47.3496V28.5H45.6216V17.076H48.8216ZM48.6936 18.532H47.3496V22.708H48.3896C49.0402 22.708 49.5842 22.6387 50.0216 22.5C50.4589 22.3507 50.7842 22.1213 50.9976 21.812C51.2216 21.492 51.3336 21.076 51.3336 20.564C51.3336 19.8813 51.1202 19.3747 50.6936 19.044C50.2776 18.7027 49.6109 18.532 48.6936 18.532ZM59.4824 19.716C59.6318 19.716 59.7971 19.7267 59.9784 19.748C60.1598 19.7587 60.3091 19.7747 60.4264 19.796L60.2504 21.38C60.1331 21.348 59.9944 21.3213 59.8344 21.3C59.6744 21.2787 59.5251 21.268 59.3864 21.268C59.0664 21.268 58.7571 21.332 58.4584 21.46C58.1704 21.5773 57.9091 21.7533 57.6744 21.988C57.4398 22.212 57.2531 22.4893 57.1144 22.82C56.9864 23.1507 56.9224 23.5293 56.9224 23.956V28.5H55.2264V19.876H56.5704L56.7944 21.412H56.8584C57.0398 21.1027 57.2584 20.82 57.5144 20.564C57.7704 20.308 58.0638 20.1053 58.3944 19.956C58.7251 19.796 59.0878 19.716 59.4824 19.716ZM63.7193 19.876V28.5H62.0233V19.876H63.7193ZM62.8873 16.596C63.1433 16.596 63.3673 16.6707 63.5593 16.82C63.7513 16.9693 63.8473 17.22 63.8473 17.572C63.8473 17.9133 63.7513 18.164 63.5593 18.324C63.3673 18.4733 63.1433 18.548 62.8873 18.548C62.61 18.548 62.3753 18.4733 62.1833 18.324C62.002 18.164 61.9113 17.9133 61.9113 17.572C61.9113 17.22 62.002 16.9693 62.1833 16.82C62.3753 16.6707 62.61 16.596 62.8873 16.596ZM76.0467 19.716C77.0174 19.716 77.748 19.9667 78.2387 20.468C78.7294 20.9693 78.9747 21.7747 78.9747 22.884V28.5H77.2787V23.108C77.2787 22.4467 77.1454 21.9507 76.8787 21.62C76.6227 21.2787 76.2174 21.108 75.6627 21.108C74.8947 21.108 74.3454 21.348 74.0147 21.828C73.684 22.2973 73.5187 22.98 73.5187 23.876V28.5H71.8387V23.108C71.8387 22.6707 71.7747 22.3027 71.6467 22.004C71.5294 21.7053 71.3534 21.4813 71.1187 21.332C70.884 21.1827 70.58 21.108 70.2067 21.108C69.6734 21.108 69.252 21.2253 68.9427 21.46C68.6334 21.6947 68.4094 22.0413 68.2707 22.5C68.1427 22.948 68.0787 23.4973 68.0787 24.148V28.5H66.3827V19.876H67.7267L67.9667 21.028H68.0627C68.244 20.7293 68.4627 20.484 68.7187 20.292C68.9854 20.1 69.2787 19.956 69.5987 19.86C69.9187 19.764 70.2494 19.716 70.5907 19.716C71.2414 19.716 71.7907 19.8333 72.2387 20.068C72.6867 20.292 73.012 20.6387 73.2147 21.108H73.3427C73.62 20.628 74.004 20.276 74.4947 20.052C74.9854 19.828 75.5027 19.716 76.0467 19.716ZM84.9142 19.716C86.0022 19.716 86.8129 19.956 87.3462 20.436C87.8795 20.9053 88.1462 21.6467 88.1462 22.66V28.5H86.9462L86.6102 27.3H86.5462C86.3009 27.6093 86.0449 27.8653 85.7782 28.068C85.5222 28.2707 85.2235 28.42 84.8822 28.516C84.5515 28.612 84.1462 28.66 83.6662 28.66C83.1542 28.66 82.6902 28.5693 82.2742 28.388C81.8689 28.196 81.5489 27.908 81.3142 27.524C81.0795 27.1293 80.9622 26.6387 80.9622 26.052C80.9622 25.1773 81.2929 24.5107 81.9542 24.052C82.6262 23.5933 83.6449 23.3427 85.0102 23.3L86.4822 23.252V22.772C86.4822 22.132 86.3382 21.684 86.0502 21.428C85.7622 21.172 85.3569 21.044 84.8342 21.044C84.3862 21.044 83.9595 21.108 83.5542 21.236C83.1489 21.364 82.7649 21.5187 82.4022 21.7L81.8582 20.468C82.2635 20.2547 82.7275 20.0787 83.2502 19.94C83.7835 19.7907 84.3382 19.716 84.9142 19.716ZM85.3142 24.388C84.3329 24.4307 83.6502 24.596 83.2662 24.884C82.8929 25.1613 82.7062 25.556 82.7062 26.068C82.7062 26.516 82.8395 26.8413 83.1062 27.044C83.3835 27.2467 83.7302 27.348 84.1462 27.348C84.8182 27.348 85.3729 27.1613 85.8102 26.788C86.2475 26.4147 86.4662 25.8547 86.4662 25.108V24.356L85.3142 24.388ZM95.0137 19.716C95.163 19.716 95.3284 19.7267 95.5097 19.748C95.691 19.7587 95.8404 19.7747 95.9577 19.796L95.7817 21.38C95.6644 21.348 95.5257 21.3213 95.3657 21.3C95.2057 21.2787 95.0564 21.268 94.9177 21.268C94.5977 21.268 94.2884 21.332 93.9897 21.46C93.7017 21.5773 93.4404 21.7533 93.2057 21.988C92.971 22.212 92.7844 22.4893 92.6457 22.82C92.5177 23.1507 92.4537 23.5293 92.4537 23.956V28.5H90.7577V19.876H92.1017L92.3257 21.412H92.3897C92.571 21.1027 92.7897 20.82 93.0457 20.564C93.3017 20.308 93.595 20.1053 93.9257 19.956C94.2564 19.796 94.619 19.716 95.0137 19.716ZM96.2426 19.876H98.0666L99.8586 24.772C99.9546 25.0173 100.04 25.2573 100.115 25.492C100.189 25.7267 100.253 25.9613 100.307 26.196C100.371 26.42 100.419 26.644 100.451 26.868H100.515C100.568 26.5907 100.653 26.2653 100.771 25.892C100.888 25.508 101.011 25.1293 101.139 24.756L102.835 19.876H104.659L100.963 29.668C100.76 30.2227 100.509 30.6973 100.211 31.092C99.9119 31.4973 99.5546 31.8067 99.1386 32.02C98.7332 32.2333 98.2532 32.34 97.6986 32.34C97.4319 32.34 97.2026 32.324 97.0106 32.292C96.8186 32.2707 96.6532 32.244 96.5146 32.212V30.868C96.6319 30.8893 96.7706 30.9107 96.9306 30.932C97.1012 30.9533 97.2772 30.964 97.4586 30.964C97.7892 30.964 98.0719 30.9 98.3066 30.772C98.5519 30.644 98.7546 30.4627 98.9146 30.228C99.0852 29.9933 99.2292 29.7267 99.3466 29.428L99.6986 28.5L96.2426 19.876ZM111.844 19.268C111.844 19.62 111.834 19.956 111.812 20.276C111.802 20.5853 111.786 20.8307 111.764 21.012H111.844C112.09 20.6493 112.42 20.3453 112.836 20.1C113.252 19.8547 113.791 19.732 114.452 19.732C115.487 19.732 116.319 20.1053 116.948 20.852C117.588 21.5987 117.908 22.708 117.908 24.18C117.908 25.172 117.764 25.9987 117.476 26.66C117.188 27.3213 116.783 27.8227 116.26 28.164C115.738 28.4947 115.13 28.66 114.436 28.66C113.764 28.66 113.226 28.5427 112.82 28.308C112.415 28.0627 112.09 27.7747 111.844 27.444H111.716L111.396 28.5H110.148V16.34H111.844V19.268ZM114.052 21.108C113.498 21.108 113.06 21.2147 112.74 21.428C112.42 21.6413 112.191 21.9667 112.052 22.404C111.914 22.8413 111.844 23.396 111.844 24.068V24.196C111.844 25.188 112.004 25.9507 112.324 26.484C112.644 27.0067 113.231 27.268 114.084 27.268C114.767 27.268 115.284 27.0013 115.636 26.468C115.988 25.9347 116.164 25.1667 116.164 24.164C116.164 23.1507 115.988 22.388 115.636 21.876C115.284 21.364 114.756 21.108 114.052 21.108ZM127.494 19.876V28.5H126.134L125.894 27.364H125.814C125.633 27.6627 125.398 27.908 125.11 28.1C124.822 28.292 124.508 28.4307 124.166 28.516C123.825 28.612 123.473 28.66 123.11 28.66C122.438 28.66 121.868 28.5533 121.398 28.34C120.94 28.116 120.588 27.7747 120.342 27.316C120.108 26.8467 119.99 26.2493 119.99 25.524V19.876H121.702V25.268C121.702 25.94 121.841 26.4413 122.118 26.772C122.406 27.1027 122.849 27.268 123.446 27.268C124.044 27.268 124.513 27.1507 124.854 26.916C125.196 26.6813 125.436 26.34 125.574 25.892C125.724 25.4333 125.798 24.884 125.798 24.244V19.876H127.494ZM133.252 27.284C133.476 27.284 133.706 27.2627 133.94 27.22C134.175 27.1773 134.378 27.1293 134.548 27.076V28.356C134.367 28.4413 134.122 28.5107 133.812 28.564C133.503 28.628 133.194 28.66 132.884 28.66C132.415 28.66 131.983 28.58 131.588 28.42C131.204 28.26 130.895 27.9827 130.66 27.588C130.426 27.1933 130.308 26.644 130.308 25.94V21.172H129.108V20.404L130.372 19.764L130.964 17.94H132.004V19.876H134.468V21.172H132.004V25.908C132.004 26.3773 132.116 26.724 132.34 26.948C132.575 27.172 132.879 27.284 133.252 27.284ZM139.377 27.284C139.601 27.284 139.831 27.2627 140.065 27.22C140.3 27.1773 140.503 27.1293 140.673 27.076V28.356C140.492 28.4413 140.247 28.5107 139.937 28.564C139.628 28.628 139.319 28.66 139.009 28.66C138.54 28.66 138.108 28.58 137.713 28.42C137.329 28.26 137.02 27.9827 136.785 27.588C136.551 27.1933 136.433 26.644 136.433 25.94V21.172H135.233V20.404L136.497 19.764L137.089 17.94H138.129V19.876H140.593V21.172H138.129V25.908C138.129 26.3773 138.241 26.724 138.465 26.948C138.7 27.172 139.004 27.284 139.377 27.284ZM149.998 24.18C149.998 24.8947 149.902 25.5293 149.71 26.084C149.518 26.6387 149.246 27.108 148.894 27.492C148.542 27.876 148.116 28.1693 147.614 28.372C147.113 28.564 146.548 28.66 145.918 28.66C145.342 28.66 144.809 28.564 144.318 28.372C143.828 28.1693 143.401 27.876 143.038 27.492C142.686 27.108 142.409 26.6387 142.206 26.084C142.004 25.5293 141.902 24.8893 141.902 24.164C141.902 23.2147 142.062 22.4093 142.382 21.748C142.713 21.0867 143.182 20.5853 143.79 20.244C144.409 19.892 145.134 19.716 145.966 19.716C146.756 19.716 147.449 19.892 148.046 20.244C148.654 20.5853 149.129 21.0867 149.47 21.748C149.822 22.4093 149.998 23.22 149.998 24.18ZM143.646 24.18C143.646 24.82 143.726 25.3747 143.886 25.844C144.046 26.3027 144.297 26.6547 144.638 26.9C144.98 27.1453 145.417 27.268 145.95 27.268C146.484 27.268 146.921 27.1453 147.262 26.9C147.604 26.6547 147.854 26.3027 148.014 25.844C148.174 25.3747 148.254 24.82 148.254 24.18C148.254 23.5187 148.169 22.964 147.998 22.516C147.838 22.068 147.588 21.7267 147.246 21.492C146.916 21.2467 146.478 21.124 145.934 21.124C145.134 21.124 144.553 21.3907 144.19 21.924C143.828 22.4573 143.646 23.2093 143.646 24.18ZM156.516 19.716C157.519 19.716 158.287 19.9667 158.82 20.468C159.354 20.9693 159.62 21.7747 159.62 22.884V28.5H157.94V23.124C157.94 22.452 157.796 21.9507 157.508 21.62C157.231 21.2787 156.783 21.108 156.164 21.108C155.29 21.108 154.682 21.3693 154.34 21.892C154.01 22.4147 153.844 23.1667 153.844 24.148V28.5H152.148V19.876H153.492L153.732 21.028H153.828C154.02 20.7293 154.255 20.484 154.532 20.292C154.81 20.1 155.119 19.956 155.46 19.86C155.802 19.764 156.154 19.716 156.516 19.716Z" fill="white"/>
<path d="M183.5 22L176 29.5L174.95 28.45L181.4 22L174.95 15.55L176 14.5L183.5 22Z" fill="white"/>
</svg>
