<svg width="190" height="28" viewBox="0 0 190 28" fill="none" xmlns="http://www.w3.org/2000/svg">
<g clip-path="url(#clip0_14706_28637)">
<path fill-rule="evenodd" clip-rule="evenodd" d="M115.967 19.051C115.967 21.2327 117.085 24.1829 122.027 24.1829C126.97 24.1829 128.09 21.2347 128.09 19.051V17.0724H123.149V19.4012C123.149 20.0393 123.149 20.9136 122.029 20.9136C120.909 20.9136 120.909 20.0393 120.909 19.4012V15.4129H128.092V10.2914C128.092 8.10766 126.972 5.15945 122.029 5.15945C117.087 5.15945 115.969 8.10766 115.969 10.2914V19.0531L115.967 19.051ZM120.907 9.93915C120.907 9.29896 120.907 8.42465 122.027 8.42465C123.147 8.42465 123.147 9.29896 123.147 9.93915V11.9778H120.905V9.93915" fill="#32373F"/>
<path fill-rule="evenodd" clip-rule="evenodd" d="M35.8772 6.5953C35.8772 5.80801 35.8772 4.46961 37.4018 4.46961C38.9264 4.46961 38.9243 5.80801 38.9243 6.5953V18.0919C38.9243 18.703 38.9243 20.2134 37.4018 20.2134C35.8793 20.2134 35.8772 18.703 35.8772 18.0919V6.5953ZM30.5918 17.6257C30.5918 21.759 33.2048 24.183 37.3997 24.183C41.5945 24.183 44.2054 21.759 44.2054 17.6257V7.05939C44.2054 2.51796 41.334 0.5 37.3997 0.5C33.4653 0.5 30.5918 2.51796 30.5918 7.05939V17.6257Z" fill="#32373F"/>
<path d="M77.9678 19.051C77.9678 21.2327 79.0858 24.1829 84.0282 24.1829C88.9705 24.1829 90.0885 21.2327 90.0885 19.051V15.3922H85.1462V19.4012C85.1462 20.0393 85.1462 20.9136 84.026 20.9136C82.9059 20.9136 82.9059 20.0393 82.9059 19.4012V9.94122C82.9059 9.30103 82.9059 8.42672 84.026 8.42672C85.1462 8.42672 85.1462 9.30103 85.1462 9.94122V12.5994H90.0885V10.2914C90.0885 8.10766 88.9662 5.15945 84.0282 5.15945C79.0901 5.15945 77.9678 8.10766 77.9678 10.2914V19.051Z" fill="#32373F"/>
<path d="M91.5179 20.694C91.5179 23.6049 93.159 23.953 95.285 23.953H96.4602V8.96958H97.6926V5.35839H96.4602V0.703003H91.5179V5.35839H90.2812V8.96958H91.5179V20.694Z" fill="#32373F"/>
<path fill-rule="evenodd" clip-rule="evenodd" d="M98.3828 23.9696H103.325V5.37084H98.3828V23.9696ZM98.3828 4.14847H103.325V0.715454H98.3828V4.15054V4.14847Z" fill="#32373F"/>
<path fill-rule="evenodd" clip-rule="evenodd" d="M107.006 23.9696H112.784L116.141 5.37088H111.203L109.968 17.2735H109.909L108.759 5.37088H103.675L107.006 23.9696Z" fill="#32373F"/>
<path fill-rule="evenodd" clip-rule="evenodd" d="M64.832 19.051C64.832 21.2327 65.9501 24.1829 70.8903 24.1829C75.8305 24.1829 76.9549 21.2347 76.9549 19.051V17.0724H72.0105V19.4012C72.0105 20.0393 72.0105 20.9136 70.8903 20.9136C69.7701 20.9136 69.7701 20.0393 69.7701 19.4012V15.4129H76.9549V10.2914C76.9549 8.10766 75.8347 5.15945 70.8903 5.15945C65.9459 5.15945 64.832 8.10766 64.832 10.2914V19.0531V19.051ZM69.7701 9.93915C69.7701 9.29896 69.7701 8.42672 70.8903 8.42672C72.0105 8.42672 72.0105 9.29896 72.0105 9.93915V11.9778H69.7701V9.93915Z" fill="#32373F"/>
<path fill-rule="evenodd" clip-rule="evenodd" d="M50.4334 19.3763C50.4334 20.0165 50.4334 20.8908 51.5536 20.8908C52.6737 20.8908 52.6758 20.0165 52.6758 19.3763V9.9164C52.6758 9.27621 52.6759 8.4019 51.5536 8.4019C50.4313 8.4019 50.4334 9.27414 50.4334 9.9164L50.4207 19.3763H50.4334ZM50.4207 23.6132V23.9571H45.4805V0.703003H50.4207V5.60079C50.7807 5.34596 51.526 5.13256 51.9284 5.13256C56.5594 5.13256 57.6139 8.08284 57.6139 10.2645V19.0241C57.6139 21.2058 56.5954 24.156 52.0702 24.156C51.6679 24.156 50.7807 23.9758 50.4164 23.6112H50.4207" fill="#32373F"/>
<path d="M58.7676 27.4834L59.9365 27.5C63.4134 27.5 63.7099 25.4199 63.7099 22.625V5.37088H58.7697V27.4834" fill="#32373F"/>
<path d="M58.7676 0.715454H63.7099V4.14846H58.7676V0.715454Z" fill="#32373F"/>
<path d="M142.69 18.846C142.69 18.1395 142.58 17.5408 142.364 17.0559C142.146 16.5691 141.864 16.1754 141.519 15.875C141.174 15.5746 140.788 15.3529 140.363 15.212C139.935 15.0711 139.522 15.0007 139.124 15.0007H136.428V22.5111H139.124C139.615 22.5111 140.077 22.4406 140.513 22.2997C140.949 22.1588 141.331 21.9372 141.657 21.6367C141.983 21.3363 142.237 20.9551 142.419 20.4952C142.601 20.0352 142.692 19.4862 142.692 18.8501L142.69 18.846ZM142.146 10.1361C142.146 9.51658 142.051 8.99655 141.86 8.57183C141.669 8.14711 141.415 7.80733 141.098 7.55042C140.78 7.29352 140.422 7.11327 140.022 7.00553C139.624 6.89987 139.215 6.846 138.798 6.846H136.431V13.5048H138.853C139.251 13.5048 139.647 13.4427 140.037 13.3184C140.426 13.1941 140.776 12.9952 141.085 12.7217C141.394 12.4482 141.648 12.0981 141.847 11.6733C142.046 11.2486 142.146 10.7369 142.146 10.134V10.1361ZM144.568 18.9662C144.568 19.942 144.409 20.7604 144.092 21.4171C143.774 22.0739 143.37 22.6022 142.881 23.0021C142.389 23.4019 141.851 23.6858 141.261 23.8536C140.67 24.0235 140.105 24.1064 139.56 24.1064H134.633V5.24863H139.001C139.548 5.24863 140.111 5.31907 140.693 5.46202C141.276 5.60498 141.807 5.84738 142.29 6.19338C142.773 6.53937 143.169 7.00968 143.478 7.60429C143.787 8.1989 143.941 8.9489 143.941 9.85429C143.941 10.4945 143.863 11.0497 143.706 11.52C143.552 11.9903 143.344 12.3985 143.088 12.7445C142.832 13.0905 142.538 13.3743 142.207 13.596C141.877 13.8177 141.538 13.9917 141.191 14.116V14.1699C141.536 14.2403 141.907 14.3833 142.307 14.5967C142.705 14.8101 143.073 15.1084 143.41 15.4896C143.745 15.8709 144.022 16.3515 144.24 16.9275C144.458 17.5035 144.568 18.183 144.568 18.9641V18.9662Z" fill="#5DA10C"/>
<path d="M158.355 20.2569C158.165 21.1188 157.855 21.8688 157.43 22.5069C157.004 23.1471 156.437 23.6485 155.729 24.0111C155.022 24.3757 154.15 24.558 153.116 24.558C152.083 24.558 151.215 24.3757 150.516 24.0111C149.817 23.6485 149.254 23.145 148.828 22.5069C148.401 21.8667 148.098 21.1188 147.916 20.2569C147.734 19.395 147.643 18.4772 147.643 17.4993V5.24863H149.548V17.2611C149.548 17.953 149.599 18.6367 149.699 19.3122C149.798 19.9876 149.98 20.5863 150.243 21.1105C150.505 21.6347 150.87 22.0553 151.331 22.3764C151.793 22.6954 152.396 22.855 153.142 22.855C153.887 22.855 154.465 22.6954 154.937 22.3764C155.41 22.0573 155.778 21.6347 156.041 21.1105C156.303 20.5863 156.485 19.9917 156.585 19.3267C156.684 18.6595 156.735 17.9738 156.735 17.2631V5.24863H158.641V17.4993C158.641 18.4772 158.546 19.395 158.355 20.2569Z" fill="#5DA10C"/>
<path d="M162.834 24.1064V5.24863H164.74V24.1064H162.834Z" fill="#5DA10C"/>
<path d="M169.148 24.1064V5.24863H171.054V22.3743H176.553V24.1064H169.148Z" fill="#5DA10C"/>
<path d="M188.122 14.7044C188.122 13.3681 187.99 12.2058 187.728 11.2175C187.465 10.2293 187.101 9.41299 186.64 8.7728C186.176 8.13053 185.632 7.64987 185.007 7.32874C184.38 7.0076 183.705 6.84807 182.98 6.84807H180.749V22.509H182.98C183.705 22.509 184.382 22.3495 185.007 22.0283C185.634 21.7072 186.178 21.2265 186.64 20.5843C187.101 19.942 187.465 19.1319 187.728 18.1519C187.99 17.172 188.122 16.0221 188.122 14.7044ZM190 14.7044C190 16.25 189.837 17.6071 189.511 18.7797C189.185 19.9524 188.713 20.9323 188.096 21.7238C187.48 22.5152 186.739 23.1098 185.877 23.5076C185.015 23.9075 184.058 24.1064 183.006 24.1064H178.868V5.24863H183.033C184.086 5.24863 185.043 5.44752 185.905 5.84738C186.767 6.24725 187.501 6.846 188.109 7.64573C188.717 8.44545 189.185 9.43578 189.511 10.6167C189.837 11.7977 190 13.1609 190 14.7044Z" fill="#5DA10C"/>
<path d="M23.2312 0.512817H0.768773C0.346578 0.512817 0 0.859395 0 1.28159V23.744C0 24.1662 0.346578 24.5128 0.768773 24.5128H23.2312C23.6534 24.5128 24 24.1662 24 23.744V1.28159C24 0.859395 23.6555 0.512817 23.2312 0.512817ZM8.97952 19.2952C8.97952 19.4087 8.8871 19.5011 8.77367 19.5032H5.19447C5.08104 19.5032 4.98652 19.4108 4.98652 19.2952V15.5984C4.98652 15.5438 5.00753 15.4913 5.04744 15.4514L6.83704 13.7017C6.91896 13.6198 7.04919 13.6219 7.129 13.7017L8.91861 15.4514C8.95641 15.4892 8.97952 15.5438 8.97952 15.5984V19.2952ZM14.0123 19.3078C14.0123 19.4213 13.9198 19.5137 13.8064 19.5158H10.2272C10.1138 19.5158 10.0214 19.4234 10.0214 19.3078V12.3763C10.0214 12.3217 10.0424 12.2692 10.0823 12.2293L11.8719 10.4796C11.9538 10.3976 12.084 10.3997 12.1638 10.4796L13.9534 12.2293C13.9933 12.2671 14.0144 12.3217 14.0144 12.3763V19.3078H14.0123ZM19.0114 19.3078C19.0114 19.4129 18.9253 19.499 18.8202 19.499H15.2326C15.1276 19.499 15.0415 19.4129 15.0415 19.3078V5.764C15.0415 5.65898 15.1276 5.57286 15.2326 5.57286H18.8202C18.9253 5.57286 19.0114 5.65898 19.0114 5.764V19.3078Z" fill="url(#paint0_linear_14706_28637)"/>
</g>
<defs>
<linearGradient id="paint0_linear_14706_28637" x1="20.0553" y1="26.4642" x2="3.94469" y2="-1.43852" gradientUnits="userSpaceOnUse">
<stop stop-color="#77BC4A"/>
<stop offset="0.5" stop-color="#5DA10C"/>
<stop offset="0.76" stop-color="#549809"/>
<stop offset="1" stop-color="#488C07"/>
</linearGradient>
<clipPath id="clip0_14706_28637">
<rect width="190" height="27" fill="white" transform="translate(0 0.5)"/>
</clipPath>
</defs>
</svg>
