<svg width="216" height="48" viewBox="0 0 216 48" fill="none" xmlns="http://www.w3.org/2000/svg">
<g clip-path="url(#clip0_17650_3517)">
<path d="M23.2312 10.5023H0.768773C0.346578 10.5023 0 10.8489 0 11.2711V33.7335C0 34.1557 0.346578 34.5023 0.768773 34.5023H23.2312C23.6534 34.5023 24 34.1557 24 33.7335V11.2711C23.9979 10.8489 23.6534 10.5023 23.2312 10.5023ZM15.5792 16.1988L12.6974 19.0785C12.4663 19.0239 12.2269 18.9945 11.9811 18.9945C11.7353 18.9945 11.4938 19.0239 11.2648 19.0785L8.38299 16.1988H15.5792ZM5.11045 16.495L5.98635 15.6191C6.11658 15.4888 6.32872 15.4888 6.45895 15.6191L10.2713 19.4314C9.69368 19.7276 9.22108 20.2002 8.92491 20.7799L5.11255 16.9676C4.98232 16.8373 4.98232 16.6252 5.11255 16.495H5.11045ZM8.56363 23.2018L5.68388 26.0836V18.8874L8.56363 21.7693C8.50901 22.0003 8.47961 22.2398 8.47961 22.4855C8.47961 22.7313 8.50901 22.9728 8.56363 23.2018ZM5.97794 29.3499L5.10205 28.474C4.97182 28.3437 4.97182 28.1316 5.10205 28.0014L8.91651 24.1869C9.21267 24.7645 9.68738 25.2371 10.265 25.5333L6.44845 29.3499C6.31822 29.4801 6.10607 29.4801 5.97584 29.3499H5.97794ZM8.37248 28.7974L11.2543 25.9177C11.4854 25.9723 11.7248 26.0017 11.9706 26.0017C12.2163 26.0017 12.4579 25.9723 12.6869 25.9177L15.5687 28.7974H8.37248ZM18.8433 28.4761L17.9674 29.352C17.8372 29.4822 17.6251 29.4822 17.4948 29.352L13.6783 25.5354C14.258 25.2392 14.7306 24.7666 15.0268 24.189L18.8412 28.0035C18.9715 28.1337 18.9715 28.3458 18.8412 28.4761H18.8433ZM15.3986 21.7693L18.2783 18.8874V26.0836L15.3986 23.2018C15.4532 22.9707 15.4826 22.7313 15.4826 22.4855C15.4826 22.2398 15.4532 21.9982 15.3986 21.7693ZM18.8433 16.976L15.031 20.7883C14.7348 20.2086 14.2622 19.736 13.6846 19.4398L17.4969 15.6275C17.6272 15.4972 17.8393 15.4972 17.9695 15.6275L18.8454 16.5034C18.9757 16.6336 18.9757 16.8457 18.8454 16.976H18.8433Z" fill="url(#paint0_linear_17650_3517)"/>
<path d="M76.1661 29.0598C76.1661 31.2381 77.2584 34.1838 82.0865 34.1838C86.9146 34.1838 88.0069 31.2381 88.0069 29.0598V25.4066H83.1787V29.4094C83.1787 30.0465 83.1787 30.9195 82.0844 30.9195C80.9901 30.9195 80.9901 30.0465 80.9901 29.4094V19.9641C80.9901 19.3249 80.9901 18.452 82.0844 18.452C83.1787 18.452 83.1787 19.3249 83.1787 19.9641V22.6182H88.0069V20.3137C88.0069 18.1334 86.9105 15.1898 82.0865 15.1898C77.2625 15.1898 76.1661 18.1334 76.1661 20.3137V29.0598Z" fill="#32373F"/>
<path d="M89.4034 30.7002C89.4034 33.6066 91.0066 33.9541 93.0834 33.9541H94.2315V18.994H95.4354V15.3884H94.2315V10.7402H89.4034V15.3884H88.1953V18.994H89.4034V30.7002Z" fill="#32373F"/>
<path fill-rule="evenodd" clip-rule="evenodd" d="M96.1095 33.9707H100.938V15.4008H96.1095V33.9707ZM96.1095 14.1824H100.938V10.7526H96.1095V14.1824Z" fill="#32373F"/>
<path fill-rule="evenodd" clip-rule="evenodd" d="M104.533 33.9707H110.178L113.459 15.4029H108.633L107.427 27.287H107.369L106.248 15.4029H101.279L104.533 33.9707Z" fill="#32373F"/>
<path fill-rule="evenodd" clip-rule="evenodd" d="M63.3346 29.0598C63.3346 31.2381 64.4268 34.1838 69.2529 34.1838C74.0789 34.1838 75.1774 31.2401 75.1774 29.0598V27.0843H70.3472V29.4094C70.3472 30.0465 70.3472 30.9195 69.2529 30.9195C68.1586 30.9195 68.1586 30.0465 68.1586 29.4094V25.4273H75.1774V20.3137C75.1774 18.1334 74.0831 15.1898 69.2529 15.1898C64.4227 15.1898 63.3346 18.1334 63.3346 20.3137V29.0619V29.0598ZM68.1586 19.9641C68.1586 19.3249 68.1586 18.4541 69.2529 18.4541C70.3472 18.4541 70.3472 19.3249 70.3472 19.9641V21.9996H68.1586V19.9641Z" fill="#32373F"/>
<path fill-rule="evenodd" clip-rule="evenodd" d="M113.287 29.0598C113.287 31.2381 114.38 34.1838 119.208 34.1838C124.036 34.1838 125.13 31.2401 125.13 29.0598V27.0843H120.304V29.4094C120.304 30.0465 120.304 30.9195 119.21 30.9195C118.115 30.9195 118.115 30.0465 118.115 29.4094V25.4273H125.132V20.3137C125.132 18.1334 124.038 15.1898 119.21 15.1898C114.382 15.1898 113.289 18.1334 113.289 20.3137V29.0619L113.287 29.0598ZM118.113 19.9641C118.113 19.3249 118.113 18.452 119.208 18.452C120.302 18.452 120.302 19.3249 120.302 19.9641V21.9996H118.111V19.9641" fill="#32373F"/>
<path fill-rule="evenodd" clip-rule="evenodd" d="M35.0486 16.6233C35.0486 15.8373 35.0486 14.5009 36.538 14.5009C38.0274 14.5009 38.0254 15.8373 38.0254 16.6233V28.102C38.0254 28.7123 38.0254 30.2203 36.538 30.2203C35.0507 30.2203 35.0486 28.7123 35.0486 28.102V16.6233ZM29.8854 27.6366C29.8854 31.7635 32.438 34.1837 36.536 34.1837C40.6339 34.1837 43.1845 31.7635 43.1845 27.6366V17.0867C43.1865 12.5544 40.3815 10.5375 36.536 10.5375C32.6904 10.5375 29.8854 12.5523 29.8854 17.0867V27.6366Z" fill="#32373F"/>
<path fill-rule="evenodd" clip-rule="evenodd" d="M49.2679 29.3846C49.2679 30.0238 49.2679 30.8967 50.3622 30.8967C51.4565 30.8967 51.4586 30.0238 51.4586 29.3846V19.9393C51.4586 19.3001 51.4586 18.4272 50.3622 18.4272C49.2659 18.4272 49.2679 19.298 49.2679 19.9393L49.2555 29.3846H49.2679ZM49.2555 33.6149V33.9583H44.4294V10.7402H49.2555V15.6304C49.6072 15.376 50.3353 15.1629 50.7284 15.1629C55.2524 15.1629 56.2826 18.1086 56.2826 20.2868V29.0329C56.2826 31.2112 55.2876 34.1569 50.867 34.1569C50.4739 34.1569 49.6072 33.9769 49.2514 33.6128H49.2555" fill="#32373F"/>
<path d="M57.4103 37.479L58.5521 37.4956C61.9488 37.4956 62.2384 35.4187 62.2384 32.6282V15.4008H57.4123V37.479" fill="#32373F"/>
<path d="M57.4103 10.7526H62.2384V14.1824H57.4103V10.7526Z" fill="#32373F"/>
<path d="M140.036 33.4247C139.308 33.8467 138.489 34.0598 137.575 34.0598C136.594 34.0598 135.723 33.8178 134.962 33.3358C134.201 32.8538 133.558 32.1939 133.034 31.3561C132.509 30.5183 132.108 29.5254 131.828 28.3753C131.549 27.2251 131.408 25.9819 131.408 24.6456C131.408 23.3092 131.549 22.0412 131.828 20.891C132.108 19.7409 132.513 18.7459 133.047 17.9102C133.578 17.0724 134.226 16.4166 134.987 15.9429C135.748 15.4692 136.611 15.2334 137.575 15.2334C138.421 15.2334 139.211 15.4113 139.948 15.765C140.684 16.1208 141.296 16.6794 141.787 17.4406L140.645 18.6073C140.256 18.0157 139.803 17.5751 139.288 17.2875C138.773 17 138.226 16.8573 137.651 16.8573C136.907 16.8573 136.259 17.06 135.711 17.4654C135.161 17.8709 134.704 18.4294 134.342 19.141C133.978 19.8505 133.707 20.68 133.529 21.6275C133.351 22.5749 133.262 23.5823 133.262 24.6476C133.262 25.713 133.355 26.7162 133.541 27.6554C133.727 28.5945 134.002 29.4199 134.366 30.1294C134.731 30.839 135.186 31.4016 135.736 31.8174C136.286 32.2332 136.934 32.4401 137.676 32.4401C138.32 32.4401 138.903 32.258 139.426 31.894C139.95 31.5299 140.382 31.052 140.719 30.4604L141.836 31.6023C141.362 32.3987 140.763 33.0069 140.034 33.4289" fill="#0B77D8"/>
<path d="M154.575 24.5337C154.595 25.9383 154.477 27.2208 154.225 28.3834C153.971 29.5459 153.596 30.5451 153.102 31.3808C152.605 32.2165 151.997 32.8681 151.277 33.3356C150.555 33.8031 149.73 34.0431 148.801 34.0576C147.872 34.07 147.035 33.8548 146.292 33.408C145.549 32.9612 144.914 32.3282 144.387 31.507C143.859 30.6857 143.45 29.6969 143.164 28.5427C142.877 27.3884 142.722 26.1079 142.703 24.7054C142.682 23.3194 142.796 22.0452 143.042 20.8805C143.286 19.718 143.657 18.723 144.153 17.8955C144.65 17.0681 145.262 16.4206 145.99 15.9531C146.72 15.4856 147.566 15.2456 148.53 15.2312C149.459 15.2187 150.293 15.4339 151.027 15.8807C151.761 16.3275 152.386 16.9564 152.907 17.7693C153.427 18.5823 153.83 19.567 154.118 20.7212C154.405 21.8755 154.56 23.1477 154.579 24.5337M152.721 24.5606C152.705 23.4787 152.605 22.4651 152.423 21.5197C152.241 20.5744 151.97 19.7593 151.615 19.0705C151.257 18.3817 150.822 17.8376 150.309 17.4404C149.796 17.0412 149.209 16.8467 148.549 16.8571C147.856 16.8674 147.254 17.0784 146.745 17.4921C146.234 17.9059 145.816 18.4623 145.487 19.1594C145.158 19.8586 144.916 20.6819 144.761 21.6314C144.606 22.5809 144.536 23.5966 144.552 24.6806C144.569 25.7645 144.668 26.7761 144.85 27.7214C145.032 28.6668 145.299 29.4921 145.649 30.1975C145.996 30.9029 146.433 31.4553 146.954 31.8545C147.475 32.2537 148.083 32.4461 148.776 32.4378C149.453 32.4275 150.042 32.2165 150.543 31.8028C151.046 31.3891 151.459 30.8243 151.788 30.1107C152.115 29.3949 152.359 28.5633 152.514 27.6139C152.67 26.6644 152.74 25.6487 152.723 24.5647" fill="#0B77D8"/>
<path d="M165.518 34.1362L159 18.4086H158.921V34.1362H157.173V15.2312H159.478L165.963 30.9588H166.041V15.2312H167.736V34.1362H165.518Z" fill="#0B77D8"/>
<path d="M179.307 34.1362L172.791 18.4086H172.711V34.1362H170.965V15.2312H173.267L179.752 30.9588H179.831V15.2312H181.525V34.1362H179.307Z" fill="#0B77D8"/>
<path d="M184.754 34.1362V15.2312H192.298V16.8881H186.554V23.5097H191.928V25.1108H186.554V32.4544H192.563V34.1362H184.754Z" fill="#0B77D8"/>
<path d="M203.131 33.4246C202.403 33.8466 201.584 34.0596 200.669 34.0596C199.689 34.0596 198.816 33.8176 198.055 33.3356C197.293 32.8536 196.65 32.1937 196.127 31.356C195.601 30.5182 195.2 29.5252 194.921 28.3751C194.642 27.2249 194.501 25.9817 194.501 24.6454C194.501 23.3091 194.642 22.041 194.921 20.8909C195.2 19.7407 195.605 18.7457 196.139 17.91C196.671 17.0722 197.318 16.4165 198.08 15.9427C198.841 15.469 199.703 15.2332 200.667 15.2332C201.513 15.2332 202.304 15.4111 203.04 15.7648C203.777 16.1206 204.389 16.6792 204.879 17.4404L203.737 18.6071C203.348 18.0155 202.895 17.5749 202.38 17.2873C201.865 16.9998 201.319 16.8571 200.744 16.8571C199.999 16.8571 199.352 17.0598 198.804 17.4652C198.253 17.8707 197.796 18.4292 197.434 19.1408C197.07 19.8503 196.799 20.6799 196.623 21.6273C196.445 22.5747 196.356 23.5821 196.356 24.6475C196.356 25.7128 196.449 26.7161 196.636 27.6552C196.822 28.5944 197.097 29.4197 197.461 30.1293C197.825 30.8388 198.28 31.4015 198.83 31.8173C199.381 32.233 200.028 32.4399 200.771 32.4399C201.414 32.4399 201.997 32.2579 202.523 31.8938C203.046 31.5297 203.479 31.0519 203.816 30.4602L204.933 31.6021C204.459 32.3985 203.859 33.0067 203.131 33.4287" fill="#0B77D8"/>
<path d="M212.374 16.8343V34.1362H210.547V16.8343H206.948V15.2312H216V16.8343H212.374Z" fill="#0B77D8"/>
</g>
<defs>
<linearGradient id="paint0_linear_17650_3517" x1="20.0553" y1="36.4537" x2="3.94469" y2="8.55098" gradientUnits="userSpaceOnUse">
<stop stop-color="#54A0E4"/>
<stop offset="0.49" stop-color="#0B77D8"/>
<stop offset="1" stop-color="#0347BF"/>
</linearGradient>
<clipPath id="clip0_17650_3517">
<rect width="216" height="26.9953" fill="white" transform="translate(0 10.5023)"/>
</clipPath>
</defs>
</svg>
