<svg width="196" height="48" viewBox="0 0 196 48" fill="none" xmlns="http://www.w3.org/2000/svg">
<g clip-path="url(#clip0_17663_2177)">
<path d="M76.5302 29.0608C76.5302 31.2394 77.6276 34.1856 82.4788 34.1856C87.33 34.1856 88.4275 31.2394 88.4275 29.0608V25.407H83.5762V29.4104C83.5762 30.0477 83.5762 30.9208 82.4767 30.9208C81.3772 30.9208 81.3772 30.0477 81.3772 29.4104V19.9635C81.3772 19.3242 81.3772 18.4511 82.4767 18.4511C83.5762 18.4511 83.5762 19.3242 83.5762 19.9635V22.618H88.4275V20.3132C88.4275 18.1325 87.3259 15.1884 82.4788 15.1884C77.6318 15.1884 76.5302 18.1325 76.5302 20.3132V29.0608Z" fill="#32373F"/>
<path d="M89.8304 30.7012C89.8304 33.6081 91.4413 33.9557 93.5281 33.9557H94.6816V18.993H95.8913V15.3868H94.6816V10.7378H89.8304V15.3868H88.6166V18.993H89.8304V30.7012Z" fill="#32373F"/>
<path fill-rule="evenodd" clip-rule="evenodd" d="M96.569 33.9724H101.42V15.3993H96.569V33.9724ZM96.569 14.1807H101.42V10.7503H96.569V14.1807Z" fill="#32373F"/>
<path fill-rule="evenodd" clip-rule="evenodd" d="M105.033 33.9726H110.705L114.001 15.4016H109.152L107.94 27.2878H107.882L106.756 15.4016H101.763L105.033 33.9726Z" fill="#32373F"/>
<path fill-rule="evenodd" clip-rule="evenodd" d="M63.6373 29.0608C63.6373 31.2394 64.7348 34.1856 69.5839 34.1856C74.433 34.1856 75.5367 31.2415 75.5367 29.0608V27.0849H70.6834V29.4104C70.6834 30.0477 70.6834 30.9208 69.5839 30.9208C68.4844 30.9208 68.4844 30.0477 68.4844 29.4104V25.4277H75.5367V20.3132C75.5367 18.1325 74.4372 15.1884 69.5839 15.1884C64.7306 15.1884 63.6373 18.1325 63.6373 20.3132V29.0628V29.0608ZM68.4844 19.9635C68.4844 19.3242 68.4844 18.4532 69.5839 18.4532C70.6834 18.4532 70.6834 19.3242 70.6834 19.9635V21.9994H68.4844V19.9635Z" fill="#32373F"/>
<path fill-rule="evenodd" clip-rule="evenodd" d="M113.829 29.0608C113.829 31.2394 114.926 34.1856 119.778 34.1856C124.629 34.1856 125.728 31.2415 125.728 29.0608V27.0849H120.879V29.4104C120.879 30.0477 120.879 30.9208 119.78 30.9208C118.68 30.9208 118.68 30.0477 118.68 29.4104V25.4277H125.73V20.3132C125.73 18.1325 124.631 15.1884 119.78 15.1884C114.928 15.1884 113.831 18.1325 113.831 20.3132V29.0628L113.829 29.0608ZM118.678 19.9635C118.678 19.3242 118.678 18.4511 119.778 18.4511C120.877 18.4511 120.877 19.3242 120.877 19.9635V21.9994H118.676V19.9635" fill="#32373F"/>
<path fill-rule="evenodd" clip-rule="evenodd" d="M35.2159 16.6222C35.2159 15.836 35.2159 14.4994 36.7124 14.4994C38.2089 14.4994 38.2068 15.836 38.2068 16.6222V28.1029C38.2068 28.7132 38.2068 30.2215 36.7124 30.2215C35.218 30.2215 35.2159 28.7132 35.2159 28.1029V16.6222ZM30.028 27.6373C30.028 31.7649 32.5928 34.1856 36.7103 34.1856C40.8278 34.1856 43.3906 31.7649 43.3906 27.6373V17.0856C43.3927 12.5525 40.5742 10.5353 36.7103 10.5353C32.8464 10.5353 30.028 12.5505 30.028 17.0856V27.6373Z" fill="#32373F"/>
<path fill-rule="evenodd" clip-rule="evenodd" d="M49.5036 29.3854C49.5036 30.0247 49.5036 30.8978 50.6031 30.8978C51.7026 30.8978 51.7047 30.0247 51.7047 29.3854V19.9385C51.7047 19.2992 51.7047 18.4261 50.6031 18.4261C49.5015 18.4261 49.5036 19.2971 49.5036 19.9385L49.4911 29.3854H49.5036ZM49.4911 33.6164V33.9599H44.642V10.7378H49.4911V15.6288C49.8444 15.3743 50.5761 15.1612 50.971 15.1612C55.5167 15.1612 56.5517 18.1074 56.5517 20.2861V29.0337C56.5517 31.2123 55.552 34.1585 51.1102 34.1585C50.7153 34.1585 49.8444 33.9785 49.4869 33.6143H49.4911" fill="#32373F"/>
<path d="M57.6844 37.4813L58.8318 37.4979C62.2447 37.4979 62.5357 35.4206 62.5357 32.6296V15.3992H57.6865V37.4813" fill="#32373F"/>
<path d="M57.6844 10.7503H62.5357V14.1807H57.6844V10.7503Z" fill="#32373F"/>
<path d="M138.964 20.313C138.964 19.6406 138.879 19.0799 138.708 18.6288C138.538 18.1778 138.309 17.8199 138.025 17.553C137.74 17.2881 137.416 17.1019 137.05 16.9964C136.684 16.8909 136.306 16.8371 135.915 16.8371H133.72V23.8964H135.988C136.915 23.8964 137.642 23.5819 138.17 22.955C138.698 22.3261 138.964 21.4468 138.964 20.313ZM139.062 34.1006L135.94 25.3612H133.722V34.1006H132.038V15.2378H136.185C136.755 15.2378 137.303 15.3226 137.831 15.4902C138.359 15.6599 138.831 15.9392 139.245 16.3302C139.66 16.7212 139.993 17.2364 140.244 17.8757C140.496 18.515 140.623 19.2971 140.623 20.2199C140.623 21.0185 140.529 21.7074 140.342 22.2847C140.155 22.8619 139.912 23.3461 139.61 23.7371C139.309 24.1281 138.976 24.4302 138.611 24.6433C138.245 24.8564 137.883 24.9888 137.526 25.0426L140.891 34.1006H139.062Z" fill="#0B77D8"/>
<path d="M143.37 34.1006V15.2378H150.323V16.8888H145.029V23.495H149.98V25.0943H145.029V32.4206H150.564V34.1006H143.37Z" fill="#0B77D8"/>
<path d="M161.582 24.695C161.582 23.3585 161.464 22.1957 161.229 21.2068C160.992 20.2178 160.668 19.4026 160.252 18.7612C159.838 18.1199 159.35 17.6378 158.789 17.3171C158.23 16.9964 157.623 16.835 156.972 16.835H154.973V32.5012H156.972C157.623 32.5012 158.228 32.3419 158.789 32.0192C159.35 31.6985 159.838 31.2185 160.252 30.575C160.668 29.9337 160.992 29.1226 161.229 28.1419C161.464 27.1612 161.582 26.013 161.582 24.693V24.695ZM163.264 24.695C163.264 26.2406 163.118 27.5999 162.825 28.7709C162.532 29.9419 162.11 30.9247 161.557 31.715C161.004 32.5054 160.341 33.1012 159.57 33.5006C158.797 33.8999 157.941 34.1006 156.997 34.1006H153.289V15.2378H157.02C157.962 15.2378 158.82 15.4385 159.593 15.8378C160.364 16.2371 161.023 16.8371 161.568 17.6357C162.112 18.4343 162.532 19.4254 162.823 20.6068C163.116 21.7881 163.262 23.1516 163.262 24.6971L163.264 24.695Z" fill="#0B77D8"/>
<path d="M169.379 16.9157H169.283L166.893 27.8916H171.721L169.379 16.9157ZM173.012 34.1006L171.962 29.3854H166.645L165.548 34.1006H163.817L168.206 15.2378H170.524L174.791 34.1006H173.012Z" fill="#0B77D8"/>
<path d="M184.053 33.8855C183.354 34.3283 182.565 34.5517 181.688 34.5517C180.744 34.5517 179.906 34.2993 179.175 33.7924C178.443 33.2855 177.826 32.5924 177.321 31.7131C176.816 30.8338 176.431 29.791 176.163 28.5828C175.895 27.3745 175.762 26.069 175.762 24.6662C175.762 23.2635 175.895 21.931 176.163 20.7228C176.431 19.5145 176.822 18.4717 177.335 17.5924C177.846 16.7131 178.468 16.0241 179.2 15.5276C179.931 15.031 180.761 14.7807 181.688 14.7807C182.5 14.7807 183.261 14.9669 183.966 15.3414C184.674 15.7138 185.263 16.3014 185.734 17.1L184.637 18.3248C184.263 17.7041 183.828 17.2407 183.332 16.9386C182.835 16.6366 182.311 16.4855 181.758 16.4855C181.043 16.4855 180.422 16.6986 179.894 17.1248C179.364 17.551 178.925 18.1366 178.576 18.8835C178.227 19.6304 177.967 20.4993 177.794 21.4945C177.624 22.4897 177.539 23.5469 177.539 24.6641C177.539 25.7814 177.628 26.8345 177.807 27.8214C177.986 28.8062 178.25 29.6731 178.599 30.4179C178.948 31.1648 179.387 31.7545 179.917 32.189C180.445 32.6255 181.066 32.8407 181.781 32.8407C182.398 32.8407 182.962 32.6504 183.465 32.2676C183.968 31.8869 184.383 31.3841 184.708 30.7635L185.78 31.9614C185.325 32.7973 184.747 33.4366 184.049 33.8793L184.053 33.8855Z" fill="#0B77D8"/>
<path d="M192.66 16.835V34.1006H190.976V16.835H187.661V15.2378H196V16.835H192.66Z" fill="#0B77D8"/>
<path d="M23.2312 10.5H0.768773C0.346578 10.5 0 10.8466 0 11.2688V33.7312C0 34.1534 0.346578 34.5 0.768773 34.5H23.2312C23.6534 34.5 24 34.1534 24 33.7312V11.2688C23.9979 10.8466 23.6534 10.5 23.2312 10.5ZM14.4134 19.8555L15.115 16.3435C15.1318 16.2679 15.2095 16.2049 15.2872 16.2049H18.6417C18.7194 16.2049 18.7635 16.2658 18.7383 16.3393L17.7007 19.8618C17.6755 19.9353 17.5915 19.9962 17.5137 19.9962H14.5248C14.4471 19.9962 14.3966 19.9332 14.4134 19.8576V19.8555ZM9.94154 16.2175L11.9664 16.207L14.0018 16.2175C14.0774 16.2175 14.1278 16.2763 14.111 16.3477L13.506 19.4081C13.4892 19.4816 13.4073 19.5173 13.3401 19.4837C12.8843 19.2485 12.5461 19.114 11.9979 19.114H11.9727H11.9433C11.3951 19.114 11.0569 19.2485 10.6011 19.4837C10.5339 19.5173 10.452 19.4837 10.4351 19.4081L9.83021 16.3477C9.81341 16.2763 9.86382 16.2175 9.93944 16.2175H9.94154ZM5.23228 16.2049H8.58673C8.66445 16.2049 8.74217 16.2679 8.75897 16.3435L9.46053 19.8555C9.47733 19.9311 9.42692 19.9941 9.3492 19.9941H6.36023C6.28251 19.9941 6.19849 19.9332 6.17329 19.8597L5.13566 16.3372C5.11045 16.2637 5.15456 16.2028 5.23228 16.2028V16.2049ZM9.46053 25.197L8.75897 28.709C8.74217 28.7846 8.66445 28.8476 8.58673 28.8476H5.23228C5.15456 28.8476 5.11045 28.7867 5.13566 28.7132L6.17329 25.1907C6.19849 25.1172 6.28251 25.0563 6.36023 25.0563H9.3492C9.42692 25.0563 9.47733 25.1193 9.46053 25.1949V25.197ZM14.0018 28.835L11.9769 28.8455L9.94154 28.835C9.86592 28.835 9.81551 28.7762 9.83231 28.7048L10.4372 25.6444C10.4541 25.5709 10.536 25.5352 10.6032 25.5688C11.059 25.804 11.3972 25.9385 11.9454 25.9385H11.9706H12C12.5482 25.9385 12.8864 25.804 13.3422 25.5688C13.4094 25.5352 13.4913 25.5688 13.5081 25.6444L14.1131 28.7048C14.1299 28.7762 14.0795 28.835 14.0038 28.835H14.0018ZM18.6417 28.8476H15.2872C15.2095 28.8476 15.1318 28.7846 15.115 28.709L14.4134 25.197C14.3966 25.1214 14.4471 25.0584 14.5248 25.0584H17.5137C17.5915 25.0584 17.6755 25.1193 17.7007 25.1928L18.7383 28.7153C18.7635 28.7888 18.7194 28.8497 18.6417 28.8497V28.8476ZM18.8496 22.4895H18.8391V23.6511C18.8391 23.8464 18.6816 24.0039 18.4863 24.0039H5.46333C5.27009 24.0039 5.11045 23.8443 5.11045 23.6511V22.5105H5.12095V21.3489C5.12095 21.1536 5.27849 20.9961 5.47383 20.9961H18.4947C18.6879 20.9961 18.8475 21.1557 18.8475 21.3489V22.4895H18.8496Z" fill="url(#paint0_linear_17663_2177)"/>
</g>
<defs>
<linearGradient id="paint0_linear_17663_2177" x1="20.0553" y1="36.4513" x2="3.94469" y2="8.54866" gradientUnits="userSpaceOnUse">
<stop stop-color="#54A0E4"/>
<stop offset="0.49" stop-color="#0B77D8"/>
<stop offset="1" stop-color="#0347BF"/>
</linearGradient>
<clipPath id="clip0_17663_2177">
<rect width="196" height="27" fill="white" transform="translate(0 10.5)"/>
</clipPath>
</defs>
</svg>
