<svg width="1440" height="73" viewBox="0 0 1440 73" fill="none" xmlns="http://www.w3.org/2000/svg">
<rect width="1440" height="5" fill="#5DA10C"/>
<rect width="1440" height="68" transform="translate(0 5)" fill="white"/>
<g clip-path="url(#clip0_33896_10144)">
<path fill-rule="evenodd" clip-rule="evenodd" d="M127.967 44.051C127.967 46.2326 129.085 49.1829 134.027 49.1829C138.97 49.1829 140.09 46.2347 140.09 44.051V42.0724H135.15V44.4011C135.15 45.0393 135.15 45.9136 134.03 45.9136C132.909 45.9136 132.909 45.0393 132.909 44.4011V40.4129H140.092V35.2913C140.092 33.1076 138.972 30.1594 134.03 30.1594C129.087 30.1594 127.969 33.1076 127.969 35.2913V44.0531L127.967 44.051ZM132.907 34.9391C132.907 34.2989 132.907 33.4246 134.027 33.4246C135.148 33.4246 135.148 34.2989 135.148 34.9391V36.9778H132.905V34.9391" fill="#32373F"/>
<path fill-rule="evenodd" clip-rule="evenodd" d="M47.8772 31.5953C47.8772 30.808 47.8772 29.4696 49.4018 29.4696C50.9265 29.4696 50.9244 30.808 50.9244 31.5953V43.0919C50.9244 43.703 50.9244 45.2134 49.4018 45.2134C47.8793 45.2134 47.8772 43.703 47.8772 43.0919V31.5953ZM42.5919 42.6257C42.5919 46.759 45.2049 49.183 49.3997 49.183C53.5946 49.183 56.2055 46.759 56.2055 42.6257V32.0594C56.2055 27.518 53.3341 25.5 49.3997 25.5C45.4654 25.5 42.5919 27.518 42.5919 32.0594V42.6257Z" fill="#32373F"/>
<path d="M89.9681 44.051C89.9681 46.2326 91.0861 49.1829 96.0285 49.1829C100.971 49.1829 102.089 46.2326 102.089 44.051V40.3922H97.1465V44.4011C97.1465 45.0393 97.1465 45.9136 96.0263 45.9136C94.9062 45.9136 94.9062 45.0393 94.9062 44.4011V34.9412C94.9062 34.301 94.9062 33.4267 96.0263 33.4267C97.1465 33.4267 97.1465 34.301 97.1465 34.9412V37.5993H102.089V35.2913C102.089 33.1076 100.967 30.1594 96.0285 30.1594C91.0904 30.1594 89.9681 33.1076 89.9681 35.2913V44.051Z" fill="#32373F"/>
<path d="M103.518 45.6939C103.518 48.6048 105.159 48.9529 107.285 48.9529H108.46V33.9695H109.693V30.3583H108.46V25.7029H103.518V30.3583H102.281V33.9695H103.518V45.6939Z" fill="#32373F"/>
<path fill-rule="evenodd" clip-rule="evenodd" d="M110.383 48.9697H115.325V30.371H110.383V48.9697ZM110.383 29.1486H115.325V25.7156H110.383V29.1507V29.1486Z" fill="#32373F"/>
<path fill-rule="evenodd" clip-rule="evenodd" d="M119.005 48.9696H124.784L128.14 30.3708H123.202L121.968 42.2735H121.909L120.759 30.3708H115.674L119.005 48.9696Z" fill="#32373F"/>
<path fill-rule="evenodd" clip-rule="evenodd" d="M76.8324 44.051C76.8324 46.2326 77.9505 49.1829 82.8907 49.1829C87.8309 49.1829 88.9553 46.2347 88.9553 44.051V42.0724H84.0108V44.4011C84.0108 45.0393 84.0108 45.9136 82.8907 45.9136C81.7705 45.9136 81.7705 45.0393 81.7705 44.4011V40.4129H88.9553V35.2913C88.9553 33.1076 87.8351 30.1594 82.8907 30.1594C77.9462 30.1594 76.8324 33.1076 76.8324 35.2913V44.0531V44.051ZM81.7705 34.9391C81.7705 34.2989 81.7705 33.4267 82.8907 33.4267C84.0108 33.4267 84.0108 34.2989 84.0108 34.9391V36.9778H81.7705V34.9391Z" fill="#32373F"/>
<path fill-rule="evenodd" clip-rule="evenodd" d="M62.4336 44.3762C62.4336 45.0164 62.4336 45.8907 63.5537 45.8907C64.6739 45.8907 64.676 45.0164 64.676 44.3762V34.9163C64.676 34.2761 64.676 33.4018 63.5537 33.4018C62.4314 33.4018 62.4336 34.274 62.4336 34.9163L62.4209 44.3762H62.4336ZM62.4209 48.6131V48.957H57.4807V25.7029H62.4209V30.6007C62.7808 30.3458 63.5262 30.1324 63.9285 30.1324C68.5596 30.1324 69.6141 33.0827 69.6141 35.2643V44.024C69.6141 46.2056 68.5956 49.1559 64.0704 49.1559C63.6681 49.1559 62.7808 48.9757 62.4166 48.611H62.4209" fill="#32373F"/>
<path d="M70.7679 52.4834L71.9368 52.5C75.4138 52.5 75.7103 50.4199 75.7103 47.625V30.3708H70.7701V52.4834" fill="#32373F"/>
<path d="M70.7679 25.7156H75.7103V29.1486H70.7679V25.7156Z" fill="#32373F"/>
<path d="M154.69 43.8459C154.69 43.1394 154.58 42.5407 154.364 42.0559C154.146 41.569 153.864 41.1753 153.519 40.8749C153.174 40.5745 152.789 40.3528 152.363 40.2119C151.935 40.071 151.522 40.0006 151.124 40.0006H148.429V47.511H151.124C151.616 47.511 152.077 47.4405 152.513 47.2996C152.95 47.1588 153.331 46.9371 153.657 46.6367C153.983 46.3362 154.237 45.955 154.419 45.4951C154.601 45.0351 154.692 44.4861 154.692 43.8501L154.69 43.8459ZM154.146 35.136C154.146 34.5165 154.051 33.9965 153.86 33.5717C153.67 33.147 153.416 32.8072 153.098 32.5503C152.78 32.2934 152.422 32.1132 152.022 32.0054C151.624 31.8998 151.215 31.8459 150.798 31.8459H148.431V38.5047H150.853C151.251 38.5047 151.647 38.4426 152.037 38.3183C152.427 38.194 152.776 37.9951 153.085 37.7216C153.394 37.4481 153.648 37.098 153.847 36.6733C154.047 36.2485 154.146 35.7368 154.146 35.1339V35.136ZM156.569 43.9661C156.569 44.9419 156.41 45.7603 156.092 46.417C155.774 47.0738 155.37 47.6021 154.881 48.002C154.39 48.4018 153.852 48.6857 153.261 48.8535C152.67 49.0234 152.105 49.1063 151.561 49.1063H146.633V30.2485H151.002C151.548 30.2485 152.111 30.319 152.693 30.4619C153.276 30.6049 153.807 30.8473 154.29 31.1933C154.773 31.5393 155.169 32.0096 155.478 32.6042C155.787 33.1988 155.942 33.9488 155.942 34.8542C155.942 35.4944 155.863 36.0496 155.707 36.5199C155.552 36.9902 155.345 37.3984 155.088 37.7444C154.832 38.0904 154.538 38.3742 154.207 38.5959C153.877 38.8176 153.538 38.9916 153.191 39.1159V39.1698C153.536 39.2402 153.907 39.3832 154.307 39.5966C154.705 39.81 155.074 40.1083 155.41 40.4896C155.745 40.8708 156.022 41.3514 156.24 41.9274C156.458 42.5034 156.569 43.1829 156.569 43.964V43.9661Z" fill="#5DA10C"/>
<path d="M170.355 45.2568C170.165 46.1187 169.856 46.8687 169.43 47.5068C169.005 48.147 168.437 48.6484 167.73 49.011C167.022 49.3756 166.15 49.5579 165.117 49.5579C164.083 49.5579 163.215 49.3756 162.516 49.011C161.818 48.6484 161.254 48.1449 160.829 47.5068C160.401 46.8666 160.098 46.1187 159.916 45.2568C159.734 44.3949 159.643 43.4771 159.643 42.4992V30.2485H161.549V42.261C161.549 42.953 161.599 43.6367 161.699 44.3121C161.799 44.9875 161.981 45.5862 162.243 46.1104C162.506 46.6346 162.87 47.0552 163.332 47.3763C163.793 47.6954 164.397 47.8549 165.142 47.8549C165.887 47.8549 166.466 47.6954 166.938 47.3763C167.41 47.0572 167.778 46.6346 168.041 46.1104C168.304 45.5862 168.486 44.9916 168.585 44.3266C168.685 43.6594 168.736 42.9737 168.736 42.263V30.2485H170.641V42.4992C170.641 43.4771 170.546 44.3949 170.355 45.2568Z" fill="#5DA10C"/>
<path d="M174.834 49.1063V30.2485H176.74V49.1063H174.834Z" fill="#5DA10C"/>
<path d="M181.149 49.1063V30.2485H183.054V47.3742H188.554V49.1063H181.149Z" fill="#5DA10C"/>
<path d="M200.122 39.7043C200.122 38.368 199.99 37.2057 199.728 36.2175C199.465 35.2292 199.101 34.4129 198.639 33.7727C198.176 33.1304 197.631 32.6498 197.007 32.3286C196.38 32.0075 195.704 31.848 194.98 31.848H192.748V47.5089H194.98C195.704 47.5089 196.382 47.3494 197.007 47.0282C197.634 46.7071 198.178 46.2264 198.639 45.5842C199.101 44.9419 199.465 44.1318 199.728 43.1518C199.99 42.1719 200.122 41.022 200.122 39.7043ZM202 39.7043C202 41.2499 201.837 42.607 201.511 43.7796C201.185 44.9523 200.712 45.9322 200.096 46.7237C199.48 47.5151 198.739 48.1097 197.877 48.5075C197.015 48.9074 196.058 49.1063 195.006 49.1063H190.868V30.2485H195.033C196.086 30.2485 197.043 30.4474 197.905 30.8473C198.766 31.2472 199.501 31.8459 200.109 32.6456C200.717 33.4454 201.185 34.4357 201.511 35.6166C201.837 36.7976 202 38.1608 202 39.7043Z" fill="#5DA10C"/>
<path d="M35.2312 25.5127H12.7688C12.3466 25.5127 12 25.8593 12 26.2815V48.7439C12 49.1661 12.3466 49.5127 12.7688 49.5127H35.2312C35.6534 49.5127 36 49.1661 36 48.7439V26.2815C36 25.8593 35.6555 25.5127 35.2312 25.5127ZM20.9795 44.2951C20.9795 44.4085 20.8871 44.501 20.7737 44.5031H17.1945C17.081 44.5031 16.9865 44.4106 16.9865 44.2951V40.5983C16.9865 40.5437 17.0075 40.4912 17.0474 40.4513L18.837 38.7016C18.919 38.6196 19.0492 38.6217 19.129 38.7016L20.9186 40.4513C20.9564 40.4891 20.9795 40.5437 20.9795 40.5983V44.2951ZM26.0123 44.3077C26.0123 44.4212 25.9198 44.5136 25.8064 44.5157H22.2272C22.1138 44.5157 22.0214 44.4233 22.0214 44.3077V37.3762C22.0214 37.3216 22.0424 37.269 22.0823 37.2291L23.8719 35.4794C23.9538 35.3975 24.084 35.3996 24.1638 35.4794L25.9534 37.2291C25.9933 37.2669 26.0144 37.3216 26.0144 37.3762V44.3077H26.0123ZM31.0114 44.3077C31.0114 44.4127 30.9253 44.4989 30.8202 44.4989H27.2326C27.1276 44.4989 27.0415 44.4127 27.0415 44.3077V30.7639C27.0415 30.6589 27.1276 30.5727 27.2326 30.5727H30.8202C30.9253 30.5727 31.0114 30.6589 31.0114 30.7639V44.3077Z" fill="url(#paint0_linear_33896_10144)"/>
</g>
<path d="M1230.53 41.3409L1228.5 39.43V36.8988C1228.5 35.1496 1227.81 33.4634 1226.56 32.1661C1225.31 30.8689 1223.6 30.0529 1221.75 29.8758V28.4282H1220.25V29.8758C1218.4 30.0529 1216.69 30.8689 1215.44 32.1661C1214.19 33.4634 1213.5 35.1496 1213.5 36.8988V39.43L1211.47 41.3409C1211.33 41.4733 1211.25 41.6528 1211.25 41.84V43.9576C1211.25 44.1448 1211.33 44.3244 1211.47 44.4568C1211.61 44.5891 1211.8 44.6635 1212 44.6635H1217.25V45.2118C1217.23 46.1073 1217.57 46.9769 1218.19 47.654C1218.81 48.3313 1219.68 48.7683 1220.62 48.8816C1221.15 48.9303 1221.67 48.8756 1222.17 48.7213C1222.67 48.567 1223.13 48.3164 1223.51 47.9857C1223.9 47.6549 1224.21 47.2513 1224.43 46.8006C1224.64 46.35 1224.75 45.8625 1224.75 45.3694V44.6635H1230C1230.2 44.6635 1230.39 44.5891 1230.53 44.4568C1230.67 44.3244 1230.75 44.1448 1230.75 43.9576V41.84C1230.75 41.6528 1230.67 41.4733 1230.53 41.3409ZM1223.25 45.3694C1223.25 45.931 1223.01 46.4697 1222.59 46.8668C1222.17 47.264 1221.6 47.487 1221 47.487C1220.4 47.487 1219.83 47.264 1219.41 46.8668C1218.99 46.4697 1218.75 45.931 1218.75 45.3694V44.6635H1223.25V45.3694ZM1229.25 43.2517H1212.75V42.1323L1214.78 40.2214C1214.92 40.089 1215 39.9095 1215 39.7223V36.8988C1215 35.4011 1215.63 33.9648 1216.76 32.9057C1217.88 31.8467 1219.41 31.2518 1221 31.2518C1222.59 31.2518 1224.12 31.8467 1225.24 32.9057C1226.37 33.9648 1227 35.4011 1227 36.8988V39.7223C1227 39.9095 1227.08 40.089 1227.22 40.2214L1229.25 42.1323V43.2517Z" fill="#32373F"/>
<rect x="1262" y="23" width="32" height="32" rx="16" fill="#54622C"/>
<path d="M1275.22 41.66C1275.22 42.42 1274.95 43.02 1274.4 43.46C1273.84 43.9 1273.08 44.12 1272.1 44.12C1271.16 44.12 1270.36 43.96 1269.7 43.64V42.2C1270.06 42.36 1270.46 42.508 1270.89 42.644C1271.33 42.772 1271.77 42.836 1272.21 42.836C1272.73 42.836 1273.11 42.736 1273.34 42.536C1273.58 42.328 1273.7 42.064 1273.7 41.744C1273.7 41.392 1273.55 41.112 1273.24 40.904C1272.94 40.688 1272.5 40.456 1271.91 40.208C1271.56 40.064 1271.22 39.888 1270.89 39.68C1270.57 39.464 1270.31 39.196 1270.1 38.876C1269.9 38.548 1269.8 38.14 1269.8 37.652C1269.8 36.924 1270.06 36.352 1270.57 35.936C1271.09 35.52 1271.78 35.312 1272.64 35.312C1273.09 35.312 1273.52 35.36 1273.92 35.456C1274.32 35.552 1274.72 35.688 1275.12 35.864L1274.62 37.1C1274.26 36.948 1273.92 36.828 1273.59 36.74C1273.27 36.652 1272.94 36.608 1272.6 36.608C1272.18 36.608 1271.86 36.7 1271.65 36.884C1271.43 37.068 1271.32 37.312 1271.32 37.616C1271.32 37.848 1271.38 38.048 1271.5 38.216C1271.62 38.376 1271.81 38.524 1272.06 38.66C1272.31 38.796 1272.64 38.952 1273.04 39.128C1273.5 39.328 1273.9 39.54 1274.22 39.764C1274.54 39.98 1274.79 40.24 1274.96 40.544C1275.14 40.84 1275.22 41.212 1275.22 41.66ZM1280.53 44L1278.17 36.98H1278.13C1278.14 37.14 1278.15 37.368 1278.16 37.664C1278.18 37.952 1278.19 38.268 1278.2 38.612C1278.21 38.948 1278.22 39.264 1278.22 39.56V44H1276.84V35.432H1278.98L1281.23 42.164H1281.28L1283.63 35.432H1285.77V44H1284.31V39.488C1284.31 39.216 1284.31 38.92 1284.32 38.6C1284.33 38.272 1284.35 37.964 1284.35 37.676C1284.37 37.38 1284.38 37.152 1284.39 36.992H1284.34L1281.89 44H1280.53Z" fill="white"/>
<path d="M1309.03 41.8271C1309.03 42.6976 1308.71 43.3835 1308.08 43.8848C1307.46 44.3861 1306.58 44.6367 1305.46 44.6367C1304.27 44.6367 1303.36 44.4795 1302.71 44.165V42.9619C1303.13 43.1442 1303.6 43.2878 1304.1 43.3926C1304.6 43.4974 1305.08 43.5498 1305.51 43.5498C1306.26 43.5498 1306.82 43.4062 1307.2 43.1191C1307.58 42.832 1307.77 42.4378 1307.77 41.9365C1307.77 41.6038 1307.7 41.3304 1307.56 41.1162C1307.43 40.902 1307.2 40.7015 1306.87 40.5146C1306.56 40.3278 1306.07 40.1159 1305.42 39.8789C1304.49 39.5417 1303.83 39.1452 1303.44 38.6895C1303.04 38.2292 1302.84 37.6367 1302.84 36.9121C1302.84 36.1328 1303.13 35.513 1303.72 35.0527C1304.3 34.5924 1305.08 34.3623 1306.03 34.3623C1307.03 34.3623 1307.95 34.5492 1308.79 34.9229L1308.4 36.0029C1307.54 35.6475 1306.74 35.4697 1306.01 35.4697C1305.41 35.4697 1304.95 35.5973 1304.61 35.8525C1304.28 36.1077 1304.11 36.4655 1304.11 36.9258C1304.11 37.2539 1304.18 37.5273 1304.3 37.7461C1304.44 37.9603 1304.65 38.1562 1304.93 38.334C1305.22 38.5117 1305.68 38.7145 1306.3 38.9424C1307.04 39.2158 1307.6 39.4824 1307.96 39.7422C1308.33 39.9974 1308.59 40.2936 1308.77 40.6309C1308.94 40.9635 1309.03 41.3623 1309.03 41.8271ZM1313.88 44.6367C1312.8 44.6367 1311.96 44.3063 1311.36 43.6455C1310.76 42.9801 1310.46 42.0277 1310.46 40.7881C1310.46 39.5303 1310.76 38.5618 1311.37 37.8828C1311.98 37.1992 1312.84 36.8574 1313.97 36.8574C1314.33 36.8574 1314.69 36.8962 1315.05 36.9736C1315.41 37.0465 1315.71 37.1423 1315.94 37.2607L1315.56 38.2861C1314.93 38.0492 1314.39 37.9307 1313.94 37.9307C1313.19 37.9307 1312.63 38.1699 1312.27 38.6484C1311.91 39.1224 1311.73 39.8311 1311.73 40.7744C1311.73 41.6813 1311.91 42.3763 1312.27 42.8594C1312.63 43.3379 1313.16 43.5771 1313.87 43.5771C1314.53 43.5771 1315.18 43.4313 1315.82 43.1396V44.2334C1315.3 44.5023 1314.65 44.6367 1313.88 44.6367ZM1324.12 40.7334C1324.12 41.9593 1323.81 42.9163 1323.19 43.6045C1322.57 44.2926 1321.71 44.6367 1320.62 44.6367C1319.94 44.6367 1319.34 44.4795 1318.82 44.165C1318.29 43.846 1317.89 43.3903 1317.61 42.7979C1317.32 42.2054 1317.18 41.5173 1317.18 40.7334C1317.18 39.512 1317.49 38.5618 1318.1 37.8828C1318.71 37.1992 1319.57 36.8574 1320.67 36.8574C1321.73 36.8574 1322.56 37.2061 1323.18 37.9033C1323.81 38.596 1324.12 39.5394 1324.12 40.7334ZM1318.45 40.7334C1318.45 41.6768 1318.64 42.3945 1319.01 42.8867C1319.38 43.3743 1319.93 43.6182 1320.66 43.6182C1321.37 43.6182 1321.92 43.3743 1322.29 42.8867C1322.66 42.3945 1322.85 41.6768 1322.85 40.7334C1322.85 39.79 1322.66 39.0814 1322.28 38.6074C1321.91 38.1289 1321.36 37.8896 1320.63 37.8896C1319.18 37.8896 1318.45 38.8376 1318.45 40.7334ZM1328.58 43.6318C1328.74 43.6318 1328.93 43.6159 1329.15 43.584C1329.36 43.5521 1329.52 43.5156 1329.63 43.4746V44.418C1329.52 44.4681 1329.34 44.516 1329.1 44.5615C1328.86 44.6117 1328.62 44.6367 1328.37 44.6367C1326.91 44.6367 1326.17 43.8643 1326.17 42.3193V37.9512H1325.11V37.3633L1326.19 36.8711L1326.68 35.2715H1327.41V36.9941H1329.58V37.9512H1327.41V42.2852C1327.41 42.7181 1327.51 43.0508 1327.72 43.2832C1327.93 43.5156 1328.22 43.6318 1328.58 43.6318ZM1333.64 43.6318C1333.8 43.6318 1333.99 43.6159 1334.2 43.584C1334.42 43.5521 1334.58 43.5156 1334.69 43.4746V44.418C1334.58 44.4681 1334.4 44.516 1334.16 44.5615C1333.92 44.6117 1333.68 44.6367 1333.43 44.6367C1331.96 44.6367 1331.23 43.8643 1331.23 42.3193V37.9512H1330.17V37.3633L1331.24 36.8711L1331.74 35.2715H1332.47V36.9941H1334.63V37.9512H1332.47V42.2852C1332.47 42.7181 1332.57 43.0508 1332.78 43.2832C1332.99 43.5156 1333.27 43.6318 1333.64 43.6318ZM1344.41 44.5L1341.12 35.7363H1341.06C1341.13 36.4655 1341.16 37.3656 1341.16 38.4365V44.5H1340V34.5059H1341.86L1344.94 42.6953H1345L1348.14 34.5059H1349.98V44.5H1348.74V38.3545C1348.74 37.6709 1348.77 36.8027 1348.83 35.75H1348.78L1345.44 44.5H1344.41ZM1357.17 44.5L1356.93 43.4336H1356.87C1356.5 43.903 1356.12 44.222 1355.75 44.3906C1355.38 44.5547 1354.91 44.6367 1354.35 44.6367C1353.61 44.6367 1353.03 44.443 1352.61 44.0557C1352.19 43.6683 1351.98 43.1214 1351.98 42.415C1351.98 40.8929 1353.19 40.0954 1355.59 40.0225L1356.86 39.9746V39.5303C1356.86 38.9606 1356.74 38.5413 1356.49 38.2725C1356.24 37.999 1355.85 37.8623 1355.31 37.8623C1354.91 37.8623 1354.53 37.9215 1354.18 38.04C1353.83 38.1585 1353.5 38.2907 1353.19 38.4365L1352.81 37.5137C1353.19 37.3132 1353.6 37.1559 1354.05 37.042C1354.5 36.9281 1354.94 36.8711 1355.38 36.8711C1356.28 36.8711 1356.96 37.0716 1357.4 37.4727C1357.84 37.8737 1358.06 38.5117 1358.06 39.3867V44.5H1357.17ZM1354.63 43.6455C1355.32 43.6455 1355.86 43.4609 1356.25 43.0918C1356.65 42.7181 1356.84 42.1895 1356.84 41.5059V40.8291L1355.74 40.877C1354.88 40.9089 1354.25 41.0456 1353.85 41.2871C1353.46 41.5286 1353.26 41.9092 1353.26 42.4287C1353.26 42.8206 1353.38 43.1214 1353.62 43.3311C1353.86 43.5407 1354.2 43.6455 1354.63 43.6455ZM1363.89 36.8574C1364.23 36.8574 1364.52 36.8848 1364.77 36.9395L1364.62 38.0742C1364.35 38.0104 1364.07 37.9785 1363.81 37.9785C1363.41 37.9785 1363.04 38.0879 1362.7 38.3066C1362.37 38.5254 1362.1 38.8285 1361.91 39.2158C1361.72 39.5986 1361.62 40.0247 1361.62 40.4941V44.5H1360.39V36.9941H1361.4L1361.54 38.3682H1361.6C1361.88 37.8714 1362.22 37.4954 1362.61 37.2402C1363.01 36.985 1363.43 36.8574 1363.89 36.8574ZM1371.06 42.4287C1371.06 43.1305 1370.8 43.6751 1370.28 44.0625C1369.75 44.4453 1369.02 44.6367 1368.07 44.6367C1367.08 44.6367 1366.29 44.4795 1365.71 44.165V43.0439C1366.54 43.445 1367.33 43.6455 1368.1 43.6455C1368.72 43.6455 1369.17 43.5452 1369.45 43.3447C1369.73 43.1442 1369.87 42.8753 1369.87 42.5381C1369.87 42.2419 1369.74 41.9912 1369.46 41.7861C1369.19 41.5811 1368.71 41.3464 1368.02 41.082C1367.32 40.8086 1366.82 40.5762 1366.53 40.3848C1366.24 40.1888 1366.03 39.9701 1365.9 39.7285C1365.76 39.487 1365.7 39.193 1365.7 38.8467C1365.7 38.2314 1365.95 37.7461 1366.45 37.3906C1366.95 37.0352 1367.64 36.8574 1368.51 36.8574C1369.37 36.8574 1370.16 37.026 1370.91 37.3633L1370.49 38.3408C1369.73 38.0218 1369.04 37.8623 1368.43 37.8623C1367.92 37.8623 1367.53 37.9443 1367.27 38.1084C1367.01 38.2679 1366.87 38.4889 1366.87 38.7715C1366.87 39.0449 1366.99 39.2728 1367.21 39.4551C1367.44 39.6328 1367.97 39.8812 1368.81 40.2002C1369.43 40.4326 1369.89 40.6491 1370.19 40.8496C1370.49 41.0501 1370.71 41.2757 1370.85 41.5264C1370.99 41.777 1371.06 42.0778 1371.06 42.4287ZM1378 44.5V39.7012C1378 39.0905 1377.87 38.637 1377.59 38.3408C1377.32 38.04 1376.9 37.8896 1376.32 37.8896C1375.56 37.8896 1375 38.1016 1374.65 38.5254C1374.29 38.9492 1374.12 39.6488 1374.12 40.624V44.5H1372.89V33.8633H1374.12V36.9805C1374.12 37.3906 1374.1 37.7415 1374.05 38.0332H1374.13C1374.36 37.6686 1374.67 37.3838 1375.08 37.1787C1375.49 36.9736 1375.96 36.8711 1376.47 36.8711C1377.38 36.8711 1378.07 37.0898 1378.53 37.5273C1378.99 37.9603 1379.22 38.6553 1379.22 39.6123V44.5H1378ZM1386.18 44.5L1385.94 43.4336H1385.88C1385.51 43.903 1385.14 44.222 1384.76 44.3906C1384.39 44.5547 1383.93 44.6367 1383.36 44.6367C1382.62 44.6367 1382.04 44.443 1381.62 44.0557C1381.21 43.6683 1381 43.1214 1381 42.415C1381 40.8929 1382.2 40.0954 1384.6 40.0225L1385.87 39.9746V39.5303C1385.87 38.9606 1385.75 38.5413 1385.5 38.2725C1385.25 37.999 1384.86 37.8623 1384.32 37.8623C1383.92 37.8623 1383.55 37.9215 1383.19 38.04C1382.84 38.1585 1382.51 38.2907 1382.2 38.4365L1381.82 37.5137C1382.2 37.3132 1382.61 37.1559 1383.06 37.042C1383.51 36.9281 1383.95 36.8711 1384.39 36.8711C1385.29 36.8711 1385.97 37.0716 1386.41 37.4727C1386.85 37.8737 1387.07 38.5117 1387.07 39.3867V44.5H1386.18ZM1383.64 43.6455C1384.33 43.6455 1384.87 43.4609 1385.26 43.0918C1385.66 42.7181 1385.86 42.1895 1385.86 41.5059V40.8291L1384.75 40.877C1383.89 40.9089 1383.26 41.0456 1382.86 41.2871C1382.47 41.5286 1382.27 41.9092 1382.27 42.4287C1382.27 42.8206 1382.39 43.1214 1382.63 43.3311C1382.87 43.5407 1383.21 43.6455 1383.64 43.6455ZM1390.63 44.5H1389.4V33.8633H1390.63V44.5ZM1394.24 44.5H1393.01V33.8633H1394.24V44.5Z" fill="#525965"/>
<path d="M1410 42.7498L1403.75 36.4998L1404.63 35.6248L1410 40.9998L1415.38 35.6248L1416.25 36.4998L1410 42.7498Z" fill="#525965"/>
<line y1="72.5" x2="1440" y2="72.5" stroke="#F5F5F5"/>
<defs>
<linearGradient id="paint0_linear_33896_10144" x1="32.0553" y1="51.464" x2="15.9447" y2="23.5614" gradientUnits="userSpaceOnUse">
<stop stop-color="#77BC4A"/>
<stop offset="0.5" stop-color="#5DA10C"/>
<stop offset="0.76" stop-color="#549809"/>
<stop offset="1" stop-color="#488C07"/>
</linearGradient>
<clipPath id="clip0_33896_10144">
<rect width="190" height="27" fill="white" transform="translate(12 25.5)"/>
</clipPath>
</defs>
</svg>
