<svg width="1440" height="73" viewBox="0 0 1440 73" fill="none" xmlns="http://www.w3.org/2000/svg">
<rect width="1440" height="5" fill="#0B77D8"/>
<rect width="1440" height="68" transform="translate(0 5)" fill="white"/>
<g clip-path="url(#clip0_33896_10138)">
<path d="M35.2312 25.5024H12.7688C12.3466 25.5024 12 25.849 12 26.2712V48.7337C12 49.1559 12.3466 49.5024 12.7688 49.5024H35.2312C35.6534 49.5024 36 49.1559 36 48.7337V26.2712C35.9979 25.849 35.6534 25.5024 35.2312 25.5024ZM27.5792 31.1989L24.6974 34.0787C24.4663 34.0241 24.2269 33.9947 23.9811 33.9947C23.7353 33.9947 23.4938 34.0241 23.2648 34.0787L20.383 31.1989H27.5792ZM17.1104 31.4951L17.9863 30.6192C18.1166 30.489 18.3287 30.489 18.459 30.6192L22.2713 34.4316C21.6937 34.7277 21.2211 35.2003 20.9249 35.7801L17.1126 31.9677C16.9823 31.8375 16.9823 31.6253 17.1126 31.4951H17.1104ZM20.5636 38.2019L17.6839 41.0837V33.8875L20.5636 36.7694C20.509 37.0004 20.4796 37.2399 20.4796 37.4856C20.4796 37.7314 20.509 37.9729 20.5636 38.2019ZM17.9779 44.35L17.102 43.4741C16.9718 43.3439 16.9718 43.1317 17.102 43.0015L20.9165 39.187C21.2127 39.7647 21.6874 40.2373 22.265 40.5334L18.4485 44.35C18.3182 44.4802 18.1061 44.4802 17.9758 44.35H17.9779ZM20.3725 43.7976L23.2543 40.9178C23.4854 40.9724 23.7248 41.0018 23.9706 41.0018C24.2163 41.0018 24.4579 40.9724 24.6869 40.9178L27.5687 43.7976H20.3725ZM30.8433 43.4762L29.9674 44.3521C29.8372 44.4823 29.6251 44.4823 29.4948 44.3521L25.6783 40.5355C26.258 40.2394 26.7306 39.7668 27.0268 39.1891L30.8412 43.0036C30.9715 43.1338 30.9715 43.346 30.8412 43.4762H30.8433ZM27.3986 36.7694L30.2783 33.8875V41.0837L27.3986 38.2019C27.4532 37.9708 27.4826 37.7314 27.4826 37.4856C27.4826 37.2399 27.4532 36.9983 27.3986 36.7694ZM30.8433 31.9761L27.031 35.7885C26.7348 35.2087 26.2622 34.7361 25.6846 34.44L29.4969 30.6276C29.6272 30.4974 29.8393 30.4974 29.9695 30.6276L30.8454 31.5035C30.9757 31.6337 30.9757 31.8459 30.8454 31.9761H30.8433Z" fill="url(#paint0_linear_33896_10138)"/>
<path d="M88.1661 44.06C88.1661 46.2382 89.2583 49.1839 94.0864 49.1839C98.9146 49.1839 100.007 46.2382 100.007 44.06V40.4068H95.1787V44.4096C95.1787 45.0467 95.1787 45.9196 94.0844 45.9196C92.9901 45.9196 92.9901 45.0467 92.9901 44.4096V34.9643C92.9901 34.3251 92.9901 33.4521 94.0844 33.4521C95.1787 33.4521 95.1787 34.3251 95.1787 34.9643V37.6183H100.007V35.3139C100.007 33.1336 98.9104 30.1899 94.0864 30.1899C89.2624 30.1899 88.1661 33.1336 88.1661 35.3139V44.06Z" fill="#32373F"/>
<path d="M101.403 45.7002C101.403 48.6066 103.006 48.9542 105.083 48.9542H106.231V33.994H107.435V30.3884H106.231V25.7402H101.403V30.3884H100.195V33.994H101.403V45.7002Z" fill="#32373F"/>
<path fill-rule="evenodd" clip-rule="evenodd" d="M108.109 48.9707H112.938V30.4008H108.109V48.9707ZM108.109 29.1824H112.938V25.7527H108.109V29.1824Z" fill="#32373F"/>
<path fill-rule="evenodd" clip-rule="evenodd" d="M116.533 48.9709H122.178L125.459 30.4031H120.633L119.427 42.2872H119.369L118.248 30.4031H113.279L116.533 48.9709Z" fill="#32373F"/>
<path fill-rule="evenodd" clip-rule="evenodd" d="M75.3346 44.06C75.3346 46.2382 76.4268 49.1839 81.2529 49.1839C86.0789 49.1839 87.1774 46.2403 87.1774 44.06V42.0844H82.3472V44.4096C82.3472 45.0467 82.3472 45.9196 81.2529 45.9196C80.1586 45.9196 80.1586 45.0467 80.1586 44.4096V40.4275H87.1774V35.3139C87.1774 33.1336 86.0831 30.1899 81.2529 30.1899C76.4227 30.1899 75.3346 33.1336 75.3346 35.3139V44.062V44.06ZM80.1586 34.9643C80.1586 34.3251 80.1586 33.4542 81.2529 33.4542C82.3472 33.4542 82.3472 34.3251 82.3472 34.9643V36.9998H80.1586V34.9643Z" fill="#32373F"/>
<path fill-rule="evenodd" clip-rule="evenodd" d="M125.287 44.06C125.287 46.2382 126.38 49.1839 131.208 49.1839C136.036 49.1839 137.13 46.2403 137.13 44.06V42.0844H132.304V44.4096C132.304 45.0467 132.304 45.9196 131.21 45.9196C130.116 45.9196 130.116 45.0467 130.116 44.4096V40.4275H137.132V35.3139C137.132 33.1336 136.038 30.1899 131.21 30.1899C126.382 30.1899 125.289 33.1336 125.289 35.3139V44.062L125.287 44.06ZM130.113 34.9643C130.113 34.3251 130.113 33.4521 131.208 33.4521C132.302 33.4521 132.302 34.3251 132.302 34.9643V36.9998H130.111V34.9643" fill="#32373F"/>
<path fill-rule="evenodd" clip-rule="evenodd" d="M47.0487 31.6234C47.0487 30.8374 47.0487 29.5011 48.5381 29.5011C50.0275 29.5011 50.0254 30.8374 50.0254 31.6234V43.1022C50.0254 43.7124 50.0254 45.2204 48.5381 45.2204C47.0508 45.2204 47.0487 43.7124 47.0487 43.1022V31.6234ZM41.8854 42.6367C41.8854 46.7636 44.4381 49.1839 48.536 49.1839C52.6339 49.1839 55.1845 46.7636 55.1845 42.6367V32.0868C55.1866 27.5545 52.3816 25.5376 48.536 25.5376C44.6905 25.5376 41.8854 27.5524 41.8854 32.0868V42.6367Z" fill="#32373F"/>
<path fill-rule="evenodd" clip-rule="evenodd" d="M61.2679 44.3846C61.2679 45.0238 61.2679 45.8968 62.3622 45.8968C63.4565 45.8968 63.4586 45.0238 63.4586 44.3846V34.9393C63.4586 34.3001 63.4586 33.4272 62.3622 33.4272C61.2659 33.4272 61.2679 34.2981 61.2679 34.9393L61.2555 44.3846H61.2679ZM61.2555 48.6149V48.9583H56.4294V25.7402H61.2555V30.6304C61.6072 30.376 62.3353 30.1629 62.7284 30.1629C67.2524 30.1629 68.2826 33.1086 68.2826 35.2869V44.0329C68.2826 46.2112 67.2876 49.1569 62.867 49.1569C62.4739 49.1569 61.6072 48.9769 61.2514 48.6128H61.2555" fill="#32373F"/>
<path d="M69.4103 52.4791L70.5521 52.4957C73.9488 52.4957 74.2384 50.4188 74.2384 47.6283V30.4009H69.4123V52.4791" fill="#32373F"/>
<path d="M69.4103 25.7527H74.2384V29.1824H69.4103V25.7527Z" fill="#32373F"/>
<path d="M152.037 48.4247C151.308 48.8467 150.489 49.0598 149.575 49.0598C148.594 49.0598 147.724 48.8178 146.962 48.3358C146.201 47.8538 145.558 47.1939 145.034 46.3561C144.509 45.5183 144.108 44.5254 143.828 43.3753C143.549 42.2251 143.408 40.9819 143.408 39.6456C143.408 38.3092 143.549 37.0412 143.828 35.891C144.108 34.7409 144.513 33.7459 145.047 32.9102C145.578 32.0724 146.226 31.4166 146.987 30.9429C147.748 30.4692 148.611 30.2334 149.575 30.2334C150.421 30.2334 151.211 30.4113 151.948 30.765C152.684 31.1208 153.296 31.6794 153.787 32.4406L152.645 33.6073C152.256 33.0157 151.803 32.5751 151.288 32.2875C150.773 32 150.227 31.8573 149.651 31.8573C148.907 31.8573 148.259 32.06 147.711 32.4654C147.161 32.8709 146.704 33.4294 146.342 34.141C145.978 34.8505 145.707 35.68 145.529 36.6275C145.351 37.5749 145.262 38.5823 145.262 39.6476C145.262 40.713 145.355 41.7162 145.541 42.6554C145.727 43.5945 146.002 44.4199 146.366 45.1294C146.731 45.839 147.186 46.4016 147.736 46.8174C148.286 47.2332 148.934 47.4401 149.676 47.4401C150.32 47.4401 150.903 47.258 151.426 46.894C151.95 46.5299 152.382 46.052 152.719 45.4604L153.836 46.6023C153.363 47.3987 152.763 48.0069 152.034 48.4289" fill="#0B77D8"/>
<path d="M166.575 39.5338C166.595 40.9383 166.477 42.2209 166.225 43.3834C165.971 44.546 165.596 45.5451 165.102 46.3808C164.605 47.2166 163.997 47.8682 163.277 48.3357C162.555 48.8032 161.73 49.0431 160.801 49.0576C159.872 49.07 159.035 48.8549 158.292 48.4081C157.549 47.9613 156.914 47.3283 156.387 46.507C155.859 45.6858 155.45 44.697 155.164 43.5427C154.877 42.3884 154.722 41.108 154.703 39.7054C154.682 38.3195 154.796 37.0452 155.042 35.8806C155.286 34.718 155.657 33.723 156.153 32.8956C156.65 32.0681 157.262 31.4207 157.99 30.9532C158.72 30.4857 159.566 30.2457 160.53 30.2312C161.459 30.2188 162.293 30.4339 163.027 30.8808C163.761 31.3276 164.386 31.9564 164.907 32.7694C165.427 33.5824 165.83 34.567 166.118 35.7213C166.405 36.8756 166.56 38.1478 166.579 39.5338M164.721 39.5606C164.705 38.4788 164.605 37.4651 164.423 36.5198C164.241 35.5744 163.97 34.7594 163.615 34.0706C163.257 33.3817 162.822 32.8377 162.309 32.4405C161.796 32.0413 161.209 31.8468 160.549 31.8571C159.856 31.8675 159.254 32.0785 158.745 32.4922C158.234 32.9059 157.816 33.4624 157.487 34.1595C157.158 34.8587 156.916 35.682 156.761 36.6315C156.606 37.581 156.536 38.5967 156.552 39.6806C156.569 40.7646 156.668 41.7761 156.85 42.7215C157.032 43.6668 157.299 44.4922 157.649 45.1976C157.996 45.903 158.433 46.4553 158.954 46.8546C159.475 47.2538 160.083 47.4462 160.776 47.4379C161.453 47.4276 162.042 47.2166 162.543 46.8028C163.046 46.3891 163.459 45.8244 163.788 45.1107C164.115 44.395 164.359 43.5634 164.514 42.6139C164.67 41.6644 164.74 40.6487 164.723 39.5648" fill="#0B77D8"/>
<path d="M177.518 49.1362L171 33.4086H170.921V49.1362H169.173V30.2312H171.478L177.963 45.9588H178.041V30.2312H179.735V49.1362H177.518Z" fill="#0B77D8"/>
<path d="M191.307 49.1362L184.791 33.4086H184.71V49.1362H182.965V30.2312H185.267L191.752 45.9588H191.831V30.2312H193.525V49.1362H191.307Z" fill="#0B77D8"/>
<path d="M196.754 49.1362V30.2312H204.298V31.8882H198.554V38.5098H203.928V40.1109H198.554V47.4544H204.563V49.1362H196.754Z" fill="#0B77D8"/>
<path d="M215.131 48.4247C214.403 48.8467 213.584 49.0598 212.67 49.0598C211.689 49.0598 210.816 48.8178 210.055 48.3358C209.294 47.8538 208.65 47.1939 208.127 46.3561C207.601 45.5183 207.2 44.5254 206.921 43.3753C206.642 42.2251 206.501 40.9819 206.501 39.6456C206.501 38.3092 206.642 37.0412 206.921 35.891C207.2 34.7409 207.606 33.7459 208.139 32.9102C208.671 32.0724 209.318 31.4166 210.08 30.9429C210.841 30.4692 211.703 30.2334 212.667 30.2334C213.513 30.2334 214.304 30.4113 215.04 30.765C215.777 31.1208 216.389 31.6794 216.879 32.4406L215.737 33.6073C215.348 33.0157 214.895 32.5751 214.38 32.2875C213.865 32 213.319 31.8573 212.744 31.8573C211.999 31.8573 211.352 32.06 210.804 32.4654C210.253 32.8709 209.796 33.4294 209.434 34.141C209.07 34.8505 208.799 35.68 208.623 36.6275C208.445 37.5749 208.356 38.5823 208.356 39.6476C208.356 40.713 208.45 41.7162 208.636 42.6554C208.822 43.5945 209.097 44.4199 209.461 45.1294C209.825 45.839 210.28 46.4016 210.831 46.8174C211.381 47.2332 212.028 47.4401 212.771 47.4401C213.414 47.4401 213.998 47.258 214.523 46.894C215.046 46.5299 215.479 46.052 215.816 45.4604L216.933 46.6023C216.459 47.3987 215.859 48.0069 215.131 48.4289" fill="#0B77D8"/>
<path d="M224.374 31.8344V49.1362H222.547V31.8344H218.948V30.2312H228V31.8344H224.374Z" fill="#0B77D8"/>
</g>
<g clip-path="url(#clip1_33896_10138)">
<rect width="660" height="44" transform="translate(381 17)" fill="#ACACAC"/>
<rect width="134" height="44" transform="translate(381 17)" fill="#F5F5F5"/>
<path d="M407.179 44H405.907L403.959 37.4512C403.672 36.4759 403.503 35.8174 403.453 35.4756C403.38 35.9997 403.221 36.6719 402.975 37.4922L401.088 44H399.816L397.171 34.0059H398.483L400.035 40.1104C400.245 40.9079 400.404 41.7008 400.514 42.4893C400.614 41.7419 400.792 40.9238 401.047 40.0352L402.811 34.0059H404.109L405.948 40.083C406.185 40.8714 406.368 41.6735 406.495 42.4893C406.568 41.8604 406.73 41.0628 406.98 40.0967L408.525 34.0059H409.838L407.179 44ZM417.604 40.2334C417.604 41.4593 417.294 42.4163 416.674 43.1045C416.054 43.7926 415.197 44.1367 414.104 44.1367C413.424 44.1367 412.823 43.9795 412.299 43.665C411.775 43.346 411.371 42.8903 411.089 42.2979C410.806 41.7054 410.665 41.0173 410.665 40.2334C410.665 39.012 410.97 38.0618 411.581 37.3828C412.192 36.6992 413.049 36.3574 414.151 36.3574C415.209 36.3574 416.047 36.7061 416.667 37.4033C417.291 38.096 417.604 39.0394 417.604 40.2334ZM411.937 40.2334C411.937 41.1768 412.121 41.8945 412.49 42.3867C412.864 42.8743 413.413 43.1182 414.138 43.1182C414.853 43.1182 415.398 42.8743 415.771 42.3867C416.145 41.8945 416.332 41.1768 416.332 40.2334C416.332 39.29 416.143 38.5814 415.765 38.1074C415.391 37.6289 414.842 37.3896 414.117 37.3896C412.663 37.3896 411.937 38.3376 411.937 40.2334ZM423.059 36.3574C423.391 36.3574 423.685 36.3848 423.94 36.4395L423.79 37.5742C423.512 37.5104 423.241 37.4785 422.977 37.4785C422.58 37.4785 422.211 37.5879 421.869 37.8066C421.532 38.0254 421.268 38.3285 421.076 38.7158C420.885 39.0986 420.789 39.5247 420.789 39.9941V44H419.559V36.4941H420.57L420.707 37.8682H420.762C421.049 37.3714 421.388 36.9954 421.78 36.7402C422.172 36.485 422.598 36.3574 423.059 36.3574ZM426.559 40.1377L426.976 39.6045L427.454 39.0303L429.854 36.4941H431.289L428.254 39.7002L431.501 44H430.018L427.413 40.5L426.559 41.2451V44H425.342V33.3633H426.559V38.9209L426.504 40.1377H426.559ZM437.708 41.9287C437.708 42.6305 437.446 43.1751 436.922 43.5625C436.398 43.9453 435.662 44.1367 434.714 44.1367C433.725 44.1367 432.939 43.9795 432.355 43.665V42.5439C433.18 42.945 433.976 43.1455 434.741 43.1455C435.361 43.1455 435.812 43.0452 436.095 42.8447C436.377 42.6442 436.519 42.3753 436.519 42.0381C436.519 41.7419 436.382 41.4912 436.108 41.2861C435.84 41.0811 435.359 40.8464 434.666 40.582C433.96 40.3086 433.463 40.0762 433.176 39.8848C432.889 39.6888 432.677 39.4701 432.54 39.2285C432.408 38.987 432.342 38.693 432.342 38.3467C432.342 37.7314 432.592 37.2461 433.094 36.8906C433.595 36.5352 434.283 36.3574 435.158 36.3574C436.01 36.3574 436.808 36.526 437.551 36.8633L437.134 37.8408C436.373 37.5218 435.687 37.3623 435.076 37.3623C434.566 37.3623 434.178 37.4443 433.914 37.6084C433.65 37.7679 433.518 37.9889 433.518 38.2715C433.518 38.5449 433.632 38.7728 433.859 38.9551C434.087 39.1328 434.618 39.3812 435.452 39.7002C436.076 39.9326 436.537 40.1491 436.833 40.3496C437.134 40.5501 437.355 40.7757 437.496 41.0264C437.637 41.277 437.708 41.5778 437.708 41.9287ZM443.088 44.1367C442.081 44.1367 441.306 43.7744 440.764 43.0498H440.682L440.709 43.3301C440.745 43.6855 440.764 44.0023 440.764 44.2803V47.3633H439.533V36.4941H440.545L440.709 37.5195H440.764C441.055 37.1094 441.393 36.8132 441.775 36.6309C442.158 36.4486 442.6 36.3574 443.102 36.3574C444.077 36.3574 444.833 36.6969 445.371 37.376C445.913 38.0505 446.185 39.0029 446.185 40.2334C446.185 41.4593 445.913 42.4163 445.371 43.1045C444.829 43.7926 444.068 44.1367 443.088 44.1367ZM442.883 37.3896C442.14 37.3896 441.602 37.5993 441.27 38.0186C440.941 38.4378 440.773 39.0964 440.764 39.9941V40.2334C440.764 41.2497 440.932 41.9857 441.27 42.4414C441.607 42.8926 442.154 43.1182 442.91 43.1182C443.539 43.1182 444.029 42.863 444.38 42.3525C444.735 41.8421 444.913 41.1312 444.913 40.2197C444.913 39.3037 444.735 38.6042 444.38 38.1211C444.029 37.6335 443.53 37.3896 442.883 37.3896ZM452.781 44L452.542 42.9336H452.487C452.114 43.403 451.74 43.722 451.366 43.8906C450.997 44.0547 450.53 44.1367 449.965 44.1367C449.227 44.1367 448.648 43.943 448.229 43.5557C447.809 43.1683 447.6 42.6214 447.6 41.915C447.6 40.3929 448.8 39.5954 451.202 39.5225L452.474 39.4746V39.0303C452.474 38.4606 452.351 38.0413 452.104 37.7725C451.858 37.499 451.464 37.3623 450.922 37.3623C450.525 37.3623 450.149 37.4215 449.794 37.54C449.443 37.6585 449.113 37.7907 448.803 37.9365L448.427 37.0137C448.805 36.8132 449.217 36.6559 449.664 36.542C450.111 36.4281 450.553 36.3711 450.99 36.3711C451.897 36.3711 452.572 36.5716 453.014 36.9727C453.456 37.3737 453.677 38.0117 453.677 38.8867V44H452.781ZM450.245 43.1455C450.933 43.1455 451.473 42.9609 451.865 42.5918C452.262 42.2181 452.46 41.6895 452.46 41.0059V40.3291L451.353 40.377C450.491 40.4089 449.862 40.5456 449.466 40.7871C449.074 41.0286 448.878 41.4092 448.878 41.9287C448.878 42.3206 448.996 42.6214 449.233 42.8311C449.475 43.0407 449.812 43.1455 450.245 43.1455ZM459.016 44.1367C457.936 44.1367 457.095 43.8063 456.493 43.1455C455.892 42.4801 455.591 41.5277 455.591 40.2881C455.591 39.0303 455.894 38.0618 456.5 37.3828C457.111 36.6992 457.979 36.3574 459.104 36.3574C459.469 36.3574 459.829 36.3962 460.185 36.4736C460.545 36.5465 460.841 36.6423 461.073 36.7607L460.697 37.7861C460.064 37.5492 459.524 37.4307 459.077 37.4307C458.321 37.4307 457.762 37.6699 457.402 38.1484C457.042 38.6224 456.862 39.3311 456.862 40.2744C456.862 41.1813 457.042 41.8763 457.402 42.3594C457.762 42.8379 458.296 43.0771 459.002 43.0771C459.663 43.0771 460.312 42.9313 460.95 42.6396V43.7334C460.431 44.0023 459.786 44.1367 459.016 44.1367ZM465.927 44.1367C464.801 44.1367 463.917 43.7972 463.274 43.1182C462.636 42.4346 462.317 41.4958 462.317 40.3018C462.317 39.0986 462.616 38.1416 463.213 37.4307C463.81 36.7152 464.617 36.3574 465.633 36.3574C466.576 36.3574 467.328 36.6628 467.889 37.2734C468.449 37.8796 468.729 38.7021 468.729 39.7412V40.4863H463.589C463.612 41.3385 463.828 41.9857 464.238 42.4277C464.648 42.8698 465.229 43.0908 465.981 43.0908C466.382 43.0908 466.763 43.0566 467.123 42.9883C467.483 42.9154 467.905 42.7764 468.388 42.5713V43.6514C467.973 43.8291 467.583 43.9544 467.219 44.0273C466.854 44.1003 466.424 44.1367 465.927 44.1367ZM465.619 37.3623C465.031 37.3623 464.566 37.5514 464.225 37.9297C463.883 38.3079 463.68 38.8343 463.616 39.5088H467.438C467.428 38.807 467.267 38.2738 466.952 37.9092C466.638 37.5446 466.193 37.3623 465.619 37.3623Z" fill="#525965"/>
<path d="M489 42.7498L482.75 36.4998L483.625 35.6248L489 40.9998L494.375 35.6248L495.25 36.4998L489 42.7498Z" fill="#525965"/>
<rect width="525" height="44" transform="translate(516 17)" fill="#F5F5F5"/>
<path d="M539.937 36.6104C539.937 37.736 539.563 38.5996 538.815 39.2012C538.068 39.7982 536.977 40.0967 535.541 40.0967H534.646L533.818 44H532.574L534.687 34.0059H536.942C537.927 34.0059 538.672 34.2246 539.178 34.6621C539.684 35.0951 539.937 35.7445 539.937 36.6104ZM534.871 39.0439H535.739C536.692 39.0439 537.416 38.8389 537.913 38.4287C538.414 38.0186 538.665 37.4261 538.665 36.6514C538.665 36.0954 538.51 35.6943 538.2 35.4482C537.89 35.2021 537.414 35.0791 536.771 35.0791H535.712L534.871 39.0439ZM541.557 44H540.319L542.589 33.3633H543.819L541.557 44ZM546.253 44.1367C545.629 44.1367 545.134 43.9134 544.77 43.4668C544.405 43.0202 544.223 42.3913 544.223 41.5801C544.223 40.6458 544.382 39.7754 544.701 38.9688C545.025 38.1576 545.469 37.5195 546.034 37.0547C546.599 36.5898 547.224 36.3574 547.907 36.3574C548.331 36.3574 548.702 36.4691 549.021 36.6924C549.345 36.9157 549.603 37.237 549.794 37.6562H549.869L550.313 36.4941H551.25L549.657 44H548.68L548.857 42.6123H548.803C548.014 43.6286 547.164 44.1367 546.253 44.1367ZM546.663 43.1182C547.091 43.1182 547.52 42.9131 547.948 42.5029C548.381 42.0928 548.728 41.5596 548.987 40.9033C549.247 40.2425 549.377 39.5703 549.377 38.8867C549.377 38.4401 549.254 38.0801 549.008 37.8066C548.762 37.5286 548.436 37.3896 548.03 37.3896C547.57 37.3896 547.142 37.5833 546.745 37.9707C546.353 38.3535 546.046 38.8708 545.822 39.5225C545.599 40.1742 545.487 40.8691 545.487 41.6074C545.487 42.1133 545.59 42.4915 545.795 42.7422C546 42.9928 546.289 43.1182 546.663 43.1182ZM554.969 44.1367C554.085 44.1367 553.399 43.8929 552.911 43.4053C552.424 42.9176 552.18 42.2295 552.18 41.3408C552.18 40.4157 552.346 39.5703 552.679 38.8047C553.016 38.0391 553.481 37.4398 554.073 37.0068C554.666 36.5739 555.342 36.3574 556.104 36.3574C556.773 36.3574 557.393 36.4782 557.963 36.7197L557.614 37.7451C557.09 37.5081 556.591 37.3896 556.117 37.3896C555.616 37.3896 555.158 37.5651 554.743 37.916C554.333 38.2624 554.014 38.7363 553.786 39.3379C553.558 39.9395 553.444 40.6025 553.444 41.3271C553.444 41.8968 553.588 42.3389 553.875 42.6533C554.167 42.9632 554.572 43.1182 555.092 43.1182C555.424 43.1182 555.737 43.0726 556.028 42.9814C556.32 42.8903 556.609 42.7809 556.896 42.6533V43.6924C556.313 43.9886 555.671 44.1367 554.969 44.1367ZM562.208 37.376C561.739 37.376 561.297 37.597 560.882 38.0391C560.467 38.4766 560.166 39.0485 559.979 39.7549H560.082C561.076 39.7549 561.846 39.6227 562.393 39.3584C562.939 39.0941 563.213 38.709 563.213 38.2031C563.213 37.9616 563.131 37.7633 562.967 37.6084C562.803 37.4535 562.55 37.376 562.208 37.376ZM561.244 44.1367C560.396 44.1367 559.731 43.8883 559.248 43.3916C558.765 42.8903 558.523 42.1976 558.523 41.3135C558.523 40.4567 558.69 39.6387 559.022 38.8594C559.36 38.0801 559.813 37.4694 560.383 37.0273C560.952 36.5807 561.584 36.3574 562.276 36.3574C562.987 36.3574 563.523 36.5124 563.883 36.8223C564.243 37.1276 564.423 37.556 564.423 38.1074C564.423 38.9368 564.04 39.5863 563.274 40.0557C562.509 40.5205 561.429 40.7529 560.034 40.7529H559.802L559.774 41.2725C559.774 41.8467 559.911 42.2979 560.185 42.626C560.463 42.9541 560.889 43.1182 561.463 43.1182C561.814 43.1182 562.149 43.068 562.468 42.9678C562.791 42.8675 563.138 42.7262 563.507 42.5439V43.5967C563.056 43.8063 562.661 43.9476 562.324 44.0205C561.987 44.098 561.627 44.1367 561.244 44.1367ZM571.026 44H569.796L570.787 39.2969C570.874 38.8913 570.917 38.5837 570.917 38.374C570.917 37.7178 570.589 37.3896 569.933 37.3896C569.536 37.3896 569.151 37.5264 568.777 37.7998C568.404 38.0687 568.076 38.4561 567.793 38.9619C567.51 39.4632 567.296 40.0648 567.15 40.7666L566.467 44H565.229L567.485 33.3633H568.716L568.114 36.1182C568.06 36.4007 567.991 36.6947 567.909 37C567.827 37.3008 567.747 37.5993 567.67 37.8955H567.738C568.144 37.3623 568.552 36.9749 568.962 36.7334C569.377 36.4919 569.814 36.3711 570.274 36.3711C570.876 36.3711 571.341 36.5352 571.669 36.8633C571.997 37.1868 572.161 37.6608 572.161 38.2852C572.161 38.5404 572.111 38.9232 572.011 39.4336L571.026 44ZM578.908 39.1533C578.908 38.6292 578.771 38.21 578.498 37.8955C578.225 37.5765 577.853 37.417 577.384 37.417C576.901 37.417 576.465 37.5856 576.078 37.9229C575.691 38.2601 575.392 38.7272 575.183 39.3242C574.973 39.9167 574.868 40.5661 574.868 41.2725C574.868 41.8558 575.007 42.3047 575.285 42.6191C575.568 42.9336 575.969 43.0908 576.488 43.0908C576.944 43.0908 577.356 42.929 577.726 42.6055C578.099 42.2773 578.389 41.8148 578.594 41.2178C578.803 40.6208 578.908 39.9326 578.908 39.1533ZM580.173 39.2969C580.173 40.1628 580.009 40.9762 579.681 41.7373C579.353 42.4938 578.906 43.0794 578.341 43.4941C577.776 43.9043 577.135 44.1094 576.42 44.1094C575.545 44.1094 574.859 43.8496 574.362 43.3301C573.866 42.8105 573.617 42.1087 573.617 41.2246C573.617 40.3496 573.786 39.5293 574.123 38.7637C574.46 37.998 574.909 37.4124 575.47 37.0068C576.035 36.6012 576.668 36.3984 577.37 36.3984C578.241 36.3984 578.924 36.6582 579.421 37.1777C579.922 37.6927 580.173 38.3991 580.173 39.2969ZM582.449 44H581.212L583.481 33.3633H584.712L582.449 44ZM587.146 44.1367C586.517 44.1367 586.02 43.9157 585.655 43.4736C585.295 43.0316 585.115 42.4004 585.115 41.5801C585.115 40.6276 585.275 39.7458 585.594 38.9346C585.913 38.1234 586.353 37.4945 586.913 37.0479C587.478 36.5967 588.107 36.3711 588.8 36.3711C589.666 36.3711 590.295 36.7995 590.687 37.6562H590.762C590.862 36.877 590.965 36.2617 591.069 35.8105L591.582 33.3633H592.806L590.55 44H589.538L589.695 42.6123H589.641C589.203 43.1546 588.786 43.5443 588.39 43.7812C587.993 44.0182 587.578 44.1367 587.146 44.1367ZM587.569 43.1182C587.993 43.1182 588.424 42.9062 588.861 42.4824C589.299 42.054 589.645 41.5186 589.9 40.876C590.156 40.2288 590.283 39.5726 590.283 38.9072C590.283 38.415 590.165 38.0391 589.928 37.7793C589.691 37.5195 589.342 37.3896 588.882 37.3896C588.431 37.3896 588.014 37.5811 587.631 37.9639C587.248 38.3421 586.943 38.8594 586.715 39.5156C586.492 40.1719 586.38 40.8691 586.38 41.6074C586.38 42.6146 586.776 43.1182 587.569 43.1182ZM596.907 37.376C596.438 37.376 595.996 37.597 595.581 38.0391C595.166 38.4766 594.866 39.0485 594.679 39.7549H594.781C595.775 39.7549 596.545 39.6227 597.092 39.3584C597.639 39.0941 597.912 38.709 597.912 38.2031C597.912 37.9616 597.83 37.7633 597.666 37.6084C597.502 37.4535 597.249 37.376 596.907 37.376ZM595.943 44.1367C595.096 44.1367 594.43 43.8883 593.947 43.3916C593.464 42.8903 593.223 42.1976 593.223 41.3135C593.223 40.4567 593.389 39.6387 593.722 38.8594C594.059 38.0801 594.512 37.4694 595.082 37.0273C595.652 36.5807 596.283 36.3574 596.976 36.3574C597.687 36.3574 598.222 36.5124 598.582 36.8223C598.942 37.1276 599.122 37.556 599.122 38.1074C599.122 38.9368 598.739 39.5863 597.974 40.0557C597.208 40.5205 596.128 40.7529 594.733 40.7529H594.501L594.474 41.2725C594.474 41.8467 594.61 42.2979 594.884 42.626C595.162 42.9541 595.588 43.1182 596.162 43.1182C596.513 43.1182 596.848 43.068 597.167 42.9678C597.491 42.8675 597.837 42.7262 598.206 42.5439V43.5967C597.755 43.8063 597.361 43.9476 597.023 44.0205C596.686 44.098 596.326 44.1367 595.943 44.1367ZM604.734 36.3574C605.053 36.3574 605.325 36.3893 605.548 36.4531L605.281 37.5605C605.026 37.5059 604.787 37.4785 604.563 37.4785C604.153 37.4785 603.768 37.613 603.408 37.8818C603.048 38.1462 602.734 38.5176 602.465 38.9961C602.201 39.4746 602.009 39.9987 601.891 40.5684L601.166 44H599.929L601.528 36.4941H602.533L602.383 37.8818H602.451C602.784 37.4443 603.057 37.1322 603.271 36.9453C603.486 36.7585 603.711 36.6149 603.948 36.5146C604.185 36.4098 604.447 36.3574 604.734 36.3574ZM611.529 43.1318C611.812 43.1318 612.142 43.0703 612.521 42.9473V43.8906C612.393 43.9544 612.208 44.0114 611.967 44.0615C611.73 44.1117 611.522 44.1367 611.345 44.1367C610.761 44.1367 610.317 44 610.012 43.7266C609.706 43.4531 609.554 43.0452 609.554 42.5029C609.554 42.2113 609.595 41.8786 609.677 41.5049L610.531 37.4307H609.369L609.479 36.877L610.743 36.3438L611.611 34.7852H612.336L611.96 36.4941H613.847L613.655 37.4307H611.775L610.907 41.5254C610.825 41.8945 610.784 42.1725 610.784 42.3594C610.784 42.5781 610.841 42.7627 610.955 42.9131C611.069 43.0589 611.26 43.1318 611.529 43.1318ZM617.757 37.376C617.287 37.376 616.845 37.597 616.431 38.0391C616.016 38.4766 615.715 39.0485 615.528 39.7549H615.631C616.624 39.7549 617.395 39.6227 617.941 39.3584C618.488 39.0941 618.762 38.709 618.762 38.2031C618.762 37.9616 618.68 37.7633 618.516 37.6084C618.352 37.4535 618.099 37.376 617.757 37.376ZM616.793 44.1367C615.945 44.1367 615.28 43.8883 614.797 43.3916C614.314 42.8903 614.072 42.1976 614.072 41.3135C614.072 40.4567 614.239 39.6387 614.571 38.8594C614.909 38.0801 615.362 37.4694 615.932 37.0273C616.501 36.5807 617.132 36.3574 617.825 36.3574C618.536 36.3574 619.072 36.5124 619.432 36.8223C619.792 37.1276 619.972 37.556 619.972 38.1074C619.972 38.9368 619.589 39.5863 618.823 40.0557C618.058 40.5205 616.978 40.7529 615.583 40.7529H615.351L615.323 41.2725C615.323 41.8467 615.46 42.2979 615.733 42.626C616.011 42.9541 616.438 43.1182 617.012 43.1182C617.363 43.1182 617.698 43.068 618.017 42.9678C618.34 42.8675 618.687 42.7262 619.056 42.5439V43.5967C618.604 43.8063 618.21 43.9476 617.873 44.0205C617.536 44.098 617.176 44.1367 616.793 44.1367ZM623.116 40.1377L621.496 36.4941H622.74L623.902 39.2695L626.104 36.4941H627.525L624.408 40.1924L626.131 44H624.88L623.608 41.0879L621.298 44H619.869L623.116 40.1377ZM629.932 43.1318C630.214 43.1318 630.545 43.0703 630.923 42.9473V43.8906C630.795 43.9544 630.611 44.0114 630.369 44.0615C630.132 44.1117 629.925 44.1367 629.747 44.1367C629.164 44.1367 628.719 44 628.414 43.7266C628.109 43.4531 627.956 43.0452 627.956 42.5029C627.956 42.2113 627.997 41.8786 628.079 41.5049L628.934 37.4307H627.771L627.881 36.877L629.146 36.3438L630.014 34.7852H630.738L630.362 36.4941H632.249L632.058 37.4307H630.178L629.31 41.5254C629.228 41.8945 629.187 42.1725 629.187 42.3594C629.187 42.5781 629.243 42.7627 629.357 42.9131C629.471 43.0589 629.663 43.1318 629.932 43.1318Z" fill="#707070"/>
<path d="M1019 34.05L1017.95 33L1013 37.95L1008.05 33L1007 34.05L1011.95 39L1007 43.95L1008.05 45L1013 40.05L1017.95 45L1019 43.95L1014.05 39L1019 34.05Z" fill="#525965"/>
</g>
<path d="M1229.53 41.3409L1227.5 39.43V36.8988C1227.5 35.1496 1226.81 33.4634 1225.56 32.1661C1224.31 30.8689 1222.6 30.0529 1220.75 29.8758V28.4282H1219.25V29.8758C1217.4 30.0529 1215.69 30.8689 1214.44 32.1661C1213.19 33.4634 1212.5 35.1496 1212.5 36.8988V39.43L1210.47 41.3409C1210.33 41.4733 1210.25 41.6528 1210.25 41.84V43.9576C1210.25 44.1448 1210.33 44.3244 1210.47 44.4568C1210.61 44.5891 1210.8 44.6635 1211 44.6635H1216.25V45.2118C1216.23 46.1073 1216.57 46.9769 1217.19 47.654C1217.81 48.3313 1218.68 48.7683 1219.62 48.8816C1220.15 48.9303 1220.67 48.8756 1221.17 48.7213C1221.67 48.567 1222.13 48.3164 1222.51 47.9857C1222.9 47.6549 1223.21 47.2513 1223.43 46.8006C1223.64 46.35 1223.75 45.8625 1223.75 45.3694V44.6635H1229C1229.2 44.6635 1229.39 44.5891 1229.53 44.4568C1229.67 44.3244 1229.75 44.1448 1229.75 43.9576V41.84C1229.75 41.6528 1229.67 41.4733 1229.53 41.3409ZM1222.25 45.3694C1222.25 45.931 1222.01 46.4697 1221.59 46.8668C1221.17 47.264 1220.6 47.487 1220 47.487C1219.4 47.487 1218.83 47.264 1218.41 46.8668C1217.99 46.4697 1217.75 45.931 1217.75 45.3694V44.6635H1222.25V45.3694ZM1228.25 43.2517H1211.75V42.1323L1213.78 40.2214C1213.92 40.089 1214 39.9095 1214 39.7223V36.8988C1214 35.4011 1214.63 33.9648 1215.76 32.9057C1216.88 31.8467 1218.41 31.2518 1220 31.2518C1221.59 31.2518 1223.12 31.8467 1224.24 32.9057C1225.37 33.9648 1226 35.4011 1226 36.8988V39.7223C1226 39.9095 1226.08 40.089 1226.22 40.2214L1228.25 42.1323V43.2517Z" fill="#32373F"/>
<rect x="1262" y="23" width="32" height="32" rx="16" fill="#1F428F"/>
<path d="M1275.22 41.66C1275.22 42.42 1274.95 43.02 1274.4 43.46C1273.84 43.9 1273.08 44.12 1272.1 44.12C1271.16 44.12 1270.36 43.96 1269.7 43.64V42.2C1270.06 42.36 1270.46 42.508 1270.89 42.644C1271.33 42.772 1271.77 42.836 1272.21 42.836C1272.73 42.836 1273.11 42.736 1273.34 42.536C1273.58 42.328 1273.7 42.064 1273.7 41.744C1273.7 41.392 1273.55 41.112 1273.24 40.904C1272.94 40.688 1272.5 40.456 1271.91 40.208C1271.56 40.064 1271.22 39.888 1270.89 39.68C1270.57 39.464 1270.31 39.196 1270.1 38.876C1269.9 38.548 1269.8 38.14 1269.8 37.652C1269.8 36.924 1270.06 36.352 1270.57 35.936C1271.09 35.52 1271.78 35.312 1272.64 35.312C1273.09 35.312 1273.52 35.36 1273.92 35.456C1274.32 35.552 1274.72 35.688 1275.12 35.864L1274.62 37.1C1274.26 36.948 1273.92 36.828 1273.59 36.74C1273.27 36.652 1272.94 36.608 1272.6 36.608C1272.18 36.608 1271.86 36.7 1271.65 36.884C1271.43 37.068 1271.32 37.312 1271.32 37.616C1271.32 37.848 1271.38 38.048 1271.5 38.216C1271.62 38.376 1271.81 38.524 1272.06 38.66C1272.31 38.796 1272.64 38.952 1273.04 39.128C1273.5 39.328 1273.9 39.54 1274.22 39.764C1274.54 39.98 1274.79 40.24 1274.96 40.544C1275.14 40.84 1275.22 41.212 1275.22 41.66ZM1280.53 44L1278.17 36.98H1278.13C1278.14 37.14 1278.15 37.368 1278.16 37.664C1278.18 37.952 1278.19 38.268 1278.2 38.612C1278.21 38.948 1278.22 39.264 1278.22 39.56V44H1276.84V35.432H1278.98L1281.23 42.164H1281.28L1283.63 35.432H1285.77V44H1284.31V39.488C1284.31 39.216 1284.31 38.92 1284.32 38.6C1284.33 38.272 1284.35 37.964 1284.35 37.676C1284.37 37.38 1284.38 37.152 1284.39 36.992H1284.34L1281.89 44H1280.53Z" fill="white"/>
<path d="M1309.03 41.8271C1309.03 42.6976 1308.71 43.3835 1308.08 43.8848C1307.46 44.3861 1306.58 44.6367 1305.46 44.6367C1304.27 44.6367 1303.36 44.4795 1302.71 44.165V42.9619C1303.13 43.1442 1303.6 43.2878 1304.1 43.3926C1304.6 43.4974 1305.08 43.5498 1305.51 43.5498C1306.26 43.5498 1306.82 43.4062 1307.2 43.1191C1307.58 42.832 1307.77 42.4378 1307.77 41.9365C1307.77 41.6038 1307.7 41.3304 1307.56 41.1162C1307.43 40.902 1307.2 40.7015 1306.87 40.5146C1306.56 40.3278 1306.07 40.1159 1305.42 39.8789C1304.49 39.5417 1303.83 39.1452 1303.44 38.6895C1303.04 38.2292 1302.84 37.6367 1302.84 36.9121C1302.84 36.1328 1303.13 35.513 1303.72 35.0527C1304.3 34.5924 1305.08 34.3623 1306.03 34.3623C1307.03 34.3623 1307.95 34.5492 1308.79 34.9229L1308.4 36.0029C1307.54 35.6475 1306.74 35.4697 1306.01 35.4697C1305.41 35.4697 1304.95 35.5973 1304.61 35.8525C1304.28 36.1077 1304.11 36.4655 1304.11 36.9258C1304.11 37.2539 1304.18 37.5273 1304.3 37.7461C1304.44 37.9603 1304.65 38.1562 1304.93 38.334C1305.22 38.5117 1305.68 38.7145 1306.3 38.9424C1307.04 39.2158 1307.6 39.4824 1307.96 39.7422C1308.33 39.9974 1308.59 40.2936 1308.77 40.6309C1308.94 40.9635 1309.03 41.3623 1309.03 41.8271ZM1313.88 44.6367C1312.8 44.6367 1311.96 44.3063 1311.36 43.6455C1310.76 42.9801 1310.46 42.0277 1310.46 40.7881C1310.46 39.5303 1310.76 38.5618 1311.37 37.8828C1311.98 37.1992 1312.84 36.8574 1313.97 36.8574C1314.33 36.8574 1314.69 36.8962 1315.05 36.9736C1315.41 37.0465 1315.71 37.1423 1315.94 37.2607L1315.56 38.2861C1314.93 38.0492 1314.39 37.9307 1313.94 37.9307C1313.19 37.9307 1312.63 38.1699 1312.27 38.6484C1311.91 39.1224 1311.73 39.8311 1311.73 40.7744C1311.73 41.6813 1311.91 42.3763 1312.27 42.8594C1312.63 43.3379 1313.16 43.5771 1313.87 43.5771C1314.53 43.5771 1315.18 43.4313 1315.82 43.1396V44.2334C1315.3 44.5023 1314.65 44.6367 1313.88 44.6367ZM1324.12 40.7334C1324.12 41.9593 1323.81 42.9163 1323.19 43.6045C1322.57 44.2926 1321.71 44.6367 1320.62 44.6367C1319.94 44.6367 1319.34 44.4795 1318.82 44.165C1318.29 43.846 1317.89 43.3903 1317.61 42.7979C1317.32 42.2054 1317.18 41.5173 1317.18 40.7334C1317.18 39.512 1317.49 38.5618 1318.1 37.8828C1318.71 37.1992 1319.57 36.8574 1320.67 36.8574C1321.73 36.8574 1322.56 37.2061 1323.18 37.9033C1323.81 38.596 1324.12 39.5394 1324.12 40.7334ZM1318.45 40.7334C1318.45 41.6768 1318.64 42.3945 1319.01 42.8867C1319.38 43.3743 1319.93 43.6182 1320.66 43.6182C1321.37 43.6182 1321.92 43.3743 1322.29 42.8867C1322.66 42.3945 1322.85 41.6768 1322.85 40.7334C1322.85 39.79 1322.66 39.0814 1322.28 38.6074C1321.91 38.1289 1321.36 37.8896 1320.63 37.8896C1319.18 37.8896 1318.45 38.8376 1318.45 40.7334ZM1328.58 43.6318C1328.74 43.6318 1328.93 43.6159 1329.15 43.584C1329.36 43.5521 1329.52 43.5156 1329.63 43.4746V44.418C1329.52 44.4681 1329.34 44.516 1329.1 44.5615C1328.86 44.6117 1328.62 44.6367 1328.37 44.6367C1326.91 44.6367 1326.17 43.8643 1326.17 42.3193V37.9512H1325.11V37.3633L1326.19 36.8711L1326.68 35.2715H1327.41V36.9941H1329.58V37.9512H1327.41V42.2852C1327.41 42.7181 1327.51 43.0508 1327.72 43.2832C1327.93 43.5156 1328.22 43.6318 1328.58 43.6318ZM1333.64 43.6318C1333.8 43.6318 1333.99 43.6159 1334.2 43.584C1334.42 43.5521 1334.58 43.5156 1334.69 43.4746V44.418C1334.58 44.4681 1334.4 44.516 1334.16 44.5615C1333.92 44.6117 1333.68 44.6367 1333.43 44.6367C1331.96 44.6367 1331.23 43.8643 1331.23 42.3193V37.9512H1330.17V37.3633L1331.24 36.8711L1331.74 35.2715H1332.47V36.9941H1334.63V37.9512H1332.47V42.2852C1332.47 42.7181 1332.57 43.0508 1332.78 43.2832C1332.99 43.5156 1333.27 43.6318 1333.64 43.6318ZM1344.41 44.5L1341.12 35.7363H1341.06C1341.13 36.4655 1341.16 37.3656 1341.16 38.4365V44.5H1340V34.5059H1341.86L1344.94 42.6953H1345L1348.14 34.5059H1349.98V44.5H1348.74V38.3545C1348.74 37.6709 1348.77 36.8027 1348.83 35.75H1348.78L1345.44 44.5H1344.41ZM1357.17 44.5L1356.93 43.4336H1356.87C1356.5 43.903 1356.12 44.222 1355.75 44.3906C1355.38 44.5547 1354.91 44.6367 1354.35 44.6367C1353.61 44.6367 1353.03 44.443 1352.61 44.0557C1352.19 43.6683 1351.98 43.1214 1351.98 42.415C1351.98 40.8929 1353.19 40.0954 1355.59 40.0225L1356.86 39.9746V39.5303C1356.86 38.9606 1356.74 38.5413 1356.49 38.2725C1356.24 37.999 1355.85 37.8623 1355.31 37.8623C1354.91 37.8623 1354.53 37.9215 1354.18 38.04C1353.83 38.1585 1353.5 38.2907 1353.19 38.4365L1352.81 37.5137C1353.19 37.3132 1353.6 37.1559 1354.05 37.042C1354.5 36.9281 1354.94 36.8711 1355.38 36.8711C1356.28 36.8711 1356.96 37.0716 1357.4 37.4727C1357.84 37.8737 1358.06 38.5117 1358.06 39.3867V44.5H1357.17ZM1354.63 43.6455C1355.32 43.6455 1355.86 43.4609 1356.25 43.0918C1356.65 42.7181 1356.84 42.1895 1356.84 41.5059V40.8291L1355.74 40.877C1354.88 40.9089 1354.25 41.0456 1353.85 41.2871C1353.46 41.5286 1353.26 41.9092 1353.26 42.4287C1353.26 42.8206 1353.38 43.1214 1353.62 43.3311C1353.86 43.5407 1354.2 43.6455 1354.63 43.6455ZM1363.89 36.8574C1364.23 36.8574 1364.52 36.8848 1364.77 36.9395L1364.62 38.0742C1364.35 38.0104 1364.07 37.9785 1363.81 37.9785C1363.41 37.9785 1363.04 38.0879 1362.7 38.3066C1362.37 38.5254 1362.1 38.8285 1361.91 39.2158C1361.72 39.5986 1361.62 40.0247 1361.62 40.4941V44.5H1360.39V36.9941H1361.4L1361.54 38.3682H1361.6C1361.88 37.8714 1362.22 37.4954 1362.61 37.2402C1363.01 36.985 1363.43 36.8574 1363.89 36.8574ZM1371.06 42.4287C1371.06 43.1305 1370.8 43.6751 1370.28 44.0625C1369.75 44.4453 1369.02 44.6367 1368.07 44.6367C1367.08 44.6367 1366.29 44.4795 1365.71 44.165V43.0439C1366.54 43.445 1367.33 43.6455 1368.1 43.6455C1368.72 43.6455 1369.17 43.5452 1369.45 43.3447C1369.73 43.1442 1369.87 42.8753 1369.87 42.5381C1369.87 42.2419 1369.74 41.9912 1369.46 41.7861C1369.19 41.5811 1368.71 41.3464 1368.02 41.082C1367.32 40.8086 1366.82 40.5762 1366.53 40.3848C1366.24 40.1888 1366.03 39.9701 1365.9 39.7285C1365.76 39.487 1365.7 39.193 1365.7 38.8467C1365.7 38.2314 1365.95 37.7461 1366.45 37.3906C1366.95 37.0352 1367.64 36.8574 1368.51 36.8574C1369.37 36.8574 1370.16 37.026 1370.91 37.3633L1370.49 38.3408C1369.73 38.0218 1369.04 37.8623 1368.43 37.8623C1367.92 37.8623 1367.53 37.9443 1367.27 38.1084C1367.01 38.2679 1366.87 38.4889 1366.87 38.7715C1366.87 39.0449 1366.99 39.2728 1367.21 39.4551C1367.44 39.6328 1367.97 39.8812 1368.81 40.2002C1369.43 40.4326 1369.89 40.6491 1370.19 40.8496C1370.49 41.0501 1370.71 41.2757 1370.85 41.5264C1370.99 41.777 1371.06 42.0778 1371.06 42.4287ZM1378 44.5V39.7012C1378 39.0905 1377.87 38.637 1377.59 38.3408C1377.32 38.04 1376.9 37.8896 1376.32 37.8896C1375.56 37.8896 1375 38.1016 1374.65 38.5254C1374.29 38.9492 1374.12 39.6488 1374.12 40.624V44.5H1372.89V33.8633H1374.12V36.9805C1374.12 37.3906 1374.1 37.7415 1374.05 38.0332H1374.13C1374.36 37.6686 1374.67 37.3838 1375.08 37.1787C1375.49 36.9736 1375.96 36.8711 1376.47 36.8711C1377.38 36.8711 1378.07 37.0898 1378.53 37.5273C1378.99 37.9603 1379.22 38.6553 1379.22 39.6123V44.5H1378ZM1386.18 44.5L1385.94 43.4336H1385.88C1385.51 43.903 1385.14 44.222 1384.76 44.3906C1384.39 44.5547 1383.93 44.6367 1383.36 44.6367C1382.62 44.6367 1382.04 44.443 1381.62 44.0557C1381.21 43.6683 1381 43.1214 1381 42.415C1381 40.8929 1382.2 40.0954 1384.6 40.0225L1385.87 39.9746V39.5303C1385.87 38.9606 1385.75 38.5413 1385.5 38.2725C1385.25 37.999 1384.86 37.8623 1384.32 37.8623C1383.92 37.8623 1383.55 37.9215 1383.19 38.04C1382.84 38.1585 1382.51 38.2907 1382.2 38.4365L1381.82 37.5137C1382.2 37.3132 1382.61 37.1559 1383.06 37.042C1383.51 36.9281 1383.95 36.8711 1384.39 36.8711C1385.29 36.8711 1385.97 37.0716 1386.41 37.4727C1386.85 37.8737 1387.07 38.5117 1387.07 39.3867V44.5H1386.18ZM1383.64 43.6455C1384.33 43.6455 1384.87 43.4609 1385.26 43.0918C1385.66 42.7181 1385.86 42.1895 1385.86 41.5059V40.8291L1384.75 40.877C1383.89 40.9089 1383.26 41.0456 1382.86 41.2871C1382.47 41.5286 1382.27 41.9092 1382.27 42.4287C1382.27 42.8206 1382.39 43.1214 1382.63 43.3311C1382.87 43.5407 1383.21 43.6455 1383.64 43.6455ZM1390.63 44.5H1389.4V33.8633H1390.63V44.5ZM1394.24 44.5H1393.01V33.8633H1394.24V44.5Z" fill="#525965"/>
<path d="M1410 42.7498L1403.75 36.4998L1404.63 35.6248L1410 40.9998L1415.38 35.6248L1416.25 36.4998L1410 42.7498Z" fill="#525965"/>
<line y1="72.5" x2="1440" y2="72.5" stroke="#F5F5F5"/>
<defs>
<linearGradient id="paint0_linear_33896_10138" x1="32.0553" y1="51.4538" x2="15.9447" y2="23.5511" gradientUnits="userSpaceOnUse">
<stop stop-color="#54A0E4"/>
<stop offset="0.49" stop-color="#0B77D8"/>
<stop offset="1" stop-color="#0347BF"/>
</linearGradient>
<clipPath id="clip0_33896_10138">
<rect width="216" height="26.9953" fill="white" transform="translate(12 25.5024)"/>
</clipPath>
<clipPath id="clip1_33896_10138">
<rect width="660" height="44" fill="white" transform="translate(381 17)"/>
</clipPath>
</defs>
</svg>
