<svg width="1440" height="73" viewBox="0 0 1440 73" fill="none" xmlns="http://www.w3.org/2000/svg">
<rect width="1440" height="5" fill="#00928F"/>
<rect width="1440" height="68" transform="translate(0 5)" fill="white"/>
<g clip-path="url(#clip0_33896_10135)">
<path fill-rule="evenodd" clip-rule="evenodd" d="M47.363 31.5953C47.363 30.808 47.363 29.4696 48.8657 29.4696C50.3685 29.4696 50.3664 30.808 50.3664 31.5953V43.0919C50.3664 43.703 50.3664 45.2134 48.8657 45.2134C47.365 45.2134 47.363 43.703 47.363 43.0919V31.5953ZM42.1534 42.6257C42.1534 46.759 44.7289 49.183 48.8636 49.183C52.9983 49.183 55.5718 46.759 55.5718 42.6257V32.0594C55.5718 27.518 52.7416 25.5 48.8636 25.5C44.9857 25.5 42.1534 27.518 42.1534 32.0594V42.6257Z" fill="#32373F"/>
<path d="M88.8496 44.0511C88.8496 46.2327 89.9516 49.183 94.8231 49.183C99.6945 49.183 100.797 46.2327 100.797 44.0511V40.3923H95.9251V44.4013C95.9251 45.0394 95.9251 45.9137 94.821 45.9137C93.7169 45.9137 93.7169 45.0394 93.7169 44.4013V34.9413C93.7169 34.3011 93.7169 33.4268 94.821 33.4268C95.9251 33.4268 95.9251 34.3011 95.9251 34.9413V37.5995H100.797V35.2915C100.797 33.1077 99.6904 30.1595 94.8231 30.1595C89.9558 30.1595 88.8496 33.1077 88.8496 35.2915V44.0511Z" fill="#32373F"/>
<path d="M102.205 45.694C102.205 48.6049 103.823 48.953 105.918 48.953H107.077V33.9696H108.291V30.3584H107.077V25.703H102.205V30.3584H100.986V33.9696H102.205V45.694Z" fill="#32373F"/>
<path fill-rule="evenodd" clip-rule="evenodd" d="M108.972 48.9696H113.844V30.3708H108.972V48.9696ZM108.972 29.1485H113.844V25.7155H108.972V29.1505V29.1485Z" fill="#32373F"/>
<path fill-rule="evenodd" clip-rule="evenodd" d="M117.471 48.9696H123.167L126.475 30.3708H121.608L120.389 42.2735H120.333L119.199 30.3708H114.188L117.471 48.9696Z" fill="#32373F"/>
<path fill-rule="evenodd" clip-rule="evenodd" d="M75.903 44.0511C75.903 46.2327 77.005 49.183 81.8743 49.183C86.7437 49.183 87.852 46.2348 87.852 44.0511V42.0725H82.9785V44.4013C82.9785 45.0394 82.9785 45.9137 81.8743 45.9137C80.7702 45.9137 80.7702 45.0394 80.7702 44.4013V40.413H87.852V35.2915C87.852 33.1077 86.7479 30.1595 81.8743 30.1595C77.0008 30.1595 75.903 33.1077 75.903 35.2915V44.0532V44.0511ZM80.7702 34.9392C80.7702 34.299 80.7702 33.4268 81.8743 33.4268C82.9785 33.4268 82.9785 34.299 82.9785 34.9392V36.9779H80.7702V34.9392Z" fill="#32373F"/>
<path fill-rule="evenodd" clip-rule="evenodd" d="M126.304 44.0511C126.304 46.2327 127.406 49.183 132.277 49.183C137.149 49.183 138.253 46.2348 138.253 44.0511V42.0725H133.384V44.4013C133.384 45.0394 133.384 45.9137 132.28 45.9137C131.175 45.9137 131.175 45.0394 131.175 44.4013V40.413H138.255V35.2915C138.255 33.1077 137.151 30.1595 132.28 30.1595C127.408 30.1595 126.306 33.1077 126.306 35.2915V44.0532L126.304 44.0511ZM131.173 34.9392C131.173 34.299 131.173 33.4247 132.277 33.4247C133.382 33.4247 133.382 34.299 133.382 34.9392V36.9779H131.171V34.9392" fill="#32373F"/>
<path fill-rule="evenodd" clip-rule="evenodd" d="M61.7103 44.3763C61.7103 45.0165 61.7103 45.8908 62.8144 45.8908C63.9185 45.8908 63.9206 45.0165 63.9206 44.3763V34.9164C63.9206 34.2762 63.9206 33.4019 62.8144 33.4019C61.7082 33.4019 61.7103 34.2741 61.7103 34.9164L61.6978 44.3763H61.7103ZM61.6978 48.6132V48.9571H56.8284V25.703H61.6978V30.6008C62.0526 30.346 62.7873 30.1326 63.1839 30.1326C67.7485 30.1326 68.7879 33.0828 68.7879 35.2645V44.0241C68.7879 46.2058 67.784 49.156 63.3237 49.156C62.9271 49.156 62.0526 48.9758 61.6936 48.6112H61.6978" fill="#32373F"/>
<path d="M69.925 52.4834L71.0772 52.5C74.5043 52.5 74.7965 50.4199 74.7965 47.625V30.3708H69.9271V52.4834" fill="#32373F"/>
<path d="M69.925 25.7155H74.7965V29.1485H69.925V25.7155Z" fill="#32373F"/>
<path d="M152.82 49.2017L146.472 39.5097H146.445V49.2017H144.588V30.2983H146.445V38.7887H146.472L152.444 30.2983H154.623L148.219 39.029L155.08 49.2017H152.82Z" fill="#00928F"/>
<path d="M156.591 49.2017V30.2983H164.259V31.9537H158.421V38.5753H163.881V40.1768H158.421V47.5193H164.526V49.2017H156.591Z" fill="#00928F"/>
<path d="M172.249 41.4323V49.2017H170.421V41.4323L165.687 30.2983H167.73L171.335 39.5097L175.021 30.2983H177.037L172.249 41.4323Z" fill="#00928F"/>
<path d="M186.091 44.1815C186.091 44.9833 185.972 45.6981 185.73 46.3197C185.488 46.9433 185.158 47.4716 184.736 47.9088C184.315 48.3438 183.82 48.6774 183.252 48.9074C182.685 49.1373 182.082 49.2534 181.445 49.2534C180.516 49.2534 179.66 49.0565 178.878 48.665C178.095 48.2713 177.463 47.7513 176.981 47.1028L178.091 45.8473C178.485 46.4108 178.984 46.8459 179.587 47.1546C180.191 47.4612 180.8 47.6146 181.42 47.6146C182.246 47.6146 182.937 47.3245 183.497 46.7444C184.056 46.1643 184.336 45.3356 184.336 44.2603C184.336 43.7485 184.25 43.2948 184.079 42.9032C183.908 42.5096 183.674 42.1594 183.382 41.8528C183.09 41.5462 182.758 41.2727 182.388 41.0324C182.019 40.7941 181.627 40.5704 181.215 40.3673C180.717 40.1291 180.243 39.8597 179.796 39.5593C179.347 39.261 178.957 38.915 178.621 38.5213C178.285 38.1298 178.014 37.6636 177.807 37.1249C177.6 36.5862 177.498 35.9585 177.498 35.2416C177.498 34.4046 177.628 33.6753 177.886 33.0517C178.143 32.4281 178.492 31.9081 178.93 31.4896C179.368 31.071 179.863 30.7603 180.414 30.5552C180.965 30.3501 181.541 30.2485 182.142 30.2485C182.969 30.2485 183.712 30.3894 184.375 30.6712C185.037 30.953 185.592 31.3922 186.039 31.9909L184.928 33.2465C184.584 32.7513 184.181 32.397 183.716 32.1836C183.252 31.9702 182.743 31.8625 182.192 31.8625C181.831 31.8625 181.474 31.9267 181.121 32.0552C180.767 32.1836 180.454 32.3846 180.178 32.6581C179.903 32.9315 179.679 33.2817 179.506 33.7085C179.335 34.1353 179.249 34.6387 179.249 35.2209C179.249 35.7327 179.327 36.1781 179.483 36.5531C179.637 36.9302 179.848 37.2617 180.115 37.5517C180.383 37.8418 180.692 38.0987 181.044 38.3204C181.397 38.542 181.762 38.7472 182.142 38.9357C182.624 39.1739 183.1 39.4474 183.574 39.7561C184.046 40.0628 184.471 40.4233 184.851 40.8314C185.229 41.2416 185.532 41.7202 185.755 42.2672C185.978 42.8141 186.091 43.4543 186.091 44.1878" fill="#00928F"/>
<path d="M193.093 31.8999V49.2017H191.238V31.8999H187.579V30.2983H196.779V31.8999H193.093Z" fill="#00928F"/>
<path d="M209.588 39.7458C209.588 41.1733 209.449 42.4765 209.171 43.6533C208.893 44.8321 208.497 45.8432 207.975 46.6844C207.455 47.5276 206.823 48.1802 206.078 48.6443C205.333 49.1084 204.483 49.3404 203.532 49.3404C202.58 49.3404 201.726 49.1084 200.971 48.6443C200.217 48.1802 199.576 47.5255 199.046 46.6844C198.518 45.8411 198.115 44.8321 197.838 43.6533C197.56 42.4744 197.422 41.1733 197.422 39.7458C197.422 38.3183 197.556 37.0421 197.825 35.8632C198.094 34.6864 198.489 33.6795 199.009 32.8446C199.528 32.0117 200.165 31.3611 200.918 30.8971C201.674 30.433 202.542 30.2009 203.529 30.2009C204.517 30.2009 205.331 30.433 206.076 30.8971C206.819 31.3611 207.453 32.0117 207.973 32.8446C208.493 33.6795 208.891 34.6844 209.169 35.8632C209.447 37.0421 209.586 38.3349 209.586 39.7458M207.691 39.7458C207.691 38.6457 207.604 37.6139 207.43 36.6505C207.257 35.6871 206.994 34.8542 206.637 34.1478C206.282 33.4433 205.844 32.8839 205.324 32.4716C204.805 32.0594 204.206 31.8522 203.532 31.8522C202.822 31.8522 202.202 32.0594 201.674 32.4716C201.144 32.8839 200.708 33.4433 200.361 34.1478C200.015 34.8522 199.754 35.6871 199.583 36.6505C199.409 37.6139 199.324 38.6457 199.324 39.7458C199.324 40.846 199.409 41.8777 199.583 42.8411C199.756 43.8045 200.015 44.6478 200.361 45.3687C200.708 46.0918 201.146 46.6595 201.674 47.0718C202.202 47.4841 202.822 47.6913 203.532 47.6913C204.241 47.6913 204.83 47.4841 205.349 47.0718C205.869 46.6595 206.301 46.0918 206.648 45.3687C206.994 44.6457 207.255 43.8045 207.426 42.8411C207.599 41.8777 207.687 40.846 207.687 39.7458" fill="#00928F"/>
<path d="M219.836 49.2017L213.214 33.4744H213.132V49.2017H211.356V30.2983H213.698L220.287 46.0235H220.369V30.2983H222.089V49.2017H219.836Z" fill="#00928F"/>
<path d="M225.067 49.2017V30.2983H232.733V31.9537H226.895V38.5753H232.355V40.1768H226.895V47.5193H233V49.2017H225.067Z" fill="#00928F"/>
<rect x="12" y="25.5127" width="24" height="24" rx="1" fill="white"/>
<path d="M35.2312 25.5127H12.7688C12.3466 25.5127 12 25.8593 12 26.2815V48.7439C12 49.1661 12.3466 49.5127 12.7688 49.5127H35.2312C35.6534 49.5127 36 49.1661 36 48.7439V26.2815C36 25.8593 35.6555 25.5127 35.2312 25.5127ZM20.3074 41.4805L18.4485 41.4847C18.3581 41.4847 18.2594 41.4154 18.23 41.3293L15.4847 33.8852C15.4553 33.7991 15.5057 33.7297 15.596 33.7297L18.7089 33.7255C18.7992 33.7255 18.8896 33.797 18.9085 33.8852L20.4376 41.3209C20.4565 41.4091 20.3977 41.4826 20.3074 41.4826V41.4805ZM25.8946 43.4507H22.0235C21.9331 43.4507 21.8428 43.3793 21.8239 43.289L19.3391 31.7637C19.3201 31.6755 19.379 31.602 19.4693 31.602H28.4131C28.5034 31.602 28.5622 31.6755 28.5433 31.7637L26.0942 43.289C26.0753 43.3772 25.9849 43.4507 25.8946 43.4507ZM32.404 33.8789L30.2594 41.3209C30.23 41.407 30.1334 41.4763 30.0431 41.4763L27.3923 41.4826C27.3019 41.4826 27.2431 41.4112 27.262 41.323L28.9823 33.8915C29.0012 33.8033 29.0915 33.7297 29.1819 33.7297L32.2948 33.7234C32.3851 33.7234 32.4355 33.7928 32.4061 33.8789H32.404Z" fill="url(#paint0_linear_33896_10135)"/>
</g>
<path d="M1229.53 41.341L1227.5 39.4302V36.8989C1227.5 35.1497 1226.81 33.4635 1225.56 32.1663C1224.31 30.8691 1222.6 30.053 1220.75 29.876V28.4283H1219.25V29.876C1217.4 30.053 1215.69 30.8691 1214.44 32.1663C1213.19 33.4635 1212.5 35.1497 1212.5 36.8989V39.4302L1210.47 41.341C1210.33 41.4734 1210.25 41.6529 1210.25 41.8401V43.9577C1210.25 44.1449 1210.33 44.3245 1210.47 44.4569C1210.61 44.5892 1210.8 44.6636 1211 44.6636H1216.25V45.2119C1216.23 46.1074 1216.57 46.9771 1217.19 47.6542C1217.81 48.3314 1218.68 48.7685 1219.62 48.8817C1220.15 48.9304 1220.67 48.8758 1221.17 48.7214C1221.67 48.5671 1222.13 48.3166 1222.51 47.9858C1222.9 47.655 1223.21 47.2514 1223.43 46.8007C1223.64 46.3501 1223.75 45.8626 1223.75 45.3695V44.6636H1229C1229.2 44.6636 1229.39 44.5892 1229.53 44.4569C1229.67 44.3245 1229.75 44.1449 1229.75 43.9577V41.8401C1229.75 41.6529 1229.67 41.4734 1229.53 41.341ZM1222.25 45.3695C1222.25 45.9311 1222.01 46.4698 1221.59 46.867C1221.17 47.2641 1220.6 47.4871 1220 47.4871C1219.4 47.4871 1218.83 47.2641 1218.41 46.867C1217.99 46.4698 1217.75 45.9311 1217.75 45.3695V44.6636H1222.25V45.3695ZM1228.25 43.2518H1211.75V42.1325L1213.78 40.2215C1213.92 40.0892 1214 39.9097 1214 39.7225V36.8989C1214 35.4012 1214.63 33.9649 1215.76 32.9059C1216.88 31.8468 1218.41 31.2519 1220 31.2519C1221.59 31.2519 1223.12 31.8468 1224.24 32.9059C1225.37 33.9649 1226 35.4012 1226 36.8989V39.7225C1226 39.9097 1226.08 40.0892 1226.22 40.2215L1228.25 42.1325V43.2518Z" fill="#32373F"/>
<rect x="1262" y="23" width="32" height="32" rx="16" fill="#1F428F"/>
<path d="M1275.22 41.66C1275.22 42.42 1274.95 43.02 1274.4 43.46C1273.84 43.9 1273.08 44.12 1272.1 44.12C1271.16 44.12 1270.36 43.96 1269.7 43.64V42.2C1270.06 42.36 1270.46 42.508 1270.89 42.644C1271.33 42.772 1271.77 42.836 1272.21 42.836C1272.73 42.836 1273.11 42.736 1273.34 42.536C1273.58 42.328 1273.7 42.064 1273.7 41.744C1273.7 41.392 1273.55 41.112 1273.24 40.904C1272.94 40.688 1272.5 40.456 1271.91 40.208C1271.56 40.064 1271.22 39.888 1270.89 39.68C1270.57 39.464 1270.31 39.196 1270.1 38.876C1269.9 38.548 1269.8 38.14 1269.8 37.652C1269.8 36.924 1270.06 36.352 1270.57 35.936C1271.09 35.52 1271.78 35.312 1272.64 35.312C1273.09 35.312 1273.52 35.36 1273.92 35.456C1274.32 35.552 1274.72 35.688 1275.12 35.864L1274.62 37.1C1274.26 36.948 1273.92 36.828 1273.59 36.74C1273.27 36.652 1272.94 36.608 1272.6 36.608C1272.18 36.608 1271.86 36.7 1271.65 36.884C1271.43 37.068 1271.32 37.312 1271.32 37.616C1271.32 37.848 1271.38 38.048 1271.5 38.216C1271.62 38.376 1271.81 38.524 1272.06 38.66C1272.31 38.796 1272.64 38.952 1273.04 39.128C1273.5 39.328 1273.9 39.54 1274.22 39.764C1274.54 39.98 1274.79 40.24 1274.96 40.544C1275.14 40.84 1275.22 41.212 1275.22 41.66ZM1280.53 44L1278.17 36.98H1278.13C1278.14 37.14 1278.15 37.368 1278.16 37.664C1278.18 37.952 1278.19 38.268 1278.2 38.612C1278.21 38.948 1278.22 39.264 1278.22 39.56V44H1276.84V35.432H1278.98L1281.23 42.164H1281.28L1283.63 35.432H1285.77V44H1284.31V39.488C1284.31 39.216 1284.31 38.92 1284.32 38.6C1284.33 38.272 1284.35 37.964 1284.35 37.676C1284.37 37.38 1284.38 37.152 1284.39 36.992H1284.34L1281.89 44H1280.53Z" fill="white"/>
<path d="M1309.03 41.8271C1309.03 42.6976 1308.71 43.3835 1308.08 43.8848C1307.46 44.3861 1306.58 44.6367 1305.46 44.6367C1304.27 44.6367 1303.36 44.4795 1302.71 44.165V42.9619C1303.13 43.1442 1303.6 43.2878 1304.1 43.3926C1304.6 43.4974 1305.08 43.5498 1305.51 43.5498C1306.26 43.5498 1306.82 43.4062 1307.2 43.1191C1307.58 42.832 1307.77 42.4378 1307.77 41.9365C1307.77 41.6038 1307.7 41.3304 1307.56 41.1162C1307.43 40.902 1307.2 40.7015 1306.87 40.5146C1306.56 40.3278 1306.07 40.1159 1305.42 39.8789C1304.49 39.5417 1303.83 39.1452 1303.44 38.6895C1303.04 38.2292 1302.84 37.6367 1302.84 36.9121C1302.84 36.1328 1303.13 35.513 1303.72 35.0527C1304.3 34.5924 1305.08 34.3623 1306.03 34.3623C1307.03 34.3623 1307.95 34.5492 1308.79 34.9229L1308.4 36.0029C1307.54 35.6475 1306.74 35.4697 1306.01 35.4697C1305.41 35.4697 1304.95 35.5973 1304.61 35.8525C1304.28 36.1077 1304.11 36.4655 1304.11 36.9258C1304.11 37.2539 1304.18 37.5273 1304.3 37.7461C1304.44 37.9603 1304.65 38.1562 1304.93 38.334C1305.22 38.5117 1305.68 38.7145 1306.3 38.9424C1307.04 39.2158 1307.6 39.4824 1307.96 39.7422C1308.33 39.9974 1308.59 40.2936 1308.77 40.6309C1308.94 40.9635 1309.03 41.3623 1309.03 41.8271ZM1313.88 44.6367C1312.8 44.6367 1311.96 44.3063 1311.36 43.6455C1310.76 42.9801 1310.46 42.0277 1310.46 40.7881C1310.46 39.5303 1310.76 38.5618 1311.37 37.8828C1311.98 37.1992 1312.84 36.8574 1313.97 36.8574C1314.33 36.8574 1314.69 36.8962 1315.05 36.9736C1315.41 37.0465 1315.71 37.1423 1315.94 37.2607L1315.56 38.2861C1314.93 38.0492 1314.39 37.9307 1313.94 37.9307C1313.19 37.9307 1312.63 38.1699 1312.27 38.6484C1311.91 39.1224 1311.73 39.8311 1311.73 40.7744C1311.73 41.6813 1311.91 42.3763 1312.27 42.8594C1312.63 43.3379 1313.16 43.5771 1313.87 43.5771C1314.53 43.5771 1315.18 43.4313 1315.82 43.1396V44.2334C1315.3 44.5023 1314.65 44.6367 1313.88 44.6367ZM1324.12 40.7334C1324.12 41.9593 1323.81 42.9163 1323.19 43.6045C1322.57 44.2926 1321.71 44.6367 1320.62 44.6367C1319.94 44.6367 1319.34 44.4795 1318.82 44.165C1318.29 43.846 1317.89 43.3903 1317.61 42.7979C1317.32 42.2054 1317.18 41.5173 1317.18 40.7334C1317.18 39.512 1317.49 38.5618 1318.1 37.8828C1318.71 37.1992 1319.57 36.8574 1320.67 36.8574C1321.73 36.8574 1322.56 37.2061 1323.18 37.9033C1323.81 38.596 1324.12 39.5394 1324.12 40.7334ZM1318.45 40.7334C1318.45 41.6768 1318.64 42.3945 1319.01 42.8867C1319.38 43.3743 1319.93 43.6182 1320.66 43.6182C1321.37 43.6182 1321.92 43.3743 1322.29 42.8867C1322.66 42.3945 1322.85 41.6768 1322.85 40.7334C1322.85 39.79 1322.66 39.0814 1322.28 38.6074C1321.91 38.1289 1321.36 37.8896 1320.63 37.8896C1319.18 37.8896 1318.45 38.8376 1318.45 40.7334ZM1328.58 43.6318C1328.74 43.6318 1328.93 43.6159 1329.15 43.584C1329.36 43.5521 1329.52 43.5156 1329.63 43.4746V44.418C1329.52 44.4681 1329.34 44.516 1329.1 44.5615C1328.86 44.6117 1328.62 44.6367 1328.37 44.6367C1326.91 44.6367 1326.17 43.8643 1326.17 42.3193V37.9512H1325.11V37.3633L1326.19 36.8711L1326.68 35.2715H1327.41V36.9941H1329.58V37.9512H1327.41V42.2852C1327.41 42.7181 1327.51 43.0508 1327.72 43.2832C1327.93 43.5156 1328.22 43.6318 1328.58 43.6318ZM1333.64 43.6318C1333.8 43.6318 1333.99 43.6159 1334.2 43.584C1334.42 43.5521 1334.58 43.5156 1334.69 43.4746V44.418C1334.58 44.4681 1334.4 44.516 1334.16 44.5615C1333.92 44.6117 1333.68 44.6367 1333.43 44.6367C1331.96 44.6367 1331.23 43.8643 1331.23 42.3193V37.9512H1330.17V37.3633L1331.24 36.8711L1331.74 35.2715H1332.47V36.9941H1334.63V37.9512H1332.47V42.2852C1332.47 42.7181 1332.57 43.0508 1332.78 43.2832C1332.99 43.5156 1333.27 43.6318 1333.64 43.6318ZM1344.41 44.5L1341.12 35.7363H1341.06C1341.13 36.4655 1341.16 37.3656 1341.16 38.4365V44.5H1340V34.5059H1341.86L1344.94 42.6953H1345L1348.14 34.5059H1349.98V44.5H1348.74V38.3545C1348.74 37.6709 1348.77 36.8027 1348.83 35.75H1348.78L1345.44 44.5H1344.41ZM1357.17 44.5L1356.93 43.4336H1356.87C1356.5 43.903 1356.12 44.222 1355.75 44.3906C1355.38 44.5547 1354.91 44.6367 1354.35 44.6367C1353.61 44.6367 1353.03 44.443 1352.61 44.0557C1352.19 43.6683 1351.98 43.1214 1351.98 42.415C1351.98 40.8929 1353.19 40.0954 1355.59 40.0225L1356.86 39.9746V39.5303C1356.86 38.9606 1356.74 38.5413 1356.49 38.2725C1356.24 37.999 1355.85 37.8623 1355.31 37.8623C1354.91 37.8623 1354.53 37.9215 1354.18 38.04C1353.83 38.1585 1353.5 38.2907 1353.19 38.4365L1352.81 37.5137C1353.19 37.3132 1353.6 37.1559 1354.05 37.042C1354.5 36.9281 1354.94 36.8711 1355.38 36.8711C1356.28 36.8711 1356.96 37.0716 1357.4 37.4727C1357.84 37.8737 1358.06 38.5117 1358.06 39.3867V44.5H1357.17ZM1354.63 43.6455C1355.32 43.6455 1355.86 43.4609 1356.25 43.0918C1356.65 42.7181 1356.84 42.1895 1356.84 41.5059V40.8291L1355.74 40.877C1354.88 40.9089 1354.25 41.0456 1353.85 41.2871C1353.46 41.5286 1353.26 41.9092 1353.26 42.4287C1353.26 42.8206 1353.38 43.1214 1353.62 43.3311C1353.86 43.5407 1354.2 43.6455 1354.63 43.6455ZM1363.89 36.8574C1364.23 36.8574 1364.52 36.8848 1364.77 36.9395L1364.62 38.0742C1364.35 38.0104 1364.07 37.9785 1363.81 37.9785C1363.41 37.9785 1363.04 38.0879 1362.7 38.3066C1362.37 38.5254 1362.1 38.8285 1361.91 39.2158C1361.72 39.5986 1361.62 40.0247 1361.62 40.4941V44.5H1360.39V36.9941H1361.4L1361.54 38.3682H1361.6C1361.88 37.8714 1362.22 37.4954 1362.61 37.2402C1363.01 36.985 1363.43 36.8574 1363.89 36.8574ZM1371.06 42.4287C1371.06 43.1305 1370.8 43.6751 1370.28 44.0625C1369.75 44.4453 1369.02 44.6367 1368.07 44.6367C1367.08 44.6367 1366.29 44.4795 1365.71 44.165V43.0439C1366.54 43.445 1367.33 43.6455 1368.1 43.6455C1368.72 43.6455 1369.17 43.5452 1369.45 43.3447C1369.73 43.1442 1369.87 42.8753 1369.87 42.5381C1369.87 42.2419 1369.74 41.9912 1369.46 41.7861C1369.19 41.5811 1368.71 41.3464 1368.02 41.082C1367.32 40.8086 1366.82 40.5762 1366.53 40.3848C1366.24 40.1888 1366.03 39.9701 1365.9 39.7285C1365.76 39.487 1365.7 39.193 1365.7 38.8467C1365.7 38.2314 1365.95 37.7461 1366.45 37.3906C1366.95 37.0352 1367.64 36.8574 1368.51 36.8574C1369.37 36.8574 1370.16 37.026 1370.91 37.3633L1370.49 38.3408C1369.73 38.0218 1369.04 37.8623 1368.43 37.8623C1367.92 37.8623 1367.53 37.9443 1367.27 38.1084C1367.01 38.2679 1366.87 38.4889 1366.87 38.7715C1366.87 39.0449 1366.99 39.2728 1367.21 39.4551C1367.44 39.6328 1367.97 39.8812 1368.81 40.2002C1369.43 40.4326 1369.89 40.6491 1370.19 40.8496C1370.49 41.0501 1370.71 41.2757 1370.85 41.5264C1370.99 41.777 1371.06 42.0778 1371.06 42.4287ZM1378 44.5V39.7012C1378 39.0905 1377.87 38.637 1377.59 38.3408C1377.32 38.04 1376.9 37.8896 1376.32 37.8896C1375.56 37.8896 1375 38.1016 1374.65 38.5254C1374.29 38.9492 1374.12 39.6488 1374.12 40.624V44.5H1372.89V33.8633H1374.12V36.9805C1374.12 37.3906 1374.1 37.7415 1374.05 38.0332H1374.13C1374.36 37.6686 1374.67 37.3838 1375.08 37.1787C1375.49 36.9736 1375.96 36.8711 1376.47 36.8711C1377.38 36.8711 1378.07 37.0898 1378.53 37.5273C1378.99 37.9603 1379.22 38.6553 1379.22 39.6123V44.5H1378ZM1386.18 44.5L1385.94 43.4336H1385.88C1385.51 43.903 1385.14 44.222 1384.76 44.3906C1384.39 44.5547 1383.93 44.6367 1383.36 44.6367C1382.62 44.6367 1382.04 44.443 1381.62 44.0557C1381.21 43.6683 1381 43.1214 1381 42.415C1381 40.8929 1382.2 40.0954 1384.6 40.0225L1385.87 39.9746V39.5303C1385.87 38.9606 1385.75 38.5413 1385.5 38.2725C1385.25 37.999 1384.86 37.8623 1384.32 37.8623C1383.92 37.8623 1383.55 37.9215 1383.19 38.04C1382.84 38.1585 1382.51 38.2907 1382.2 38.4365L1381.82 37.5137C1382.2 37.3132 1382.61 37.1559 1383.06 37.042C1383.51 36.9281 1383.95 36.8711 1384.39 36.8711C1385.29 36.8711 1385.97 37.0716 1386.41 37.4727C1386.85 37.8737 1387.07 38.5117 1387.07 39.3867V44.5H1386.18ZM1383.64 43.6455C1384.33 43.6455 1384.87 43.4609 1385.26 43.0918C1385.66 42.7181 1385.86 42.1895 1385.86 41.5059V40.8291L1384.75 40.877C1383.89 40.9089 1383.26 41.0456 1382.86 41.2871C1382.47 41.5286 1382.27 41.9092 1382.27 42.4287C1382.27 42.8206 1382.39 43.1214 1382.63 43.3311C1382.87 43.5407 1383.21 43.6455 1383.64 43.6455ZM1390.63 44.5H1389.4V33.8633H1390.63V44.5ZM1394.24 44.5H1393.01V33.8633H1394.24V44.5Z" fill="#525965"/>
<path d="M1410 42.7498L1403.75 36.4998L1404.63 35.6248L1410 40.9998L1415.38 35.6248L1416.25 36.4998L1410 42.7498Z" fill="#525965"/>
<line y1="72.5" x2="1440" y2="72.5" stroke="white"/>
<defs>
<linearGradient id="paint0_linear_33896_10135" x1="32.0553" y1="51.464" x2="15.9447" y2="23.5614" gradientUnits="userSpaceOnUse">
<stop stop-color="#00BBB7"/>
<stop offset="0.5" stop-color="#00ABA7"/>
<stop offset="0.73" stop-color="#00A29E"/>
<stop offset="1" stop-color="#00928F"/>
</linearGradient>
<clipPath id="clip0_33896_10135">
<rect width="221" height="27" fill="white" transform="translate(12 25.5)"/>
</clipPath>
</defs>
</svg>
