<svg width="1440" height="73" viewBox="0 0 1440 73" fill="none" xmlns="http://www.w3.org/2000/svg">
<rect width="1440" height="5" fill="#0B77D8"/>
<rect width="1440" height="68" transform="translate(0 5)" fill="white"/>
<g clip-path="url(#clip0_33896_10141)">
<path d="M88.3088 44.0511C88.3088 46.2328 89.403 49.183 94.2402 49.183C99.0774 49.183 100.172 46.2328 100.172 44.0511V40.3923H95.3345V44.4013C95.3345 45.0394 95.3345 45.9137 94.2381 45.9137C93.1418 45.9137 93.1418 45.0394 93.1418 44.4013V34.9413C93.1418 34.3011 93.1418 33.4268 94.2381 33.4268C95.3345 33.4268 95.3345 34.3011 95.3345 34.9413V37.5995H100.172V35.2915C100.172 33.1078 99.0732 30.1595 94.2402 30.1595C89.4072 30.1595 88.3088 33.1078 88.3088 35.2915V44.0511Z" fill="#32373F"/>
<path d="M101.571 45.6941C101.571 48.6051 103.177 48.9531 105.258 48.9531H106.408V33.9697H107.614V30.3585H106.408V25.7031H101.571V30.3585H100.36V33.9697H101.571V45.6941Z" fill="#32373F"/>
<path fill-rule="evenodd" clip-rule="evenodd" d="M108.29 48.9695H113.127V30.3707H108.29V48.9695ZM108.29 29.1483H113.127V25.7153H108.29V29.1504V29.1483Z" fill="#32373F"/>
<path fill-rule="evenodd" clip-rule="evenodd" d="M116.729 48.9696H122.384L125.669 30.3708H120.836L119.626 42.2735H119.568L118.445 30.3708H113.469L116.729 48.9696Z" fill="#32373F"/>
<path fill-rule="evenodd" clip-rule="evenodd" d="M75.4532 44.0511C75.4532 46.2328 76.5475 49.183 81.3826 49.183C86.2176 49.183 87.3181 46.2348 87.3181 44.0511V42.0725H82.4789V44.4013C82.4789 45.0394 82.4789 45.9137 81.3826 45.9137C80.2862 45.9137 80.2862 45.0394 80.2862 44.4013V40.413H87.3181V35.2915C87.3181 33.1078 86.2218 30.1595 81.3826 30.1595C76.5433 30.1595 75.4532 33.1078 75.4532 35.2915V44.0532V44.0511ZM80.2862 34.9392C80.2862 34.299 80.2862 33.4268 81.3826 33.4268C82.4789 33.4268 82.4789 34.299 82.4789 34.9392V36.9779H80.2862V34.9392Z" fill="#32373F"/>
<path fill-rule="evenodd" clip-rule="evenodd" d="M125.499 44.0511C125.499 46.2328 126.594 49.183 131.431 49.183C136.268 49.183 137.364 46.2348 137.364 44.0511V42.0725H132.529V44.4013C132.529 45.0394 132.529 45.9137 131.433 45.9137C130.337 45.9137 130.337 45.0394 130.337 44.4013V40.413H137.366V35.2915C137.366 33.1078 136.27 30.1595 131.433 30.1595C126.596 30.1595 125.502 33.1078 125.502 35.2915V44.0532L125.499 44.0511ZM130.335 34.9392C130.335 34.299 130.335 33.4247 131.431 33.4247C132.527 33.4247 132.527 34.299 132.527 34.9392V36.9779H130.332V34.9392" fill="#32373F"/>
<path fill-rule="evenodd" clip-rule="evenodd" d="M47.1141 31.5953C47.1141 30.808 47.1141 29.4696 48.6063 29.4696C50.0984 29.4696 50.0964 30.808 50.0964 31.5953V43.0919C50.0964 43.703 50.0964 45.2134 48.6063 45.2134C47.1161 45.2134 47.1141 43.703 47.1141 43.0919V31.5953ZM41.9412 42.6257C41.9412 46.759 44.4986 49.183 48.6042 49.183C52.7098 49.183 55.2651 46.759 55.2651 42.6257V32.0594C55.2651 27.518 52.4549 25.5 48.6042 25.5C44.7535 25.5 41.9412 27.518 41.9412 32.0594V42.6257Z" fill="#32373F"/>
<path fill-rule="evenodd" clip-rule="evenodd" d="M61.3603 44.3765C61.3603 45.0167 61.3603 45.891 62.4566 45.891C63.553 45.891 63.555 45.0167 63.555 44.3765V34.9165C63.555 34.2763 63.555 33.402 62.4566 33.402C61.3582 33.402 61.3603 34.2743 61.3603 34.9165L61.3479 44.3765H61.3603ZM61.3479 48.6133V48.9573H56.5128V25.7031H61.3479V30.6009C61.7002 30.3461 62.4297 30.1327 62.8235 30.1327C67.356 30.1327 68.3881 33.083 68.3881 35.2646V44.0243C68.3881 46.2059 67.3912 49.1562 62.9623 49.1562C62.5685 49.1562 61.7002 48.9759 61.3437 48.6113H61.3479" fill="#32373F"/>
<path d="M69.5176 52.4834L70.6616 52.5C74.0646 52.5 74.3547 50.4199 74.3547 47.625V30.3708H69.5197V52.4834" fill="#32373F"/>
<path d="M69.5176 25.7153H74.3547V29.1483H69.5176V25.7153Z" fill="#32373F"/>
<path d="M156.572 49.1376L156.553 32.7225H156.473L151.857 49.1438L150.127 49.1459L145.499 32.7349H145.42L145.439 49.15L143.675 49.1521L143.654 30.255L146.431 30.2508L150.962 46.208H151.07L155.509 30.2405L158.394 30.2384L158.415 49.1355L156.572 49.1376Z" fill="#0B77D8"/>
<path d="M162.74 49.1316L162.719 30.2345L164.586 30.2303L164.609 49.1295L162.74 49.1316Z" fill="#0B77D8"/>
<path d="M177.351 49.1147L170.758 33.4H170.677L170.696 49.123H168.932L168.914 30.2259L171.235 30.2239L177.794 45.9366H177.875L177.857 30.2156L179.566 30.2135L179.587 49.1127L177.351 49.1147Z" fill="#0B77D8"/>
<path d="M183.912 49.1067L183.892 30.2096L185.761 30.2075L185.782 49.1046L183.912 49.1067Z" fill="#0B77D8"/>
<path d="M198.297 44.2607C198.297 45.0977 198.175 45.8394 197.926 46.49C197.678 47.1405 197.336 47.6916 196.9 48.1453C196.463 48.5991 195.953 48.9471 195.367 49.1875C194.778 49.4278 194.157 49.55 193.497 49.55C192.536 49.55 191.651 49.347 190.841 48.9389C190.03 48.5307 189.375 47.99 188.876 47.3145L190.022 46.0052C190.432 46.5915 190.948 47.0452 191.572 47.3643C192.194 47.6833 192.828 47.8429 193.468 47.8429C194.322 47.8429 195.039 47.5383 195.618 46.9333C196.196 46.3284 196.484 45.4644 196.482 44.3435C196.482 43.809 196.393 43.3387 196.212 42.9285C196.034 42.5203 195.794 42.1557 195.491 41.8346C195.189 41.5155 194.845 41.2296 194.463 40.981C194.08 40.7324 193.674 40.5024 193.249 40.289C192.731 40.0404 192.242 39.7607 191.779 39.4499C191.317 39.1391 190.911 38.7786 190.563 38.3705C190.215 37.9623 189.935 37.4775 189.719 36.9181C189.506 36.3567 189.398 35.704 189.398 34.9561C189.398 34.0839 189.531 33.3235 189.796 32.673C190.063 32.0245 190.422 31.4796 190.876 31.0445C191.33 30.6074 191.839 30.2821 192.409 30.0687C192.979 29.8553 193.576 29.7476 194.198 29.7455C195.054 29.7455 195.821 29.8905 196.509 30.1826C197.193 30.4768 197.767 30.9326 198.231 31.5542L197.085 32.8636C196.728 32.3477 196.31 31.9789 195.829 31.7572C195.348 31.5355 194.824 31.4237 194.254 31.4257C193.879 31.4257 193.51 31.4941 193.145 31.6267C192.78 31.7614 192.455 31.9706 192.171 32.2545C191.887 32.5383 191.655 32.905 191.479 33.3484C191.301 33.7938 191.214 34.318 191.214 34.923C191.214 35.4575 191.294 35.9195 191.456 36.3111C191.616 36.7027 191.835 37.0487 192.111 37.3511C192.387 37.6536 192.708 37.9209 193.073 38.1509C193.437 38.3808 193.817 38.5942 194.208 38.7911C194.708 39.0397 195.201 39.3235 195.692 39.6426C196.181 39.9616 196.623 40.3346 197.014 40.7614C197.406 41.1882 197.719 41.6854 197.951 42.2552C198.183 42.8249 198.299 43.492 198.301 44.2565L198.297 44.2607Z" fill="#0B77D8"/>
<path d="M204.985 31.7883L205.004 49.0839L203.162 49.0859L203.143 31.7904L199.512 31.7945L199.51 30.193L208.641 30.1826L208.643 31.7841L204.985 31.7883Z" fill="#0B77D8"/>
<path d="M210.826 49.0779L210.803 30.1808L218.413 30.1704L218.415 31.8258L212.62 31.832L212.629 38.4515L218.05 38.4453V40.0468L212.631 40.053L212.639 47.3935L218.699 47.3873L218.701 49.0696L210.826 49.0779Z" fill="#0B77D8"/>
<path d="M229.552 35.2441C229.552 34.5707 229.457 34.0072 229.271 33.5555C229.084 33.1039 228.831 32.7454 228.522 32.4802C228.209 32.215 227.855 32.0286 227.453 31.9229C227.053 31.8173 226.639 31.7634 226.212 31.7634H223.81L223.818 38.8387H226.301C227.316 38.8345 228.112 38.5196 228.69 37.8898C229.269 37.2599 229.557 36.3773 229.555 35.242L229.552 35.2441ZM229.675 49.0569L226.247 40.3055H223.818L223.828 49.0631H221.986L221.965 30.1681L226.504 30.1639C227.126 30.1639 227.727 30.2468 228.307 30.4146C228.885 30.5824 229.401 30.8621 229.857 31.2537C230.311 31.6453 230.676 32.1612 230.953 32.8014C231.229 33.4416 231.37 34.2247 231.37 35.1508C231.37 35.9505 231.268 36.6405 231.065 37.2206C230.86 37.7986 230.595 38.2855 230.265 38.675C229.936 39.0666 229.571 39.3691 229.173 39.5845C228.773 39.7979 228.377 39.9326 227.984 39.9865L231.679 49.0569H229.677H229.675Z" fill="#0B77D8"/>
<path d="M234.694 49.0507L234.674 30.1536L236.543 30.1515L236.564 49.0486L234.694 49.0507Z" fill="#0B77D8"/>
<path d="M244.982 31.8236H244.876L242.273 42.8229L247.56 42.8166L244.984 31.8236H244.982ZM248.98 49.0342L247.825 44.3104L242.004 44.3166L240.808 49.0425H238.912L243.697 30.1412H246.234L250.928 49.03H248.98V49.0342Z" fill="#0B77D8"/>
<path d="M253.278 49.03L253.255 30.1329L255.125 30.1309L255.143 47.2918L260.538 47.2876L260.54 49.0217L253.278 49.03Z" fill="#0B77D8"/>
<path d="M271 44.1799C271 45.0169 270.878 45.7586 270.629 46.4091C270.38 47.0597 270.038 47.6108 269.603 48.0645C269.166 48.5183 268.656 48.8663 268.069 49.1067C267.483 49.347 266.859 49.4692 266.2 49.4692C265.239 49.4692 264.354 49.2662 263.543 48.858C262.733 48.4499 262.078 47.9091 261.578 47.2316L262.725 45.9223C263.135 46.5086 263.653 46.9623 264.275 47.2814C264.899 47.6004 265.531 47.76 266.171 47.76C267.025 47.76 267.742 47.4554 268.32 46.8504C268.899 46.2455 269.187 45.3815 269.184 44.2607C269.184 43.7261 269.093 43.2558 268.917 42.8456C268.739 42.4375 268.499 42.0728 268.194 41.7517C267.891 41.4326 267.547 41.1488 267.166 40.8981C266.782 40.6495 266.378 40.4195 265.951 40.2061C265.435 39.9575 264.946 39.6778 264.482 39.367C264.02 39.0562 263.614 38.6957 263.265 38.2876C262.919 37.8794 262.638 37.3946 262.424 36.8332C262.209 36.2738 262.103 35.6191 262.101 34.8712C262.101 33.9989 262.233 33.2386 262.499 32.588C262.766 31.9375 263.125 31.3946 263.578 30.9575C264.032 30.5203 264.542 30.195 265.112 29.9817C265.682 29.7683 266.279 29.6605 266.901 29.6584C267.754 29.6584 268.525 29.8035 269.211 30.0956C269.895 30.3898 270.472 30.8456 270.936 31.4692L269.788 32.7786C269.431 32.2627 269.015 31.8939 268.532 31.6723C268.051 31.4506 267.527 31.3387 266.957 31.3408C266.581 31.3408 266.213 31.4091 265.85 31.5417C265.483 31.6764 265.16 31.8857 264.876 32.1695C264.592 32.4554 264.36 32.82 264.184 33.2634C264.007 33.7089 263.918 34.233 263.918 34.838C263.918 35.3725 264.001 35.8346 264.161 36.2261C264.322 36.6177 264.54 36.9637 264.818 37.2662C265.093 37.5687 265.415 37.8359 265.779 38.0659C266.144 38.2959 266.523 38.5093 266.915 38.7061C267.415 38.9547 267.91 39.2386 268.399 39.5576C268.888 39.8767 269.332 40.2496 269.721 40.6764C270.113 41.1032 270.426 41.6004 270.656 42.1702C270.888 42.7399 271.006 43.4071 271.006 44.1716L271 44.1799Z" fill="#0B77D8"/>
<path d="M35.2292 25.5129H12.7687C12.3465 25.5129 12 25.8595 12 26.2816V48.7442C12 49.1664 12.3465 49.5129 12.7687 49.5129H35.2313C35.6535 49.5129 36 49.1664 36 48.7442V26.2816C36 25.8595 35.6556 25.5129 35.2313 25.5129H35.2292ZM21.6088 34.1472L23.7175 30.625C23.8309 30.4339 24.1082 30.436 24.2216 30.6292L28.9913 38.8813C29.1048 39.0766 28.964 39.3181 28.7393 39.3202L24.6164 39.3244C24.5135 39.3244 24.4169 39.2698 24.3644 39.1795L21.6067 34.4455C21.5542 34.3531 21.5542 34.2396 21.6067 34.1493L21.6088 34.1472ZM20.3486 44.5374H16.2426C16.02 44.5374 15.8813 44.2958 15.9905 44.1026L20.6805 35.8044C20.7918 35.609 21.0711 35.6069 21.1867 35.8002L23.2807 39.3496C23.3332 39.44 23.3353 39.5492 23.2849 39.6416L20.6049 44.3882C20.5524 44.4806 20.4537 44.5374 20.3486 44.5374ZM31.7532 44.5164L22.2221 44.5248C21.9974 44.5248 21.8567 44.2811 21.968 44.0879L24.0263 40.5153C24.0788 40.425 24.1733 40.3704 24.2783 40.3683L29.7558 40.3452C29.863 40.3452 29.9596 40.4019 30.0121 40.4943L32.0095 44.0816C32.1187 44.2769 31.9779 44.5164 31.7553 44.5164H31.7532Z" fill="url(#paint0_linear_33896_10141)"/>
</g>
<path d="M1229.53 41.341L1227.5 39.4302V36.8989C1227.5 35.1497 1226.81 33.4635 1225.56 32.1663C1224.31 30.8691 1222.6 30.053 1220.75 29.876V28.4283H1219.25V29.876C1217.4 30.053 1215.69 30.8691 1214.44 32.1663C1213.19 33.4635 1212.5 35.1497 1212.5 36.8989V39.4302L1210.47 41.341C1210.33 41.4734 1210.25 41.6529 1210.25 41.8401V43.9577C1210.25 44.1449 1210.33 44.3245 1210.47 44.4569C1210.61 44.5892 1210.8 44.6636 1211 44.6636H1216.25V45.2119C1216.23 46.1074 1216.57 46.9771 1217.19 47.6542C1217.81 48.3314 1218.68 48.7685 1219.62 48.8817C1220.15 48.9304 1220.67 48.8758 1221.17 48.7214C1221.67 48.5671 1222.13 48.3166 1222.51 47.9858C1222.9 47.655 1223.21 47.2514 1223.43 46.8007C1223.64 46.3501 1223.75 45.8626 1223.75 45.3695V44.6636H1229C1229.2 44.6636 1229.39 44.5892 1229.53 44.4569C1229.67 44.3245 1229.75 44.1449 1229.75 43.9577V41.8401C1229.75 41.6529 1229.67 41.4734 1229.53 41.341ZM1222.25 45.3695C1222.25 45.9311 1222.01 46.4698 1221.59 46.867C1221.17 47.2641 1220.6 47.4871 1220 47.4871C1219.4 47.4871 1218.83 47.2641 1218.41 46.867C1217.99 46.4698 1217.75 45.9311 1217.75 45.3695V44.6636H1222.25V45.3695ZM1228.25 43.2518H1211.75V42.1325L1213.78 40.2215C1213.92 40.0892 1214 39.9097 1214 39.7225V36.8989C1214 35.4012 1214.63 33.9649 1215.76 32.9059C1216.88 31.8468 1218.41 31.2519 1220 31.2519C1221.59 31.2519 1223.12 31.8468 1224.24 32.9059C1225.37 33.9649 1226 35.4012 1226 36.8989V39.7225C1226 39.9097 1226.08 40.0892 1226.22 40.2215L1228.25 42.1325V43.2518Z" fill="#32373F"/>
<rect x="1262" y="23" width="32" height="32" rx="16" fill="#1F428F"/>
<path d="M1275.22 41.66C1275.22 42.42 1274.95 43.02 1274.4 43.46C1273.84 43.9 1273.08 44.12 1272.1 44.12C1271.16 44.12 1270.36 43.96 1269.7 43.64V42.2C1270.06 42.36 1270.46 42.508 1270.89 42.644C1271.33 42.772 1271.77 42.836 1272.21 42.836C1272.73 42.836 1273.11 42.736 1273.34 42.536C1273.58 42.328 1273.7 42.064 1273.7 41.744C1273.7 41.392 1273.55 41.112 1273.24 40.904C1272.94 40.688 1272.5 40.456 1271.91 40.208C1271.56 40.064 1271.22 39.888 1270.89 39.68C1270.57 39.464 1270.31 39.196 1270.1 38.876C1269.9 38.548 1269.8 38.14 1269.8 37.652C1269.8 36.924 1270.06 36.352 1270.57 35.936C1271.09 35.52 1271.78 35.312 1272.64 35.312C1273.09 35.312 1273.52 35.36 1273.92 35.456C1274.32 35.552 1274.72 35.688 1275.12 35.864L1274.62 37.1C1274.26 36.948 1273.92 36.828 1273.59 36.74C1273.27 36.652 1272.94 36.608 1272.6 36.608C1272.18 36.608 1271.86 36.7 1271.65 36.884C1271.43 37.068 1271.32 37.312 1271.32 37.616C1271.32 37.848 1271.38 38.048 1271.5 38.216C1271.62 38.376 1271.81 38.524 1272.06 38.66C1272.31 38.796 1272.64 38.952 1273.04 39.128C1273.5 39.328 1273.9 39.54 1274.22 39.764C1274.54 39.98 1274.79 40.24 1274.96 40.544C1275.14 40.84 1275.22 41.212 1275.22 41.66ZM1280.53 44L1278.17 36.98H1278.13C1278.14 37.14 1278.15 37.368 1278.16 37.664C1278.18 37.952 1278.19 38.268 1278.2 38.612C1278.21 38.948 1278.22 39.264 1278.22 39.56V44H1276.84V35.432H1278.98L1281.23 42.164H1281.28L1283.63 35.432H1285.77V44H1284.31V39.488C1284.31 39.216 1284.31 38.92 1284.32 38.6C1284.33 38.272 1284.35 37.964 1284.35 37.676C1284.37 37.38 1284.38 37.152 1284.39 36.992H1284.34L1281.89 44H1280.53Z" fill="white"/>
<path d="M1309.03 41.8271C1309.03 42.6976 1308.71 43.3835 1308.08 43.8848C1307.46 44.3861 1306.58 44.6367 1305.46 44.6367C1304.27 44.6367 1303.36 44.4795 1302.71 44.165V42.9619C1303.13 43.1442 1303.6 43.2878 1304.1 43.3926C1304.6 43.4974 1305.08 43.5498 1305.51 43.5498C1306.26 43.5498 1306.82 43.4062 1307.2 43.1191C1307.58 42.832 1307.77 42.4378 1307.77 41.9365C1307.77 41.6038 1307.7 41.3304 1307.56 41.1162C1307.43 40.902 1307.2 40.7015 1306.87 40.5146C1306.56 40.3278 1306.07 40.1159 1305.42 39.8789C1304.49 39.5417 1303.83 39.1452 1303.44 38.6895C1303.04 38.2292 1302.84 37.6367 1302.84 36.9121C1302.84 36.1328 1303.13 35.513 1303.72 35.0527C1304.3 34.5924 1305.08 34.3623 1306.03 34.3623C1307.03 34.3623 1307.95 34.5492 1308.79 34.9229L1308.4 36.0029C1307.54 35.6475 1306.74 35.4697 1306.01 35.4697C1305.41 35.4697 1304.95 35.5973 1304.61 35.8525C1304.28 36.1077 1304.11 36.4655 1304.11 36.9258C1304.11 37.2539 1304.18 37.5273 1304.3 37.7461C1304.44 37.9603 1304.65 38.1562 1304.93 38.334C1305.22 38.5117 1305.68 38.7145 1306.3 38.9424C1307.04 39.2158 1307.6 39.4824 1307.96 39.7422C1308.33 39.9974 1308.59 40.2936 1308.77 40.6309C1308.94 40.9635 1309.03 41.3623 1309.03 41.8271ZM1313.88 44.6367C1312.8 44.6367 1311.96 44.3063 1311.36 43.6455C1310.76 42.9801 1310.46 42.0277 1310.46 40.7881C1310.46 39.5303 1310.76 38.5618 1311.37 37.8828C1311.98 37.1992 1312.84 36.8574 1313.97 36.8574C1314.33 36.8574 1314.69 36.8962 1315.05 36.9736C1315.41 37.0465 1315.71 37.1423 1315.94 37.2607L1315.56 38.2861C1314.93 38.0492 1314.39 37.9307 1313.94 37.9307C1313.19 37.9307 1312.63 38.1699 1312.27 38.6484C1311.91 39.1224 1311.73 39.8311 1311.73 40.7744C1311.73 41.6813 1311.91 42.3763 1312.27 42.8594C1312.63 43.3379 1313.16 43.5771 1313.87 43.5771C1314.53 43.5771 1315.18 43.4313 1315.82 43.1396V44.2334C1315.3 44.5023 1314.65 44.6367 1313.88 44.6367ZM1324.12 40.7334C1324.12 41.9593 1323.81 42.9163 1323.19 43.6045C1322.57 44.2926 1321.71 44.6367 1320.62 44.6367C1319.94 44.6367 1319.34 44.4795 1318.82 44.165C1318.29 43.846 1317.89 43.3903 1317.61 42.7979C1317.32 42.2054 1317.18 41.5173 1317.18 40.7334C1317.18 39.512 1317.49 38.5618 1318.1 37.8828C1318.71 37.1992 1319.57 36.8574 1320.67 36.8574C1321.73 36.8574 1322.56 37.2061 1323.18 37.9033C1323.81 38.596 1324.12 39.5394 1324.12 40.7334ZM1318.45 40.7334C1318.45 41.6768 1318.64 42.3945 1319.01 42.8867C1319.38 43.3743 1319.93 43.6182 1320.66 43.6182C1321.37 43.6182 1321.92 43.3743 1322.29 42.8867C1322.66 42.3945 1322.85 41.6768 1322.85 40.7334C1322.85 39.79 1322.66 39.0814 1322.28 38.6074C1321.91 38.1289 1321.36 37.8896 1320.63 37.8896C1319.18 37.8896 1318.45 38.8376 1318.45 40.7334ZM1328.58 43.6318C1328.74 43.6318 1328.93 43.6159 1329.15 43.584C1329.36 43.5521 1329.52 43.5156 1329.63 43.4746V44.418C1329.52 44.4681 1329.34 44.516 1329.1 44.5615C1328.86 44.6117 1328.62 44.6367 1328.37 44.6367C1326.91 44.6367 1326.17 43.8643 1326.17 42.3193V37.9512H1325.11V37.3633L1326.19 36.8711L1326.68 35.2715H1327.41V36.9941H1329.58V37.9512H1327.41V42.2852C1327.41 42.7181 1327.51 43.0508 1327.72 43.2832C1327.93 43.5156 1328.22 43.6318 1328.58 43.6318ZM1333.64 43.6318C1333.8 43.6318 1333.99 43.6159 1334.2 43.584C1334.42 43.5521 1334.58 43.5156 1334.69 43.4746V44.418C1334.58 44.4681 1334.4 44.516 1334.16 44.5615C1333.92 44.6117 1333.68 44.6367 1333.43 44.6367C1331.96 44.6367 1331.23 43.8643 1331.23 42.3193V37.9512H1330.17V37.3633L1331.24 36.8711L1331.74 35.2715H1332.47V36.9941H1334.63V37.9512H1332.47V42.2852C1332.47 42.7181 1332.57 43.0508 1332.78 43.2832C1332.99 43.5156 1333.27 43.6318 1333.64 43.6318ZM1344.41 44.5L1341.12 35.7363H1341.06C1341.13 36.4655 1341.16 37.3656 1341.16 38.4365V44.5H1340V34.5059H1341.86L1344.94 42.6953H1345L1348.14 34.5059H1349.98V44.5H1348.74V38.3545C1348.74 37.6709 1348.77 36.8027 1348.83 35.75H1348.78L1345.44 44.5H1344.41ZM1357.17 44.5L1356.93 43.4336H1356.87C1356.5 43.903 1356.12 44.222 1355.75 44.3906C1355.38 44.5547 1354.91 44.6367 1354.35 44.6367C1353.61 44.6367 1353.03 44.443 1352.61 44.0557C1352.19 43.6683 1351.98 43.1214 1351.98 42.415C1351.98 40.8929 1353.19 40.0954 1355.59 40.0225L1356.86 39.9746V39.5303C1356.86 38.9606 1356.74 38.5413 1356.49 38.2725C1356.24 37.999 1355.85 37.8623 1355.31 37.8623C1354.91 37.8623 1354.53 37.9215 1354.18 38.04C1353.83 38.1585 1353.5 38.2907 1353.19 38.4365L1352.81 37.5137C1353.19 37.3132 1353.6 37.1559 1354.05 37.042C1354.5 36.9281 1354.94 36.8711 1355.38 36.8711C1356.28 36.8711 1356.96 37.0716 1357.4 37.4727C1357.84 37.8737 1358.06 38.5117 1358.06 39.3867V44.5H1357.17ZM1354.63 43.6455C1355.32 43.6455 1355.86 43.4609 1356.25 43.0918C1356.65 42.7181 1356.84 42.1895 1356.84 41.5059V40.8291L1355.74 40.877C1354.88 40.9089 1354.25 41.0456 1353.85 41.2871C1353.46 41.5286 1353.26 41.9092 1353.26 42.4287C1353.26 42.8206 1353.38 43.1214 1353.62 43.3311C1353.86 43.5407 1354.2 43.6455 1354.63 43.6455ZM1363.89 36.8574C1364.23 36.8574 1364.52 36.8848 1364.77 36.9395L1364.62 38.0742C1364.35 38.0104 1364.07 37.9785 1363.81 37.9785C1363.41 37.9785 1363.04 38.0879 1362.7 38.3066C1362.37 38.5254 1362.1 38.8285 1361.91 39.2158C1361.72 39.5986 1361.62 40.0247 1361.62 40.4941V44.5H1360.39V36.9941H1361.4L1361.54 38.3682H1361.6C1361.88 37.8714 1362.22 37.4954 1362.61 37.2402C1363.01 36.985 1363.43 36.8574 1363.89 36.8574ZM1371.06 42.4287C1371.06 43.1305 1370.8 43.6751 1370.28 44.0625C1369.75 44.4453 1369.02 44.6367 1368.07 44.6367C1367.08 44.6367 1366.29 44.4795 1365.71 44.165V43.0439C1366.54 43.445 1367.33 43.6455 1368.1 43.6455C1368.72 43.6455 1369.17 43.5452 1369.45 43.3447C1369.73 43.1442 1369.87 42.8753 1369.87 42.5381C1369.87 42.2419 1369.74 41.9912 1369.46 41.7861C1369.19 41.5811 1368.71 41.3464 1368.02 41.082C1367.32 40.8086 1366.82 40.5762 1366.53 40.3848C1366.24 40.1888 1366.03 39.9701 1365.9 39.7285C1365.76 39.487 1365.7 39.193 1365.7 38.8467C1365.7 38.2314 1365.95 37.7461 1366.45 37.3906C1366.95 37.0352 1367.64 36.8574 1368.51 36.8574C1369.37 36.8574 1370.16 37.026 1370.91 37.3633L1370.49 38.3408C1369.73 38.0218 1369.04 37.8623 1368.43 37.8623C1367.92 37.8623 1367.53 37.9443 1367.27 38.1084C1367.01 38.2679 1366.87 38.4889 1366.87 38.7715C1366.87 39.0449 1366.99 39.2728 1367.21 39.4551C1367.44 39.6328 1367.97 39.8812 1368.81 40.2002C1369.43 40.4326 1369.89 40.6491 1370.19 40.8496C1370.49 41.0501 1370.71 41.2757 1370.85 41.5264C1370.99 41.777 1371.06 42.0778 1371.06 42.4287ZM1378 44.5V39.7012C1378 39.0905 1377.87 38.637 1377.59 38.3408C1377.32 38.04 1376.9 37.8896 1376.32 37.8896C1375.56 37.8896 1375 38.1016 1374.65 38.5254C1374.29 38.9492 1374.12 39.6488 1374.12 40.624V44.5H1372.89V33.8633H1374.12V36.9805C1374.12 37.3906 1374.1 37.7415 1374.05 38.0332H1374.13C1374.36 37.6686 1374.67 37.3838 1375.08 37.1787C1375.49 36.9736 1375.96 36.8711 1376.47 36.8711C1377.38 36.8711 1378.07 37.0898 1378.53 37.5273C1378.99 37.9603 1379.22 38.6553 1379.22 39.6123V44.5H1378ZM1386.18 44.5L1385.94 43.4336H1385.88C1385.51 43.903 1385.14 44.222 1384.76 44.3906C1384.39 44.5547 1383.93 44.6367 1383.36 44.6367C1382.62 44.6367 1382.04 44.443 1381.62 44.0557C1381.21 43.6683 1381 43.1214 1381 42.415C1381 40.8929 1382.2 40.0954 1384.6 40.0225L1385.87 39.9746V39.5303C1385.87 38.9606 1385.75 38.5413 1385.5 38.2725C1385.25 37.999 1384.86 37.8623 1384.32 37.8623C1383.92 37.8623 1383.55 37.9215 1383.19 38.04C1382.84 38.1585 1382.51 38.2907 1382.2 38.4365L1381.82 37.5137C1382.2 37.3132 1382.61 37.1559 1383.06 37.042C1383.51 36.9281 1383.95 36.8711 1384.39 36.8711C1385.29 36.8711 1385.97 37.0716 1386.41 37.4727C1386.85 37.8737 1387.07 38.5117 1387.07 39.3867V44.5H1386.18ZM1383.64 43.6455C1384.33 43.6455 1384.87 43.4609 1385.26 43.0918C1385.66 42.7181 1385.86 42.1895 1385.86 41.5059V40.8291L1384.75 40.877C1383.89 40.9089 1383.26 41.0456 1382.86 41.2871C1382.47 41.5286 1382.27 41.9092 1382.27 42.4287C1382.27 42.8206 1382.39 43.1214 1382.63 43.3311C1382.87 43.5407 1383.21 43.6455 1383.64 43.6455ZM1390.63 44.5H1389.4V33.8633H1390.63V44.5ZM1394.24 44.5H1393.01V33.8633H1394.24V44.5Z" fill="#525965"/>
<path d="M1410 42.7498L1403.75 36.4998L1404.63 35.6248L1410 40.9998L1415.38 35.6248L1416.25 36.4998L1410 42.7498Z" fill="#525965"/>
<line y1="72.5" x2="1440" y2="72.5" stroke="#F5F5F5"/>
<defs>
<linearGradient id="paint0_linear_33896_10141" x1="32.0536" y1="51.4641" x2="15.9443" y2="23.5618" gradientUnits="userSpaceOnUse">
<stop stop-color="#54A0E4"/>
<stop offset="0.49" stop-color="#0B77D8"/>
<stop offset="1" stop-color="#0347BF"/>
</linearGradient>
<clipPath id="clip0_33896_10141">
<rect width="259" height="27" fill="white" transform="translate(12 25.5)"/>
</clipPath>
</defs>
</svg>
