<svg width="1440" height="73" viewBox="0 0 1440 73" fill="none" xmlns="http://www.w3.org/2000/svg">
<rect width="1440" height="5" fill="#00928F"/>
<rect width="1440" height="68" transform="translate(0 5)" fill="white"/>
<g clip-path="url(#clip0_33896_10142)">
<path fill-rule="evenodd" clip-rule="evenodd" d="M47.2446 31.5953C47.2446 30.808 47.2446 29.4696 48.7424 29.4696C50.2401 29.4696 50.238 30.808 50.238 31.5953V43.0919C50.238 43.703 50.238 45.2134 48.7424 45.2134C47.2467 45.2134 47.2446 43.703 47.2446 43.0919V31.5953ZM42.0525 42.6257C42.0525 46.759 44.6194 49.183 48.7403 49.183C52.8612 49.183 55.426 46.759 55.426 42.6257V32.0594C55.426 27.518 52.6053 25.5 48.7403 25.5C44.8753 25.5 42.0525 27.518 42.0525 32.0594V42.6257Z" fill="#32373F"/>
<path d="M88.5927 44.051C88.5927 46.2326 89.691 49.1829 94.5462 49.1829C99.4013 49.1829 100.5 46.2326 100.5 44.051V40.3922H95.6445V44.4011C95.6445 45.0393 95.6445 45.9136 94.5441 45.9136C93.4437 45.9136 93.4437 45.0393 93.4437 44.4011V34.9412C93.4437 34.301 93.4437 33.4267 94.5441 33.4267C95.6445 33.4267 95.6445 34.301 95.6445 34.9412V37.5993H100.5V35.2913C100.5 33.1076 99.3972 30.1594 94.5462 30.1594C89.6952 30.1594 88.5927 33.1076 88.5927 35.2913V44.051Z" fill="#32373F"/>
<path d="M101.904 45.6939C101.904 48.6048 103.516 48.9529 105.604 48.9529H106.759V33.9695H107.97V30.3583H106.759V25.7029H101.904V30.3583H100.689V33.9695H101.904V45.6939Z" fill="#32373F"/>
<path fill-rule="evenodd" clip-rule="evenodd" d="M108.648 48.9696H113.503V30.3708H108.648V48.9696ZM108.648 29.1485H113.503V25.7155H108.648V29.1505V29.1485Z" fill="#32373F"/>
<path fill-rule="evenodd" clip-rule="evenodd" d="M117.118 48.9699H122.795L126.092 30.3711H121.241L120.026 42.2737H119.97L118.841 30.3711H113.846L117.118 48.9699Z" fill="#32373F"/>
<path fill-rule="evenodd" clip-rule="evenodd" d="M75.6892 44.051C75.6892 46.2326 76.7875 49.1829 81.6406 49.1829C86.4937 49.1829 87.5983 46.2347 87.5983 44.051V42.0724H82.7411V44.4011C82.7411 45.0393 82.7411 45.9136 81.6406 45.9136C80.5402 45.9136 80.5402 45.0393 80.5402 44.4011V40.4129H87.5983V35.2913C87.5983 33.1076 86.4979 30.1594 81.6406 30.1594C76.7834 30.1594 75.6892 33.1076 75.6892 35.2913V44.0531V44.051ZM80.5402 34.9391C80.5402 34.2989 80.5402 33.4267 81.6406 33.4267C82.7411 33.4267 82.7411 34.2989 82.7411 34.9391V36.9778H80.5402V34.9391Z" fill="#32373F"/>
<path fill-rule="evenodd" clip-rule="evenodd" d="M125.922 44.051C125.922 46.2326 127.02 49.1829 131.875 49.1829C136.73 49.1829 137.831 46.2347 137.831 44.051V42.0724H132.978V44.4011C132.978 45.0393 132.978 45.9136 131.877 45.9136C130.777 45.9136 130.777 45.0393 130.777 44.4011V40.4129H137.833V35.2913C137.833 33.1076 136.732 30.1594 131.877 30.1594C127.022 30.1594 125.924 33.1076 125.924 35.2913V44.0531L125.922 44.051ZM130.775 34.9391C130.775 34.2989 130.775 33.4246 131.875 33.4246C132.976 33.4246 132.976 34.2989 132.976 34.9391V36.9778H130.773V34.9391" fill="#32373F"/>
<path fill-rule="evenodd" clip-rule="evenodd" d="M61.5439 44.3762C61.5439 45.0164 61.5439 45.8907 62.6443 45.8907C63.7448 45.8907 63.7468 45.0164 63.7468 44.3762V34.9163C63.7468 34.2761 63.7468 33.4018 62.6443 33.4018C61.5418 33.4018 61.5439 34.274 61.5439 34.9163L61.5314 44.3762H61.5439ZM61.5314 48.6131V48.957H56.6783V25.7029H61.5314V30.6007C61.8851 30.3458 62.6173 30.1324 63.0125 30.1324C67.5619 30.1324 68.5978 33.0827 68.5978 35.2643V44.024C68.5978 46.2056 67.5973 49.1559 63.1519 49.1559C62.7567 49.1559 61.8851 48.9757 61.5273 48.611H61.5314" fill="#32373F"/>
<path d="M69.7316 52.4837L70.8799 52.5002C74.2956 52.5002 74.5868 50.4201 74.5868 47.6252V30.3711H69.7337V52.4837" fill="#32373F"/>
<path d="M69.7316 25.7155H74.5868V29.1485H69.7316V25.7155Z" fill="#32373F"/>
<path d="M151.822 35.3578C151.822 34.6824 151.727 34.1147 151.537 33.663C151.348 33.2093 151.094 32.8488 150.78 32.5815C150.464 32.3143 150.104 32.1278 149.698 32.0221C149.293 31.9165 148.875 31.8626 148.442 31.8626H146.01L146.019 38.9731L148.531 38.969C149.557 38.969 150.364 38.6499 150.949 38.018C151.533 37.3861 151.824 36.4973 151.822 35.3578ZM151.947 49.239L148.479 40.4462H146.021L146.031 49.2473H144.167L144.146 30.259L148.739 30.2549C149.37 30.2549 149.977 30.3398 150.564 30.5076C151.148 30.6775 151.672 30.9593 152.132 31.3509C152.592 31.7445 152.962 32.2625 153.241 32.9047C153.522 33.5491 153.661 34.3364 153.663 35.2646C153.663 36.0705 153.561 36.7625 153.355 37.3426C153.149 37.9248 152.879 38.4117 152.546 38.8053C152.213 39.1989 151.845 39.5035 151.44 39.719C151.036 39.9324 150.634 40.0691 150.237 40.123L153.975 49.239H151.949H151.947Z" fill="#00928F"/>
<path d="M157.027 49.2349L157.004 30.2446L164.703 30.2363L164.705 31.8979L158.843 31.9041L158.849 38.5568L164.335 38.5506V40.1604L158.853 40.1666L158.862 47.5423L164.994 47.5361V49.2246L157.027 49.2349Z" fill="#00928F"/>
<path d="M176.893 49.1456C176.146 49.4232 175.268 49.562 174.259 49.5641C173.196 49.5641 172.241 49.3341 171.395 48.87C170.548 48.4059 169.834 47.745 169.258 46.8873C168.68 46.0296 168.237 44.9937 167.931 43.7775C167.623 42.5613 167.469 41.2022 167.467 39.7022C167.467 38.2892 167.613 36.9736 167.908 35.7575C168.206 34.5413 168.63 33.4909 169.19 32.6042C169.747 31.7174 170.429 31.0254 171.241 30.524C172.05 30.0227 172.967 29.772 173.995 29.7699C174.931 29.7699 175.786 29.9564 176.562 30.3293C177.336 30.7043 177.985 31.2927 178.509 32.0966L177.294 33.3314C176.878 32.7057 176.395 32.2374 175.848 31.9246C175.297 31.6117 174.706 31.4564 174.078 31.4564C173.286 31.4564 172.601 31.678 172.027 32.1173C171.451 32.5565 170.97 33.1511 170.583 33.9032C170.196 34.6553 169.909 35.5254 169.722 36.5199C169.535 37.5123 169.441 38.5731 169.441 39.7001C169.441 40.8811 169.543 41.9709 169.743 42.9716C169.941 43.9722 170.244 44.8362 170.65 45.5593C171.056 46.2823 171.561 46.85 172.164 47.2602C172.77 47.6705 173.467 47.8756 174.259 47.8756C174.835 47.8756 175.353 47.803 175.813 47.6601C176.273 47.5171 176.653 47.31 176.961 47.0427L176.955 40.6055L174.226 40.6097V38.9999L178.79 38.9937L178.8 48.0372C178.278 48.5013 177.644 48.8721 176.897 49.1497L176.893 49.1456Z" fill="#00928F"/>
<path d="M196.059 49.1912L193.574 49.1933L190.422 32.9419H190.368L187.279 49.2016L184.795 49.2037L181.018 30.2175L182.936 30.2154L186.089 46.8149H186.143L189.311 30.2071L191.581 30.2051L194.843 46.8045H194.895L197.982 30.1968H199.82L196.059 49.1912Z" fill="#00928F"/>
<path d="M212.283 39.6508C212.283 38.5051 212.191 37.434 212.008 36.4312C211.827 35.4305 211.553 34.5645 211.182 33.8311C210.812 33.0977 210.357 32.5176 209.816 32.0887C209.275 31.6598 208.653 31.4464 207.952 31.4464C207.213 31.4464 206.571 31.6619 206.022 32.0928C205.472 32.5238 205.019 33.1039 204.659 33.8373C204.299 34.5707 204.031 35.4388 203.852 36.4395C203.673 37.4423 203.586 38.5134 203.586 39.6591C203.588 40.8028 203.679 41.876 203.86 42.8767C204.041 43.8794 204.312 44.7537 204.674 45.5037C205.035 46.2537 205.489 46.8442 206.038 47.2731C206.587 47.702 207.23 47.9153 207.971 47.9153C208.69 47.9153 209.323 47.6999 209.862 47.2689C210.402 46.838 210.852 46.2475 211.21 45.4955C211.569 44.7455 211.838 43.8691 212.017 42.8663C212.196 41.8656 212.285 40.7924 212.283 39.6488V39.6508ZM214.257 39.6488C214.257 41.1322 214.116 42.4872 213.828 43.7116C213.541 44.9381 213.13 45.9886 212.589 46.8649C212.05 47.7434 211.393 48.4229 210.619 48.9057C209.845 49.3905 208.963 49.6329 207.973 49.6329C206.983 49.6329 206.094 49.3946 205.31 48.9119C204.526 48.4292 203.858 47.7517 203.309 46.8753C202.758 46.001 202.34 44.9485 202.048 43.7261C201.759 42.5017 201.614 41.1467 201.612 39.6633C201.612 38.1964 201.747 36.8518 202.025 35.6253C202.304 34.4008 202.712 33.3546 203.251 32.4844C203.789 31.6163 204.451 30.9409 205.233 30.4582C206.015 29.9734 206.92 29.731 207.948 29.731C208.938 29.731 209.82 29.9692 210.596 30.452C211.37 30.9347 212.027 31.608 212.57 32.4741C213.111 33.3401 213.527 34.3863 213.816 35.6108C214.105 36.8352 214.251 38.1819 214.253 39.6488H214.257Z" fill="#00928F"/>
<path d="M225.49 35.277C225.49 34.6016 225.394 34.0339 225.205 33.5801C225.016 33.1264 224.762 32.7659 224.448 32.4987C224.132 32.2314 223.772 32.0449 223.366 31.9393C222.963 31.8336 222.542 31.7797 222.112 31.7797L219.68 31.7839L219.688 38.8923L222.201 38.8882C223.227 38.8882 224.034 38.5712 224.618 37.9372C225.203 37.3053 225.494 36.4185 225.494 35.277H225.49ZM225.613 49.1582L222.145 40.3633L219.686 40.3674L219.697 49.1644H217.833L217.81 30.1761L222.403 30.1699C223.033 30.1699 223.643 30.2528 224.227 30.4227C224.812 30.5926 225.336 30.8743 225.796 31.2659C226.256 31.6596 226.624 32.1775 226.905 32.8219C227.185 33.4641 227.325 34.2514 227.327 35.1817C227.327 35.9876 227.225 36.6796 227.019 37.2597C226.813 37.8419 226.543 38.3288 226.21 38.7245C225.877 39.1181 225.509 39.4227 225.103 39.6382C224.7 39.8536 224.298 39.9862 223.901 40.0422L227.639 49.1582H225.613Z" fill="#00928F"/>
<path d="M238.957 49.1439L232.571 39.4125H232.544L232.554 49.1501L230.69 49.1522L230.67 30.1618L232.534 30.1598L232.544 38.6895H232.571L238.558 30.1536L240.746 30.1494L234.327 38.9298L241.227 49.1418L238.957 49.1439Z" fill="#00928F"/>
<path d="M252 44.2729C252 45.1141 251.875 45.8599 251.626 46.5125C251.372 47.1652 251.029 47.7204 250.588 48.1762C250.147 48.632 249.629 48.9821 249.036 49.2225C248.441 49.4649 247.81 49.585 247.145 49.5871C246.171 49.5871 245.277 49.3841 244.455 48.9739C243.636 48.5636 242.972 48.0187 242.469 47.3413L243.629 46.0257C244.043 46.6161 244.567 47.0719 245.198 47.3931C245.828 47.7142 246.467 47.8758 247.116 47.8737C247.981 47.8737 248.705 47.5692 249.289 46.96C249.876 46.3509 250.167 45.4828 250.165 44.3578C250.165 43.8212 250.074 43.3468 249.893 42.9366C249.712 42.5263 249.468 42.1596 249.163 41.8364C248.857 41.5153 248.509 41.2294 248.12 40.9808C247.734 40.7301 247.324 40.498 246.889 40.2846C246.367 40.0339 245.872 39.7522 245.402 39.4414C244.934 39.1286 244.524 38.7681 244.172 38.3558C243.821 37.9455 243.536 37.4587 243.319 36.8951C243.103 36.3316 242.993 35.6748 242.993 34.9228C242.993 34.0464 243.128 33.2819 243.396 32.6292C243.665 31.9766 244.031 31.4317 244.488 30.9904C244.948 30.5512 245.464 30.2259 246.04 30.0105C246.616 29.795 247.22 29.6873 247.85 29.6873C248.715 29.6873 249.493 29.8323 250.186 30.1286C250.881 30.4228 251.461 30.8827 251.929 31.5084L250.769 32.824C250.407 32.306 249.984 31.9352 249.498 31.7135C249.009 31.4897 248.48 31.3779 247.902 31.3799C247.523 31.3799 247.149 31.4483 246.781 31.583C246.413 31.7176 246.084 31.929 245.795 32.2149C245.508 32.5008 245.273 32.8696 245.094 33.315C244.915 33.7625 244.823 34.2908 244.825 34.8979C244.825 35.4345 244.909 35.8986 245.071 36.2922C245.233 36.6859 245.454 37.036 245.734 37.3385C246.015 37.6431 246.34 37.9103 246.708 38.1424C247.078 38.3744 247.461 38.5899 247.858 38.7846C248.362 39.0333 248.863 39.3192 249.358 39.6424C249.853 39.9635 250.3 40.3385 250.698 40.7674C251.095 41.1962 251.409 41.6955 251.644 42.2694C251.877 42.8413 251.996 43.5125 251.998 44.2812L252 44.2729Z" fill="#00928F"/>
<path d="M35.2312 25.5126H12.7688C12.3466 25.5126 12 25.8592 12 26.2813V48.7438C12 49.166 12.3466 49.5126 12.7688 49.5126H35.2312C35.6534 49.5126 36 49.166 36 48.7438V26.2813C36 25.8592 35.6555 25.5126 35.2312 25.5126ZM24.3655 36.811L25.5333 31.4065C25.5586 31.2889 25.6783 31.1923 25.798 31.1944L30.9862 31.2007C31.1059 31.2007 31.1731 31.2931 31.1332 31.4065L29.7364 36.8215C29.6965 36.9349 29.5684 37.0274 29.4465 37.0274L24.5356 37.0232C24.4159 37.0232 24.3382 36.9265 24.3634 36.8089L24.3655 36.811ZM23.6681 38.1574L22.5003 43.5619C22.4751 43.6796 22.3553 43.7762 22.2356 43.7741L17.0474 43.7678C16.9277 43.7678 16.8605 43.6754 16.9004 43.5619L18.2972 38.1448C18.3371 38.0314 18.4653 37.939 18.5871 37.939L23.498 37.9432C23.6177 37.9432 23.6954 38.0398 23.6702 38.1574H23.6681ZM23.4959 37.0253L18.585 37.0295C18.4653 37.0295 18.335 36.937 18.2951 36.8236L16.8983 31.4086C16.8584 31.2952 16.9256 31.2028 17.0453 31.2028L22.2335 31.1965C22.3532 31.1965 22.473 31.2931 22.4982 31.4086L23.666 36.8131C23.6912 36.9307 23.6135 37.0274 23.4938 37.0274L23.4959 37.0253ZM30.9883 43.7678L25.8001 43.7741C25.6804 43.7741 25.5607 43.6775 25.5354 43.5619L24.3676 38.1574C24.3424 38.0398 24.4201 37.9432 24.5398 37.9432L29.4507 37.939C29.5705 37.939 29.7007 38.0314 29.7406 38.1448L31.1374 43.5619C31.1773 43.6754 31.1101 43.7678 30.9904 43.7678H30.9883Z" fill="url(#paint0_linear_33896_10142)"/>
</g>
<rect x="1262" y="23" width="32" height="32" rx="16" fill="#1F428F"/>
<path d="M1275.22 41.66C1275.22 42.164 1275.1 42.6 1274.85 42.968C1274.6 43.336 1274.24 43.62 1273.77 43.82C1273.31 44.02 1272.75 44.12 1272.1 44.12C1271.79 44.12 1271.49 44.1 1271.2 44.06C1270.92 44.028 1270.66 43.976 1270.4 43.904C1270.15 43.832 1269.92 43.744 1269.7 43.64V42.2C1270.06 42.36 1270.46 42.508 1270.89 42.644C1271.32 42.772 1271.76 42.836 1272.21 42.836C1272.56 42.836 1272.84 42.792 1273.05 42.704C1273.28 42.608 1273.44 42.48 1273.54 42.32C1273.65 42.152 1273.7 41.96 1273.7 41.744C1273.7 41.504 1273.63 41.3 1273.5 41.132C1273.36 40.964 1273.16 40.808 1272.9 40.664C1272.63 40.52 1272.3 40.368 1271.91 40.208C1271.65 40.096 1271.39 39.972 1271.13 39.836C1270.88 39.692 1270.66 39.52 1270.46 39.32C1270.26 39.12 1270.1 38.884 1269.98 38.612C1269.86 38.34 1269.8 38.02 1269.8 37.652C1269.8 37.164 1269.92 36.744 1270.15 36.392C1270.39 36.04 1270.72 35.772 1271.14 35.588C1271.58 35.404 1272.08 35.312 1272.64 35.312C1273.1 35.312 1273.53 35.36 1273.93 35.456C1274.33 35.552 1274.72 35.688 1275.12 35.864L1274.62 37.1C1274.27 36.948 1273.93 36.828 1273.6 36.74C1273.28 36.652 1272.94 36.608 1272.6 36.608C1272.32 36.608 1272.09 36.652 1271.9 36.74C1271.71 36.82 1271.56 36.936 1271.47 37.088C1271.37 37.24 1271.32 37.416 1271.32 37.616C1271.32 37.848 1271.38 38.044 1271.5 38.204C1271.62 38.364 1271.81 38.516 1272.06 38.66C1272.31 38.796 1272.64 38.952 1273.04 39.128C1273.5 39.328 1273.9 39.536 1274.22 39.752C1274.54 39.968 1274.78 40.228 1274.96 40.532C1275.14 40.836 1275.22 41.212 1275.22 41.66ZM1280.53 44L1278.17 36.98H1278.13C1278.13 37.14 1278.15 37.368 1278.16 37.664C1278.18 37.952 1278.19 38.268 1278.2 38.612C1278.21 38.948 1278.22 39.264 1278.22 39.56V44H1276.84V35.432H1278.98L1281.23 42.164H1281.28L1283.63 35.432H1285.77V44H1284.31V39.488C1284.31 39.216 1284.31 38.92 1284.32 38.6C1284.33 38.272 1284.35 37.964 1284.35 37.676C1284.37 37.38 1284.38 37.152 1284.39 36.992H1284.34L1281.89 44H1280.53Z" fill="white"/>
<path d="M1309.03 41.826C1309.03 42.4233 1308.88 42.932 1308.59 43.352C1308.3 43.7627 1307.89 44.08 1307.35 44.304C1306.82 44.528 1306.19 44.64 1305.46 44.64C1305.08 44.64 1304.73 44.6213 1304.38 44.584C1304.04 44.5467 1303.74 44.4953 1303.46 44.43C1303.18 44.3553 1302.93 44.2667 1302.71 44.164V42.96C1303.05 43.1093 1303.47 43.2447 1303.96 43.366C1304.46 43.4873 1304.98 43.548 1305.51 43.548C1306.01 43.548 1306.42 43.4827 1306.76 43.352C1307.1 43.2213 1307.35 43.0347 1307.52 42.792C1307.68 42.5493 1307.77 42.2647 1307.77 41.938C1307.77 41.6113 1307.7 41.336 1307.56 41.112C1307.42 40.888 1307.18 40.6827 1306.83 40.496C1306.49 40.3 1306.02 40.0947 1305.42 39.88C1304.99 39.7213 1304.61 39.5533 1304.28 39.376C1303.96 39.1893 1303.7 38.9793 1303.48 38.746C1303.27 38.5127 1303.11 38.2467 1302.99 37.948C1302.89 37.6493 1302.84 37.304 1302.84 36.912C1302.84 36.38 1302.98 35.9273 1303.25 35.554C1303.52 35.1713 1303.89 34.8773 1304.37 34.672C1304.85 34.4667 1305.41 34.364 1306.03 34.364C1306.58 34.364 1307.09 34.4153 1307.54 34.518C1308 34.6207 1308.42 34.756 1308.79 34.924L1308.4 36.002C1308.05 35.8527 1307.67 35.7267 1307.26 35.624C1306.86 35.5213 1306.44 35.47 1306 35.47C1305.58 35.47 1305.23 35.5307 1304.95 35.652C1304.67 35.7733 1304.46 35.946 1304.32 36.17C1304.18 36.3847 1304.11 36.6367 1304.11 36.926C1304.11 37.262 1304.18 37.542 1304.32 37.766C1304.46 37.99 1304.69 38.1907 1305.01 38.368C1305.33 38.5453 1305.76 38.7367 1306.3 38.942C1306.89 39.1567 1307.38 39.39 1307.78 39.642C1308.19 39.8847 1308.5 40.1787 1308.71 40.524C1308.92 40.8693 1309.03 41.3033 1309.03 41.826ZM1313.88 44.64C1313.22 44.64 1312.63 44.5047 1312.11 44.234C1311.59 43.9633 1311.19 43.5433 1310.89 42.974C1310.6 42.4047 1310.45 41.6767 1310.45 40.79C1310.45 39.866 1310.61 39.1147 1310.92 38.536C1311.22 37.9573 1311.64 37.5327 1312.16 37.262C1312.69 36.9913 1313.3 36.856 1313.97 36.856C1314.35 36.856 1314.72 36.898 1315.07 36.982C1315.43 37.0567 1315.72 37.15 1315.94 37.262L1315.56 38.284C1315.34 38.2 1315.08 38.1207 1314.78 38.046C1314.48 37.9713 1314.2 37.934 1313.94 37.934C1313.44 37.934 1313.02 38.0413 1312.69 38.256C1312.37 38.4707 1312.12 38.788 1311.97 39.208C1311.81 39.628 1311.73 40.1507 1311.73 40.776C1311.73 41.3733 1311.81 41.882 1311.97 42.302C1312.12 42.722 1312.36 43.0393 1312.68 43.254C1313 43.4687 1313.39 43.576 1313.87 43.576C1314.28 43.576 1314.64 43.534 1314.95 43.45C1315.26 43.366 1315.55 43.2633 1315.82 43.142V44.234C1315.56 44.3647 1315.28 44.4627 1314.98 44.528C1314.68 44.6027 1314.31 44.64 1313.88 44.64ZM1324.12 40.734C1324.12 41.3593 1324.04 41.9147 1323.87 42.4C1323.71 42.876 1323.48 43.282 1323.17 43.618C1322.87 43.954 1322.5 44.2107 1322.07 44.388C1321.64 44.556 1321.16 44.64 1320.62 44.64C1320.13 44.64 1319.67 44.556 1319.25 44.388C1318.83 44.2107 1318.47 43.954 1318.16 43.618C1317.85 43.282 1317.61 42.876 1317.43 42.4C1317.26 41.9147 1317.18 41.3593 1317.18 40.734C1317.18 39.9033 1317.32 39.2033 1317.6 38.634C1317.88 38.0553 1318.28 37.6167 1318.8 37.318C1319.33 37.01 1319.95 36.856 1320.67 36.856C1321.35 36.856 1321.94 37.01 1322.46 37.318C1322.98 37.6167 1323.39 38.0553 1323.68 38.634C1323.97 39.2033 1324.12 39.9033 1324.12 40.734ZM1318.45 40.734C1318.45 41.322 1318.53 41.8353 1318.68 42.274C1318.84 42.7033 1319.08 43.0347 1319.41 43.268C1319.73 43.5013 1320.15 43.618 1320.65 43.618C1321.16 43.618 1321.57 43.5013 1321.9 43.268C1322.22 43.0347 1322.46 42.7033 1322.61 42.274C1322.77 41.8353 1322.85 41.322 1322.85 40.734C1322.85 40.1367 1322.77 39.628 1322.61 39.208C1322.45 38.788 1322.21 38.466 1321.88 38.242C1321.57 38.0087 1321.15 37.892 1320.64 37.892C1319.87 37.892 1319.32 38.144 1318.97 38.648C1318.63 39.152 1318.45 39.8473 1318.45 40.734ZM1328.58 43.632C1328.77 43.632 1328.96 43.618 1329.16 43.59C1329.35 43.5527 1329.51 43.5153 1329.63 43.478V44.416C1329.5 44.4813 1329.32 44.5327 1329.07 44.57C1328.83 44.6167 1328.6 44.64 1328.37 44.64C1327.98 44.64 1327.62 44.5747 1327.28 44.444C1326.95 44.304 1326.69 44.066 1326.48 43.73C1326.28 43.394 1326.17 42.9227 1326.17 42.316V37.948H1325.11V37.36L1326.19 36.87L1326.68 35.274H1327.41V36.996H1329.58V37.948H1327.41V42.288C1327.41 42.7453 1327.51 43.086 1327.73 43.31C1327.95 43.5247 1328.24 43.632 1328.58 43.632ZM1333.64 43.632C1333.83 43.632 1334.02 43.618 1334.22 43.59C1334.41 43.5527 1334.57 43.5153 1334.69 43.478V44.416C1334.56 44.4813 1334.37 44.5327 1334.13 44.57C1333.89 44.6167 1333.66 44.64 1333.43 44.64C1333.04 44.64 1332.68 44.5747 1332.34 44.444C1332.01 44.304 1331.75 44.066 1331.54 43.73C1331.34 43.394 1331.23 42.9227 1331.23 42.316V37.948H1330.17V37.36L1331.25 36.87L1331.74 35.274H1332.47V36.996H1334.64V37.948H1332.47V42.288C1332.47 42.7453 1332.57 43.086 1332.79 43.31C1333.01 43.5247 1333.3 43.632 1333.64 43.632ZM1344.41 44.5L1341.12 35.736H1341.06C1341.08 35.9227 1341.1 36.1607 1341.1 36.45C1341.12 36.7393 1341.14 37.0567 1341.15 37.402C1341.16 37.738 1341.16 38.0833 1341.16 38.438V44.5H1340V34.504H1341.86L1344.94 42.694H1345L1348.13 34.504H1349.98V44.5H1348.73V38.354C1348.73 38.0273 1348.74 37.7053 1348.75 37.388C1348.76 37.0613 1348.77 36.758 1348.79 36.478C1348.81 36.1887 1348.82 35.946 1348.83 35.75H1348.78L1345.44 44.5H1344.41ZM1355.37 36.87C1356.29 36.87 1356.97 37.0707 1357.4 37.472C1357.84 37.8733 1358.06 38.5127 1358.06 39.39V44.5H1357.17L1356.93 43.436H1356.87C1356.66 43.7067 1356.43 43.9353 1356.2 44.122C1355.98 44.2993 1355.71 44.43 1355.42 44.514C1355.13 44.598 1354.77 44.64 1354.35 44.64C1353.9 44.64 1353.5 44.5607 1353.13 44.402C1352.78 44.2433 1352.5 44.0007 1352.29 43.674C1352.09 43.338 1351.99 42.918 1351.99 42.414C1351.99 41.6673 1352.28 41.0933 1352.87 40.692C1353.46 40.2813 1354.36 40.0573 1355.58 40.02L1356.86 39.978V39.53C1356.86 38.9047 1356.72 38.4707 1356.45 38.228C1356.18 37.9853 1355.8 37.864 1355.3 37.864C1354.91 37.864 1354.54 37.9247 1354.18 38.046C1353.83 38.158 1353.5 38.2887 1353.19 38.438L1352.81 37.514C1353.14 37.3367 1353.53 37.1873 1353.97 37.066C1354.42 36.9353 1354.89 36.87 1355.37 36.87ZM1355.74 40.874C1354.8 40.9113 1354.16 41.0607 1353.79 41.322C1353.44 41.5833 1353.26 41.952 1353.26 42.428C1353.26 42.848 1353.39 43.156 1353.64 43.352C1353.9 43.548 1354.23 43.646 1354.63 43.646C1355.27 43.646 1355.79 43.4733 1356.21 43.128C1356.63 42.7733 1356.84 42.232 1356.84 41.504V40.832L1355.74 40.874ZM1363.88 36.856C1364.02 36.856 1364.17 36.8653 1364.33 36.884C1364.5 36.8933 1364.64 36.912 1364.76 36.94L1364.61 38.074C1364.49 38.046 1364.35 38.0227 1364.2 38.004C1364.06 37.9853 1363.93 37.976 1363.8 37.976C1363.51 37.976 1363.23 38.0367 1362.97 38.158C1362.71 38.2793 1362.47 38.452 1362.27 38.676C1362.06 38.8907 1361.9 39.152 1361.78 39.46C1361.67 39.768 1361.61 40.1133 1361.61 40.496V44.5H1360.38V36.996H1361.39L1361.53 38.368H1361.58C1361.74 38.088 1361.93 37.836 1362.16 37.612C1362.38 37.3787 1362.64 37.1967 1362.93 37.066C1363.22 36.926 1363.53 36.856 1363.88 36.856ZM1371.05 42.428C1371.05 42.9133 1370.93 43.3193 1370.68 43.646C1370.44 43.9727 1370.1 44.22 1369.65 44.388C1369.2 44.556 1368.67 44.64 1368.05 44.64C1367.53 44.64 1367.08 44.598 1366.69 44.514C1366.32 44.43 1365.99 44.3133 1365.7 44.164V43.044C1366 43.1933 1366.36 43.3333 1366.78 43.464C1367.21 43.5853 1367.64 43.646 1368.08 43.646C1368.71 43.646 1369.16 43.548 1369.44 43.352C1369.72 43.1467 1369.86 42.876 1369.86 42.54C1369.86 42.3533 1369.81 42.1853 1369.7 42.036C1369.6 41.8867 1369.42 41.7373 1369.14 41.588C1368.88 41.4387 1368.51 41.2707 1368.01 41.084C1367.53 40.8973 1367.11 40.7107 1366.76 40.524C1366.42 40.3373 1366.15 40.1133 1365.97 39.852C1365.78 39.5907 1365.69 39.2547 1365.69 38.844C1365.69 38.2093 1365.94 37.7193 1366.46 37.374C1366.98 37.0287 1367.66 36.856 1368.5 36.856C1368.96 36.856 1369.38 36.9027 1369.77 36.996C1370.18 37.08 1370.55 37.2013 1370.89 37.36L1370.47 38.34C1370.16 38.2093 1369.83 38.0973 1369.48 38.004C1369.14 37.9107 1368.78 37.864 1368.42 37.864C1367.91 37.864 1367.53 37.948 1367.25 38.116C1366.99 38.2747 1366.86 38.494 1366.86 38.774C1366.86 38.9793 1366.92 39.1567 1367.04 39.306C1367.17 39.446 1367.37 39.586 1367.65 39.726C1367.94 39.8567 1368.32 40.0153 1368.79 40.202C1369.27 40.3793 1369.68 40.5613 1370.01 40.748C1370.35 40.9347 1370.61 41.1633 1370.78 41.434C1370.96 41.6953 1371.05 42.0267 1371.05 42.428ZM1374.09 36.982C1374.09 37.1593 1374.08 37.3413 1374.07 37.528C1374.06 37.7147 1374.04 37.8827 1374.02 38.032H1374.11C1374.27 37.7707 1374.47 37.556 1374.71 37.388C1374.95 37.22 1375.22 37.094 1375.52 37.01C1375.82 36.9167 1376.13 36.87 1376.45 36.87C1377.05 36.87 1377.56 36.968 1377.96 37.164C1378.37 37.3507 1378.68 37.6447 1378.88 38.046C1379.09 38.4473 1379.19 38.97 1379.19 39.614V44.5H1377.97V39.698C1377.97 39.0913 1377.84 38.6387 1377.57 38.34C1377.3 38.0413 1376.87 37.892 1376.29 37.892C1375.73 37.892 1375.29 37.9993 1374.98 38.214C1374.66 38.4193 1374.43 38.7273 1374.29 39.138C1374.16 39.5393 1374.09 40.034 1374.09 40.622V44.5H1372.86V33.86H1374.09V36.982ZM1384.36 36.87C1385.27 36.87 1385.95 37.0707 1386.39 37.472C1386.83 37.8733 1387.05 38.5127 1387.05 39.39V44.5H1386.15L1385.91 43.436H1385.86C1385.64 43.7067 1385.42 43.9353 1385.18 44.122C1384.96 44.2993 1384.7 44.43 1384.4 44.514C1384.11 44.598 1383.76 44.64 1383.34 44.64C1382.89 44.64 1382.48 44.5607 1382.12 44.402C1381.76 44.2433 1381.48 44.0007 1381.28 43.674C1381.07 43.338 1380.97 42.918 1380.97 42.414C1380.97 41.6673 1381.26 41.0933 1381.85 40.692C1382.44 40.2813 1383.35 40.0573 1384.57 40.02L1385.84 39.978V39.53C1385.84 38.9047 1385.71 38.4707 1385.44 38.228C1385.17 37.9853 1384.78 37.864 1384.29 37.864C1383.9 37.864 1383.52 37.9247 1383.17 38.046C1382.81 38.158 1382.48 38.2887 1382.17 38.438L1381.8 37.514C1382.12 37.3367 1382.51 37.1873 1382.96 37.066C1383.41 36.9353 1383.87 36.87 1384.36 36.87ZM1384.72 40.874C1383.79 40.9113 1383.14 41.0607 1382.78 41.322C1382.42 41.5833 1382.24 41.952 1382.24 42.428C1382.24 42.848 1382.37 43.156 1382.62 43.352C1382.88 43.548 1383.21 43.646 1383.62 43.646C1384.25 43.646 1384.78 43.4733 1385.2 43.128C1385.62 42.7733 1385.83 42.232 1385.83 41.504V40.832L1384.72 40.874ZM1390.6 44.5H1389.36V33.86H1390.6V44.5ZM1394.21 44.5H1392.97V33.86H1394.21V44.5Z" fill="#525965"/>
<path d="M1410 42.7498L1403.75 36.4998L1404.63 35.6248L1410 40.9998L1415.38 35.6248L1416.25 36.4998L1410 42.7498Z" fill="#525965"/>
<line y1="72.5" x2="1440" y2="72.5" stroke="#F5F5F5"/>
<defs>
<linearGradient id="paint0_linear_33896_10142" x1="32.0553" y1="51.4639" x2="15.9447" y2="23.5612" gradientUnits="userSpaceOnUse">
<stop stop-color="#00BBB7"/>
<stop offset="0.5" stop-color="#00ABA7"/>
<stop offset="0.73" stop-color="#00A29E"/>
<stop offset="1" stop-color="#00928F"/>
</linearGradient>
<clipPath id="clip0_33896_10142">
<rect width="240" height="27" fill="white" transform="translate(12 25.5)"/>
</clipPath>
</defs>
</svg>
