<svg width="221" height="28" viewBox="0 0 221 28" fill="none" xmlns="http://www.w3.org/2000/svg">
<g clip-path="url(#clip0_15_3003)">
<path fill-rule="evenodd" clip-rule="evenodd" d="M35.363 6.5953C35.363 5.80801 35.363 4.46961 36.8657 4.46961C38.3685 4.46961 38.3664 5.80801 38.3664 6.5953V18.0919C38.3664 18.703 38.3664 20.2134 36.8657 20.2134C35.365 20.2134 35.363 18.703 35.363 18.0919V6.5953ZM30.1534 17.6257C30.1534 21.759 32.7289 24.183 36.8636 24.183C40.9983 24.183 43.5718 21.759 43.5718 17.6257V7.05939C43.5718 2.51796 40.7416 0.5 36.8636 0.5C32.9857 0.5 30.1534 2.51796 30.1534 7.05939V17.6257Z" fill="#32373F"/>
<path d="M76.8496 19.0511C76.8496 21.2327 77.9516 24.183 82.8231 24.183C87.6945 24.183 88.7966 21.2327 88.7966 19.0511V15.3923H83.9251V19.4013C83.9251 20.0394 83.9251 20.9137 82.821 20.9137C81.7169 20.9137 81.7169 20.0394 81.7169 19.4013V9.94131C81.7169 9.30112 81.7169 8.42681 82.821 8.42681C83.9251 8.42681 83.9251 9.30112 83.9251 9.94131V12.5995H88.7966V10.2915C88.7966 8.10775 87.6904 5.15955 82.8231 5.15955C77.9558 5.15955 76.8496 8.10775 76.8496 10.2915V19.0511Z" fill="#32373F"/>
<path d="M90.2053 20.6941C90.2053 23.605 91.8229 23.9531 93.9184 23.9531H95.0767V8.96964H96.2915V5.35845H95.0767V0.703064H90.2053V5.35845H88.9864V8.96964H90.2053V20.6941Z" fill="#32373F"/>
<path fill-rule="evenodd" clip-rule="evenodd" d="M96.9721 23.9696H101.844V5.37084H96.9721V23.9696ZM96.9721 4.14847H101.844V0.715454H96.9721V4.15054V4.14847Z" fill="#32373F"/>
<path fill-rule="evenodd" clip-rule="evenodd" d="M105.471 23.9696H111.167L114.475 5.37085H109.608L108.389 17.2735H108.333L107.199 5.37085H102.188L105.471 23.9696Z" fill="#32373F"/>
<path fill-rule="evenodd" clip-rule="evenodd" d="M63.903 19.0511C63.903 21.2327 65.005 24.183 69.8743 24.183C74.7437 24.183 75.852 21.2348 75.852 19.0511V17.0725H70.9785V19.4013C70.9785 20.0394 70.9785 20.9137 69.8743 20.9137C68.7702 20.9137 68.7702 20.0394 68.7702 19.4013V15.413H75.852V10.2915C75.852 8.10775 74.7479 5.15955 69.8743 5.15955C65.0008 5.15955 63.903 8.10775 63.903 10.2915V19.0532V19.0511ZM68.7702 9.93924C68.7702 9.29905 68.7702 8.42681 69.8743 8.42681C70.9785 8.42681 70.9785 9.29905 70.9785 9.93924V11.9779H68.7702V9.93924Z" fill="#32373F"/>
<path fill-rule="evenodd" clip-rule="evenodd" d="M114.304 19.0511C114.304 21.2327 115.406 24.183 120.277 24.183C125.149 24.183 126.253 21.2348 126.253 19.0511V17.0725H121.384V19.4013C121.384 20.0394 121.384 20.9137 120.28 20.9137C119.175 20.9137 119.175 20.0394 119.175 19.4013V15.413H126.255V10.2915C126.255 8.10775 125.151 5.15955 120.28 5.15955C115.408 5.15955 114.306 8.10775 114.306 10.2915V19.0532L114.304 19.0511ZM119.173 9.93924C119.173 9.29905 119.173 8.42474 120.277 8.42474C121.382 8.42474 121.382 9.29905 121.382 9.93924V11.9779H119.171V9.93924" fill="#32373F"/>
<path fill-rule="evenodd" clip-rule="evenodd" d="M49.7103 19.3764C49.7103 20.0166 49.7103 20.8909 50.8144 20.8909C51.9185 20.8909 51.9206 20.0166 51.9206 19.3764V9.91646C51.9206 9.27627 51.9206 8.40196 50.8144 8.40196C49.7082 8.40196 49.7103 9.2742 49.7103 9.91646L49.6978 19.3764H49.7103ZM49.6978 23.6133V23.9572H44.8284V0.703064H49.6978V5.60085C50.0526 5.34602 50.7873 5.13262 51.1839 5.13262C55.7485 5.13262 56.7879 8.0829 56.7879 10.2645V19.0242C56.7879 21.2058 55.784 24.1561 51.3237 24.1561C50.9271 24.1561 50.0526 23.9759 49.6936 23.6112H49.6978" fill="#32373F"/>
<path d="M57.925 27.4834L59.0772 27.5C62.5043 27.5 62.7965 25.4199 62.7965 22.625V5.37085H57.9271V27.4834" fill="#32373F"/>
<path d="M57.925 0.715454H62.7965V4.14847H57.925V0.715454Z" fill="#32373F"/>
<path d="M140.82 24.2017L134.472 14.5097H134.445V24.2017H132.588V5.29834H134.445V13.7887H134.472L140.444 5.29834H142.623L136.219 14.029L143.08 24.2017H140.82Z" fill="#00928F"/>
<path d="M144.591 24.2017V5.29834H152.259V6.95373H146.421V13.5753H151.881V15.1768H146.421V22.5193H152.526V24.2017H144.591Z" fill="#00928F"/>
<path d="M160.249 16.4323V24.2017H158.421V16.4323L153.687 5.29834H155.73L159.335 14.5097L163.021 5.29834H165.037L160.249 16.4323Z" fill="#00928F"/>
<path d="M174.091 19.1817C174.091 19.9835 173.972 20.6982 173.73 21.3198C173.488 21.9434 173.158 22.4717 172.736 22.9089C172.315 23.344 171.82 23.6775 171.252 23.9075C170.685 24.1375 170.082 24.2535 169.445 24.2535C168.516 24.2535 167.66 24.0567 166.878 23.6651C166.095 23.2714 165.463 22.7514 164.981 22.1029L166.091 20.8474C166.485 21.4109 166.984 21.846 167.587 22.1547C168.191 22.4614 168.8 22.6147 169.42 22.6147C170.246 22.6147 170.937 22.3246 171.497 21.7445C172.056 21.1644 172.336 20.3357 172.336 19.2604C172.336 18.7487 172.25 18.2949 172.079 17.9034C171.908 17.5097 171.674 17.1596 171.382 16.8529C171.09 16.5463 170.758 16.2728 170.388 16.0325C170.019 15.7942 169.627 15.5705 169.215 15.3674C168.717 15.1292 168.243 14.8598 167.796 14.5594C167.347 14.2611 166.957 13.9151 166.621 13.5214C166.285 13.1299 166.014 12.6637 165.807 12.125C165.6 11.5864 165.498 10.9586 165.498 10.2418C165.498 9.40473 165.628 8.67545 165.886 8.05183C166.143 7.42822 166.492 6.90819 166.93 6.48968C167.368 6.07117 167.863 5.7604 168.414 5.55529C168.965 5.35018 169.541 5.24866 170.142 5.24866C170.969 5.24866 171.712 5.38954 172.375 5.67131C173.037 5.95308 173.592 6.3923 174.039 6.99106L172.928 8.24659C172.584 7.75142 172.181 7.39714 171.716 7.18374C171.252 6.97034 170.743 6.86261 170.192 6.86261C169.831 6.86261 169.474 6.92683 169.121 7.05529C168.767 7.18374 168.454 7.38471 168.178 7.65819C167.903 7.93167 167.679 8.28181 167.506 8.7086C167.335 9.1354 167.249 9.63885 167.249 10.221C167.249 10.7328 167.327 11.1782 167.483 11.5532C167.637 11.9303 167.848 12.2618 168.115 12.5518C168.383 12.8419 168.692 13.0988 169.044 13.3205C169.397 13.5422 169.762 13.7473 170.142 13.9358C170.624 14.1741 171.1 14.4476 171.574 14.7563C172.046 15.0629 172.471 15.4234 172.851 15.8315C173.229 16.2418 173.532 16.7203 173.755 17.2673C173.978 17.8143 174.091 18.4545 174.091 19.1879" fill="#00928F"/>
<path d="M181.093 6.89986V24.2017H179.238V6.89986H175.579V5.29834H184.779V6.89986H181.093Z" fill="#00928F"/>
<path d="M197.588 14.7459C197.588 16.1734 197.449 17.4765 197.171 18.6533C196.893 19.8322 196.497 20.8433 195.975 21.6844C195.455 22.5276 194.823 23.1803 194.078 23.6444C193.333 24.1084 192.483 24.3405 191.532 24.3405C190.58 24.3405 189.726 24.1084 188.971 23.6444C188.217 23.1803 187.576 22.5256 187.046 21.6844C186.518 20.8412 186.115 19.8322 185.838 18.6533C185.56 17.4745 185.422 16.1734 185.422 14.7459C185.422 13.3184 185.556 12.0421 185.825 10.8633C186.094 9.68649 186.489 8.67958 187.009 7.84464C187.528 7.01176 188.165 6.36121 188.918 5.89712C189.674 5.43303 190.542 5.20099 191.529 5.20099C192.517 5.20099 193.331 5.43303 194.076 5.89712C194.819 6.36121 195.453 7.01176 195.973 7.84464C196.493 8.67958 196.891 9.68441 197.169 10.8633C197.447 12.0421 197.586 13.335 197.586 14.7459M195.691 14.7459C195.691 13.6457 195.604 12.614 195.43 11.6506C195.257 10.6872 194.994 9.8543 194.637 9.14781C194.282 8.44339 193.844 7.884 193.324 7.47171C192.805 7.05941 192.206 6.85223 191.532 6.85223C190.822 6.85223 190.202 7.05941 189.674 7.47171C189.144 7.884 188.708 8.44339 188.361 9.14781C188.015 9.85223 187.754 10.6872 187.583 11.6506C187.409 12.614 187.324 13.6457 187.324 14.7459C187.324 15.846 187.409 16.8778 187.583 17.8412C187.756 18.8046 188.015 19.6478 188.361 20.3688C188.708 21.0919 189.146 21.6596 189.674 22.0718C190.202 22.4841 190.822 22.6913 191.532 22.6913C192.241 22.6913 192.83 22.4841 193.349 22.0718C193.869 21.6596 194.301 21.0919 194.648 20.3688C194.994 19.6457 195.255 18.8046 195.426 17.8412C195.599 16.8778 195.687 15.846 195.687 14.7459" fill="#00928F"/>
<path d="M207.836 24.2017L201.214 8.47445H201.132V24.2017H199.356V5.29834H201.698L208.287 21.0235H208.369V5.29834H210.089V24.2017H207.836Z" fill="#00928F"/>
<path d="M213.067 24.2017V5.29834H220.733V6.95373H214.895V13.5753H220.355V15.1768H214.895V22.5193H221V24.2017H213.067Z" fill="#00928F"/>
<rect y="0.512695" width="24" height="24" rx="1" fill="white"/>
<path d="M23.2312 0.512695H0.768773C0.346578 0.512695 0 0.859273 0 1.28147V23.7439C0 24.1661 0.346578 24.5127 0.768773 24.5127H23.2312C23.6534 24.5127 24 24.1661 24 23.7439V1.28147C24 0.859273 23.6555 0.512695 23.2312 0.512695ZM8.30737 16.4805L6.44845 16.4847C6.35813 16.4847 6.25941 16.4154 6.23 16.3293L3.48468 8.88518C3.45528 8.79906 3.50569 8.72974 3.59601 8.72974L6.70891 8.72554C6.79923 8.72554 6.88955 8.79696 6.90845 8.88518L8.4376 16.3209C8.4565 16.4091 8.39769 16.4826 8.30737 16.4826V16.4805ZM13.8946 18.4507H10.0235C9.93314 18.4507 9.84281 18.3793 9.82391 18.289L7.33905 6.7637C7.32015 6.67548 7.37896 6.60197 7.46928 6.60197H16.4131C16.5034 6.60197 16.5622 6.67548 16.5433 6.7637L14.0942 18.289C14.0753 18.3772 13.9849 18.4507 13.8946 18.4507ZM20.404 8.87888L18.2594 16.3209C18.23 16.407 18.1334 16.4763 18.0431 16.4763L15.3923 16.4826C15.3019 16.4826 15.2431 16.4112 15.262 16.323L16.9823 8.89148C17.0012 8.80326 17.0915 8.72974 17.1819 8.72974L20.2948 8.72344C20.3851 8.72344 20.4355 8.79276 20.4061 8.87888H20.404Z" fill="url(#paint0_linear_15_3003)"/>
</g>
<defs>
<linearGradient id="paint0_linear_15_3003" x1="20.0553" y1="26.464" x2="3.94469" y2="-1.43864" gradientUnits="userSpaceOnUse">
<stop stop-color="#00BBB7"/>
<stop offset="0.5" stop-color="#00ABA7"/>
<stop offset="0.73" stop-color="#00A29E"/>
<stop offset="1" stop-color="#00928F"/>
</linearGradient>
<clipPath id="clip0_15_3003">
<rect width="221" height="27" fill="white" transform="translate(0 0.5)"/>
</clipPath>
</defs>
</svg>
