<svg width="193" height="48" viewBox="0 0 193 48" fill="none" xmlns="http://www.w3.org/2000/svg">
<g clip-path="url(#clip0_17650_3520)">
<path d="M76.6555 29.0511C76.6555 31.2327 77.7548 34.183 82.6139 34.183C87.473 34.183 88.5723 31.2327 88.5723 29.0511V25.3923H83.7131V29.4013C83.7131 30.0394 83.7131 30.9137 82.6118 30.9137C81.5105 30.9137 81.5105 30.0394 81.5105 29.4013V19.9413C81.5105 19.3011 81.5105 18.4268 82.6118 18.4268C83.7131 18.4268 83.7131 19.3011 83.7131 19.9413V22.5995H88.5723V20.2915C88.5723 18.1077 87.4689 15.1595 82.6139 15.1595C77.7589 15.1595 76.6555 18.1077 76.6555 20.2915V29.0511Z" fill="white"/>
<path d="M89.9774 30.6941C89.9774 33.605 91.5909 33.9531 93.6811 33.9531H94.8366V18.9696H96.0482V15.3585H94.8366V10.7031H89.9774V15.3585H88.7616V18.9696H89.9774V30.6941Z" fill="white"/>
<path fill-rule="evenodd" clip-rule="evenodd" d="M96.7268 33.9696H101.586V15.3708H96.7268V33.9696ZM96.7268 14.1485H101.586V10.7155H96.7268V14.1505V14.1485Z" fill="white"/>
<path fill-rule="evenodd" clip-rule="evenodd" d="M105.205 33.9696H110.886L114.188 15.3708H109.331L108.117 27.2735H108.059L106.931 15.3708H101.93L105.205 33.9696Z" fill="white"/>
<path fill-rule="evenodd" clip-rule="evenodd" d="M63.7411 29.0511C63.7411 31.2327 64.8403 34.183 69.6974 34.183C74.5544 34.183 75.6599 31.2348 75.6599 29.0511V27.0725H70.7987V29.4013C70.7987 30.0394 70.7987 30.9137 69.6974 30.9137C68.5961 30.9137 68.5961 30.0394 68.5961 29.4013V25.413H75.6599V20.2915C75.6599 18.1077 74.5586 15.1595 69.6974 15.1595C64.8362 15.1595 63.7411 18.1077 63.7411 20.2915V29.0532V29.0511ZM68.5961 19.9392C68.5961 19.299 68.5961 18.4268 69.6974 18.4268C70.7987 18.4268 70.7987 19.299 70.7987 19.9392V21.9779H68.5961V19.9392Z" fill="white"/>
<path fill-rule="evenodd" clip-rule="evenodd" d="M114.015 29.0511C114.015 31.2327 115.114 34.183 119.973 34.183C124.832 34.183 125.934 31.2348 125.934 29.0511V27.0725H121.077V29.4013C121.077 30.0394 121.077 30.9137 119.975 30.9137C118.874 30.9137 118.874 30.0394 118.874 29.4013V25.413H125.936V20.2915C125.936 18.1077 124.834 15.1595 119.975 15.1595C115.116 15.1595 114.017 18.1077 114.017 20.2915V29.0532L114.015 29.0511ZM118.872 19.9392C118.872 19.299 118.872 18.4247 119.973 18.4247C121.074 18.4247 121.074 19.299 121.074 19.9392V21.9779H118.87V19.9392" fill="white"/>
<path fill-rule="evenodd" clip-rule="evenodd" d="M35.2738 16.5953C35.2738 15.808 35.2738 14.4696 36.7728 14.4696C38.2717 14.4696 38.2697 15.808 38.2697 16.5953V28.0919C38.2697 28.703 38.2697 30.2134 36.7728 30.2134C35.2759 30.2134 35.2738 28.703 35.2738 28.0919V16.5953ZM30.0774 27.6257C30.0774 31.759 32.6465 34.183 36.7707 34.183C40.8949 34.183 43.4619 31.759 43.4619 27.6257V17.0594C43.4619 12.518 40.6388 10.5 36.7707 10.5C32.9025 10.5 30.0774 12.518 30.0774 17.0594V27.6257Z" fill="white"/>
<path fill-rule="evenodd" clip-rule="evenodd" d="M49.5843 29.3764C49.5843 30.0166 49.5843 30.8909 50.6856 30.8909C51.7869 30.8909 51.789 30.0166 51.789 29.3764V19.9165C51.789 19.2763 51.789 18.402 50.6856 18.402C49.5822 18.402 49.5843 19.2742 49.5843 19.9165L49.5718 29.3764H49.5843ZM49.5718 33.6133V33.9572H44.7147V10.7031H49.5718V15.6009C49.9257 15.346 50.6585 15.1326 51.0541 15.1326C55.6072 15.1326 56.644 18.0829 56.644 20.2645V29.0242C56.644 31.2058 55.6426 34.1561 51.1936 34.1561C50.798 34.1561 49.9257 33.9759 49.5676 33.6112H49.5718" fill="white"/>
<path d="M57.7789 37.4834L58.9281 37.5C62.3466 37.5 62.6381 35.4199 62.6381 32.625V15.3708H57.781V37.4834" fill="white"/>
<path d="M57.7789 10.7155H62.6381V14.1485H57.7789V10.7155Z" fill="white"/>
<path d="M141.261 28.9517C141.261 29.6582 141.157 30.3378 140.944 30.9904C140.732 31.643 140.414 32.2231 139.989 32.7266C139.564 33.23 139.042 33.632 138.421 33.9324C137.801 34.2328 137.091 34.384 136.293 34.384C135.051 34.384 134.01 34.0774 133.166 33.46C132.323 32.8426 131.724 31.9517 131.368 30.7873L133.017 30.3088C133.266 31.0505 133.66 31.6492 134.203 32.1071C134.745 32.565 135.415 32.7949 136.212 32.7929C136.762 32.7929 137.241 32.6727 137.649 32.4345C138.057 32.1962 138.394 31.8875 138.658 31.5063C138.925 31.1271 139.123 30.7065 139.256 30.2487C139.389 29.7887 139.454 29.3391 139.454 28.8978C139.454 27.6257 139.11 26.6603 138.425 25.9994C137.74 25.3385 136.858 25.007 135.777 25.009H135.219V23.5277H135.804C136.762 23.5277 137.534 23.1983 138.119 22.5436C138.704 21.8909 138.996 21.0063 138.994 19.8937C138.994 19.5063 138.94 19.1168 138.833 18.7293C138.727 18.3419 138.556 17.9876 138.327 17.6706C138.096 17.3536 137.807 17.0926 137.461 16.8896C137.116 16.6865 136.693 16.585 136.198 16.5871C135.629 16.5871 135.121 16.7528 134.667 17.0781C134.216 17.4054 133.866 17.8509 133.618 18.4165L132.021 17.8882C132.411 16.9165 133.004 16.1914 133.801 15.7148C134.599 15.2362 135.432 14.998 136.302 14.998C136.993 14.998 137.615 15.1161 138.165 15.3543C138.715 15.5926 139.179 15.922 139.554 16.3467C139.931 16.7694 140.224 17.2687 140.434 17.8426C140.645 18.4165 140.751 19.038 140.751 19.7093C140.751 20.2211 140.69 20.7204 140.568 21.2052C140.445 21.69 140.266 22.1375 140.028 22.5436C139.791 22.9496 139.493 23.2998 139.133 23.5898C138.773 23.882 138.346 24.0809 137.855 24.1865V24.2404C138.883 24.4331 139.71 24.9531 140.33 25.8005C140.953 26.6478 141.263 27.6983 141.265 28.9517H141.261Z" fill="white"/>
<path d="M153.234 29.2562C153.234 30.087 153.111 30.8225 152.863 31.4669C152.616 32.1112 152.274 32.6582 151.841 33.1098C151.406 33.5615 150.898 33.9054 150.313 34.1437C149.728 34.3819 149.108 34.5021 148.45 34.5042C147.492 34.5042 146.609 34.3032 145.802 33.8971C144.994 33.4931 144.34 32.9544 143.845 32.2832L144.988 30.9841C145.396 31.5663 145.912 32.0159 146.532 32.3329C147.153 32.6499 147.784 32.8073 148.423 32.8073C149.274 32.8073 149.988 32.5048 150.563 31.904C151.14 31.3032 151.427 30.4475 151.425 29.335C151.425 28.8046 151.335 28.3384 151.156 27.9323C150.979 27.5263 150.738 27.1658 150.436 26.8467C150.134 26.5297 149.793 26.2479 149.41 26.0014C149.026 25.7548 148.625 25.5249 148.198 25.3135C147.684 25.067 147.194 24.7894 146.734 24.4807C146.272 24.172 145.868 23.8156 145.523 23.4095C145.177 23.0035 144.896 22.5228 144.684 21.9675C144.469 21.4123 144.363 20.7638 144.363 20.0221C144.363 19.1582 144.494 18.4019 144.761 17.7576C145.025 17.1133 145.385 16.5746 145.837 16.1416C146.289 15.7086 146.799 15.3854 147.365 15.174C147.933 14.9606 148.527 14.855 149.147 14.855C149.999 14.855 150.767 14.9979 151.45 15.2901C152.133 15.5801 152.705 16.0338 153.167 16.6513L152.024 17.9503C151.668 17.4385 151.252 17.0739 150.773 16.8522C150.294 16.6326 149.77 16.5228 149.203 16.5228C148.831 16.5228 148.462 16.5891 148.1 16.7217C147.736 16.8543 147.413 17.0635 147.13 17.3453C146.847 17.6292 146.616 17.9896 146.439 18.4309C146.262 18.8722 146.174 19.3943 146.174 19.9931C146.174 20.5235 146.255 20.9814 146.416 21.3709C146.576 21.7583 146.793 22.1022 147.069 22.4026C147.344 22.703 147.665 22.9682 148.027 23.1961C148.391 23.4261 148.768 23.6374 149.16 23.8301C149.657 24.0767 150.149 24.3584 150.638 24.6754C151.125 24.9924 151.566 25.3633 151.956 25.7859C152.347 26.2086 152.657 26.7037 152.888 27.2673C153.119 27.8329 153.236 28.4938 153.236 29.2521L153.234 29.2562Z" fill="white"/>
<path d="M156.619 34.0463L156.598 15.2983H158.462L158.483 34.0442H156.619V34.0463Z" fill="white"/>
<path d="M170.455 34.0297L166.641 25.7196L162.846 34.038H160.877L165.627 24.1575L161.333 15.2901H163.302L166.689 22.6989L170.033 15.2797H171.948L167.701 24.1803L172.475 34.0256H170.453L170.455 34.0297Z" fill="white"/>
<path d="M178.127 16.8605L178.146 34.0214H176.31L176.291 16.8647L172.673 16.8688V15.2797L181.77 15.2693V16.8584L178.127 16.8626V16.8605Z" fill="white"/>
<path d="M188.276 26.3039L188.285 34.009H186.475L186.467 26.306L181.772 15.2694H183.794L187.371 24.3999L191.006 15.259H193.002L188.278 26.3039H188.276Z" fill="white"/>
<rect y="10.5126" width="24" height="24" rx="1" fill="white"/>
<path d="M23.2312 10.5127H0.768773C0.346578 10.5127 0 10.8593 0 11.2815V33.7439C0 34.1661 0.346578 34.5127 0.768773 34.5127H23.2312C23.6534 34.5127 24 34.1661 24 33.7439V11.2815C24 10.8593 23.6555 10.5127 23.2312 10.5127ZM15.2956 16.2785C16.2325 16.7721 17.039 17.4779 17.6566 18.3307C17.7322 18.4357 17.6566 18.5806 17.5305 18.5806L15.491 18.5869C15.4112 18.5869 15.3461 18.5281 15.3356 18.4504L15.0688 16.4381C15.052 16.3121 15.1864 16.2197 15.2977 16.2785H15.2956ZM8.53212 16.5011C9.37441 15.9823 10.3364 15.642 11.3699 15.5328C11.498 15.5181 11.5883 15.6568 11.5232 15.7681L10.5549 17.4338C10.515 17.501 10.433 17.5304 10.3616 17.501L8.55733 16.7826C8.4376 16.7343 8.42289 16.5705 8.53212 16.5032V16.5011ZM6.30142 17.02L7.69613 17.5745L7.9965 17.6942L9.84702 18.4315C9.91423 18.4588 9.94154 18.5386 9.90583 18.5995L8.4607 21.0844C8.39979 21.1894 8.24646 21.1873 8.18764 21.0823L6.06196 17.2825C5.98215 17.1271 6.13758 16.9527 6.30352 17.0179L6.30142 17.02ZM5.85192 19.5699C5.90443 19.4523 6.07037 19.4439 6.13338 19.5573L7.07649 21.244C7.1143 21.3112 7.0975 21.3952 7.03868 21.4436L5.53054 22.6618C5.42972 22.7437 5.27849 22.6744 5.27429 22.5442C5.27219 22.4728 5.27009 22.3993 5.27009 22.3279C5.27009 21.3469 5.47803 20.4143 5.84982 19.5699H5.85192ZM4.62734 25.0858C4.4383 25.0858 4.35848 24.8463 4.50761 24.7308L5.73009 23.7898L7.85367 22.1535L8.06371 21.9939C8.11203 21.9561 8.18134 21.9855 8.18974 22.0443L8.60984 25.0039C8.61614 25.0501 8.58043 25.0942 8.53212 25.0942H6.97357L6.17119 25.0921L4.62944 25.0858H4.62734ZM8.83039 28.3289C7.95029 27.8479 7.18992 27.1778 6.59758 26.3755C6.51987 26.2704 6.59548 26.1255 6.72361 26.1255L8.62874 26.1318C8.70646 26.1318 8.77367 26.1885 8.78418 26.2662L9.05934 28.1714C9.07824 28.2995 8.94171 28.394 8.82829 28.331L8.83039 28.3289ZM10.7334 30.0513C10.641 30.2046 10.4057 30.1584 10.3805 29.982L10.1642 28.4969L9.7903 25.9344L9.67688 25.1614L9.66637 25.0921L9.39751 23.2458L9.21057 21.9645C9.20427 21.9225 9.21267 21.8784 9.23578 21.8405L10.1054 20.3429L10.954 18.8831L11.0002 18.8033L11.3804 18.15L12.6827 15.9109L13.4325 14.6212C13.5249 14.4637 13.7623 14.512 13.7875 14.6926L13.987 16.1693L14.3441 18.8138L14.4176 19.3662L14.4534 19.6329L14.6991 21.4478L14.905 22.9706C14.9113 23.0126 14.9008 23.0567 14.8797 23.0945L14.3168 24.0397L13.2897 25.7642L13.1805 25.947L12.8654 26.4742L11.5001 28.7658L10.7334 30.0555V30.0513ZM15.7241 28.1315C14.8503 28.6776 13.8421 29.0326 12.7625 29.1334C12.6343 29.146 12.5461 29.0074 12.6112 28.896L13.651 27.1421C13.6909 27.0749 13.7749 27.0476 13.8463 27.077L15.7031 27.85C15.8208 27.8983 15.8334 28.06 15.7262 28.1294L15.7241 28.1315ZM17.8414 27.6147L16.4635 27.0497L15.7472 26.7557L14.4429 26.2116C14.3546 26.1738 14.3189 26.0688 14.3672 25.9869L15.722 23.7016C15.783 23.5986 15.9342 23.5986 15.993 23.7016L16.0497 23.8024L17.3373 26.0499L18.0788 27.3417C18.1691 27.4992 18.0095 27.682 17.8414 27.6126V27.6147ZM18.3308 25.1677C18.2783 25.2832 18.1145 25.2916 18.0515 25.1803L17.0243 23.4012C16.9844 23.334 17.0012 23.2479 17.0642 23.1995L18.6879 21.9309C18.7887 21.8531 18.9358 21.9204 18.9421 22.0485C18.9463 22.1409 18.9484 22.2333 18.9484 22.3279C18.9484 23.3403 18.7278 24.3023 18.3329 25.1677H18.3308ZM19.6163 19.9207L19.4588 20.0425L18.4779 20.8071L18.3623 20.8974L16.2556 22.5358L16.14 22.6261C16.0434 22.6996 15.9048 22.6429 15.888 22.5232L15.5309 19.8283C15.5183 19.7338 15.5918 19.6498 15.6863 19.6498L18.7803 19.6392H19.5218C19.6709 19.6392 19.736 19.8283 19.6184 19.9207H19.6163Z" fill="url(#paint0_linear_17650_3520)"/>
</g>
<defs>
<linearGradient id="paint0_linear_17650_3520" x1="20.0553" y1="36.464" x2="3.94469" y2="8.56136" gradientUnits="userSpaceOnUse">
<stop stop-color="#54A0E4"/>
<stop offset="0.49" stop-color="#0B77D8"/>
<stop offset="1" stop-color="#0347BF"/>
</linearGradient>
<clipPath id="clip0_17650_3520">
<rect width="193" height="27" fill="white" transform="translate(0 10.5)"/>
</clipPath>
</defs>
</svg>
