<svg width="138" height="138" viewBox="0 0 138 138" fill="none" xmlns="http://www.w3.org/2000/svg">
<path d="M103.753 60.376C106.998 62.4253 110.414 64.1326 114 65.1572L113.146 67.7188C110.585 75.9161 104.607 82.7478 96.751 86.5049C85.4798 91.799 77.1123 101.192 73.0137 112.805C73.0136 113.146 72.8426 113.658 72.6719 114L70.1104 113.146C65.8409 111.78 61.9127 109.559 58.668 106.656L59.5215 103.753C62.5955 94.5311 69.2563 86.8467 77.9658 82.748C88.7247 77.6248 97.4342 69.9394 103.753 60.376ZM86.6758 41.5898C89.0667 46.7132 92.3114 50.9831 96.2393 54.7402C90.9452 63.1083 83.26 69.9397 74.0381 74.3799C63.9622 79.1617 56.1064 87.5297 51.8369 97.7764L51.4951 97.0928C49.1043 92.1404 46.0304 87.7005 42.2734 84.1143C45.689 77.2832 51.3243 71.6471 58.3262 68.4023C70.4514 62.5959 80.357 53.2027 86.6758 41.5898ZM67.8896 24.8535C72.6714 26.3905 77.1118 28.9527 80.5273 32.5391C75.2332 44.4934 66.0111 54.0567 54.2275 59.6924C45.8594 63.6203 39.0282 70.1099 34.7588 77.7949C31.6848 75.9164 28.44 74.379 25.1953 73.1836C24.8538 73.1835 24.3415 73.0135 24 72.8428L24.8535 70.2812C27.586 62.0839 33.3932 55.2522 41.249 51.4951C52.5201 46.201 60.8877 36.8081 64.9863 25.1953C64.9864 24.8538 65.1574 24.3415 65.3281 24L67.8896 24.8535Z" fill="url(#paint0_linear_2857_6936)"/>
<defs>
<linearGradient id="paint0_linear_2857_6936" x1="99.2074" y1="121.318" x2="38.7925" y2="16.6825" gradientUnits="userSpaceOnUse">
<stop stop-color="#54A0E4"/>
<stop offset="0.49" stop-color="#0B77D8"/>
<stop offset="1" stop-color="#0347BF"/>
</linearGradient>
</defs>
</svg>
