<svg width="20" height="20" viewBox="0 0 20 20" fill="none" xmlns="http://www.w3.org/2000/svg">
<path d="M20 20H0V0H20V20ZM1 19H19V1H1V19ZM11.1191 12.9346H9.81445L9.40039 11.5752H7.31836L6.9043 12.9346H5.59961L7.61523 7.2002H9.0957L11.1191 12.9346ZM14.2988 7.91113L13.6035 8.23145V11.9268L14.2988 12.2471V12.9346H11.7012V12.2471L12.3965 11.9268V8.23145L11.7012 7.91113V7.22363H14.2988V7.91113ZM8.36133 8.08691C8.27536 8.42035 8.02923 9.24467 7.62305 10.5596H9.11133C8.72855 9.3279 8.51239 8.63126 8.46289 8.46973C8.41603 8.3083 8.38216 8.18066 8.36133 8.08691Z" fill="#5DA10C"/>
</svg>
