<svg width="190" height="48" viewBox="0 0 190 48" fill="none" xmlns="http://www.w3.org/2000/svg">
<g clip-path="url(#clip0_17650_3509)">
<path fill-rule="evenodd" clip-rule="evenodd" d="M35.8775 16.5953C35.8775 15.808 35.8775 14.4696 37.4022 14.4696C38.9268 14.4696 38.9247 15.808 38.9247 16.5953V28.0919C38.9247 28.703 38.9247 30.2134 37.4022 30.2134C35.8796 30.2134 35.8775 28.703 35.8775 28.0919V16.5953ZM30.5922 27.6257C30.5922 31.759 33.2052 34.183 37.4 34.183C41.5949 34.183 44.2058 31.759 44.2058 27.6257V17.0594C44.2058 12.518 41.3344 10.5 37.4 10.5C33.4657 10.5 30.5922 12.518 30.5922 17.0594V27.6257Z" fill="white"/>
<path d="M77.9678 29.0511C77.9678 31.2328 79.0858 34.183 84.0282 34.183C88.9705 34.183 90.0885 31.2328 90.0885 29.0511V25.3923H85.1462V29.4013C85.1462 30.0394 85.1462 30.9137 84.026 30.9137C82.9059 30.9137 82.9059 30.0394 82.9059 29.4013V19.9413C82.9059 19.3011 82.9059 18.4268 84.026 18.4268C85.1462 18.4268 85.1462 19.3011 85.1462 19.9413V22.5995H90.0885V20.2915C90.0885 18.1078 88.9662 15.1595 84.0282 15.1595C79.0901 15.1595 77.9678 18.1078 77.9678 20.2915V29.0511Z" fill="white"/>
<path d="M91.5179 30.6941C91.5179 33.605 93.159 33.953 95.285 33.953H96.4602V18.9696H97.6926V15.3584H96.4602V10.703H91.5179V15.3584H90.2812V18.9696H91.5179V30.6941Z" fill="white"/>
<path fill-rule="evenodd" clip-rule="evenodd" d="M98.3827 33.9696H103.325V15.3708H98.3827V33.9696ZM98.3827 14.1485H103.325V10.7155H98.3827V14.1505V14.1485Z" fill="white"/>
<path fill-rule="evenodd" clip-rule="evenodd" d="M107.005 33.9696H112.784L116.14 15.3708H111.202L109.968 27.2735H109.909L108.759 15.3708H103.675L107.005 33.9696Z" fill="white"/>
<path fill-rule="evenodd" clip-rule="evenodd" d="M64.8326 29.0511C64.8326 31.2328 65.9507 34.183 70.8909 34.183C75.8311 34.183 76.9555 31.2348 76.9555 29.0511V27.0725H72.0111V29.4013C72.0111 30.0394 72.0111 30.9137 70.8909 30.9137C69.7707 30.9137 69.7707 30.0394 69.7707 29.4013V25.413H76.9555V20.2915C76.9555 18.1078 75.8353 15.1595 70.8909 15.1595C65.9465 15.1595 64.8326 18.1078 64.8326 20.2915V29.0532V29.0511ZM69.7707 19.9392C69.7707 19.299 69.7707 18.4268 70.8909 18.4268C72.0111 18.4268 72.0111 19.299 72.0111 19.9392V21.9779H69.7707V19.9392Z" fill="white"/>
<path fill-rule="evenodd" clip-rule="evenodd" d="M115.967 29.0511C115.967 31.2328 117.085 34.183 122.027 34.183C126.97 34.183 128.09 31.2348 128.09 29.0511V27.0725H123.149V29.4013C123.149 30.0394 123.149 30.9137 122.029 30.9137C120.909 30.9137 120.909 30.0394 120.909 29.4013V25.413H128.092V20.2915C128.092 18.1078 126.972 15.1595 122.029 15.1595C117.087 15.1595 115.969 18.1078 115.969 20.2915V29.0532L115.967 29.0511ZM120.907 19.9392C120.907 19.299 120.907 18.4247 122.027 18.4247C123.147 18.4247 123.147 19.299 123.147 19.9392V21.9779H120.905V19.9392" fill="white"/>
<path fill-rule="evenodd" clip-rule="evenodd" d="M50.4335 29.3764C50.4335 30.0166 50.4335 30.8909 51.5537 30.8909C52.6739 30.8909 52.676 30.0166 52.676 29.3764V19.9164C52.676 19.2762 52.676 18.4019 51.5537 18.4019C50.4314 18.4019 50.4335 19.2742 50.4335 19.9164L50.4208 29.3764H50.4335ZM50.4208 33.6133V33.9572H45.4806V10.703H50.4208V15.6008C50.7808 15.346 51.5262 15.1326 51.9285 15.1326C56.5595 15.1326 57.6141 18.0829 57.6141 20.2645V29.0242C57.6141 31.2058 56.5955 34.1561 52.0704 34.1561C51.668 34.1561 50.7808 33.9758 50.4166 33.6112H50.4208" fill="white"/>
<path d="M58.7679 37.4834L59.9368 37.5C63.4138 37.5 63.7103 35.4199 63.7103 32.625V15.3708H58.7701V37.4834" fill="white"/>
<path d="M58.7679 10.7155H63.7103V14.1485H58.7679V10.7155Z" fill="white"/>
<path d="M142.69 28.846C142.69 28.1395 142.58 27.5407 142.364 27.0559C142.146 26.569 141.864 26.1754 141.519 25.875C141.174 25.5746 140.788 25.3529 140.363 25.212C139.935 25.0711 139.522 25.0007 139.124 25.0007H136.428V32.511H139.124C139.615 32.511 140.077 32.4406 140.513 32.2997C140.949 32.1588 141.33 31.9371 141.656 31.6367C141.983 31.3363 142.237 30.9551 142.419 30.4951C142.601 30.0352 142.692 29.4862 142.692 28.8501L142.69 28.846ZM142.146 20.136C142.146 19.5166 142.05 18.9965 141.86 18.5718C141.669 18.1471 141.415 17.8073 141.097 17.5504C140.78 17.2935 140.422 17.1132 140.022 17.0055C139.624 16.8998 139.215 16.846 138.798 16.846H136.43V23.5048H138.853C139.251 23.5048 139.647 23.4427 140.037 23.3183C140.426 23.194 140.776 22.9951 141.085 22.7217C141.394 22.4482 141.648 22.098 141.847 21.6733C142.046 21.2486 142.146 20.7369 142.146 20.134V20.136ZM144.568 28.9661C144.568 29.942 144.409 30.7603 144.092 31.4171C143.774 32.0739 143.37 32.6022 142.88 33.002C142.389 33.4019 141.851 33.6857 141.26 33.8536C140.67 34.0235 140.104 34.1063 139.56 34.1063H134.633V15.2486H139.001C139.547 15.2486 140.111 15.319 140.693 15.462C141.275 15.6049 141.807 15.8474 142.29 16.1933C142.772 16.5393 143.168 17.0096 143.478 17.6043C143.787 18.1989 143.941 18.9489 143.941 19.8543C143.941 20.4945 143.863 21.0497 143.706 21.52C143.552 21.9903 143.344 22.3985 143.088 22.7445C142.832 23.0904 142.537 23.3743 142.207 23.596C141.877 23.8177 141.538 23.9917 141.191 24.116V24.1699C141.536 24.2403 141.906 24.3833 142.307 24.5967C142.705 24.8101 143.073 25.1084 143.41 25.4896C143.744 25.8708 144.022 26.3515 144.24 26.9275C144.458 27.5034 144.568 28.183 144.568 28.9641V28.9661Z" fill="white"/>
<path d="M158.355 30.2569C158.165 31.1188 157.856 31.8688 157.43 32.5069C157.004 33.1471 156.437 33.6485 155.73 34.0111C155.022 34.3757 154.15 34.558 153.117 34.558C152.083 34.558 151.215 34.3757 150.516 34.0111C149.818 33.6485 149.254 33.145 148.829 32.5069C148.401 31.8667 148.098 31.1188 147.916 30.2569C147.734 29.395 147.643 28.4772 147.643 27.4993V15.2486H149.549V27.2611C149.549 27.953 149.599 28.6367 149.699 29.3122C149.798 29.9876 149.981 30.5863 150.243 31.1105C150.506 31.6347 150.87 32.0553 151.332 32.3764C151.793 32.6954 152.397 32.855 153.142 32.855C153.887 32.855 154.466 32.6954 154.938 32.3764C155.41 32.0573 155.778 31.6347 156.041 31.1105C156.304 30.5863 156.486 29.9917 156.585 29.3267C156.685 28.6595 156.736 27.9738 156.736 27.2631V15.2486H158.641V27.4993C158.641 28.4772 158.546 29.395 158.355 30.2569Z" fill="white"/>
<path d="M162.834 34.1064V15.2486H164.74V34.1064H162.834Z" fill="white"/>
<path d="M169.148 34.1064V15.2486H171.054V32.3743H176.553V34.1064H169.148Z" fill="white"/>
<path d="M188.122 24.7045C188.122 23.3681 187.99 22.2058 187.728 21.2176C187.465 20.2293 187.101 19.413 186.639 18.7728C186.176 18.1306 185.631 17.6499 185.007 17.3288C184.38 17.0076 183.704 16.8481 182.98 16.8481H180.748V32.509H182.98C183.704 32.509 184.382 32.3495 185.007 32.0284C185.634 31.7072 186.178 31.2266 186.639 30.5843C187.101 29.942 187.465 29.1319 187.728 28.152C187.99 27.172 188.122 26.0221 188.122 24.7045ZM190 24.7045C190 26.25 189.837 27.6071 189.511 28.7797C189.185 29.9524 188.712 30.9324 188.096 31.7238C187.48 32.5152 186.739 33.1098 185.877 33.5076C185.015 33.9075 184.058 34.1064 183.006 34.1064H178.868V15.2487H183.033C184.086 15.2487 185.043 15.4476 185.905 15.8474C186.766 16.2473 187.501 16.846 188.109 17.6458C188.717 18.4455 189.185 19.4358 189.511 20.6168C189.837 21.7977 190 23.1609 190 24.7045Z" fill="white"/>
<rect y="10.5127" width="24" height="24" rx="1" fill="white"/>
<path d="M23.2312 10.5127H0.768773C0.346578 10.5127 0 10.8593 0 11.2815V33.7439C0 34.1661 0.346578 34.5127 0.768773 34.5127H23.2312C23.6534 34.5127 24 34.1661 24 33.7439V11.2815C24 10.8593 23.6555 10.5127 23.2312 10.5127ZM8.97952 29.2951C8.97952 29.4085 8.8871 29.501 8.77367 29.501H5.19447C5.08104 29.501 4.98652 29.4085 4.98652 29.293V25.5962C4.98652 25.5416 5.00753 25.4891 5.04744 25.4492L6.83704 23.6995C6.91896 23.6175 7.04919 23.6196 7.129 23.6995L8.91861 25.4492C8.95642 25.487 8.97952 25.5416 8.97952 25.5962V29.293V29.2951ZM14.0123 29.3077C14.0123 29.4212 13.9198 29.5136 13.8064 29.5157H10.2272C10.1138 29.5157 10.0214 29.4233 10.0214 29.3077V22.3762C10.0214 22.3216 10.0424 22.269 10.0823 22.2291L11.8719 20.4794C11.9538 20.3975 12.084 20.3996 12.1638 20.4794L13.9534 22.2291C13.9933 22.2669 14.0144 22.3216 14.0144 22.3762V29.3077H14.0123ZM19.0114 29.3077C19.0114 29.4127 18.9253 29.4989 18.8202 29.4989H15.2326C15.1276 29.4989 15.0415 29.4127 15.0415 29.3077V15.7639C15.0415 15.6589 15.1276 15.5727 15.2326 15.5727H18.8202C18.9253 15.5727 19.0114 15.6589 19.0114 15.7639V29.3077Z" fill="url(#paint0_linear_17650_3509)"/>
</g>
<defs>
<linearGradient id="paint0_linear_17650_3509" x1="20.0553" y1="36.464" x2="3.94469" y2="8.56136" gradientUnits="userSpaceOnUse">
<stop stop-color="#77BC4A"/>
<stop offset="0.5" stop-color="#5DA10C"/>
<stop offset="0.76" stop-color="#549809"/>
<stop offset="1" stop-color="#488C07"/>
</linearGradient>
<clipPath id="clip0_17650_3509">
<rect width="190" height="27" fill="white" transform="translate(0 10.5)"/>
</clipPath>
</defs>
</svg>
