<svg width="216" height="48" viewBox="0 0 216 48" fill="none" xmlns="http://www.w3.org/2000/svg">
<g clip-path="url(#clip0_17650_3516)">
<rect x="0.905029" y="10.5023" width="24" height="24" rx="1" fill="white"/>
<path d="M24.1363 10.5023H1.6738C1.25161 10.5023 0.905029 10.8489 0.905029 11.2711V33.7335C0.905029 34.1557 1.25161 34.5023 1.6738 34.5023H24.1363C24.5585 34.5023 24.905 34.1557 24.905 33.7335V11.2711C24.905 10.8489 24.5606 10.5023 24.1363 10.5023ZM16.4842 16.1988L13.6024 19.0785C13.3713 19.0239 13.1319 18.9945 12.8861 18.9945C12.6404 18.9945 12.3988 19.0239 12.1699 19.0785L9.28802 16.1988H16.4842ZM6.01758 16.495L6.89348 15.6191C7.02371 15.4888 7.23585 15.4888 7.36608 15.6191L11.1784 19.4314C10.6008 19.7276 10.1282 20.2023 9.83204 20.7799L6.01968 16.9676C5.88945 16.8373 5.88945 16.6252 6.01968 16.495H6.01758ZM9.47076 23.2018L6.59101 26.0836V18.8874L9.47076 21.7693C9.41614 22.0003 9.38674 22.2398 9.38674 22.4855C9.38674 22.7313 9.41614 22.9728 9.47076 23.2018ZM6.88297 29.3499L6.00708 28.474C5.87685 28.3437 5.87685 28.1316 6.00708 28.0014L9.82154 24.1869C10.1177 24.7645 10.5924 25.2371 11.17 25.5333L7.35348 29.3499C7.22325 29.4801 7.0111 29.4801 6.88087 29.3499H6.88297ZM9.27961 28.7974L12.1615 25.9177C12.3925 25.9723 12.632 26.0017 12.8777 26.0017C13.1235 26.0017 13.365 25.9723 13.594 25.9177L16.4758 28.7974H9.27961ZM19.7484 28.4761L18.8725 29.352C18.7422 29.4822 18.5301 29.4822 18.3999 29.352L14.5833 25.5354C15.163 25.2392 15.6356 24.7666 15.9318 24.189L19.7463 28.0035C19.8765 28.1337 19.8765 28.3458 19.7463 28.4761H19.7484ZM16.3036 21.7693L19.1833 18.8874V26.0836L16.3036 23.2018C16.3582 22.9707 16.3876 22.7313 16.3876 22.4855C16.3876 22.2398 16.3582 21.9982 16.3036 21.7693ZM19.7484 16.976L15.936 20.7883C15.6398 20.2086 15.1672 19.736 14.5896 19.4398L18.402 15.6275C18.5322 15.4972 18.7443 15.4972 18.8746 15.6275L19.7505 16.5034C19.8807 16.6336 19.8807 16.8457 19.7505 16.976H19.7484Z" fill="url(#paint0_linear_17650_3516)"/>
<path d="M76.071 29.0598C76.071 31.2381 77.1633 34.1838 81.9914 34.1838C86.8195 34.1838 87.9118 31.2381 87.9118 29.0598V25.4066H83.0836V29.4094C83.0836 30.0465 83.0836 30.9195 81.9893 30.9195C80.895 30.9195 80.895 30.0465 80.895 29.4094V19.9641C80.895 19.3249 80.895 18.452 81.9893 18.452C83.0836 18.452 83.0836 19.3249 83.0836 19.9641V22.6182H87.9118V20.3137C87.9118 18.1334 86.8154 15.1898 81.9914 15.1898C77.1674 15.1898 76.071 18.1334 76.071 20.3137V29.0598Z" fill="white"/>
<path d="M89.3082 30.7002C89.3082 33.6066 90.9113 33.9541 92.9882 33.9541H94.1363V18.994H95.3402V15.3884H94.1363V10.7402H89.3082V15.3884H88.1001V18.994H89.3082V30.7002Z" fill="white"/>
<path fill-rule="evenodd" clip-rule="evenodd" d="M96.0166 33.9707H100.845V15.4008H96.0166V33.9707ZM96.0166 14.1824H100.845V10.7526H96.0166V14.1824Z" fill="white"/>
<path fill-rule="evenodd" clip-rule="evenodd" d="M104.44 33.9707H110.083L113.364 15.4029H108.538L107.332 27.287H107.274L106.153 15.4029H101.184L104.44 33.9707Z" fill="white"/>
<path fill-rule="evenodd" clip-rule="evenodd" d="M63.2394 29.0598C63.2394 31.2381 64.3316 34.1838 69.1577 34.1838C73.9837 34.1838 75.0822 31.2401 75.0822 29.0598V27.0843H70.252V29.4094C70.252 30.0465 70.252 30.9195 69.1577 30.9195C68.0634 30.9195 68.0634 30.0465 68.0634 29.4094V25.4273H75.0822V20.3137C75.0822 18.1334 73.9879 15.1898 69.1577 15.1898C64.3275 15.1898 63.2394 18.1334 63.2394 20.3137V29.0619V29.0598ZM68.0654 19.9641C68.0654 19.3249 68.0654 18.4541 69.1597 18.4541C70.254 18.4541 70.254 19.3249 70.254 19.9641V21.9996H68.0654V19.9641Z" fill="white"/>
<path fill-rule="evenodd" clip-rule="evenodd" d="M113.192 29.0598C113.192 31.2381 114.284 34.1838 119.113 34.1838C123.941 34.1838 125.035 31.2401 125.035 29.0598V27.0843H120.209V29.4094C120.209 30.0465 120.209 30.9195 119.115 30.9195C118.02 30.9195 118.02 30.0465 118.02 29.4094V25.4273H125.037V20.3137C125.037 18.1334 123.943 15.1898 119.115 15.1898C114.287 15.1898 113.194 18.1334 113.194 20.3137V29.0619L113.192 29.0598ZM118.02 19.9641C118.02 19.3249 118.02 18.452 119.115 18.452C120.209 18.452 120.209 19.3249 120.209 19.9641V21.9996H118.018V19.9641" fill="white"/>
<path fill-rule="evenodd" clip-rule="evenodd" d="M34.9533 16.6233C34.9533 15.8373 34.9533 14.5009 36.4427 14.5009C37.9321 14.5009 37.93 15.8373 37.93 16.6233V28.102C37.93 28.7123 37.93 30.2203 36.4427 30.2203C34.9554 30.2203 34.9533 28.7123 34.9533 28.102V16.6233ZM29.79 27.6366C29.79 31.7635 32.3427 34.1837 36.4406 34.1837C40.5385 34.1837 43.0891 31.7635 43.0891 27.6366V17.0867C43.0912 12.5544 40.2862 10.5375 36.4427 10.5375C32.5992 10.5375 29.7921 12.5523 29.7921 17.0867V27.6366" fill="white"/>
<path fill-rule="evenodd" clip-rule="evenodd" d="M49.175 29.3846C49.175 30.0238 49.175 30.8967 50.2693 30.8967C51.3636 30.8967 51.3657 30.0238 51.3657 29.3846V19.9393C51.3657 19.3001 51.3657 18.4272 50.2693 18.4272C49.173 18.4272 49.175 19.298 49.175 19.9393L49.1626 29.3846H49.175ZM49.1626 33.6149V33.9583H44.3365V10.7402H49.1626V15.6304C49.5143 15.376 50.2424 15.1629 50.6355 15.1629C55.1595 15.1629 56.1897 18.1086 56.1897 20.2868V29.0329C56.1897 31.2112 55.1947 34.1569 50.7741 34.1569C50.381 34.1569 49.5143 33.9769 49.1585 33.6128H49.1626" fill="white"/>
<path d="M57.317 37.479L58.4589 37.4956C61.8555 37.4956 62.1452 35.4187 62.1452 32.6282V15.4008H57.3191V37.479" fill="white"/>
<path d="M57.317 10.7526H62.1431V14.1824H57.317V10.7526Z" fill="white"/>
<path d="M139.941 33.4245C139.213 33.8465 138.394 34.0596 137.48 34.0596C136.499 34.0596 135.628 33.8176 134.867 33.3356C134.106 32.8536 133.462 32.1937 132.939 31.3559C132.414 30.5181 132.012 29.5252 131.733 28.3751C131.454 27.2249 131.313 25.9817 131.313 24.6454C131.313 23.309 131.454 22.041 131.733 20.8908C132.012 19.7407 132.418 18.7457 132.951 17.91C133.483 17.0722 134.131 16.4164 134.892 15.9427C135.653 15.469 136.516 15.2332 137.48 15.2332C138.326 15.2332 139.116 15.4111 139.852 15.7648C140.589 16.1206 141.201 16.6791 141.691 17.4404L140.549 18.6071C140.161 18.0155 139.708 17.5748 139.192 17.2873C138.677 16.9998 138.131 16.857 137.556 16.857C136.811 16.857 136.164 17.0598 135.616 17.4652C135.066 17.8707 134.608 18.4292 134.246 19.1408C133.882 19.8503 133.611 20.6798 133.433 21.6273C133.256 22.5747 133.167 23.5821 133.167 24.6474C133.167 25.7128 133.26 26.716 133.446 27.6552C133.632 28.5943 133.907 29.4197 134.271 30.1292C134.635 30.8388 135.09 31.4014 135.641 31.8172C136.191 32.233 136.838 32.4399 137.581 32.4399C138.224 32.4399 138.808 32.2578 139.331 31.8938C139.854 31.5297 140.287 31.0518 140.624 30.4602L141.741 31.6021C141.267 32.3985 140.667 33.0067 139.939 33.4287" fill="white"/>
<path d="M154.48 24.5337C154.5 25.9383 154.382 27.2208 154.13 28.3834C153.876 29.5459 153.501 30.5451 153.007 31.3808C152.51 32.2165 151.902 32.8681 151.182 33.3356C150.46 33.8031 149.635 34.0431 148.706 34.0576C147.777 34.07 146.94 33.8548 146.197 33.408C145.454 32.9612 144.819 32.3282 144.292 31.507C143.764 30.6857 143.355 29.6969 143.069 28.5427C142.782 27.3884 142.626 26.1079 142.608 24.7054C142.587 23.3194 142.701 22.0452 142.947 20.8805C143.191 19.718 143.561 18.723 144.058 17.8955C144.554 17.0681 145.167 16.4206 145.895 15.9531C146.625 15.4856 147.471 15.2456 148.435 15.2312C149.364 15.2187 150.198 15.4339 150.932 15.8807C151.666 16.3275 152.291 16.9564 152.812 17.7693C153.332 18.5823 153.735 19.567 154.022 20.7212C154.31 21.8755 154.465 23.1477 154.484 24.5337M152.628 24.5606C152.612 23.4787 152.512 22.4651 152.33 21.5197C152.148 20.5744 151.877 19.7593 151.521 19.0705C151.164 18.3817 150.729 17.8376 150.216 17.4404C149.703 17.0412 149.116 16.8467 148.456 16.8571C147.763 16.8674 147.161 17.0784 146.652 17.4921C146.141 17.9059 145.723 18.4623 145.394 19.1594C145.065 19.8586 144.823 20.6819 144.668 21.6314C144.513 22.5809 144.443 23.5966 144.459 24.6806C144.476 25.7645 144.575 26.7761 144.757 27.7214C144.939 28.6668 145.206 29.4921 145.556 30.1975C145.903 30.9029 146.34 31.4553 146.861 31.8545C147.382 32.2537 147.99 32.4461 148.683 32.4378C149.36 32.4275 149.949 32.2165 150.45 31.8028C150.953 31.3891 151.366 30.8243 151.695 30.1107C152.022 29.3949 152.266 28.5633 152.421 27.6139C152.576 26.6644 152.647 25.6487 152.63 24.5647" fill="white"/>
<path d="M165.425 34.1362L158.907 18.4086H158.826V34.1362H157.08V15.2312H159.382L165.868 30.9588H165.946V15.2312H167.64V34.1362H165.425Z" fill="white"/>
<path d="M179.214 34.1362L172.696 18.4086H172.617V34.1362H170.869V15.2312H173.172L179.657 30.9588H179.737V15.2312H181.432V34.1362H179.214Z" fill="white"/>
<path d="M184.659 34.1362V15.2312H192.203V16.8881H186.46V23.5097H191.833V25.1108H186.46V32.4544H192.468V34.1362H184.659Z" fill="white"/>
<path d="M203.038 33.4246C202.31 33.8466 201.491 34.0596 200.576 34.0596C199.596 34.0596 198.723 33.8176 197.962 33.3356C197.2 32.8536 196.557 32.1937 196.034 31.356C195.508 30.5182 195.107 29.5252 194.828 28.3751C194.549 27.2249 194.408 25.9817 194.408 24.6454C194.408 23.3091 194.549 22.041 194.828 20.8909C195.107 19.7407 195.512 18.7457 196.046 17.91C196.578 17.0722 197.225 16.4165 197.987 15.9427C198.748 15.469 199.61 15.2332 200.574 15.2332C201.42 15.2332 202.211 15.4111 202.947 15.7648C203.683 16.1206 204.296 16.6792 204.786 17.4404L203.644 18.6071C203.255 18.0155 202.802 17.5749 202.287 17.2873C201.772 16.9998 201.226 16.8571 200.651 16.8571C199.906 16.8571 199.259 17.0598 198.711 17.4652C198.16 17.8707 197.703 18.4292 197.341 19.1408C196.977 19.8503 196.706 20.6799 196.53 21.6273C196.352 22.5747 196.263 23.5821 196.263 24.6475C196.263 25.7128 196.356 26.7161 196.543 27.6552C196.729 28.5944 197.004 29.4197 197.368 30.1293C197.732 30.8388 198.187 31.4015 198.737 31.8173C199.288 32.233 199.935 32.4399 200.678 32.4399C201.321 32.4399 201.904 32.2579 202.43 31.8938C202.953 31.5297 203.386 31.0519 203.723 30.4602L204.84 31.6021C204.366 32.3985 203.766 33.0067 203.038 33.4287" fill="white"/>
<path d="M212.279 16.8343V34.1362H210.454V16.8343H206.853V15.2312H215.905V16.8343H212.279Z" fill="white"/>
</g>
<defs>
<linearGradient id="paint0_linear_17650_3516" x1="20.9603" y1="36.4537" x2="4.84972" y2="8.55098" gradientUnits="userSpaceOnUse">
<stop stop-color="#54A0E4"/>
<stop offset="0.49" stop-color="#0B77D8"/>
<stop offset="1" stop-color="#0347BF"/>
</linearGradient>
<clipPath id="clip0_17650_3516">
<rect width="216" height="26.9953" fill="white" transform="translate(0 10.5023)"/>
</clipPath>
</defs>
</svg>
