<svg width="138" height="138" viewBox="0 0 138 138" fill="none" xmlns="http://www.w3.org/2000/svg">
<path d="M46.5 69C58.9264 69 69 79.0736 69 91.5C69 103.926 58.9264 114 46.5 114C34.0736 114 24 103.926 24 91.5C24 79.0736 34.0736 69 46.5 69ZM91.5 69C103.926 69 114 79.0736 114 91.5C114 103.926 103.926 114 91.5 114C79.0736 114 69 103.926 69 91.5C69 79.0736 79.0736 69 91.5 69ZM46.5 24C58.9264 24 69 34.0736 69 46.5C69 58.9264 58.9264 69 46.5 69C34.0736 69 24 58.9264 24 46.5C24 34.0736 34.0736 24 46.5 24ZM91.5 24C103.926 24 114 34.0736 114 46.5C114 58.9264 103.926 69 91.5 69C79.0736 69 69 58.9264 69 46.5C69 34.0736 79.0736 24 91.5 24Z" fill="url(#paint0_linear_2857_6928)"/>
<defs>
<linearGradient id="paint0_linear_2857_6928" x1="99.2074" y1="121.318" x2="38.7925" y2="16.6825" gradientUnits="userSpaceOnUse">
<stop stop-color="#54A0E4"/>
<stop offset="0.49" stop-color="#0B77D8"/>
<stop offset="1" stop-color="#0347BF"/>
</linearGradient>
</defs>
</svg>
