<svg width="24" height="24" viewBox="0 0 24 24" fill="none" xmlns="http://www.w3.org/2000/svg">
<path d="M23.2312 0H0.768773C0.346578 0 0 0.346578 0 0.768773V23.2312C0 23.6534 0.346578 24 0.768773 24H23.2312C23.6534 24 24 23.6534 24 23.2312V0.768773C24 0.346578 23.6555 0 23.2312 0ZM8.30737 15.9678L6.44845 15.972C6.35813 15.972 6.25941 15.9027 6.23 15.8166L3.48468 8.37248C3.45528 8.28636 3.50569 8.21705 3.59601 8.21705L6.70891 8.21285C6.79923 8.21285 6.88955 8.28426 6.90845 8.37248L8.4376 15.8082C8.4565 15.8964 8.39769 15.9699 8.30737 15.9699V15.9678ZM13.8946 17.938H10.0235C9.93314 17.938 9.84281 17.8666 9.82391 17.7763L7.33905 6.25101C7.32015 6.16279 7.37896 6.08927 7.46928 6.08927H16.4131C16.5034 6.08927 16.5622 6.16279 16.5433 6.25101L14.0942 17.7763C14.0753 17.8645 13.9849 17.938 13.8946 17.938ZM20.404 8.36618L18.2594 15.8082C18.23 15.8943 18.1334 15.9636 18.0431 15.9636L15.3923 15.9699C15.3019 15.9699 15.2431 15.8985 15.262 15.8103L16.9823 8.37879C17.0012 8.29057 17.0915 8.21705 17.1819 8.21705L20.2948 8.21075C20.3851 8.21075 20.4355 8.28006 20.4061 8.36618H20.404Z" fill="url(#paint0_linear_18957_49700)"/>
<defs>
<linearGradient id="paint0_linear_18957_49700" x1="20.0553" y1="25.9513" x2="3.94469" y2="-1.95134" gradientUnits="userSpaceOnUse">
<stop stop-color="#00BBB7"/>
<stop offset="0.5" stop-color="#00ABA7"/>
<stop offset="0.73" stop-color="#00A29E"/>
<stop offset="1" stop-color="#00928F"/>
</linearGradient>
</defs>
</svg>
