<svg width="162" height="55" viewBox="0 0 162 55" fill="none" xmlns="http://www.w3.org/2000/svg">
<rect y="42.2765" width="161.963" height="12.0998" fill="#0B77D8"/>
<path fill-rule="evenodd" clip-rule="evenodd" d="M78.7191 31.4494C78.7191 35.1497 80.5783 40.1511 88.7898 40.1511C96.9953 40.1511 98.8606 35.1497 98.8606 31.4494V25.2455H90.6502V32.0418C90.6502 33.1245 90.6502 34.6066 88.7898 34.6066C86.927 34.6066 86.927 33.1245 86.927 32.0418V16.0031C86.927 14.9179 86.927 13.4371 88.7898 13.4371C90.6502 13.4371 90.6502 14.9179 90.6502 16.0031V20.5104H98.8606V16.5966C98.8606 12.8939 96.9953 7.89499 88.7898 7.89499C80.5783 7.89499 78.7191 12.8939 78.7191 16.5966V31.4494Z" fill="white"/>
<path fill-rule="evenodd" clip-rule="evenodd" d="M101.234 34.2363C101.234 39.1716 103.959 39.7592 107.491 39.7592H109.444V14.3582H111.493V8.23573H109.444V0.342285H101.234V8.23573H99.1776V14.3582H101.234V34.2363Z" fill="white"/>
<path fill-rule="evenodd" clip-rule="evenodd" d="M112.641 39.788H120.851V8.25734H112.641V39.788ZM112.641 6.18564H120.851V0.362976H112.641V6.18564Z" fill="white"/>
<path fill-rule="evenodd" clip-rule="evenodd" d="M126.968 39.7877H136.568L142.147 8.25824H133.939L131.888 28.4373H131.789L129.882 8.25824H121.431L126.968 39.7877Z" fill="white"/>
<path fill-rule="evenodd" clip-rule="evenodd" d="M56.8948 31.4493C56.8948 35.1496 58.7541 40.1497 66.962 40.1497C75.1783 40.1497 77.0375 35.1496 77.0375 31.4493V28.0931H68.8248V32.0429C68.8248 33.1244 68.8248 34.6077 66.962 34.6077C65.1016 34.6077 65.1016 33.1244 65.1016 32.0429V25.2789H77.0375V16.5953C77.0375 12.8938 75.1783 7.89368 66.962 7.89368C58.7541 7.89368 56.8948 12.8938 56.8948 16.5953V31.4493ZM65.1018 16.0027C65.1018 14.9175 65.1018 13.4379 66.9622 13.4379C68.825 13.4379 68.825 14.9175 68.825 16.0027V19.4584H65.1018V16.0027Z" fill="white"/>
<path fill-rule="evenodd" clip-rule="evenodd" d="M141.857 31.4493C141.857 35.1496 143.715 40.1497 151.928 40.1497C160.139 40.1497 162 35.1496 162 31.4493V28.0931H153.791V32.0429C153.791 33.1244 153.791 34.6077 151.928 34.6077C150.066 34.6077 150.066 33.1244 150.066 32.0429V25.2789H162V16.5953C162 12.8938 160.139 7.89368 151.928 7.89368C143.715 7.89368 141.857 12.8938 141.857 16.5953V31.4493ZM150.066 16.0027C150.066 14.9175 150.066 13.4379 151.928 13.4379C153.791 13.4379 153.791 14.9175 153.791 16.0027V19.4584H150.066V16.0027Z" fill="white"/>
<path fill-rule="evenodd" clip-rule="evenodd" d="M8.78518 10.3322C8.78518 8.99766 8.78518 6.72783 11.317 6.72783C13.8452 6.72783 13.8452 8.99766 13.8452 10.3322V29.8218C13.8452 30.8578 13.8452 33.4202 11.317 33.4202C8.78518 33.4202 8.78518 30.8578 8.78518 29.8218V10.3322ZM0.00482178 29.033C0.00482178 36.0379 4.34659 40.1495 11.3174 40.1495C18.2871 40.1495 22.6253 36.0379 22.6253 29.033V11.1189C22.6253 3.42093 17.8571 0 11.3174 0C4.77537 0 0.00482178 3.42093 0.00482178 11.1189V29.033Z" fill="white"/>
<path fill-rule="evenodd" clip-rule="evenodd" d="M32.9714 32.0006C32.9714 33.0858 32.9714 34.5678 34.8354 34.5678C36.6982 34.5678 36.6982 33.0858 36.6982 32.0006V15.9643C36.6982 14.878 36.6982 13.3971 34.8354 13.3971C32.9714 13.3971 32.9714 14.878 32.9714 15.9643L32.951 32.0006H32.9714ZM32.9512 39.1844V39.7672H24.7445V0.343109H32.9512L32.9488 8.64664C33.5482 8.21737 34.7876 7.85406 35.4578 7.85406C43.1541 7.85406 44.904 12.8566 44.904 16.5557V31.4085C44.904 35.1076 43.2105 40.1089 35.6932 40.1089C35.0242 40.1089 33.5482 39.802 32.9452 39.1844H32.9512Z" fill="white"/>
<path fill-rule="evenodd" clip-rule="evenodd" d="M46.8208 45.7466L48.7617 45.7754C54.5387 45.7754 55.0299 42.2477 55.0299 37.5102V8.25659H46.8208V45.7466Z" fill="white"/>
<path fill-rule="evenodd" clip-rule="evenodd" d="M46.8203 6.18564H55.0306V0.362976H46.8203V6.18564Z" fill="white"/>
</svg>
