<svg width="240" height="48" viewBox="0 0 240 48" fill="none" xmlns="http://www.w3.org/2000/svg">
<g clip-path="url(#clip0_17663_2671)">
<path fill-rule="evenodd" clip-rule="evenodd" d="M35.2446 16.5953C35.2446 15.808 35.2446 14.4696 36.7424 14.4696C38.2401 14.4696 38.238 15.808 38.238 16.5953V28.0919C38.238 28.703 38.238 30.2134 36.7424 30.2134C35.2467 30.2134 35.2446 28.703 35.2446 28.0919V16.5953ZM30.0525 27.6257C30.0525 31.759 32.6194 34.183 36.7403 34.183C40.8612 34.183 43.426 31.759 43.426 27.6257V17.0594C43.426 12.518 40.6053 10.5 36.7403 10.5C32.8753 10.5 30.0525 12.518 30.0525 17.0594V27.6257Z" fill="white"/>
<path d="M76.5927 29.0511C76.5927 31.2327 77.691 34.183 82.5462 34.183C87.4013 34.183 88.4997 31.2327 88.4997 29.0511V25.3923H83.6445V29.4013C83.6445 30.0394 83.6445 30.9137 82.5441 30.9137C81.4437 30.9137 81.4437 30.0394 81.4437 29.4013V19.9413C81.4437 19.3011 81.4437 18.4268 82.5441 18.4268C83.6445 18.4268 83.6445 19.3011 83.6445 19.9413V22.5995H88.4997V20.2915C88.4997 18.1077 87.3972 15.1595 82.5462 15.1595C77.6952 15.1595 76.5927 18.1077 76.5927 20.2915V29.0511Z" fill="white"/>
<path d="M89.9038 30.694C89.9038 33.6049 91.5159 33.953 93.6045 33.953H94.759V18.9696H95.9696V15.3584H94.759V10.703H89.9038V15.3584H88.689V18.9696H89.9038V30.694Z" fill="white"/>
<path fill-rule="evenodd" clip-rule="evenodd" d="M96.6478 33.9696H101.503V15.3708H96.6478V33.9696ZM96.6478 14.1485H101.503V10.7155H96.6478V14.1505V14.1485Z" fill="white"/>
<path fill-rule="evenodd" clip-rule="evenodd" d="M105.118 33.9696H110.795L114.092 15.3708H109.241L108.026 27.2735H107.97L106.841 15.3708H101.846L105.118 33.9696Z" fill="white"/>
<path fill-rule="evenodd" clip-rule="evenodd" d="M63.6892 29.0511C63.6892 31.2327 64.7875 34.183 69.6406 34.183C74.4937 34.183 75.5983 31.2348 75.5983 29.0511V27.0725H70.7411V29.4013C70.7411 30.0394 70.7411 30.9137 69.6406 30.9137C68.5402 30.9137 68.5402 30.0394 68.5402 29.4013V25.413H75.5983V20.2915C75.5983 18.1077 74.4979 15.1595 69.6406 15.1595C64.7834 15.1595 63.6892 18.1077 63.6892 20.2915V29.0532V29.0511ZM68.5402 19.9392C68.5402 19.299 68.5402 18.4268 69.6406 18.4268C70.7411 18.4268 70.7411 19.299 70.7411 19.9392V21.9779H68.5402V19.9392Z" fill="white"/>
<path fill-rule="evenodd" clip-rule="evenodd" d="M113.922 29.0511C113.922 31.2327 115.02 34.183 119.875 34.183C124.73 34.183 125.831 31.2348 125.831 29.0511V27.0725H120.978V29.4013C120.978 30.0394 120.978 30.9137 119.877 30.9137C118.777 30.9137 118.777 30.0394 118.777 29.4013V25.413H125.833V20.2915C125.833 18.1077 124.732 15.1595 119.877 15.1595C115.022 15.1595 113.924 18.1077 113.924 20.2915V29.0532L113.922 29.0511ZM118.775 19.9392C118.775 19.299 118.775 18.4247 119.875 18.4247C120.976 18.4247 120.976 19.299 120.976 19.9392V21.9779H118.773V19.9392" fill="white"/>
<path fill-rule="evenodd" clip-rule="evenodd" d="M49.5439 29.3763C49.5439 30.0165 49.5439 30.8908 50.6443 30.8908C51.7448 30.8908 51.7468 30.0165 51.7468 29.3763V19.9164C51.7468 19.2762 51.7468 18.4019 50.6443 18.4019C49.5418 18.4019 49.5439 19.2741 49.5439 19.9164L49.5314 29.3763H49.5439ZM49.5314 33.6132V33.9571H44.6783V10.703H49.5314V15.6008C49.8851 15.346 50.6173 15.1326 51.0125 15.1326C55.5619 15.1326 56.5978 18.0828 56.5978 20.2645V29.0241C56.5978 31.2058 55.5973 34.156 51.1519 34.156C50.7567 34.156 49.8851 33.9758 49.5273 33.6111H49.5314" fill="white"/>
<path d="M57.7316 37.4834L58.8798 37.5C62.2955 37.5 62.5867 35.4199 62.5867 32.625V15.3708H57.7336V37.4834" fill="white"/>
<path d="M57.7316 10.7155H62.5867V14.1485H57.7316V10.7155Z" fill="white"/>
<path d="M139.822 20.3577C139.822 19.6822 139.726 19.1146 139.537 18.6629C139.348 18.2092 139.094 17.8487 138.78 17.5814C138.464 17.3142 138.104 17.1277 137.698 17.022C137.293 16.9164 136.875 16.8625 136.442 16.8625H134.01L134.018 23.973L136.531 23.9688C137.557 23.9688 138.364 23.6498 138.948 23.0179C139.533 22.386 139.824 21.4972 139.822 20.3577ZM139.947 34.2389L136.479 25.4461H134.02L134.031 34.2472H132.167L132.146 15.2589L136.739 15.2548C137.37 15.2548 137.977 15.3397 138.564 15.5075C139.148 15.6774 139.672 15.9592 140.132 16.3508C140.592 16.7444 140.962 17.2624 141.241 17.9046C141.522 18.549 141.661 19.3363 141.663 20.2644C141.663 21.0704 141.561 21.7624 141.355 22.3425C141.149 22.9246 140.879 23.4115 140.546 23.8052C140.213 24.1988 139.845 24.5034 139.439 24.7188C139.036 24.9322 138.634 25.069 138.237 25.1229L141.975 34.2389H139.949H139.947Z" fill="white"/>
<path d="M145.027 34.2347L145.004 15.2444L152.703 15.2361L152.705 16.8977L146.843 16.9039L146.849 23.5565L152.334 23.5503V25.1601L146.853 25.1663L146.861 32.542L152.994 32.5358V34.2243L145.027 34.2347Z" fill="white"/>
<path d="M164.893 34.1457C164.146 34.4233 163.268 34.5621 162.259 34.5642C161.196 34.5642 160.241 34.3342 159.395 33.8702C158.548 33.4061 157.835 32.7452 157.258 31.8874C156.68 31.0297 156.237 29.9938 155.931 28.7776C155.623 27.5615 155.469 26.2023 155.467 24.7023C155.467 23.2894 155.613 21.9737 155.908 20.7576C156.206 19.5414 156.63 18.491 157.19 17.6043C157.747 16.7175 158.429 16.0255 159.241 15.5242C160.05 15.0228 160.967 14.7721 161.995 14.77C162.931 14.77 163.786 14.9565 164.562 15.3294C165.336 15.7044 165.985 16.2928 166.509 17.0967L165.294 18.3315C164.878 17.7058 164.395 17.2376 163.848 16.9247C163.297 16.6119 162.706 16.4565 162.078 16.4565C161.286 16.4565 160.601 16.6782 160.027 17.1174C159.451 17.5566 158.97 18.1512 158.583 18.9033C158.196 19.6554 157.909 20.5255 157.722 21.52C157.535 22.5124 157.441 23.5732 157.441 24.7003C157.441 25.8812 157.543 26.971 157.743 27.9717C157.941 28.9724 158.244 29.8363 158.65 30.5594C159.056 31.2824 159.561 31.8501 160.164 32.2603C160.77 32.6706 161.467 32.8757 162.259 32.8757C162.835 32.8757 163.353 32.8032 163.813 32.6602C164.273 32.5173 164.653 32.3101 164.961 32.0428L164.955 25.6057L162.226 25.6098V24L166.79 23.9938L166.8 33.0373C166.278 33.5014 165.644 33.8722 164.897 34.1499L164.893 34.1457Z" fill="white"/>
<path d="M184.059 34.1912L181.574 34.1933L178.422 17.9419H178.368L175.279 34.2016L172.795 34.2037L169.018 15.2175L170.936 15.2154L174.089 31.8149H174.143L177.311 15.2071L179.581 15.2051L182.843 31.8045H182.895L185.982 15.1968H187.82L184.059 34.1912Z" fill="white"/>
<path d="M200.283 24.6507C200.283 23.505 200.191 22.4339 200.008 21.4311C199.827 20.4304 199.553 19.5644 199.183 18.831C198.812 18.0975 198.357 17.5174 197.816 17.0886C197.275 16.6597 196.653 16.4463 195.952 16.4463C195.214 16.4463 194.571 16.6618 194.022 17.0927C193.472 17.5237 193.019 18.1038 192.659 18.8372C192.299 19.5706 192.031 20.4387 191.852 21.4394C191.673 22.4422 191.586 23.5133 191.586 24.659C191.588 25.8027 191.679 26.8759 191.86 27.8766C192.041 28.8793 192.312 29.7536 192.674 30.5036C193.036 31.2536 193.489 31.8441 194.038 32.273C194.587 32.7018 195.23 32.9152 195.971 32.9152C196.69 32.9152 197.323 32.6998 197.862 32.2688C198.402 31.8379 198.852 31.2474 199.21 30.4953C199.569 29.7453 199.838 28.869 200.017 27.8662C200.196 26.8655 200.285 25.7923 200.283 24.6487V24.6507ZM202.257 24.6487C202.257 26.1321 202.116 27.4871 201.829 28.7115C201.541 29.938 201.13 30.9884 200.589 31.8648C200.05 32.7433 199.393 33.4228 198.619 33.9056C197.845 34.3904 196.963 34.6328 195.973 34.6328C194.983 34.6328 194.094 34.3945 193.31 33.9118C192.526 33.429 191.858 32.7516 191.309 31.8752C190.758 31.0009 190.34 29.9484 190.048 28.726C189.759 27.5016 189.614 26.1466 189.612 24.6632C189.612 23.1963 189.747 21.8517 190.026 20.6252C190.304 19.4007 190.712 18.3545 191.251 17.4843C191.79 16.6162 192.451 15.9408 193.233 15.458C194.015 14.9732 194.92 14.7308 195.948 14.7308C196.938 14.7308 197.82 14.9691 198.596 15.4518C199.37 15.9346 200.027 16.6079 200.57 17.4739C201.111 18.34 201.527 19.3862 201.816 20.6107C202.105 21.8351 202.251 23.1818 202.253 24.6487H202.257Z" fill="white"/>
<path d="M213.49 20.2768C213.49 19.6014 213.394 19.0337 213.205 18.58C213.016 18.1263 212.762 17.7658 212.448 17.4985C212.132 17.2313 211.772 17.0448 211.366 16.9391C210.963 16.8335 210.542 16.7796 210.112 16.7796L207.68 16.7837L207.688 23.8922L210.201 23.888C211.227 23.888 212.034 23.571 212.618 22.9371C213.203 22.3052 213.494 21.4184 213.494 20.2768H213.49ZM213.613 34.1581L210.145 25.3632L207.686 25.3673L207.697 34.1643H205.833L205.81 15.176L210.403 15.1698C211.033 15.1698 211.643 15.2527 212.227 15.4226C212.812 15.5925 213.336 15.8742 213.796 16.2658C214.256 16.6594 214.624 17.1774 214.905 17.8217C215.185 18.464 215.325 19.2513 215.327 20.1815C215.327 20.9875 215.225 21.6795 215.019 22.2596C214.813 22.8418 214.543 23.3286 214.21 23.7244C213.877 24.118 213.509 24.4226 213.103 24.638C212.7 24.8535 212.298 24.9861 211.901 25.042L215.639 34.1581H213.613Z" fill="white"/>
<path d="M226.957 34.1435L220.571 24.4122H220.544L220.554 34.1497L218.69 34.1518L218.67 15.1615L220.534 15.1594L220.544 23.6891H220.571L226.558 15.1532L228.746 15.149L222.327 23.9294L229.227 34.1415L226.957 34.1435Z" fill="white"/>
<path d="M240 29.2728C240 30.1139 239.875 30.8598 239.625 31.5124C239.372 32.165 239.028 32.7203 238.587 33.1761C238.146 33.6319 237.629 33.982 237.036 34.2224C236.441 34.4648 235.81 34.5849 235.145 34.587C234.171 34.587 233.277 34.384 232.455 33.9737C231.635 33.5635 230.972 33.0186 230.469 32.3411L231.629 31.0255C232.043 31.616 232.567 32.0718 233.198 32.3929C233.828 32.7141 234.467 32.8757 235.116 32.8736C235.981 32.8736 236.705 32.569 237.289 31.9599C237.876 31.3508 238.167 30.4827 238.165 29.3577C238.165 28.8211 238.074 28.3467 237.893 27.9364C237.712 27.5262 237.468 27.1595 237.163 26.8363C236.857 26.5152 236.509 26.2293 236.12 25.9806C235.733 25.73 235.324 25.4979 234.889 25.2845C234.367 25.0338 233.872 24.7521 233.402 24.4413C232.934 24.1284 232.524 23.7679 232.172 23.3556C231.821 22.9454 231.536 22.4585 231.319 21.895C231.103 21.3315 230.993 20.6747 230.993 19.9226C230.993 19.0462 231.128 18.2817 231.396 17.6291C231.665 16.9765 232.031 16.4316 232.488 15.9903C232.948 15.5511 233.464 15.2258 234.04 15.0103C234.616 14.7949 235.22 14.6871 235.85 14.6871C236.715 14.6871 237.493 14.8322 238.186 15.1284C238.881 15.4226 239.461 15.8826 239.929 16.5083L238.768 17.8239C238.406 17.3059 237.984 16.9351 237.497 16.7134C237.009 16.4896 236.48 16.3777 235.902 16.3798C235.523 16.3798 235.149 16.4482 234.781 16.5829C234.413 16.7175 234.084 16.9288 233.795 17.2148C233.508 17.5007 233.273 17.8695 233.094 18.3149C232.915 18.7624 232.823 19.2907 232.825 19.8978C232.825 20.4344 232.909 20.8985 233.071 21.2921C233.233 21.6858 233.454 22.0359 233.734 22.3384C234.015 22.6429 234.34 22.9102 234.708 23.1422C235.078 23.3743 235.461 23.5898 235.858 23.7845C236.362 24.0331 236.863 24.319 237.358 24.6422C237.853 24.9634 238.3 25.3384 238.698 25.7672C239.095 26.1961 239.409 26.6954 239.644 27.2693C239.877 27.8411 239.996 28.5124 239.998 29.2811L240 29.2728Z" fill="white"/>
<rect y="10.5126" width="24" height="24" rx="1" fill="white"/>
<path d="M23.2312 10.5126H0.768773C0.346578 10.5126 0 10.8592 0 11.2813V33.7438C0 34.166 0.346578 34.5126 0.768773 34.5126H23.2312C23.6534 34.5126 24 34.166 24 33.7438V11.2813C24 10.8592 23.6555 10.5126 23.2312 10.5126ZM12.3655 21.811L13.5333 16.4065C13.5586 16.2889 13.6783 16.1923 13.798 16.1944L18.9862 16.2007C19.1059 16.2007 19.1731 16.2931 19.1332 16.4065L17.7364 21.8215C17.6965 21.9349 17.5684 22.0274 17.4465 22.0274L12.5356 22.0232C12.4159 22.0232 12.3382 21.9265 12.3634 21.8089L12.3655 21.811ZM11.6681 23.1574L10.5003 28.5619C10.4751 28.6796 10.3553 28.7762 10.2356 28.7741L5.04744 28.7678C4.92771 28.7678 4.86049 28.6754 4.9004 28.5619L6.29722 23.1448C6.33713 23.0314 6.46525 22.939 6.58708 22.939L11.498 22.9432C11.6177 22.9432 11.6954 23.0398 11.6702 23.1574H11.6681ZM11.4959 22.0253L6.58498 22.0295C6.46525 22.0295 6.33503 21.937 6.29512 21.8236L4.8983 16.4086C4.85839 16.2952 4.92561 16.2028 5.04534 16.2028L10.2335 16.1965C10.3532 16.1965 10.473 16.2931 10.4982 16.4086L11.666 21.8131C11.6912 21.9307 11.6135 22.0274 11.4938 22.0274L11.4959 22.0253ZM18.9883 28.7678L13.8001 28.7741C13.6804 28.7741 13.5607 28.6775 13.5354 28.5619L12.3676 23.1574C12.3424 23.0398 12.4201 22.9432 12.5398 22.9432L17.4507 22.939C17.5705 22.939 17.7007 23.0314 17.7406 23.1448L19.1374 28.5619C19.1773 28.6754 19.1101 28.7678 18.9904 28.7678H18.9883Z" fill="url(#paint0_linear_17663_2671)"/>
</g>
<defs>
<linearGradient id="paint0_linear_17663_2671" x1="20.0553" y1="36.4639" x2="3.94469" y2="8.56124" gradientUnits="userSpaceOnUse">
<stop stop-color="#00BBB7"/>
<stop offset="0.5" stop-color="#00ABA7"/>
<stop offset="0.73" stop-color="#00A29E"/>
<stop offset="1" stop-color="#00928F"/>
</linearGradient>
<clipPath id="clip0_17663_2671">
<rect width="240" height="27" fill="white" transform="translate(0 10.5)"/>
</clipPath>
</defs>
</svg>
