<svg width="209" height="48" viewBox="0 0 209 48" fill="none" xmlns="http://www.w3.org/2000/svg">
<g clip-path="url(#clip0_17650_3512)">
<path fill-rule="evenodd" clip-rule="evenodd" d="M35.3625 16.5953C35.3625 15.808 35.3625 14.4696 36.8652 14.4696C38.3679 14.4696 38.3659 15.808 38.3659 16.5953V28.0919C38.3659 28.703 38.3659 30.2134 36.8652 30.2134C35.3645 30.2134 35.3625 28.703 35.3625 28.0919V16.5953ZM30.153 27.6257C30.153 31.759 32.7285 34.183 36.8631 34.183C40.9977 34.183 43.5712 31.759 43.5712 27.6257V17.0594C43.5712 12.518 40.741 10.5 36.8631 10.5C32.9852 10.5 30.153 12.518 30.153 17.0594V27.6257Z" fill="white"/>
<path d="M76.8486 29.0511C76.8486 31.2328 77.9506 34.183 82.822 34.183C87.6934 34.183 88.7954 31.2328 88.7954 29.0511V25.3923H83.924V29.4013C83.924 30.0394 83.924 30.9137 82.8199 30.9137C81.7158 30.9137 81.7158 30.0394 81.7158 29.4013V19.9413C81.7158 19.3011 81.7158 18.4268 82.8199 18.4268C83.924 18.4268 83.924 19.3011 83.924 19.9413V22.5995H88.7954V20.2915C88.7954 18.1078 87.6892 15.1596 82.822 15.1596C77.9548 15.1596 76.8486 18.1078 76.8486 20.2915V29.0511Z" fill="white"/>
<path d="M90.2041 30.6941C90.2041 33.605 91.8217 33.953 93.9171 33.953H95.0755V18.9696H96.2902V15.3584H95.0755V10.703H90.2041V15.3584H88.9852V18.9696H90.2041V30.6941Z" fill="white"/>
<path fill-rule="evenodd" clip-rule="evenodd" d="M96.9705 33.9696H101.842V15.3709H96.9705V33.9696ZM96.9705 14.1485H101.842V10.7155H96.9705V14.1506V14.1485Z" fill="white"/>
<path fill-rule="evenodd" clip-rule="evenodd" d="M105.47 33.9696H111.165L114.474 15.3708H109.606L108.387 27.2735H108.329L107.198 15.3708H102.187L105.47 33.9696Z" fill="white"/>
<path fill-rule="evenodd" clip-rule="evenodd" d="M63.902 29.0511C63.902 31.2328 65.004 34.183 69.8733 34.183C74.7426 34.183 75.8509 31.2348 75.8509 29.0511V27.0725H70.9774V29.4013C70.9774 30.0394 70.9774 30.9137 69.8733 30.9137C68.7692 30.9137 68.7692 30.0394 68.7692 29.4013V25.413H75.8509V20.2915C75.8509 18.1078 74.7468 15.1596 69.8733 15.1596C64.9998 15.1596 63.902 18.1078 63.902 20.2915V29.0532V29.0511ZM68.7692 19.9393C68.7692 19.2991 68.7692 18.4268 69.8733 18.4268C70.9774 18.4268 70.9774 19.2991 70.9774 19.9393V21.9779H68.7692V19.9393Z" fill="white"/>
<path fill-rule="evenodd" clip-rule="evenodd" d="M114.302 29.0511C114.302 31.2328 115.404 34.183 120.276 34.183C125.147 34.183 126.251 31.2348 126.251 29.0511V27.0725H121.382V29.4013C121.382 30.0394 121.382 30.9137 120.278 30.9137C119.174 30.9137 119.174 30.0394 119.174 29.4013V25.413H126.253V20.2915C126.253 18.1078 125.149 15.1596 120.278 15.1596C115.406 15.1596 114.304 18.1078 114.304 20.2915V29.0532L114.302 29.0511ZM119.172 19.9393C119.172 19.2991 119.172 18.4248 120.276 18.4248C121.38 18.4248 121.38 19.2991 121.38 19.9393V21.9779H119.169V19.9393" fill="white"/>
<path fill-rule="evenodd" clip-rule="evenodd" d="M49.7092 29.3764C49.7092 30.0166 49.7092 30.8909 50.8133 30.8909C51.9174 30.8909 51.9195 30.0166 51.9195 29.3764V19.9164C51.9195 19.2763 51.9195 18.4019 50.8133 18.4019C49.7071 18.4019 49.7092 19.2742 49.7092 19.9164L49.6967 29.3764H49.7092ZM49.6967 33.6133V33.9572H44.8274V10.703H49.6967V15.6008C50.0515 15.346 50.7862 15.1326 51.1827 15.1326C55.7473 15.1326 56.7867 18.0829 56.7867 20.2645V29.0242C56.7867 31.2058 55.7828 34.1561 51.3226 34.1561C50.926 34.1561 50.0515 33.9758 49.6925 33.6112H49.6967" fill="white"/>
<path d="M57.9244 37.4834L59.0765 37.5C62.5036 37.5 62.7958 35.4199 62.7958 32.625V15.3708H57.9265V37.4834" fill="white"/>
<path d="M57.9244 10.7155H62.7958V14.1485H57.9244V10.7155Z" fill="white"/>
<path d="M138.146 16.817V34.2618H136.274V16.817H132.586V15.201H141.861V16.817H138.146ZM151.783 34.2597H153.818L150.076 25.1064C150.472 25.0525 150.875 24.9178 151.282 24.7024C151.689 24.4869 152.059 24.1823 152.393 23.7866C152.727 23.393 152.998 22.902 153.207 22.3198C153.415 21.7355 153.52 21.0415 153.52 20.2334C153.52 19.3011 153.38 18.5118 153.098 17.8653C152.818 17.2189 152.447 16.6989 151.986 16.3032C151.524 15.9095 151.001 15.6257 150.412 15.4558C149.825 15.2859 149.216 15.201 148.582 15.201H143.971V34.2597H145.841V25.4296H148.31L151.781 34.2597H151.783ZM151.673 20.3287C151.673 21.4745 151.38 22.3633 150.792 22.9993C150.203 23.6333 149.396 23.9503 148.364 23.9503H145.843V16.817H148.285C148.719 16.817 149.139 16.8709 149.546 16.9786C149.953 17.0863 150.314 17.2728 150.631 17.5421C150.946 17.8115 151.199 18.172 151.391 18.6278C151.581 19.0836 151.675 19.6513 151.675 20.3308M165.206 34.2597H167.184L162.438 15.201H159.863L154.981 34.2597H156.907L158.128 29.4945H164.039L165.206 34.2597ZM161.165 16.8978L163.768 27.9883H158.397L161.056 16.8978H161.165ZM178.204 20.3702C178.204 19.384 178.056 18.5573 177.758 17.8944C177.459 17.2314 177.075 16.6968 176.606 16.2928C176.134 15.8888 175.61 15.6071 175.032 15.4455C174.454 15.2839 173.884 15.2031 173.323 15.2031H168.793V34.2618H170.666V25.7549H173.485C174.099 25.7549 174.692 25.6368 175.261 25.4047C175.831 25.1706 176.332 24.8308 176.766 24.3812C177.2 23.9337 177.547 23.3723 177.81 22.6989C178.073 22.0276 178.204 21.2507 178.204 20.3702ZM176.334 20.3826C176.334 21.6526 176.03 22.5953 175.424 23.2127C174.819 23.8301 174.091 24.1388 173.241 24.1388H170.666V16.817H173.214C173.648 16.817 174.049 16.8854 174.42 17.018C174.79 17.1526 175.122 17.3619 175.41 17.6478C175.7 17.9337 175.925 18.3046 176.088 18.7604C176.251 19.2162 176.332 19.7569 176.332 20.3826M180.028 34.2597H188.028V32.5629H181.871V25.1602H187.377V23.5442H181.871V16.8709H187.755V15.201H180.026V34.2597H180.028ZM190.176 34.2597H199.234V32.5629H192.209L199.18 16.8419V15.1989H190.475V16.8688H197.199L190.174 32.6437V34.2597H190.176ZM201 34.2597H209V32.5629H202.843V25.1602H208.349V23.5442H202.843V16.8709H208.727V15.201H200.998V34.2597H201Z" fill="white"/>
<rect y="10.5125" width="24" height="24" rx="1" fill="white"/>
<path d="M23.2312 10.5125H0.768773C0.346578 10.5125 0 10.8591 0 11.2813V33.7437C0 34.1659 0.346578 34.5125 0.768773 34.5125H23.2312C23.6534 34.5125 24 34.1659 24 33.7437V11.2813C24 10.8591 23.6555 10.5125 23.2312 10.5125ZM6.2447 28.4757L3.71574 28.4694C3.62542 28.4694 3.5729 28.3959 3.60231 28.3098L7.38316 16.7446C7.41047 16.6585 7.50919 16.587 7.59951 16.5891H10.1306C10.2209 16.5891 10.2734 16.6606 10.244 16.7467L6.46105 28.3203C6.43375 28.4064 6.33503 28.4757 6.2447 28.4757ZM12 21.2018C10.662 21.2018 9.51934 22.0399 9.05934 23.2224L11.1346 16.8496C11.1745 16.7152 11.2501 16.5912 11.393 16.5912H12.6091C12.7499 16.5912 12.8255 16.711 12.8675 16.8496L14.9428 23.2224C14.4828 22.042 13.3401 21.2039 12.0021 21.2018H12ZM20.2696 28.4715L17.7406 28.4778C17.6503 28.4778 17.5515 28.4085 17.5242 28.3224L13.7581 16.7467C13.7308 16.6606 13.7812 16.5891 13.8715 16.5891H16.4047C16.495 16.5891 16.5937 16.6585 16.621 16.7467L20.383 28.314C20.4103 28.4001 20.3599 28.4715 20.2696 28.4736V28.4715Z" fill="url(#paint0_linear_17650_3512)"/>
</g>
<defs>
<linearGradient id="paint0_linear_17650_3512" x1="20.0553" y1="36.4638" x2="3.94469" y2="8.56114" gradientUnits="userSpaceOnUse">
<stop stop-color="#77BC4A"/>
<stop offset="0.5" stop-color="#5DA10C"/>
<stop offset="0.76" stop-color="#549809"/>
<stop offset="1" stop-color="#488C07"/>
</linearGradient>
<clipPath id="clip0_17650_3512">
<rect width="209" height="27" fill="white" transform="translate(0 10.5)"/>
</clipPath>
</defs>
</svg>
