<svg width="36" height="36" viewBox="0 0 36 36" fill="none" xmlns="http://www.w3.org/2000/svg">
<path d="M17 9L14.879 6.879C14.6004 6.60029 14.2696 6.3792 13.9055 6.22838C13.5414 6.07756 13.1511 5.99995 12.757 6H4C3.46957 6 2.96086 6.21071 2.58579 6.58579C2.21071 6.96086 2 7.46957 2 8V28C2 28.5304 2.21071 29.0391 2.58579 29.4142C2.96086 29.7893 3.46957 30 4 30H32C32.5304 30 33.0391 29.7893 33.4142 29.4142C33.7893 29.0391 34 28.5304 34 28V11C34 10.4696 33.7893 9.96086 33.4142 9.58579C33.0391 9.21071 32.5304 9 32 9H17Z" fill="#C4790C"/>
<path d="M17 9L14.879 11.121C14.6004 11.3997 14.2696 11.6208 13.9055 11.7716C13.5414 11.9224 13.1511 12 12.757 12H2V28C2 28.5304 2.21071 29.0391 2.58579 29.4142C2.96086 29.7893 3.46957 30 4 30H32C32.5304 30 33.0391 29.7893 33.4142 29.4142C33.7893 29.0391 34 28.5304 34 28V11C34 10.4696 33.7893 9.96086 33.4142 9.58579C33.0391 9.21071 32.5304 9 32 9H17Z" fill="#F5A623"/>
<path opacity="0.4" d="M14.879 11.121C14.6004 11.3997 14.2696 11.6208 13.9055 11.7716C13.5414 11.9224 13.1511 12 12.757 12H2V13H13.05C13.5096 13 13.9648 12.9095 14.3894 12.7337C14.8141 12.5578 15.2 12.3 15.525 11.975L18.5 9H17L14.879 11.121Z" fill="white"/>
</svg>
