<svg width="1440" height="73" viewBox="0 0 1440 73" fill="none" xmlns="http://www.w3.org/2000/svg">
<rect width="1440" height="5" fill="#0B77D8"/>
<rect width="1440" height="68" transform="translate(0 5)" fill="white"/>
<g clip-path="url(#clip0_33896_10136)">
<path d="M88.6556 44.0511C88.6556 46.2327 89.7549 49.183 94.614 49.183C99.4732 49.183 100.572 46.2327 100.572 44.0511V40.3923H95.7133V44.4013C95.7133 45.0394 95.7133 45.9137 94.6119 45.9137C93.5106 45.9137 93.5106 45.0394 93.5106 44.4013V34.9413C93.5106 34.3011 93.5106 33.4268 94.6119 33.4268C95.7133 33.4268 95.7133 34.3011 95.7133 34.9413V37.5995H100.572V35.2915C100.572 33.1077 99.469 30.1595 94.614 30.1595C89.759 30.1595 88.6556 33.1077 88.6556 35.2915V44.0511Z" fill="#32373F"/>
<path d="M101.977 45.694C101.977 48.6049 103.591 48.953 105.681 48.953H106.837V33.9696H108.048V30.3584H106.837V25.703H101.977V30.3584H100.762V33.9696H101.977V45.694Z" fill="#32373F"/>
<path fill-rule="evenodd" clip-rule="evenodd" d="M108.727 48.9696H113.586V30.3708H108.727V48.9696ZM108.727 29.1485H113.586V25.7155H108.727V29.1505V29.1485Z" fill="#32373F"/>
<path fill-rule="evenodd" clip-rule="evenodd" d="M117.204 48.9696H122.886L126.188 30.3708H121.331L120.117 42.2735H120.059L118.93 30.3708H113.929L117.204 48.9696Z" fill="#32373F"/>
<path fill-rule="evenodd" clip-rule="evenodd" d="M75.7415 44.0511C75.7415 46.2327 76.8407 49.183 81.6978 49.183C86.5548 49.183 87.6603 46.2348 87.6603 44.0511V42.0725H82.7991V44.4013C82.7991 45.0394 82.7991 45.9137 81.6978 45.9137C80.5964 45.9137 80.5964 45.0394 80.5964 44.4013V40.413H87.6603V35.2915C87.6603 33.1077 86.559 30.1595 81.6978 30.1595C76.8365 30.1595 75.7415 33.1077 75.7415 35.2915V44.0532V44.0511ZM80.5964 34.9392C80.5964 34.299 80.5964 33.4268 81.6978 33.4268C82.7991 33.4268 82.7991 34.299 82.7991 34.9392V36.9779H80.5964V34.9392Z" fill="#32373F"/>
<path fill-rule="evenodd" clip-rule="evenodd" d="M126.015 44.0511C126.015 46.2327 127.114 49.183 131.973 49.183C136.833 49.183 137.934 46.2348 137.934 44.0511V42.0725H133.077V44.4013C133.077 45.0394 133.077 45.9137 131.975 45.9137C130.874 45.9137 130.874 45.0394 130.874 44.4013V40.413H137.936V35.2915C137.936 33.1077 136.835 30.1595 131.975 30.1595C127.116 30.1595 126.017 33.1077 126.017 35.2915V44.0532L126.015 44.0511ZM130.872 34.9392C130.872 34.299 130.872 33.4247 131.973 33.4247C133.075 33.4247 133.075 34.299 133.075 34.9392V36.9779H130.87V34.9392" fill="#32373F"/>
<path fill-rule="evenodd" clip-rule="evenodd" d="M47.2737 31.5953C47.2737 30.808 47.2737 29.4696 48.7726 29.4696C50.2716 29.4696 50.2695 30.808 50.2695 31.5953V43.0919C50.2695 43.703 50.2695 45.2134 48.7726 45.2134C47.2758 45.2134 47.2737 43.703 47.2737 43.0919V31.5953ZM42.0773 42.6257C42.0773 46.759 44.6463 49.183 48.7706 49.183C52.8948 49.183 55.4618 46.759 55.4618 42.6257V32.0594C55.4618 27.518 52.6387 25.5 48.7706 25.5C44.9024 25.5 42.0773 27.518 42.0773 32.0594V42.6257Z" fill="#32373F"/>
<path fill-rule="evenodd" clip-rule="evenodd" d="M61.5843 44.3763C61.5843 45.0165 61.5843 45.8908 62.6856 45.8908C63.7869 45.8908 63.789 45.0165 63.789 44.3763V34.9164C63.789 34.2762 63.789 33.4019 62.6856 33.4019C61.5822 33.4019 61.5843 34.2741 61.5843 34.9164L61.5718 44.3763H61.5843ZM61.5718 48.6132V48.9571H56.7147V25.703H61.5718V30.6008C61.9257 30.346 62.6585 30.1326 63.0541 30.1326C67.6072 30.1326 68.644 33.0828 68.644 35.2645V44.0241C68.644 46.2058 67.6426 49.156 63.1936 49.156C62.798 49.156 61.9257 48.9758 61.5676 48.6112H61.5718" fill="#32373F"/>
<path d="M69.7786 52.4834L70.9278 52.5C74.3463 52.5 74.6378 50.4199 74.6378 47.625V30.3708H69.7807V52.4834" fill="#32373F"/>
<path d="M69.7786 25.7155H74.6378V29.1485H69.7786V25.7155Z" fill="#32373F"/>
<path d="M153.261 43.9517C153.261 44.6581 153.157 45.3377 152.945 45.9903C152.732 46.643 152.414 47.2231 151.989 47.7265C151.564 48.23 151.042 48.6319 150.421 48.9323C149.801 49.2327 149.091 49.384 148.294 49.384C147.051 49.384 146.01 49.0773 145.167 48.4599C144.324 47.8425 143.724 46.9517 143.368 45.7873L145.017 45.3087C145.267 46.0504 145.66 46.6492 146.203 47.107C146.745 47.5649 147.415 47.7949 148.212 47.7928C148.762 47.7928 149.241 47.6727 149.649 47.4344C150.057 47.1961 150.394 46.8874 150.659 46.5062C150.925 46.1271 151.123 45.7065 151.256 45.2486C151.389 44.7887 151.454 44.3391 151.454 43.8978C151.454 42.6257 151.11 41.6602 150.426 40.9993C149.741 40.3384 148.858 40.0069 147.777 40.009H147.219V38.5276H147.804C148.762 38.5276 149.534 38.1982 150.12 37.5435C150.705 36.8909 150.996 36.0062 150.994 34.8936C150.994 34.5062 150.94 34.1167 150.834 33.7293C150.727 33.3418 150.557 32.9876 150.328 32.6706C150.097 32.3536 149.807 32.0925 149.462 31.8895C149.116 31.6865 148.693 31.5849 148.198 31.587C147.63 31.587 147.122 31.7528 146.668 32.078C146.216 32.4054 145.866 32.8508 145.618 33.4164L144.022 32.8881C144.411 31.9164 145.004 31.1913 145.802 30.7148C146.599 30.2362 147.432 29.9979 148.302 29.9979C148.993 29.9979 149.616 30.116 150.165 30.3543C150.715 30.5925 151.179 30.922 151.554 31.3467C151.931 31.7693 152.224 32.2686 152.435 32.8425C152.645 33.4164 152.751 34.038 152.751 34.7093C152.751 35.221 152.691 35.7203 152.568 36.2051C152.445 36.6899 152.266 37.1374 152.029 37.5435C151.791 37.9496 151.494 38.2997 151.133 38.5898C150.773 38.8819 150.346 39.0808 149.855 39.1865V39.2403C150.884 39.433 151.71 39.953 152.33 40.8004C152.953 41.6478 153.263 42.6982 153.265 43.9517H153.261Z" fill="#0B77D8"/>
<path d="M165.234 44.2562C165.234 45.087 165.111 45.8225 164.863 46.4669C164.616 47.1112 164.274 47.6582 163.841 48.1098C163.406 48.5615 162.898 48.9054 162.313 49.1437C161.728 49.3819 161.108 49.5021 160.45 49.5042C159.492 49.5042 158.609 49.3032 157.801 48.8971C156.994 48.4931 156.34 47.9544 155.844 47.2832L156.987 45.9841C157.395 46.5663 157.912 47.0159 158.532 47.3329C159.153 47.6499 159.783 47.8073 160.423 47.8073C161.274 47.8073 161.988 47.5048 162.563 46.904C163.139 46.3032 163.427 45.4475 163.425 44.335C163.425 43.8046 163.335 43.3384 163.156 42.9323C162.979 42.5263 162.738 42.1658 162.436 41.8467C162.134 41.5297 161.792 41.2479 161.409 41.0014C161.026 40.7548 160.625 40.5249 160.198 40.3135C159.684 40.067 159.194 39.7894 158.734 39.4807C158.272 39.172 157.868 38.8156 157.522 38.4095C157.177 38.0035 156.896 37.5228 156.683 36.9675C156.469 36.4123 156.363 35.7638 156.363 35.0221C156.363 34.1582 156.494 33.4019 156.761 32.7576C157.025 32.1133 157.385 31.5746 157.837 31.1416C158.289 30.7086 158.799 30.3854 159.365 30.174C159.933 29.9606 160.527 29.855 161.147 29.855C161.999 29.855 162.767 29.9979 163.45 30.2901C164.133 30.5801 164.705 31.0338 165.167 31.6513L164.024 32.9503C163.668 32.4385 163.252 32.0739 162.773 31.8522C162.294 31.6326 161.77 31.5228 161.203 31.5228C160.831 31.5228 160.462 31.5891 160.1 31.7217C159.736 31.8543 159.413 32.0635 159.13 32.3453C158.847 32.6292 158.615 32.9896 158.439 33.4309C158.262 33.8722 158.174 34.3943 158.174 34.9931C158.174 35.5235 158.255 35.9814 158.416 36.3709C158.576 36.7583 158.792 37.1022 159.069 37.4026C159.344 37.703 159.665 37.9682 160.027 38.1961C160.391 38.4261 160.768 38.6374 161.16 38.8301C161.657 39.0767 162.148 39.3584 162.638 39.6754C163.125 39.9924 163.566 40.3633 163.956 40.7859C164.347 41.2086 164.657 41.7037 164.888 42.2673C165.119 42.8329 165.236 43.4938 165.236 44.2521L165.234 44.2562Z" fill="#0B77D8"/>
<path d="M168.619 49.0463L168.598 30.2983H170.462L170.482 49.0442H168.619V49.0463Z" fill="#0B77D8"/>
<path d="M182.455 49.0297L178.641 40.7196L174.846 49.0379H172.877L177.627 39.1574L173.333 30.29H175.302L178.689 37.6989L182.033 30.2797H183.948L179.701 39.1802L184.475 49.0255H182.453L182.455 49.0297Z" fill="#0B77D8"/>
<path d="M190.127 31.8604L190.146 49.0214H188.309L188.291 31.8646L184.672 31.8687V30.2796L193.77 30.2693V31.8584L190.127 31.8625V31.8604Z" fill="#0B77D8"/>
<path d="M200.276 41.3039L200.285 49.009H198.475L198.467 41.306L193.772 30.2694H195.794L199.371 39.3999L203.006 30.259H205.002L200.278 41.3039H200.276Z" fill="#0B77D8"/>
<path d="M35.2312 25.5127H12.7688C12.3466 25.5127 12 25.8593 12 26.2815V48.7439C12 49.1661 12.3466 49.5127 12.7688 49.5127H35.2312C35.6534 49.5127 36 49.1661 36 48.7439V26.2815C36 25.8593 35.6555 25.5127 35.2312 25.5127ZM27.2956 31.2785C28.2325 31.7721 29.039 32.4779 29.6566 33.3307C29.7322 33.4357 29.6566 33.5806 29.5305 33.5806L27.491 33.5869C27.4112 33.5869 27.3461 33.5281 27.3356 33.4504L27.0688 31.4381C27.052 31.3121 27.1864 31.2197 27.2977 31.2785H27.2956ZM20.5321 31.5011C21.3744 30.9823 22.3364 30.642 23.3699 30.5328C23.498 30.5181 23.5883 30.6568 23.5232 30.7681L22.5549 32.4338C22.515 32.501 22.433 32.5304 22.3616 32.501L20.5573 31.7826C20.4376 31.7343 20.4229 31.5705 20.5321 31.5032V31.5011ZM18.3014 32.02L19.6961 32.5745L19.9965 32.6942L21.847 33.4315C21.9142 33.4588 21.9415 33.5386 21.9058 33.5995L20.4607 36.0844C20.3998 36.1894 20.2465 36.1873 20.1876 36.0823L18.062 32.2825C17.9821 32.1271 18.1376 31.9527 18.3035 32.0179L18.3014 32.02ZM17.8519 34.5699C17.9044 34.4523 18.0704 34.4439 18.1334 34.5573L19.0765 36.244C19.1143 36.3112 19.0975 36.3952 19.0387 36.4436L17.5305 37.6618C17.4297 37.7437 17.2785 37.6744 17.2743 37.5442C17.2722 37.4728 17.2701 37.3993 17.2701 37.3279C17.2701 36.3469 17.478 35.4143 17.8498 34.5699H17.8519ZM16.6273 40.0858C16.4383 40.0858 16.3585 39.8463 16.5076 39.7308L17.7301 38.7898L19.8537 37.1535L20.0637 36.9939C20.112 36.9561 20.1813 36.9855 20.1897 37.0443L20.6098 40.0039C20.6161 40.0501 20.5804 40.0942 20.5321 40.0942H18.9736L18.1712 40.0921L16.6294 40.0858H16.6273ZM20.8304 43.3289C19.9503 42.8479 19.1899 42.1778 18.5976 41.3755C18.5199 41.2704 18.5955 41.1255 18.7236 41.1255L20.6287 41.1318C20.7065 41.1318 20.7737 41.1885 20.7842 41.2662L21.0593 43.1714C21.0782 43.2995 20.9417 43.394 20.8283 43.331L20.8304 43.3289ZM22.7334 45.0513C22.641 45.2046 22.4057 45.1584 22.3805 44.982L22.1642 43.4969L21.7903 40.9344L21.6769 40.1614L21.6664 40.0921L21.3975 38.2458L21.2106 36.9645C21.2043 36.9225 21.2127 36.8784 21.2358 36.8405L22.1054 35.3429L22.954 33.8831L23.0002 33.8033L23.3804 33.15L24.6827 30.9109L25.4325 29.6212C25.5249 29.4637 25.7623 29.512 25.7875 29.6926L25.987 31.1693L26.3441 33.8138L26.4176 34.3662L26.4534 34.6329L26.6991 36.4478L26.905 37.9706C26.9113 38.0126 26.9008 38.0567 26.8797 38.0945L26.3168 39.0397L25.2897 40.7642L25.1805 40.947L24.8654 41.4742L23.5001 43.7658L22.7334 45.0555V45.0513ZM27.7241 43.1315C26.8503 43.6776 25.8421 44.0326 24.7625 44.1334C24.6343 44.146 24.5461 44.0074 24.6112 43.896L25.651 42.1421C25.6909 42.0749 25.7749 42.0476 25.8463 42.077L27.7031 42.85C27.8208 42.8983 27.8334 43.06 27.7262 43.1294L27.7241 43.1315ZM29.8414 42.6147L28.4635 42.0497L27.7472 41.7556L26.4429 41.2116C26.3546 41.1738 26.3189 41.0688 26.3672 40.9869L27.722 38.7016C27.783 38.5986 27.9342 38.5986 27.993 38.7016L28.0497 38.8024L29.3373 41.0499L30.0788 42.3417C30.1691 42.4992 30.0095 42.682 29.8414 42.6126V42.6147ZM30.3308 40.1677C30.2783 40.2832 30.1145 40.2916 30.0515 40.1803L29.0243 38.4012C28.9844 38.334 29.0012 38.2479 29.0642 38.1995L30.6879 36.9309C30.7887 36.8531 30.9358 36.9204 30.9421 37.0485C30.9463 37.1409 30.9484 37.2333 30.9484 37.3279C30.9484 38.3403 30.7278 39.3023 30.3329 40.1677H30.3308ZM31.6163 34.9207L31.4588 35.0425L30.4779 35.8071L30.3623 35.8974L28.2556 37.5358L28.14 37.6261C28.0434 37.6996 27.9048 37.6429 27.888 37.5232L27.5309 34.8283C27.5183 34.7338 27.5918 34.6498 27.6863 34.6498L30.7803 34.6392H31.5218C31.6709 34.6392 31.736 34.8283 31.6184 34.9207H31.6163Z" fill="url(#paint0_linear_33896_10136)"/>
</g>
<path d="M1176 28.5C1173.92 28.5 1171.89 29.1158 1170.17 30.2696C1168.44 31.4233 1167.09 33.0632 1166.3 34.9818C1165.5 36.9004 1165.3 39.0116 1165.7 41.0484C1166.11 43.0852 1167.11 44.9562 1168.58 46.4246C1170.04 47.8931 1171.91 48.8931 1173.95 49.2983C1175.99 49.7034 1178.1 49.4955 1180.02 48.7008C1181.94 47.906 1183.58 46.5602 1184.73 44.8335C1185.88 43.1067 1186.5 41.0767 1186.5 39C1186.5 36.2152 1185.39 33.5445 1183.42 31.5754C1181.46 29.6063 1178.78 28.5 1176 28.5ZM1176 48C1174.22 48 1172.48 47.4722 1171 46.4832C1169.52 45.4942 1168.37 44.0887 1167.69 42.4441C1167 40.7996 1166.83 38.99 1167.17 37.2442C1167.52 35.4984 1168.38 33.8947 1169.64 32.636C1170.89 31.3774 1172.5 30.5202 1174.24 30.1729C1175.99 29.8257 1177.8 30.0039 1179.44 30.6851C1181.09 31.3663 1182.49 32.5198 1183.48 33.9999C1184.47 35.4799 1185 37.22 1185 39C1185 41.3869 1184.05 43.6761 1182.36 45.3639C1180.68 47.0519 1178.39 48 1176 48Z" fill="#32373F"/>
<path d="M1176 45.75C1176.62 45.75 1177.12 45.2463 1177.12 44.625C1177.12 44.0037 1176.62 43.5 1176 43.5C1175.38 43.5 1174.88 44.0037 1174.88 44.625C1174.88 45.2463 1175.38 45.75 1176 45.75Z" fill="#525965"/>
<path d="M1176.75 33H1175.63C1175.18 32.999 1174.74 33.0856 1174.33 33.2549C1173.92 33.4242 1173.55 33.6727 1173.24 33.9863C1172.92 34.2999 1172.67 34.6724 1172.5 35.0823C1172.34 35.4922 1172.25 35.9315 1172.25 36.375V36.75H1173.75V36.375C1173.75 35.8777 1173.95 35.4008 1174.3 35.0492C1174.65 34.6976 1175.13 34.5 1175.63 34.5H1176.75C1177.25 34.5 1177.72 34.6976 1178.08 35.0492C1178.43 35.4008 1178.63 35.8777 1178.63 36.375C1178.63 36.8723 1178.43 37.3492 1178.08 37.7008C1177.72 38.0525 1177.25 38.25 1176.75 38.25H1175.25V41.625H1176.75V39.75C1177.65 39.75 1178.5 39.3944 1179.14 38.7615C1179.77 38.1286 1180.13 37.2701 1180.13 36.375C1180.13 35.4799 1179.77 34.6215 1179.14 33.9885C1178.5 33.3556 1177.65 33 1176.75 33Z" fill="#525965"/>
<path d="M1229.53 41.341L1227.5 39.4302V36.8989C1227.5 35.1497 1226.81 33.4635 1225.56 32.1663C1224.31 30.8691 1222.6 30.053 1220.75 29.876V28.4283H1219.25V29.876C1217.4 30.053 1215.69 30.8691 1214.44 32.1663C1213.19 33.4635 1212.5 35.1497 1212.5 36.8989V39.4302L1210.47 41.341C1210.33 41.4734 1210.25 41.6529 1210.25 41.8401V43.9577C1210.25 44.1449 1210.33 44.3245 1210.47 44.4569C1210.61 44.5892 1210.8 44.6636 1211 44.6636H1216.25V45.2119C1216.23 46.1074 1216.57 46.9771 1217.19 47.6542C1217.81 48.3314 1218.68 48.7685 1219.62 48.8817C1220.15 48.9304 1220.67 48.8758 1221.17 48.7214C1221.67 48.5671 1222.13 48.3166 1222.51 47.9858C1222.9 47.655 1223.21 47.2514 1223.43 46.8007C1223.64 46.3501 1223.75 45.8626 1223.75 45.3695V44.6636H1229C1229.2 44.6636 1229.39 44.5892 1229.53 44.4569C1229.67 44.3245 1229.75 44.1449 1229.75 43.9577V41.8401C1229.75 41.6529 1229.67 41.4734 1229.53 41.341ZM1222.25 45.3695C1222.25 45.9311 1222.01 46.4698 1221.59 46.867C1221.17 47.2641 1220.6 47.4871 1220 47.4871C1219.4 47.4871 1218.83 47.2641 1218.41 46.867C1217.99 46.4698 1217.75 45.9311 1217.75 45.3695V44.6636H1222.25V45.3695ZM1228.25 43.2518H1211.75V42.1325L1213.78 40.2215C1213.92 40.0892 1214 39.9097 1214 39.7225V36.8989C1214 35.4012 1214.63 33.9649 1215.76 32.9059C1216.88 31.8468 1218.41 31.2519 1220 31.2519C1221.59 31.2519 1223.12 31.8468 1224.24 32.9059C1225.37 33.9649 1226 35.4012 1226 36.8989V39.7225C1226 39.9097 1226.08 40.0892 1226.22 40.2215L1228.25 42.1325V43.2518Z" fill="#32373F"/>
<rect x="1262" y="23" width="32" height="32" rx="16" fill="#1F428F"/>
<path d="M1275.22 41.66C1275.22 42.42 1274.95 43.02 1274.4 43.46C1273.84 43.9 1273.08 44.12 1272.1 44.12C1271.16 44.12 1270.36 43.96 1269.7 43.64V42.2C1270.06 42.36 1270.46 42.508 1270.89 42.644C1271.33 42.772 1271.77 42.836 1272.21 42.836C1272.73 42.836 1273.11 42.736 1273.34 42.536C1273.58 42.328 1273.7 42.064 1273.7 41.744C1273.7 41.392 1273.55 41.112 1273.24 40.904C1272.94 40.688 1272.5 40.456 1271.91 40.208C1271.56 40.064 1271.22 39.888 1270.89 39.68C1270.57 39.464 1270.31 39.196 1270.1 38.876C1269.9 38.548 1269.8 38.14 1269.8 37.652C1269.8 36.924 1270.06 36.352 1270.57 35.936C1271.09 35.52 1271.78 35.312 1272.64 35.312C1273.09 35.312 1273.52 35.36 1273.92 35.456C1274.32 35.552 1274.72 35.688 1275.12 35.864L1274.62 37.1C1274.26 36.948 1273.92 36.828 1273.59 36.74C1273.27 36.652 1272.94 36.608 1272.6 36.608C1272.18 36.608 1271.86 36.7 1271.65 36.884C1271.43 37.068 1271.32 37.312 1271.32 37.616C1271.32 37.848 1271.38 38.048 1271.5 38.216C1271.62 38.376 1271.81 38.524 1272.06 38.66C1272.31 38.796 1272.64 38.952 1273.04 39.128C1273.5 39.328 1273.9 39.54 1274.22 39.764C1274.54 39.98 1274.79 40.24 1274.96 40.544C1275.14 40.84 1275.22 41.212 1275.22 41.66ZM1280.53 44L1278.17 36.98H1278.13C1278.14 37.14 1278.15 37.368 1278.16 37.664C1278.18 37.952 1278.19 38.268 1278.2 38.612C1278.21 38.948 1278.22 39.264 1278.22 39.56V44H1276.84V35.432H1278.98L1281.23 42.164H1281.28L1283.63 35.432H1285.77V44H1284.31V39.488C1284.31 39.216 1284.31 38.92 1284.32 38.6C1284.33 38.272 1284.35 37.964 1284.35 37.676C1284.37 37.38 1284.38 37.152 1284.39 36.992H1284.34L1281.89 44H1280.53Z" fill="white"/>
<path d="M1309.03 41.8271C1309.03 42.6976 1308.71 43.3835 1308.08 43.8848C1307.46 44.3861 1306.58 44.6367 1305.46 44.6367C1304.27 44.6367 1303.36 44.4795 1302.71 44.165V42.9619C1303.13 43.1442 1303.6 43.2878 1304.1 43.3926C1304.6 43.4974 1305.08 43.5498 1305.51 43.5498C1306.26 43.5498 1306.82 43.4062 1307.2 43.1191C1307.58 42.832 1307.77 42.4378 1307.77 41.9365C1307.77 41.6038 1307.7 41.3304 1307.56 41.1162C1307.43 40.902 1307.2 40.7015 1306.87 40.5146C1306.56 40.3278 1306.07 40.1159 1305.42 39.8789C1304.49 39.5417 1303.83 39.1452 1303.44 38.6895C1303.04 38.2292 1302.84 37.6367 1302.84 36.9121C1302.84 36.1328 1303.13 35.513 1303.72 35.0527C1304.3 34.5924 1305.08 34.3623 1306.03 34.3623C1307.03 34.3623 1307.95 34.5492 1308.79 34.9229L1308.4 36.0029C1307.54 35.6475 1306.74 35.4697 1306.01 35.4697C1305.41 35.4697 1304.95 35.5973 1304.61 35.8525C1304.28 36.1077 1304.11 36.4655 1304.11 36.9258C1304.11 37.2539 1304.18 37.5273 1304.3 37.7461C1304.44 37.9603 1304.65 38.1562 1304.93 38.334C1305.22 38.5117 1305.68 38.7145 1306.3 38.9424C1307.04 39.2158 1307.6 39.4824 1307.96 39.7422C1308.33 39.9974 1308.59 40.2936 1308.77 40.6309C1308.94 40.9635 1309.03 41.3623 1309.03 41.8271ZM1313.88 44.6367C1312.8 44.6367 1311.96 44.3063 1311.36 43.6455C1310.76 42.9801 1310.46 42.0277 1310.46 40.7881C1310.46 39.5303 1310.76 38.5618 1311.37 37.8828C1311.98 37.1992 1312.84 36.8574 1313.97 36.8574C1314.33 36.8574 1314.69 36.8962 1315.05 36.9736C1315.41 37.0465 1315.71 37.1423 1315.94 37.2607L1315.56 38.2861C1314.93 38.0492 1314.39 37.9307 1313.94 37.9307C1313.19 37.9307 1312.63 38.1699 1312.27 38.6484C1311.91 39.1224 1311.73 39.8311 1311.73 40.7744C1311.73 41.6813 1311.91 42.3763 1312.27 42.8594C1312.63 43.3379 1313.16 43.5771 1313.87 43.5771C1314.53 43.5771 1315.18 43.4313 1315.82 43.1396V44.2334C1315.3 44.5023 1314.65 44.6367 1313.88 44.6367ZM1324.12 40.7334C1324.12 41.9593 1323.81 42.9163 1323.19 43.6045C1322.57 44.2926 1321.71 44.6367 1320.62 44.6367C1319.94 44.6367 1319.34 44.4795 1318.82 44.165C1318.29 43.846 1317.89 43.3903 1317.61 42.7979C1317.32 42.2054 1317.18 41.5173 1317.18 40.7334C1317.18 39.512 1317.49 38.5618 1318.1 37.8828C1318.71 37.1992 1319.57 36.8574 1320.67 36.8574C1321.73 36.8574 1322.56 37.2061 1323.18 37.9033C1323.81 38.596 1324.12 39.5394 1324.12 40.7334ZM1318.45 40.7334C1318.45 41.6768 1318.64 42.3945 1319.01 42.8867C1319.38 43.3743 1319.93 43.6182 1320.66 43.6182C1321.37 43.6182 1321.92 43.3743 1322.29 42.8867C1322.66 42.3945 1322.85 41.6768 1322.85 40.7334C1322.85 39.79 1322.66 39.0814 1322.28 38.6074C1321.91 38.1289 1321.36 37.8896 1320.63 37.8896C1319.18 37.8896 1318.45 38.8376 1318.45 40.7334ZM1328.58 43.6318C1328.74 43.6318 1328.93 43.6159 1329.15 43.584C1329.36 43.5521 1329.52 43.5156 1329.63 43.4746V44.418C1329.52 44.4681 1329.34 44.516 1329.1 44.5615C1328.86 44.6117 1328.62 44.6367 1328.37 44.6367C1326.91 44.6367 1326.17 43.8643 1326.17 42.3193V37.9512H1325.11V37.3633L1326.19 36.8711L1326.68 35.2715H1327.41V36.9941H1329.58V37.9512H1327.41V42.2852C1327.41 42.7181 1327.51 43.0508 1327.72 43.2832C1327.93 43.5156 1328.22 43.6318 1328.58 43.6318ZM1333.64 43.6318C1333.8 43.6318 1333.99 43.6159 1334.2 43.584C1334.42 43.5521 1334.58 43.5156 1334.69 43.4746V44.418C1334.58 44.4681 1334.4 44.516 1334.16 44.5615C1333.92 44.6117 1333.68 44.6367 1333.43 44.6367C1331.96 44.6367 1331.23 43.8643 1331.23 42.3193V37.9512H1330.17V37.3633L1331.24 36.8711L1331.74 35.2715H1332.47V36.9941H1334.63V37.9512H1332.47V42.2852C1332.47 42.7181 1332.57 43.0508 1332.78 43.2832C1332.99 43.5156 1333.27 43.6318 1333.64 43.6318ZM1344.41 44.5L1341.12 35.7363H1341.06C1341.13 36.4655 1341.16 37.3656 1341.16 38.4365V44.5H1340V34.5059H1341.86L1344.94 42.6953H1345L1348.14 34.5059H1349.98V44.5H1348.74V38.3545C1348.74 37.6709 1348.77 36.8027 1348.83 35.75H1348.78L1345.44 44.5H1344.41ZM1357.17 44.5L1356.93 43.4336H1356.87C1356.5 43.903 1356.12 44.222 1355.75 44.3906C1355.38 44.5547 1354.91 44.6367 1354.35 44.6367C1353.61 44.6367 1353.03 44.443 1352.61 44.0557C1352.19 43.6683 1351.98 43.1214 1351.98 42.415C1351.98 40.8929 1353.19 40.0954 1355.59 40.0225L1356.86 39.9746V39.5303C1356.86 38.9606 1356.74 38.5413 1356.49 38.2725C1356.24 37.999 1355.85 37.8623 1355.31 37.8623C1354.91 37.8623 1354.53 37.9215 1354.18 38.04C1353.83 38.1585 1353.5 38.2907 1353.19 38.4365L1352.81 37.5137C1353.19 37.3132 1353.6 37.1559 1354.05 37.042C1354.5 36.9281 1354.94 36.8711 1355.38 36.8711C1356.28 36.8711 1356.96 37.0716 1357.4 37.4727C1357.84 37.8737 1358.06 38.5117 1358.06 39.3867V44.5H1357.17ZM1354.63 43.6455C1355.32 43.6455 1355.86 43.4609 1356.25 43.0918C1356.65 42.7181 1356.84 42.1895 1356.84 41.5059V40.8291L1355.74 40.877C1354.88 40.9089 1354.25 41.0456 1353.85 41.2871C1353.46 41.5286 1353.26 41.9092 1353.26 42.4287C1353.26 42.8206 1353.38 43.1214 1353.62 43.3311C1353.86 43.5407 1354.2 43.6455 1354.63 43.6455ZM1363.89 36.8574C1364.23 36.8574 1364.52 36.8848 1364.77 36.9395L1364.62 38.0742C1364.35 38.0104 1364.07 37.9785 1363.81 37.9785C1363.41 37.9785 1363.04 38.0879 1362.7 38.3066C1362.37 38.5254 1362.1 38.8285 1361.91 39.2158C1361.72 39.5986 1361.62 40.0247 1361.62 40.4941V44.5H1360.39V36.9941H1361.4L1361.54 38.3682H1361.6C1361.88 37.8714 1362.22 37.4954 1362.61 37.2402C1363.01 36.985 1363.43 36.8574 1363.89 36.8574ZM1371.06 42.4287C1371.06 43.1305 1370.8 43.6751 1370.28 44.0625C1369.75 44.4453 1369.02 44.6367 1368.07 44.6367C1367.08 44.6367 1366.29 44.4795 1365.71 44.165V43.0439C1366.54 43.445 1367.33 43.6455 1368.1 43.6455C1368.72 43.6455 1369.17 43.5452 1369.45 43.3447C1369.73 43.1442 1369.87 42.8753 1369.87 42.5381C1369.87 42.2419 1369.74 41.9912 1369.46 41.7861C1369.19 41.5811 1368.71 41.3464 1368.02 41.082C1367.32 40.8086 1366.82 40.5762 1366.53 40.3848C1366.24 40.1888 1366.03 39.9701 1365.9 39.7285C1365.76 39.487 1365.7 39.193 1365.7 38.8467C1365.7 38.2314 1365.95 37.7461 1366.45 37.3906C1366.95 37.0352 1367.64 36.8574 1368.51 36.8574C1369.37 36.8574 1370.16 37.026 1370.91 37.3633L1370.49 38.3408C1369.73 38.0218 1369.04 37.8623 1368.43 37.8623C1367.92 37.8623 1367.53 37.9443 1367.27 38.1084C1367.01 38.2679 1366.87 38.4889 1366.87 38.7715C1366.87 39.0449 1366.99 39.2728 1367.21 39.4551C1367.44 39.6328 1367.97 39.8812 1368.81 40.2002C1369.43 40.4326 1369.89 40.6491 1370.19 40.8496C1370.49 41.0501 1370.71 41.2757 1370.85 41.5264C1370.99 41.777 1371.06 42.0778 1371.06 42.4287ZM1378 44.5V39.7012C1378 39.0905 1377.87 38.637 1377.59 38.3408C1377.32 38.04 1376.9 37.8896 1376.32 37.8896C1375.56 37.8896 1375 38.1016 1374.65 38.5254C1374.29 38.9492 1374.12 39.6488 1374.12 40.624V44.5H1372.89V33.8633H1374.12V36.9805C1374.12 37.3906 1374.1 37.7415 1374.05 38.0332H1374.13C1374.36 37.6686 1374.67 37.3838 1375.08 37.1787C1375.49 36.9736 1375.96 36.8711 1376.47 36.8711C1377.38 36.8711 1378.07 37.0898 1378.53 37.5273C1378.99 37.9603 1379.22 38.6553 1379.22 39.6123V44.5H1378ZM1386.18 44.5L1385.94 43.4336H1385.88C1385.51 43.903 1385.14 44.222 1384.76 44.3906C1384.39 44.5547 1383.93 44.6367 1383.36 44.6367C1382.62 44.6367 1382.04 44.443 1381.62 44.0557C1381.21 43.6683 1381 43.1214 1381 42.415C1381 40.8929 1382.2 40.0954 1384.6 40.0225L1385.87 39.9746V39.5303C1385.87 38.9606 1385.75 38.5413 1385.5 38.2725C1385.25 37.999 1384.86 37.8623 1384.32 37.8623C1383.92 37.8623 1383.55 37.9215 1383.19 38.04C1382.84 38.1585 1382.51 38.2907 1382.2 38.4365L1381.82 37.5137C1382.2 37.3132 1382.61 37.1559 1383.06 37.042C1383.51 36.9281 1383.95 36.8711 1384.39 36.8711C1385.29 36.8711 1385.97 37.0716 1386.41 37.4727C1386.85 37.8737 1387.07 38.5117 1387.07 39.3867V44.5H1386.18ZM1383.64 43.6455C1384.33 43.6455 1384.87 43.4609 1385.26 43.0918C1385.66 42.7181 1385.86 42.1895 1385.86 41.5059V40.8291L1384.75 40.877C1383.89 40.9089 1383.26 41.0456 1382.86 41.2871C1382.47 41.5286 1382.27 41.9092 1382.27 42.4287C1382.27 42.8206 1382.39 43.1214 1382.63 43.3311C1382.87 43.5407 1383.21 43.6455 1383.64 43.6455ZM1390.63 44.5H1389.4V33.8633H1390.63V44.5ZM1394.24 44.5H1393.01V33.8633H1394.24V44.5Z" fill="#525965"/>
<path d="M1410 42.7498L1403.75 36.4998L1404.63 35.6248L1410 40.9998L1415.38 35.6248L1416.25 36.4998L1410 42.7498Z" fill="#525965"/>
<line y1="72.5" x2="1440" y2="72.5" stroke="#F5F5F5"/>
<defs>
<linearGradient id="paint0_linear_33896_10136" x1="32.0553" y1="51.464" x2="15.9447" y2="23.5614" gradientUnits="userSpaceOnUse">
<stop stop-color="#54A0E4"/>
<stop offset="0.49" stop-color="#0B77D8"/>
<stop offset="1" stop-color="#0347BF"/>
</linearGradient>
<clipPath id="clip0_33896_10136">
<rect width="193" height="27" fill="white" transform="translate(12 25.5)"/>
</clipPath>
</defs>
</svg>
