<svg width="1440" height="73" viewBox="0 0 1440 73" fill="none" xmlns="http://www.w3.org/2000/svg">
<rect width="1440" height="5" fill="#5DA10C"/>
<rect width="1440" height="68" transform="translate(0 5)" fill="white"/>
<g clip-path="url(#clip0_33896_10133)">
<path fill-rule="evenodd" clip-rule="evenodd" d="M127.967 44.051C127.967 46.2326 129.085 49.1829 134.027 49.1829C138.97 49.1829 140.09 46.2347 140.09 44.051V42.0724H135.15V44.4011C135.15 45.0393 135.15 45.9136 134.03 45.9136C132.909 45.9136 132.909 45.0393 132.909 44.4011V40.4129H140.092V35.2913C140.092 33.1076 138.972 30.1594 134.03 30.1594C129.087 30.1594 127.969 33.1076 127.969 35.2913V44.0531L127.967 44.051ZM132.907 34.9391C132.907 34.2989 132.907 33.4246 134.027 33.4246C135.148 33.4246 135.148 34.2989 135.148 34.9391V36.9778H132.905V34.9391" fill="#32373F"/>
<path fill-rule="evenodd" clip-rule="evenodd" d="M47.8772 31.5953C47.8772 30.808 47.8772 29.4696 49.4018 29.4696C50.9265 29.4696 50.9244 30.808 50.9244 31.5953V43.0919C50.9244 43.703 50.9244 45.2134 49.4018 45.2134C47.8793 45.2134 47.8772 43.703 47.8772 43.0919V31.5953ZM42.5919 42.6257C42.5919 46.759 45.2049 49.183 49.3997 49.183C53.5946 49.183 56.2055 46.759 56.2055 42.6257V32.0594C56.2055 27.518 53.3341 25.5 49.3997 25.5C45.4654 25.5 42.5919 27.518 42.5919 32.0594V42.6257Z" fill="#32373F"/>
<path d="M89.9681 44.051C89.9681 46.2326 91.0861 49.1829 96.0285 49.1829C100.971 49.1829 102.089 46.2326 102.089 44.051V40.3922H97.1465V44.4011C97.1465 45.0393 97.1465 45.9136 96.0263 45.9136C94.9062 45.9136 94.9062 45.0393 94.9062 44.4011V34.9412C94.9062 34.301 94.9062 33.4267 96.0263 33.4267C97.1465 33.4267 97.1465 34.301 97.1465 34.9412V37.5993H102.089V35.2913C102.089 33.1076 100.967 30.1594 96.0285 30.1594C91.0904 30.1594 89.9681 33.1076 89.9681 35.2913V44.051Z" fill="#32373F"/>
<path d="M103.518 45.6939C103.518 48.6048 105.159 48.9529 107.285 48.9529H108.46V33.9695H109.693V30.3583H108.46V25.7029H103.518V30.3583H102.281V33.9695H103.518V45.6939Z" fill="#32373F"/>
<path fill-rule="evenodd" clip-rule="evenodd" d="M110.383 48.9697H115.325V30.371H110.383V48.9697ZM110.383 29.1486H115.325V25.7156H110.383V29.1507V29.1486Z" fill="#32373F"/>
<path fill-rule="evenodd" clip-rule="evenodd" d="M119.005 48.9696H124.784L128.14 30.3708H123.202L121.968 42.2735H121.909L120.759 30.3708H115.674L119.005 48.9696Z" fill="#32373F"/>
<path fill-rule="evenodd" clip-rule="evenodd" d="M76.8324 44.051C76.8324 46.2326 77.9505 49.1829 82.8907 49.1829C87.8309 49.1829 88.9553 46.2347 88.9553 44.051V42.0724H84.0108V44.4011C84.0108 45.0393 84.0108 45.9136 82.8907 45.9136C81.7705 45.9136 81.7705 45.0393 81.7705 44.4011V40.4129H88.9553V35.2913C88.9553 33.1076 87.8351 30.1594 82.8907 30.1594C77.9462 30.1594 76.8324 33.1076 76.8324 35.2913V44.0531V44.051ZM81.7705 34.9391C81.7705 34.2989 81.7705 33.4267 82.8907 33.4267C84.0108 33.4267 84.0108 34.2989 84.0108 34.9391V36.9778H81.7705V34.9391Z" fill="#32373F"/>
<path fill-rule="evenodd" clip-rule="evenodd" d="M62.4336 44.3762C62.4336 45.0164 62.4336 45.8907 63.5537 45.8907C64.6739 45.8907 64.676 45.0164 64.676 44.3762V34.9163C64.676 34.2761 64.676 33.4018 63.5537 33.4018C62.4314 33.4018 62.4336 34.274 62.4336 34.9163L62.4209 44.3762H62.4336ZM62.4209 48.6131V48.957H57.4807V25.7029H62.4209V30.6007C62.7808 30.3458 63.5262 30.1324 63.9285 30.1324C68.5596 30.1324 69.6141 33.0827 69.6141 35.2643V44.024C69.6141 46.2056 68.5956 49.1559 64.0704 49.1559C63.6681 49.1559 62.7808 48.9757 62.4166 48.611H62.4209" fill="#32373F"/>
<path d="M70.7679 52.4834L71.9368 52.5C75.4138 52.5 75.7103 50.4199 75.7103 47.625V30.3708H70.7701V52.4834" fill="#32373F"/>
<path d="M70.7679 25.7156H75.7103V29.1486H70.7679V25.7156Z" fill="#32373F"/>
<path d="M154.69 43.8459C154.69 43.1394 154.58 42.5407 154.364 42.0559C154.146 41.569 153.864 41.1753 153.519 40.8749C153.174 40.5745 152.789 40.3528 152.363 40.2119C151.935 40.071 151.522 40.0006 151.124 40.0006H148.429V47.511H151.124C151.616 47.511 152.077 47.4405 152.513 47.2996C152.95 47.1588 153.331 46.9371 153.657 46.6367C153.983 46.3362 154.237 45.955 154.419 45.4951C154.601 45.0351 154.692 44.4861 154.692 43.8501L154.69 43.8459ZM154.146 35.136C154.146 34.5165 154.051 33.9965 153.86 33.5717C153.67 33.147 153.416 32.8072 153.098 32.5503C152.78 32.2934 152.422 32.1132 152.022 32.0054C151.624 31.8998 151.215 31.8459 150.798 31.8459H148.431V38.5047H150.853C151.251 38.5047 151.647 38.4426 152.037 38.3183C152.427 38.194 152.776 37.9951 153.085 37.7216C153.394 37.4481 153.648 37.098 153.847 36.6733C154.047 36.2485 154.146 35.7368 154.146 35.1339V35.136ZM156.569 43.9661C156.569 44.9419 156.41 45.7603 156.092 46.417C155.774 47.0738 155.37 47.6021 154.881 48.002C154.39 48.4018 153.852 48.6857 153.261 48.8535C152.67 49.0234 152.105 49.1063 151.561 49.1063H146.633V30.2485H151.002C151.548 30.2485 152.111 30.319 152.693 30.4619C153.276 30.6049 153.807 30.8473 154.29 31.1933C154.773 31.5393 155.169 32.0096 155.478 32.6042C155.787 33.1988 155.942 33.9488 155.942 34.8542C155.942 35.4944 155.863 36.0496 155.707 36.5199C155.552 36.9902 155.345 37.3984 155.088 37.7444C154.832 38.0904 154.538 38.3742 154.207 38.5959C153.877 38.8176 153.538 38.9916 153.191 39.1159V39.1698C153.536 39.2402 153.907 39.3832 154.307 39.5966C154.705 39.81 155.074 40.1083 155.41 40.4896C155.745 40.8708 156.022 41.3514 156.24 41.9274C156.458 42.5034 156.569 43.1829 156.569 43.964V43.9661Z" fill="#5DA10C"/>
<path d="M170.355 45.2568C170.165 46.1187 169.856 46.8687 169.43 47.5068C169.005 48.147 168.437 48.6484 167.73 49.011C167.022 49.3756 166.15 49.5579 165.117 49.5579C164.083 49.5579 163.215 49.3756 162.516 49.011C161.818 48.6484 161.254 48.1449 160.829 47.5068C160.401 46.8666 160.098 46.1187 159.916 45.2568C159.734 44.3949 159.643 43.4771 159.643 42.4992V30.2485H161.549V42.261C161.549 42.953 161.599 43.6367 161.699 44.3121C161.799 44.9875 161.981 45.5862 162.243 46.1104C162.506 46.6346 162.87 47.0552 163.332 47.3763C163.793 47.6954 164.397 47.8549 165.142 47.8549C165.887 47.8549 166.466 47.6954 166.938 47.3763C167.41 47.0572 167.778 46.6346 168.041 46.1104C168.304 45.5862 168.486 44.9916 168.585 44.3266C168.685 43.6594 168.736 42.9737 168.736 42.263V30.2485H170.641V42.4992C170.641 43.4771 170.546 44.3949 170.355 45.2568Z" fill="#5DA10C"/>
<path d="M174.834 49.1063V30.2485H176.74V49.1063H174.834Z" fill="#5DA10C"/>
<path d="M181.149 49.1063V30.2485H183.054V47.3742H188.554V49.1063H181.149Z" fill="#5DA10C"/>
<path d="M200.122 39.7043C200.122 38.368 199.99 37.2057 199.728 36.2175C199.465 35.2292 199.101 34.4129 198.639 33.7727C198.176 33.1304 197.631 32.6498 197.007 32.3286C196.38 32.0075 195.704 31.848 194.98 31.848H192.748V47.5089H194.98C195.704 47.5089 196.382 47.3494 197.007 47.0282C197.634 46.7071 198.178 46.2264 198.639 45.5842C199.101 44.9419 199.465 44.1318 199.728 43.1518C199.99 42.1719 200.122 41.022 200.122 39.7043ZM202 39.7043C202 41.2499 201.837 42.607 201.511 43.7796C201.185 44.9523 200.712 45.9322 200.096 46.7237C199.48 47.5151 198.739 48.1097 197.877 48.5075C197.015 48.9074 196.058 49.1063 195.006 49.1063H190.868V30.2485H195.033C196.086 30.2485 197.043 30.4474 197.905 30.8473C198.766 31.2472 199.501 31.8459 200.109 32.6456C200.717 33.4454 201.185 34.4357 201.511 35.6166C201.837 36.7976 202 38.1608 202 39.7043Z" fill="#5DA10C"/>
<path d="M35.2312 25.5127H12.7688C12.3466 25.5127 12 25.8593 12 26.2815V48.7439C12 49.1661 12.3466 49.5127 12.7688 49.5127H35.2312C35.6534 49.5127 36 49.1661 36 48.7439V26.2815C36 25.8593 35.6555 25.5127 35.2312 25.5127ZM20.9795 44.2951C20.9795 44.4085 20.8871 44.501 20.7737 44.5031H17.1945C17.081 44.5031 16.9865 44.4106 16.9865 44.2951V40.5983C16.9865 40.5437 17.0075 40.4912 17.0474 40.4513L18.837 38.7016C18.919 38.6196 19.0492 38.6217 19.129 38.7016L20.9186 40.4513C20.9564 40.4891 20.9795 40.5437 20.9795 40.5983V44.2951ZM26.0123 44.3077C26.0123 44.4212 25.9198 44.5136 25.8064 44.5157H22.2272C22.1138 44.5157 22.0214 44.4233 22.0214 44.3077V37.3762C22.0214 37.3216 22.0424 37.269 22.0823 37.2291L23.8719 35.4794C23.9538 35.3975 24.084 35.3996 24.1638 35.4794L25.9534 37.2291C25.9933 37.2669 26.0144 37.3216 26.0144 37.3762V44.3077H26.0123ZM31.0114 44.3077C31.0114 44.4127 30.9253 44.4989 30.8202 44.4989H27.2326C27.1276 44.4989 27.0415 44.4127 27.0415 44.3077V30.7639C27.0415 30.6589 27.1276 30.5727 27.2326 30.5727H30.8202C30.9253 30.5727 31.0114 30.6589 31.0114 30.7639V44.3077Z" fill="url(#paint0_linear_33896_10133)"/>
</g>
<path d="M1005.75 38.25V33H1004.25V38.25H999V39.75H1004.25V45H1005.75V39.75H1011V38.25H1005.75Z" fill="#525965"/>
<path d="M1036.49 44H1035.02L1029.68 35.698H1029.62C1029.64 35.9127 1029.65 36.1693 1029.66 36.468C1029.68 36.7573 1029.7 37.07 1029.7 37.406C1029.72 37.7327 1029.73 38.0687 1029.73 38.414V44H1028.57V34.004H1030.03L1035.36 42.278H1035.42C1035.41 42.1287 1035.39 41.9047 1035.37 41.606C1035.37 41.3073 1035.35 40.9807 1035.33 40.626C1035.32 40.2713 1035.32 39.9447 1035.32 39.646V34.004H1036.49V44ZM1041.94 36.356C1042.58 36.356 1043.13 36.496 1043.59 36.776C1044.06 37.056 1044.41 37.4527 1044.65 37.966C1044.91 38.47 1045.03 39.0627 1045.03 39.744V40.486H1039.89C1039.91 41.3353 1040.13 41.984 1040.54 42.432C1040.96 42.8707 1041.54 43.09 1042.29 43.09C1042.76 43.09 1043.18 43.048 1043.55 42.964C1043.92 42.8707 1044.3 42.74 1044.7 42.572V43.65C1044.31 43.818 1043.93 43.9393 1043.56 44.014C1043.19 44.098 1042.74 44.14 1042.23 44.14C1041.52 44.14 1040.89 43.9953 1040.34 43.706C1039.8 43.4167 1039.38 42.9873 1039.07 42.418C1038.77 41.8393 1038.62 41.1347 1038.62 40.304C1038.62 39.4827 1038.75 38.778 1039.03 38.19C1039.31 37.602 1039.69 37.1493 1040.19 36.832C1040.69 36.5147 1041.27 36.356 1041.94 36.356ZM1041.92 37.364C1041.34 37.364 1040.87 37.5553 1040.52 37.938C1040.19 38.3113 1039.99 38.834 1039.92 39.506H1043.74C1043.74 39.0767 1043.68 38.7033 1043.55 38.386C1043.42 38.0687 1043.22 37.8213 1042.95 37.644C1042.68 37.4573 1042.34 37.364 1041.92 37.364ZM1051.51 39.758C1051.46 39.562 1051.4 39.3707 1051.34 39.184C1051.29 38.988 1051.24 38.806 1051.19 38.638C1051.15 38.4607 1051.12 38.2973 1051.08 38.148C1051.04 37.9987 1051.01 37.8727 1050.99 37.77H1050.94C1050.92 37.8727 1050.89 37.9987 1050.85 38.148C1050.83 38.2973 1050.79 38.4607 1050.74 38.638C1050.71 38.8153 1050.66 39.002 1050.6 39.198C1050.56 39.3847 1050.5 39.576 1050.43 39.772L1049.09 43.986H1047.69L1045.63 36.482H1046.91L1047.94 40.486C1048.02 40.7567 1048.09 41.032 1048.15 41.312C1048.22 41.5827 1048.27 41.844 1048.32 42.096C1048.38 42.3387 1048.41 42.5487 1048.43 42.726H1048.49C1048.52 42.614 1048.55 42.474 1048.59 42.306C1048.62 42.138 1048.66 41.9607 1048.7 41.774C1048.75 41.5873 1048.79 41.4007 1048.84 41.214C1048.89 41.0273 1048.95 40.8593 1048.99 40.71L1050.32 36.482H1051.67L1052.95 40.71C1053.02 40.9247 1053.09 41.1533 1053.15 41.396C1053.23 41.6387 1053.29 41.8767 1053.35 42.11C1053.4 42.334 1053.44 42.5347 1053.46 42.712H1053.51C1053.53 42.5533 1053.57 42.3573 1053.61 42.124C1053.67 41.8813 1053.73 41.62 1053.79 41.34C1053.87 41.0507 1053.94 40.766 1054.02 40.486L1055.07 36.482H1056.33L1054.24 43.986H1052.8L1051.51 39.758ZM1064.15 36.37C1065.07 36.37 1065.74 36.5707 1066.18 36.972C1066.62 37.3733 1066.84 38.0127 1066.84 38.89V44H1065.95L1065.71 42.936H1065.65C1065.44 43.2067 1065.21 43.4353 1064.98 43.622C1064.76 43.7993 1064.49 43.93 1064.2 44.014C1063.91 44.098 1063.55 44.14 1063.13 44.14C1062.68 44.14 1062.28 44.0607 1061.91 43.902C1061.56 43.7433 1061.28 43.5007 1061.07 43.174C1060.87 42.838 1060.77 42.418 1060.77 41.914C1060.77 41.1673 1061.06 40.5933 1061.65 40.192C1062.24 39.7813 1063.14 39.5573 1064.36 39.52L1065.64 39.478V39.03C1065.64 38.4047 1065.5 37.9707 1065.23 37.728C1064.96 37.4853 1064.58 37.364 1064.08 37.364C1063.69 37.364 1063.32 37.4247 1062.96 37.546C1062.61 37.658 1062.28 37.7887 1061.97 37.938L1061.59 37.014C1061.92 36.8367 1062.31 36.6873 1062.75 36.566C1063.2 36.4353 1063.67 36.37 1064.15 36.37ZM1064.52 40.374C1063.58 40.4113 1062.94 40.5607 1062.57 40.822C1062.22 41.0833 1062.04 41.452 1062.04 41.928C1062.04 42.348 1062.17 42.656 1062.42 42.852C1062.68 43.048 1063.01 43.146 1063.41 43.146C1064.05 43.146 1064.57 42.9733 1064.99 42.628C1065.41 42.2733 1065.62 41.732 1065.62 41.004V40.332L1064.52 40.374ZM1072.73 36.356C1073.65 36.356 1074.39 36.678 1074.95 37.322C1075.52 37.966 1075.81 38.9367 1075.81 40.234C1075.81 41.0833 1075.68 41.802 1075.42 42.39C1075.16 42.9687 1074.81 43.4073 1074.34 43.706C1073.88 43.9953 1073.34 44.14 1072.71 44.14C1072.33 44.14 1071.99 44.0887 1071.69 43.986C1071.39 43.8833 1071.14 43.7527 1070.92 43.594C1070.72 43.426 1070.54 43.244 1070.39 43.048H1070.31C1070.33 43.2067 1070.34 43.4073 1070.36 43.65C1070.38 43.8927 1070.39 44.1027 1070.39 44.28V47.36H1069.16V36.496H1070.17L1070.33 37.518H1070.39C1070.54 37.3033 1070.72 37.1073 1070.92 36.93C1071.14 36.7527 1071.39 36.6127 1071.68 36.51C1071.98 36.4073 1072.33 36.356 1072.73 36.356ZM1072.5 37.392C1072 37.392 1071.59 37.49 1071.29 37.686C1070.98 37.8727 1070.75 38.1573 1070.61 38.54C1070.47 38.9227 1070.4 39.408 1070.39 39.996V40.234C1070.39 40.85 1070.46 41.3727 1070.59 41.802C1070.72 42.2313 1070.94 42.558 1071.24 42.782C1071.56 43.006 1071.99 43.118 1072.53 43.118C1072.99 43.118 1073.36 42.992 1073.65 42.74C1073.95 42.488 1074.17 42.1473 1074.31 41.718C1074.46 41.2793 1074.53 40.78 1074.53 40.22C1074.53 39.3613 1074.37 38.6753 1074.03 38.162C1073.7 37.6487 1073.2 37.392 1072.5 37.392ZM1081.34 36.356C1082.27 36.356 1083.01 36.678 1083.57 37.322C1084.14 37.966 1084.42 38.9367 1084.42 40.234C1084.42 41.0833 1084.29 41.802 1084.03 42.39C1083.78 42.9687 1083.42 43.4073 1082.95 43.706C1082.49 43.9953 1081.95 44.14 1081.33 44.14C1080.95 44.14 1080.6 44.0887 1080.31 43.986C1080.01 43.8833 1079.75 43.7527 1079.54 43.594C1079.33 43.426 1079.15 43.244 1079 43.048H1078.92C1078.94 43.2067 1078.96 43.4073 1078.98 43.65C1078.99 43.8927 1079 44.1027 1079 44.28V47.36H1077.77V36.496H1078.78L1078.95 37.518H1079C1079.15 37.3033 1079.33 37.1073 1079.54 36.93C1079.75 36.7527 1080 36.6127 1080.29 36.51C1080.59 36.4073 1080.94 36.356 1081.34 36.356ZM1081.12 37.392C1080.61 37.392 1080.21 37.49 1079.9 37.686C1079.59 37.8727 1079.37 38.1573 1079.23 38.54C1079.09 38.9227 1079.01 39.408 1079 39.996V40.234C1079 40.85 1079.07 41.3727 1079.2 41.802C1079.33 42.2313 1079.55 42.558 1079.86 42.782C1080.18 43.006 1080.6 43.118 1081.15 43.118C1081.6 43.118 1081.98 42.992 1082.27 42.74C1082.56 42.488 1082.78 42.1473 1082.92 41.718C1083.07 41.2793 1083.15 40.78 1083.15 40.22C1083.15 39.3613 1082.98 38.6753 1082.64 38.162C1082.32 37.6487 1081.81 37.392 1081.12 37.392ZM1087.62 44H1086.39V33.36H1087.62V44ZM1091.23 36.496V44H1089.99V36.496H1091.23ZM1090.62 33.682C1090.81 33.682 1090.97 33.7473 1091.11 33.878C1091.26 33.9993 1091.34 34.1953 1091.34 34.466C1091.34 34.7273 1091.26 34.9233 1091.11 35.054C1090.97 35.1847 1090.81 35.25 1090.62 35.25C1090.42 35.25 1090.25 35.1847 1090.11 35.054C1089.97 34.9233 1089.9 34.7273 1089.9 34.466C1089.9 34.1953 1089.97 33.9993 1090.11 33.878C1090.25 33.7473 1090.42 33.682 1090.62 33.682ZM1096.61 44.14C1095.95 44.14 1095.36 44.0047 1094.84 43.734C1094.32 43.4633 1093.92 43.0433 1093.62 42.474C1093.33 41.9047 1093.18 41.1767 1093.18 40.29C1093.18 39.366 1093.34 38.6147 1093.65 38.036C1093.95 37.4573 1094.37 37.0327 1094.89 36.762C1095.42 36.4913 1096.03 36.356 1096.7 36.356C1097.08 36.356 1097.45 36.398 1097.8 36.482C1098.16 36.5567 1098.45 36.65 1098.67 36.762L1098.29 37.784C1098.07 37.7 1097.81 37.6207 1097.51 37.546C1097.21 37.4713 1096.93 37.434 1096.67 37.434C1096.17 37.434 1095.75 37.5413 1095.42 37.756C1095.1 37.9707 1094.85 38.288 1094.7 38.708C1094.54 39.128 1094.46 39.6507 1094.46 40.276C1094.46 40.8733 1094.54 41.382 1094.7 41.802C1094.85 42.222 1095.09 42.5393 1095.41 42.754C1095.73 42.9687 1096.12 43.076 1096.6 43.076C1097.01 43.076 1097.37 43.034 1097.68 42.95C1098 42.866 1098.28 42.7633 1098.55 42.642V43.734C1098.29 43.8647 1098.01 43.9627 1097.71 44.028C1097.41 44.1027 1097.04 44.14 1096.61 44.14ZM1103.17 36.37C1104.09 36.37 1104.76 36.5707 1105.2 36.972C1105.64 37.3733 1105.86 38.0127 1105.86 38.89V44H1104.96L1104.73 42.936H1104.67C1104.46 43.2067 1104.23 43.4353 1104 43.622C1103.77 43.7993 1103.51 43.93 1103.21 44.014C1102.93 44.098 1102.57 44.14 1102.15 44.14C1101.7 44.14 1101.3 44.0607 1100.93 43.902C1100.58 43.7433 1100.3 43.5007 1100.09 43.174C1099.89 42.838 1099.78 42.418 1099.78 41.914C1099.78 41.1673 1100.08 40.5933 1100.67 40.192C1101.25 39.7813 1102.16 39.5573 1103.38 39.52L1104.66 39.478V39.03C1104.66 38.4047 1104.52 37.9707 1104.25 37.728C1103.98 37.4853 1103.6 37.364 1103.1 37.364C1102.71 37.364 1102.34 37.4247 1101.98 37.546C1101.63 37.658 1101.3 37.7887 1100.99 37.938L1100.61 37.014C1100.94 36.8367 1101.32 36.6873 1101.77 36.566C1102.22 36.4353 1102.69 36.37 1103.17 36.37ZM1103.54 40.374C1102.6 40.4113 1101.95 40.5607 1101.59 40.822C1101.24 41.0833 1101.06 41.452 1101.06 41.928C1101.06 42.348 1101.18 42.656 1101.44 42.852C1101.7 43.048 1102.03 43.146 1102.43 43.146C1103.07 43.146 1103.59 42.9733 1104.01 42.628C1104.43 42.2733 1104.64 41.732 1104.64 41.004V40.332L1103.54 40.374ZM1110.68 43.132C1110.87 43.132 1111.06 43.118 1111.26 43.09C1111.45 43.0527 1111.61 43.0153 1111.73 42.978V43.916C1111.6 43.9813 1111.42 44.0327 1111.17 44.07C1110.93 44.1167 1110.7 44.14 1110.47 44.14C1110.08 44.14 1109.72 44.0747 1109.38 43.944C1109.06 43.804 1108.79 43.566 1108.58 43.23C1108.38 42.894 1108.28 42.4227 1108.28 41.816V37.448H1107.21V36.86L1108.29 36.37L1108.78 34.774H1109.51V36.496H1111.68V37.448H1109.51V41.788C1109.51 42.2453 1109.62 42.586 1109.83 42.81C1110.05 43.0247 1110.34 43.132 1110.68 43.132ZM1114.47 36.496V44H1113.24V36.496H1114.47ZM1113.87 33.682C1114.05 33.682 1114.22 33.7473 1114.36 33.878C1114.51 33.9993 1114.58 34.1953 1114.58 34.466C1114.58 34.7273 1114.51 34.9233 1114.36 35.054C1114.22 35.1847 1114.05 35.25 1113.87 35.25C1113.66 35.25 1113.49 35.1847 1113.35 35.054C1113.21 34.9233 1113.14 34.7273 1113.14 34.466C1113.14 34.1953 1113.21 33.9993 1113.35 33.878C1113.49 33.7473 1113.66 33.682 1113.87 33.682ZM1123.37 40.234C1123.37 40.8593 1123.29 41.4147 1123.12 41.9C1122.96 42.376 1122.73 42.782 1122.42 43.118C1122.12 43.454 1121.75 43.7107 1121.31 43.888C1120.88 44.056 1120.4 44.14 1119.87 44.14C1119.38 44.14 1118.92 44.056 1118.5 43.888C1118.08 43.7107 1117.71 43.454 1117.41 43.118C1117.1 42.782 1116.86 42.376 1116.68 41.9C1116.51 41.4147 1116.43 40.8593 1116.43 40.234C1116.43 39.4033 1116.57 38.7033 1116.85 38.134C1117.13 37.5553 1117.53 37.1167 1118.05 36.818C1118.57 36.51 1119.19 36.356 1119.91 36.356C1120.59 36.356 1121.19 36.51 1121.7 36.818C1122.23 37.1167 1122.63 37.5553 1122.92 38.134C1123.22 38.7033 1123.37 39.4033 1123.37 40.234ZM1117.7 40.234C1117.7 40.822 1117.77 41.3353 1117.92 41.774C1118.08 42.2033 1118.33 42.5347 1118.65 42.768C1118.98 43.0013 1119.39 43.118 1119.9 43.118C1120.4 43.118 1120.82 43.0013 1121.14 42.768C1121.47 42.5347 1121.71 42.2033 1121.86 41.774C1122.02 41.3353 1122.1 40.822 1122.1 40.234C1122.1 39.6367 1122.02 39.128 1121.86 38.708C1121.7 38.288 1121.46 37.966 1121.13 37.742C1120.81 37.5087 1120.4 37.392 1119.88 37.392C1119.12 37.392 1118.56 37.644 1118.22 38.148C1117.87 38.652 1117.7 39.3473 1117.7 40.234ZM1128.93 36.356C1129.83 36.356 1130.51 36.5753 1130.96 37.014C1131.42 37.4433 1131.65 38.1433 1131.65 39.114V44H1130.43V39.198C1130.43 38.5913 1130.3 38.1387 1130.03 37.84C1129.76 37.5413 1129.33 37.392 1128.75 37.392C1127.92 37.392 1127.35 37.6253 1127.03 38.092C1126.71 38.5587 1126.55 39.2307 1126.55 40.108V44H1125.32V36.496H1126.32L1126.5 37.518H1126.57C1126.74 37.2567 1126.94 37.042 1127.18 36.874C1127.44 36.6967 1127.71 36.566 1128.01 36.482C1128.31 36.398 1128.62 36.356 1128.93 36.356Z" fill="#525965"/>
<path d="M1166 28.5C1163.92 28.5 1161.89 29.1158 1160.17 30.2696C1158.44 31.4233 1157.09 33.0632 1156.3 34.9818C1155.5 36.9004 1155.3 39.0116 1155.7 41.0484C1156.11 43.0852 1157.11 44.9562 1158.58 46.4246C1160.04 47.8931 1161.91 48.8931 1163.95 49.2983C1165.99 49.7034 1168.1 49.4955 1170.02 48.7008C1171.94 47.906 1173.58 46.5602 1174.73 44.8335C1175.88 43.1067 1176.5 41.0767 1176.5 39C1176.5 36.2152 1175.39 33.5445 1173.42 31.5754C1171.46 29.6063 1168.78 28.5 1166 28.5ZM1166 48C1164.22 48 1162.48 47.4722 1161 46.4832C1159.52 45.4942 1158.37 44.0887 1157.69 42.4441C1157 40.7996 1156.83 38.99 1157.17 37.2442C1157.52 35.4984 1158.38 33.8947 1159.64 32.636C1160.89 31.3774 1162.5 30.5202 1164.24 30.1729C1165.99 29.8257 1167.8 30.0039 1169.44 30.6851C1171.09 31.3663 1172.49 32.5198 1173.48 33.9999C1174.47 35.4799 1175 37.22 1175 39C1175 41.3869 1174.05 43.6761 1172.36 45.3639C1170.68 47.0519 1168.39 48 1166 48Z" fill="#32373F"/>
<path d="M1166 45.75C1166.62 45.75 1167.12 45.2463 1167.12 44.625C1167.12 44.0037 1166.62 43.5 1166 43.5C1165.38 43.5 1164.88 44.0037 1164.88 44.625C1164.88 45.2463 1165.38 45.75 1166 45.75Z" fill="#525965"/>
<path d="M1166.75 33H1165.63C1165.18 32.999 1164.74 33.0856 1164.33 33.2549C1163.92 33.4242 1163.55 33.6727 1163.24 33.9863C1162.92 34.2999 1162.67 34.6724 1162.5 35.0823C1162.34 35.4922 1162.25 35.9315 1162.25 36.375V36.75H1163.75V36.375C1163.75 35.8777 1163.95 35.4008 1164.3 35.0492C1164.65 34.6976 1165.13 34.5 1165.63 34.5H1166.75C1167.25 34.5 1167.72 34.6976 1168.08 35.0492C1168.43 35.4008 1168.63 35.8777 1168.63 36.375C1168.63 36.8723 1168.43 37.3492 1168.08 37.7008C1167.72 38.0525 1167.25 38.25 1166.75 38.25H1165.25V41.625H1166.75V39.75C1167.65 39.75 1168.5 39.3944 1169.14 38.7615C1169.77 38.1286 1170.13 37.2701 1170.13 36.375C1170.13 35.4799 1169.77 34.6215 1169.14 33.9885C1168.5 33.3556 1167.65 33 1166.75 33Z" fill="#525965"/>
<path d="M1230.53 41.3409L1228.5 39.43V36.8988C1228.5 35.1496 1227.81 33.4634 1226.56 32.1661C1225.31 30.8689 1223.6 30.0529 1221.75 29.8758V28.4282H1220.25V29.8758C1218.4 30.0529 1216.69 30.8689 1215.44 32.1661C1214.19 33.4634 1213.5 35.1496 1213.5 36.8988V39.43L1211.47 41.3409C1211.33 41.4733 1211.25 41.6528 1211.25 41.84V43.9576C1211.25 44.1448 1211.33 44.3244 1211.47 44.4568C1211.61 44.5891 1211.8 44.6635 1212 44.6635H1217.25V45.2118C1217.23 46.1073 1217.57 46.9769 1218.19 47.654C1218.81 48.3313 1219.68 48.7683 1220.62 48.8816C1221.15 48.9303 1221.67 48.8756 1222.17 48.7213C1222.67 48.567 1223.13 48.3164 1223.51 47.9857C1223.9 47.6549 1224.21 47.2513 1224.43 46.8006C1224.64 46.35 1224.75 45.8625 1224.75 45.3694V44.6635H1230C1230.2 44.6635 1230.39 44.5891 1230.53 44.4568C1230.67 44.3244 1230.75 44.1448 1230.75 43.9576V41.84C1230.75 41.6528 1230.67 41.4733 1230.53 41.3409ZM1223.25 45.3694C1223.25 45.931 1223.01 46.4697 1222.59 46.8668C1222.17 47.264 1221.6 47.487 1221 47.487C1220.4 47.487 1219.83 47.264 1219.41 46.8668C1218.99 46.4697 1218.75 45.931 1218.75 45.3694V44.6635H1223.25V45.3694ZM1229.25 43.2517H1212.75V42.1323L1214.78 40.2214C1214.92 40.089 1215 39.9095 1215 39.7223V36.8988C1215 35.4011 1215.63 33.9648 1216.76 32.9057C1217.88 31.8467 1219.41 31.2518 1221 31.2518C1222.59 31.2518 1224.12 31.8467 1225.24 32.9057C1226.37 33.9648 1227 35.4011 1227 36.8988V39.7223C1227 39.9095 1227.08 40.089 1227.22 40.2214L1229.25 42.1323V43.2517Z" fill="#32373F"/>
<rect x="1262" y="23" width="32" height="32" rx="16" fill="#54622C"/>
<path d="M1275.22 41.66C1275.22 42.164 1275.1 42.6 1274.85 42.968C1274.6 43.336 1274.24 43.62 1273.77 43.82C1273.31 44.02 1272.75 44.12 1272.1 44.12C1271.79 44.12 1271.49 44.1 1271.2 44.06C1270.92 44.028 1270.66 43.976 1270.4 43.904C1270.15 43.832 1269.92 43.744 1269.7 43.64V42.2C1270.06 42.36 1270.46 42.508 1270.89 42.644C1271.32 42.772 1271.76 42.836 1272.21 42.836C1272.56 42.836 1272.84 42.792 1273.05 42.704C1273.28 42.608 1273.44 42.48 1273.54 42.32C1273.65 42.152 1273.7 41.96 1273.7 41.744C1273.7 41.504 1273.63 41.3 1273.5 41.132C1273.36 40.964 1273.16 40.808 1272.9 40.664C1272.63 40.52 1272.3 40.368 1271.91 40.208C1271.65 40.096 1271.39 39.972 1271.13 39.836C1270.88 39.692 1270.66 39.52 1270.46 39.32C1270.26 39.12 1270.1 38.884 1269.98 38.612C1269.86 38.34 1269.8 38.02 1269.8 37.652C1269.8 37.164 1269.92 36.744 1270.15 36.392C1270.39 36.04 1270.72 35.772 1271.14 35.588C1271.58 35.404 1272.08 35.312 1272.64 35.312C1273.1 35.312 1273.53 35.36 1273.93 35.456C1274.33 35.552 1274.72 35.688 1275.12 35.864L1274.62 37.1C1274.27 36.948 1273.93 36.828 1273.6 36.74C1273.28 36.652 1272.94 36.608 1272.6 36.608C1272.32 36.608 1272.09 36.652 1271.9 36.74C1271.71 36.82 1271.56 36.936 1271.47 37.088C1271.37 37.24 1271.32 37.416 1271.32 37.616C1271.32 37.848 1271.38 38.044 1271.5 38.204C1271.62 38.364 1271.81 38.516 1272.06 38.66C1272.31 38.796 1272.64 38.952 1273.04 39.128C1273.5 39.328 1273.9 39.536 1274.22 39.752C1274.54 39.968 1274.78 40.228 1274.96 40.532C1275.14 40.836 1275.22 41.212 1275.22 41.66ZM1280.53 44L1278.17 36.98H1278.13C1278.13 37.14 1278.15 37.368 1278.16 37.664C1278.18 37.952 1278.19 38.268 1278.2 38.612C1278.21 38.948 1278.22 39.264 1278.22 39.56V44H1276.84V35.432H1278.98L1281.23 42.164H1281.28L1283.63 35.432H1285.77V44H1284.31V39.488C1284.31 39.216 1284.31 38.92 1284.32 38.6C1284.33 38.272 1284.35 37.964 1284.35 37.676C1284.37 37.38 1284.38 37.152 1284.39 36.992H1284.34L1281.89 44H1280.53Z" fill="white"/>
<path d="M1309.03 41.826C1309.03 42.4233 1308.88 42.932 1308.59 43.352C1308.3 43.7627 1307.89 44.08 1307.35 44.304C1306.82 44.528 1306.19 44.64 1305.46 44.64C1305.08 44.64 1304.73 44.6213 1304.38 44.584C1304.04 44.5467 1303.74 44.4953 1303.46 44.43C1303.18 44.3553 1302.93 44.2667 1302.71 44.164V42.96C1303.05 43.1093 1303.47 43.2447 1303.96 43.366C1304.46 43.4873 1304.98 43.548 1305.51 43.548C1306.01 43.548 1306.42 43.4827 1306.76 43.352C1307.1 43.2213 1307.35 43.0347 1307.52 42.792C1307.68 42.5493 1307.77 42.2647 1307.77 41.938C1307.77 41.6113 1307.7 41.336 1307.56 41.112C1307.42 40.888 1307.18 40.6827 1306.83 40.496C1306.49 40.3 1306.02 40.0947 1305.42 39.88C1304.99 39.7213 1304.61 39.5533 1304.28 39.376C1303.96 39.1893 1303.7 38.9793 1303.48 38.746C1303.27 38.5127 1303.11 38.2467 1302.99 37.948C1302.89 37.6493 1302.84 37.304 1302.84 36.912C1302.84 36.38 1302.98 35.9273 1303.25 35.554C1303.52 35.1713 1303.89 34.8773 1304.37 34.672C1304.85 34.4667 1305.41 34.364 1306.03 34.364C1306.58 34.364 1307.09 34.4153 1307.54 34.518C1308 34.6207 1308.42 34.756 1308.79 34.924L1308.4 36.002C1308.05 35.8527 1307.67 35.7267 1307.26 35.624C1306.86 35.5213 1306.44 35.47 1306 35.47C1305.58 35.47 1305.23 35.5307 1304.95 35.652C1304.67 35.7733 1304.46 35.946 1304.32 36.17C1304.18 36.3847 1304.11 36.6367 1304.11 36.926C1304.11 37.262 1304.18 37.542 1304.32 37.766C1304.46 37.99 1304.69 38.1907 1305.01 38.368C1305.33 38.5453 1305.76 38.7367 1306.3 38.942C1306.89 39.1567 1307.38 39.39 1307.78 39.642C1308.19 39.8847 1308.5 40.1787 1308.71 40.524C1308.92 40.8693 1309.03 41.3033 1309.03 41.826ZM1313.88 44.64C1313.22 44.64 1312.63 44.5047 1312.11 44.234C1311.59 43.9633 1311.19 43.5433 1310.89 42.974C1310.6 42.4047 1310.45 41.6767 1310.45 40.79C1310.45 39.866 1310.61 39.1147 1310.92 38.536C1311.22 37.9573 1311.64 37.5327 1312.16 37.262C1312.69 36.9913 1313.3 36.856 1313.97 36.856C1314.35 36.856 1314.72 36.898 1315.07 36.982C1315.43 37.0567 1315.72 37.15 1315.94 37.262L1315.56 38.284C1315.34 38.2 1315.08 38.1207 1314.78 38.046C1314.48 37.9713 1314.2 37.934 1313.94 37.934C1313.44 37.934 1313.02 38.0413 1312.69 38.256C1312.37 38.4707 1312.12 38.788 1311.97 39.208C1311.81 39.628 1311.73 40.1507 1311.73 40.776C1311.73 41.3733 1311.81 41.882 1311.97 42.302C1312.12 42.722 1312.36 43.0393 1312.68 43.254C1313 43.4687 1313.39 43.576 1313.87 43.576C1314.28 43.576 1314.64 43.534 1314.95 43.45C1315.26 43.366 1315.55 43.2633 1315.82 43.142V44.234C1315.56 44.3647 1315.28 44.4627 1314.98 44.528C1314.68 44.6027 1314.31 44.64 1313.88 44.64ZM1324.12 40.734C1324.12 41.3593 1324.04 41.9147 1323.87 42.4C1323.71 42.876 1323.48 43.282 1323.17 43.618C1322.87 43.954 1322.5 44.2107 1322.07 44.388C1321.64 44.556 1321.16 44.64 1320.62 44.64C1320.13 44.64 1319.67 44.556 1319.25 44.388C1318.83 44.2107 1318.47 43.954 1318.16 43.618C1317.85 43.282 1317.61 42.876 1317.43 42.4C1317.26 41.9147 1317.18 41.3593 1317.18 40.734C1317.18 39.9033 1317.32 39.2033 1317.6 38.634C1317.88 38.0553 1318.28 37.6167 1318.8 37.318C1319.33 37.01 1319.95 36.856 1320.67 36.856C1321.35 36.856 1321.94 37.01 1322.46 37.318C1322.98 37.6167 1323.39 38.0553 1323.68 38.634C1323.97 39.2033 1324.12 39.9033 1324.12 40.734ZM1318.45 40.734C1318.45 41.322 1318.53 41.8353 1318.68 42.274C1318.84 42.7033 1319.08 43.0347 1319.41 43.268C1319.73 43.5013 1320.15 43.618 1320.65 43.618C1321.16 43.618 1321.57 43.5013 1321.9 43.268C1322.22 43.0347 1322.46 42.7033 1322.61 42.274C1322.77 41.8353 1322.85 41.322 1322.85 40.734C1322.85 40.1367 1322.77 39.628 1322.61 39.208C1322.45 38.788 1322.21 38.466 1321.88 38.242C1321.57 38.0087 1321.15 37.892 1320.64 37.892C1319.87 37.892 1319.32 38.144 1318.97 38.648C1318.63 39.152 1318.45 39.8473 1318.45 40.734ZM1328.58 43.632C1328.77 43.632 1328.96 43.618 1329.16 43.59C1329.35 43.5527 1329.51 43.5153 1329.63 43.478V44.416C1329.5 44.4813 1329.32 44.5327 1329.07 44.57C1328.83 44.6167 1328.6 44.64 1328.37 44.64C1327.98 44.64 1327.62 44.5747 1327.28 44.444C1326.95 44.304 1326.69 44.066 1326.48 43.73C1326.28 43.394 1326.17 42.9227 1326.17 42.316V37.948H1325.11V37.36L1326.19 36.87L1326.68 35.274H1327.41V36.996H1329.58V37.948H1327.41V42.288C1327.41 42.7453 1327.51 43.086 1327.73 43.31C1327.95 43.5247 1328.24 43.632 1328.58 43.632ZM1333.64 43.632C1333.83 43.632 1334.02 43.618 1334.22 43.59C1334.41 43.5527 1334.57 43.5153 1334.69 43.478V44.416C1334.56 44.4813 1334.37 44.5327 1334.13 44.57C1333.89 44.6167 1333.66 44.64 1333.43 44.64C1333.04 44.64 1332.68 44.5747 1332.34 44.444C1332.01 44.304 1331.75 44.066 1331.54 43.73C1331.34 43.394 1331.23 42.9227 1331.23 42.316V37.948H1330.17V37.36L1331.25 36.87L1331.74 35.274H1332.47V36.996H1334.64V37.948H1332.47V42.288C1332.47 42.7453 1332.57 43.086 1332.79 43.31C1333.01 43.5247 1333.3 43.632 1333.64 43.632ZM1344.41 44.5L1341.12 35.736H1341.06C1341.08 35.9227 1341.1 36.1607 1341.1 36.45C1341.12 36.7393 1341.14 37.0567 1341.15 37.402C1341.16 37.738 1341.16 38.0833 1341.16 38.438V44.5H1340V34.504H1341.86L1344.94 42.694H1345L1348.13 34.504H1349.98V44.5H1348.73V38.354C1348.73 38.0273 1348.74 37.7053 1348.75 37.388C1348.76 37.0613 1348.77 36.758 1348.79 36.478C1348.81 36.1887 1348.82 35.946 1348.83 35.75H1348.78L1345.44 44.5H1344.41ZM1355.37 36.87C1356.29 36.87 1356.97 37.0707 1357.4 37.472C1357.84 37.8733 1358.06 38.5127 1358.06 39.39V44.5H1357.17L1356.93 43.436H1356.87C1356.66 43.7067 1356.43 43.9353 1356.2 44.122C1355.98 44.2993 1355.71 44.43 1355.42 44.514C1355.13 44.598 1354.77 44.64 1354.35 44.64C1353.9 44.64 1353.5 44.5607 1353.13 44.402C1352.78 44.2433 1352.5 44.0007 1352.29 43.674C1352.09 43.338 1351.99 42.918 1351.99 42.414C1351.99 41.6673 1352.28 41.0933 1352.87 40.692C1353.46 40.2813 1354.36 40.0573 1355.58 40.02L1356.86 39.978V39.53C1356.86 38.9047 1356.72 38.4707 1356.45 38.228C1356.18 37.9853 1355.8 37.864 1355.3 37.864C1354.91 37.864 1354.54 37.9247 1354.18 38.046C1353.83 38.158 1353.5 38.2887 1353.19 38.438L1352.81 37.514C1353.14 37.3367 1353.53 37.1873 1353.97 37.066C1354.42 36.9353 1354.89 36.87 1355.37 36.87ZM1355.74 40.874C1354.8 40.9113 1354.16 41.0607 1353.79 41.322C1353.44 41.5833 1353.26 41.952 1353.26 42.428C1353.26 42.848 1353.39 43.156 1353.64 43.352C1353.9 43.548 1354.23 43.646 1354.63 43.646C1355.27 43.646 1355.79 43.4733 1356.21 43.128C1356.63 42.7733 1356.84 42.232 1356.84 41.504V40.832L1355.74 40.874ZM1363.88 36.856C1364.02 36.856 1364.17 36.8653 1364.33 36.884C1364.5 36.8933 1364.64 36.912 1364.76 36.94L1364.61 38.074C1364.49 38.046 1364.35 38.0227 1364.2 38.004C1364.06 37.9853 1363.93 37.976 1363.8 37.976C1363.51 37.976 1363.23 38.0367 1362.97 38.158C1362.71 38.2793 1362.47 38.452 1362.27 38.676C1362.06 38.8907 1361.9 39.152 1361.78 39.46C1361.67 39.768 1361.61 40.1133 1361.61 40.496V44.5H1360.38V36.996H1361.39L1361.53 38.368H1361.58C1361.74 38.088 1361.93 37.836 1362.16 37.612C1362.38 37.3787 1362.64 37.1967 1362.93 37.066C1363.22 36.926 1363.53 36.856 1363.88 36.856ZM1371.05 42.428C1371.05 42.9133 1370.93 43.3193 1370.68 43.646C1370.44 43.9727 1370.1 44.22 1369.65 44.388C1369.2 44.556 1368.67 44.64 1368.05 44.64C1367.53 44.64 1367.08 44.598 1366.69 44.514C1366.32 44.43 1365.99 44.3133 1365.7 44.164V43.044C1366 43.1933 1366.36 43.3333 1366.78 43.464C1367.21 43.5853 1367.64 43.646 1368.08 43.646C1368.71 43.646 1369.16 43.548 1369.44 43.352C1369.72 43.1467 1369.86 42.876 1369.86 42.54C1369.86 42.3533 1369.81 42.1853 1369.7 42.036C1369.6 41.8867 1369.42 41.7373 1369.14 41.588C1368.88 41.4387 1368.51 41.2707 1368.01 41.084C1367.53 40.8973 1367.11 40.7107 1366.76 40.524C1366.42 40.3373 1366.15 40.1133 1365.97 39.852C1365.78 39.5907 1365.69 39.2547 1365.69 38.844C1365.69 38.2093 1365.94 37.7193 1366.46 37.374C1366.98 37.0287 1367.66 36.856 1368.5 36.856C1368.96 36.856 1369.38 36.9027 1369.77 36.996C1370.18 37.08 1370.55 37.2013 1370.89 37.36L1370.47 38.34C1370.16 38.2093 1369.83 38.0973 1369.48 38.004C1369.14 37.9107 1368.78 37.864 1368.42 37.864C1367.91 37.864 1367.53 37.948 1367.25 38.116C1366.99 38.2747 1366.86 38.494 1366.86 38.774C1366.86 38.9793 1366.92 39.1567 1367.04 39.306C1367.17 39.446 1367.37 39.586 1367.65 39.726C1367.94 39.8567 1368.32 40.0153 1368.79 40.202C1369.27 40.3793 1369.68 40.5613 1370.01 40.748C1370.35 40.9347 1370.61 41.1633 1370.78 41.434C1370.96 41.6953 1371.05 42.0267 1371.05 42.428ZM1374.09 36.982C1374.09 37.1593 1374.08 37.3413 1374.07 37.528C1374.06 37.7147 1374.04 37.8827 1374.02 38.032H1374.11C1374.27 37.7707 1374.47 37.556 1374.71 37.388C1374.95 37.22 1375.22 37.094 1375.52 37.01C1375.82 36.9167 1376.13 36.87 1376.45 36.87C1377.05 36.87 1377.56 36.968 1377.96 37.164C1378.37 37.3507 1378.68 37.6447 1378.88 38.046C1379.09 38.4473 1379.19 38.97 1379.19 39.614V44.5H1377.97V39.698C1377.97 39.0913 1377.84 38.6387 1377.57 38.34C1377.3 38.0413 1376.87 37.892 1376.29 37.892C1375.73 37.892 1375.29 37.9993 1374.98 38.214C1374.66 38.4193 1374.43 38.7273 1374.29 39.138C1374.16 39.5393 1374.09 40.034 1374.09 40.622V44.5H1372.86V33.86H1374.09V36.982ZM1384.36 36.87C1385.27 36.87 1385.95 37.0707 1386.39 37.472C1386.83 37.8733 1387.05 38.5127 1387.05 39.39V44.5H1386.15L1385.91 43.436H1385.86C1385.64 43.7067 1385.42 43.9353 1385.18 44.122C1384.96 44.2993 1384.7 44.43 1384.4 44.514C1384.11 44.598 1383.76 44.64 1383.34 44.64C1382.89 44.64 1382.48 44.5607 1382.12 44.402C1381.76 44.2433 1381.48 44.0007 1381.28 43.674C1381.07 43.338 1380.97 42.918 1380.97 42.414C1380.97 41.6673 1381.26 41.0933 1381.85 40.692C1382.44 40.2813 1383.35 40.0573 1384.57 40.02L1385.84 39.978V39.53C1385.84 38.9047 1385.71 38.4707 1385.44 38.228C1385.17 37.9853 1384.78 37.864 1384.29 37.864C1383.9 37.864 1383.52 37.9247 1383.17 38.046C1382.81 38.158 1382.48 38.2887 1382.17 38.438L1381.8 37.514C1382.12 37.3367 1382.51 37.1873 1382.96 37.066C1383.41 36.9353 1383.87 36.87 1384.36 36.87ZM1384.72 40.874C1383.79 40.9113 1383.14 41.0607 1382.78 41.322C1382.42 41.5833 1382.24 41.952 1382.24 42.428C1382.24 42.848 1382.37 43.156 1382.62 43.352C1382.88 43.548 1383.21 43.646 1383.62 43.646C1384.25 43.646 1384.78 43.4733 1385.2 43.128C1385.62 42.7733 1385.83 42.232 1385.83 41.504V40.832L1384.72 40.874ZM1390.6 44.5H1389.36V33.86H1390.6V44.5ZM1394.21 44.5H1392.97V33.86H1394.21V44.5Z" fill="#525965"/>
<path d="M1410 42.7498L1403.75 36.4998L1404.63 35.6248L1410 40.9998L1415.38 35.6248L1416.25 36.4998L1410 42.7498Z" fill="#525965"/>
<line y1="72.5" x2="1440" y2="72.5" stroke="#F5F5F5"/>
<defs>
<linearGradient id="paint0_linear_33896_10133" x1="32.0553" y1="51.464" x2="15.9447" y2="23.5614" gradientUnits="userSpaceOnUse">
<stop stop-color="#77BC4A"/>
<stop offset="0.5" stop-color="#5DA10C"/>
<stop offset="0.76" stop-color="#549809"/>
<stop offset="1" stop-color="#488C07"/>
</linearGradient>
<clipPath id="clip0_33896_10133">
<rect width="190" height="27" fill="white" transform="translate(12 25.5)"/>
</clipPath>
</defs>
</svg>
