<svg width="1440" height="73" viewBox="0 0 1440 73" fill="none" xmlns="http://www.w3.org/2000/svg">
<rect width="1440" height="5" fill="#5DA10C"/>
<rect width="1440" height="68" transform="translate(0 5)" fill="white"/>
<g clip-path="url(#clip0_33896_10137)">
<path fill-rule="evenodd" clip-rule="evenodd" d="M47.1195 31.5953C47.1195 30.808 47.1195 29.4696 48.6119 29.4696C50.1043 29.4696 50.1022 30.808 50.1022 31.5953V43.0919C50.1022 43.703 50.1022 45.2134 48.6119 45.2134C47.1215 45.2134 47.1195 43.703 47.1195 43.0919V31.5953ZM41.9457 42.6257C41.9457 46.759 44.5036 49.183 48.6098 49.183C52.716 49.183 55.2718 46.759 55.2718 42.6257V32.0594C55.2718 27.518 52.4611 25.5 48.6098 25.5C44.7585 25.5 41.9457 27.518 41.9457 32.0594V42.6257Z" fill="#32373F"/>
<path d="M88.3167 44.051C88.3167 46.2326 89.4111 49.1829 94.249 49.1829C99.0869 49.1829 100.181 46.2326 100.181 44.051V40.3922H95.3434V44.4011C95.3434 45.0393 95.3435 45.9136 94.2469 45.9136C93.1504 45.9136 93.1504 45.0393 93.1504 44.4011V34.9412C93.1504 34.301 93.1504 33.4267 94.2469 33.4267C95.3435 33.4267 95.3434 34.301 95.3434 34.9412V37.5993H100.181V35.2913C100.181 33.1076 99.0828 30.1594 94.249 30.1594C89.4152 30.1594 88.3167 33.1076 88.3167 35.2913V44.051Z" fill="#32373F"/>
<path d="M101.58 45.6941C101.58 48.6051 103.187 48.9531 105.268 48.9531H106.418V33.9697H107.625V30.3585H106.418V25.7031H101.58V30.3585H100.37V33.9697H101.58V45.6941Z" fill="#32373F"/>
<path fill-rule="evenodd" clip-rule="evenodd" d="M108.302 48.9697H113.14V30.371H108.302V48.9697ZM108.302 29.1486H113.14V25.7156H108.302V29.1507V29.1486Z" fill="#32373F"/>
<path fill-rule="evenodd" clip-rule="evenodd" d="M116.743 48.9696H122.397L125.685 30.3708H120.849L119.641 42.2735H119.583L118.459 30.3708H113.48L116.743 48.9696Z" fill="#32373F"/>
<path fill-rule="evenodd" clip-rule="evenodd" d="M75.4589 44.051C75.4589 46.2326 76.5533 49.1829 81.3892 49.1829C86.225 49.1829 87.3257 46.2347 87.3257 44.051V42.0724H82.4857V44.4011C82.4857 45.0393 82.4857 45.9136 81.3892 45.9136C80.2926 45.9136 80.2926 45.0393 80.2926 44.4011V40.4129H87.3257V35.2913C87.3257 33.1076 86.2291 30.1594 81.3892 30.1594C76.5492 30.1594 75.4589 33.1076 75.4589 35.2913V44.0531V44.051ZM80.2947 34.9391C80.2947 34.2989 80.2947 33.4267 81.3912 33.4267C82.4877 33.4267 82.4877 34.2989 82.4877 34.9391V36.9778H80.2947V34.9391Z" fill="#32373F"/>
<path fill-rule="evenodd" clip-rule="evenodd" d="M125.513 44.051C125.513 46.2326 126.607 49.1829 131.445 49.1829C136.283 49.1829 137.38 46.2347 137.38 44.051V42.0724H132.544V44.4011C132.544 45.0393 132.544 45.9136 131.447 45.9136C130.351 45.9136 130.351 45.0393 130.351 44.4011V40.4129H137.382V35.2913C137.382 33.1076 136.285 30.1594 131.447 30.1594C126.609 30.1594 125.515 33.1076 125.515 35.2913V44.0531L125.513 44.051ZM130.351 34.9391C130.351 34.2989 130.351 33.4246 131.447 33.4246C132.544 33.4246 132.544 34.2989 132.544 34.9391V36.9778H130.349V34.9391" fill="#32373F"/>
<path fill-rule="evenodd" clip-rule="evenodd" d="M61.3658 44.3765C61.3658 45.0167 61.3658 45.891 62.4623 45.891C63.5588 45.891 63.5609 45.0167 63.5609 44.3765V34.9165C63.5609 34.2763 63.5609 33.402 62.4623 33.402C61.3637 33.402 61.3658 34.2743 61.3658 34.9165L61.3534 44.3765H61.3658ZM61.3534 48.6133V48.9573H56.5175V25.7031H61.3534V30.6009C61.7057 30.3461 62.4354 30.1327 62.8292 30.1327C67.3624 30.1327 68.3947 33.083 68.3947 35.2646V44.0243C68.3947 46.2059 67.3977 49.1562 62.9681 49.1562C62.5742 49.1562 61.7057 48.9759 61.3492 48.6113H61.3534" fill="#32373F"/>
<path d="M69.5246 52.4834L70.6688 52.5C74.0723 52.5 74.3625 50.4199 74.3625 47.625V30.3708H69.5267V52.4834" fill="#32373F"/>
<path d="M69.5246 25.7156H74.3625V29.1486H69.5246V25.7156Z" fill="#32373F"/>
<path d="M152.031 49.1892L145.719 39.5117H145.692L145.702 49.1975H143.86L143.839 30.3087H145.682L145.692 38.7907H145.719L151.635 30.2983H153.797L147.454 39.029L154.273 49.1872H152.031V49.1892Z" fill="#5DA10C"/>
<path d="M156.73 49.1829L156.709 30.292L164.316 30.2837V31.9391L158.525 31.9453L158.533 38.5627L163.951 38.5565V40.158L158.535 40.1642L158.543 47.5026L164.602 47.4964V49.1766L156.73 49.1849V49.1829Z" fill="#5DA10C"/>
<path d="M172.23 41.4011L172.238 49.1663H170.423L170.414 41.4031L165.703 30.2816H167.732L171.32 39.4805L174.966 30.2712H176.968L172.23 41.4011Z" fill="#5DA10C"/>
<path d="M188.4 35.3803C188.4 36.2526 188.274 37.0212 188.017 37.6884C187.76 38.3555 187.417 38.9128 186.99 39.3562C186.563 39.8016 186.07 40.1393 185.511 40.3714C184.951 40.6034 184.366 40.7194 183.763 40.7194L180.988 40.7236L180.998 49.1559H179.155L179.135 30.2671L183.593 30.2629C184.145 30.2629 184.706 30.3417 185.274 30.5012C185.844 30.6607 186.36 30.9404 186.823 31.3403C187.285 31.7401 187.664 32.2685 187.959 32.9273C188.253 33.5861 188.4 34.4024 188.402 35.3824L188.4 35.3803ZM186.559 35.3969C186.559 34.7754 186.479 34.2408 186.317 33.7892C186.155 33.3375 185.933 32.9708 185.647 32.687C185.361 32.4031 185.038 32.196 184.673 32.0634C184.308 31.9308 183.912 31.8645 183.485 31.8645H180.975L180.984 39.1241H183.519C184.354 39.12 185.071 38.8134 185.666 38.2022C186.261 37.591 186.559 36.6545 186.557 35.3969H186.559Z" fill="#5DA10C"/>
<path d="M191.432 49.1455L191.412 30.2546H193.281L193.3 47.4093L198.691 47.4031V49.1372L191.432 49.1455Z" fill="#5DA10C"/>
<path d="M209.051 49.1248L207.899 44.4031L202.078 44.4093L200.882 49.1331H198.988L203.772 30.238H206.307L211 49.1206H209.051V49.1248ZM205.053 31.9204H204.945L202.342 42.9176L207.627 42.9114L205.053 31.9204Z" fill="#5DA10C"/>
<path d="M221.764 49.1104L215.172 33.4018H215.091L215.11 49.1187H213.348L213.328 30.2298H215.649L222.207 45.9363H222.288L222.272 30.2195H223.98L224 49.1083H221.764V49.1104Z" fill="#5DA10C"/>
<rect x="12" y="25.5127" width="24" height="24" rx="1" fill="white"/>
<path d="M35.2312 25.5127H12.7688C12.3466 25.5127 12 25.8593 12 26.2815V48.7439C12 49.1661 12.3466 49.5127 12.7688 49.5127H35.2312C35.6534 49.5127 36 49.1661 36 48.7439V26.2815C36 25.8593 35.6555 25.5127 35.2312 25.5127ZM25.6573 41.6107C25.6573 41.6968 25.5964 41.7683 25.5165 41.7893L17.6503 43.6083C17.6356 43.6125 17.6209 43.6146 17.6062 43.6146C17.5032 43.6146 17.4192 43.5306 17.4192 43.4276V31.623C17.4192 31.623 17.4192 31.6188 17.4192 31.6167C17.4192 31.5137 17.5032 31.4297 17.6062 31.4297C17.6335 31.4297 17.6587 31.436 17.6839 31.4465L21.2568 33.1143V38.7646L25.6573 37.7521V41.6086V41.6107ZM30.3035 43.6125C30.2762 43.6125 30.251 43.6062 30.2258 43.5957L26.6529 41.9636V36.4982L22.2524 37.5106V33.7171C22.2524 33.631 22.3133 33.5596 22.3931 33.5386L30.2594 31.4108C30.2741 31.4066 30.2888 31.4045 30.3035 31.4045C30.4064 31.4045 30.4905 31.4885 30.4905 31.5915V43.4213C30.4905 43.4213 30.4905 43.4255 30.4905 43.4276C30.4905 43.5306 30.4064 43.6146 30.3035 43.6146V43.6125Z" fill="url(#paint0_linear_33896_10137)"/>
</g>
<rect width="653" height="22" transform="translate(236 28)" fill="white"/>
<mask id="path-21-inside-1_33896_10137" fill="white">
<path d="M901 17H980V61H901V17Z"/>
</mask>
<path d="M980 61V58H901V61V64H980V61Z" fill="#3560C1" mask="url(#path-21-inside-1_33896_10137)"/>
<path d="M917.896 35.576C919.379 35.576 920.456 35.8853 921.128 36.504C921.811 37.112 922.152 37.9653 922.152 39.064C922.152 39.7147 922.013 40.3227 921.736 40.888C921.459 41.4533 920.989 41.912 920.328 42.264C919.677 42.616 918.792 42.792 917.672 42.792H916.536V47H914.488V35.576H917.896ZM917.768 37.272H916.536V41.096H917.464C918.296 41.096 918.936 40.9467 919.384 40.648C919.843 40.3387 920.072 39.8373 920.072 39.144C920.072 38.5147 919.885 38.0453 919.512 37.736C919.139 37.4267 918.557 37.272 917.768 37.272ZM928.746 38.168C928.885 38.168 929.04 38.1787 929.21 38.2C929.381 38.2107 929.52 38.2267 929.626 38.248L929.45 40.12C929.344 40.0987 929.21 40.0827 929.05 40.072C928.901 40.0507 928.773 40.04 928.666 40.04C928.24 40.04 927.84 40.1307 927.466 40.312C927.093 40.4827 926.789 40.7493 926.554 41.112C926.33 41.4747 926.218 41.9387 926.218 42.504V47H924.202V38.328H925.754L926.042 39.832H926.138C926.394 39.3733 926.746 38.984 927.194 38.664C927.642 38.3333 928.16 38.168 928.746 38.168ZM938.665 42.648C938.665 44.088 938.292 45.2027 937.545 45.992C936.798 46.7707 935.785 47.16 934.505 47.16C933.716 47.16 933.012 46.984 932.393 46.632C931.774 46.28 931.289 45.768 930.937 45.096C930.585 44.424 930.409 43.608 930.409 42.648C930.409 41.208 930.777 40.104 931.513 39.336C932.26 38.5573 933.273 38.168 934.553 38.168C935.353 38.168 936.062 38.344 936.681 38.696C937.3 39.0373 937.785 39.544 938.137 40.216C938.489 40.8773 938.665 41.688 938.665 42.648ZM932.473 42.648C932.473 43.5653 932.633 44.2747 932.953 44.776C933.284 45.2773 933.812 45.528 934.537 45.528C935.252 45.528 935.774 45.2773 936.105 44.776C936.436 44.2747 936.601 43.5653 936.601 42.648C936.601 41.7307 936.436 41.0267 936.105 40.536C935.774 40.0453 935.246 39.8 934.521 39.8C933.796 39.8 933.273 40.0453 932.953 40.536C932.633 41.0267 932.473 41.7307 932.473 42.648ZM940.637 36.04C940.637 35.6453 940.744 35.3733 940.957 35.224C941.181 35.064 941.448 34.984 941.757 34.984C942.056 34.984 942.317 35.064 942.541 35.224C942.765 35.3733 942.877 35.6453 942.877 36.04C942.877 36.4347 942.765 36.712 942.541 36.872C942.317 37.032 942.056 37.112 941.757 37.112C941.448 37.112 941.181 37.032 940.957 36.872C940.744 36.712 940.637 36.4347 940.637 36.04ZM939.917 50.84C939.65 50.84 939.389 50.8187 939.133 50.776C938.877 50.744 938.658 50.7013 938.477 50.648V49.048C938.658 49.0907 938.834 49.128 939.005 49.16C939.176 49.192 939.368 49.208 939.581 49.208C939.912 49.208 940.189 49.1173 940.413 48.936C940.637 48.7547 940.749 48.3973 940.749 47.864V38.328H942.765V48.072C942.765 48.872 942.541 49.5333 942.093 50.056C941.656 50.5787 940.93 50.84 939.917 50.84ZM948.831 38.168C949.994 38.168 950.911 38.5147 951.583 39.208C952.266 39.9013 952.607 40.8667 952.607 42.104V43.128H946.879C946.9 43.9173 947.119 44.5307 947.535 44.968C947.951 45.3947 948.527 45.608 949.263 45.608C949.818 45.608 950.319 45.5547 950.767 45.448C951.215 45.3307 951.674 45.1653 952.143 44.952V46.568C951.716 46.7707 951.274 46.92 950.815 47.016C950.356 47.112 949.807 47.16 949.167 47.16C948.314 47.16 947.562 47 946.911 46.68C946.26 46.3493 945.748 45.8587 945.375 45.208C945.012 44.5467 944.831 43.72 944.831 42.728C944.831 41.2453 945.194 40.1147 945.919 39.336C946.655 38.5573 947.626 38.168 948.831 38.168ZM948.831 39.656C948.287 39.656 947.844 39.832 947.503 40.184C947.172 40.5253 946.98 41.0373 946.927 41.72H950.655C950.644 41.1227 950.49 40.632 950.191 40.248C949.903 39.8533 949.45 39.656 948.831 39.656ZM958.144 47.16C956.906 47.16 955.925 46.8027 955.2 46.088C954.485 45.3733 954.128 44.248 954.128 42.712C954.128 41.6453 954.304 40.7813 954.656 40.12C955.018 39.448 955.514 38.9573 956.144 38.648C956.773 38.328 957.493 38.168 958.304 38.168C958.837 38.168 959.317 38.2213 959.744 38.328C960.181 38.4347 960.549 38.5627 960.848 38.712L960.256 40.296C959.914 40.168 959.578 40.0613 959.248 39.976C958.917 39.88 958.602 39.832 958.304 39.832C956.896 39.832 956.192 40.7867 956.192 42.696C956.192 43.624 956.368 44.3227 956.72 44.792C957.082 45.2613 957.6 45.496 958.272 45.496C958.752 45.496 959.178 45.4373 959.552 45.32C959.936 45.2027 960.293 45.0427 960.624 44.84V46.584C960.293 46.7867 959.936 46.9307 959.552 47.016C959.168 47.112 958.698 47.16 958.144 47.16ZM966.015 45.544C966.261 45.544 966.501 45.5227 966.735 45.48C966.981 45.4267 967.205 45.368 967.407 45.304V46.808C967.194 46.9147 966.917 47 966.575 47.064C966.234 47.128 965.877 47.16 965.503 47.16C965.002 47.16 964.549 47.08 964.143 46.92C963.749 46.76 963.434 46.4773 963.199 46.072C962.965 45.6667 962.847 45.096 962.847 44.36V39.848H961.679V38.968L962.959 38.264L963.599 36.424H964.863V38.328H967.327V39.848H964.863V44.344C964.863 44.7493 964.97 45.0533 965.183 45.256C965.407 45.448 965.685 45.544 966.015 45.544Z" fill="#3560C1"/>
<path d="M1011.98 47H1005.49V35.576H1011.98V37.288H1007.54V40.2H1011.7V41.912H1007.54V45.272H1011.98V47ZM1016.22 47L1012.92 38.328H1015.05L1016.78 43.336C1016.9 43.6453 1017 43.9867 1017.08 44.36C1017.17 44.7333 1017.22 45.048 1017.24 45.304H1017.31C1017.34 45.0267 1017.4 44.7067 1017.5 44.344C1017.59 43.9813 1017.7 43.6453 1017.8 43.336L1019.53 38.328H1021.66L1018.36 47H1016.22ZM1026.44 38.168C1027.6 38.168 1028.52 38.5147 1029.19 39.208C1029.87 39.9013 1030.22 40.8667 1030.22 42.104V43.128H1024.49C1024.51 43.9173 1024.73 44.5307 1025.14 44.968C1025.56 45.3947 1026.14 45.608 1026.87 45.608C1027.43 45.608 1027.93 45.5547 1028.38 45.448C1028.82 45.3307 1029.28 45.1653 1029.75 44.952V46.568C1029.33 46.7707 1028.88 46.92 1028.42 47.016C1027.97 47.112 1027.42 47.16 1026.78 47.16C1025.92 47.16 1025.17 47 1024.52 46.68C1023.87 46.3493 1023.36 45.8587 1022.98 45.208C1022.62 44.5467 1022.44 43.72 1022.44 42.728C1022.44 41.2453 1022.8 40.1147 1023.53 39.336C1024.26 38.5573 1025.23 38.168 1026.44 38.168ZM1026.44 39.656C1025.9 39.656 1025.45 39.832 1025.11 40.184C1024.78 40.5253 1024.59 41.0373 1024.54 41.72H1028.26C1028.25 41.1227 1028.1 40.632 1027.8 40.248C1027.51 39.8533 1027.06 39.656 1026.44 39.656ZM1036.89 38.168C1037.86 38.168 1038.62 38.4187 1039.16 38.92C1039.72 39.4213 1039.99 40.232 1039.99 41.352V47H1037.98V41.752C1037.98 41.1013 1037.85 40.616 1037.59 40.296C1037.34 39.9653 1036.93 39.8 1036.38 39.8C1035.57 39.8 1035.01 40.056 1034.71 40.568C1034.41 41.08 1034.27 41.8107 1034.27 42.76V47H1032.25V38.328H1033.8L1034.09 39.464H1034.2C1034.48 39.016 1034.86 38.6907 1035.34 38.488C1035.83 38.2747 1036.35 38.168 1036.89 38.168ZM1045.87 45.544C1046.12 45.544 1046.36 45.5227 1046.59 45.48C1046.84 45.4267 1047.06 45.368 1047.27 45.304V46.808C1047.05 46.9147 1046.78 47 1046.43 47.064C1046.09 47.128 1045.74 47.16 1045.36 47.16C1044.86 47.16 1044.41 47.08 1044 46.92C1043.61 46.76 1043.29 46.4773 1043.06 46.072C1042.82 45.6667 1042.71 45.096 1042.71 44.36V39.848H1041.54V38.968L1042.82 38.264L1043.46 36.424H1044.72V38.328H1047.19V39.848H1044.72V44.344C1044.72 44.7493 1044.83 45.0533 1045.04 45.256C1045.27 45.448 1045.54 45.544 1045.87 45.544Z" fill="#525965"/>
<path d="M1092.13 43.88C1092.13 44.8933 1091.76 45.6933 1091.02 46.28C1090.29 46.8667 1089.27 47.16 1087.97 47.16C1086.71 47.16 1085.64 46.9467 1084.77 46.52V44.6C1085.25 44.8133 1085.78 45.0107 1086.35 45.192C1086.94 45.3627 1087.53 45.448 1088.11 45.448C1088.81 45.448 1089.31 45.3147 1089.62 45.048C1089.94 44.7707 1090.1 44.4187 1090.1 43.992C1090.1 43.5227 1089.89 43.1493 1089.49 42.872C1089.08 42.584 1088.49 42.2747 1087.71 41.944C1087.24 41.752 1086.79 41.5173 1086.35 41.24C1085.93 40.952 1085.57 40.5947 1085.3 40.168C1085.03 39.7307 1084.9 39.1867 1084.9 38.536C1084.9 37.5653 1085.24 36.8027 1085.92 36.248C1086.61 35.6933 1087.54 35.416 1088.69 35.416C1089.29 35.416 1089.85 35.48 1090.38 35.608C1090.93 35.736 1091.46 35.9173 1091.98 36.152L1091.33 37.8C1090.85 37.5973 1090.39 37.4373 1089.95 37.32C1089.53 37.2027 1089.08 37.144 1088.62 37.144C1088.07 37.144 1087.65 37.2667 1087.36 37.512C1087.07 37.7573 1086.93 38.0827 1086.93 38.488C1086.93 38.7973 1087.01 39.064 1087.17 39.288C1087.33 39.5013 1087.57 39.6987 1087.9 39.88C1088.25 40.0613 1088.68 40.2693 1089.22 40.504C1089.83 40.7707 1090.36 41.0533 1090.78 41.352C1091.22 41.64 1091.55 41.9867 1091.78 42.392C1092.01 42.7867 1092.13 43.2827 1092.13 43.88ZM1101.79 38.328V47H1100.2L1099.93 45.88H1099.84C1099.56 46.328 1099.18 46.6533 1098.68 46.856C1098.19 47.0587 1097.68 47.16 1097.13 47.16C1096.16 47.16 1095.4 46.9093 1094.84 46.408C1094.3 45.9067 1094.03 45.1013 1094.03 43.992V38.328H1096.04V43.592C1096.04 44.2427 1096.17 44.728 1096.43 45.048C1096.68 45.368 1097.09 45.528 1097.64 45.528C1098.46 45.528 1099.01 45.272 1099.31 44.76C1099.62 44.248 1099.77 43.5173 1099.77 42.568V38.328H1101.79ZM1106.37 34.84V37.72C1106.37 38.0613 1106.36 38.392 1106.34 38.712C1106.32 39.032 1106.3 39.2827 1106.28 39.464H1106.37C1106.61 39.1013 1106.93 38.7973 1107.33 38.552C1107.74 38.296 1108.27 38.168 1108.92 38.168C1109.92 38.168 1110.73 38.5467 1111.35 39.304C1111.98 40.0613 1112.29 41.176 1112.29 42.648C1112.29 44.1413 1111.98 45.2667 1111.35 46.024C1110.72 46.7813 1109.89 47.16 1108.87 47.16C1108.22 47.16 1107.7 47.0427 1107.3 46.808C1106.92 46.5733 1106.61 46.3013 1106.37 45.992H1106.23L1105.86 47H1104.36V34.84H1106.37ZM1108.34 39.8C1107.62 39.8 1107.11 40.0187 1106.82 40.456C1106.53 40.8933 1106.39 41.5653 1106.37 42.472V42.648C1106.37 43.576 1106.51 44.2853 1106.79 44.776C1107.08 45.2667 1107.61 45.512 1108.37 45.512C1108.97 45.512 1109.43 45.2667 1109.75 44.776C1110.07 44.2747 1110.23 43.56 1110.23 42.632C1110.23 41.6827 1110.07 40.9733 1109.73 40.504C1109.41 40.0347 1108.95 39.8 1108.34 39.8ZM1124.31 38.168C1125.29 38.168 1126.03 38.4187 1126.52 38.92C1127.02 39.4213 1127.27 40.232 1127.27 41.352V47H1125.25V41.736C1125.25 40.4453 1124.76 39.8 1123.78 39.8C1123.08 39.8 1122.58 40.0293 1122.28 40.488C1121.98 40.9467 1121.83 41.6133 1121.83 42.488V47H1119.81V41.736C1119.81 40.4453 1119.32 39.8 1118.33 39.8C1117.59 39.8 1117.08 40.056 1116.81 40.568C1116.53 41.08 1116.39 41.8107 1116.39 42.76V47H1114.37V38.328H1115.93L1116.21 39.464H1116.33C1116.59 39.016 1116.96 38.6907 1117.41 38.488C1117.87 38.2747 1118.35 38.168 1118.85 38.168C1119.5 38.168 1120.05 38.2747 1120.49 38.488C1120.93 38.7013 1121.28 39.0427 1121.51 39.512H1121.67C1121.94 39.0427 1122.31 38.7013 1122.79 38.488C1123.27 38.2747 1123.78 38.168 1124.31 38.168ZM1130.8 34.984C1131.1 34.984 1131.36 35.064 1131.59 35.224C1131.81 35.3733 1131.92 35.6453 1131.92 36.04C1131.92 36.4347 1131.81 36.712 1131.59 36.872C1131.36 37.032 1131.1 37.112 1130.8 37.112C1130.49 37.112 1130.23 37.032 1130 36.872C1129.79 36.712 1129.68 36.4347 1129.68 36.04C1129.68 35.6453 1129.79 35.3733 1130 35.224C1130.23 35.064 1130.49 34.984 1130.8 34.984ZM1131.81 38.328V47H1129.8V38.328H1131.81ZM1140.29 44.488C1140.29 45.3627 1139.98 46.0293 1139.35 46.488C1138.73 46.936 1137.84 47.16 1136.68 47.16C1136.07 47.16 1135.55 47.1173 1135.11 47.032C1134.68 46.9467 1134.27 46.8133 1133.86 46.632V44.92C1134.29 45.1227 1134.76 45.2933 1135.27 45.432C1135.79 45.5707 1136.28 45.64 1136.74 45.64C1137.3 45.64 1137.7 45.5547 1137.94 45.384C1138.19 45.2133 1138.31 44.984 1138.31 44.696C1138.31 44.5253 1138.26 44.376 1138.17 44.248C1138.07 44.1093 1137.88 43.96 1137.61 43.8C1137.33 43.64 1136.91 43.4427 1136.34 43.208C1135.79 42.984 1135.32 42.76 1134.95 42.536C1134.59 42.312 1134.31 42.0453 1134.12 41.736C1133.94 41.4267 1133.85 41.0267 1133.85 40.536C1133.85 39.7573 1134.16 39.1707 1134.77 38.776C1135.39 38.3707 1136.21 38.168 1137.22 38.168C1137.76 38.168 1138.26 38.2213 1138.73 38.328C1139.21 38.4347 1139.69 38.5947 1140.17 38.808L1139.53 40.296C1139.12 40.1253 1138.73 39.9813 1138.34 39.864C1137.96 39.7467 1137.56 39.688 1137.16 39.688C1136.27 39.688 1135.83 39.9387 1135.83 40.44C1135.83 40.6213 1135.88 40.776 1135.99 40.904C1136.11 41.032 1136.3 41.1707 1136.58 41.32C1136.87 41.4587 1137.28 41.6293 1137.8 41.832C1138.31 42.0347 1138.75 42.248 1139.13 42.472C1139.5 42.6853 1139.79 42.952 1139.99 43.272C1140.19 43.5813 1140.29 43.9867 1140.29 44.488ZM1148.14 44.488C1148.14 45.3627 1147.82 46.0293 1147.19 46.488C1146.57 46.936 1145.68 47.16 1144.52 47.16C1143.91 47.16 1143.39 47.1173 1142.95 47.032C1142.53 46.9467 1142.11 46.8133 1141.71 46.632V44.92C1142.13 45.1227 1142.6 45.2933 1143.11 45.432C1143.64 45.5707 1144.13 45.64 1144.59 45.64C1145.14 45.64 1145.54 45.5547 1145.79 45.384C1146.03 45.2133 1146.15 44.984 1146.15 44.696C1146.15 44.5253 1146.11 44.376 1146.01 44.248C1145.91 44.1093 1145.73 43.96 1145.45 43.8C1145.17 43.64 1144.75 43.4427 1144.19 43.208C1143.63 42.984 1143.17 42.76 1142.79 42.536C1142.43 42.312 1142.15 42.0453 1141.96 41.736C1141.78 41.4267 1141.69 41.0267 1141.69 40.536C1141.69 39.7573 1142 39.1707 1142.62 38.776C1143.24 38.3707 1144.05 38.168 1145.07 38.168C1145.6 38.168 1146.1 38.2213 1146.57 38.328C1147.05 38.4347 1147.53 38.5947 1148.01 38.808L1147.37 40.296C1146.96 40.1253 1146.57 39.9813 1146.19 39.864C1145.8 39.7467 1145.41 39.688 1145 39.688C1144.12 39.688 1143.67 39.9387 1143.67 40.44C1143.67 40.6213 1143.73 40.776 1143.83 40.904C1143.95 41.032 1144.15 41.1707 1144.43 41.32C1144.71 41.4587 1145.12 41.6293 1145.64 41.832C1146.15 42.0347 1146.6 42.248 1146.97 42.472C1147.34 42.6853 1147.63 42.952 1147.83 43.272C1148.04 43.5813 1148.14 43.9867 1148.14 44.488ZM1151.09 34.984C1151.38 34.984 1151.65 35.064 1151.87 35.224C1152.09 35.3733 1152.21 35.6453 1152.21 36.04C1152.21 36.4347 1152.09 36.712 1151.87 36.872C1151.65 37.032 1151.38 37.112 1151.09 37.112C1150.78 37.112 1150.51 37.032 1150.29 36.872C1150.07 36.712 1149.97 36.4347 1149.97 36.04C1149.97 35.6453 1150.07 35.3733 1150.29 35.224C1150.51 35.064 1150.78 34.984 1151.09 34.984ZM1152.09 38.328V47H1150.08V38.328H1152.09ZM1162.41 42.648C1162.41 44.088 1162.04 45.2027 1161.3 45.992C1160.55 46.7707 1159.54 47.16 1158.26 47.16C1157.47 47.16 1156.76 46.984 1156.14 46.632C1155.52 46.28 1155.04 45.768 1154.69 45.096C1154.34 44.424 1154.16 43.608 1154.16 42.648C1154.16 41.208 1154.53 40.104 1155.26 39.336C1156.01 38.5573 1157.02 38.168 1158.3 38.168C1159.1 38.168 1159.81 38.344 1160.43 38.696C1161.05 39.0373 1161.54 39.544 1161.89 40.216C1162.24 40.8773 1162.41 41.688 1162.41 42.648ZM1156.22 42.648C1156.22 43.5653 1156.38 44.2747 1156.7 44.776C1157.03 45.2773 1157.56 45.528 1158.29 45.528C1159 45.528 1159.52 45.2773 1159.86 44.776C1160.19 44.2747 1160.35 43.5653 1160.35 42.648C1160.35 41.7307 1160.19 41.0267 1159.86 40.536C1159.52 40.0453 1159 39.8 1158.27 39.8C1157.55 39.8 1157.02 40.0453 1156.7 40.536C1156.38 41.0267 1156.22 41.7307 1156.22 42.648ZM1169.14 38.168C1170.11 38.168 1170.87 38.4187 1171.41 38.92C1171.97 39.4213 1172.24 40.232 1172.24 41.352V47H1170.23V41.752C1170.23 41.1013 1170.1 40.616 1169.84 40.296C1169.59 39.9653 1169.18 39.8 1168.63 39.8C1167.82 39.8 1167.26 40.056 1166.96 40.568C1166.66 41.08 1166.52 41.8107 1166.52 42.76V47H1164.5V38.328H1166.05L1166.34 39.464H1166.45C1166.73 39.016 1167.11 38.6907 1167.59 38.488C1168.08 38.2747 1168.6 38.168 1169.14 38.168Z" fill="#525965"/>
<path d="M1229.53 41.3409L1227.5 39.43V36.8988C1227.5 35.1496 1226.81 33.4634 1225.56 32.1661C1224.31 30.8689 1222.6 30.0529 1220.75 29.8758V28.4282H1219.25V29.8758C1217.4 30.0529 1215.69 30.8689 1214.44 32.1661C1213.19 33.4634 1212.5 35.1496 1212.5 36.8988V39.43L1210.47 41.3409C1210.33 41.4733 1210.25 41.6528 1210.25 41.84V43.9576C1210.25 44.1448 1210.33 44.3244 1210.47 44.4568C1210.61 44.5891 1210.8 44.6635 1211 44.6635H1216.25V45.2118C1216.23 46.1073 1216.57 46.9769 1217.19 47.654C1217.81 48.3313 1218.68 48.7683 1219.62 48.8816C1220.15 48.9303 1220.67 48.8756 1221.17 48.7213C1221.67 48.567 1222.13 48.3164 1222.51 47.9857C1222.9 47.6549 1223.21 47.2513 1223.43 46.8006C1223.64 46.35 1223.75 45.8625 1223.75 45.3694V44.6635H1229C1229.2 44.6635 1229.39 44.5891 1229.53 44.4568C1229.67 44.3244 1229.75 44.1448 1229.75 43.9576V41.84C1229.75 41.6528 1229.67 41.4733 1229.53 41.3409ZM1222.25 45.3694C1222.25 45.931 1222.01 46.4697 1221.59 46.8668C1221.17 47.264 1220.6 47.487 1220 47.487C1219.4 47.487 1218.83 47.264 1218.41 46.8668C1217.99 46.4697 1217.75 45.931 1217.75 45.3694V44.6635H1222.25V45.3694ZM1228.25 43.2517H1211.75V42.1323L1213.78 40.2214C1213.92 40.089 1214 39.9095 1214 39.7223V36.8988C1214 35.4011 1214.63 33.9648 1215.76 32.9057C1216.88 31.8467 1218.41 31.2518 1220 31.2518C1221.59 31.2518 1223.12 31.8467 1224.24 32.9057C1225.37 33.9648 1226 35.4011 1226 36.8988V39.7223C1226 39.9095 1226.08 40.089 1226.22 40.2214L1228.25 42.1323V43.2517Z" fill="#32373F"/>
<rect x="1262" y="23" width="32" height="32" rx="16" fill="#54622C"/>
<path d="M1275.22 41.66C1275.22 42.42 1274.95 43.02 1274.4 43.46C1273.84 43.9 1273.08 44.12 1272.1 44.12C1271.16 44.12 1270.36 43.96 1269.7 43.64V42.2C1270.06 42.36 1270.46 42.508 1270.89 42.644C1271.33 42.772 1271.77 42.836 1272.21 42.836C1272.73 42.836 1273.11 42.736 1273.34 42.536C1273.58 42.328 1273.7 42.064 1273.7 41.744C1273.7 41.392 1273.55 41.112 1273.24 40.904C1272.94 40.688 1272.5 40.456 1271.91 40.208C1271.56 40.064 1271.22 39.888 1270.89 39.68C1270.57 39.464 1270.31 39.196 1270.1 38.876C1269.9 38.548 1269.8 38.14 1269.8 37.652C1269.8 36.924 1270.06 36.352 1270.57 35.936C1271.09 35.52 1271.78 35.312 1272.64 35.312C1273.09 35.312 1273.52 35.36 1273.92 35.456C1274.32 35.552 1274.72 35.688 1275.12 35.864L1274.62 37.1C1274.26 36.948 1273.92 36.828 1273.59 36.74C1273.27 36.652 1272.94 36.608 1272.6 36.608C1272.18 36.608 1271.86 36.7 1271.65 36.884C1271.43 37.068 1271.32 37.312 1271.32 37.616C1271.32 37.848 1271.38 38.048 1271.5 38.216C1271.62 38.376 1271.81 38.524 1272.06 38.66C1272.31 38.796 1272.64 38.952 1273.04 39.128C1273.5 39.328 1273.9 39.54 1274.22 39.764C1274.54 39.98 1274.79 40.24 1274.96 40.544C1275.14 40.84 1275.22 41.212 1275.22 41.66ZM1280.53 44L1278.17 36.98H1278.13C1278.14 37.14 1278.15 37.368 1278.16 37.664C1278.18 37.952 1278.19 38.268 1278.2 38.612C1278.21 38.948 1278.22 39.264 1278.22 39.56V44H1276.84V35.432H1278.98L1281.23 42.164H1281.28L1283.63 35.432H1285.77V44H1284.31V39.488C1284.31 39.216 1284.31 38.92 1284.32 38.6C1284.33 38.272 1284.35 37.964 1284.35 37.676C1284.37 37.38 1284.38 37.152 1284.39 36.992H1284.34L1281.89 44H1280.53Z" fill="white"/>
<path d="M1309.03 41.8271C1309.03 42.6976 1308.71 43.3835 1308.08 43.8848C1307.46 44.3861 1306.58 44.6367 1305.46 44.6367C1304.27 44.6367 1303.36 44.4795 1302.71 44.165V42.9619C1303.13 43.1442 1303.6 43.2878 1304.1 43.3926C1304.6 43.4974 1305.08 43.5498 1305.51 43.5498C1306.26 43.5498 1306.82 43.4062 1307.2 43.1191C1307.58 42.832 1307.77 42.4378 1307.77 41.9365C1307.77 41.6038 1307.7 41.3304 1307.56 41.1162C1307.43 40.902 1307.2 40.7015 1306.87 40.5146C1306.56 40.3278 1306.07 40.1159 1305.42 39.8789C1304.49 39.5417 1303.83 39.1452 1303.44 38.6895C1303.04 38.2292 1302.84 37.6367 1302.84 36.9121C1302.84 36.1328 1303.13 35.513 1303.72 35.0527C1304.3 34.5924 1305.08 34.3623 1306.03 34.3623C1307.03 34.3623 1307.95 34.5492 1308.79 34.9229L1308.4 36.0029C1307.54 35.6475 1306.74 35.4697 1306.01 35.4697C1305.41 35.4697 1304.95 35.5973 1304.61 35.8525C1304.28 36.1077 1304.11 36.4655 1304.11 36.9258C1304.11 37.2539 1304.18 37.5273 1304.3 37.7461C1304.44 37.9603 1304.65 38.1562 1304.93 38.334C1305.22 38.5117 1305.68 38.7145 1306.3 38.9424C1307.04 39.2158 1307.6 39.4824 1307.96 39.7422C1308.33 39.9974 1308.59 40.2936 1308.77 40.6309C1308.94 40.9635 1309.03 41.3623 1309.03 41.8271ZM1313.88 44.6367C1312.8 44.6367 1311.96 44.3063 1311.36 43.6455C1310.76 42.9801 1310.46 42.0277 1310.46 40.7881C1310.46 39.5303 1310.76 38.5618 1311.37 37.8828C1311.98 37.1992 1312.84 36.8574 1313.97 36.8574C1314.33 36.8574 1314.69 36.8962 1315.05 36.9736C1315.41 37.0465 1315.71 37.1423 1315.94 37.2607L1315.56 38.2861C1314.93 38.0492 1314.39 37.9307 1313.94 37.9307C1313.19 37.9307 1312.63 38.1699 1312.27 38.6484C1311.91 39.1224 1311.73 39.8311 1311.73 40.7744C1311.73 41.6813 1311.91 42.3763 1312.27 42.8594C1312.63 43.3379 1313.16 43.5771 1313.87 43.5771C1314.53 43.5771 1315.18 43.4313 1315.82 43.1396V44.2334C1315.3 44.5023 1314.65 44.6367 1313.88 44.6367ZM1324.12 40.7334C1324.12 41.9593 1323.81 42.9163 1323.19 43.6045C1322.57 44.2926 1321.71 44.6367 1320.62 44.6367C1319.94 44.6367 1319.34 44.4795 1318.82 44.165C1318.29 43.846 1317.89 43.3903 1317.61 42.7979C1317.32 42.2054 1317.18 41.5173 1317.18 40.7334C1317.18 39.512 1317.49 38.5618 1318.1 37.8828C1318.71 37.1992 1319.57 36.8574 1320.67 36.8574C1321.73 36.8574 1322.56 37.2061 1323.18 37.9033C1323.81 38.596 1324.12 39.5394 1324.12 40.7334ZM1318.45 40.7334C1318.45 41.6768 1318.64 42.3945 1319.01 42.8867C1319.38 43.3743 1319.93 43.6182 1320.66 43.6182C1321.37 43.6182 1321.92 43.3743 1322.29 42.8867C1322.66 42.3945 1322.85 41.6768 1322.85 40.7334C1322.85 39.79 1322.66 39.0814 1322.28 38.6074C1321.91 38.1289 1321.36 37.8896 1320.63 37.8896C1319.18 37.8896 1318.45 38.8376 1318.45 40.7334ZM1328.58 43.6318C1328.74 43.6318 1328.93 43.6159 1329.15 43.584C1329.36 43.5521 1329.52 43.5156 1329.63 43.4746V44.418C1329.52 44.4681 1329.34 44.516 1329.1 44.5615C1328.86 44.6117 1328.62 44.6367 1328.37 44.6367C1326.91 44.6367 1326.17 43.8643 1326.17 42.3193V37.9512H1325.11V37.3633L1326.19 36.8711L1326.68 35.2715H1327.41V36.9941H1329.58V37.9512H1327.41V42.2852C1327.41 42.7181 1327.51 43.0508 1327.72 43.2832C1327.93 43.5156 1328.22 43.6318 1328.58 43.6318ZM1333.64 43.6318C1333.8 43.6318 1333.99 43.6159 1334.2 43.584C1334.42 43.5521 1334.58 43.5156 1334.69 43.4746V44.418C1334.58 44.4681 1334.4 44.516 1334.16 44.5615C1333.92 44.6117 1333.68 44.6367 1333.43 44.6367C1331.96 44.6367 1331.23 43.8643 1331.23 42.3193V37.9512H1330.17V37.3633L1331.24 36.8711L1331.74 35.2715H1332.47V36.9941H1334.63V37.9512H1332.47V42.2852C1332.47 42.7181 1332.57 43.0508 1332.78 43.2832C1332.99 43.5156 1333.27 43.6318 1333.64 43.6318ZM1344.41 44.5L1341.12 35.7363H1341.06C1341.13 36.4655 1341.16 37.3656 1341.16 38.4365V44.5H1340V34.5059H1341.86L1344.94 42.6953H1345L1348.14 34.5059H1349.98V44.5H1348.74V38.3545C1348.74 37.6709 1348.77 36.8027 1348.83 35.75H1348.78L1345.44 44.5H1344.41ZM1357.17 44.5L1356.93 43.4336H1356.87C1356.5 43.903 1356.12 44.222 1355.75 44.3906C1355.38 44.5547 1354.91 44.6367 1354.35 44.6367C1353.61 44.6367 1353.03 44.443 1352.61 44.0557C1352.19 43.6683 1351.98 43.1214 1351.98 42.415C1351.98 40.8929 1353.19 40.0954 1355.59 40.0225L1356.86 39.9746V39.5303C1356.86 38.9606 1356.74 38.5413 1356.49 38.2725C1356.24 37.999 1355.85 37.8623 1355.31 37.8623C1354.91 37.8623 1354.53 37.9215 1354.18 38.04C1353.83 38.1585 1353.5 38.2907 1353.19 38.4365L1352.81 37.5137C1353.19 37.3132 1353.6 37.1559 1354.05 37.042C1354.5 36.9281 1354.94 36.8711 1355.38 36.8711C1356.28 36.8711 1356.96 37.0716 1357.4 37.4727C1357.84 37.8737 1358.06 38.5117 1358.06 39.3867V44.5H1357.17ZM1354.63 43.6455C1355.32 43.6455 1355.86 43.4609 1356.25 43.0918C1356.65 42.7181 1356.84 42.1895 1356.84 41.5059V40.8291L1355.74 40.877C1354.88 40.9089 1354.25 41.0456 1353.85 41.2871C1353.46 41.5286 1353.26 41.9092 1353.26 42.4287C1353.26 42.8206 1353.38 43.1214 1353.62 43.3311C1353.86 43.5407 1354.2 43.6455 1354.63 43.6455ZM1363.89 36.8574C1364.23 36.8574 1364.52 36.8848 1364.77 36.9395L1364.62 38.0742C1364.35 38.0104 1364.07 37.9785 1363.81 37.9785C1363.41 37.9785 1363.04 38.0879 1362.7 38.3066C1362.37 38.5254 1362.1 38.8285 1361.91 39.2158C1361.72 39.5986 1361.62 40.0247 1361.62 40.4941V44.5H1360.39V36.9941H1361.4L1361.54 38.3682H1361.6C1361.88 37.8714 1362.22 37.4954 1362.61 37.2402C1363.01 36.985 1363.43 36.8574 1363.89 36.8574ZM1371.06 42.4287C1371.06 43.1305 1370.8 43.6751 1370.28 44.0625C1369.75 44.4453 1369.02 44.6367 1368.07 44.6367C1367.08 44.6367 1366.29 44.4795 1365.71 44.165V43.0439C1366.54 43.445 1367.33 43.6455 1368.1 43.6455C1368.72 43.6455 1369.17 43.5452 1369.45 43.3447C1369.73 43.1442 1369.87 42.8753 1369.87 42.5381C1369.87 42.2419 1369.74 41.9912 1369.46 41.7861C1369.19 41.5811 1368.71 41.3464 1368.02 41.082C1367.32 40.8086 1366.82 40.5762 1366.53 40.3848C1366.24 40.1888 1366.03 39.9701 1365.9 39.7285C1365.76 39.487 1365.7 39.193 1365.7 38.8467C1365.7 38.2314 1365.95 37.7461 1366.45 37.3906C1366.95 37.0352 1367.64 36.8574 1368.51 36.8574C1369.37 36.8574 1370.16 37.026 1370.91 37.3633L1370.49 38.3408C1369.73 38.0218 1369.04 37.8623 1368.43 37.8623C1367.92 37.8623 1367.53 37.9443 1367.27 38.1084C1367.01 38.2679 1366.87 38.4889 1366.87 38.7715C1366.87 39.0449 1366.99 39.2728 1367.21 39.4551C1367.44 39.6328 1367.97 39.8812 1368.81 40.2002C1369.43 40.4326 1369.89 40.6491 1370.19 40.8496C1370.49 41.0501 1370.71 41.2757 1370.85 41.5264C1370.99 41.777 1371.06 42.0778 1371.06 42.4287ZM1378 44.5V39.7012C1378 39.0905 1377.87 38.637 1377.59 38.3408C1377.32 38.04 1376.9 37.8896 1376.32 37.8896C1375.56 37.8896 1375 38.1016 1374.65 38.5254C1374.29 38.9492 1374.12 39.6488 1374.12 40.624V44.5H1372.89V33.8633H1374.12V36.9805C1374.12 37.3906 1374.1 37.7415 1374.05 38.0332H1374.13C1374.36 37.6686 1374.67 37.3838 1375.08 37.1787C1375.49 36.9736 1375.96 36.8711 1376.47 36.8711C1377.38 36.8711 1378.07 37.0898 1378.53 37.5273C1378.99 37.9603 1379.22 38.6553 1379.22 39.6123V44.5H1378ZM1386.18 44.5L1385.94 43.4336H1385.88C1385.51 43.903 1385.14 44.222 1384.76 44.3906C1384.39 44.5547 1383.93 44.6367 1383.36 44.6367C1382.62 44.6367 1382.04 44.443 1381.62 44.0557C1381.21 43.6683 1381 43.1214 1381 42.415C1381 40.8929 1382.2 40.0954 1384.6 40.0225L1385.87 39.9746V39.5303C1385.87 38.9606 1385.75 38.5413 1385.5 38.2725C1385.25 37.999 1384.86 37.8623 1384.32 37.8623C1383.92 37.8623 1383.55 37.9215 1383.19 38.04C1382.84 38.1585 1382.51 38.2907 1382.2 38.4365L1381.82 37.5137C1382.2 37.3132 1382.61 37.1559 1383.06 37.042C1383.51 36.9281 1383.95 36.8711 1384.39 36.8711C1385.29 36.8711 1385.97 37.0716 1386.41 37.4727C1386.85 37.8737 1387.07 38.5117 1387.07 39.3867V44.5H1386.18ZM1383.64 43.6455C1384.33 43.6455 1384.87 43.4609 1385.26 43.0918C1385.66 42.7181 1385.86 42.1895 1385.86 41.5059V40.8291L1384.75 40.877C1383.89 40.9089 1383.26 41.0456 1382.86 41.2871C1382.47 41.5286 1382.27 41.9092 1382.27 42.4287C1382.27 42.8206 1382.39 43.1214 1382.63 43.3311C1382.87 43.5407 1383.21 43.6455 1383.64 43.6455ZM1390.63 44.5H1389.4V33.8633H1390.63V44.5ZM1394.24 44.5H1393.01V33.8633H1394.24V44.5Z" fill="#525965"/>
<path d="M1410 42.7498L1403.75 36.4998L1404.63 35.6248L1410 40.9998L1415.38 35.6248L1416.25 36.4998L1410 42.7498Z" fill="#525965"/>
<line y1="72.5" x2="1440" y2="72.5" stroke="white"/>
<defs>
<linearGradient id="paint0_linear_33896_10137" x1="32.0553" y1="51.464" x2="15.9447" y2="23.5614" gradientUnits="userSpaceOnUse">
<stop stop-color="#77BC4A"/>
<stop offset="0.5" stop-color="#5DA10C"/>
<stop offset="0.76" stop-color="#549809"/>
<stop offset="1" stop-color="#488C07"/>
</linearGradient>
<clipPath id="clip0_33896_10137">
<rect width="212" height="27" fill="white" transform="translate(12 25.5)"/>
</clipPath>
</defs>
</svg>
