<svg width="1440" height="73" viewBox="0 0 1440 73" fill="none" xmlns="http://www.w3.org/2000/svg">
<rect width="1440" height="5" fill="#0B77D8"/>
<rect width="1440" height="68" transform="translate(0 5)" fill="white"/>
<g clip-path="url(#clip0_33896_10139)">
<path d="M35.2312 25.5126H12.7688C12.3466 25.5126 12 25.8592 12 26.2813V48.7438C12 49.166 12.3466 49.5126 12.7688 49.5126H35.2312C35.6534 49.5126 36 49.166 36 48.7438V26.2813C36 25.8592 35.6555 25.5126 35.2312 25.5126ZM17.0516 33.5049L19.9503 30.6062C20.0217 30.5348 20.1393 30.5348 20.2107 30.6062L23.3909 33.7863C23.4245 33.822 23.4455 33.8683 23.4455 33.9166V36.8152C23.4455 36.9181 23.3636 37.0001 23.2606 37.0001H20.362C20.3137 37.0001 20.2654 36.9812 20.2318 36.9454L17.0516 33.7653C16.9802 33.6939 16.9802 33.5763 17.0516 33.5049ZM23.3909 41.2619L20.2107 44.442C20.1393 44.5135 20.0217 44.5135 19.9503 44.442L17.0516 41.5434C16.9802 41.472 16.9802 41.3543 17.0516 41.2829L20.2318 38.1028C20.2675 38.0692 20.3137 38.0482 20.362 38.0482H23.2606C23.3636 38.0482 23.4455 38.1301 23.4455 38.233V41.1317C23.4455 41.18 23.4266 41.2283 23.3909 41.2619ZM24.4915 33.9166C24.4915 33.8683 24.5104 33.8199 24.5461 33.7863L27.7262 30.6062C27.7977 30.5348 27.9153 30.5348 27.9867 30.6062L30.8853 33.5049C30.9568 33.5763 30.9568 33.6939 30.8853 33.7653L27.7052 36.9454C27.6695 36.9812 27.6233 37.0001 27.575 37.0001H24.6764C24.5734 37.0001 24.4915 36.9181 24.4915 36.8152V33.9166ZM30.8874 41.5434L27.9888 44.442C27.9174 44.5135 27.7998 44.5135 27.7283 44.442L24.5482 41.2619C24.5125 41.2262 24.4936 41.18 24.4936 41.1317V38.233C24.4936 38.1301 24.5755 38.0482 24.6785 38.0482H27.5771C27.6254 38.0482 27.6737 38.0671 27.7073 38.1028L30.8874 41.2829C30.9589 41.3543 30.9589 41.472 30.8874 41.5434Z" fill="url(#paint0_linear_33896_10139)"/>
<path d="M88.5858 44.0511C88.5858 46.2327 89.6841 49.183 94.5388 49.183C99.3935 49.183 100.492 46.2327 100.492 44.0511V40.3923H95.637V44.4013C95.637 45.0394 95.637 45.9137 94.5367 45.9137C93.4364 45.9137 93.4364 45.0394 93.4364 44.4013V34.9413C93.4364 34.3011 93.4364 33.4268 94.5367 33.4268C95.637 33.4268 95.637 34.3011 95.637 34.9413V37.5995H100.492V35.2915C100.492 33.1077 99.3894 30.1595 94.5388 30.1595C89.6882 30.1595 88.5858 33.1077 88.5858 35.2915V44.0511Z" fill="#32373F"/>
<path d="M101.896 45.694C101.896 48.6049 103.508 48.953 105.596 48.953H106.75V33.9696H107.961V30.3584H106.75V25.703H101.896V30.3584H100.681V33.9696H101.896V45.694Z" fill="#32373F"/>
<path fill-rule="evenodd" clip-rule="evenodd" d="M108.639 48.9696H113.494V30.3708H108.639V48.9696ZM108.639 29.1485H113.494V25.7155H108.639V29.1505V29.1485Z" fill="#32373F"/>
<path fill-rule="evenodd" clip-rule="evenodd" d="M117.109 48.9696H122.785L126.082 30.3708H121.232L120.017 42.2735H119.961L118.831 30.3708H113.837L117.109 48.9696Z" fill="#32373F"/>
<path fill-rule="evenodd" clip-rule="evenodd" d="M75.6835 44.0511C75.6835 46.2327 76.7818 49.183 81.6344 49.183C86.4871 49.183 87.5916 46.2348 87.5916 44.0511V42.0725H82.7347V44.4013C82.7347 45.0394 82.7347 45.9137 81.6344 45.9137C80.5341 45.9137 80.5341 45.0394 80.5341 44.4013V40.413H87.5916V35.2915C87.5916 33.1077 86.4912 30.1595 81.6344 30.1595C76.7776 30.1595 75.6835 33.1077 75.6835 35.2915V44.0532V44.0511ZM80.5341 34.9392C80.5341 34.299 80.5341 33.4268 81.6344 33.4268C82.7347 33.4268 82.7347 34.299 82.7347 34.9392V36.9779H80.5341V34.9392Z" fill="#32373F"/>
<path fill-rule="evenodd" clip-rule="evenodd" d="M125.911 44.0511C125.911 46.2327 127.009 49.183 131.864 49.183C136.719 49.183 137.819 46.2348 137.819 44.0511V42.0725H132.967V44.4013C132.967 45.0394 132.967 45.9137 131.866 45.9137C130.766 45.9137 130.766 45.0394 130.766 44.4013V40.413H137.821V35.2915C137.821 33.1077 136.721 30.1595 131.866 30.1595C127.012 30.1595 125.913 33.1077 125.913 35.2915V44.0532L125.911 44.0511ZM130.764 34.9392C130.764 34.299 130.764 33.4247 131.864 33.4247C132.965 33.4247 132.965 34.299 132.965 34.9392V36.9779H130.762V34.9392" fill="#32373F"/>
<path fill-rule="evenodd" clip-rule="evenodd" d="M47.2415 31.5953C47.2415 30.808 47.2415 29.4696 48.7391 29.4696C50.2367 29.4696 50.2346 30.808 50.2346 31.5953V43.0919C50.2346 43.703 50.2346 45.2134 48.7391 45.2134C47.2436 45.2134 47.2415 43.703 47.2415 43.0919V31.5953ZM42.0498 42.6257C42.0498 46.759 44.6165 49.183 48.737 49.183C52.8575 49.183 55.4221 46.759 55.4221 42.6257V32.0594C55.4221 27.518 52.6017 25.5 48.737 25.5C44.8724 25.5 42.0498 27.518 42.0498 32.0594V42.6257Z" fill="#32373F"/>
<path fill-rule="evenodd" clip-rule="evenodd" d="M61.5396 44.3763C61.5396 45.0165 61.5396 45.8908 62.64 45.8908C63.7403 45.8908 63.7424 45.0165 63.7424 44.3763V34.9164C63.7424 34.2762 63.7424 33.4019 62.64 33.4019C61.5375 33.4019 61.5396 34.2741 61.5396 34.9164L61.5271 44.3763H61.5396ZM61.5271 48.6132V48.9571H56.6745V25.703H61.5271V30.6008C61.8807 30.346 62.6129 30.1326 63.0081 30.1326C67.5571 30.1326 68.5929 33.0828 68.5929 35.2645V44.0241C68.5929 46.2058 67.5924 49.156 63.1475 49.156C62.7523 49.156 61.8807 48.9758 61.523 48.6112H61.5271" fill="#32373F"/>
<path d="M69.7264 52.4834L70.8746 52.5C74.29 52.5 74.5812 50.4199 74.5812 47.625V30.3708H69.7285V52.4834" fill="#32373F"/>
<path d="M69.7264 25.7155H74.5812V29.1485H69.7264V25.7155Z" fill="#32373F"/>
<path d="M152.122 49.1209L145.88 33.3605H145.805L145.821 49.1292L144.153 49.1312L144.132 30.1761L146.333 30.1741L152.54 45.9344H152.617L152.6 30.1658L154.218 30.1637L154.237 49.1188L152.122 49.1209Z" fill="#0B77D8"/>
<path d="M158.332 49.1146L158.312 30.1595L165.515 30.1512L165.517 31.8108L160.032 31.817L160.038 38.4572L165.169 38.451L165.171 40.0566L160.04 40.0628L160.048 47.4261L165.785 47.4199L165.787 49.1064L158.332 49.1146Z" fill="#0B77D8"/>
<path d="M176.175 49.094L172.552 40.6907L168.947 49.1023L167.077 49.1044L171.591 39.112L167.512 30.1493L169.382 30.1472L172.599 37.6389L175.776 30.1389L177.596 30.1368L173.562 39.1368L178.097 49.092L176.175 49.094Z" fill="#0B77D8"/>
<path d="M190.083 45.2073C189.909 46.0733 189.622 46.8274 189.226 47.4697C188.831 48.112 188.305 48.6175 187.648 48.9842C186.99 49.3509 186.183 49.5353 185.222 49.5353C184.261 49.5353 183.456 49.3551 182.808 48.9904C182.159 48.6258 181.636 48.1223 181.239 47.4801C180.842 46.8378 180.559 46.0836 180.391 45.2197C180.22 44.3537 180.137 43.4317 180.135 42.4497L180.122 30.1348H181.892L181.905 42.2073C181.905 42.9034 181.953 43.5912 182.046 44.2687C182.14 44.9462 182.308 45.5491 182.554 46.0754C182.799 46.6016 183.136 47.0243 183.567 47.3454C183.997 47.6665 184.557 47.826 185.247 47.826C185.921 47.826 186.477 47.6644 186.916 47.3433C187.352 47.0222 187.693 46.5975 187.937 46.0712C188.18 45.545 188.349 44.9462 188.44 44.277C188.532 43.6078 188.577 42.9158 188.577 42.201L188.565 30.1265H190.335L190.348 42.4393C190.348 43.4214 190.262 44.3454 190.085 45.2114L190.083 45.2073Z" fill="#0B77D8"/>
<path d="M202 44.2169C202 45.056 201.884 45.8019 201.649 46.4524C201.414 47.105 201.089 47.6582 200.677 48.114C200.265 48.5698 199.781 48.9179 199.225 49.1603C198.67 49.4027 198.079 49.5228 197.457 49.5249C196.546 49.5249 195.708 49.3219 194.943 48.9117C194.175 48.5014 193.555 47.9586 193.083 47.2811L194.169 45.9676C194.556 46.556 195.047 47.0097 195.635 47.3309C196.226 47.652 196.823 47.8115 197.43 47.8115C198.239 47.8115 198.918 47.507 199.465 46.8999C200.012 46.2929 200.284 45.4269 200.284 44.3019C200.284 43.7673 200.199 43.2929 200.03 42.8827C199.862 42.4724 199.633 42.1057 199.346 41.7867C199.059 41.4655 198.734 41.1817 198.373 40.931C198.011 40.6803 197.626 40.4503 197.222 40.2369C196.734 39.9883 196.27 39.7065 195.831 39.3958C195.392 39.0829 195.009 38.7224 194.681 38.3122C194.352 37.902 194.086 37.4151 193.884 36.8536C193.68 36.2922 193.578 35.6354 193.578 34.8854C193.578 34.0111 193.703 33.2487 193.955 32.5961C194.206 31.9455 194.547 31.4006 194.976 30.9614C195.404 30.5242 195.889 30.1969 196.428 29.9835C196.966 29.768 197.53 29.6603 198.121 29.6603C198.93 29.6603 199.658 29.8053 200.307 30.0995C200.956 30.3937 201.499 30.8516 201.938 31.4752L200.854 32.7887C200.515 32.2728 200.12 31.902 199.664 31.6803C199.209 31.4586 198.712 31.3467 198.173 31.3467C197.819 31.3467 197.47 31.4151 197.125 31.5498C196.779 31.6844 196.471 31.8937 196.203 32.1796C195.933 32.4655 195.714 32.8322 195.546 33.2777C195.377 33.7252 195.294 34.2514 195.294 34.8585C195.294 35.393 195.371 35.8592 195.523 36.2507C195.675 36.6423 195.881 36.9904 196.143 37.2949C196.405 37.5974 196.709 37.8668 197.054 38.0967C197.399 38.3288 197.757 38.5422 198.129 38.7369C198.601 38.9876 199.069 39.2715 199.531 39.5926C199.995 39.9137 200.413 40.2867 200.783 40.7155C201.154 41.1423 201.449 41.6437 201.669 42.2135C201.888 42.7853 201.998 43.4545 202 44.2211V44.2169Z" fill="#0B77D8"/>
</g>
<rect x="1146.5" y="23.5" width="95" height="31" rx="1.5" fill="white"/>
<rect x="1146.5" y="23.5" width="95" height="31" rx="1.5" stroke="#D1D1D1"/>
<path d="M1176.12 46.2414L1171.4 41.5212C1172.54 40.1596 1173.1 38.4131 1172.98 36.6451C1172.86 34.8771 1172.07 33.2236 1170.76 32.0288C1169.45 30.8339 1167.73 30.1895 1165.96 30.2298C1164.19 30.2701 1162.5 30.9918 1161.24 32.2449C1159.99 33.498 1159.27 35.186 1159.23 36.9576C1159.19 38.7293 1159.83 40.4483 1161.03 41.7571C1162.22 43.0658 1163.88 43.8635 1165.64 43.9841C1167.41 44.1049 1169.16 43.5393 1170.52 42.4051L1175.24 47.1251L1176.12 46.2414ZM1160.5 37.1252C1160.5 36.0126 1160.83 34.9251 1161.45 34.0001C1162.07 33.075 1162.94 32.3541 1163.97 31.9283C1165 31.5026 1166.13 31.3912 1167.22 31.6082C1168.31 31.8253 1169.32 32.361 1170.1 33.1477C1170.89 33.9343 1171.42 34.9366 1171.64 36.0278C1171.86 37.1189 1171.75 38.2499 1171.32 39.2777C1170.9 40.3056 1170.18 41.1841 1169.25 41.8021C1168.33 42.4202 1167.24 42.7501 1166.13 42.7501C1164.63 42.7485 1163.2 42.1554 1162.15 41.1008C1161.09 40.0463 1160.5 38.6165 1160.5 37.1252Z" fill="#525965"/>
<path d="M1191.52 41.798C1191.52 42.6847 1191.2 43.38 1190.55 43.884C1189.91 44.388 1189.03 44.64 1187.91 44.64C1187.36 44.64 1186.84 44.5933 1186.37 44.5C1185.89 44.416 1185.48 44.29 1185.15 44.122V42.694C1185.52 42.862 1185.96 43.016 1186.46 43.156C1186.97 43.2867 1187.48 43.352 1188 43.352C1188.68 43.352 1189.18 43.2213 1189.52 42.96C1189.85 42.6987 1190.02 42.3487 1190.02 41.91C1190.02 41.602 1189.95 41.3453 1189.8 41.14C1189.65 40.9253 1189.4 40.7293 1189.07 40.552C1188.74 40.3653 1188.31 40.1693 1187.78 39.964C1187.29 39.7773 1186.86 39.558 1186.48 39.306C1186.1 39.054 1185.8 38.7413 1185.58 38.368C1185.37 37.9947 1185.26 37.5373 1185.26 36.996C1185.26 36.1747 1185.56 35.5307 1186.16 35.064C1186.75 34.5973 1187.54 34.364 1188.51 34.364C1189.05 34.364 1189.55 34.42 1190.01 34.532C1190.47 34.644 1190.92 34.7887 1191.34 34.966L1190.86 36.212C1190.48 36.0533 1190.09 35.9227 1189.68 35.82C1189.29 35.7173 1188.89 35.666 1188.47 35.666C1187.92 35.666 1187.5 35.7873 1187.21 36.03C1186.92 36.2727 1186.77 36.59 1186.77 36.982C1186.77 37.29 1186.84 37.5513 1186.98 37.766C1187.12 37.9713 1187.35 38.1627 1187.65 38.34C1187.96 38.508 1188.37 38.69 1188.87 38.886C1189.43 39.11 1189.91 39.348 1190.3 39.6C1190.7 39.8427 1191 40.1413 1191.21 40.496C1191.42 40.8413 1191.52 41.2753 1191.52 41.798ZM1196.28 36.814C1197.26 36.814 1198.04 37.122 1198.61 37.738C1199.18 38.3447 1199.47 39.1753 1199.47 40.23V41.042H1194.4C1194.42 41.8167 1194.62 42.4093 1195 42.82C1195.39 43.2307 1195.94 43.436 1196.64 43.436C1197.12 43.436 1197.55 43.394 1197.93 43.31C1198.31 43.2167 1198.7 43.0813 1199.1 42.904V44.136C1198.72 44.3133 1198.34 44.4393 1197.96 44.514C1197.57 44.598 1197.12 44.64 1196.58 44.64C1195.86 44.64 1195.21 44.4953 1194.65 44.206C1194.09 43.9167 1193.65 43.4873 1193.34 42.918C1193.03 42.3487 1192.87 41.6393 1192.87 40.79C1192.87 39.9407 1193.01 39.222 1193.29 38.634C1193.58 38.046 1193.98 37.598 1194.48 37.29C1195 36.9727 1195.59 36.814 1196.28 36.814ZM1196.28 37.962C1195.74 37.962 1195.31 38.1347 1194.99 38.48C1194.67 38.8253 1194.48 39.3153 1194.43 39.95H1197.98C1197.97 39.362 1197.83 38.886 1197.55 38.522C1197.28 38.1487 1196.85 37.962 1196.28 37.962ZM1204.25 36.814C1205.19 36.814 1205.89 37.024 1206.36 37.444C1206.84 37.8547 1207.07 38.5033 1207.07 39.39V44.5H1206.02L1205.73 43.45H1205.67C1205.35 43.8607 1205 44.164 1204.64 44.36C1204.28 44.5467 1203.79 44.64 1203.15 44.64C1202.47 44.64 1201.91 44.458 1201.46 44.094C1201.01 43.7207 1200.79 43.142 1200.79 42.358C1200.79 41.5833 1201.08 41 1201.66 40.608C1202.24 40.2067 1203.13 39.9873 1204.33 39.95L1205.62 39.908V39.488C1205.62 38.9373 1205.49 38.55 1205.24 38.326C1204.99 38.0927 1204.63 37.976 1204.18 37.976C1203.79 37.976 1203.42 38.032 1203.07 38.144C1202.71 38.256 1202.37 38.3913 1202.05 38.55L1201.57 37.472C1201.93 37.2853 1202.33 37.1313 1202.79 37.01C1203.26 36.8793 1203.74 36.814 1204.25 36.814ZM1205.6 40.874L1204.6 40.902C1203.74 40.9393 1203.14 41.084 1202.8 41.336C1202.48 41.588 1202.31 41.9333 1202.31 42.372C1202.31 42.764 1202.43 43.0487 1202.66 43.226C1202.9 43.4033 1203.2 43.492 1203.57 43.492C1204.15 43.492 1204.63 43.3287 1205.02 43.002C1205.41 42.6753 1205.6 42.1853 1205.6 41.532V40.874ZM1213.08 36.814C1213.38 36.814 1213.66 36.8373 1213.91 36.884L1213.75 38.27C1213.51 38.2047 1213.26 38.172 1213 38.172C1212.62 38.172 1212.26 38.2653 1211.93 38.452C1211.61 38.6387 1211.34 38.9093 1211.14 39.264C1210.94 39.6093 1210.84 40.0293 1210.84 40.524V44.5H1209.36V36.954H1210.53L1210.73 38.298H1210.79C1211.02 37.8967 1211.33 37.5513 1211.72 37.262C1212.12 36.9633 1212.57 36.814 1213.08 36.814ZM1218.07 44.64C1217.02 44.64 1216.18 44.332 1215.55 43.716C1214.92 43.0907 1214.6 42.1107 1214.6 40.776C1214.6 39.8427 1214.75 39.0867 1215.06 38.508C1215.37 37.9293 1215.79 37.5047 1216.33 37.234C1216.88 36.954 1217.49 36.814 1218.18 36.814C1218.6 36.814 1218.99 36.856 1219.36 36.94C1219.73 37.024 1220.04 37.1267 1220.28 37.248L1219.83 38.452C1219.57 38.3587 1219.3 38.2747 1219.01 38.2C1218.72 38.116 1218.44 38.074 1218.17 38.074C1216.81 38.074 1216.12 38.97 1216.12 40.762C1216.12 41.6207 1216.29 42.274 1216.63 42.722C1216.96 43.17 1217.46 43.394 1218.11 43.394C1218.52 43.394 1218.89 43.3473 1219.22 43.254C1219.54 43.1607 1219.84 43.0393 1220.11 42.89V44.178C1219.84 44.3367 1219.55 44.4533 1219.23 44.528C1218.91 44.6027 1218.53 44.64 1218.07 44.64ZM1223.38 33.86V36.702C1223.38 36.9353 1223.37 37.1687 1223.35 37.402C1223.33 37.6353 1223.31 37.8267 1223.3 37.976H1223.39C1223.64 37.5933 1223.96 37.3087 1224.36 37.122C1224.77 36.926 1225.21 36.828 1225.69 36.828C1226.58 36.828 1227.25 37.0473 1227.72 37.486C1228.2 37.9247 1228.43 38.6247 1228.43 39.586V44.5H1226.96V39.796C1226.96 38.62 1226.45 38.032 1225.41 38.032C1224.63 38.032 1224.1 38.2653 1223.81 38.732C1223.52 39.1987 1223.38 39.8567 1223.38 40.706V44.5H1221.9V33.86H1223.38Z" fill="#525965"/>
<rect x="1262" y="23" width="32" height="32" rx="16" fill="#1F428F"/>
<path d="M1275.22 41.66C1275.22 42.42 1274.95 43.02 1274.4 43.46C1273.84 43.9 1273.08 44.12 1272.1 44.12C1271.16 44.12 1270.36 43.96 1269.7 43.64V42.2C1270.06 42.36 1270.46 42.508 1270.89 42.644C1271.33 42.772 1271.77 42.836 1272.21 42.836C1272.73 42.836 1273.11 42.736 1273.34 42.536C1273.58 42.328 1273.7 42.064 1273.7 41.744C1273.7 41.392 1273.55 41.112 1273.24 40.904C1272.94 40.688 1272.5 40.456 1271.91 40.208C1271.56 40.064 1271.22 39.888 1270.89 39.68C1270.57 39.464 1270.31 39.196 1270.1 38.876C1269.9 38.548 1269.8 38.14 1269.8 37.652C1269.8 36.924 1270.06 36.352 1270.57 35.936C1271.09 35.52 1271.78 35.312 1272.64 35.312C1273.09 35.312 1273.52 35.36 1273.92 35.456C1274.32 35.552 1274.72 35.688 1275.12 35.864L1274.62 37.1C1274.26 36.948 1273.92 36.828 1273.59 36.74C1273.27 36.652 1272.94 36.608 1272.6 36.608C1272.18 36.608 1271.86 36.7 1271.65 36.884C1271.43 37.068 1271.32 37.312 1271.32 37.616C1271.32 37.848 1271.38 38.048 1271.5 38.216C1271.62 38.376 1271.81 38.524 1272.06 38.66C1272.31 38.796 1272.64 38.952 1273.04 39.128C1273.5 39.328 1273.9 39.54 1274.22 39.764C1274.54 39.98 1274.79 40.24 1274.96 40.544C1275.14 40.84 1275.22 41.212 1275.22 41.66ZM1280.53 44L1278.17 36.98H1278.13C1278.14 37.14 1278.15 37.368 1278.16 37.664C1278.18 37.952 1278.19 38.268 1278.2 38.612C1278.21 38.948 1278.22 39.264 1278.22 39.56V44H1276.84V35.432H1278.98L1281.23 42.164H1281.28L1283.63 35.432H1285.77V44H1284.31V39.488C1284.31 39.216 1284.31 38.92 1284.32 38.6C1284.33 38.272 1284.35 37.964 1284.35 37.676C1284.37 37.38 1284.38 37.152 1284.39 36.992H1284.34L1281.89 44H1280.53Z" fill="white"/>
<path d="M1309.03 41.8271C1309.03 42.6976 1308.71 43.3835 1308.08 43.8848C1307.46 44.3861 1306.58 44.6367 1305.46 44.6367C1304.27 44.6367 1303.36 44.4795 1302.71 44.165V42.9619C1303.13 43.1442 1303.6 43.2878 1304.1 43.3926C1304.6 43.4974 1305.08 43.5498 1305.51 43.5498C1306.26 43.5498 1306.82 43.4062 1307.2 43.1191C1307.58 42.832 1307.77 42.4378 1307.77 41.9365C1307.77 41.6038 1307.7 41.3304 1307.56 41.1162C1307.43 40.902 1307.2 40.7015 1306.87 40.5146C1306.56 40.3278 1306.07 40.1159 1305.42 39.8789C1304.49 39.5417 1303.83 39.1452 1303.44 38.6895C1303.04 38.2292 1302.84 37.6367 1302.84 36.9121C1302.84 36.1328 1303.13 35.513 1303.72 35.0527C1304.3 34.5924 1305.08 34.3623 1306.03 34.3623C1307.03 34.3623 1307.95 34.5492 1308.79 34.9229L1308.4 36.0029C1307.54 35.6475 1306.74 35.4697 1306.01 35.4697C1305.41 35.4697 1304.95 35.5973 1304.61 35.8525C1304.28 36.1077 1304.11 36.4655 1304.11 36.9258C1304.11 37.2539 1304.18 37.5273 1304.3 37.7461C1304.44 37.9603 1304.65 38.1562 1304.93 38.334C1305.22 38.5117 1305.68 38.7145 1306.3 38.9424C1307.04 39.2158 1307.6 39.4824 1307.96 39.7422C1308.33 39.9974 1308.59 40.2936 1308.77 40.6309C1308.94 40.9635 1309.03 41.3623 1309.03 41.8271ZM1313.88 44.6367C1312.8 44.6367 1311.96 44.3063 1311.36 43.6455C1310.76 42.9801 1310.46 42.0277 1310.46 40.7881C1310.46 39.5303 1310.76 38.5618 1311.37 37.8828C1311.98 37.1992 1312.84 36.8574 1313.97 36.8574C1314.33 36.8574 1314.69 36.8962 1315.05 36.9736C1315.41 37.0465 1315.71 37.1423 1315.94 37.2607L1315.56 38.2861C1314.93 38.0492 1314.39 37.9307 1313.94 37.9307C1313.19 37.9307 1312.63 38.1699 1312.27 38.6484C1311.91 39.1224 1311.73 39.8311 1311.73 40.7744C1311.73 41.6813 1311.91 42.3763 1312.27 42.8594C1312.63 43.3379 1313.16 43.5771 1313.87 43.5771C1314.53 43.5771 1315.18 43.4313 1315.82 43.1396V44.2334C1315.3 44.5023 1314.65 44.6367 1313.88 44.6367ZM1324.12 40.7334C1324.12 41.9593 1323.81 42.9163 1323.19 43.6045C1322.57 44.2926 1321.71 44.6367 1320.62 44.6367C1319.94 44.6367 1319.34 44.4795 1318.82 44.165C1318.29 43.846 1317.89 43.3903 1317.61 42.7979C1317.32 42.2054 1317.18 41.5173 1317.18 40.7334C1317.18 39.512 1317.49 38.5618 1318.1 37.8828C1318.71 37.1992 1319.57 36.8574 1320.67 36.8574C1321.73 36.8574 1322.56 37.2061 1323.18 37.9033C1323.81 38.596 1324.12 39.5394 1324.12 40.7334ZM1318.45 40.7334C1318.45 41.6768 1318.64 42.3945 1319.01 42.8867C1319.38 43.3743 1319.93 43.6182 1320.66 43.6182C1321.37 43.6182 1321.92 43.3743 1322.29 42.8867C1322.66 42.3945 1322.85 41.6768 1322.85 40.7334C1322.85 39.79 1322.66 39.0814 1322.28 38.6074C1321.91 38.1289 1321.36 37.8896 1320.63 37.8896C1319.18 37.8896 1318.45 38.8376 1318.45 40.7334ZM1328.58 43.6318C1328.74 43.6318 1328.93 43.6159 1329.15 43.584C1329.36 43.5521 1329.52 43.5156 1329.63 43.4746V44.418C1329.52 44.4681 1329.34 44.516 1329.1 44.5615C1328.86 44.6117 1328.62 44.6367 1328.37 44.6367C1326.91 44.6367 1326.17 43.8643 1326.17 42.3193V37.9512H1325.11V37.3633L1326.19 36.8711L1326.68 35.2715H1327.41V36.9941H1329.58V37.9512H1327.41V42.2852C1327.41 42.7181 1327.51 43.0508 1327.72 43.2832C1327.93 43.5156 1328.22 43.6318 1328.58 43.6318ZM1333.64 43.6318C1333.8 43.6318 1333.99 43.6159 1334.2 43.584C1334.42 43.5521 1334.58 43.5156 1334.69 43.4746V44.418C1334.58 44.4681 1334.4 44.516 1334.16 44.5615C1333.92 44.6117 1333.68 44.6367 1333.43 44.6367C1331.96 44.6367 1331.23 43.8643 1331.23 42.3193V37.9512H1330.17V37.3633L1331.24 36.8711L1331.74 35.2715H1332.47V36.9941H1334.63V37.9512H1332.47V42.2852C1332.47 42.7181 1332.57 43.0508 1332.78 43.2832C1332.99 43.5156 1333.27 43.6318 1333.64 43.6318ZM1344.41 44.5L1341.12 35.7363H1341.06C1341.13 36.4655 1341.16 37.3656 1341.16 38.4365V44.5H1340V34.5059H1341.86L1344.94 42.6953H1345L1348.14 34.5059H1349.98V44.5H1348.74V38.3545C1348.74 37.6709 1348.77 36.8027 1348.83 35.75H1348.78L1345.44 44.5H1344.41ZM1357.17 44.5L1356.93 43.4336H1356.87C1356.5 43.903 1356.12 44.222 1355.75 44.3906C1355.38 44.5547 1354.91 44.6367 1354.35 44.6367C1353.61 44.6367 1353.03 44.443 1352.61 44.0557C1352.19 43.6683 1351.98 43.1214 1351.98 42.415C1351.98 40.8929 1353.19 40.0954 1355.59 40.0225L1356.86 39.9746V39.5303C1356.86 38.9606 1356.74 38.5413 1356.49 38.2725C1356.24 37.999 1355.85 37.8623 1355.31 37.8623C1354.91 37.8623 1354.53 37.9215 1354.18 38.04C1353.83 38.1585 1353.5 38.2907 1353.19 38.4365L1352.81 37.5137C1353.19 37.3132 1353.6 37.1559 1354.05 37.042C1354.5 36.9281 1354.94 36.8711 1355.38 36.8711C1356.28 36.8711 1356.96 37.0716 1357.4 37.4727C1357.84 37.8737 1358.06 38.5117 1358.06 39.3867V44.5H1357.17ZM1354.63 43.6455C1355.32 43.6455 1355.86 43.4609 1356.25 43.0918C1356.65 42.7181 1356.84 42.1895 1356.84 41.5059V40.8291L1355.74 40.877C1354.88 40.9089 1354.25 41.0456 1353.85 41.2871C1353.46 41.5286 1353.26 41.9092 1353.26 42.4287C1353.26 42.8206 1353.38 43.1214 1353.62 43.3311C1353.86 43.5407 1354.2 43.6455 1354.63 43.6455ZM1363.89 36.8574C1364.23 36.8574 1364.52 36.8848 1364.77 36.9395L1364.62 38.0742C1364.35 38.0104 1364.07 37.9785 1363.81 37.9785C1363.41 37.9785 1363.04 38.0879 1362.7 38.3066C1362.37 38.5254 1362.1 38.8285 1361.91 39.2158C1361.72 39.5986 1361.62 40.0247 1361.62 40.4941V44.5H1360.39V36.9941H1361.4L1361.54 38.3682H1361.6C1361.88 37.8714 1362.22 37.4954 1362.61 37.2402C1363.01 36.985 1363.43 36.8574 1363.89 36.8574ZM1371.06 42.4287C1371.06 43.1305 1370.8 43.6751 1370.28 44.0625C1369.75 44.4453 1369.02 44.6367 1368.07 44.6367C1367.08 44.6367 1366.29 44.4795 1365.71 44.165V43.0439C1366.54 43.445 1367.33 43.6455 1368.1 43.6455C1368.72 43.6455 1369.17 43.5452 1369.45 43.3447C1369.73 43.1442 1369.87 42.8753 1369.87 42.5381C1369.87 42.2419 1369.74 41.9912 1369.46 41.7861C1369.19 41.5811 1368.71 41.3464 1368.02 41.082C1367.32 40.8086 1366.82 40.5762 1366.53 40.3848C1366.24 40.1888 1366.03 39.9701 1365.9 39.7285C1365.76 39.487 1365.7 39.193 1365.7 38.8467C1365.7 38.2314 1365.95 37.7461 1366.45 37.3906C1366.95 37.0352 1367.64 36.8574 1368.51 36.8574C1369.37 36.8574 1370.16 37.026 1370.91 37.3633L1370.49 38.3408C1369.73 38.0218 1369.04 37.8623 1368.43 37.8623C1367.92 37.8623 1367.53 37.9443 1367.27 38.1084C1367.01 38.2679 1366.87 38.4889 1366.87 38.7715C1366.87 39.0449 1366.99 39.2728 1367.21 39.4551C1367.44 39.6328 1367.97 39.8812 1368.81 40.2002C1369.43 40.4326 1369.89 40.6491 1370.19 40.8496C1370.49 41.0501 1370.71 41.2757 1370.85 41.5264C1370.99 41.777 1371.06 42.0778 1371.06 42.4287ZM1378 44.5V39.7012C1378 39.0905 1377.87 38.637 1377.59 38.3408C1377.32 38.04 1376.9 37.8896 1376.32 37.8896C1375.56 37.8896 1375 38.1016 1374.65 38.5254C1374.29 38.9492 1374.12 39.6488 1374.12 40.624V44.5H1372.89V33.8633H1374.12V36.9805C1374.12 37.3906 1374.1 37.7415 1374.05 38.0332H1374.13C1374.36 37.6686 1374.67 37.3838 1375.08 37.1787C1375.49 36.9736 1375.96 36.8711 1376.47 36.8711C1377.38 36.8711 1378.07 37.0898 1378.53 37.5273C1378.99 37.9603 1379.22 38.6553 1379.22 39.6123V44.5H1378ZM1386.18 44.5L1385.94 43.4336H1385.88C1385.51 43.903 1385.14 44.222 1384.76 44.3906C1384.39 44.5547 1383.93 44.6367 1383.36 44.6367C1382.62 44.6367 1382.04 44.443 1381.62 44.0557C1381.21 43.6683 1381 43.1214 1381 42.415C1381 40.8929 1382.2 40.0954 1384.6 40.0225L1385.87 39.9746V39.5303C1385.87 38.9606 1385.75 38.5413 1385.5 38.2725C1385.25 37.999 1384.86 37.8623 1384.32 37.8623C1383.92 37.8623 1383.55 37.9215 1383.19 38.04C1382.84 38.1585 1382.51 38.2907 1382.2 38.4365L1381.82 37.5137C1382.2 37.3132 1382.61 37.1559 1383.06 37.042C1383.51 36.9281 1383.95 36.8711 1384.39 36.8711C1385.29 36.8711 1385.97 37.0716 1386.41 37.4727C1386.85 37.8737 1387.07 38.5117 1387.07 39.3867V44.5H1386.18ZM1383.64 43.6455C1384.33 43.6455 1384.87 43.4609 1385.26 43.0918C1385.66 42.7181 1385.86 42.1895 1385.86 41.5059V40.8291L1384.75 40.877C1383.89 40.9089 1383.26 41.0456 1382.86 41.2871C1382.47 41.5286 1382.27 41.9092 1382.27 42.4287C1382.27 42.8206 1382.39 43.1214 1382.63 43.3311C1382.87 43.5407 1383.21 43.6455 1383.64 43.6455ZM1390.63 44.5H1389.4V33.8633H1390.63V44.5ZM1394.24 44.5H1393.01V33.8633H1394.24V44.5Z" fill="#525965"/>
<path d="M1410 42.7498L1403.75 36.4998L1404.63 35.6248L1410 40.9998L1415.38 35.6248L1416.25 36.4998L1410 42.7498Z" fill="#525965"/>
<line y1="72.5" x2="1440" y2="72.5" stroke="#F5F5F5"/>
<defs>
<linearGradient id="paint0_linear_33896_10139" x1="32.0553" y1="51.4639" x2="15.9447" y2="23.5612" gradientUnits="userSpaceOnUse">
<stop stop-color="#54A0E4"/>
<stop offset="0.49" stop-color="#0B77D8"/>
<stop offset="1" stop-color="#0347BF"/>
</linearGradient>
<clipPath id="clip0_33896_10139">
<rect width="190" height="27" fill="white" transform="translate(12 25.5)"/>
</clipPath>
</defs>
</svg>
