<svg width="1440" height="73" viewBox="0 0 1440 73" fill="none" xmlns="http://www.w3.org/2000/svg">
<rect width="1440" height="5" fill="#0B77D8"/>
<rect width="1440" height="68" transform="translate(0 5)" fill="white"/>
<g clip-path="url(#clip0_33896_10140)">
<path d="M88.5302 44.0608C88.5302 46.2394 89.6276 49.1856 94.4788 49.1856C99.33 49.1856 100.427 46.2394 100.427 44.0608V40.407H95.5762V44.4104C95.5762 45.0477 95.5762 45.9208 94.4767 45.9208C93.3772 45.9208 93.3772 45.0477 93.3772 44.4104V34.9635C93.3772 34.3242 93.3772 33.4511 94.4767 33.4511C95.5762 33.4511 95.5762 34.3242 95.5762 34.9635V37.618H100.427V35.3132C100.427 33.1325 99.3259 30.1884 94.4788 30.1884C89.6318 30.1884 88.5302 33.1325 88.5302 35.3132V44.0608Z" fill="#32373F"/>
<path d="M101.83 45.7012C101.83 48.6081 103.441 48.9557 105.528 48.9557H106.682V33.993H107.891V30.3868H106.682V25.7378H101.83V30.3868H100.617V33.993H101.83V45.7012Z" fill="#32373F"/>
<path fill-rule="evenodd" clip-rule="evenodd" d="M108.569 48.9724H113.42V30.3993H108.569V48.9724ZM108.569 29.1807H113.42V25.7504H108.569V29.1807Z" fill="#32373F"/>
<path fill-rule="evenodd" clip-rule="evenodd" d="M117.033 48.9726H122.705L126.001 30.4016H121.152L119.94 42.2878H119.882L118.756 30.4016H113.763L117.033 48.9726Z" fill="#32373F"/>
<path fill-rule="evenodd" clip-rule="evenodd" d="M75.6373 44.0608C75.6373 46.2394 76.7347 49.1856 81.5838 49.1856C86.433 49.1856 87.5367 46.2415 87.5367 44.0608V42.0849H82.6834V44.4104C82.6834 45.0477 82.6834 45.9208 81.5838 45.9208C80.4843 45.9208 80.4843 45.0477 80.4843 44.4104V40.4277H87.5367V35.3132C87.5367 33.1325 86.4371 30.1884 81.5838 30.1884C76.7306 30.1884 75.6373 33.1325 75.6373 35.3132V44.0628V44.0608ZM80.4843 34.9635C80.4843 34.3242 80.4843 33.4532 81.5838 33.4532C82.6834 33.4532 82.6834 34.3242 82.6834 34.9635V36.9994H80.4843V34.9635Z" fill="#32373F"/>
<path fill-rule="evenodd" clip-rule="evenodd" d="M125.829 44.0608C125.829 46.2394 126.926 49.1856 131.777 49.1856C136.629 49.1856 137.728 46.2415 137.728 44.0608V42.0849H132.879V44.4104C132.879 45.0477 132.879 45.9208 131.78 45.9208C130.68 45.9208 130.68 45.0477 130.68 44.4104V40.4277H137.73V35.3132C137.73 33.1325 136.631 30.1884 131.78 30.1884C126.928 30.1884 125.831 33.1325 125.831 35.3132V44.0628L125.829 44.0608ZM130.678 34.9635C130.678 34.3242 130.678 33.4511 131.777 33.4511C132.877 33.4511 132.877 34.3242 132.877 34.9635V36.9994H130.676V34.9635" fill="#32373F"/>
<path fill-rule="evenodd" clip-rule="evenodd" d="M47.2159 31.6222C47.2159 30.836 47.2159 29.4994 48.7125 29.4994C50.209 29.4994 50.2069 30.836 50.2069 31.6222V43.1029C50.2069 43.7132 50.2069 45.2215 48.7125 45.2215C47.218 45.2215 47.2159 43.7132 47.2159 43.1029V31.6222ZM42.028 42.6373C42.028 46.7649 44.5929 49.1856 48.7104 49.1856C52.8279 49.1856 55.3907 46.7649 55.3907 42.6373V32.0856C55.3927 27.5525 52.5743 25.5353 48.7104 25.5353C44.8465 25.5353 42.028 27.5505 42.028 32.0856V42.6373Z" fill="#32373F"/>
<path fill-rule="evenodd" clip-rule="evenodd" d="M61.5035 44.3854C61.5035 45.0247 61.5035 45.8978 62.603 45.8978C63.7026 45.8978 63.7046 45.0247 63.7046 44.3854V34.9385C63.7046 34.2992 63.7046 33.4261 62.603 33.4261C61.5014 33.4261 61.5035 34.2971 61.5035 34.9385L61.491 44.3854H61.5035ZM61.491 48.6164V48.9599H56.6419V25.7378H61.491V30.6288C61.8444 30.3743 62.576 30.1612 62.9709 30.1612C67.5166 30.1612 68.5517 33.1074 68.5517 35.2861V44.0337C68.5517 46.2123 67.5519 49.1585 63.1102 49.1585C62.7153 49.1585 61.8444 48.9785 61.4869 48.6143H61.491" fill="#32373F"/>
<path d="M69.6844 52.4814L70.8318 52.4979C74.2447 52.4979 74.5357 50.4207 74.5357 47.6296V30.3993H69.6865V52.4814" fill="#32373F"/>
<path d="M69.6844 25.7504H74.5357V29.1807H69.6844V25.7504Z" fill="#32373F"/>
<path d="M150.964 35.313C150.964 34.6406 150.879 34.0799 150.708 33.6288C150.538 33.1778 150.309 32.8199 150.025 32.553C149.74 32.2881 149.416 32.1019 149.05 31.9964C148.684 31.8909 148.306 31.8371 147.915 31.8371H145.72V38.8964H147.988C148.915 38.8964 149.642 38.5819 150.17 37.955C150.698 37.3261 150.964 36.4468 150.964 35.313ZM151.062 49.1006L147.94 40.3612H145.722V49.1006H144.038V30.2378H148.185C148.755 30.2378 149.303 30.3226 149.831 30.4902C150.359 30.6599 150.831 30.9392 151.245 31.3302C151.66 31.7212 151.993 32.2364 152.244 32.8757C152.496 33.515 152.623 34.2971 152.623 35.2199C152.623 36.0185 152.529 36.7074 152.342 37.2847C152.155 37.8619 151.912 38.3461 151.61 38.7371C151.309 39.1281 150.976 39.4302 150.611 39.6433C150.245 39.8564 149.883 39.9888 149.526 40.0426L152.891 49.1006H151.062Z" fill="#0B77D8"/>
<path d="M155.37 49.1006V30.2378H162.323V31.8888H157.029V38.495H161.98V40.0943H157.029V47.4206H162.564V49.1006H155.37Z" fill="#0B77D8"/>
<path d="M173.582 39.695C173.582 38.3585 173.464 37.1957 173.229 36.2068C172.992 35.2178 172.668 34.4026 172.252 33.7612C171.838 33.1199 171.35 32.6378 170.789 32.3171C170.23 31.9964 169.623 31.835 168.972 31.835H166.973V47.5012H168.972C169.623 47.5012 170.228 47.3419 170.789 47.0192C171.35 46.6985 171.838 46.2185 172.252 45.575C172.668 44.9337 172.992 44.1226 173.229 43.1419C173.464 42.1612 173.582 41.013 173.582 39.693V39.695ZM175.264 39.695C175.264 41.2406 175.118 42.5999 174.825 43.7709C174.532 44.9419 174.11 45.9247 173.557 46.715C173.004 47.5054 172.341 48.1012 171.57 48.5006C170.797 48.8999 169.941 49.1006 168.997 49.1006H165.289V30.2378H169.02C169.961 30.2378 170.82 30.4385 171.593 30.8378C172.364 31.2371 173.023 31.8371 173.568 32.6357C174.112 33.4343 174.532 34.4254 174.823 35.6068C175.116 36.7881 175.262 38.1516 175.262 39.6971L175.264 39.695Z" fill="#0B77D8"/>
<path d="M181.379 31.9157H181.283L178.893 42.8916H183.721L181.379 31.9157ZM185.012 49.1006L183.962 44.3854H178.645L177.548 49.1006H175.817L180.206 30.2378H182.524L186.791 49.1006H185.012Z" fill="#0B77D8"/>
<path d="M196.053 48.8855C195.354 49.3282 194.565 49.5517 193.688 49.5517C192.744 49.5517 191.906 49.2993 191.175 48.7924C190.443 48.2855 189.826 47.5924 189.321 46.7131C188.816 45.8337 188.431 44.791 188.163 43.5827C187.895 42.3744 187.762 41.0689 187.762 39.6662C187.762 38.2634 187.895 36.931 188.163 35.7227C188.431 34.5144 188.822 33.4717 189.335 32.5924C189.846 31.7131 190.468 31.0241 191.2 30.5275C191.931 30.031 192.761 29.7806 193.688 29.7806C194.5 29.7806 195.261 29.9668 195.966 30.3413C196.674 30.7137 197.263 31.3013 197.734 32.0999L196.637 33.3248C196.263 32.7041 195.828 32.2406 195.332 31.9386C194.835 31.6365 194.311 31.4855 193.758 31.4855C193.043 31.4855 192.422 31.6986 191.894 32.1248C191.364 32.551 190.925 33.1365 190.576 33.8834C190.227 34.6303 189.967 35.4993 189.794 36.4944C189.624 37.4896 189.539 38.5468 189.539 39.6641C189.539 40.7813 189.628 41.8344 189.807 42.8213C189.986 43.8062 190.25 44.6731 190.599 45.4179C190.948 46.1648 191.387 46.7544 191.917 47.1889C192.445 47.6255 193.066 47.8406 193.781 47.8406C194.398 47.8406 194.962 47.6503 195.465 47.2675C195.968 46.8868 196.383 46.3841 196.708 45.7634L197.78 46.9613C197.325 47.7972 196.747 48.4365 196.049 48.8793L196.053 48.8855Z" fill="#0B77D8"/>
<path d="M204.66 31.835V49.1006H202.976V31.835H199.661V30.2378H208V31.835H204.66Z" fill="#0B77D8"/>
<path d="M35.2312 25.5H12.7688C12.3466 25.5 12 25.8466 12 26.2688V48.7312C12 49.1534 12.3466 49.5 12.7688 49.5H35.2312C35.6534 49.5 36 49.1534 36 48.7312V26.2688C35.9979 25.8466 35.6534 25.5 35.2312 25.5ZM26.4134 34.8555L27.115 31.3435C27.1318 31.2679 27.2095 31.2049 27.2872 31.2049H30.6417C30.7194 31.2049 30.7635 31.2658 30.7383 31.3393L29.7007 34.8618C29.6755 34.9353 29.5915 34.9962 29.5137 34.9962H26.5248C26.4471 34.9962 26.3966 34.9332 26.4134 34.8576V34.8555ZM21.9415 31.2175L23.9664 31.207L26.0018 31.2175C26.0774 31.2175 26.1278 31.2763 26.111 31.3477L25.506 34.4081C25.4892 34.4816 25.4073 34.5173 25.3401 34.4837C24.8843 34.2485 24.5461 34.114 23.9979 34.114H23.9727H23.9433C23.3951 34.114 23.0569 34.2485 22.6011 34.4837C22.5339 34.5173 22.452 34.4837 22.4351 34.4081L21.8302 31.3477C21.8134 31.2763 21.8638 31.2175 21.9394 31.2175H21.9415ZM17.2323 31.2049H20.5867C20.6644 31.2049 20.7422 31.2679 20.759 31.3435L21.4605 34.8555C21.4773 34.9311 21.4269 34.9941 21.3492 34.9941H18.3602C18.2825 34.9941 18.1985 34.9332 18.1733 34.8597L17.1357 31.3372C17.1104 31.2637 17.1546 31.2028 17.2323 31.2028V31.2049ZM21.4605 40.197L20.759 43.709C20.7422 43.7846 20.6644 43.8476 20.5867 43.8476H17.2323C17.1546 43.8476 17.1104 43.7867 17.1357 43.7132L18.1733 40.1907C18.1985 40.1172 18.2825 40.0563 18.3602 40.0563H21.3492C21.4269 40.0563 21.4773 40.1193 21.4605 40.1949V40.197ZM26.0018 43.835L23.9769 43.8455L21.9415 43.835C21.8659 43.835 21.8155 43.7762 21.8323 43.7048L22.4372 40.6444C22.4541 40.5709 22.536 40.5352 22.6032 40.5688C23.059 40.804 23.3972 40.9385 23.9454 40.9385H23.9706H24C24.5482 40.9385 24.8864 40.804 25.3422 40.5688C25.4094 40.5352 25.4913 40.5688 25.5081 40.6444L26.1131 43.7048C26.1299 43.7762 26.0795 43.835 26.0038 43.835H26.0018ZM30.6417 43.8476H27.2872C27.2095 43.8476 27.1318 43.7846 27.115 43.709L26.4134 40.197C26.3966 40.1214 26.4471 40.0584 26.5248 40.0584H29.5137C29.5915 40.0584 29.6755 40.1193 29.7007 40.1928L30.7383 43.7153C30.7635 43.7888 30.7194 43.8497 30.6417 43.8497V43.8476ZM30.8496 37.4895H30.8391V38.6511C30.8391 38.8464 30.6816 39.0039 30.4863 39.0039H17.4633C17.2701 39.0039 17.1104 38.8443 17.1104 38.6511V37.5105H17.121V36.3489C17.121 36.1536 17.2785 35.9961 17.4738 35.9961H30.4947C30.6879 35.9961 30.8475 36.1557 30.8475 36.3489V37.4895H30.8496Z" fill="url(#paint0_linear_33896_10140)"/>
</g>
<rect x="1262" y="23" width="32" height="32" rx="16" fill="#1F428F"/>
<path d="M1275.22 41.66C1275.22 42.42 1274.95 43.02 1274.4 43.46C1273.84 43.9 1273.08 44.12 1272.1 44.12C1271.16 44.12 1270.36 43.96 1269.7 43.64V42.2C1270.06 42.36 1270.46 42.508 1270.89 42.644C1271.33 42.772 1271.77 42.836 1272.21 42.836C1272.73 42.836 1273.11 42.736 1273.34 42.536C1273.58 42.328 1273.7 42.064 1273.7 41.744C1273.7 41.392 1273.55 41.112 1273.24 40.904C1272.94 40.688 1272.5 40.456 1271.91 40.208C1271.56 40.064 1271.22 39.888 1270.89 39.68C1270.57 39.464 1270.31 39.196 1270.1 38.876C1269.9 38.548 1269.8 38.14 1269.8 37.652C1269.8 36.924 1270.06 36.352 1270.57 35.936C1271.09 35.52 1271.78 35.312 1272.64 35.312C1273.09 35.312 1273.52 35.36 1273.92 35.456C1274.32 35.552 1274.72 35.688 1275.12 35.864L1274.62 37.1C1274.26 36.948 1273.92 36.828 1273.59 36.74C1273.27 36.652 1272.94 36.608 1272.6 36.608C1272.18 36.608 1271.86 36.7 1271.65 36.884C1271.43 37.068 1271.32 37.312 1271.32 37.616C1271.32 37.848 1271.38 38.048 1271.5 38.216C1271.62 38.376 1271.81 38.524 1272.06 38.66C1272.31 38.796 1272.64 38.952 1273.04 39.128C1273.5 39.328 1273.9 39.54 1274.22 39.764C1274.54 39.98 1274.79 40.24 1274.96 40.544C1275.14 40.84 1275.22 41.212 1275.22 41.66ZM1280.53 44L1278.17 36.98H1278.13C1278.14 37.14 1278.15 37.368 1278.16 37.664C1278.18 37.952 1278.19 38.268 1278.2 38.612C1278.21 38.948 1278.22 39.264 1278.22 39.56V44H1276.84V35.432H1278.98L1281.23 42.164H1281.28L1283.63 35.432H1285.77V44H1284.31V39.488C1284.31 39.216 1284.31 38.92 1284.32 38.6C1284.33 38.272 1284.35 37.964 1284.35 37.676C1284.37 37.38 1284.38 37.152 1284.39 36.992H1284.34L1281.89 44H1280.53Z" fill="white"/>
<path d="M1309.03 41.8271C1309.03 42.6976 1308.71 43.3835 1308.08 43.8848C1307.46 44.3861 1306.58 44.6367 1305.46 44.6367C1304.27 44.6367 1303.36 44.4795 1302.71 44.165V42.9619C1303.13 43.1442 1303.6 43.2878 1304.1 43.3926C1304.6 43.4974 1305.08 43.5498 1305.51 43.5498C1306.26 43.5498 1306.82 43.4062 1307.2 43.1191C1307.58 42.832 1307.77 42.4378 1307.77 41.9365C1307.77 41.6038 1307.7 41.3304 1307.56 41.1162C1307.43 40.902 1307.2 40.7015 1306.87 40.5146C1306.56 40.3278 1306.07 40.1159 1305.42 39.8789C1304.49 39.5417 1303.83 39.1452 1303.44 38.6895C1303.04 38.2292 1302.84 37.6367 1302.84 36.9121C1302.84 36.1328 1303.13 35.513 1303.72 35.0527C1304.3 34.5924 1305.08 34.3623 1306.03 34.3623C1307.03 34.3623 1307.95 34.5492 1308.79 34.9229L1308.4 36.0029C1307.54 35.6475 1306.74 35.4697 1306.01 35.4697C1305.41 35.4697 1304.95 35.5973 1304.61 35.8525C1304.28 36.1077 1304.11 36.4655 1304.11 36.9258C1304.11 37.2539 1304.18 37.5273 1304.3 37.7461C1304.44 37.9603 1304.65 38.1562 1304.93 38.334C1305.22 38.5117 1305.68 38.7145 1306.3 38.9424C1307.04 39.2158 1307.6 39.4824 1307.96 39.7422C1308.33 39.9974 1308.59 40.2936 1308.77 40.6309C1308.94 40.9635 1309.03 41.3623 1309.03 41.8271ZM1313.88 44.6367C1312.8 44.6367 1311.96 44.3063 1311.36 43.6455C1310.76 42.9801 1310.46 42.0277 1310.46 40.7881C1310.46 39.5303 1310.76 38.5618 1311.37 37.8828C1311.98 37.1992 1312.84 36.8574 1313.97 36.8574C1314.33 36.8574 1314.69 36.8962 1315.05 36.9736C1315.41 37.0465 1315.71 37.1423 1315.94 37.2607L1315.56 38.2861C1314.93 38.0492 1314.39 37.9307 1313.94 37.9307C1313.19 37.9307 1312.63 38.1699 1312.27 38.6484C1311.91 39.1224 1311.73 39.8311 1311.73 40.7744C1311.73 41.6813 1311.91 42.3763 1312.27 42.8594C1312.63 43.3379 1313.16 43.5771 1313.87 43.5771C1314.53 43.5771 1315.18 43.4313 1315.82 43.1396V44.2334C1315.3 44.5023 1314.65 44.6367 1313.88 44.6367ZM1324.12 40.7334C1324.12 41.9593 1323.81 42.9163 1323.19 43.6045C1322.57 44.2926 1321.71 44.6367 1320.62 44.6367C1319.94 44.6367 1319.34 44.4795 1318.82 44.165C1318.29 43.846 1317.89 43.3903 1317.61 42.7979C1317.32 42.2054 1317.18 41.5173 1317.18 40.7334C1317.18 39.512 1317.49 38.5618 1318.1 37.8828C1318.71 37.1992 1319.57 36.8574 1320.67 36.8574C1321.73 36.8574 1322.56 37.2061 1323.18 37.9033C1323.81 38.596 1324.12 39.5394 1324.12 40.7334ZM1318.45 40.7334C1318.45 41.6768 1318.64 42.3945 1319.01 42.8867C1319.38 43.3743 1319.93 43.6182 1320.66 43.6182C1321.37 43.6182 1321.92 43.3743 1322.29 42.8867C1322.66 42.3945 1322.85 41.6768 1322.85 40.7334C1322.85 39.79 1322.66 39.0814 1322.28 38.6074C1321.91 38.1289 1321.36 37.8896 1320.63 37.8896C1319.18 37.8896 1318.45 38.8376 1318.45 40.7334ZM1328.58 43.6318C1328.74 43.6318 1328.93 43.6159 1329.15 43.584C1329.36 43.5521 1329.52 43.5156 1329.63 43.4746V44.418C1329.52 44.4681 1329.34 44.516 1329.1 44.5615C1328.86 44.6117 1328.62 44.6367 1328.37 44.6367C1326.91 44.6367 1326.17 43.8643 1326.17 42.3193V37.9512H1325.11V37.3633L1326.19 36.8711L1326.68 35.2715H1327.41V36.9941H1329.58V37.9512H1327.41V42.2852C1327.41 42.7181 1327.51 43.0508 1327.72 43.2832C1327.93 43.5156 1328.22 43.6318 1328.58 43.6318ZM1333.64 43.6318C1333.8 43.6318 1333.99 43.6159 1334.2 43.584C1334.42 43.5521 1334.58 43.5156 1334.69 43.4746V44.418C1334.58 44.4681 1334.4 44.516 1334.16 44.5615C1333.92 44.6117 1333.68 44.6367 1333.43 44.6367C1331.96 44.6367 1331.23 43.8643 1331.23 42.3193V37.9512H1330.17V37.3633L1331.24 36.8711L1331.74 35.2715H1332.47V36.9941H1334.63V37.9512H1332.47V42.2852C1332.47 42.7181 1332.57 43.0508 1332.78 43.2832C1332.99 43.5156 1333.27 43.6318 1333.64 43.6318ZM1344.41 44.5L1341.12 35.7363H1341.06C1341.13 36.4655 1341.16 37.3656 1341.16 38.4365V44.5H1340V34.5059H1341.86L1344.94 42.6953H1345L1348.14 34.5059H1349.98V44.5H1348.74V38.3545C1348.74 37.6709 1348.77 36.8027 1348.83 35.75H1348.78L1345.44 44.5H1344.41ZM1357.17 44.5L1356.93 43.4336H1356.87C1356.5 43.903 1356.12 44.222 1355.75 44.3906C1355.38 44.5547 1354.91 44.6367 1354.35 44.6367C1353.61 44.6367 1353.03 44.443 1352.61 44.0557C1352.19 43.6683 1351.98 43.1214 1351.98 42.415C1351.98 40.8929 1353.19 40.0954 1355.59 40.0225L1356.86 39.9746V39.5303C1356.86 38.9606 1356.74 38.5413 1356.49 38.2725C1356.24 37.999 1355.85 37.8623 1355.31 37.8623C1354.91 37.8623 1354.53 37.9215 1354.18 38.04C1353.83 38.1585 1353.5 38.2907 1353.19 38.4365L1352.81 37.5137C1353.19 37.3132 1353.6 37.1559 1354.05 37.042C1354.5 36.9281 1354.94 36.8711 1355.38 36.8711C1356.28 36.8711 1356.96 37.0716 1357.4 37.4727C1357.84 37.8737 1358.06 38.5117 1358.06 39.3867V44.5H1357.17ZM1354.63 43.6455C1355.32 43.6455 1355.86 43.4609 1356.25 43.0918C1356.65 42.7181 1356.84 42.1895 1356.84 41.5059V40.8291L1355.74 40.877C1354.88 40.9089 1354.25 41.0456 1353.85 41.2871C1353.46 41.5286 1353.26 41.9092 1353.26 42.4287C1353.26 42.8206 1353.38 43.1214 1353.62 43.3311C1353.86 43.5407 1354.2 43.6455 1354.63 43.6455ZM1363.89 36.8574C1364.23 36.8574 1364.52 36.8848 1364.77 36.9395L1364.62 38.0742C1364.35 38.0104 1364.07 37.9785 1363.81 37.9785C1363.41 37.9785 1363.04 38.0879 1362.7 38.3066C1362.37 38.5254 1362.1 38.8285 1361.91 39.2158C1361.72 39.5986 1361.62 40.0247 1361.62 40.4941V44.5H1360.39V36.9941H1361.4L1361.54 38.3682H1361.6C1361.88 37.8714 1362.22 37.4954 1362.61 37.2402C1363.01 36.985 1363.43 36.8574 1363.89 36.8574ZM1371.06 42.4287C1371.06 43.1305 1370.8 43.6751 1370.28 44.0625C1369.75 44.4453 1369.02 44.6367 1368.07 44.6367C1367.08 44.6367 1366.29 44.4795 1365.71 44.165V43.0439C1366.54 43.445 1367.33 43.6455 1368.1 43.6455C1368.72 43.6455 1369.17 43.5452 1369.45 43.3447C1369.73 43.1442 1369.87 42.8753 1369.87 42.5381C1369.87 42.2419 1369.74 41.9912 1369.46 41.7861C1369.19 41.5811 1368.71 41.3464 1368.02 41.082C1367.32 40.8086 1366.82 40.5762 1366.53 40.3848C1366.24 40.1888 1366.03 39.9701 1365.9 39.7285C1365.76 39.487 1365.7 39.193 1365.7 38.8467C1365.7 38.2314 1365.95 37.7461 1366.45 37.3906C1366.95 37.0352 1367.64 36.8574 1368.51 36.8574C1369.37 36.8574 1370.16 37.026 1370.91 37.3633L1370.49 38.3408C1369.73 38.0218 1369.04 37.8623 1368.43 37.8623C1367.92 37.8623 1367.53 37.9443 1367.27 38.1084C1367.01 38.2679 1366.87 38.4889 1366.87 38.7715C1366.87 39.0449 1366.99 39.2728 1367.21 39.4551C1367.44 39.6328 1367.97 39.8812 1368.81 40.2002C1369.43 40.4326 1369.89 40.6491 1370.19 40.8496C1370.49 41.0501 1370.71 41.2757 1370.85 41.5264C1370.99 41.777 1371.06 42.0778 1371.06 42.4287ZM1378 44.5V39.7012C1378 39.0905 1377.87 38.637 1377.59 38.3408C1377.32 38.04 1376.9 37.8896 1376.32 37.8896C1375.56 37.8896 1375 38.1016 1374.65 38.5254C1374.29 38.9492 1374.12 39.6488 1374.12 40.624V44.5H1372.89V33.8633H1374.12V36.9805C1374.12 37.3906 1374.1 37.7415 1374.05 38.0332H1374.13C1374.36 37.6686 1374.67 37.3838 1375.08 37.1787C1375.49 36.9736 1375.96 36.8711 1376.47 36.8711C1377.38 36.8711 1378.07 37.0898 1378.53 37.5273C1378.99 37.9603 1379.22 38.6553 1379.22 39.6123V44.5H1378ZM1386.18 44.5L1385.94 43.4336H1385.88C1385.51 43.903 1385.14 44.222 1384.76 44.3906C1384.39 44.5547 1383.93 44.6367 1383.36 44.6367C1382.62 44.6367 1382.04 44.443 1381.62 44.0557C1381.21 43.6683 1381 43.1214 1381 42.415C1381 40.8929 1382.2 40.0954 1384.6 40.0225L1385.87 39.9746V39.5303C1385.87 38.9606 1385.75 38.5413 1385.5 38.2725C1385.25 37.999 1384.86 37.8623 1384.32 37.8623C1383.92 37.8623 1383.55 37.9215 1383.19 38.04C1382.84 38.1585 1382.51 38.2907 1382.2 38.4365L1381.82 37.5137C1382.2 37.3132 1382.61 37.1559 1383.06 37.042C1383.51 36.9281 1383.95 36.8711 1384.39 36.8711C1385.29 36.8711 1385.97 37.0716 1386.41 37.4727C1386.85 37.8737 1387.07 38.5117 1387.07 39.3867V44.5H1386.18ZM1383.64 43.6455C1384.33 43.6455 1384.87 43.4609 1385.26 43.0918C1385.66 42.7181 1385.86 42.1895 1385.86 41.5059V40.8291L1384.75 40.877C1383.89 40.9089 1383.26 41.0456 1382.86 41.2871C1382.47 41.5286 1382.27 41.9092 1382.27 42.4287C1382.27 42.8206 1382.39 43.1214 1382.63 43.3311C1382.87 43.5407 1383.21 43.6455 1383.64 43.6455ZM1390.63 44.5H1389.4V33.8633H1390.63V44.5ZM1394.24 44.5H1393.01V33.8633H1394.24V44.5Z" fill="#525965"/>
<path d="M1410 42.7498L1403.75 36.4998L1404.63 35.6248L1410 40.9998L1415.38 35.6248L1416.25 36.4998L1410 42.7498Z" fill="#525965"/>
<line y1="72.5" x2="1440" y2="72.5" stroke="#F5F5F5"/>
<defs>
<linearGradient id="paint0_linear_33896_10140" x1="32.0553" y1="51.4513" x2="15.9447" y2="23.5487" gradientUnits="userSpaceOnUse">
<stop stop-color="#54A0E4"/>
<stop offset="0.49" stop-color="#0B77D8"/>
<stop offset="1" stop-color="#0347BF"/>
</linearGradient>
<clipPath id="clip0_33896_10140">
<rect width="196" height="27" fill="white" transform="translate(12 25.5)"/>
</clipPath>
</defs>
</svg>
