<svg width="1440" height="73" viewBox="0 0 1440 73" fill="none" xmlns="http://www.w3.org/2000/svg">
<rect width="1440" height="5" fill="#5DA10C"/>
<rect width="1440" height="68" transform="translate(0 5)" fill="white"/>
<g clip-path="url(#clip0_33896_10134)">
<path fill-rule="evenodd" clip-rule="evenodd" d="M47.3623 31.5953C47.3623 30.808 47.3623 29.4696 48.8651 29.4696C50.3678 29.4696 50.3657 30.808 50.3657 31.5953V43.0919C50.3657 43.703 50.3657 45.2134 48.8651 45.2134C47.3644 45.2134 47.3623 43.703 47.3623 43.0919V31.5953ZM42.1528 42.6257C42.1528 46.759 44.7284 49.183 48.863 49.183C52.9976 49.183 55.5711 46.759 55.5711 42.6257V32.0594C55.5711 27.518 52.7409 25.5 48.863 25.5C44.9851 25.5 42.1528 27.518 42.1528 32.0594V42.6257Z" fill="#32373F"/>
<path d="M88.8488 44.051C88.8488 46.2326 89.9508 49.1829 94.8222 49.1829C99.6935 49.1829 100.796 46.2326 100.796 44.051V40.3922H95.9242V44.4011C95.9242 45.0393 95.9242 45.9136 94.8201 45.9136C93.716 45.9136 93.716 45.0393 93.716 44.4011V34.9412C93.716 34.301 93.716 33.4267 94.8201 33.4267C95.9242 33.4267 95.9242 34.301 95.9242 34.9412V37.5993H100.796V35.2913C100.796 33.1076 99.6894 30.1594 94.8222 30.1594C89.9549 30.1594 88.8488 33.1076 88.8488 35.2913V44.051Z" fill="#32373F"/>
<path d="M102.204 45.6941C102.204 48.6051 103.822 48.9531 105.917 48.9531H107.076V33.9697H108.29V30.3585H107.076V25.7031H102.204V30.3585H100.985V33.9697H102.204V45.6941Z" fill="#32373F"/>
<path fill-rule="evenodd" clip-rule="evenodd" d="M108.971 48.9695H113.842V30.3707H108.971V48.9695ZM108.971 29.1483H113.842V25.7153H108.971V29.1504V29.1483Z" fill="#32373F"/>
<path fill-rule="evenodd" clip-rule="evenodd" d="M117.47 48.9696H123.165L126.473 30.3708H121.606L120.387 42.2735H120.329L119.198 30.3708H114.186L117.47 48.9696Z" fill="#32373F"/>
<path fill-rule="evenodd" clip-rule="evenodd" d="M75.9021 44.051C75.9021 46.2326 77.0041 49.1829 81.8734 49.1829C86.7427 49.1829 87.851 46.2347 87.851 44.051V42.0724H82.9775V44.4011C82.9775 45.0393 82.9775 45.9136 81.8734 45.9136C80.7693 45.9136 80.7693 45.0393 80.7693 44.4011V40.4129H87.851V35.2913C87.851 33.1076 86.7469 30.1594 81.8734 30.1594C76.9999 30.1594 75.9021 33.1076 75.9021 35.2913V44.0531V44.051ZM80.7693 34.9391C80.7693 34.2989 80.7693 33.4267 81.8734 33.4267C82.9775 33.4267 82.9775 34.2989 82.9775 34.9391V36.9778H80.7693V34.9391Z" fill="#32373F"/>
<path fill-rule="evenodd" clip-rule="evenodd" d="M126.302 44.051C126.302 46.2326 127.404 49.1829 132.276 49.1829C137.147 49.1829 138.251 46.2347 138.251 44.051V42.0724H133.382V44.4011C133.382 45.0393 133.382 45.9136 132.278 45.9136C131.174 45.9136 131.174 45.0393 131.174 44.4011V40.4129H138.253V35.2913C138.253 33.1076 137.149 30.1594 132.278 30.1594C127.407 30.1594 126.305 33.1076 126.305 35.2913V44.0531L126.302 44.051ZM131.172 34.9391C131.172 34.2989 131.172 33.4246 132.276 33.4246C133.38 33.4246 133.38 34.2989 133.38 34.9391V36.9778H131.17V34.9391" fill="#32373F"/>
<path fill-rule="evenodd" clip-rule="evenodd" d="M61.7094 44.3765C61.7094 45.0167 61.7094 45.891 62.8135 45.891C63.9176 45.891 63.9197 45.0167 63.9197 44.3765V34.9165C63.9197 34.2763 63.9197 33.402 62.8135 33.402C61.7073 33.402 61.7094 34.2743 61.7094 34.9165L61.6969 44.3765H61.7094ZM61.6969 48.6133V48.9573H56.8276V25.7031H61.6969V30.6009C62.0517 30.3461 62.7864 30.1327 63.1829 30.1327C67.7475 30.1327 68.7869 33.083 68.7869 35.2646V44.0243C68.7869 46.2059 67.783 49.1562 63.3228 49.1562C62.9262 49.1562 62.0517 48.9759 61.6927 48.6113H61.6969" fill="#32373F"/>
<path d="M69.9245 52.4834L71.0766 52.5C74.5037 52.5 74.7959 50.4199 74.7959 47.625V30.3708H69.9266V52.4834" fill="#32373F"/>
<path d="M69.9245 25.7153H74.7959V29.1483H69.9245V25.7153Z" fill="#32373F"/>
<path d="M150.146 31.8171V49.2618H148.274V31.8171H144.586V30.201H153.861V31.8171H150.146ZM163.783 49.2597H165.818L162.076 40.1064C162.472 40.0526 162.875 39.9179 163.282 39.7024C163.689 39.487 164.059 39.1824 164.393 38.7867C164.727 38.393 164.998 37.902 165.207 37.3198C165.415 36.7356 165.52 36.0415 165.52 35.2335C165.52 34.3012 165.38 33.5118 165.098 32.8654C164.818 32.219 164.447 31.699 163.986 31.3033C163.524 30.9096 163 30.6258 162.412 30.4559C161.825 30.286 161.216 30.201 160.581 30.201H155.971V49.2597H157.841V40.4296H160.31L163.781 49.2597H163.783ZM163.673 35.3288C163.673 36.4745 163.38 37.3633 162.792 37.9994C162.203 38.6334 161.395 38.9504 160.364 38.9504H157.843V31.8171H160.285C160.719 31.8171 161.139 31.8709 161.546 31.9787C161.953 32.0864 162.314 32.2729 162.631 32.5422C162.946 32.8115 163.199 33.172 163.391 33.6278C163.581 34.0836 163.675 34.6513 163.675 35.3309M177.206 49.2597H179.184L174.438 30.201H171.862L166.981 49.2597H168.907L170.128 44.4946H176.039L177.206 49.2597ZM173.165 31.8979L175.768 42.9883H170.397L173.056 31.8979H173.165ZM190.204 35.3702C190.204 34.3841 190.056 33.5574 189.758 32.8944C189.459 32.2314 189.075 31.6969 188.606 31.2929C188.134 30.8889 187.61 30.6071 187.032 30.4455C186.454 30.2839 185.884 30.2031 185.322 30.2031H180.793V49.2618H182.666V40.7549H185.485C186.099 40.7549 186.692 40.6368 187.261 40.4048C187.831 40.1707 188.332 39.8309 188.766 39.3813C189.2 38.9338 189.547 38.3723 189.81 37.699C190.073 37.0277 190.204 36.2508 190.204 35.3702ZM188.334 35.3827C188.334 36.6527 188.029 37.5954 187.424 38.2128C186.819 38.8302 186.091 39.1389 185.241 39.1389H182.666V31.8171H185.214C185.648 31.8171 186.049 31.8854 186.42 32.018C186.79 32.1527 187.122 32.362 187.41 32.6479C187.7 32.9338 187.925 33.3046 188.088 33.7604C188.251 34.2162 188.332 34.757 188.332 35.3827M192.028 49.2597H200.028V47.5629H193.871V40.1603H199.377V38.5443H193.871V31.8709H199.755V30.201H192.026V49.2597H192.028ZM202.176 49.2597H211.234V47.5629H204.209L211.18 31.8419V30.199H202.475V31.8689H209.199L202.174 47.6437V49.2597H202.176ZM213 49.2597H221V47.5629H214.843V40.1603H220.349V38.5443H214.843V31.8709H220.727V30.201H212.998V49.2597H213Z" fill="#5DA10C"/>
<rect x="12" y="25.5127" width="24" height="24" rx="1" fill="white"/>
<path d="M35.2312 25.5127H12.7688C12.3466 25.5127 12 25.8593 12 26.2815V48.7439C12 49.1661 12.3466 49.5127 12.7688 49.5127H35.2312C35.6534 49.5127 36 49.1661 36 48.7439V26.2815C36 25.8593 35.6555 25.5127 35.2312 25.5127ZM18.2447 43.4759L15.7157 43.4696C15.6254 43.4696 15.5729 43.3961 15.6023 43.31L19.3832 31.7448C19.4105 31.6587 19.5092 31.5873 19.5995 31.5894H22.1306C22.2209 31.5894 22.2734 31.6608 22.244 31.7469L18.4611 43.3205C18.4337 43.4066 18.335 43.4759 18.2447 43.4759ZM24 36.202C22.662 36.202 21.5193 37.0401 21.0593 38.2227L23.1346 31.8498C23.1745 31.7154 23.2501 31.5915 23.393 31.5915H24.6091C24.7499 31.5915 24.8255 31.7112 24.8675 31.8498L26.9428 38.2227C26.4828 37.0422 25.3401 36.2041 24.0021 36.202H24ZM32.2696 43.4717L29.7406 43.478C29.6503 43.478 29.5515 43.4087 29.5242 43.3226L25.7581 31.7469C25.7308 31.6608 25.7812 31.5894 25.8715 31.5894H28.4047C28.495 31.5894 28.5937 31.6587 28.621 31.7469L32.383 43.3142C32.4103 43.4003 32.3599 43.4717 32.2696 43.4738V43.4717Z" fill="url(#paint0_linear_33896_10134)"/>
</g>
<rect x="1262" y="23" width="32" height="32" rx="16" fill="#54622C"/>
<path d="M1275.22 41.66C1275.22 42.42 1274.95 43.02 1274.4 43.46C1273.84 43.9 1273.08 44.12 1272.1 44.12C1271.16 44.12 1270.36 43.96 1269.7 43.64V42.2C1270.06 42.36 1270.46 42.508 1270.89 42.644C1271.33 42.772 1271.77 42.836 1272.21 42.836C1272.73 42.836 1273.11 42.736 1273.34 42.536C1273.58 42.328 1273.7 42.064 1273.7 41.744C1273.7 41.392 1273.55 41.112 1273.24 40.904C1272.94 40.688 1272.5 40.456 1271.91 40.208C1271.56 40.064 1271.22 39.888 1270.89 39.68C1270.57 39.464 1270.31 39.196 1270.1 38.876C1269.9 38.548 1269.8 38.14 1269.8 37.652C1269.8 36.924 1270.06 36.352 1270.57 35.936C1271.09 35.52 1271.78 35.312 1272.64 35.312C1273.09 35.312 1273.52 35.36 1273.92 35.456C1274.32 35.552 1274.72 35.688 1275.12 35.864L1274.62 37.1C1274.26 36.948 1273.92 36.828 1273.59 36.74C1273.27 36.652 1272.94 36.608 1272.6 36.608C1272.18 36.608 1271.86 36.7 1271.65 36.884C1271.43 37.068 1271.32 37.312 1271.32 37.616C1271.32 37.848 1271.38 38.048 1271.5 38.216C1271.62 38.376 1271.81 38.524 1272.06 38.66C1272.31 38.796 1272.64 38.952 1273.04 39.128C1273.5 39.328 1273.9 39.54 1274.22 39.764C1274.54 39.98 1274.79 40.24 1274.96 40.544C1275.14 40.84 1275.22 41.212 1275.22 41.66ZM1280.53 44L1278.17 36.98H1278.13C1278.14 37.14 1278.15 37.368 1278.16 37.664C1278.18 37.952 1278.19 38.268 1278.2 38.612C1278.21 38.948 1278.22 39.264 1278.22 39.56V44H1276.84V35.432H1278.98L1281.23 42.164H1281.28L1283.63 35.432H1285.77V44H1284.31V39.488C1284.31 39.216 1284.31 38.92 1284.32 38.6C1284.33 38.272 1284.35 37.964 1284.35 37.676C1284.37 37.38 1284.38 37.152 1284.39 36.992H1284.34L1281.89 44H1280.53Z" fill="white"/>
<path d="M1309.03 41.8271C1309.03 42.6976 1308.71 43.3835 1308.08 43.8848C1307.46 44.3861 1306.58 44.6367 1305.46 44.6367C1304.27 44.6367 1303.36 44.4795 1302.71 44.165V42.9619C1303.13 43.1442 1303.6 43.2878 1304.1 43.3926C1304.6 43.4974 1305.08 43.5498 1305.51 43.5498C1306.26 43.5498 1306.82 43.4062 1307.2 43.1191C1307.58 42.832 1307.77 42.4378 1307.77 41.9365C1307.77 41.6038 1307.7 41.3304 1307.56 41.1162C1307.43 40.902 1307.2 40.7015 1306.87 40.5146C1306.56 40.3278 1306.07 40.1159 1305.42 39.8789C1304.49 39.5417 1303.83 39.1452 1303.44 38.6895C1303.04 38.2292 1302.84 37.6367 1302.84 36.9121C1302.84 36.1328 1303.13 35.513 1303.72 35.0527C1304.3 34.5924 1305.08 34.3623 1306.03 34.3623C1307.03 34.3623 1307.95 34.5492 1308.79 34.9229L1308.4 36.0029C1307.54 35.6475 1306.74 35.4697 1306.01 35.4697C1305.41 35.4697 1304.95 35.5973 1304.61 35.8525C1304.28 36.1077 1304.11 36.4655 1304.11 36.9258C1304.11 37.2539 1304.18 37.5273 1304.3 37.7461C1304.44 37.9603 1304.65 38.1562 1304.93 38.334C1305.22 38.5117 1305.68 38.7145 1306.3 38.9424C1307.04 39.2158 1307.6 39.4824 1307.96 39.7422C1308.33 39.9974 1308.59 40.2936 1308.77 40.6309C1308.94 40.9635 1309.03 41.3623 1309.03 41.8271ZM1313.88 44.6367C1312.8 44.6367 1311.96 44.3063 1311.36 43.6455C1310.76 42.9801 1310.46 42.0277 1310.46 40.7881C1310.46 39.5303 1310.76 38.5618 1311.37 37.8828C1311.98 37.1992 1312.84 36.8574 1313.97 36.8574C1314.33 36.8574 1314.69 36.8962 1315.05 36.9736C1315.41 37.0465 1315.71 37.1423 1315.94 37.2607L1315.56 38.2861C1314.93 38.0492 1314.39 37.9307 1313.94 37.9307C1313.19 37.9307 1312.63 38.1699 1312.27 38.6484C1311.91 39.1224 1311.73 39.8311 1311.73 40.7744C1311.73 41.6813 1311.91 42.3763 1312.27 42.8594C1312.63 43.3379 1313.16 43.5771 1313.87 43.5771C1314.53 43.5771 1315.18 43.4313 1315.82 43.1396V44.2334C1315.3 44.5023 1314.65 44.6367 1313.88 44.6367ZM1324.12 40.7334C1324.12 41.9593 1323.81 42.9163 1323.19 43.6045C1322.57 44.2926 1321.71 44.6367 1320.62 44.6367C1319.94 44.6367 1319.34 44.4795 1318.82 44.165C1318.29 43.846 1317.89 43.3903 1317.61 42.7979C1317.32 42.2054 1317.18 41.5173 1317.18 40.7334C1317.18 39.512 1317.49 38.5618 1318.1 37.8828C1318.71 37.1992 1319.57 36.8574 1320.67 36.8574C1321.73 36.8574 1322.56 37.2061 1323.18 37.9033C1323.81 38.596 1324.12 39.5394 1324.12 40.7334ZM1318.45 40.7334C1318.45 41.6768 1318.64 42.3945 1319.01 42.8867C1319.38 43.3743 1319.93 43.6182 1320.66 43.6182C1321.37 43.6182 1321.92 43.3743 1322.29 42.8867C1322.66 42.3945 1322.85 41.6768 1322.85 40.7334C1322.85 39.79 1322.66 39.0814 1322.28 38.6074C1321.91 38.1289 1321.36 37.8896 1320.63 37.8896C1319.18 37.8896 1318.45 38.8376 1318.45 40.7334ZM1328.58 43.6318C1328.74 43.6318 1328.93 43.6159 1329.15 43.584C1329.36 43.5521 1329.52 43.5156 1329.63 43.4746V44.418C1329.52 44.4681 1329.34 44.516 1329.1 44.5615C1328.86 44.6117 1328.62 44.6367 1328.37 44.6367C1326.91 44.6367 1326.17 43.8643 1326.17 42.3193V37.9512H1325.11V37.3633L1326.19 36.8711L1326.68 35.2715H1327.41V36.9941H1329.58V37.9512H1327.41V42.2852C1327.41 42.7181 1327.51 43.0508 1327.72 43.2832C1327.93 43.5156 1328.22 43.6318 1328.58 43.6318ZM1333.64 43.6318C1333.8 43.6318 1333.99 43.6159 1334.2 43.584C1334.42 43.5521 1334.58 43.5156 1334.69 43.4746V44.418C1334.58 44.4681 1334.4 44.516 1334.16 44.5615C1333.92 44.6117 1333.68 44.6367 1333.43 44.6367C1331.96 44.6367 1331.23 43.8643 1331.23 42.3193V37.9512H1330.17V37.3633L1331.24 36.8711L1331.74 35.2715H1332.47V36.9941H1334.63V37.9512H1332.47V42.2852C1332.47 42.7181 1332.57 43.0508 1332.78 43.2832C1332.99 43.5156 1333.27 43.6318 1333.64 43.6318ZM1344.41 44.5L1341.12 35.7363H1341.06C1341.13 36.4655 1341.16 37.3656 1341.16 38.4365V44.5H1340V34.5059H1341.86L1344.94 42.6953H1345L1348.14 34.5059H1349.98V44.5H1348.74V38.3545C1348.74 37.6709 1348.77 36.8027 1348.83 35.75H1348.78L1345.44 44.5H1344.41ZM1357.17 44.5L1356.93 43.4336H1356.87C1356.5 43.903 1356.12 44.222 1355.75 44.3906C1355.38 44.5547 1354.91 44.6367 1354.35 44.6367C1353.61 44.6367 1353.03 44.443 1352.61 44.0557C1352.19 43.6683 1351.98 43.1214 1351.98 42.415C1351.98 40.8929 1353.19 40.0954 1355.59 40.0225L1356.86 39.9746V39.5303C1356.86 38.9606 1356.74 38.5413 1356.49 38.2725C1356.24 37.999 1355.85 37.8623 1355.31 37.8623C1354.91 37.8623 1354.53 37.9215 1354.18 38.04C1353.83 38.1585 1353.5 38.2907 1353.19 38.4365L1352.81 37.5137C1353.19 37.3132 1353.6 37.1559 1354.05 37.042C1354.5 36.9281 1354.94 36.8711 1355.38 36.8711C1356.28 36.8711 1356.96 37.0716 1357.4 37.4727C1357.84 37.8737 1358.06 38.5117 1358.06 39.3867V44.5H1357.17ZM1354.63 43.6455C1355.32 43.6455 1355.86 43.4609 1356.25 43.0918C1356.65 42.7181 1356.84 42.1895 1356.84 41.5059V40.8291L1355.74 40.877C1354.88 40.9089 1354.25 41.0456 1353.85 41.2871C1353.46 41.5286 1353.26 41.9092 1353.26 42.4287C1353.26 42.8206 1353.38 43.1214 1353.62 43.3311C1353.86 43.5407 1354.2 43.6455 1354.63 43.6455ZM1363.89 36.8574C1364.23 36.8574 1364.52 36.8848 1364.77 36.9395L1364.62 38.0742C1364.35 38.0104 1364.07 37.9785 1363.81 37.9785C1363.41 37.9785 1363.04 38.0879 1362.7 38.3066C1362.37 38.5254 1362.1 38.8285 1361.91 39.2158C1361.72 39.5986 1361.62 40.0247 1361.62 40.4941V44.5H1360.39V36.9941H1361.4L1361.54 38.3682H1361.6C1361.88 37.8714 1362.22 37.4954 1362.61 37.2402C1363.01 36.985 1363.43 36.8574 1363.89 36.8574ZM1371.06 42.4287C1371.06 43.1305 1370.8 43.6751 1370.28 44.0625C1369.75 44.4453 1369.02 44.6367 1368.07 44.6367C1367.08 44.6367 1366.29 44.4795 1365.71 44.165V43.0439C1366.54 43.445 1367.33 43.6455 1368.1 43.6455C1368.72 43.6455 1369.17 43.5452 1369.45 43.3447C1369.73 43.1442 1369.87 42.8753 1369.87 42.5381C1369.87 42.2419 1369.74 41.9912 1369.46 41.7861C1369.19 41.5811 1368.71 41.3464 1368.02 41.082C1367.32 40.8086 1366.82 40.5762 1366.53 40.3848C1366.24 40.1888 1366.03 39.9701 1365.9 39.7285C1365.76 39.487 1365.7 39.193 1365.7 38.8467C1365.7 38.2314 1365.95 37.7461 1366.45 37.3906C1366.95 37.0352 1367.64 36.8574 1368.51 36.8574C1369.37 36.8574 1370.16 37.026 1370.91 37.3633L1370.49 38.3408C1369.73 38.0218 1369.04 37.8623 1368.43 37.8623C1367.92 37.8623 1367.53 37.9443 1367.27 38.1084C1367.01 38.2679 1366.87 38.4889 1366.87 38.7715C1366.87 39.0449 1366.99 39.2728 1367.21 39.4551C1367.44 39.6328 1367.97 39.8812 1368.81 40.2002C1369.43 40.4326 1369.89 40.6491 1370.19 40.8496C1370.49 41.0501 1370.71 41.2757 1370.85 41.5264C1370.99 41.777 1371.06 42.0778 1371.06 42.4287ZM1378 44.5V39.7012C1378 39.0905 1377.87 38.637 1377.59 38.3408C1377.32 38.04 1376.9 37.8896 1376.32 37.8896C1375.56 37.8896 1375 38.1016 1374.65 38.5254C1374.29 38.9492 1374.12 39.6488 1374.12 40.624V44.5H1372.89V33.8633H1374.12V36.9805C1374.12 37.3906 1374.1 37.7415 1374.05 38.0332H1374.13C1374.36 37.6686 1374.67 37.3838 1375.08 37.1787C1375.49 36.9736 1375.96 36.8711 1376.47 36.8711C1377.38 36.8711 1378.07 37.0898 1378.53 37.5273C1378.99 37.9603 1379.22 38.6553 1379.22 39.6123V44.5H1378ZM1386.18 44.5L1385.94 43.4336H1385.88C1385.51 43.903 1385.14 44.222 1384.76 44.3906C1384.39 44.5547 1383.93 44.6367 1383.36 44.6367C1382.62 44.6367 1382.04 44.443 1381.62 44.0557C1381.21 43.6683 1381 43.1214 1381 42.415C1381 40.8929 1382.2 40.0954 1384.6 40.0225L1385.87 39.9746V39.5303C1385.87 38.9606 1385.75 38.5413 1385.5 38.2725C1385.25 37.999 1384.86 37.8623 1384.32 37.8623C1383.92 37.8623 1383.55 37.9215 1383.19 38.04C1382.84 38.1585 1382.51 38.2907 1382.2 38.4365L1381.82 37.5137C1382.2 37.3132 1382.61 37.1559 1383.06 37.042C1383.51 36.9281 1383.95 36.8711 1384.39 36.8711C1385.29 36.8711 1385.97 37.0716 1386.41 37.4727C1386.85 37.8737 1387.07 38.5117 1387.07 39.3867V44.5H1386.18ZM1383.64 43.6455C1384.33 43.6455 1384.87 43.4609 1385.26 43.0918C1385.66 42.7181 1385.86 42.1895 1385.86 41.5059V40.8291L1384.75 40.877C1383.89 40.9089 1383.26 41.0456 1382.86 41.2871C1382.47 41.5286 1382.27 41.9092 1382.27 42.4287C1382.27 42.8206 1382.39 43.1214 1382.63 43.3311C1382.87 43.5407 1383.21 43.6455 1383.64 43.6455ZM1390.63 44.5H1389.4V33.8633H1390.63V44.5ZM1394.24 44.5H1393.01V33.8633H1394.24V44.5Z" fill="#525965"/>
<path d="M1410 42.7498L1403.75 36.4998L1404.63 35.6248L1410 40.9998L1415.38 35.6248L1416.25 36.4998L1410 42.7498Z" fill="#525965"/>
<line y1="72.5" x2="1440" y2="72.5" stroke="#F5F5F5"/>
<defs>
<linearGradient id="paint0_linear_33896_10134" x1="32.0553" y1="51.464" x2="15.9447" y2="23.5614" gradientUnits="userSpaceOnUse">
<stop stop-color="#77BC4A"/>
<stop offset="0.5" stop-color="#5DA10C"/>
<stop offset="0.76" stop-color="#549809"/>
<stop offset="1" stop-color="#488C07"/>
</linearGradient>
<clipPath id="clip0_33896_10134">
<rect width="209" height="27" fill="white" transform="translate(12 25.5)"/>
</clipPath>
</defs>
</svg>
