<svg width="212" height="48" viewBox="0 0 212 48" fill="none" xmlns="http://www.w3.org/2000/svg">
<g clip-path="url(#clip0_17650_3521)">
<path fill-rule="evenodd" clip-rule="evenodd" d="M35.1194 16.5953C35.1194 15.808 35.1194 14.4696 36.6118 14.4696C38.1042 14.4696 38.1022 15.808 38.1022 16.5953V28.0919C38.1022 28.703 38.1022 30.2134 36.6118 30.2134C35.1215 30.2134 35.1194 28.703 35.1194 28.0919V16.5953ZM29.9457 27.6257C29.9457 31.759 32.5035 34.183 36.6097 34.183C40.716 34.183 43.2717 31.759 43.2717 27.6257V17.0594C43.2717 12.518 40.461 10.5 36.6097 10.5C32.7585 10.5 29.9457 12.518 29.9457 17.0594V27.6257Z" fill="#32373F"/>
<path d="M76.3167 29.0511C76.3167 31.2327 77.4111 34.183 82.249 34.183C87.0869 34.183 88.1814 31.2327 88.1814 29.0511V25.3923H83.3434V29.4012C83.3434 30.0394 83.3435 30.9137 82.2469 30.9137C81.1504 30.9137 81.1504 30.0394 81.1504 29.4012V19.9413C81.1504 19.3011 81.1504 18.4268 82.2469 18.4268C83.3435 18.4268 83.3434 19.3011 83.3434 19.9413V22.5994H88.1814V20.2914C88.1814 18.1077 87.0828 15.1595 82.249 15.1595C77.4152 15.1595 76.3167 18.1077 76.3167 20.2914V29.0511Z" fill="#32373F"/>
<path d="M89.5804 30.6942C89.5804 33.6051 91.1868 33.9531 93.2679 33.9531H94.4183V18.9697H95.6247V15.3585H94.4183V10.7031H89.5804V15.3585H88.3699V18.9697H89.5804V30.6942Z" fill="#32373F"/>
<path fill-rule="evenodd" clip-rule="evenodd" d="M96.3024 33.9697H101.14V15.371H96.3024V33.9697ZM96.3024 14.1486H101.14V10.7156H96.3024V14.1507V14.1486Z" fill="#32373F"/>
<path fill-rule="evenodd" clip-rule="evenodd" d="M104.743 33.9696H110.397L113.685 15.3709H108.849L107.64 27.2735H107.582L106.459 15.3709H101.48L104.743 33.9696Z" fill="#32373F"/>
<path fill-rule="evenodd" clip-rule="evenodd" d="M63.4589 29.0511C63.4589 31.2327 64.5533 34.183 69.3892 34.183C74.225 34.183 75.3257 31.2348 75.3257 29.0511V27.0725H70.4857V29.4012C70.4857 30.0394 70.4857 30.9137 69.3892 30.9137C68.2926 30.9137 68.2926 30.0394 68.2926 29.4012V25.413H75.3257V20.2914C75.3257 18.1077 74.2291 15.1595 69.3892 15.1595C64.5492 15.1595 63.4589 18.1077 63.4589 20.2914V29.0532V29.0511ZM68.2947 19.9392C68.2947 19.299 68.2947 18.4268 69.3912 18.4268C70.4877 18.4268 70.4877 19.299 70.4877 19.9392V21.9779H68.2947V19.9392Z" fill="#32373F"/>
<path fill-rule="evenodd" clip-rule="evenodd" d="M113.513 29.0511C113.513 31.2327 114.607 34.183 119.445 34.183C124.283 34.183 125.38 31.2348 125.38 29.0511V27.0725H120.544V29.4012C120.544 30.0394 120.544 30.9137 119.447 30.9137C118.351 30.9137 118.351 30.0394 118.351 29.4012V25.413H125.382V20.2914C125.382 18.1077 124.285 15.1595 119.447 15.1595C114.609 15.1595 113.515 18.1077 113.515 20.2914V29.0532L113.513 29.0511ZM118.351 19.9392C118.351 19.299 118.351 18.4247 119.447 18.4247C120.544 18.4247 120.544 19.299 120.544 19.9392V21.9779H118.349V19.9392" fill="#32373F"/>
<path fill-rule="evenodd" clip-rule="evenodd" d="M49.3659 29.3765C49.3659 30.0167 49.3659 30.891 50.4624 30.891C51.5589 30.891 51.561 30.0167 51.561 29.3765V19.9165C51.561 19.2764 51.561 18.402 50.4624 18.402C49.3638 18.402 49.3659 19.2743 49.3659 19.9165L49.3534 29.3765H49.3659ZM49.3534 33.6134V33.9573H44.5176V10.7031H49.3534V15.6009C49.7058 15.3461 50.4354 15.1327 50.8293 15.1327C55.3625 15.1327 56.3947 18.083 56.3947 20.2646V29.0243C56.3947 31.2059 55.3977 34.1562 50.9681 34.1562C50.5743 34.1562 49.7058 33.9759 49.3493 33.6113H49.3534" fill="#32373F"/>
<path d="M57.5247 37.4834L58.6688 37.5C62.0724 37.5 62.3626 35.4199 62.3626 32.625V15.3709H57.5267V37.4834" fill="#32373F"/>
<path d="M57.5247 10.7156H62.3626V14.1486H57.5247V10.7156Z" fill="#32373F"/>
<path d="M140.031 34.1893L133.719 24.5118H133.692L133.702 34.1975H131.86L131.839 15.3087H133.682L133.692 23.7908H133.719L139.635 15.2984H141.797L135.454 24.029L142.273 34.1872H140.031V34.1893Z" fill="#5DA10C"/>
<path d="M144.73 34.183L144.709 15.2922L152.316 15.2839V16.9393L146.525 16.9455L146.533 23.5629L151.951 23.5567V25.1582L146.535 25.1644L146.543 32.5028L152.602 32.4966V34.1768L144.73 34.1851V34.183Z" fill="#5DA10C"/>
<path d="M160.23 26.4013L160.238 34.1665H158.423L158.414 26.4033L153.703 15.2818H155.732L159.32 24.4807L162.966 15.2714H164.969L160.23 26.4013Z" fill="#5DA10C"/>
<path d="M176.4 20.3805C176.4 21.2528 176.274 22.0214 176.017 22.6886C175.76 23.3557 175.418 23.913 174.991 24.3564C174.564 24.8018 174.07 25.1395 173.511 25.3716C172.951 25.6036 172.366 25.7196 171.763 25.7196L168.988 25.7238L168.998 34.1561H167.155L167.135 15.2673L171.593 15.2631C172.145 15.2631 172.706 15.3419 173.274 15.5014C173.844 15.6609 174.36 15.9406 174.823 16.3405C175.285 16.7404 175.664 17.2687 175.959 17.9275C176.253 18.5863 176.4 19.4026 176.402 20.3826L176.4 20.3805ZM174.559 20.3971C174.559 19.7756 174.479 19.241 174.317 18.7894C174.155 18.3377 173.933 17.971 173.647 17.6872C173.361 17.4033 173.038 17.1962 172.673 17.0636C172.308 16.931 171.912 16.8647 171.485 16.8647H168.975L168.984 24.1243H171.519C172.354 24.1202 173.071 23.8136 173.666 23.2024C174.261 22.5912 174.559 21.6547 174.557 20.3971H174.559Z" fill="#5DA10C"/>
<path d="M179.432 34.1457L179.412 15.2549H181.281L181.3 32.4096L186.691 32.4033V34.1375L179.432 34.1457Z" fill="#5DA10C"/>
<path d="M197.051 34.125L195.899 29.4033L190.078 29.4095L188.882 34.1333H186.988L191.772 15.2383H194.307L199 34.1209H197.051V34.125ZM193.053 16.9206H192.945L190.341 27.9178L195.627 27.9116L193.053 16.9206Z" fill="#5DA10C"/>
<path d="M209.764 34.1105L203.172 18.4019H203.091L203.11 34.1188H201.348L201.328 15.23H203.649L210.207 30.9365H210.288L210.272 15.2196H211.98L212 34.1084H209.764V34.1105Z" fill="#5DA10C"/>
<rect y="10.5127" width="24" height="24" rx="1" fill="white"/>
<path d="M23.2312 10.5127H0.768773C0.346578 10.5127 0 10.8592 0 11.2814V33.7439C0 34.1661 0.346578 34.5127 0.768773 34.5127H23.2312C23.6534 34.5127 24 34.1661 24 33.7439V11.2814C24 10.8592 23.6555 10.5127 23.2312 10.5127ZM13.6573 26.6107C13.6573 26.6968 13.5964 26.7682 13.5165 26.7892L5.65027 28.6082C5.63557 28.6124 5.62086 28.6145 5.60616 28.6145C5.50324 28.6145 5.41922 28.5305 5.41922 28.4276V16.6229C5.41922 16.6229 5.41922 16.6187 5.41922 16.6166C5.41922 16.5137 5.50324 16.4297 5.60616 16.4297C5.63347 16.4297 5.65867 16.436 5.68388 16.4465L9.25678 18.1143V23.7645L13.6573 22.7521V26.6086V26.6107ZM18.3035 28.6124C18.2762 28.6124 18.251 28.6061 18.2258 28.5956L14.6529 26.9636V21.4981L10.2524 22.5106V18.7171C10.2524 18.631 10.3133 18.5596 10.3931 18.5386L18.2594 16.4108C18.2741 16.4066 18.2888 16.4045 18.3035 16.4045C18.4064 16.4045 18.4905 16.4885 18.4905 16.5914V28.4213C18.4905 28.4213 18.4905 28.4255 18.4905 28.4276C18.4905 28.5305 18.4064 28.6145 18.3035 28.6145V28.6124Z" fill="url(#paint0_linear_17650_3521)"/>
</g>
<defs>
<linearGradient id="paint0_linear_17650_3521" x1="20.0553" y1="36.464" x2="3.94469" y2="8.56133" gradientUnits="userSpaceOnUse">
<stop stop-color="#77BC4A"/>
<stop offset="0.5" stop-color="#5DA10C"/>
<stop offset="0.76" stop-color="#549809"/>
<stop offset="1" stop-color="#488C07"/>
</linearGradient>
<clipPath id="clip0_17650_3521">
<rect width="212" height="27" fill="white" transform="translate(0 10.5)"/>
</clipPath>
</defs>
</svg>
